  0
SECTION
  2
HEADER
  9
$ACADVER
  1
AC1009
  9
$INSBASE
 10
0.0
 20
0.0
 30
0.0
  9
$EXTMIN
 10
0.0
 20
0.0
 30
0.0
  9
$EXTMAX
 10
116.1124942212052
 20
131.64350993303449
 30
0.0
  9
$LIMMIN
 10
0.0
 20
0.0
  9
$LIMMAX
 10
116.1124942212052
 20
131.64350993303449
  9
$ORTHOMODE
 70
     0
  9
$REGENMODE
 70
     1
  9
$FILLMODE
 70
     1
  9
$QTEXTMODE
 70
     0
  9
$MIRRTEXT
 70
     0
  9
$DRAGMODE
 70
     2
  9
$LTSCALE
 40
1.0
  9
$OSMODE
 70
     0
  9
$ATTMODE
 70
     1
  9
$TEXTSIZE
 40
0.2
  9
$TRACEWID
 40
0.05
  9
$TEXTSTYLE
  7
STANDARD
  9
$CLAYER
  8
0
  9
$CELTYPE
  6
BYLAYER
  9
$CECOLOR
 62
   256
  9
$DIMSCALE
 40
1.0
  9
$DIMASZ
 40
1.7999999999999989
  9
$DIMEXO
 40
0.0625
  9
$DIMDLI
 40
0.38
  9
$DIMRND
 40
0.0
  9
$DIMDLE
 40
0.0
  9
$DIMEXE
 40
0.18
  9
$DIMTP
 40
0.0
  9
$DIMTM
 40
0.0
  9
$DIMTXT
 40
1.7999999999999989
  9
$DIMCEN
 40
0.09
  9
$DIMTSZ
 40
0.0
  9
$DIMTOL
 70
     0
  9
$DIMLIM
 70
     0
  9
$DIMTIH
 70
     1
  9
$DIMTOH
 70
     1
  9
$DIMSE1
 70
     0
  9
$DIMSE2
 70
     0
  9
$DIMTAD
 70
     0
  9
$DIMZIN
 70
     0
  9
$DIMBLK
  1

  9
$DIMASO
 70
     1
  9
$DIMSHO
 70
     1
  9
$DIMPOST
  1

  9
$DIMAPOST
  1

  9
$DIMALT
 70
     0
  9
$DIMALTD
 70
     2
  9
$DIMALTF
 40
25.399999999999999
  9
$DIMLFAC
 40
1.0
  9
$DIMTOFL
 70
     0
  9
$DIMTVP
 40
0.0
  9
$DIMTIX
 70
     0
  9
$DIMSOXD
 70
     0
  9
$DIMSAH
 70
     0
  9
$DIMBLK1
  1

  9
$DIMBLK2
  1

  9
$DIMSTYLE
  2
STANDARD
  9
$DIMCLRD
 70
     0
  9
$DIMCLRE
 70
     0
  9
$DIMCLRT
 70
     0
  9
$DIMTFAC
 40
1.0
  9
$DIMGAP
 40
0.09
  9
$LUNITS
 70
     2
  9
$LUPREC
 70
     4
  9
$SKETCHINC
 40
0.1
  9
$FILLETRAD
 40
0.0
  9
$AUNITS
 70
     0
  9
$AUPREC
 70
     0
  9
$MENU
  1
.
  9
$ELEVATION
 40
0.0
  9
$PELEVATION
 40
0.0
  9
$THICKNESS
 40
0.0
  9
$LIMCHECK
 70
     0
  9
$BLIPMODE
 70
     0
  9
$CHAMFERA
 40
0.0
  9
$CHAMFERB
 40
0.0
  9
$SKPOLY
 70
     0
  9
$TDCREATE
 40
2457919.755733924
  9
$TDUPDATE
 40
2457919.755733924
  9
$TDINDWG
 40
0.0000023958
  9
$TDUSRTIMER
 40
0.0000023958
  9
$USRTIMER
 70
     1
  9
$ANGBASE
 50
0.0
  9
$ANGDIR
 70
     0
  9
$PDMODE
 70
     0
  9
$PDSIZE
 40
0.0
  9
$PLINEWID
 40
0.0
  9
$COORDS
 70
     0
  9
$SPLFRAME
 70
     0
  9
$SPLINETYPE
 70
     6
  9
$SPLINESEGS
 70
     8
  9
$ATTDIA
 70
     1
  9
$ATTREQ
 70
     1
  9
$HANDLING
 70
     1
  9
$HANDSEED
  5
476
  9
$SURFTAB1
 70
     6
  9
$SURFTAB2
 70
     6
  9
$SURFTYPE
 70
     6
  9
$SURFU
 70
     6
  9
$SURFV
 70
     6
  9
$UCSNAME
  2

  9
$UCSORG
 10
0.0
 20
0.0
 30
0.0
  9
$UCSXDIR
 10
1.0
 20
0.0
 30
0.0
  9
$UCSYDIR
 10
0.0
 20
1.0
 30
0.0
  9
$PUCSNAME
  2

  9
$PUCSORG
 10
0.0
 20
0.0
 30
0.0
  9
$PUCSXDIR
 10
1.0
 20
0.0
 30
0.0
  9
$PUCSYDIR
 10
0.0
 20
1.0
 30
0.0
  9
$USERI1
 70
     0
  9
$USERI2
 70
     0
  9
$USERI3
 70
     0
  9
$USERI4
 70
     0
  9
$USERI5
 70
     0
  9
$USERR1
 40
0.0
  9
$USERR2
 40
0.0
  9
$USERR3
 40
0.0
  9
$USERR4
 40
0.0
  9
$USERR5
 40
0.0
  9
$WORLDVIEW
 70
     1
  9
$SHADEDGE
 70
     3
  9
$SHADEDIF
 70
    70
  9
$TILEMODE
 70
     1
  9
$MAXACTVP
 70
    64
  9
$PLIMCHECK
 70
     0
  9
$PEXTMIN
 10
0.0
 20
0.0
 30
0.0
  9
$PEXTMAX
 10
116.1124942212052
 20
131.64350993303449
 30
0.0
  9
$PLIMMIN
 10
0.0
 20
0.0
  9
$PLIMMAX
 10
116.1124942212052
 20
131.64350993303449
  9
$UNITMODE
 70
     0
  9
$VISRETAIN
 70
     1
  9
$PLINEGEN
 70
     0
  9
$PSLTSCALE
 70
     1
  0
ENDSEC
  0
SECTION
  2
TABLES
  0
TABLE
  2
VPORT
 70
     1
  0
VPORT
  2
*ACTIVE
 70
     0
 10
0.0
 20
0.0
 11
1.0
 21
1.0
 12
1.6729776409247199
 22
5.0416865320482813
 13
0.0
 23
0.0
 14
1.0
 24
1.0
 15
0.0
 25
0.0
 16
0.0
 26
0.0
 36
1.0
 17
0.0
 27
0.0
 37
0.0
 40
131.64350993303449
 41
0.8820221694200521
 42
50.0
 43
0.0
 44
0.0
 50
0.0
 51
0.0
 71
     0
 72
   100
 73
     1
 74
     1
 75
     0
 76
     0
 77
     0
 78
     0
  0
ENDTAB
  0
TABLE
  2
LTYPE
 70
    59
  0
LTYPE
  2
CONTINUOUS
 70
     0
  3
Solid line
 72
    65
 73
     0
 40
0.0
  0
LTYPE
  2
BY_STANDARD
 70
     0
  3
By Standard ____________    ____    ____   _
 72
    65
 73
     6
 40
1.2402999999999991
 49
0.6614
 49
-0.0827
 49
0.1654
 49
-0.0827
 49
0.1654
 49
-0.0827
  0
LTYPE
  2
CHAIN
 70
     0
  3
Chain ____ _ ____ _ ____ _ ____ _ ____ _ ____
 72
    65
 73
     4
 40
0.7087
 49
0.4724000000000001
 49
-0.0591
 49
0.1181
 49
-0.0591
  0
LTYPE
  2
DASH_DOT
 70
     0
  3
Dash dot __ . __ . __ . __ . __ . __ . __ . __
 72
    65
 73
     4
 40
0.37
 49
0.24
 49
-0.06
 49
0.01
 49
-0.06
  0
LTYPE
  2
DOUBLE_DASH_DOT
 70
     0
  3
Double-Dash Dot __ __ . __ __ . __ __ . __ _
 72
    65
 73
     6
 40
0.4398
 49
0.24
 49
-0.06
 49
0.0098
 49
-0.06
 49
0.01
 49
-0.06
  0
LTYPE
  2
DASH_TRIPLE_DOT
 70
     0
  3
Dash Triple-Dot _ . . . _ . . . _ . . . _
 72
    65
 73
     8
 40
0.51
 49
0.24
 49
-0.06
 49
0.01
 49
-0.06
 49
0.01
 49
-0.06
 49
0.01
 49
-0.06
  0
LTYPE
  2
DASHED
 70
     0
  3
Dashed __ __ __ __ __ __ __ __ __ __ __ __ __ _
 72
    65
 73
     2
 40
0.2067
 49
0.1654
 49
-0.0413
  0
LTYPE
  2
DASH_DOUBLE_DOT
 70
     0
  3
Dash Double-Dot __ . . __ . . __ . . __ . .
 72
    65
 73
     6
 40
0.4398
 49
0.24
 49
-0.06
 49
0.0098
 49
-0.06
 49
0.01
 49
-0.06
  0
LTYPE
  2
DASHED_SPACE
 70
     0
  3
Dashed Space __ __ __ __ __ __ __ __ __ __ __ _
 72
    65
 73
     2
 40
0.2067
 49
0.1654
 49
-0.0413
  0
LTYPE
  2
DOTTED
 70
     0
  3
Dotted . . . . . . . . . . . . . . . . . . . . 
 72
    65
 73
     2
 40
0.0482
 49
0.0069
 49
-0.0413
  0
LTYPE
  2
DOUBLE_DASH_CHAIN
 70
     0
  3
Double-Dash Chain ______  __  __  ______  __  _
 72
    65
 73
     6
 40
1.2402999999999991
 49
0.6614
 49
-0.0827
 49
0.1654
 49
-0.0827
 49
0.1654
 49
-0.0827
  0
LTYPE
  2
DOUBLE_DASH_DOUBLE_DOT
 70
     0
  3
Double-Dash Double-dot _ _ . . _ _ . . _
 72
    65
 73
     8
 40
0.7400000000000001
 49
0.24
 49
-0.06
 49
0.24
 49
-0.06
 49
0.01
 49
-0.06
 49
0.01
 49
-0.06
  0
LTYPE
  2
DOUBLE_DASH_TRIPLE_DOT
 70
     0
  3
Double Dash Triple Dot __ __ . . . __ __ . .
 72
    65
 73
    10
 40
0.8100000000000001
 49
0.24
 49
-0.06
 49
0.24
 49
-0.06
 49
0.01
 49
-0.06
 49
0.01
 49
-0.06
 49
0.01
 49
-0.06
  0
LTYPE
  2
LONG_DASH_DOTTED
 70
     0
  3
Long Dash Dotted ____ . ____ . ____ . ____ . _
 72
    65
 73
     4
 40
0.3543
 49
0.2362
 49
-0.0295
 49
0.0591
 49
-0.0295
  0
LTYPE
  2
LONG_DASH_DOUBLE_DOT
 70
     0
  3
Long Dash Double Dot ________  .  .  ________  
 72
    65
 73
     6
 40
0.6799999999999999
 49
0.48
 49
-0.06
 49
0.01
 49
-0.06
 49
0.01
 49
-0.06
  0
LTYPE
  2
LONG_DASH_TRIPLE_DOT
 70
     0
  3
Long Dash Triple Dot ____ ... ____ ... ____
 72
    65
 73
     8
 40
0.3689
 49
0.2362
 49
-0.0295
 49
0.0049
 49
-0.0295
 49
0.0049
 49
-0.0295
 49
0.0049
 49
-0.0295
  0
LTYPE
  2
BORDER
 70
     0
  3
Border __ __ . __ __ . __ __ . __ __ . __ __ .
 72
    65
 73
     6
 40
1.75
 49
0.5
 49
-0.25
 49
0.5
 49
-0.25
 49
0.0
 49
-0.25
  0
LTYPE
  2
BORDER2
 70
     0
  3
Border (.5x) __.__.__.__.__.__.__.__.__.__.__.
 72
    65
 73
     6
 40
0.875
 49
0.25
 49
-0.125
 49
0.25
 49
-0.125
 49
0.0
 49
-0.125
  0
LTYPE
  2
BORDERX2
 70
     0
  3
Border (2x) ____  ____  .  ____  ____  .  ___
 72
    65
 73
     6
 40
3.5
 49
1.0
 49
-0.5
 49
1.0
 49
-0.5
 49
0.0
 49
-0.5
  0
LTYPE
  2
CENTER
 70
     0
  3
Center ____ _ ____ _ ____ _ ____ _ ____ _ ____
 72
    65
 73
     4
 40
2.0
 49
1.25
 49
-0.25
 49
0.25
 49
-0.25
  0
LTYPE
  2
CENTER2
 70
     0
  3
Center (.5x) ___ _ ___ _ ___ _ ___ _ ___ _ ___
 72
    65
 73
     4
 40
1.125
 49
0.75
 49
-0.125
 49
0.125
 49
-0.125
  0
LTYPE
  2
CENTERX2
 70
     0
  3
Center (2x) ________  __  ________  __  _____
 72
    65
 73
     4
 40
4.0
 49
2.5
 49
-0.5
 49
0.5
 49
-0.5
  0
LTYPE
  2
DASHDOT2
 70
     0
  3
Dash dot (.5x) _._._._._._._._._._._._._._._.
 72
    65
 73
     4
 40
0.5
 49
0.25
 49
-0.125
 49
0.0
 49
-0.125
  0
LTYPE
  2
DASHDOTX2
 70
     0
  3
Dash dot (2x) ____  .  ____  .  ____  .  ___
 72
    65
 73
     4
 40
2.0
 49
1.0
 49
-0.5
 49
0.0
 49
-0.5
  0
LTYPE
  2
DASHED2
 70
     0
  3
Dashed (.5x) _ _ _ _ _ _ _ _ _ _ _ _ _ _ _ _ _
 72
    65
 73
     2
 40
0.375
 49
0.25
 49
-0.125
  0
LTYPE
  2
DASHEDX2
 70
     0
  3
Dashed (2x) ____  ____  ____  ____  ____  ___
 72
    65
 73
     2
 40
1.5
 49
1.0
 49
-0.5
  0
LTYPE
  2
DIVIDE
 70
     0
  3
Divide ____ . . ____ . . ____ . . ____ . . ____
 72
    65
 73
     6
 40
1.25
 49
0.5
 49
-0.25
 49
0.0
 49
-0.25
 49
0.0
 49
-0.25
  0
LTYPE
  2
DIVIDE2
 70
     0
  3
Divide (.5x) __..__..__..__..__..__..__..__.._
 72
    65
 73
     6
 40
0.625
 49
0.25
 49
-0.125
 49
0.0
 49
-0.125
 49
0.0
 49
-0.125
  0
LTYPE
  2
DIVIDEX2
 70
     0
  3
Divide (2x) ________  .  .  ________  .  .  _
 72
    65
 73
     6
 40
2.5
 49
1.0
 49
-0.5
 49
0.0
 49
-0.5
 49
0.0
 49
-0.5
  0
LTYPE
  2
DOT
 70
     0
  3
Dot . . . . . . . . . . . . . . . . . . . . . .
 72
    65
 73
     2
 40
0.25
 49
0.0
 49
-0.25
  0
LTYPE
  2
DOT2
 70
     0
  3
Dot (.5x) .....................................
 72
    65
 73
     2
 40
0.125
 49
0.0
 49
-0.125
  0
LTYPE
  2
DOTX2
 70
     0
  3
Dot (2x) .  .  .  .  .  .  .  .  .  .  .  .  . 
 72
    65
 73
     2
 40
0.5
 49
0.0
 49
-0.5
  0
LTYPE
  2
HIDDEN
 70
     0
  3
Hidden __ __ __ __ __ __ __ __ __ __ __ __ __ _
 72
    65
 73
     2
 40
0.375
 49
0.25
 49
-0.125
  0
LTYPE
  2
HIDDEN2
 70
     0
  3
Hidden (.5x) _ _ _ _ _ _ _ _ _ _ _ _ _ _ _ _ _
 72
    65
 73
     2
 40
0.1875
 49
0.125
 49
-0.0625
  0
LTYPE
  2
HIDDENX2
 70
     0
  3
Hidden (2x) ____ ____ ____ ____ ____ ____ ____
 72
    65
 73
     2
 40
0.75
 49
0.5
 49
-0.25
  0
LTYPE
  2
PHANTOM
 70
     0
  3
Phantom ______  __  __  ______  __  __  ______
 72
    65
 73
     6
 40
2.5
 49
1.25
 49
-0.25
 49
0.25
 49
-0.25
 49
0.25
 49
-0.25
  0
LTYPE
  2
PHANTOM2
 70
     0
  3
Phantom (.5x) ___ _ _ ___ _ _ ___ _ _ ___ _ _
 72
    65
 73
     6
 40
1.25
 49
0.625
 49
-0.125
 49
0.125
 49
-0.125
 49
0.125
 49
-0.125
  0
LTYPE
  2
PHANTOMX2
 70
     0
  3
Phantom (2x) ____________    ____    ____   _
 72
    65
 73
     6
 40
5.0
 49
2.5
 49
-0.5
 49
0.5
 49
-0.5
 49
0.5
 49
-0.5
  0
LTYPE
  2
ACAD_ISO02W100
 70
     0
  3
ISO dash __ __ __ __ __ __ __ __ __ __ __ __ __
 72
    65
 73
     2
 40
0.59
 49
0.47
 49
-0.12
  0
LTYPE
  2
ACAD_ISO03W100
 70
     0
  3
ISO dash space __    __    __    __    __    __
 72
    65
 73
     2
 40
1.179999999999999
 49
0.47
 49
-0.71
  0
LTYPE
  2
ACAD_ISO04W100
 70
     0
  3
ISO long-dash dot ____ . ____ . ____ . ____ . _
 72
    65
 73
     4
 40
1.179999999999999
 49
0.9399999999999998
 49
-0.12
 49
0.0
 49
-0.12
  0
LTYPE
  2
ACAD_ISO05W100
 70
     0
  3
ISO long-dash double-dot ____ .. ____ .. ____ .
 72
    65
 73
     6
 40
1.2999999999999989
 49
0.9399999999999998
 49
-0.12
 49
0.0
 49
-0.12
 49
0.0
 49
-0.12
  0
LTYPE
  2
ACAD_ISO06W100
 70
     0
  3
ISO long-dash triple-dot ____ ... ____ ... ____
 72
    65
 73
     8
 40
1.419999999999999
 49
0.9399999999999998
 49
-0.12
 49
0.0
 49
-0.12
 49
0.0
 49
-0.12
 49
0.0
 49
-0.12
  0
LTYPE
  2
ACAD_ISO07W100
 70
     0
  3
ISO dot . . . . . . . . . . . . . . . . . . . .
 72
    65
 73
     2
 40
0.12
 49
0.0
 49
-0.12
  0
LTYPE
  2
ACAD_ISO08W100
 70
     0
  3
ISO long-dash short-dash ____ __ ____ __ ____ _
 72
    65
 73
     4
 40
0.95
 49
0.47
 49
-0.12
 49
0.24
 49
-0.12
  0
LTYPE
  2
ACAD_ISO09W100
 70
     0
  3
ISO long-dash double-short-dash ____ __ __ ____
 72
    65
 73
     6
 40
1.3100000000000001
 49
0.47
 49
-0.12
 49
0.24
 49
-0.12
 49
0.24
 49
-0.12
  0
LTYPE
  2
ACAD_ISO10W100
 70
     0
  3
ISO dash dot __ . __ . __ . __ . __ . __ . __ .
 72
    65
 73
     4
 40
0.71
 49
0.47
 49
-0.12
 49
0.0
 49
-0.12
  0
LTYPE
  2
ACAD_ISO11W100
 70
     0
  3
ISO double-dash dot __ __ . __ __ . __ __ . __ 
 72
    65
 73
     6
 40
1.2999999999999989
 49
0.47
 49
-0.12
 49
0.47
 49
-0.12
 49
0.0
 49
-0.12
  0
LTYPE
  2
ACAD_ISO12W100
 70
     0
  3
ISO dash double-dot __ . . __ . . __ . . __ . .
 72
    65
 73
     6
 40
0.8299999999999999
 49
0.47
 49
-0.12
 49
0.0
 49
-0.12
 49
0.0
 49
-0.12
  0
LTYPE
  2
ACAD_ISO13W100
 70
     0
  3
ISO double-dash double-dot __ __ . . __ __ . . 
 72
    65
 73
     8
 40
1.419999999999999
 49
0.47
 49
-0.12
 49
0.47
 49
-0.12
 49
0.0
 49
-0.12
 49
0.0
 49
-0.12
  0
LTYPE
  2
ACAD_ISO14W100
 70
     0
  3
ISO dash triple-dot __ . . . __ . . . __ . . . 
 72
    65
 73
     8
 40
0.95
 49
0.47
 49
-0.12
 49
0.0
 49
-0.12
 49
0.0
 49
-0.12
 49
0.0
 49
-0.12
  0
LTYPE
  2
ACAD_ISO15W100
 70
     0
  3
ISO double-dash triple-dot __ __ . . . __ __ . 
 72
    65
 73
    10
 40
1.5399999999999989
 49
0.47
 49
-0.12
 49
0.47
 49
-0.12
 49
0.0
 49
-0.12
 49
0.0
 49
-0.12
 49
0.0
 49
-0.12
  0
LTYPE
  2
FENCELINE1
 70
     0
  3
Fenceline circle ----0-----0----0-----0----0---
 72
    65
 73
     4
 40
1.45
 49
0.25
 49
-0.1
 49
-0.1
 49
1.0
  0
LTYPE
  2
FENCELINE2
 70
     0
  3
Fenceline square ----[]-----[]----[]-----[]----
 72
    65
 73
     4
 40
1.45
 49
0.25
 49
-0.1
 49
-0.1
 49
1.0
  0
LTYPE
  2
TRACKS
 70
     0
  3
Tracks -|-|-|-|-|-|-|-|-|-|-|-|-|-|-|-|-|-|-|-|
 72
    65
 73
     2
 40
0.3
 49
0.15
 49
0.15
  0
LTYPE
  2
BATTING
 70
     0
  3
Batting SSSSSSSSSSSSSSSSSSSSSSSSSSSSSSSSSSSSSSS
 72
    65
 73
     4
 40
0.4001000000000001
 49
0.0001
 49
-0.1
 49
-0.2
 49
-0.1
  0
LTYPE
  2
HOT_WATER_SUPPLY
 70
     0
  3
Hot water supply ---- HW ---- HW ---- HW ----
 72
    65
 73
     3
 40
0.9
 49
0.5
 49
-0.2
 49
-0.2
  0
LTYPE
  2
GAS_LINE
 70
     0
  3
Gas line ----GAS----GAS----GAS----GAS----GAS---
 72
    65
 73
     3
 40
0.95
 49
0.5
 49
-0.2
 49
-0.25
  0
LTYPE
  2
ZIGZAG
 70
     0
  3
Zig zag /\/\/\/\/\/\/\/\/\/\/\/\/\/\/\/\/\/\/\/
 72
    65
 73
     4
 40
0.8001000000000001
 49
0.0001
 49
-0.2
 49
-0.4
 49
-0.2
  0
ENDTAB
  0
TABLE
  2
LAYER
 70
     1
  0
LAYER
  2
0
 70
     0
 62
     7
  6
CONTINUOUS
  0
ENDTAB
  0
TABLE
  2
STYLE
 70
     3
  0
STYLE
  2
STANDARD
 70
     0
 40
0.0
 41
1.0
 50
0.0
 71
     0
 42
0.2
  3
txt
  4

  0
STYLE
  2
ANNOTATIVE
 70
     0
 40
0.0
 41
1.0
 50
0.0
 71
     0
 42
0.2
  3
txt
  4

  0
STYLE
  2

 70
     1
 40
0.0
 41
1.0
 50
0.0
 71
     0
 42
0.2
  3
ltypeshp.shx
  4

  0
ENDTAB
  0
TABLE
  2
VIEW
 70
     0
  0
ENDTAB
  0
TABLE
  2
UCS
 70
     0
  0
ENDTAB
  0
TABLE
  2
APPID
 70
     3
  0
APPID
  2
ACAD
 70
     0
  0
APPID
  2
ACADANNOTATIVE
 70
     0
  0
APPID
  2
ACAD_MLEADERVER
 70
     0
  0
ENDTAB
  0
TABLE
  2
DIMSTYLE
 70
     2
  0
DIMSTYLE
  2
STANDARD
 70
     0
  3

  4

  5

  6

  7

 40
1.0
 41
0.18
 42
0.0625
 43
0.38
 44
0.18
 45
0.0
 46
0.0
 47
0.0
 48
0.0
140
0.18
141
0.09
142
0.0
143
25.399999999999999
144
1.0
145
0.0
146
1.0
147
0.09
 71
     0
 72
     0
 73
     1
 74
     1
 75
     0
 76
     0
 77
     0
 78
     0
170
     0
171
     2
172
     0
173
     0
174
     0
175
     0
176
     0
177
     0
178
     0
  0
DIMSTYLE
  2
ANNOTATIVE
 70
     0
  3

  4

  5

  6

  7

 40
1.0
 41
0.18
 42
0.0625
 43
0.38
 44
0.18
 45
0.0
 46
0.0
 47
0.0
 48
0.0
140
0.18
141
0.09
142
0.0
143
25.399999999999999
144
1.0
145
0.0
146
1.0
147
0.09
 71
     0
 72
     0
 73
     1
 74
     1
 75
     0
 76
     0
 77
     0
 78
     0
170
     0
171
     2
172
     0
173
     0
174
     0
175
     0
176
     0
177
     0
178
     0
  0
ENDTAB
  0
ENDSEC
  0
SECTION
  2
BLOCKS
  0
BLOCK
  8
0
  2
$MODEL_SPACE
 70
     0
 10
0.0
 20
0.0
 30
0.0
  3
$MODEL_SPACE
  1

  0
ENDBLK
  5
72
  8
0
  0
BLOCK
 67
     1
  8
0
  2
$PAPER_SPACE
 70
     0
 10
0.0
 20
0.0
 30
0.0
  3
$PAPER_SPACE
  1

  0
ENDBLK
  5
6E
 67
     1
  8
0
  0
ENDSEC
  0
SECTION
  2
ENTITIES
  0
POLYLINE
  5
B6
  8
0
 66
     1
 10
0.0
 20
0.0
 30
0.0
  0
VERTEX
  5
B7
  8
0
 10
32.000000000000732
 20
35.681147449541911
 30
0.0
  0
VERTEX
  5
B8
  8
0
 10
37.785725067466572
 20
20.549251119244609
 30
0.0
  0
VERTEX
  5
BA
  8
0
 10
36.499999999999702
 20
18.681147449542479
 30
0.0
  0
VERTEX
  5
BB
  8
0
 10
23.500000000000139
 20
18.681147449542479
 30
0.0
  0
VERTEX
  5
BC
  8
0
 10
23.49999999999779
 20
-27.318852550455919
 30
0.0
  0
VERTEX
  5
BD
  8
0
 10
31.99999999999751
 20
-27.318852550455912
 30
0.0
  0
VERTEX
  5
BE
  8
0
 10
37.99999999999708
 20
-32.318852550455752
 30
0.0
  0
VERTEX
  5
BF
  8
0
 10
37.99999999999681
 20
-37.318852550455581
 30
0.0
  0
VERTEX
  5
C0
  8
0
 10
14.9999999999976
 20
-37.31885255045556
 30
0.0
  0
VERTEX
  5
C1
  8
0
 10
12.99999999999779
 20
-34.818852550455667
 30
0.0
  0
VERTEX
  5
C2
  8
0
 10
5.9999999999980256
 20
-34.818852550455659
 30
0.0
  0
VERTEX
  5
C3
  8
0
 10
3.9999999999979652
 20
-37.318852550455581
 30
0.0
  0
VERTEX
  5
C4
  8
0
 10
-38.000000000000618
 20
-37.318852550455581
 30
0.0
  0
VERTEX
  5
C5
  8
0
 10
-38.000000000000362
 20
-32.318852550455752
 30
0.0
  0
VERTEX
  5
C6
  8
0
 10
-32.000000000000298
 20
-27.318852550455919
 30
0.0
  0
VERTEX
  5
C7
  8
0
 10
-23.5000000000006
 20
-27.318852550455919
 30
0.0
  0
VERTEX
  5
C8
  8
0
 10
-23.499999999998259
 20
18.68114744954249
 30
0.0
  0
VERTEX
  5
C9
  8
0
 10
-36.499999999997812
 20
18.68114744954249
 30
0.0
  0
VERTEX
  5
CA
  8
0
 10
-37.785725067464497
 20
20.549251119244602
 30
0.0
  0
VERTEX
  5
CB
  8
0
 10
-31.999999999997101
 20
35.681147449541889
 30
0.0
  0
SEQEND
  5
B9
  8
0
  0
POLYLINE
  5
CD
  8
0
 66
     1
 10
0.0
 20
0.0
 30
0.0
 70
     1
  0
VERTEX
  5
CE
  8
0
 10
-20.500000000000131
 20
-16.1688525504563
 30
0.0
  0
VERTEX
  5
CF
  8
0
 10
-20.500000000000231
 20
-18.268852550456231
 30
0.0
  0
VERTEX
  5
D1
  8
0
 10
-22.500000000000181
 20
-18.26885255045622
 30
0.0
  0
VERTEX
  5
D2
  8
0
 10
-22.50000000000006
 20
-16.1688525504563
 30
0.0
  0
SEQEND
  5
D0
  8
0
  0
POLYLINE
  5
D3
  8
0
 66
     1
 10
0.0
 20
0.0
 30
0.0
 70
     1
  0
VERTEX
  5
D4
  8
0
 10
22.499999999998401
 20
-16.1688525504563
 30
0.0
  0
VERTEX
  5
D5
  8
0
 10
22.499999999998291
 20
-18.26885255045622
 30
0.0
  0
VERTEX
  5
D7
  8
0
 10
20.499999999998352
 20
-18.26885255045622
 30
0.0
  0
VERTEX
  5
D8
  8
0
 10
20.499999999998462
 20
-16.1688525504563
 30
0.0
  0
SEQEND
  5
D6
  8
0
  0
POLYLINE
  5
D9
  8
0
 66
     1
 10
0.0
 20
0.0
 30
0.0
 70
     1
  0
VERTEX
  5
DA
  8
0
 10
22.499999999999609
 20
7.6311474495428744
 30
0.0
  0
VERTEX
  5
DB
  8
0
 10
22.49999999999951
 20
5.5311474495429449
 30
0.0
  0
VERTEX
  5
DD
  8
0
 10
20.49999999999957
 20
5.5311474495429378
 30
0.0
  0
VERTEX
  5
DE
  8
0
 10
20.49999999999968
 20
7.6311474495428628
 30
0.0
  0
SEQEND
  5
DC
  8
0
  0
POLYLINE
  5
DF
  8
0
 66
     1
 10
0.0
 20
0.0
 30
0.0
 70
     1
  0
VERTEX
  5
E0
  8
0
 10
-20.49999999999892
 20
7.6311474495428833
 30
0.0
  0
VERTEX
  5
E1
  8
0
 10
-20.49999999999903
 20
5.5311474495429556
 30
0.0
  0
VERTEX
  5
E3
  8
0
 10
-22.499999999998948
 20
5.5311474495429627
 30
0.0
  0
VERTEX
  5
E4
  8
0
 10
-22.499999999998849
 20
7.6311474495428806
 30
0.0
  0
SEQEND
  5
E2
  8
0
  0
LINE
  5
E5
  8
0
 10
-19.500000000000721
 20
-27.318852550455588
 30
0.0
 11
-19.499999999998479
 21
16.68114744954249
 31
0.0
  0
LINE
  5
E6
  8
0
 10
19.500000000000188
 20
16.681147449542689
 30
0.0
 11
19.499999999997961
 21
-27.318852550456342
 31
0.0
  0
CIRCLE
  5
E7
  8
0
 10
-21.499999999998732
 20
10.68114744954277
 30
0.0
 40
1.049999999999965
  0
CIRCLE
  5
E8
  8
0
 10
-21.500000000000352
 20
-21.318852550456121
 30
0.0
 40
1.049999999999963
  0
CIRCLE
  5
E9
  8
0
 10
21.499999999999812
 20
10.68114744954276
 30
0.0
 40
1.049999999999963
  0
CIRCLE
  5
EA
  8
0
 10
21.499999999998192
 20
-21.318852550456128
 30
0.0
 40
1.0499999999999641
  0
LINE
  5
EB
  8
0
 10
2.5000000000003459
 20
8.6811474495428342
 30
0.0
 11
-2.49999999999948
 21
8.6811474495428431
 31
0.0
  0
POLYLINE
  8
0
  5
16A
  66
     1
 10
0.000000
 20
0.000000
 30
0.000000
  70
     8
  0
VERTEX
  8
0
  5
16B
 10
1.00000
 20
17.6811
 30
0.000000
  70
    32
  0
VERTEX
  8
0
  5
16C
 10
0.972103
 20
17.6159
 30
0.000000
  70
    32
  0
VERTEX
  8
0
  5
16D
 10
0.945135
 20
17.5501
 30
0.000000
  70
    32
  0
VERTEX
  8
0
  5
16E
 10
0.919097
 20
17.4836
 30
0.000000
  70
    32
  0
VERTEX
  8
0
  5
16F
 10
0.893988
 20
17.4165
 30
0.000000
  70
    32
  0
VERTEX
  8
0
  5
170
 10
0.869809
 20
17.3488
 30
0.000000
  70
    32
  0
VERTEX
  8
0
  5
171
 10
0.846559
 20
17.2804
 30
0.000000
  70
    32
  0
VERTEX
  8
0
  5
172
 10
0.824239
 20
17.2115
 30
0.000000
  70
    32
  0
VERTEX
  8
0
  5
173
 10
0.802848
 20
17.1419
 30
0.000000
  70
    32
  0
VERTEX
  8
0
  5
174
 10
0.782387
 20
17.0716
 30
0.000000
  70
    32
  0
VERTEX
  8
0
  5
175
 10
0.762855
 20
17.0008
 30
0.000000
  70
    32
  0
VERTEX
  8
0
  5
176
 10
0.744253
 20
16.9293
 30
0.000000
  70
    32
  0
VERTEX
  8
0
  5
177
 10
0.726580
 20
16.8571
 30
0.000000
  70
    32
  0
VERTEX
  8
0
  5
178
 10
0.709837
 20
16.7844
 30
0.000000
  70
    32
  0
VERTEX
  8
0
  5
179
 10
0.694023
 20
16.7110
 30
0.000000
  70
    32
  0
VERTEX
  8
0
  5
17A
 10
0.679139
 20
16.6370
 30
0.000000
  70
    32
  0
VERTEX
  8
0
  5
17B
 10
0.665184
 20
16.5624
 30
0.000000
  70
    32
  0
VERTEX
  8
0
  5
17C
 10
0.652159
 20
16.4871
 30
0.000000
  70
    32
  0
VERTEX
  8
0
  5
17D
 10
0.640063
 20
16.4112
 30
0.000000
  70
    32
  0
VERTEX
  8
0
  5
17E
 10
0.628897
 20
16.3347
 30
0.000000
  70
    32
  0
VERTEX
  8
0
  5
17F
 10
0.618660
 20
16.2575
 30
0.000000
  70
    32
  0
VERTEX
  8
0
  5
180
 10
0.609353
 20
16.1798
 30
0.000000
  70
    32
  0
VERTEX
  8
0
  5
181
 10
0.600975
 20
16.1014
 30
0.000000
  70
    32
  0
VERTEX
  8
0
  5
182
 10
0.593527
 20
16.0223
 30
0.000000
  70
    32
  0
VERTEX
  8
0
  5
183
 10
0.587009
 20
15.9427
 30
0.000000
  70
    32
  0
VERTEX
  8
0
  5
184
 10
0.581419
 20
15.8624
 30
0.000000
  70
    32
  0
VERTEX
  8
0
  5
185
 10
0.576760
 20
15.7815
 30
0.000000
  70
    32
  0
VERTEX
  8
0
  5
186
 10
0.573030
 20
15.6999
 30
0.000000
  70
    32
  0
VERTEX
  8
0
  5
187
 10
0.570229
 20
15.6177
 30
0.000000
  70
    32
  0
VERTEX
  8
0
  5
188
 10
0.568358
 20
15.5349
 30
0.000000
  70
    32
  0
VERTEX
  8
0
  5
189
 10
0.567416
 20
15.4515
 30
0.000000
  70
    32
  0
VERTEX
  8
0
  5
18A
 10
0.567404
 20
15.3675
 30
0.000000
  70
    32
  0
VERTEX
  8
0
  5
18B
 10
0.568322
 20
15.2828
 30
0.000000
  70
    32
  0
VERTEX
  8
0
  5
18C
 10
0.570168
 20
15.1975
 30
0.000000
  70
    32
  0
VERTEX
  8
0
  5
18D
 10
0.572945
 20
15.1115
 30
0.000000
  70
    32
  0
VERTEX
  8
0
  5
18E
 10
0.576651
 20
15.0249
 30
0.000000
  70
    32
  0
VERTEX
  8
0
  5
18F
 10
0.581286
 20
14.9377
 30
0.000000
  70
    32
  0
VERTEX
  8
0
  5
190
 10
0.586851
 20
14.8499
 30
0.000000
  70
    32
  0
VERTEX
  8
0
  5
191
 10
0.593345
 20
14.7615
 30
0.000000
  70
    32
  0
VERTEX
  8
0
  5
192
 10
0.600769
 20
14.6724
 30
0.000000
  70
    32
  0
VERTEX
  8
0
  5
193
 10
0.609123
 20
14.5827
 30
0.000000
  70
    32
  0
VERTEX
  8
0
  5
194
 10
0.618406
 20
14.4923
 30
0.000000
  70
    32
  0
VERTEX
  8
0
  5
195
 10
0.628618
 20
14.4014
 30
0.000000
  70
    32
  0
VERTEX
  8
0
  5
196
 10
0.639760
 20
14.3098
 30
0.000000
  70
    32
  0
VERTEX
  8
0
  5
197
 10
0.651832
 20
14.2175
 30
0.000000
  70
    32
  0
VERTEX
  8
0
  5
198
 10
0.664833
 20
14.1247
 30
0.000000
  70
    32
  0
VERTEX
  8
0
  5
199
 10
0.678763
 20
14.0312
 30
0.000000
  70
    32
  0
VERTEX
  8
0
  5
19A
 10
0.693623
 20
13.9371
 30
0.000000
  70
    32
  0
VERTEX
  8
0
  5
19B
 10
0.709412
 20
13.8424
 30
0.000000
  70
    32
  0
VERTEX
  8
0
  5
19C
 10
0.726131
 20
13.7470
 30
0.000000
  70
    32
  0
VERTEX
  8
0
  5
19D
 10
0.743780
 20
13.6510
 30
0.000000
  70
    32
  0
VERTEX
  8
0
  5
19E
 10
0.762358
 20
13.5544
 30
0.000000
  70
    32
  0
VERTEX
  8
0
  5
19F
 10
0.781865
 20
13.4571
 30
0.000000
  70
    32
  0
VERTEX
  8
0
  5
1A0
 10
0.802302
 20
13.3593
 30
0.000000
  70
    32
  0
VERTEX
  8
0
  5
1A1
 10
0.823669
 20
13.2608
 30
0.000000
  70
    32
  0
VERTEX
  8
0
  5
1A2
 10
0.845965
 20
13.1616
 30
0.000000
  70
    32
  0
VERTEX
  8
0
  5
1A3
 10
0.869190
 20
13.0619
 30
0.000000
  70
    32
  0
VERTEX
  8
0
  5
1A4
 10
0.893345
 20
12.9615
 30
0.000000
  70
    32
  0
VERTEX
  8
0
  5
1A5
 10
0.918430
 20
12.8604
 30
0.000000
  70
    32
  0
VERTEX
  8
0
  5
1A6
 10
0.944444
 20
12.7588
 30
0.000000
  70
    32
  0
VERTEX
  8
0
  5
1A7
 10
0.971388
 20
12.6565
 30
0.000000
  70
    32
  0
VERTEX
  8
0
  5
1A8
 10
0.999261
 20
12.5536
 30
0.000000
  70
    32
  0
VERTEX
  8
0
  5
1A9
 10
1.02806
 20
12.4501
 30
0.000000
  70
    32
  0
VERTEX
  8
0
  5
1AA
 10
1.05780
 20
12.3459
 30
0.000000
  70
    32
  0
VERTEX
  8
0
  5
1AB
 10
1.08846
 20
12.2411
 30
0.000000
  70
    32
  0
VERTEX
  8
0
  5
1AC
 10
1.12005
 20
12.1357
 30
0.000000
  70
    32
  0
VERTEX
  8
0
  5
1AD
 10
1.15257
 20
12.0297
 30
0.000000
  70
    32
  0
VERTEX
  8
0
  5
1AE
 10
1.18602
 20
11.9230
 30
0.000000
  70
    32
  0
VERTEX
  8
0
  5
1AF
 10
1.22040
 20
11.8157
 30
0.000000
  70
    32
  0
VERTEX
  8
0
  5
1B0
 10
1.25571
 20
11.7078
 30
0.000000
  70
    32
  0
VERTEX
  8
0
  5
1B1
 10
1.29195
 20
11.5992
 30
0.000000
  70
    32
  0
VERTEX
  8
0
  5
1B2
 10
1.32911
 20
11.4900
 30
0.000000
  70
    32
  0
VERTEX
  8
0
  5
1B3
 10
1.36721
 20
11.3802
 30
0.000000
  70
    32
  0
VERTEX
  8
0
  5
1B4
 10
1.40624
 20
11.2698
 30
0.000000
  70
    32
  0
VERTEX
  8
0
  5
1B5
 10
1.44620
 20
11.1587
 30
0.000000
  70
    32
  0
VERTEX
  8
0
  5
1B6
 10
1.48708
 20
11.0470
 30
0.000000
  70
    32
  0
VERTEX
  8
0
  5
1B7
 10
1.52890
 20
10.9347
 30
0.000000
  70
    32
  0
VERTEX
  8
0
  5
1B8
 10
1.57164
 20
10.8217
 30
0.000000
  70
    32
  0
VERTEX
  8
0
  5
1B9
 10
1.61532
 20
10.7082
 30
0.000000
  70
    32
  0
VERTEX
  8
0
  5
1BA
 10
1.65992
 20
10.5939
 30
0.000000
  70
    32
  0
VERTEX
  8
0
  5
1BB
 10
1.70545
 20
10.4791
 30
0.000000
  70
    32
  0
VERTEX
  8
0
  5
1BC
 10
1.75192
 20
10.3636
 30
0.000000
  70
    32
  0
VERTEX
  8
0
  5
1BD
 10
1.79931
 20
10.2475
 30
0.000000
  70
    32
  0
VERTEX
  8
0
  5
1BE
 10
1.84763
 20
10.1308
 30
0.000000
  70
    32
  0
VERTEX
  8
0
  5
1BF
 10
1.89688
 20
10.0135
 30
0.000000
  70
    32
  0
VERTEX
  8
0
  5
1C0
 10
1.94707
 20
9.89549
 30
0.000000
  70
    32
  0
VERTEX
  8
0
  5
1C1
 10
1.99818
 20
9.77688
 30
0.000000
  70
    32
  0
VERTEX
  8
0
  5
1C2
 10
2.05022
 20
9.65765
 30
0.000000
  70
    32
  0
VERTEX
  8
0
  5
1C3
 10
2.10319
 20
9.53778
 30
0.000000
  70
    32
  0
VERTEX
  8
0
  5
1C4
 10
2.15709
 20
9.41729
 30
0.000000
  70
    32
  0
VERTEX
  8
0
  5
1C5
 10
2.21191
 20
9.29617
 30
0.000000
  70
    32
  0
VERTEX
  8
0
  5
1C6
 10
2.26767
 20
9.17442
 30
0.000000
  70
    32
  0
VERTEX
  8
0
  5
1C7
 10
2.32436
 20
9.05205
 30
0.000000
  70
    32
  0
VERTEX
  8
0
  5
1C8
 10
2.38198
 20
8.92904
 30
0.000000
  70
    32
  0
VERTEX
  8
0
  5
1C9
 10
2.44052
 20
8.80541
 30
0.000000
  70
    32
  0
VERTEX
  8
0
  5
1CA
 10
2.50000
 20
8.68115
 30
0.000000
  70
    32
  0
SEQEND
  8
0
  5
1CB
  0
POLYLINE
  8
0
  5
1CC
  66
     1
 10
0.000000
 20
0.000000
 30
0.000000
  70
     8
  0
VERTEX
  8
0
  5
1CD
 10
1.96290e-012
 20
38.6811
 30
0.000000
  70
    32
  0
VERTEX
  8
0
  5
1CE
 10
0.0651618
 20
38.4960
 30
0.000000
  70
    32
  0
VERTEX
  8
0
  5
1CF
 10
0.135751
 20
38.3126
 30
0.000000
  70
    32
  0
VERTEX
  8
0
  5
1D0
 10
0.211629
 20
38.1309
 30
0.000000
  70
    32
  0
VERTEX
  8
0
  5
1D1
 10
0.292659
 20
37.9508
 30
0.000000
  70
    32
  0
VERTEX
  8
0
  5
1D2
 10
0.378706
 20
37.7724
 30
0.000000
  70
    32
  0
VERTEX
  8
0
  5
1D3
 10
0.469633
 20
37.5956
 30
0.000000
  70
    32
  0
VERTEX
  8
0
  5
1D4
 10
0.565308
 20
37.4203
 30
0.000000
  70
    32
  0
VERTEX
  8
0
  5
1D5
 10
0.665596
 20
37.2465
 30
0.000000
  70
    32
  0
VERTEX
  8
0
  5
1D6
 10
0.770365
 20
37.0741
 30
0.000000
  70
    32
  0
VERTEX
  8
0
  5
1D7
 10
0.879483
 20
36.9032
 30
0.000000
  70
    32
  0
VERTEX
  8
0
  5
1D8
 10
0.992819
 20
36.7336
 30
0.000000
  70
    32
  0
VERTEX
  8
0
  5
1D9
 10
1.11024
 20
36.5654
 30
0.000000
  70
    32
  0
VERTEX
  8
0
  5
1DA
 10
1.23163
 20
36.3984
 30
0.000000
  70
    32
  0
VERTEX
  8
0
  5
1DB
 10
1.35684
 20
36.2326
 30
0.000000
  70
    32
  0
VERTEX
  8
0
  5
1DC
 10
1.48576
 20
36.0681
 30
0.000000
  70
    32
  0
VERTEX
  8
0
  5
1DD
 10
1.61826
 20
35.9047
 30
0.000000
  70
    32
  0
VERTEX
  8
0
  5
1DE
 10
1.75421
 20
35.7424
 30
0.000000
  70
    32
  0
VERTEX
  8
0
  5
1DF
 10
1.89348
 20
35.5812
 30
0.000000
  70
    32
  0
VERTEX
  8
0
  5
1E0
 10
2.03596
 20
35.4210
 30
0.000000
  70
    32
  0
VERTEX
  8
0
  5
1E1
 10
2.18151
 20
35.2619
 30
0.000000
  70
    32
  0
VERTEX
  8
0
  5
1E2
 10
2.33003
 20
35.1037
 30
0.000000
  70
    32
  0
VERTEX
  8
0
  5
1E3
 10
2.48138
 20
34.9464
 30
0.000000
  70
    32
  0
VERTEX
  8
0
  5
1E4
 10
2.63545
 20
34.7899
 30
0.000000
  70
    32
  0
VERTEX
  8
0
  5
1E5
 10
2.79211
 20
34.6344
 30
0.000000
  70
    32
  0
VERTEX
  8
0
  5
1E6
 10
2.95125
 20
34.4796
 30
0.000000
  70
    32
  0
VERTEX
  8
0
  5
1E7
 10
3.11275
 20
34.3256
 30
0.000000
  70
    32
  0
VERTEX
  8
0
  5
1E8
 10
3.27649
 20
34.1723
 30
0.000000
  70
    32
  0
VERTEX
  8
0
  5
1E9
 10
3.44236
 20
34.0197
 30
0.000000
  70
    32
  0
VERTEX
  8
0
  5
1EA
 10
3.61025
 20
33.8677
 30
0.000000
  70
    32
  0
VERTEX
  8
0
  5
1EB
 10
3.78002
 20
33.7164
 30
0.000000
  70
    32
  0
VERTEX
  8
0
  5
1EC
 10
3.95159
 20
33.5656
 30
0.000000
  70
    32
  0
VERTEX
  8
0
  5
1ED
 10
4.12482
 20
33.4154
 30
0.000000
  70
    32
  0
VERTEX
  8
0
  5
1EE
 10
4.29961
 20
33.2657
 30
0.000000
  70
    32
  0
VERTEX
  8
0
  5
1EF
 10
4.47585
 20
33.1164
 30
0.000000
  70
    32
  0
VERTEX
  8
0
  5
1F0
 10
4.65343
 20
32.9676
 30
0.000000
  70
    32
  0
VERTEX
  8
0
  5
1F1
 10
4.83224
 20
32.8192
 30
0.000000
  70
    32
  0
VERTEX
  8
0
  5
1F2
 10
5.01217
 20
32.6712
 30
0.000000
  70
    32
  0
VERTEX
  8
0
  5
1F3
 10
5.19311
 20
32.5235
 30
0.000000
  70
    32
  0
VERTEX
  8
0
  5
1F4
 10
5.37495
 20
32.3761
 30
0.000000
  70
    32
  0
VERTEX
  8
0
  5
1F5
 10
5.55760
 20
32.2289
 30
0.000000
  70
    32
  0
VERTEX
  8
0
  5
1F6
 10
5.74095
 20
32.0820
 30
0.000000
  70
    32
  0
VERTEX
  8
0
  5
1F7
 10
5.92488
 20
31.9353
 30
0.000000
  70
    32
  0
VERTEX
  8
0
  5
1F8
 10
6.10931
 20
31.7887
 30
0.000000
  70
    32
  0
VERTEX
  8
0
  5
1F9
 10
6.29412
 20
31.6423
 30
0.000000
  70
    32
  0
VERTEX
  8
0
  5
1FA
 10
6.47922
 20
31.4960
 30
0.000000
  70
    32
  0
VERTEX
  8
0
  5
1FB
 10
6.66450
 20
31.3497
 30
0.000000
  70
    32
  0
VERTEX
  8
0
  5
1FC
 10
6.84987
 20
31.2035
 30
0.000000
  70
    32
  0
VERTEX
  8
0
  5
1FD
 10
7.03522
 20
31.0573
 30
0.000000
  70
    32
  0
VERTEX
  8
0
  5
1FE
 10
7.22046
 20
30.9111
 30
0.000000
  70
    32
  0
VERTEX
  8
0
  5
1FF
 10
7.40549
 20
30.7648
 30
0.000000
  70
    32
  0
VERTEX
  8
0
  5
200
 10
7.59022
 20
30.6184
 30
0.000000
  70
    32
  0
VERTEX
  8
0
  5
201
 10
7.77455
 20
30.4719
 30
0.000000
  70
    32
  0
VERTEX
  8
0
  5
202
 10
7.95838
 20
30.3253
 30
0.000000
  70
    32
  0
VERTEX
  8
0
  5
203
 10
8.14162
 20
30.1785
 30
0.000000
  70
    32
  0
VERTEX
  8
0
  5
204
 10
8.32418
 20
30.0315
 30
0.000000
  70
    32
  0
VERTEX
  8
0
  5
205
 10
8.50597
 20
29.8842
 30
0.000000
  70
    32
  0
VERTEX
  8
0
  5
206
 10
8.68690
 20
29.7367
 30
0.000000
  70
    32
  0
VERTEX
  8
0
  5
207
 10
8.86687
 20
29.5889
 30
0.000000
  70
    32
  0
VERTEX
  8
0
  5
208
 10
9.04580
 20
29.4408
 30
0.000000
  70
    32
  0
VERTEX
  8
0
  5
209
 10
9.22359
 20
29.2923
 30
0.000000
  70
    32
  0
VERTEX
  8
0
  5
20A
 10
9.40017
 20
29.1435
 30
0.000000
  70
    32
  0
VERTEX
  8
0
  5
20B
 10
9.57544
 20
28.9943
 30
0.000000
  70
    32
  0
VERTEX
  8
0
  5
20C
 10
9.74932
 20
28.8446
 30
0.000000
  70
    32
  0
VERTEX
  8
0
  5
20D
 10
9.92172
 20
28.6945
 30
0.000000
  70
    32
  0
VERTEX
  8
0
  5
20E
 10
10.0926
 20
28.5439
 30
0.000000
  70
    32
  0
VERTEX
  8
0
  5
20F
 10
10.2618
 20
28.3928
 30
0.000000
  70
    32
  0
VERTEX
  8
0
  5
210
 10
10.4292
 20
28.2412
 30
0.000000
  70
    32
  0
VERTEX
  8
0
  5
211
 10
10.5949
 20
28.0890
 30
0.000000
  70
    32
  0
VERTEX
  8
0
  5
212
 10
10.7587
 20
27.9363
 30
0.000000
  70
    32
  0
VERTEX
  8
0
  5
213
 10
10.9205
 20
27.7829
 30
0.000000
  70
    32
  0
VERTEX
  8
0
  5
214
 10
11.0802
 20
27.6289
 30
0.000000
  70
    32
  0
VERTEX
  8
0
  5
215
 10
11.2379
 20
27.4743
 30
0.000000
  70
    32
  0
VERTEX
  8
0
  5
216
 10
11.3933
 20
27.3190
 30
0.000000
  70
    32
  0
VERTEX
  8
0
  5
217
 10
11.5464
 20
27.1630
 30
0.000000
  70
    32
  0
VERTEX
  8
0
  5
218
 10
11.6972
 20
27.0063
 30
0.000000
  70
    32
  0
VERTEX
  8
0
  5
219
 10
11.8456
 20
26.8488
 30
0.000000
  70
    32
  0
VERTEX
  8
0
  5
21A
 10
11.9915
 20
26.6905
 30
0.000000
  70
    32
  0
VERTEX
  8
0
  5
21B
 10
12.1347
 20
26.5315
 30
0.000000
  70
    32
  0
VERTEX
  8
0
  5
21C
 10
12.2754
 20
26.3716
 30
0.000000
  70
    32
  0
VERTEX
  8
0
  5
21D
 10
12.4133
 20
26.2110
 30
0.000000
  70
    32
  0
VERTEX
  8
0
  5
21E
 10
12.5484
 20
26.0494
 30
0.000000
  70
    32
  0
VERTEX
  8
0
  5
21F
 10
12.6807
 20
25.8870
 30
0.000000
  70
    32
  0
VERTEX
  8
0
  5
220
 10
12.8101
 20
25.7237
 30
0.000000
  70
    32
  0
VERTEX
  8
0
  5
221
 10
12.9364
 20
25.5595
 30
0.000000
  70
    32
  0
VERTEX
  8
0
  5
222
 10
13.0597
 20
25.3944
 30
0.000000
  70
    32
  0
VERTEX
  8
0
  5
223
 10
13.1799
 20
25.2283
 30
0.000000
  70
    32
  0
VERTEX
  8
0
  5
224
 10
13.2969
 20
25.0612
 30
0.000000
  70
    32
  0
VERTEX
  8
0
  5
225
 10
13.4106
 20
24.8931
 30
0.000000
  70
    32
  0
VERTEX
  8
0
  5
226
 10
13.5210
 20
24.7240
 30
0.000000
  70
    32
  0
VERTEX
  8
0
  5
227
 10
13.6280
 20
24.5539
 30
0.000000
  70
    32
  0
VERTEX
  8
0
  5
228
 10
13.7316
 20
24.3828
 30
0.000000
  70
    32
  0
VERTEX
  8
0
  5
229
 10
13.8317
 20
24.2105
 30
0.000000
  70
    32
  0
VERTEX
  8
0
  5
22A
 10
13.9282
 20
24.0372
 30
0.000000
  70
    32
  0
VERTEX
  8
0
  5
22B
 10
14.0210
 20
23.8628
 30
0.000000
  70
    32
  0
VERTEX
  8
0
  5
22C
 10
14.1103
 20
23.6873
 30
0.000000
  70
    32
  0
VERTEX
  8
0
  5
22D
 10
14.1957
 20
23.5106
 30
0.000000
  70
    32
  0
VERTEX
  8
0
  5
22E
 10
14.2774
 20
23.3329
 30
0.000000
  70
    32
  0
VERTEX
  8
0
  5
22F
 10
14.3552
 20
23.1540
 30
0.000000
  70
    32
  0
VERTEX
  8
0
  5
230
 10
14.4291
 20
22.9740
 30
0.000000
  70
    32
  0
VERTEX
  8
0
  5
231
 10
14.4991
 20
22.7929
 30
0.000000
  70
    32
  0
VERTEX
  8
0
  5
232
 10
14.5651
 20
22.6107
 30
0.000000
  70
    32
  0
VERTEX
  8
0
  5
233
 10
14.6270
 20
22.4275
 30
0.000000
  70
    32
  0
VERTEX
  8
0
  5
234
 10
14.6848
 20
22.2432
 30
0.000000
  70
    32
  0
VERTEX
  8
0
  5
235
 10
14.7385
 20
22.0579
 30
0.000000
  70
    32
  0
VERTEX
  8
0
  5
236
 10
14.7879
 20
21.8716
 30
0.000000
  70
    32
  0
VERTEX
  8
0
  5
237
 10
14.8332
 20
21.6844
 30
0.000000
  70
    32
  0
VERTEX
  8
0
  5
238
 10
14.8741
 20
21.4963
 30
0.000000
  70
    32
  0
VERTEX
  8
0
  5
239
 10
14.9107
 20
21.3074
 30
0.000000
  70
    32
  0
VERTEX
  8
0
  5
23A
 10
14.9429
 20
21.1177
 30
0.000000
  70
    32
  0
VERTEX
  8
0
  5
23B
 10
14.9708
 20
20.9272
 30
0.000000
  70
    32
  0
VERTEX
  8
0
  5
23C
 10
14.9941
 20
20.7361
 30
0.000000
  70
    32
  0
VERTEX
  8
0
  5
23D
 10
15.0130
 20
20.5444
 30
0.000000
  70
    32
  0
VERTEX
  8
0
  5
23E
 10
15.0273
 20
20.3522
 30
0.000000
  70
    32
  0
VERTEX
  8
0
  5
23F
 10
15.0371
 20
20.1595
 30
0.000000
  70
    32
  0
VERTEX
  8
0
  5
240
 10
15.0423
 20
19.9665
 30
0.000000
  70
    32
  0
VERTEX
  8
0
  5
241
 10
15.0429
 20
19.7732
 30
0.000000
  70
    32
  0
VERTEX
  8
0
  5
242
 10
15.0388
 20
19.5798
 30
0.000000
  70
    32
  0
VERTEX
  8
0
  5
243
 10
15.0299
 20
19.3862
 30
0.000000
  70
    32
  0
VERTEX
  8
0
  5
244
 10
15.0164
 20
19.1927
 30
0.000000
  70
    32
  0
VERTEX
  8
0
  5
245
 10
14.9981
 20
18.9993
 30
0.000000
  70
    32
  0
VERTEX
  8
0
  5
246
 10
14.9750
 20
18.8061
 30
0.000000
  70
    32
  0
VERTEX
  8
0
  5
247
 10
14.9471
 20
18.6133
 30
0.000000
  70
    32
  0
VERTEX
  8
0
  5
248
 10
14.9144
 20
18.4209
 30
0.000000
  70
    32
  0
VERTEX
  8
0
  5
249
 10
14.8768
 20
18.2292
 30
0.000000
  70
    32
  0
VERTEX
  8
0
  5
24A
 10
14.8343
 20
18.0382
 30
0.000000
  70
    32
  0
VERTEX
  8
0
  5
24B
 10
14.7868
 20
17.8480
 30
0.000000
  70
    32
  0
VERTEX
  8
0
  5
24C
 10
14.7345
 20
17.6589
 30
0.000000
  70
    32
  0
VERTEX
  8
0
  5
24D
 10
14.6772
 20
17.4709
 30
0.000000
  70
    32
  0
VERTEX
  8
0
  5
24E
 10
14.6149
 20
17.2842
 30
0.000000
  70
    32
  0
VERTEX
  8
0
  5
24F
 10
14.5477
 20
17.0990
 30
0.000000
  70
    32
  0
VERTEX
  8
0
  5
250
 10
14.4754
 20
16.9153
 30
0.000000
  70
    32
  0
VERTEX
  8
0
  5
251
 10
14.3981
 20
16.7335
 30
0.000000
  70
    32
  0
VERTEX
  8
0
  5
252
 10
14.3157
 20
16.5536
 30
0.000000
  70
    32
  0
VERTEX
  8
0
  5
253
 10
14.2283
 20
16.3758
 30
0.000000
  70
    32
  0
VERTEX
  8
0
  5
254
 10
14.1359
 20
16.2003
 30
0.000000
  70
    32
  0
VERTEX
  8
0
  5
255
 10
14.0384
 20
16.0272
 30
0.000000
  70
    32
  0
VERTEX
  8
0
  5
256
 10
13.9357
 20
15.8569
 30
0.000000
  70
    32
  0
VERTEX
  8
0
  5
257
 10
13.8280
 20
15.6894
 30
0.000000
  70
    32
  0
VERTEX
  8
0
  5
258
 10
13.7152
 20
15.5249
 30
0.000000
  70
    32
  0
VERTEX
  8
0
  5
259
 10
13.5972
 20
15.3637
 30
0.000000
  70
    32
  0
VERTEX
  8
0
  5
25A
 10
13.4742
 20
15.2060
 30
0.000000
  70
    32
  0
VERTEX
  8
0
  5
25B
 10
13.3460
 20
15.0519
 30
0.000000
  70
    32
  0
VERTEX
  8
0
  5
25C
 10
13.2127
 20
14.9017
 30
0.000000
  70
    32
  0
VERTEX
  8
0
  5
25D
 10
13.0743
 20
14.7557
 30
0.000000
  70
    32
  0
VERTEX
  8
0
  5
25E
 10
12.9307
 20
14.6139
 30
0.000000
  70
    32
  0
VERTEX
  8
0
  5
25F
 10
12.7820
 20
14.4767
 30
0.000000
  70
    32
  0
VERTEX
  8
0
  5
260
 10
12.6282
 20
14.3444
 30
0.000000
  70
    32
  0
VERTEX
  8
0
  5
261
 10
12.4692
 20
14.2170
 30
0.000000
  70
    32
  0
VERTEX
  8
0
  5
262
 10
12.3052
 20
14.0950
 30
0.000000
  70
    32
  0
VERTEX
  8
0
  5
263
 10
12.1360
 20
13.9784
 30
0.000000
  70
    32
  0
VERTEX
  8
0
  5
264
 10
11.9617
 20
13.8677
 30
0.000000
  70
    32
  0
VERTEX
  8
0
  5
265
 10
11.7823
 20
13.7630
 30
0.000000
  70
    32
  0
VERTEX
  8
0
  5
266
 10
11.5978
 20
13.6646
 30
0.000000
  70
    32
  0
VERTEX
  8
0
  5
267
 10
11.4082
 20
13.5728
 30
0.000000
  70
    32
  0
VERTEX
  8
0
  5
268
 10
11.2135
 20
13.4878
 30
0.000000
  70
    32
  0
VERTEX
  8
0
  5
269
 10
11.0137
 20
13.4099
 30
0.000000
  70
    32
  0
VERTEX
  8
0
  5
26A
 10
10.8089
 20
13.3395
 30
0.000000
  70
    32
  0
VERTEX
  8
0
  5
26B
 10
10.5991
 20
13.2768
 30
0.000000
  70
    32
  0
VERTEX
  8
0
  5
26C
 10
10.3842
 20
13.2220
 30
0.000000
  70
    32
  0
VERTEX
  8
0
  5
26D
 10
10.1643
 20
13.1755
 30
0.000000
  70
    32
  0
VERTEX
  8
0
  5
26E
 10
9.93944
 20
13.1376
 30
0.000000
  70
    32
  0
VERTEX
  8
0
  5
26F
 10
9.70958
 20
13.1086
 30
0.000000
  70
    32
  0
VERTEX
  8
0
  5
270
 10
9.47476
 20
13.0888
 30
0.000000
  70
    32
  0
VERTEX
  8
0
  5
271
 10
9.23500
 20
13.0785
 30
0.000000
  70
    32
  0
VERTEX
  8
0
  5
272
 10
8.99033
 20
13.0781
 30
0.000000
  70
    32
  0
VERTEX
  8
0
  5
273
 10
8.74076
 20
13.0878
 30
0.000000
  70
    32
  0
VERTEX
  8
0
  5
274
 10
8.48632
 20
13.1080
 30
0.000000
  70
    32
  0
VERTEX
  8
0
  5
275
 10
8.22704
 20
13.1390
 30
0.000000
  70
    32
  0
VERTEX
  8
0
  5
276
 10
7.96294
 20
13.1812
 30
0.000000
  70
    32
  0
VERTEX
  8
0
  5
277
 10
7.69404
 20
13.2349
 30
0.000000
  70
    32
  0
VERTEX
  8
0
  5
278
 10
7.42038
 20
13.3005
 30
0.000000
  70
    32
  0
VERTEX
  8
0
  5
279
 10
7.14198
 20
13.3782
 30
0.000000
  70
    32
  0
VERTEX
  8
0
  5
27A
 10
6.85888
 20
13.4686
 30
0.000000
  70
    32
  0
VERTEX
  8
0
  5
27B
 10
6.57111
 20
13.5719
 30
0.000000
  70
    32
  0
VERTEX
  8
0
  5
27C
 10
6.27869
 20
13.6884
 30
0.000000
  70
    32
  0
VERTEX
  8
0
  5
27D
 10
5.98167
 20
13.8187
 30
0.000000
  70
    32
  0
VERTEX
  8
0
  5
27E
 10
5.68008
 20
13.9630
 30
0.000000
  70
    32
  0
VERTEX
  8
0
  5
27F
 10
5.37395
 20
14.1217
 30
0.000000
  70
    32
  0
VERTEX
  8
0
  5
280
 10
5.06332
 20
14.2953
 30
0.000000
  70
    32
  0
VERTEX
  8
0
  5
281
 10
4.74823
 20
14.4840
 30
0.000000
  70
    32
  0
VERTEX
  8
0
  5
282
 10
4.42872
 20
14.6884
 30
0.000000
  70
    32
  0
VERTEX
  8
0
  5
283
 10
4.10483
 20
14.9088
 30
0.000000
  70
    32
  0
VERTEX
  8
0
  5
284
 10
3.77660
 20
15.1456
 30
0.000000
  70
    32
  0
VERTEX
  8
0
  5
285
 10
3.44408
 20
15.3992
 30
0.000000
  70
    32
  0
VERTEX
  8
0
  5
286
 10
3.10731
 20
15.6701
 30
0.000000
  70
    32
  0
VERTEX
  8
0
  5
287
 10
2.76633
 20
15.9586
 30
0.000000
  70
    32
  0
VERTEX
  8
0
  5
288
 10
2.42119
 20
16.2652
 30
0.000000
  70
    32
  0
VERTEX
  8
0
  5
289
 10
2.07194
 20
16.5903
 30
0.000000
  70
    32
  0
VERTEX
  8
0
  5
28A
 10
1.71862
 20
16.9344
 30
0.000000
  70
    32
  0
VERTEX
  8
0
  5
28B
 10
1.36129
 20
17.2979
 30
0.000000
  70
    32
  0
VERTEX
  8
0
  5
28C
 10
1.00000
 20
17.6811
 30
0.000000
  70
    32
  0
SEQEND
  8
0
  5
28D
  0
POLYLINE
  8
0
  5
28E
  66
     1
 10
0.000000
 20
0.000000
 30
0.000000
  70
     8
  0
VERTEX
  8
0
  5
28F
 10
-1.00000
 20
17.6811
 30
0.000000
  70
    32
  0
VERTEX
  8
0
  5
290
 10
-1.36129
 20
17.2979
 30
0.000000
  70
    32
  0
VERTEX
  8
0
  5
291
 10
-1.71862
 20
16.9344
 30
0.000000
  70
    32
  0
VERTEX
  8
0
  5
292
 10
-2.07194
 20
16.5903
 30
0.000000
  70
    32
  0
VERTEX
  8
0
  5
293
 10
-2.42119
 20
16.2652
 30
0.000000
  70
    32
  0
VERTEX
  8
0
  5
294
 10
-2.76633
 20
15.9586
 30
0.000000
  70
    32
  0
VERTEX
  8
0
  5
295
 10
-3.10731
 20
15.6701
 30
0.000000
  70
    32
  0
VERTEX
  8
0
  5
296
 10
-3.44408
 20
15.3992
 30
0.000000
  70
    32
  0
VERTEX
  8
0
  5
297
 10
-3.77660
 20
15.1456
 30
0.000000
  70
    32
  0
VERTEX
  8
0
  5
298
 10
-4.10483
 20
14.9088
 30
0.000000
  70
    32
  0
VERTEX
  8
0
  5
299
 10
-4.42872
 20
14.6884
 30
0.000000
  70
    32
  0
VERTEX
  8
0
  5
29A
 10
-4.74823
 20
14.4840
 30
0.000000
  70
    32
  0
VERTEX
  8
0
  5
29B
 10
-5.06332
 20
14.2953
 30
0.000000
  70
    32
  0
VERTEX
  8
0
  5
29C
 10
-5.37395
 20
14.1217
 30
0.000000
  70
    32
  0
VERTEX
  8
0
  5
29D
 10
-5.68008
 20
13.9630
 30
0.000000
  70
    32
  0
VERTEX
  8
0
  5
29E
 10
-5.98167
 20
13.8187
 30
0.000000
  70
    32
  0
VERTEX
  8
0
  5
29F
 10
-6.27869
 20
13.6884
 30
0.000000
  70
    32
  0
VERTEX
  8
0
  5
2A0
 10
-6.57111
 20
13.5719
 30
0.000000
  70
    32
  0
VERTEX
  8
0
  5
2A1
 10
-6.85888
 20
13.4686
 30
0.000000
  70
    32
  0
VERTEX
  8
0
  5
2A2
 10
-7.14198
 20
13.3782
 30
0.000000
  70
    32
  0
VERTEX
  8
0
  5
2A3
 10
-7.42038
 20
13.3005
 30
0.000000
  70
    32
  0
VERTEX
  8
0
  5
2A4
 10
-7.69404
 20
13.2349
 30
0.000000
  70
    32
  0
VERTEX
  8
0
  5
2A5
 10
-7.96294
 20
13.1812
 30
0.000000
  70
    32
  0
VERTEX
  8
0
  5
2A6
 10
-8.22704
 20
13.1390
 30
0.000000
  70
    32
  0
VERTEX
  8
0
  5
2A7
 10
-8.48632
 20
13.1080
 30
0.000000
  70
    32
  0
VERTEX
  8
0
  5
2A8
 10
-8.74076
 20
13.0878
 30
0.000000
  70
    32
  0
VERTEX
  8
0
  5
2A9
 10
-8.99033
 20
13.0781
 30
0.000000
  70
    32
  0
VERTEX
  8
0
  5
2AA
 10
-9.23500
 20
13.0785
 30
0.000000
  70
    32
  0
VERTEX
  8
0
  5
2AB
 10
-9.47476
 20
13.0888
 30
0.000000
  70
    32
  0
VERTEX
  8
0
  5
2AC
 10
-9.70958
 20
13.1086
 30
0.000000
  70
    32
  0
VERTEX
  8
0
  5
2AD
 10
-9.93944
 20
13.1376
 30
0.000000
  70
    32
  0
VERTEX
  8
0
  5
2AE
 10
-10.1643
 20
13.1755
 30
0.000000
  70
    32
  0
VERTEX
  8
0
  5
2AF
 10
-10.3842
 20
13.2220
 30
0.000000
  70
    32
  0
VERTEX
  8
0
  5
2B0
 10
-10.5991
 20
13.2768
 30
0.000000
  70
    32
  0
VERTEX
  8
0
  5
2B1
 10
-10.8089
 20
13.3395
 30
0.000000
  70
    32
  0
VERTEX
  8
0
  5
2B2
 10
-11.0137
 20
13.4099
 30
0.000000
  70
    32
  0
VERTEX
  8
0
  5
2B3
 10
-11.2135
 20
13.4878
 30
0.000000
  70
    32
  0
VERTEX
  8
0
  5
2B4
 10
-11.4082
 20
13.5728
 30
0.000000
  70
    32
  0
VERTEX
  8
0
  5
2B5
 10
-11.5978
 20
13.6646
 30
0.000000
  70
    32
  0
VERTEX
  8
0
  5
2B6
 10
-11.7823
 20
13.7630
 30
0.000000
  70
    32
  0
VERTEX
  8
0
  5
2B7
 10
-11.9617
 20
13.8677
 30
0.000000
  70
    32
  0
VERTEX
  8
0
  5
2B8
 10
-12.1360
 20
13.9784
 30
0.000000
  70
    32
  0
VERTEX
  8
0
  5
2B9
 10
-12.3052
 20
14.0950
 30
0.000000
  70
    32
  0
VERTEX
  8
0
  5
2BA
 10
-12.4692
 20
14.2170
 30
0.000000
  70
    32
  0
VERTEX
  8
0
  5
2BB
 10
-12.6282
 20
14.3444
 30
0.000000
  70
    32
  0
VERTEX
  8
0
  5
2BC
 10
-12.7820
 20
14.4767
 30
0.000000
  70
    32
  0
VERTEX
  8
0
  5
2BD
 10
-12.9307
 20
14.6139
 30
0.000000
  70
    32
  0
VERTEX
  8
0
  5
2BE
 10
-13.0743
 20
14.7557
 30
0.000000
  70
    32
  0
VERTEX
  8
0
  5
2BF
 10
-13.2127
 20
14.9017
 30
0.000000
  70
    32
  0
VERTEX
  8
0
  5
2C0
 10
-13.3460
 20
15.0519
 30
0.000000
  70
    32
  0
VERTEX
  8
0
  5
2C1
 10
-13.4742
 20
15.2060
 30
0.000000
  70
    32
  0
VERTEX
  8
0
  5
2C2
 10
-13.5972
 20
15.3637
 30
0.000000
  70
    32
  0
VERTEX
  8
0
  5
2C3
 10
-13.7152
 20
15.5249
 30
0.000000
  70
    32
  0
VERTEX
  8
0
  5
2C4
 10
-13.8280
 20
15.6894
 30
0.000000
  70
    32
  0
VERTEX
  8
0
  5
2C5
 10
-13.9357
 20
15.8569
 30
0.000000
  70
    32
  0
VERTEX
  8
0
  5
2C6
 10
-14.0384
 20
16.0272
 30
0.000000
  70
    32
  0
VERTEX
  8
0
  5
2C7
 10
-14.1359
 20
16.2003
 30
0.000000
  70
    32
  0
VERTEX
  8
0
  5
2C8
 10
-14.2283
 20
16.3758
 30
0.000000
  70
    32
  0
VERTEX
  8
0
  5
2C9
 10
-14.3157
 20
16.5536
 30
0.000000
  70
    32
  0
VERTEX
  8
0
  5
2CA
 10
-14.3981
 20
16.7335
 30
0.000000
  70
    32
  0
VERTEX
  8
0
  5
2CB
 10
-14.4754
 20
16.9153
 30
0.000000
  70
    32
  0
VERTEX
  8
0
  5
2CC
 10
-14.5477
 20
17.0990
 30
0.000000
  70
    32
  0
VERTEX
  8
0
  5
2CD
 10
-14.6149
 20
17.2842
 30
0.000000
  70
    32
  0
VERTEX
  8
0
  5
2CE
 10
-14.6772
 20
17.4709
 30
0.000000
  70
    32
  0
VERTEX
  8
0
  5
2CF
 10
-14.7345
 20
17.6589
 30
0.000000
  70
    32
  0
VERTEX
  8
0
  5
2D0
 10
-14.7868
 20
17.8480
 30
0.000000
  70
    32
  0
VERTEX
  8
0
  5
2D1
 10
-14.8343
 20
18.0382
 30
0.000000
  70
    32
  0
VERTEX
  8
0
  5
2D2
 10
-14.8768
 20
18.2292
 30
0.000000
  70
    32
  0
VERTEX
  8
0
  5
2D3
 10
-14.9144
 20
18.4209
 30
0.000000
  70
    32
  0
VERTEX
  8
0
  5
2D4
 10
-14.9471
 20
18.6133
 30
0.000000
  70
    32
  0
VERTEX
  8
0
  5
2D5
 10
-14.9750
 20
18.8061
 30
0.000000
  70
    32
  0
VERTEX
  8
0
  5
2D6
 10
-14.9981
 20
18.9993
 30
0.000000
  70
    32
  0
VERTEX
  8
0
  5
2D7
 10
-15.0164
 20
19.1927
 30
0.000000
  70
    32
  0
VERTEX
  8
0
  5
2D8
 10
-15.0299
 20
19.3862
 30
0.000000
  70
    32
  0
VERTEX
  8
0
  5
2D9
 10
-15.0388
 20
19.5798
 30
0.000000
  70
    32
  0
VERTEX
  8
0
  5
2DA
 10
-15.0429
 20
19.7732
 30
0.000000
  70
    32
  0
VERTEX
  8
0
  5
2DB
 10
-15.0423
 20
19.9665
 30
0.000000
  70
    32
  0
VERTEX
  8
0
  5
2DC
 10
-15.0371
 20
20.1595
 30
0.000000
  70
    32
  0
VERTEX
  8
0
  5
2DD
 10
-15.0273
 20
20.3522
 30
0.000000
  70
    32
  0
VERTEX
  8
0
  5
2DE
 10
-15.0130
 20
20.5444
 30
0.000000
  70
    32
  0
VERTEX
  8
0
  5
2DF
 10
-14.9941
 20
20.7361
 30
0.000000
  70
    32
  0
VERTEX
  8
0
  5
2E0
 10
-14.9708
 20
20.9272
 30
0.000000
  70
    32
  0
VERTEX
  8
0
  5
2E1
 10
-14.9429
 20
21.1177
 30
0.000000
  70
    32
  0
VERTEX
  8
0
  5
2E2
 10
-14.9107
 20
21.3074
 30
0.000000
  70
    32
  0
VERTEX
  8
0
  5
2E3
 10
-14.8741
 20
21.4963
 30
0.000000
  70
    32
  0
VERTEX
  8
0
  5
2E4
 10
-14.8332
 20
21.6844
 30
0.000000
  70
    32
  0
VERTEX
  8
0
  5
2E5
 10
-14.7879
 20
21.8716
 30
0.000000
  70
    32
  0
VERTEX
  8
0
  5
2E6
 10
-14.7385
 20
22.0579
 30
0.000000
  70
    32
  0
VERTEX
  8
0
  5
2E7
 10
-14.6848
 20
22.2432
 30
0.000000
  70
    32
  0
VERTEX
  8
0
  5
2E8
 10
-14.6270
 20
22.4275
 30
0.000000
  70
    32
  0
VERTEX
  8
0
  5
2E9
 10
-14.5651
 20
22.6107
 30
0.000000
  70
    32
  0
VERTEX
  8
0
  5
2EA
 10
-14.4991
 20
22.7929
 30
0.000000
  70
    32
  0
VERTEX
  8
0
  5
2EB
 10
-14.4291
 20
22.9740
 30
0.000000
  70
    32
  0
VERTEX
  8
0
  5
2EC
 10
-14.3552
 20
23.1540
 30
0.000000
  70
    32
  0
VERTEX
  8
0
  5
2ED
 10
-14.2774
 20
23.3329
 30
0.000000
  70
    32
  0
VERTEX
  8
0
  5
2EE
 10
-14.1957
 20
23.5106
 30
0.000000
  70
    32
  0
VERTEX
  8
0
  5
2EF
 10
-14.1103
 20
23.6873
 30
0.000000
  70
    32
  0
VERTEX
  8
0
  5
2F0
 10
-14.0210
 20
23.8628
 30
0.000000
  70
    32
  0
VERTEX
  8
0
  5
2F1
 10
-13.9282
 20
24.0372
 30
0.000000
  70
    32
  0
VERTEX
  8
0
  5
2F2
 10
-13.8317
 20
24.2105
 30
0.000000
  70
    32
  0
VERTEX
  8
0
  5
2F3
 10
-13.7316
 20
24.3828
 30
0.000000
  70
    32
  0
VERTEX
  8
0
  5
2F4
 10
-13.6280
 20
24.5539
 30
0.000000
  70
    32
  0
VERTEX
  8
0
  5
2F5
 10
-13.5210
 20
24.7240
 30
0.000000
  70
    32
  0
VERTEX
  8
0
  5
2F6
 10
-13.4106
 20
24.8931
 30
0.000000
  70
    32
  0
VERTEX
  8
0
  5
2F7
 10
-13.2969
 20
25.0612
 30
0.000000
  70
    32
  0
VERTEX
  8
0
  5
2F8
 10
-13.1799
 20
25.2283
 30
0.000000
  70
    32
  0
VERTEX
  8
0
  5
2F9
 10
-13.0597
 20
25.3944
 30
0.000000
  70
    32
  0
VERTEX
  8
0
  5
2FA
 10
-12.9364
 20
25.5595
 30
0.000000
  70
    32
  0
VERTEX
  8
0
  5
2FB
 10
-12.8101
 20
25.7237
 30
0.000000
  70
    32
  0
VERTEX
  8
0
  5
2FC
 10
-12.6807
 20
25.8870
 30
0.000000
  70
    32
  0
VERTEX
  8
0
  5
2FD
 10
-12.5484
 20
26.0494
 30
0.000000
  70
    32
  0
VERTEX
  8
0
  5
2FE
 10
-12.4133
 20
26.2110
 30
0.000000
  70
    32
  0
VERTEX
  8
0
  5
2FF
 10
-12.2754
 20
26.3716
 30
0.000000
  70
    32
  0
VERTEX
  8
0
  5
300
 10
-12.1347
 20
26.5315
 30
0.000000
  70
    32
  0
VERTEX
  8
0
  5
301
 10
-11.9915
 20
26.6905
 30
0.000000
  70
    32
  0
VERTEX
  8
0
  5
302
 10
-11.8456
 20
26.8488
 30
0.000000
  70
    32
  0
VERTEX
  8
0
  5
303
 10
-11.6972
 20
27.0063
 30
0.000000
  70
    32
  0
VERTEX
  8
0
  5
304
 10
-11.5464
 20
27.1630
 30
0.000000
  70
    32
  0
VERTEX
  8
0
  5
305
 10
-11.3933
 20
27.3190
 30
0.000000
  70
    32
  0
VERTEX
  8
0
  5
306
 10
-11.2379
 20
27.4743
 30
0.000000
  70
    32
  0
VERTEX
  8
0
  5
307
 10
-11.0802
 20
27.6289
 30
0.000000
  70
    32
  0
VERTEX
  8
0
  5
308
 10
-10.9205
 20
27.7829
 30
0.000000
  70
    32
  0
VERTEX
  8
0
  5
309
 10
-10.7587
 20
27.9363
 30
0.000000
  70
    32
  0
VERTEX
  8
0
  5
30A
 10
-10.5949
 20
28.0890
 30
0.000000
  70
    32
  0
VERTEX
  8
0
  5
30B
 10
-10.4292
 20
28.2412
 30
0.000000
  70
    32
  0
VERTEX
  8
0
  5
30C
 10
-10.2618
 20
28.3928
 30
0.000000
  70
    32
  0
VERTEX
  8
0
  5
30D
 10
-10.0926
 20
28.5439
 30
0.000000
  70
    32
  0
VERTEX
  8
0
  5
30E
 10
-9.92172
 20
28.6945
 30
0.000000
  70
    32
  0
VERTEX
  8
0
  5
30F
 10
-9.74932
 20
28.8446
 30
0.000000
  70
    32
  0
VERTEX
  8
0
  5
310
 10
-9.57544
 20
28.9943
 30
0.000000
  70
    32
  0
VERTEX
  8
0
  5
311
 10
-9.40017
 20
29.1435
 30
0.000000
  70
    32
  0
VERTEX
  8
0
  5
312
 10
-9.22359
 20
29.2923
 30
0.000000
  70
    32
  0
VERTEX
  8
0
  5
313
 10
-9.04580
 20
29.4408
 30
0.000000
  70
    32
  0
VERTEX
  8
0
  5
314
 10
-8.86687
 20
29.5889
 30
0.000000
  70
    32
  0
VERTEX
  8
0
  5
315
 10
-8.68690
 20
29.7367
 30
0.000000
  70
    32
  0
VERTEX
  8
0
  5
316
 10
-8.50597
 20
29.8842
 30
0.000000
  70
    32
  0
VERTEX
  8
0
  5
317
 10
-8.32418
 20
30.0315
 30
0.000000
  70
    32
  0
VERTEX
  8
0
  5
318
 10
-8.14162
 20
30.1785
 30
0.000000
  70
    32
  0
VERTEX
  8
0
  5
319
 10
-7.95838
 20
30.3253
 30
0.000000
  70
    32
  0
VERTEX
  8
0
  5
31A
 10
-7.77455
 20
30.4719
 30
0.000000
  70
    32
  0
VERTEX
  8
0
  5
31B
 10
-7.59022
 20
30.6184
 30
0.000000
  70
    32
  0
VERTEX
  8
0
  5
31C
 10
-7.40549
 20
30.7648
 30
0.000000
  70
    32
  0
VERTEX
  8
0
  5
31D
 10
-7.22046
 20
30.9111
 30
0.000000
  70
    32
  0
VERTEX
  8
0
  5
31E
 10
-7.03522
 20
31.0573
 30
0.000000
  70
    32
  0
VERTEX
  8
0
  5
31F
 10
-6.84987
 20
31.2035
 30
0.000000
  70
    32
  0
VERTEX
  8
0
  5
320
 10
-6.66450
 20
31.3497
 30
0.000000
  70
    32
  0
VERTEX
  8
0
  5
321
 10
-6.47922
 20
31.4960
 30
0.000000
  70
    32
  0
VERTEX
  8
0
  5
322
 10
-6.29412
 20
31.6423
 30
0.000000
  70
    32
  0
VERTEX
  8
0
  5
323
 10
-6.10931
 20
31.7887
 30
0.000000
  70
    32
  0
VERTEX
  8
0
  5
324
 10
-5.92488
 20
31.9353
 30
0.000000
  70
    32
  0
VERTEX
  8
0
  5
325
 10
-5.74095
 20
32.0820
 30
0.000000
  70
    32
  0
VERTEX
  8
0
  5
326
 10
-5.55760
 20
32.2289
 30
0.000000
  70
    32
  0
VERTEX
  8
0
  5
327
 10
-5.37495
 20
32.3761
 30
0.000000
  70
    32
  0
VERTEX
  8
0
  5
328
 10
-5.19311
 20
32.5235
 30
0.000000
  70
    32
  0
VERTEX
  8
0
  5
329
 10
-5.01217
 20
32.6712
 30
0.000000
  70
    32
  0
VERTEX
  8
0
  5
32A
 10
-4.83224
 20
32.8192
 30
0.000000
  70
    32
  0
VERTEX
  8
0
  5
32B
 10
-4.65343
 20
32.9676
 30
0.000000
  70
    32
  0
VERTEX
  8
0
  5
32C
 10
-4.47585
 20
33.1164
 30
0.000000
  70
    32
  0
VERTEX
  8
0
  5
32D
 10
-4.29961
 20
33.2657
 30
0.000000
  70
    32
  0
VERTEX
  8
0
  5
32E
 10
-4.12482
 20
33.4154
 30
0.000000
  70
    32
  0
VERTEX
  8
0
  5
32F
 10
-3.95159
 20
33.5656
 30
0.000000
  70
    32
  0
VERTEX
  8
0
  5
330
 10
-3.78002
 20
33.7164
 30
0.000000
  70
    32
  0
VERTEX
  8
0
  5
331
 10
-3.61025
 20
33.8677
 30
0.000000
  70
    32
  0
VERTEX
  8
0
  5
332
 10
-3.44236
 20
34.0197
 30
0.000000
  70
    32
  0
VERTEX
  8
0
  5
333
 10
-3.27649
 20
34.1723
 30
0.000000
  70
    32
  0
VERTEX
  8
0
  5
334
 10
-3.11275
 20
34.3256
 30
0.000000
  70
    32
  0
VERTEX
  8
0
  5
335
 10
-2.95125
 20
34.4796
 30
0.000000
  70
    32
  0
VERTEX
  8
0
  5
336
 10
-2.79211
 20
34.6344
 30
0.000000
  70
    32
  0
VERTEX
  8
0
  5
337
 10
-2.63545
 20
34.7899
 30
0.000000
  70
    32
  0
VERTEX
  8
0
  5
338
 10
-2.48138
 20
34.9464
 30
0.000000
  70
    32
  0
VERTEX
  8
0
  5
339
 10
-2.33003
 20
35.1037
 30
0.000000
  70
    32
  0
VERTEX
  8
0
  5
33A
 10
-2.18151
 20
35.2619
 30
0.000000
  70
    32
  0
VERTEX
  8
0
  5
33B
 10
-2.03596
 20
35.4210
 30
0.000000
  70
    32
  0
VERTEX
  8
0
  5
33C
 10
-1.89348
 20
35.5812
 30
0.000000
  70
    32
  0
VERTEX
  8
0
  5
33D
 10
-1.75421
 20
35.7424
 30
0.000000
  70
    32
  0
VERTEX
  8
0
  5
33E
 10
-1.61826
 20
35.9047
 30
0.000000
  70
    32
  0
VERTEX
  8
0
  5
33F
 10
-1.48576
 20
36.0681
 30
0.000000
  70
    32
  0
VERTEX
  8
0
  5
340
 10
-1.35684
 20
36.2326
 30
0.000000
  70
    32
  0
VERTEX
  8
0
  5
341
 10
-1.23163
 20
36.3984
 30
0.000000
  70
    32
  0
VERTEX
  8
0
  5
342
 10
-1.11024
 20
36.5654
 30
0.000000
  70
    32
  0
VERTEX
  8
0
  5
343
 10
-0.992819
 20
36.7336
 30
0.000000
  70
    32
  0
VERTEX
  8
0
  5
344
 10
-0.879483
 20
36.9032
 30
0.000000
  70
    32
  0
VERTEX
  8
0
  5
345
 10
-0.770365
 20
37.0741
 30
0.000000
  70
    32
  0
VERTEX
  8
0
  5
346
 10
-0.665596
 20
37.2465
 30
0.000000
  70
    32
  0
VERTEX
  8
0
  5
347
 10
-0.565308
 20
37.4203
 30
0.000000
  70
    32
  0
VERTEX
  8
0
  5
348
 10
-0.469633
 20
37.5956
 30
0.000000
  70
    32
  0
VERTEX
  8
0
  5
349
 10
-0.378706
 20
37.7724
 30
0.000000
  70
    32
  0
VERTEX
  8
0
  5
34A
 10
-0.292659
 20
37.9508
 30
0.000000
  70
    32
  0
VERTEX
  8
0
  5
34B
 10
-0.211629
 20
38.1309
 30
0.000000
  70
    32
  0
VERTEX
  8
0
  5
34C
 10
-0.135751
 20
38.3126
 30
0.000000
  70
    32
  0
VERTEX
  8
0
  5
34D
 10
-0.0651618
 20
38.4960
 30
0.000000
  70
    32
  0
VERTEX
  8
0
  5
34E
 10
-1.17225e-010
 20
38.6811
 30
0.000000
  70
    32
  0
SEQEND
  8
0
  5
34F
  0
POLYLINE
  8
0
  5
350
  66
     1
 10
0.000000
 20
0.000000
 30
0.000000
  70
     8
  0
VERTEX
  8
0
  5
351
 10
-2.50000
 20
8.68115
 30
0.000000
  70
    32
  0
VERTEX
  8
0
  5
352
 10
-2.44052
 20
8.80541
 30
0.000000
  70
    32
  0
VERTEX
  8
0
  5
353
 10
-2.38198
 20
8.92904
 30
0.000000
  70
    32
  0
VERTEX
  8
0
  5
354
 10
-2.32436
 20
9.05205
 30
0.000000
  70
    32
  0
VERTEX
  8
0
  5
355
 10
-2.26767
 20
9.17442
 30
0.000000
  70
    32
  0
VERTEX
  8
0
  5
356
 10
-2.21191
 20
9.29617
 30
0.000000
  70
    32
  0
VERTEX
  8
0
  5
357
 10
-2.15709
 20
9.41729
 30
0.000000
  70
    32
  0
VERTEX
  8
0
  5
358
 10
-2.10319
 20
9.53778
 30
0.000000
  70
    32
  0
VERTEX
  8
0
  5
359
 10
-2.05022
 20
9.65765
 30
0.000000
  70
    32
  0
VERTEX
  8
0
  5
35A
 10
-1.99818
 20
9.77688
 30
0.000000
  70
    32
  0
VERTEX
  8
0
  5
35B
 10
-1.94707
 20
9.89549
 30
0.000000
  70
    32
  0
VERTEX
  8
0
  5
35C
 10
-1.89688
 20
10.0135
 30
0.000000
  70
    32
  0
VERTEX
  8
0
  5
35D
 10
-1.84763
 20
10.1308
 30
0.000000
  70
    32
  0
VERTEX
  8
0
  5
35E
 10
-1.79931
 20
10.2475
 30
0.000000
  70
    32
  0
VERTEX
  8
0
  5
35F
 10
-1.75192
 20
10.3636
 30
0.000000
  70
    32
  0
VERTEX
  8
0
  5
360
 10
-1.70545
 20
10.4791
 30
0.000000
  70
    32
  0
VERTEX
  8
0
  5
361
 10
-1.65992
 20
10.5939
 30
0.000000
  70
    32
  0
VERTEX
  8
0
  5
362
 10
-1.61532
 20
10.7082
 30
0.000000
  70
    32
  0
VERTEX
  8
0
  5
363
 10
-1.57164
 20
10.8217
 30
0.000000
  70
    32
  0
VERTEX
  8
0
  5
364
 10
-1.52890
 20
10.9347
 30
0.000000
  70
    32
  0
VERTEX
  8
0
  5
365
 10
-1.48708
 20
11.0470
 30
0.000000
  70
    32
  0
VERTEX
  8
0
  5
366
 10
-1.44620
 20
11.1587
 30
0.000000
  70
    32
  0
VERTEX
  8
0
  5
367
 10
-1.40624
 20
11.2698
 30
0.000000
  70
    32
  0
VERTEX
  8
0
  5
368
 10
-1.36721
 20
11.3802
 30
0.000000
  70
    32
  0
VERTEX
  8
0
  5
369
 10
-1.32911
 20
11.4900
 30
0.000000
  70
    32
  0
VERTEX
  8
0
  5
36A
 10
-1.29195
 20
11.5992
 30
0.000000
  70
    32
  0
VERTEX
  8
0
  5
36B
 10
-1.25571
 20
11.7078
 30
0.000000
  70
    32
  0
VERTEX
  8
0
  5
36C
 10
-1.22040
 20
11.8157
 30
0.000000
  70
    32
  0
VERTEX
  8
0
  5
36D
 10
-1.18602
 20
11.9230
 30
0.000000
  70
    32
  0
VERTEX
  8
0
  5
36E
 10
-1.15257
 20
12.0297
 30
0.000000
  70
    32
  0
VERTEX
  8
0
  5
36F
 10
-1.12005
 20
12.1357
 30
0.000000
  70
    32
  0
VERTEX
  8
0
  5
370
 10
-1.08846
 20
12.2411
 30
0.000000
  70
    32
  0
VERTEX
  8
0
  5
371
 10
-1.05780
 20
12.3459
 30
0.000000
  70
    32
  0
VERTEX
  8
0
  5
372
 10
-1.02806
 20
12.4501
 30
0.000000
  70
    32
  0
VERTEX
  8
0
  5
373
 10
-0.999261
 20
12.5536
 30
0.000000
  70
    32
  0
VERTEX
  8
0
  5
374
 10
-0.971388
 20
12.6565
 30
0.000000
  70
    32
  0
VERTEX
  8
0
  5
375
 10
-0.944444
 20
12.7588
 30
0.000000
  70
    32
  0
VERTEX
  8
0
  5
376
 10
-0.918430
 20
12.8604
 30
0.000000
  70
    32
  0
VERTEX
  8
0
  5
377
 10
-0.893345
 20
12.9615
 30
0.000000
  70
    32
  0
VERTEX
  8
0
  5
378
 10
-0.869190
 20
13.0619
 30
0.000000
  70
    32
  0
VERTEX
  8
0
  5
379
 10
-0.845965
 20
13.1616
 30
0.000000
  70
    32
  0
VERTEX
  8
0
  5
37A
 10
-0.823669
 20
13.2608
 30
0.000000
  70
    32
  0
VERTEX
  8
0
  5
37B
 10
-0.802302
 20
13.3593
 30
0.000000
  70
    32
  0
VERTEX
  8
0
  5
37C
 10
-0.781865
 20
13.4571
 30
0.000000
  70
    32
  0
VERTEX
  8
0
  5
37D
 10
-0.762358
 20
13.5544
 30
0.000000
  70
    32
  0
VERTEX
  8
0
  5
37E
 10
-0.743780
 20
13.6510
 30
0.000000
  70
    32
  0
VERTEX
  8
0
  5
37F
 10
-0.726131
 20
13.7470
 30
0.000000
  70
    32
  0
VERTEX
  8
0
  5
380
 10
-0.709412
 20
13.8424
 30
0.000000
  70
    32
  0
VERTEX
  8
0
  5
381
 10
-0.693623
 20
13.9371
 30
0.000000
  70
    32
  0
VERTEX
  8
0
  5
382
 10
-0.678763
 20
14.0312
 30
0.000000
  70
    32
  0
VERTEX
  8
0
  5
383
 10
-0.664833
 20
14.1247
 30
0.000000
  70
    32
  0
VERTEX
  8
0
  5
384
 10
-0.651832
 20
14.2175
 30
0.000000
  70
    32
  0
VERTEX
  8
0
  5
385
 10
-0.639760
 20
14.3098
 30
0.000000
  70
    32
  0
VERTEX
  8
0
  5
386
 10
-0.628618
 20
14.4014
 30
0.000000
  70
    32
  0
VERTEX
  8
0
  5
387
 10
-0.618406
 20
14.4923
 30
0.000000
  70
    32
  0
VERTEX
  8
0
  5
388
 10
-0.609123
 20
14.5827
 30
0.000000
  70
    32
  0
VERTEX
  8
0
  5
389
 10
-0.600769
 20
14.6724
 30
0.000000
  70
    32
  0
VERTEX
  8
0
  5
38A
 10
-0.593345
 20
14.7615
 30
0.000000
  70
    32
  0
VERTEX
  8
0
  5
38B
 10
-0.586851
 20
14.8499
 30
0.000000
  70
    32
  0
VERTEX
  8
0
  5
38C
 10
-0.581286
 20
14.9377
 30
0.000000
  70
    32
  0
VERTEX
  8
0
  5
38D
 10
-0.576651
 20
15.0249
 30
0.000000
  70
    32
  0
VERTEX
  8
0
  5
38E
 10
-0.572945
 20
15.1115
 30
0.000000
  70
    32
  0
VERTEX
  8
0
  5
38F
 10
-0.570168
 20
15.1975
 30
0.000000
  70
    32
  0
VERTEX
  8
0
  5
390
 10
-0.568322
 20
15.2828
 30
0.000000
  70
    32
  0
VERTEX
  8
0
  5
391
 10
-0.567404
 20
15.3675
 30
0.000000
  70
    32
  0
VERTEX
  8
0
  5
392
 10
-0.567416
 20
15.4515
 30
0.000000
  70
    32
  0
VERTEX
  8
0
  5
393
 10
-0.568358
 20
15.5349
 30
0.000000
  70
    32
  0
VERTEX
  8
0
  5
394
 10
-0.570229
 20
15.6177
 30
0.000000
  70
    32
  0
VERTEX
  8
0
  5
395
 10
-0.573030
 20
15.6999
 30
0.000000
  70
    32
  0
VERTEX
  8
0
  5
396
 10
-0.576760
 20
15.7815
 30
0.000000
  70
    32
  0
VERTEX
  8
0
  5
397
 10
-0.581419
 20
15.8624
 30
0.000000
  70
    32
  0
VERTEX
  8
0
  5
398
 10
-0.587009
 20
15.9427
 30
0.000000
  70
    32
  0
VERTEX
  8
0
  5
399
 10
-0.593527
 20
16.0223
 30
0.000000
  70
    32
  0
VERTEX
  8
0
  5
39A
 10
-0.600975
 20
16.1014
 30
0.000000
  70
    32
  0
VERTEX
  8
0
  5
39B
 10
-0.609353
 20
16.1798
 30
0.000000
  70
    32
  0
VERTEX
  8
0
  5
39C
 10
-0.618660
 20
16.2575
 30
0.000000
  70
    32
  0
VERTEX
  8
0
  5
39D
 10
-0.628897
 20
16.3347
 30
0.000000
  70
    32
  0
VERTEX
  8
0
  5
39E
 10
-0.640063
 20
16.4112
 30
0.000000
  70
    32
  0
VERTEX
  8
0
  5
39F
 10
-0.652159
 20
16.4871
 30
0.000000
  70
    32
  0
VERTEX
  8
0
  5
3A0
 10
-0.665184
 20
16.5624
 30
0.000000
  70
    32
  0
VERTEX
  8
0
  5
3A1
 10
-0.679139
 20
16.6370
 30
0.000000
  70
    32
  0
VERTEX
  8
0
  5
3A2
 10
-0.694023
 20
16.7110
 30
0.000000
  70
    32
  0
VERTEX
  8
0
  5
3A3
 10
-0.709837
 20
16.7844
 30
0.000000
  70
    32
  0
VERTEX
  8
0
  5
3A4
 10
-0.726580
 20
16.8571
 30
0.000000
  70
    32
  0
VERTEX
  8
0
  5
3A5
 10
-0.744253
 20
16.9293
 30
0.000000
  70
    32
  0
VERTEX
  8
0
  5
3A6
 10
-0.762855
 20
17.0008
 30
0.000000
  70
    32
  0
VERTEX
  8
0
  5
3A7
 10
-0.782387
 20
17.0716
 30
0.000000
  70
    32
  0
VERTEX
  8
0
  5
3A8
 10
-0.802848
 20
17.1419
 30
0.000000
  70
    32
  0
VERTEX
  8
0
  5
3A9
 10
-0.824239
 20
17.2115
 30
0.000000
  70
    32
  0
VERTEX
  8
0
  5
3AA
 10
-0.846559
 20
17.2804
 30
0.000000
  70
    32
  0
VERTEX
  8
0
  5
3AB
 10
-0.869809
 20
17.3488
 30
0.000000
  70
    32
  0
VERTEX
  8
0
  5
3AC
 10
-0.893988
 20
17.4165
 30
0.000000
  70
    32
  0
VERTEX
  8
0
  5
3AD
 10
-0.919097
 20
17.4836
 30
0.000000
  70
    32
  0
VERTEX
  8
0
  5
3AE
 10
-0.945135
 20
17.5501
 30
0.000000
  70
    32
  0
VERTEX
  8
0
  5
3AF
 10
-0.972103
 20
17.6159
 30
0.000000
  70
    32
  0
VERTEX
  8
0
  5
3B0
 10
-1.00000
 20
17.6811
 30
0.000000
  70
    32
  0
SEQEND
  8
0
  5
3B1
  0
CIRCLE
  5
F0
  8
0
 10
0.0000000000021139
 20
41.68114744954169
 30
0.0
 40
0.9999999999999673
  0
CIRCLE
  5
F1
  8
0
 10
-27.323157698380101
 20
23.111125041132251
 30
0.0
 40
0.4999999999999816
  0
CIRCLE
  5
F2
  8
0
 10
-25.262812377003019
 20
26.05360310505716
 30
0.0
 40
0.4999999999999828
  0
CIRCLE
  5
F3
  8
0
 10
-14.13014773719166
 20
31.956188886085162
 30
0.0
 40
0.4999999999999828
  0
CIRCLE
  5
F4
  8
0
 10
-16.32985226280411
 20
30.686188886085219
 30
0.0
 40
0.4999999999999828
  0
CIRCLE
  5
F5
  8
0
 10
-5.1957905288787778
 20
46.837992173759119
 30
0.0
 40
0.4999999999999842
  0
CIRCLE
  5
F6
  8
0
 10
-2.6706635926824558
 20
46.56352185460733
 30
0.0
 40
0.4999999999999828
  0
CIRCLE
  5
F7
  8
0
 10
24.821746005731551
 20
23.552191412406231
 30
0.0
 40
0.4999999999999825
  0
CIRCLE
  5
F8
  8
0
 10
16.329852262807218
 20
30.686188886085208
 30
0.0
 40
0.4999999999999828
  0
CIRCLE
  5
F9
  8
0
 10
2.6706635926871809
 20
46.56352185460733
 30
0.0
 40
0.4999999999999828
  0
CIRCLE
  5
FA
  8
0
 10
4.9213202097318689
 20
49.363119109955448
 30
0.0
 40
0.4999999999999842
  0
CIRCLE
  5
FB
  8
0
 10
15.40014773719496
 20
34.155893411697562
 30
0.0
 40
0.4999999999999844
  0
CIRCLE
  5
FC
  8
0
 10
25.262812377005659
 20
26.05360310505716
 30
0.0
 40
0.4999999999999828
  0
CIRCLE
  5
FD
  8
0
 10
27.764224069656549
 20
25.61253673378317
 30
0.0
 40
0.4999999999999828
  0
CIRCLE
  5
FE
  8
0
 10
17.599852262807289
 20
32.885893411697609
 30
0.0
 40
0.4999999999999844
  0
CIRCLE
  5
FF
  8
0
 10
5.1957905288835304
 20
46.837992173759119
 30
0.0
 40
0.4999999999999842
  0
CIRCLE
  5
100
  8
0
 10
2.3961932735355198
 20
49.08864879080366
 30
0.0
 40
0.4999999999999828
  0
CIRCLE
  5
101
  8
0
 10
14.130147737194889
 20
31.956188886085169
 30
0.0
 40
0.4999999999999828
  0
CIRCLE
  5
102
  8
0
 10
27.323157698382438
 20
23.111125041132251
 30
0.0
 40
0.4999999999999816
  0
CIRCLE
  5
103
  8
0
 10
-4.9213202097268818
 20
49.363119109955448
 30
0.0
 40
0.4999999999999842
  0
CIRCLE
  5
104
  8
0
 10
-2.3961932735305549
 20
49.088648790803681
 30
0.0
 40
0.4999999999999828
  0
CIRCLE
  5
105
  8
0
 10
-17.59985226280396
 20
32.885893411697609
 30
0.0
 40
0.4999999999999844
  0
CIRCLE
  5
106
  8
0
 10
-15.40014773719151
 20
34.155893411697562
 30
0.0
 40
0.4999999999999844
  0
CIRCLE
  5
107
  8
0
 10
-27.76422406965397
 20
25.61253673378317
 30
0.0
 40
0.4999999999999828
  0
CIRCLE
  5
108
  8
0
 10
-24.821746005729171
 20
23.552191412406231
 30
0.0
 40
0.4999999999999825
  0
POLYLINE
  8
0
  5
3B2
  66
     1
 10
0.000000
 20
0.000000
 30
0.000000
  70
     8
  0
VERTEX
  8
0
  5
3B3
 10
-1.00000
 20
60.6811
 30
0.000000
  70
    32
  0
VERTEX
  8
0
  5
3B4
 10
-1.37523
 20
60.6355
 30
0.000000
  70
    32
  0
VERTEX
  8
0
  5
3B5
 10
-1.74941
 20
60.5852
 30
0.000000
  70
    32
  0
VERTEX
  8
0
  5
3B6
 10
-2.12256
 20
60.5303
 30
0.000000
  70
    32
  0
VERTEX
  8
0
  5
3B7
 10
-2.49466
 20
60.4708
 30
0.000000
  70
    32
  0
VERTEX
  8
0
  5
3B8
 10
-2.86573
 20
60.4066
 30
0.000000
  70
    32
  0
VERTEX
  8
0
  5
3B9
 10
-3.23575
 20
60.3378
 30
0.000000
  70
    32
  0
VERTEX
  8
0
  5
3BA
 10
-3.60474
 20
60.2644
 30
0.000000
  70
    32
  0
VERTEX
  8
0
  5
3BB
 10
-3.97268
 20
60.1864
 30
0.000000
  70
    32
  0
VERTEX
  8
0
  5
3BC
 10
-4.33958
 20
60.1037
 30
0.000000
  70
    32
  0
VERTEX
  8
0
  5
3BD
 10
-4.70544
 20
60.0164
 30
0.000000
  70
    32
  0
VERTEX
  8
0
  5
3BE
 10
-5.07026
 20
59.9245
 30
0.000000
  70
    32
  0
VERTEX
  8
0
  5
3BF
 10
-5.43404
 20
59.8279
 30
0.000000
  70
    32
  0
VERTEX
  8
0
  5
3C0
 10
-5.79678
 20
59.7267
 30
0.000000
  70
    32
  0
VERTEX
  8
0
  5
3C1
 10
-6.15848
 20
59.6209
 30
0.000000
  70
    32
  0
VERTEX
  8
0
  5
3C2
 10
-6.51914
 20
59.5105
 30
0.000000
  70
    32
  0
VERTEX
  8
0
  5
3C3
 10
-6.87875
 20
59.3954
 30
0.000000
  70
    32
  0
VERTEX
  8
0
  5
3C4
 10
-7.23733
 20
59.2757
 30
0.000000
  70
    32
  0
VERTEX
  8
0
  5
3C5
 10
-7.59487
 20
59.1514
 30
0.000000
  70
    32
  0
VERTEX
  8
0
  5
3C6
 10
-7.95136
 20
59.0224
 30
0.000000
  70
    32
  0
VERTEX
  8
0
  5
3C7
 10
-8.30682
 20
58.8889
 30
0.000000
  70
    32
  0
VERTEX
  8
0
  5
3C8
 10
-8.66123
 20
58.7507
 30
0.000000
  70
    32
  0
VERTEX
  8
0
  5
3C9
 10
-9.01460
 20
58.6078
 30
0.000000
  70
    32
  0
VERTEX
  8
0
  5
3CA
 10
-9.36694
 20
58.4604
 30
0.000000
  70
    32
  0
VERTEX
  8
0
  5
3CB
 10
-9.71823
 20
58.3083
 30
0.000000
  70
    32
  0
VERTEX
  8
0
  5
3CC
 10
-10.0685
 20
58.1516
 30
0.000000
  70
    32
  0
VERTEX
  8
0
  5
3CD
 10
-10.4177
 20
57.9902
 30
0.000000
  70
    32
  0
VERTEX
  8
0
  5
3CE
 10
-10.7659
 20
57.8242
 30
0.000000
  70
    32
  0
VERTEX
  8
0
  5
3CF
 10
-11.1130
 20
57.6536
 30
0.000000
  70
    32
  0
VERTEX
  8
0
  5
3D0
 10
-11.4591
 20
57.4784
 30
0.000000
  70
    32
  0
VERTEX
  8
0
  5
3D1
 10
-11.8041
 20
57.2986
 30
0.000000
  70
    32
  0
VERTEX
  8
0
  5
3D2
 10
-12.1481
 20
57.1141
 30
0.000000
  70
    32
  0
VERTEX
  8
0
  5
3D3
 10
-12.4911
 20
56.9250
 30
0.000000
  70
    32
  0
VERTEX
  8
0
  5
3D4
 10
-12.8330
 20
56.7312
 30
0.000000
  70
    32
  0
VERTEX
  8
0
  5
3D5
 10
-13.1739
 20
56.5329
 30
0.000000
  70
    32
  0
VERTEX
  8
0
  5
3D6
 10
-13.5138
 20
56.3299
 30
0.000000
  70
    32
  0
VERTEX
  8
0
  5
3D7
 10
-13.8526
 20
56.1222
 30
0.000000
  70
    32
  0
VERTEX
  8
0
  5
3D8
 10
-14.1903
 20
55.9100
 30
0.000000
  70
    32
  0
VERTEX
  8
0
  5
3D9
 10
-14.5270
 20
55.6931
 30
0.000000
  70
    32
  0
VERTEX
  8
0
  5
3DA
 10
-14.8627
 20
55.4716
 30
0.000000
  70
    32
  0
VERTEX
  8
0
  5
3DB
 10
-15.1974
 20
55.2455
 30
0.000000
  70
    32
  0
VERTEX
  8
0
  5
3DC
 10
-15.5310
 20
55.0147
 30
0.000000
  70
    32
  0
VERTEX
  8
0
  5
3DD
 10
-15.8635
 20
54.7793
 30
0.000000
  70
    32
  0
VERTEX
  8
0
  5
3DE
 10
-16.1950
 20
54.5393
 30
0.000000
  70
    32
  0
VERTEX
  8
0
  5
3DF
 10
-16.5255
 20
54.2946
 30
0.000000
  70
    32
  0
VERTEX
  8
0
  5
3E0
 10
-16.8550
 20
54.0454
 30
0.000000
  70
    32
  0
VERTEX
  8
0
  5
3E1
 10
-17.1834
 20
53.7915
 30
0.000000
  70
    32
  0
VERTEX
  8
0
  5
3E2
 10
-17.5107
 20
53.5329
 30
0.000000
  70
    32
  0
VERTEX
  8
0
  5
3E3
 10
-17.8370
 20
53.2698
 30
0.000000
  70
    32
  0
VERTEX
  8
0
  5
3E4
 10
-18.1623
 20
53.0020
 30
0.000000
  70
    32
  0
VERTEX
  8
0
  5
3E5
 10
-18.4865
 20
52.7296
 30
0.000000
  70
    32
  0
VERTEX
  8
0
  5
3E6
 10
-18.8097
 20
52.4525
 30
0.000000
  70
    32
  0
VERTEX
  8
0
  5
3E7
 10
-19.1319
 20
52.1709
 30
0.000000
  70
    32
  0
VERTEX
  8
0
  5
3E8
 10
-19.4530
 20
51.8846
 30
0.000000
  70
    32
  0
VERTEX
  8
0
  5
3E9
 10
-19.7731
 20
51.5936
 30
0.000000
  70
    32
  0
VERTEX
  8
0
  5
3EA
 10
-20.0921
 20
51.2981
 30
0.000000
  70
    32
  0
VERTEX
  8
0
  5
3EB
 10
-20.4101
 20
50.9979
 30
0.000000
  70
    32
  0
VERTEX
  8
0
  5
3EC
 10
-20.7270
 20
50.6931
 30
0.000000
  70
    32
  0
VERTEX
  8
0
  5
3ED
 10
-21.0430
 20
50.3837
 30
0.000000
  70
    32
  0
VERTEX
  8
0
  5
3EE
 10
-21.3578
 20
50.0696
 30
0.000000
  70
    32
  0
VERTEX
  8
0
  5
3EF
 10
-21.6716
 20
49.7509
 30
0.000000
  70
    32
  0
VERTEX
  8
0
  5
3F0
 10
-21.9844
 20
49.4276
 30
0.000000
  70
    32
  0
VERTEX
  8
0
  5
3F1
 10
-22.2962
 20
49.0996
 30
0.000000
  70
    32
  0
VERTEX
  8
0
  5
3F2
 10
-22.6069
 20
48.7671
 30
0.000000
  70
    32
  0
VERTEX
  8
0
  5
3F3
 10
-22.9166
 20
48.4299
 30
0.000000
  70
    32
  0
VERTEX
  8
0
  5
3F4
 10
-23.2252
 20
48.0880
 30
0.000000
  70
    32
  0
VERTEX
  8
0
  5
3F5
 10
-23.5328
 20
47.7416
 30
0.000000
  70
    32
  0
VERTEX
  8
0
  5
3F6
 10
-23.8393
 20
47.3905
 30
0.000000
  70
    32
  0
VERTEX
  8
0
  5
3F7
 10
-24.1448
 20
47.0348
 30
0.000000
  70
    32
  0
VERTEX
  8
0
  5
3F8
 10
-24.4493
 20
46.6744
 30
0.000000
  70
    32
  0
VERTEX
  8
0
  5
3F9
 10
-24.7527
 20
46.3095
 30
0.000000
  70
    32
  0
VERTEX
  8
0
  5
3FA
 10
-25.0551
 20
45.9399
 30
0.000000
  70
    32
  0
VERTEX
  8
0
  5
3FB
 10
-25.3564
 20
45.5656
 30
0.000000
  70
    32
  0
VERTEX
  8
0
  5
3FC
 10
-25.6567
 20
45.1868
 30
0.000000
  70
    32
  0
VERTEX
  8
0
  5
3FD
 10
-25.9560
 20
44.8033
 30
0.000000
  70
    32
  0
VERTEX
  8
0
  5
3FE
 10
-26.2542
 20
44.4152
 30
0.000000
  70
    32
  0
VERTEX
  8
0
  5
3FF
 10
-26.5514
 20
44.0224
 30
0.000000
  70
    32
  0
VERTEX
  8
0
  5
400
 10
-26.8475
 20
43.6251
 30
0.000000
  70
    32
  0
VERTEX
  8
0
  5
401
 10
-27.1426
 20
43.2231
 30
0.000000
  70
    32
  0
VERTEX
  8
0
  5
402
 10
-27.4366
 20
42.8165
 30
0.000000
  70
    32
  0
VERTEX
  8
0
  5
403
 10
-27.7297
 20
42.4052
 30
0.000000
  70
    32
  0
VERTEX
  8
0
  5
404
 10
-28.0216
 20
41.9893
 30
0.000000
  70
    32
  0
VERTEX
  8
0
  5
405
 10
-28.3126
 20
41.5688
 30
0.000000
  70
    32
  0
VERTEX
  8
0
  5
406
 10
-28.6025
 20
41.1437
 30
0.000000
  70
    32
  0
VERTEX
  8
0
  5
407
 10
-28.8913
 20
40.7139
 30
0.000000
  70
    32
  0
VERTEX
  8
0
  5
408
 10
-29.1791
 20
40.2796
 30
0.000000
  70
    32
  0
VERTEX
  8
0
  5
409
 10
-29.4659
 20
39.8405
 30
0.000000
  70
    32
  0
VERTEX
  8
0
  5
40A
 10
-29.7516
 20
39.3969
 30
0.000000
  70
    32
  0
VERTEX
  8
0
  5
40B
 10
-30.0363
 20
38.9486
 30
0.000000
  70
    32
  0
VERTEX
  8
0
  5
40C
 10
-30.3200
 20
38.4957
 30
0.000000
  70
    32
  0
VERTEX
  8
0
  5
40D
 10
-30.6026
 20
38.0382
 30
0.000000
  70
    32
  0
VERTEX
  8
0
  5
40E
 10
-30.8841
 20
37.5760
 30
0.000000
  70
    32
  0
VERTEX
  8
0
  5
40F
 10
-31.1647
 20
37.1093
 30
0.000000
  70
    32
  0
VERTEX
  8
0
  5
410
 10
-31.4442
 20
36.6379
 30
0.000000
  70
    32
  0
VERTEX
  8
0
  5
411
 10
-31.7226
 20
36.1618
 30
0.000000
  70
    32
  0
VERTEX
  8
0
  5
412
 10
-32.0000
 20
35.6811
 30
0.000000
  70
    32
  0
SEQEND
  8
0
  5
413
  0
ARC
  5
10A
  8
0
 10
0.0000000000026557
 20
52.010475539905691
 30
0.0
 40
8.7281470750979047
 50
83.421069082252629
 51
96.578930917738774
  0
POLYLINE
  8
0
  5
414
  66
     1
 10
0.000000
 20
0.000000
 30
0.000000
  70
     8
  0
VERTEX
  8
0
  5
415
 10
32.0000
 20
35.6811
 30
0.000000
  70
    32
  0
VERTEX
  8
0
  5
416
 10
31.7226
 20
36.1618
 30
0.000000
  70
    32
  0
VERTEX
  8
0
  5
417
 10
31.4442
 20
36.6379
 30
0.000000
  70
    32
  0
VERTEX
  8
0
  5
418
 10
31.1647
 20
37.1093
 30
0.000000
  70
    32
  0
VERTEX
  8
0
  5
419
 10
30.8841
 20
37.5760
 30
0.000000
  70
    32
  0
VERTEX
  8
0
  5
41A
 10
30.6026
 20
38.0382
 30
0.000000
  70
    32
  0
VERTEX
  8
0
  5
41B
 10
30.3200
 20
38.4957
 30
0.000000
  70
    32
  0
VERTEX
  8
0
  5
41C
 10
30.0363
 20
38.9486
 30
0.000000
  70
    32
  0
VERTEX
  8
0
  5
41D
 10
29.7516
 20
39.3969
 30
0.000000
  70
    32
  0
VERTEX
  8
0
  5
41E
 10
29.4659
 20
39.8405
 30
0.000000
  70
    32
  0
VERTEX
  8
0
  5
41F
 10
29.1791
 20
40.2796
 30
0.000000
  70
    32
  0
VERTEX
  8
0
  5
420
 10
28.8913
 20
40.7139
 30
0.000000
  70
    32
  0
VERTEX
  8
0
  5
421
 10
28.6025
 20
41.1437
 30
0.000000
  70
    32
  0
VERTEX
  8
0
  5
422
 10
28.3126
 20
41.5688
 30
0.000000
  70
    32
  0
VERTEX
  8
0
  5
423
 10
28.0216
 20
41.9893
 30
0.000000
  70
    32
  0
VERTEX
  8
0
  5
424
 10
27.7297
 20
42.4052
 30
0.000000
  70
    32
  0
VERTEX
  8
0
  5
425
 10
27.4366
 20
42.8165
 30
0.000000
  70
    32
  0
VERTEX
  8
0
  5
426
 10
27.1426
 20
43.2231
 30
0.000000
  70
    32
  0
VERTEX
  8
0
  5
427
 10
26.8475
 20
43.6251
 30
0.000000
  70
    32
  0
VERTEX
  8
0
  5
428
 10
26.5514
 20
44.0224
 30
0.000000
  70
    32
  0
VERTEX
  8
0
  5
429
 10
26.2542
 20
44.4152
 30
0.000000
  70
    32
  0
VERTEX
  8
0
  5
42A
 10
25.9560
 20
44.8033
 30
0.000000
  70
    32
  0
VERTEX
  8
0
  5
42B
 10
25.6567
 20
45.1868
 30
0.000000
  70
    32
  0
VERTEX
  8
0
  5
42C
 10
25.3564
 20
45.5656
 30
0.000000
  70
    32
  0
VERTEX
  8
0
  5
42D
 10
25.0551
 20
45.9399
 30
0.000000
  70
    32
  0
VERTEX
  8
0
  5
42E
 10
24.7527
 20
46.3095
 30
0.000000
  70
    32
  0
VERTEX
  8
0
  5
42F
 10
24.4493
 20
46.6744
 30
0.000000
  70
    32
  0
VERTEX
  8
0
  5
430
 10
24.1448
 20
47.0348
 30
0.000000
  70
    32
  0
VERTEX
  8
0
  5
431
 10
23.8393
 20
47.3905
 30
0.000000
  70
    32
  0
VERTEX
  8
0
  5
432
 10
23.5328
 20
47.7416
 30
0.000000
  70
    32
  0
VERTEX
  8
0
  5
433
 10
23.2252
 20
48.0880
 30
0.000000
  70
    32
  0
VERTEX
  8
0
  5
434
 10
22.9166
 20
48.4299
 30
0.000000
  70
    32
  0
VERTEX
  8
0
  5
435
 10
22.6069
 20
48.7671
 30
0.000000
  70
    32
  0
VERTEX
  8
0
  5
436
 10
22.2962
 20
49.0996
 30
0.000000
  70
    32
  0
VERTEX
  8
0
  5
437
 10
21.9844
 20
49.4276
 30
0.000000
  70
    32
  0
VERTEX
  8
0
  5
438
 10
21.6716
 20
49.7509
 30
0.000000
  70
    32
  0
VERTEX
  8
0
  5
439
 10
21.3578
 20
50.0696
 30
0.000000
  70
    32
  0
VERTEX
  8
0
  5
43A
 10
21.0430
 20
50.3837
 30
0.000000
  70
    32
  0
VERTEX
  8
0
  5
43B
 10
20.7270
 20
50.6931
 30
0.000000
  70
    32
  0
VERTEX
  8
0
  5
43C
 10
20.4101
 20
50.9979
 30
0.000000
  70
    32
  0
VERTEX
  8
0
  5
43D
 10
20.0921
 20
51.2981
 30
0.000000
  70
    32
  0
VERTEX
  8
0
  5
43E
 10
19.7731
 20
51.5936
 30
0.000000
  70
    32
  0
VERTEX
  8
0
  5
43F
 10
19.4530
 20
51.8846
 30
0.000000
  70
    32
  0
VERTEX
  8
0
  5
440
 10
19.1319
 20
52.1709
 30
0.000000
  70
    32
  0
VERTEX
  8
0
  5
441
 10
18.8097
 20
52.4525
 30
0.000000
  70
    32
  0
VERTEX
  8
0
  5
442
 10
18.4865
 20
52.7296
 30
0.000000
  70
    32
  0
VERTEX
  8
0
  5
443
 10
18.1623
 20
53.0020
 30
0.000000
  70
    32
  0
VERTEX
  8
0
  5
444
 10
17.8370
 20
53.2698
 30
0.000000
  70
    32
  0
VERTEX
  8
0
  5
445
 10
17.5107
 20
53.5329
 30
0.000000
  70
    32
  0
VERTEX
  8
0
  5
446
 10
17.1834
 20
53.7915
 30
0.000000
  70
    32
  0
VERTEX
  8
0
  5
447
 10
16.8550
 20
54.0454
 30
0.000000
  70
    32
  0
VERTEX
  8
0
  5
448
 10
16.5255
 20
54.2946
 30
0.000000
  70
    32
  0
VERTEX
  8
0
  5
449
 10
16.1950
 20
54.5393
 30
0.000000
  70
    32
  0
VERTEX
  8
0
  5
44A
 10
15.8635
 20
54.7793
 30
0.000000
  70
    32
  0
VERTEX
  8
0
  5
44B
 10
15.5310
 20
55.0147
 30
0.000000
  70
    32
  0
VERTEX
  8
0
  5
44C
 10
15.1974
 20
55.2455
 30
0.000000
  70
    32
  0
VERTEX
  8
0
  5
44D
 10
14.8627
 20
55.4716
 30
0.000000
  70
    32
  0
VERTEX
  8
0
  5
44E
 10
14.5270
 20
55.6931
 30
0.000000
  70
    32
  0
VERTEX
  8
0
  5
44F
 10
14.1903
 20
55.9100
 30
0.000000
  70
    32
  0
VERTEX
  8
0
  5
450
 10
13.8526
 20
56.1222
 30
0.000000
  70
    32
  0
VERTEX
  8
0
  5
451
 10
13.5138
 20
56.3299
 30
0.000000
  70
    32
  0
VERTEX
  8
0
  5
452
 10
13.1739
 20
56.5329
 30
0.000000
  70
    32
  0
VERTEX
  8
0
  5
453
 10
12.8330
 20
56.7312
 30
0.000000
  70
    32
  0
VERTEX
  8
0
  5
454
 10
12.4911
 20
56.9250
 30
0.000000
  70
    32
  0
VERTEX
  8
0
  5
455
 10
12.1481
 20
57.1141
 30
0.000000
  70
    32
  0
VERTEX
  8
0
  5
456
 10
11.8041
 20
57.2986
 30
0.000000
  70
    32
  0
VERTEX
  8
0
  5
457
 10
11.4591
 20
57.4784
 30
0.000000
  70
    32
  0
VERTEX
  8
0
  5
458
 10
11.1130
 20
57.6536
 30
0.000000
  70
    32
  0
VERTEX
  8
0
  5
459
 10
10.7659
 20
57.8242
 30
0.000000
  70
    32
  0
VERTEX
  8
0
  5
45A
 10
10.4177
 20
57.9902
 30
0.000000
  70
    32
  0
VERTEX
  8
0
  5
45B
 10
10.0685
 20
58.1516
 30
0.000000
  70
    32
  0
VERTEX
  8
0
  5
45C
 10
9.71823
 20
58.3083
 30
0.000000
  70
    32
  0
VERTEX
  8
0
  5
45D
 10
9.36694
 20
58.4604
 30
0.000000
  70
    32
  0
VERTEX
  8
0
  5
45E
 10
9.01460
 20
58.6078
 30
0.000000
  70
    32
  0
VERTEX
  8
0
  5
45F
 10
8.66123
 20
58.7507
 30
0.000000
  70
    32
  0
VERTEX
  8
0
  5
460
 10
8.30682
 20
58.8889
 30
0.000000
  70
    32
  0
VERTEX
  8
0
  5
461
 10
7.95136
 20
59.0224
 30
0.000000
  70
    32
  0
VERTEX
  8
0
  5
462
 10
7.59487
 20
59.1514
 30
0.000000
  70
    32
  0
VERTEX
  8
0
  5
463
 10
7.23733
 20
59.2757
 30
0.000000
  70
    32
  0
VERTEX
  8
0
  5
464
 10
6.87875
 20
59.3954
 30
0.000000
  70
    32
  0
VERTEX
  8
0
  5
465
 10
6.51914
 20
59.5105
 30
0.000000
  70
    32
  0
VERTEX
  8
0
  5
466
 10
6.15848
 20
59.6209
 30
0.000000
  70
    32
  0
VERTEX
  8
0
  5
467
 10
5.79678
 20
59.7267
 30
0.000000
  70
    32
  0
VERTEX
  8
0
  5
468
 10
5.43404
 20
59.8279
 30
0.000000
  70
    32
  0
VERTEX
  8
0
  5
469
 10
5.07026
 20
59.9245
 30
0.000000
  70
    32
  0
VERTEX
  8
0
  5
46A
 10
4.70544
 20
60.0164
 30
0.000000
  70
    32
  0
VERTEX
  8
0
  5
46B
 10
4.33958
 20
60.1037
 30
0.000000
  70
    32
  0
VERTEX
  8
0
  5
46C
 10
3.97268
 20
60.1864
 30
0.000000
  70
    32
  0
VERTEX
  8
0
  5
46D
 10
3.60474
 20
60.2644
 30
0.000000
  70
    32
  0
VERTEX
  8
0
  5
46E
 10
3.23575
 20
60.3378
 30
0.000000
  70
    32
  0
VERTEX
  8
0
  5
46F
 10
2.86573
 20
60.4066
 30
0.000000
  70
    32
  0
VERTEX
  8
0
  5
470
 10
2.49466
 20
60.4708
 30
0.000000
  70
    32
  0
VERTEX
  8
0
  5
471
 10
2.12256
 20
60.5303
 30
0.000000
  70
    32
  0
VERTEX
  8
0
  5
472
 10
1.74941
 20
60.5852
 30
0.000000
  70
    32
  0
VERTEX
  8
0
  5
473
 10
1.37523
 20
60.6355
 30
0.000000
  70
    32
  0
VERTEX
  8
0
  5
474
 10
1.00000
 20
60.6811
 30
0.000000
  70
    32
  0
SEQEND
  8
0
  5
475
  0
LINE
  5
10C
  8
0
 10
-5.0500000000004892
 20
-13.82374192575092
 30
0.0
 11
-19.49999999999995
 21
-13.823741925750619
 31
0.0
  0
LINE
  5
10D
  8
0
 10
5.049999999999244
 20
-13.81396317516144
 30
0.0
 11
19.499999999998639
 21
-13.81396317516208
 31
0.0
  0
LINE
  5
10E
  8
0
 10
5.05000000000011
 20
3.1860368248382378
 30
0.0
 11
19.499999999999499
 21
3.1860368248375992
 31
0.0
  0
LINE
  5
10F
  8
0
 10
-5.0499999999996197
 20
3.1762580742483899
 30
0.0
 11
-19.49999999999908
 21
3.176258074248683
 31
0.0
  0
ENDSEC
  0
EOF
