  0
SECTION
  2
HEADER
  9
$ACADVER
  1
AC1009
  9
$INSBASE
 10
0.0
 20
0.0
 30
0.0
  9
$EXTMIN
 10
0.0
 20
0.0
 30
0.0
  9
$EXTMAX
 10
83.600000529875274
 20
112.41834821983861
 30
0.0
  9
$LIMMIN
 10
0.0
 20
0.0
  9
$LIMMAX
 10
83.600000529875274
 20
112.41834821983861
  9
$ORTHOMODE
 70
     0
  9
$REGENMODE
 70
     1
  9
$FILLMODE
 70
     1
  9
$QTEXTMODE
 70
     0
  9
$MIRRTEXT
 70
     0
  9
$DRAGMODE
 70
     2
  9
$LTSCALE
 40
1.0
  9
$OSMODE
 70
     0
  9
$ATTMODE
 70
     1
  9
$TEXTSIZE
 40
0.2
  9
$TRACEWID
 40
0.05
  9
$TEXTSTYLE
  7
STANDARD
  9
$CLAYER
  8
0
  9
$CELTYPE
  6
BYLAYER
  9
$CECOLOR
 62
   256
  9
$DIMSCALE
 40
1.0
  9
$DIMASZ
 40
1.7999999999999989
  9
$DIMEXO
 40
0.0625
  9
$DIMDLI
 40
0.38
  9
$DIMRND
 40
0.0
  9
$DIMDLE
 40
0.0
  9
$DIMEXE
 40
0.18
  9
$DIMTP
 40
0.0
  9
$DIMTM
 40
0.0
  9
$DIMTXT
 40
1.7999999999999989
  9
$DIMCEN
 40
0.09
  9
$DIMTSZ
 40
0.0
  9
$DIMTOL
 70
     0
  9
$DIMLIM
 70
     0
  9
$DIMTIH
 70
     1
  9
$DIMTOH
 70
     1
  9
$DIMSE1
 70
     0
  9
$DIMSE2
 70
     0
  9
$DIMTAD
 70
     0
  9
$DIMZIN
 70
     0
  9
$DIMBLK
  1

  9
$DIMASO
 70
     1
  9
$DIMSHO
 70
     1
  9
$DIMPOST
  1

  9
$DIMAPOST
  1

  9
$DIMALT
 70
     0
  9
$DIMALTD
 70
     2
  9
$DIMALTF
 40
25.399999999999999
  9
$DIMLFAC
 40
1.0
  9
$DIMTOFL
 70
     0
  9
$DIMTVP
 40
0.0
  9
$DIMTIX
 70
     0
  9
$DIMSOXD
 70
     0
  9
$DIMSAH
 70
     0
  9
$DIMBLK1
  1

  9
$DIMBLK2
  1

  9
$DIMSTYLE
  2
STANDARD
  9
$DIMCLRD
 70
     0
  9
$DIMCLRE
 70
     0
  9
$DIMCLRT
 70
     0
  9
$DIMTFAC
 40
1.0
  9
$DIMGAP
 40
0.09
  9
$LUNITS
 70
     2
  9
$LUPREC
 70
     4
  9
$SKETCHINC
 40
0.1
  9
$FILLETRAD
 40
0.0
  9
$AUNITS
 70
     0
  9
$AUPREC
 70
     0
  9
$MENU
  1
.
  9
$ELEVATION
 40
0.0
  9
$PELEVATION
 40
0.0
  9
$THICKNESS
 40
0.0
  9
$LIMCHECK
 70
     0
  9
$BLIPMODE
 70
     0
  9
$CHAMFERA
 40
0.0
  9
$CHAMFERB
 40
0.0
  9
$SKPOLY
 70
     0
  9
$TDCREATE
 40
2457917.0179337841
  9
$TDUPDATE
 40
2457917.0179337841
  9
$TDINDWG
 40
0.000002338
  9
$TDUSRTIMER
 40
0.000002338
  9
$USRTIMER
 70
     1
  9
$ANGBASE
 50
0.0
  9
$ANGDIR
 70
     0
  9
$PDMODE
 70
     0
  9
$PDSIZE
 40
0.0
  9
$PLINEWID
 40
0.0
  9
$COORDS
 70
     0
  9
$SPLFRAME
 70
     0
  9
$SPLINETYPE
 70
     6
  9
$SPLINESEGS
 70
     8
  9
$ATTDIA
 70
     1
  9
$ATTREQ
 70
     1
  9
$HANDLING
 70
     1
  9
$HANDSEED
  5
4A2
  9
$SURFTAB1
 70
     6
  9
$SURFTAB2
 70
     6
  9
$SURFTYPE
 70
     6
  9
$SURFU
 70
     6
  9
$SURFV
 70
     6
  9
$UCSNAME
  2

  9
$UCSORG
 10
0.0
 20
0.0
 30
0.0
  9
$UCSXDIR
 10
1.0
 20
0.0
 30
0.0
  9
$UCSYDIR
 10
0.0
 20
1.0
 30
0.0
  9
$PUCSNAME
  2

  9
$PUCSORG
 10
0.0
 20
0.0
 30
0.0
  9
$PUCSXDIR
 10
1.0
 20
0.0
 30
0.0
  9
$PUCSYDIR
 10
0.0
 20
1.0
 30
0.0
  9
$USERI1
 70
     0
  9
$USERI2
 70
     0
  9
$USERI3
 70
     0
  9
$USERI4
 70
     0
  9
$USERI5
 70
     0
  9
$USERR1
 40
0.0
  9
$USERR2
 40
0.0
  9
$USERR3
 40
0.0
  9
$USERR4
 40
0.0
  9
$USERR5
 40
0.0
  9
$WORLDVIEW
 70
     1
  9
$SHADEDGE
 70
     3
  9
$SHADEDIF
 70
    70
  9
$TILEMODE
 70
     1
  9
$MAXACTVP
 70
    64
  9
$PLIMCHECK
 70
     0
  9
$PEXTMIN
 10
0.0
 20
0.0
 30
0.0
  9
$PEXTMAX
 10
83.600000529875274
 20
112.41834821983861
 30
0.0
  9
$PLIMMIN
 10
0.0
 20
0.0
  9
$PLIMMAX
 10
83.600000529875274
 20
112.41834821983861
  9
$UNITMODE
 70
     0
  9
$VISRETAIN
 70
     1
  9
$PLINEGEN
 70
     0
  9
$PSLTSCALE
 70
     1
  0
ENDSEC
  0
SECTION
  2
TABLES
  0
TABLE
  2
VPORT
 70
     1
  0
VPORT
  2
*ACTIVE
 70
     0
 10
0.0
 20
0.0
 11
1.0
 21
1.0
 12
-0.0000000000128182
 22
13.57821365603842
 13
0.0
 23
0.0
 14
1.0
 24
1.0
 15
0.0
 25
0.0
 16
0.0
 26
0.0
 36
1.0
 17
0.0
 27
0.0
 37
0.0
 40
112.41834821983861
 41
0.7436508528518149
 42
50.0
 43
0.0
 44
0.0
 50
0.0
 51
0.0
 71
     0
 72
   100
 73
     1
 74
     1
 75
     0
 76
     0
 77
     0
 78
     0
  0
ENDTAB
  0
TABLE
  2
LTYPE
 70
    59
  0
LTYPE
  2
CONTINUOUS
 70
     0
  3
Solid line
 72
    65
 73
     0
 40
0.0
  0
LTYPE
  2
BY_STANDARD
 70
     0
  3
By Standard ____________    ____    ____   _
 72
    65
 73
     6
 40
1.2402999999999991
 49
0.6614
 49
-0.0827
 49
0.1654
 49
-0.0827
 49
0.1654
 49
-0.0827
  0
LTYPE
  2
CHAIN
 70
     0
  3
Chain ____ _ ____ _ ____ _ ____ _ ____ _ ____
 72
    65
 73
     4
 40
0.7087
 49
0.4724000000000001
 49
-0.0591
 49
0.1181
 49
-0.0591
  0
LTYPE
  2
DASH_DOT
 70
     0
  3
Dash dot __ . __ . __ . __ . __ . __ . __ . __
 72
    65
 73
     4
 40
0.37
 49
0.24
 49
-0.06
 49
0.01
 49
-0.06
  0
LTYPE
  2
DOUBLE_DASH_DOT
 70
     0
  3
Double-Dash Dot __ __ . __ __ . __ __ . __ _
 72
    65
 73
     6
 40
0.4398
 49
0.24
 49
-0.06
 49
0.0098
 49
-0.06
 49
0.01
 49
-0.06
  0
LTYPE
  2
DASH_TRIPLE_DOT
 70
     0
  3
Dash Triple-Dot _ . . . _ . . . _ . . . _
 72
    65
 73
     8
 40
0.51
 49
0.24
 49
-0.06
 49
0.01
 49
-0.06
 49
0.01
 49
-0.06
 49
0.01
 49
-0.06
  0
LTYPE
  2
DASHED
 70
     0
  3
Dashed __ __ __ __ __ __ __ __ __ __ __ __ __ _
 72
    65
 73
     2
 40
0.2067
 49
0.1654
 49
-0.0413
  0
LTYPE
  2
DASH_DOUBLE_DOT
 70
     0
  3
Dash Double-Dot __ . . __ . . __ . . __ . .
 72
    65
 73
     6
 40
0.4398
 49
0.24
 49
-0.06
 49
0.0098
 49
-0.06
 49
0.01
 49
-0.06
  0
LTYPE
  2
DASHED_SPACE
 70
     0
  3
Dashed Space __ __ __ __ __ __ __ __ __ __ __ _
 72
    65
 73
     2
 40
0.2067
 49
0.1654
 49
-0.0413
  0
LTYPE
  2
DOTTED
 70
     0
  3
Dotted . . . . . . . . . . . . . . . . . . . . 
 72
    65
 73
     2
 40
0.0482
 49
0.0069
 49
-0.0413
  0
LTYPE
  2
DOUBLE_DASH_CHAIN
 70
     0
  3
Double-Dash Chain ______  __  __  ______  __  _
 72
    65
 73
     6
 40
1.2402999999999991
 49
0.6614
 49
-0.0827
 49
0.1654
 49
-0.0827
 49
0.1654
 49
-0.0827
  0
LTYPE
  2
DOUBLE_DASH_DOUBLE_DOT
 70
     0
  3
Double-Dash Double-dot _ _ . . _ _ . . _
 72
    65
 73
     8
 40
0.7400000000000001
 49
0.24
 49
-0.06
 49
0.24
 49
-0.06
 49
0.01
 49
-0.06
 49
0.01
 49
-0.06
  0
LTYPE
  2
DOUBLE_DASH_TRIPLE_DOT
 70
     0
  3
Double Dash Triple Dot __ __ . . . __ __ . .
 72
    65
 73
    10
 40
0.8100000000000001
 49
0.24
 49
-0.06
 49
0.24
 49
-0.06
 49
0.01
 49
-0.06
 49
0.01
 49
-0.06
 49
0.01
 49
-0.06
  0
LTYPE
  2
LONG_DASH_DOTTED
 70
     0
  3
Long Dash Dotted ____ . ____ . ____ . ____ . _
 72
    65
 73
     4
 40
0.3543
 49
0.2362
 49
-0.0295
 49
0.0591
 49
-0.0295
  0
LTYPE
  2
LONG_DASH_DOUBLE_DOT
 70
     0
  3
Long Dash Double Dot ________  .  .  ________  
 72
    65
 73
     6
 40
0.6799999999999999
 49
0.48
 49
-0.06
 49
0.01
 49
-0.06
 49
0.01
 49
-0.06
  0
LTYPE
  2
LONG_DASH_TRIPLE_DOT
 70
     0
  3
Long Dash Triple Dot ____ ... ____ ... ____
 72
    65
 73
     8
 40
0.3689
 49
0.2362
 49
-0.0295
 49
0.0049
 49
-0.0295
 49
0.0049
 49
-0.0295
 49
0.0049
 49
-0.0295
  0
LTYPE
  2
BORDER
 70
     0
  3
Border __ __ . __ __ . __ __ . __ __ . __ __ .
 72
    65
 73
     6
 40
1.75
 49
0.5
 49
-0.25
 49
0.5
 49
-0.25
 49
0.0
 49
-0.25
  0
LTYPE
  2
BORDER2
 70
     0
  3
Border (.5x) __.__.__.__.__.__.__.__.__.__.__.
 72
    65
 73
     6
 40
0.875
 49
0.25
 49
-0.125
 49
0.25
 49
-0.125
 49
0.0
 49
-0.125
  0
LTYPE
  2
BORDERX2
 70
     0
  3
Border (2x) ____  ____  .  ____  ____  .  ___
 72
    65
 73
     6
 40
3.5
 49
1.0
 49
-0.5
 49
1.0
 49
-0.5
 49
0.0
 49
-0.5
  0
LTYPE
  2
CENTER
 70
     0
  3
Center ____ _ ____ _ ____ _ ____ _ ____ _ ____
 72
    65
 73
     4
 40
2.0
 49
1.25
 49
-0.25
 49
0.25
 49
-0.25
  0
LTYPE
  2
CENTER2
 70
     0
  3
Center (.5x) ___ _ ___ _ ___ _ ___ _ ___ _ ___
 72
    65
 73
     4
 40
1.125
 49
0.75
 49
-0.125
 49
0.125
 49
-0.125
  0
LTYPE
  2
CENTERX2
 70
     0
  3
Center (2x) ________  __  ________  __  _____
 72
    65
 73
     4
 40
4.0
 49
2.5
 49
-0.5
 49
0.5
 49
-0.5
  0
LTYPE
  2
DASHDOT2
 70
     0
  3
Dash dot (.5x) _._._._._._._._._._._._._._._.
 72
    65
 73
     4
 40
0.5
 49
0.25
 49
-0.125
 49
0.0
 49
-0.125
  0
LTYPE
  2
DASHDOTX2
 70
     0
  3
Dash dot (2x) ____  .  ____  .  ____  .  ___
 72
    65
 73
     4
 40
2.0
 49
1.0
 49
-0.5
 49
0.0
 49
-0.5
  0
LTYPE
  2
DASHED2
 70
     0
  3
Dashed (.5x) _ _ _ _ _ _ _ _ _ _ _ _ _ _ _ _ _
 72
    65
 73
     2
 40
0.375
 49
0.25
 49
-0.125
  0
LTYPE
  2
DASHEDX2
 70
     0
  3
Dashed (2x) ____  ____  ____  ____  ____  ___
 72
    65
 73
     2
 40
1.5
 49
1.0
 49
-0.5
  0
LTYPE
  2
DIVIDE
 70
     0
  3
Divide ____ . . ____ . . ____ . . ____ . . ____
 72
    65
 73
     6
 40
1.25
 49
0.5
 49
-0.25
 49
0.0
 49
-0.25
 49
0.0
 49
-0.25
  0
LTYPE
  2
DIVIDE2
 70
     0
  3
Divide (.5x) __..__..__..__..__..__..__..__.._
 72
    65
 73
     6
 40
0.625
 49
0.25
 49
-0.125
 49
0.0
 49
-0.125
 49
0.0
 49
-0.125
  0
LTYPE
  2
DIVIDEX2
 70
     0
  3
Divide (2x) ________  .  .  ________  .  .  _
 72
    65
 73
     6
 40
2.5
 49
1.0
 49
-0.5
 49
0.0
 49
-0.5
 49
0.0
 49
-0.5
  0
LTYPE
  2
DOT
 70
     0
  3
Dot . . . . . . . . . . . . . . . . . . . . . .
 72
    65
 73
     2
 40
0.25
 49
0.0
 49
-0.25
  0
LTYPE
  2
DOT2
 70
     0
  3
Dot (.5x) .....................................
 72
    65
 73
     2
 40
0.125
 49
0.0
 49
-0.125
  0
LTYPE
  2
DOTX2
 70
     0
  3
Dot (2x) .  .  .  .  .  .  .  .  .  .  .  .  . 
 72
    65
 73
     2
 40
0.5
 49
0.0
 49
-0.5
  0
LTYPE
  2
HIDDEN
 70
     0
  3
Hidden __ __ __ __ __ __ __ __ __ __ __ __ __ _
 72
    65
 73
     2
 40
0.375
 49
0.25
 49
-0.125
  0
LTYPE
  2
HIDDEN2
 70
     0
  3
Hidden (.5x) _ _ _ _ _ _ _ _ _ _ _ _ _ _ _ _ _
 72
    65
 73
     2
 40
0.1875
 49
0.125
 49
-0.0625
  0
LTYPE
  2
HIDDENX2
 70
     0
  3
Hidden (2x) ____ ____ ____ ____ ____ ____ ____
 72
    65
 73
     2
 40
0.75
 49
0.5
 49
-0.25
  0
LTYPE
  2
PHANTOM
 70
     0
  3
Phantom ______  __  __  ______  __  __  ______
 72
    65
 73
     6
 40
2.5
 49
1.25
 49
-0.25
 49
0.25
 49
-0.25
 49
0.25
 49
-0.25
  0
LTYPE
  2
PHANTOM2
 70
     0
  3
Phantom (.5x) ___ _ _ ___ _ _ ___ _ _ ___ _ _
 72
    65
 73
     6
 40
1.25
 49
0.625
 49
-0.125
 49
0.125
 49
-0.125
 49
0.125
 49
-0.125
  0
LTYPE
  2
PHANTOMX2
 70
     0
  3
Phantom (2x) ____________    ____    ____   _
 72
    65
 73
     6
 40
5.0
 49
2.5
 49
-0.5
 49
0.5
 49
-0.5
 49
0.5
 49
-0.5
  0
LTYPE
  2
ACAD_ISO02W100
 70
     0
  3
ISO dash __ __ __ __ __ __ __ __ __ __ __ __ __
 72
    65
 73
     2
 40
0.59
 49
0.47
 49
-0.12
  0
LTYPE
  2
ACAD_ISO03W100
 70
     0
  3
ISO dash space __    __    __    __    __    __
 72
    65
 73
     2
 40
1.179999999999999
 49
0.47
 49
-0.71
  0
LTYPE
  2
ACAD_ISO04W100
 70
     0
  3
ISO long-dash dot ____ . ____ . ____ . ____ . _
 72
    65
 73
     4
 40
1.179999999999999
 49
0.9399999999999998
 49
-0.12
 49
0.0
 49
-0.12
  0
LTYPE
  2
ACAD_ISO05W100
 70
     0
  3
ISO long-dash double-dot ____ .. ____ .. ____ .
 72
    65
 73
     6
 40
1.2999999999999989
 49
0.9399999999999998
 49
-0.12
 49
0.0
 49
-0.12
 49
0.0
 49
-0.12
  0
LTYPE
  2
ACAD_ISO06W100
 70
     0
  3
ISO long-dash triple-dot ____ ... ____ ... ____
 72
    65
 73
     8
 40
1.419999999999999
 49
0.9399999999999998
 49
-0.12
 49
0.0
 49
-0.12
 49
0.0
 49
-0.12
 49
0.0
 49
-0.12
  0
LTYPE
  2
ACAD_ISO07W100
 70
     0
  3
ISO dot . . . . . . . . . . . . . . . . . . . .
 72
    65
 73
     2
 40
0.12
 49
0.0
 49
-0.12
  0
LTYPE
  2
ACAD_ISO08W100
 70
     0
  3
ISO long-dash short-dash ____ __ ____ __ ____ _
 72
    65
 73
     4
 40
0.95
 49
0.47
 49
-0.12
 49
0.24
 49
-0.12
  0
LTYPE
  2
ACAD_ISO09W100
 70
     0
  3
ISO long-dash double-short-dash ____ __ __ ____
 72
    65
 73
     6
 40
1.3100000000000001
 49
0.47
 49
-0.12
 49
0.24
 49
-0.12
 49
0.24
 49
-0.12
  0
LTYPE
  2
ACAD_ISO10W100
 70
     0
  3
ISO dash dot __ . __ . __ . __ . __ . __ . __ .
 72
    65
 73
     4
 40
0.71
 49
0.47
 49
-0.12
 49
0.0
 49
-0.12
  0
LTYPE
  2
ACAD_ISO11W100
 70
     0
  3
ISO double-dash dot __ __ . __ __ . __ __ . __ 
 72
    65
 73
     6
 40
1.2999999999999989
 49
0.47
 49
-0.12
 49
0.47
 49
-0.12
 49
0.0
 49
-0.12
  0
LTYPE
  2
ACAD_ISO12W100
 70
     0
  3
ISO dash double-dot __ . . __ . . __ . . __ . .
 72
    65
 73
     6
 40
0.8299999999999999
 49
0.47
 49
-0.12
 49
0.0
 49
-0.12
 49
0.0
 49
-0.12
  0
LTYPE
  2
ACAD_ISO13W100
 70
     0
  3
ISO double-dash double-dot __ __ . . __ __ . . 
 72
    65
 73
     8
 40
1.419999999999999
 49
0.47
 49
-0.12
 49
0.47
 49
-0.12
 49
0.0
 49
-0.12
 49
0.0
 49
-0.12
  0
LTYPE
  2
ACAD_ISO14W100
 70
     0
  3
ISO dash triple-dot __ . . . __ . . . __ . . . 
 72
    65
 73
     8
 40
0.95
 49
0.47
 49
-0.12
 49
0.0
 49
-0.12
 49
0.0
 49
-0.12
 49
0.0
 49
-0.12
  0
LTYPE
  2
ACAD_ISO15W100
 70
     0
  3
ISO double-dash triple-dot __ __ . . . __ __ . 
 72
    65
 73
    10
 40
1.5399999999999989
 49
0.47
 49
-0.12
 49
0.47
 49
-0.12
 49
0.0
 49
-0.12
 49
0.0
 49
-0.12
 49
0.0
 49
-0.12
  0
LTYPE
  2
FENCELINE1
 70
     0
  3
Fenceline circle ----0-----0----0-----0----0---
 72
    65
 73
     4
 40
1.45
 49
0.25
 49
-0.1
 49
-0.1
 49
1.0
  0
LTYPE
  2
FENCELINE2
 70
     0
  3
Fenceline square ----[]-----[]----[]-----[]----
 72
    65
 73
     4
 40
1.45
 49
0.25
 49
-0.1
 49
-0.1
 49
1.0
  0
LTYPE
  2
TRACKS
 70
     0
  3
Tracks -|-|-|-|-|-|-|-|-|-|-|-|-|-|-|-|-|-|-|-|
 72
    65
 73
     2
 40
0.3
 49
0.15
 49
0.15
  0
LTYPE
  2
BATTING
 70
     0
  3
Batting SSSSSSSSSSSSSSSSSSSSSSSSSSSSSSSSSSSSSSS
 72
    65
 73
     4
 40
0.4001000000000001
 49
0.0001
 49
-0.1
 49
-0.2
 49
-0.1
  0
LTYPE
  2
HOT_WATER_SUPPLY
 70
     0
  3
Hot water supply ---- HW ---- HW ---- HW ----
 72
    65
 73
     3
 40
0.9
 49
0.5
 49
-0.2
 49
-0.2
  0
LTYPE
  2
GAS_LINE
 70
     0
  3
Gas line ----GAS----GAS----GAS----GAS----GAS---
 72
    65
 73
     3
 40
0.95
 49
0.5
 49
-0.2
 49
-0.25
  0
LTYPE
  2
ZIGZAG
 70
     0
  3
Zig zag /\/\/\/\/\/\/\/\/\/\/\/\/\/\/\/\/\/\/\/
 72
    65
 73
     4
 40
0.8001000000000001
 49
0.0001
 49
-0.2
 49
-0.4
 49
-0.2
  0
ENDTAB
  0
TABLE
  2
LAYER
 70
     1
  0
LAYER
  2
0
 70
     0
 62
     7
  6
CONTINUOUS
  0
ENDTAB
  0
TABLE
  2
STYLE
 70
     3
  0
STYLE
  2
STANDARD
 70
     0
 40
0.0
 41
1.0
 50
0.0
 71
     0
 42
0.2
  3
txt
  4

  0
STYLE
  2
ANNOTATIVE
 70
     0
 40
0.0
 41
1.0
 50
0.0
 71
     0
 42
0.2
  3
txt
  4

  0
STYLE
  2

 70
     1
 40
0.0
 41
1.0
 50
0.0
 71
     0
 42
0.2
  3
ltypeshp.shx
  4

  0
ENDTAB
  0
TABLE
  2
VIEW
 70
     0
  0
ENDTAB
  0
TABLE
  2
UCS
 70
     0
  0
ENDTAB
  0
TABLE
  2
APPID
 70
     3
  0
APPID
  2
ACAD
 70
     0
  0
APPID
  2
ACADANNOTATIVE
 70
     0
  0
APPID
  2
ACAD_MLEADERVER
 70
     0
  0
ENDTAB
  0
TABLE
  2
DIMSTYLE
 70
     2
  0
DIMSTYLE
  2
STANDARD
 70
     0
  3

  4

  5

  6

  7

 40
1.0
 41
0.18
 42
0.0625
 43
0.38
 44
0.18
 45
0.0
 46
0.0
 47
0.0
 48
0.0
140
0.18
141
0.09
142
0.0
143
25.399999999999999
144
1.0
145
0.0
146
1.0
147
0.09
 71
     0
 72
     0
 73
     1
 74
     1
 75
     0
 76
     0
 77
     0
 78
     0
170
     0
171
     2
172
     0
173
     0
174
     0
175
     0
176
     0
177
     0
178
     0
  0
DIMSTYLE
  2
ANNOTATIVE
 70
     0
  3

  4

  5

  6

  7

 40
1.0
 41
0.18
 42
0.0625
 43
0.38
 44
0.18
 45
0.0
 46
0.0
 47
0.0
 48
0.0
140
0.18
141
0.09
142
0.0
143
25.399999999999999
144
1.0
145
0.0
146
1.0
147
0.09
 71
     0
 72
     0
 73
     1
 74
     1
 75
     0
 76
     0
 77
     0
 78
     0
170
     0
171
     2
172
     0
173
     0
174
     0
175
     0
176
     0
177
     0
178
     0
  0
ENDTAB
  0
ENDSEC
  0
SECTION
  2
BLOCKS
  0
BLOCK
  8
0
  2
$MODEL_SPACE
 70
     0
 10
0.0
 20
0.0
 30
0.0
  3
$MODEL_SPACE
  1

  0
ENDBLK
  5
72
  8
0
  0
BLOCK
 67
     1
  8
0
  2
$PAPER_SPACE
 70
     0
 10
0.0
 20
0.0
 30
0.0
  3
$PAPER_SPACE
  1

  0
ENDBLK
  5
6E
 67
     1
  8
0
  0
ENDSEC
  0
SECTION
  2
ENTITIES
  0
POLYLINE
  5
B6
  8
0
 66
     1
 10
0.0
 20
0.0
 30
0.0
  0
VERTEX
  5
B7
  8
0
 10
32.000000000000867
 20
35.478964703897482
 30
0.0
  0
VERTEX
  5
B8
  8
0
 10
37.704785124731423
 20
22.31407595451774
 30
0.0
  0
VERTEX
  5
BA
  8
0
 10
36.499999999999972
 20
20.47896470389794
 30
0.0
  0
VERTEX
  5
BB
  8
0
 10
23.500000000000352
 20
20.47896470389794
 30
0.0
  0
VERTEX
  5
BC
  8
0
 10
23.499999999997922
 20
-27.521035296100589
 30
0.0
  0
VERTEX
  5
BD
  8
0
 10
31.999999999997659
 20
-27.521035296100589
 30
0.0
  0
VERTEX
  5
BE
  8
0
 10
37.999999999997243
 20
-32.521035296100443
 30
0.0
  0
VERTEX
  5
BF
  8
0
 10
37.999999999996987
 20
-37.521035296100287
 30
0.0
  0
VERTEX
  5
C0
  8
0
 10
23.999999999997399
 20
-37.52103529610028
 30
0.0
  0
VERTEX
  5
C1
  8
0
 10
21.999999999997609
 20
-34.521035296100372
 30
0.0
  0
VERTEX
  5
C2
  8
0
 10
16.999999999997751
 20
-34.521035296100372
 30
0.0
  0
VERTEX
  5
C3
  8
0
 10
14.999999999997639
 20
-37.52103529610028
 30
0.0
  0
VERTEX
  5
C4
  8
0
 10
0.999999999998058
 20
-37.52103529610028
 30
0.0
  0
VERTEX
  5
C5
  8
0
 10
-0.0000000000018013
 20
-35.52103529610033
 30
0.0
  0
VERTEX
  5
C6
  8
0
 10
-1.0000000000018969
 20
-37.521035296100301
 30
0.0
  0
VERTEX
  5
C7
  8
0
 10
-15.00000000000149
 20
-37.521035296100301
 30
0.0
  0
VERTEX
  5
C8
  8
0
 10
-17.000000000001268
 20
-34.521035296100358
 30
0.0
  0
VERTEX
  5
C9
  8
0
 10
-22.000000000001119
 20
-34.521035296100372
 30
0.0
  0
VERTEX
  5
CA
  8
0
 10
-24.000000000001229
 20
-37.521035296100301
 30
0.0
  0
VERTEX
  5
CB
  8
0
 10
-38.000000000000803
 20
-37.521035296100301
 30
0.0
  0
VERTEX
  5
CC
  8
0
 10
-38.000000000000547
 20
-32.521035296100429
 30
0.0
  0
VERTEX
  5
CD
  8
0
 10
-32.000000000000469
 20
-27.521035296100589
 30
0.0
  0
VERTEX
  5
CE
  8
0
 10
-23.500000000000711
 20
-27.521035296100589
 30
0.0
  0
VERTEX
  5
CF
  8
0
 10
-23.499999999998298
 20
20.47896470389794
 30
0.0
  0
VERTEX
  5
D0
  8
0
 10
-36.499999999997918
 20
20.47896470389794
 30
0.0
  0
VERTEX
  5
D1
  8
0
 10
-37.704785124729192
 20
22.31407595451774
 30
0.0
  0
VERTEX
  5
D2
  8
0
 10
-31.999999999997289
 20
35.478964703897468
 30
0.0
  0
SEQEND
  5
B9
  8
0
  0
POLYLINE
  5
D4
  8
0
 66
     1
 10
0.0
 20
0.0
 30
0.0
 70
     1
  0
VERTEX
  5
D5
  8
0
 10
-20.500000000000139
 20
-14.371035296100979
 30
0.0
  0
VERTEX
  5
D6
  8
0
 10
-20.500000000000249
 20
-16.471035296100919
 30
0.0
  0
VERTEX
  5
D8
  8
0
 10
-22.500000000000188
 20
-16.471035296100919
 30
0.0
  0
VERTEX
  5
D9
  8
0
 10
-22.500000000000099
 20
-14.371035296100979
 30
0.0
  0
SEQEND
  5
D7
  8
0
  0
POLYLINE
  5
DA
  8
0
 66
     1
 10
0.0
 20
0.0
 30
0.0
 70
     1
  0
VERTEX
  5
DB
  8
0
 10
22.4999999999986
 20
-14.371035296100979
 30
0.0
  0
VERTEX
  5
DC
  8
0
 10
22.49999999999849
 20
-16.471035296100919
 30
0.0
  0
VERTEX
  5
DE
  8
0
 10
20.49999999999855
 20
-16.471035296100919
 30
0.0
  0
VERTEX
  5
DF
  8
0
 10
20.499999999998661
 20
-14.371035296100979
 30
0.0
  0
SEQEND
  5
DD
  8
0
  0
POLYLINE
  5
E0
  8
0
 66
     1
 10
0.0
 20
0.0
 30
0.0
 70
     1
  0
VERTEX
  5
E1
  8
0
 10
22.499999999999819
 20
9.428964703898286
 30
0.0
  0
VERTEX
  5
E2
  8
0
 10
22.499999999999709
 20
7.3289647038983521
 30
0.0
  0
VERTEX
  5
E4
  8
0
 10
20.499999999999769
 20
7.3289647038983459
 30
0.0
  0
VERTEX
  5
E5
  8
0
 10
20.499999999999869
 20
9.4289647038982753
 30
0.0
  0
SEQEND
  5
E3
  8
0
  0
POLYLINE
  5
E6
  8
0
 66
     1
 10
0.0
 20
0.0
 30
0.0
 70
     1
  0
VERTEX
  5
E7
  8
0
 10
-20.499999999998941
 20
9.428964703898286
 30
0.0
  0
VERTEX
  5
E8
  8
0
 10
-20.499999999999051
 20
7.3289647038983503
 30
0.0
  0
VERTEX
  5
EA
  8
0
 10
-22.49999999999898
 20
7.3289647038983388
 30
0.0
  0
VERTEX
  5
EB
  8
0
 10
-22.499999999998881
 20
9.4289647038982842
 30
0.0
  0
SEQEND
  5
E9
  8
0
  0
POLYLINE
  5
EC
  8
0
 66
     1
 10
0.0
 20
0.0
 30
0.0
 70
     1
  0
VERTEX
  5
ED
  8
0
 10
30.626397413047481
 20
25.92110221612009
 30
0.0
  0
VERTEX
  5
EE
  8
0
 10
32.189231012050492
 20
34.784371993231069
 30
0.0
  0
VERTEX
  5
F0
  8
0
 10
24.310768987951811
 20
36.173557414566908
 30
0.0
  0
VERTEX
  5
F1
  8
0
 10
22.7479353889488
 20
27.310287637455929
 30
0.0
  0
SEQEND
  5
EF
  8
0
  0
POLYLINE
  5
F2
  8
0
 66
     1
 10
0.0
 20
0.0
 30
0.0
 70
     1
  0
VERTEX
  5
F3
  8
0
 10
24.96410161514039
 20
41.978964703898058
 30
0.0
  0
VERTEX
  5
F4
  8
0
 10
18.035898384864161
 20
45.978964703898882
 30
0.0
  0
VERTEX
  5
F6
  8
0
 10
13.53589838486325
 20
38.184736069838038
 30
0.0
  0
VERTEX
  5
F7
  8
0
 10
20.464101615139469
 20
34.1847360698372
 30
0.0
  0
SEQEND
  5
F5
  8
0
  0
POLYLINE
  5
F8
  8
0
 66
     1
 10
0.0
 20
0.0
 30
0.0
 70
     1
  0
VERTEX
  5
F9
  8
0
 10
15.43223672307739
 20
45.00238685161888
 30
0.0
  0
VERTEX
  5
FA
  8
0
 10
14.56776327693
 20
52.955542556175629
 30
0.0
  0
VERTEX
  5
FC
  8
0
 10
5.620463109303615
 20
51.98300992925973
 30
0.0
  0
VERTEX
  5
FD
  8
0
 10
6.4849365554510117
 20
44.029854224702959
 30
0.0
  0
SEQEND
  5
FB
  8
0
  0
POLYLINE
  5
FE
  8
0
 66
     1
 10
0.0
 20
0.0
 30
0.0
 70
     1
  0
VERTEX
  5
FF
  8
0
 10
-5.620463109298627
 20
51.983009929259708
 30
0.0
  0
VERTEX
  5
100
  8
0
 10
-14.56776327692481
 20
52.955542556175601
 30
0.0
  0
VERTEX
  5
102
  8
0
 10
-15.4322367230724
 20
45.00238685161888
 30
0.0
  0
VERTEX
  5
103
  8
0
 10
-6.4849365554462413
 20
44.029854224703001
 30
0.0
  0
SEQEND
  5
101
  8
0
  0
POLYLINE
  5
104
  8
0
 66
     1
 10
0.0
 20
0.0
 30
0.0
 70
     1
  0
VERTEX
  5
105
  8
0
 10
-20.464101615136151
 20
34.184736069837491
 30
0.0
  0
VERTEX
  5
106
  8
0
 10
-13.5358983848595
 20
38.184736069837903
 30
0.0
  0
VERTEX
  5
108
  8
0
 10
-18.035898384859809
 20
45.978964703899052
 30
0.0
  0
VERTEX
  5
109
  8
0
 10
-24.96410161513645
 20
41.97896470389864
 30
0.0
  0
SEQEND
  5
107
  8
0
  0
POLYLINE
  5
10A
  8
0
 66
     1
 10
0.0
 20
0.0
 30
0.0
 70
     1
  0
VERTEX
  5
10B
  8
0
 10
-24.310768987948322
 20
36.17355741456673
 30
0.0
  0
VERTEX
  5
10C
  8
0
 10
-32.189231012047067
 20
34.784371993231431
 30
0.0
  0
VERTEX
  5
10E
  8
0
 10
-30.62639741304492
 20
25.921102216120389
 30
0.0
  0
VERTEX
  5
10F
  8
0
 10
-22.7479353889462
 20
27.310287637455701
 30
0.0
  0
SEQEND
  5
10D
  8
0
  0
LINE
  5
110
  8
0
 10
19.500000000000391
 20
18.47896470389821
 30
0.0
 11
19.49999999999817
 21
-25.52103529610115
 31
0.0
  0
LINE
  5
111
  8
0
 10
-19.500000000000671
 20
-25.521035296100472
 30
0.0
 11
-19.49999999999844
 21
18.478964703897919
 31
0.0
  0
LINE
  5
112
  8
0
 10
-5.0500000000003702
 20
-12.02103529610118
 30
0.0
 11
-19.499999999999901
 21
-12.02103529610088
 31
0.0
  0
LINE
  5
113
  8
0
 10
5.0499999999994758
 20
-12.021035296100679
 30
0.0
 11
19.499999999998948
 21
-12.02103529610133
 31
0.0
  0
LINE
  5
114
  8
0
 10
5.0500000000003364
 20
4.9789647038990781
 30
0.0
 11
19.499999999999812
 21
4.9789647038984288
 31
0.0
  0
LINE
  5
115
  8
0
 10
-5.0499999999995024
 20
4.9789647038981926
 30
0.0
 11
-19.49999999999903
 21
4.9789647038984901
 31
0.0
  0
CIRCLE
  5
116
  8
0
 10
0.0000000000017764
 20
23.478964703897539
 30
0.0
 40
15.999999999999799
  0
CIRCLE
  5
117
  8
0
 10
-21.499999999998749
 20
12.4789647038982
 30
0.0
 40
1.0499999999999701
  0
CIRCLE
  5
118
  8
0
 10
-21.50000000000038
 20
-19.521035296100809
 30
0.0
 40
1.049999999999967
  0
CIRCLE
  5
119
  8
0
 10
21.499999999999979
 20
12.478964703898169
 30
0.0
 40
1.0499999999999681
  0
CIRCLE
  5
11A
  8
0
 10
21.499999999998359
 20
-19.52103529610083
 30
0.0
 40
1.049999999999969
  0
LINE
  5
11B
  8
0
 10
2.5000000000003459
 20
8.4789647038983151
 30
0.0
 11
-2.4999999999995022
 21
8.4789647038983151
 31
0.0
  0
POLYLINE
  8
0
  5
196
  66
     1
 10
0.000000
 20
0.000000
 30
0.000000
  70
     8
  0
VERTEX
  8
0
  5
197
 10
1.00000
 20
17.4790
 30
0.000000
  70
    32
  0
VERTEX
  8
0
  5
198
 10
0.972103
 20
17.4138
 30
0.000000
  70
    32
  0
VERTEX
  8
0
  5
199
 10
0.945135
 20
17.3479
 30
0.000000
  70
    32
  0
VERTEX
  8
0
  5
19A
 10
0.919097
 20
17.2814
 30
0.000000
  70
    32
  0
VERTEX
  8
0
  5
19B
 10
0.893988
 20
17.2143
 30
0.000000
  70
    32
  0
VERTEX
  8
0
  5
19C
 10
0.869809
 20
17.1466
 30
0.000000
  70
    32
  0
VERTEX
  8
0
  5
19D
 10
0.846559
 20
17.0783
 30
0.000000
  70
    32
  0
VERTEX
  8
0
  5
19E
 10
0.824239
 20
17.0093
 30
0.000000
  70
    32
  0
VERTEX
  8
0
  5
19F
 10
0.802848
 20
16.9397
 30
0.000000
  70
    32
  0
VERTEX
  8
0
  5
1A0
 10
0.782387
 20
16.8694
 30
0.000000
  70
    32
  0
VERTEX
  8
0
  5
1A1
 10
0.762855
 20
16.7986
 30
0.000000
  70
    32
  0
VERTEX
  8
0
  5
1A2
 10
0.744253
 20
16.7271
 30
0.000000
  70
    32
  0
VERTEX
  8
0
  5
1A3
 10
0.726580
 20
16.6550
 30
0.000000
  70
    32
  0
VERTEX
  8
0
  5
1A4
 10
0.709837
 20
16.5822
 30
0.000000
  70
    32
  0
VERTEX
  8
0
  5
1A5
 10
0.694023
 20
16.5088
 30
0.000000
  70
    32
  0
VERTEX
  8
0
  5
1A6
 10
0.679139
 20
16.4348
 30
0.000000
  70
    32
  0
VERTEX
  8
0
  5
1A7
 10
0.665184
 20
16.3602
 30
0.000000
  70
    32
  0
VERTEX
  8
0
  5
1A8
 10
0.652159
 20
16.2849
 30
0.000000
  70
    32
  0
VERTEX
  8
0
  5
1A9
 10
0.640063
 20
16.2090
 30
0.000000
  70
    32
  0
VERTEX
  8
0
  5
1AA
 10
0.628897
 20
16.1325
 30
0.000000
  70
    32
  0
VERTEX
  8
0
  5
1AB
 10
0.618660
 20
16.0554
 30
0.000000
  70
    32
  0
VERTEX
  8
0
  5
1AC
 10
0.609353
 20
15.9776
 30
0.000000
  70
    32
  0
VERTEX
  8
0
  5
1AD
 10
0.600975
 20
15.8992
 30
0.000000
  70
    32
  0
VERTEX
  8
0
  5
1AE
 10
0.593527
 20
15.8201
 30
0.000000
  70
    32
  0
VERTEX
  8
0
  5
1AF
 10
0.587009
 20
15.7405
 30
0.000000
  70
    32
  0
VERTEX
  8
0
  5
1B0
 10
0.581419
 20
15.6602
 30
0.000000
  70
    32
  0
VERTEX
  8
0
  5
1B1
 10
0.576760
 20
15.5793
 30
0.000000
  70
    32
  0
VERTEX
  8
0
  5
1B2
 10
0.573030
 20
15.4977
 30
0.000000
  70
    32
  0
VERTEX
  8
0
  5
1B3
 10
0.570229
 20
15.4156
 30
0.000000
  70
    32
  0
VERTEX
  8
0
  5
1B4
 10
0.568358
 20
15.3328
 30
0.000000
  70
    32
  0
VERTEX
  8
0
  5
1B5
 10
0.567416
 20
15.2493
 30
0.000000
  70
    32
  0
VERTEX
  8
0
  5
1B6
 10
0.567404
 20
15.1653
 30
0.000000
  70
    32
  0
VERTEX
  8
0
  5
1B7
 10
0.568322
 20
15.0806
 30
0.000000
  70
    32
  0
VERTEX
  8
0
  5
1B8
 10
0.570168
 20
14.9953
 30
0.000000
  70
    32
  0
VERTEX
  8
0
  5
1B9
 10
0.572945
 20
14.9093
 30
0.000000
  70
    32
  0
VERTEX
  8
0
  5
1BA
 10
0.576651
 20
14.8228
 30
0.000000
  70
    32
  0
VERTEX
  8
0
  5
1BB
 10
0.581286
 20
14.7356
 30
0.000000
  70
    32
  0
VERTEX
  8
0
  5
1BC
 10
0.586851
 20
14.6477
 30
0.000000
  70
    32
  0
VERTEX
  8
0
  5
1BD
 10
0.593345
 20
14.5593
 30
0.000000
  70
    32
  0
VERTEX
  8
0
  5
1BE
 10
0.600769
 20
14.4702
 30
0.000000
  70
    32
  0
VERTEX
  8
0
  5
1BF
 10
0.609123
 20
14.3805
 30
0.000000
  70
    32
  0
VERTEX
  8
0
  5
1C0
 10
0.618406
 20
14.2901
 30
0.000000
  70
    32
  0
VERTEX
  8
0
  5
1C1
 10
0.628618
 20
14.1992
 30
0.000000
  70
    32
  0
VERTEX
  8
0
  5
1C2
 10
0.639760
 20
14.1076
 30
0.000000
  70
    32
  0
VERTEX
  8
0
  5
1C3
 10
0.651832
 20
14.0154
 30
0.000000
  70
    32
  0
VERTEX
  8
0
  5
1C4
 10
0.664833
 20
13.9225
 30
0.000000
  70
    32
  0
VERTEX
  8
0
  5
1C5
 10
0.678763
 20
13.8290
 30
0.000000
  70
    32
  0
VERTEX
  8
0
  5
1C6
 10
0.693623
 20
13.7349
 30
0.000000
  70
    32
  0
VERTEX
  8
0
  5
1C7
 10
0.709412
 20
13.6402
 30
0.000000
  70
    32
  0
VERTEX
  8
0
  5
1C8
 10
0.726131
 20
13.5448
 30
0.000000
  70
    32
  0
VERTEX
  8
0
  5
1C9
 10
0.743780
 20
13.4488
 30
0.000000
  70
    32
  0
VERTEX
  8
0
  5
1CA
 10
0.762358
 20
13.3522
 30
0.000000
  70
    32
  0
VERTEX
  8
0
  5
1CB
 10
0.781865
 20
13.2550
 30
0.000000
  70
    32
  0
VERTEX
  8
0
  5
1CC
 10
0.802302
 20
13.1571
 30
0.000000
  70
    32
  0
VERTEX
  8
0
  5
1CD
 10
0.823669
 20
13.0586
 30
0.000000
  70
    32
  0
VERTEX
  8
0
  5
1CE
 10
0.845965
 20
12.9594
 30
0.000000
  70
    32
  0
VERTEX
  8
0
  5
1CF
 10
0.869190
 20
12.8597
 30
0.000000
  70
    32
  0
VERTEX
  8
0
  5
1D0
 10
0.893345
 20
12.7593
 30
0.000000
  70
    32
  0
VERTEX
  8
0
  5
1D1
 10
0.918430
 20
12.6583
 30
0.000000
  70
    32
  0
VERTEX
  8
0
  5
1D2
 10
0.944444
 20
12.5566
 30
0.000000
  70
    32
  0
VERTEX
  8
0
  5
1D3
 10
0.971388
 20
12.4543
 30
0.000000
  70
    32
  0
VERTEX
  8
0
  5
1D4
 10
0.999261
 20
12.3514
 30
0.000000
  70
    32
  0
VERTEX
  8
0
  5
1D5
 10
1.02806
 20
12.2479
 30
0.000000
  70
    32
  0
VERTEX
  8
0
  5
1D6
 10
1.05780
 20
12.1437
 30
0.000000
  70
    32
  0
VERTEX
  8
0
  5
1D7
 10
1.08846
 20
12.0390
 30
0.000000
  70
    32
  0
VERTEX
  8
0
  5
1D8
 10
1.12005
 20
11.9335
 30
0.000000
  70
    32
  0
VERTEX
  8
0
  5
1D9
 10
1.15257
 20
11.8275
 30
0.000000
  70
    32
  0
VERTEX
  8
0
  5
1DA
 10
1.18602
 20
11.7208
 30
0.000000
  70
    32
  0
VERTEX
  8
0
  5
1DB
 10
1.22040
 20
11.6135
 30
0.000000
  70
    32
  0
VERTEX
  8
0
  5
1DC
 10
1.25571
 20
11.5056
 30
0.000000
  70
    32
  0
VERTEX
  8
0
  5
1DD
 10
1.29195
 20
11.3970
 30
0.000000
  70
    32
  0
VERTEX
  8
0
  5
1DE
 10
1.32911
 20
11.2879
 30
0.000000
  70
    32
  0
VERTEX
  8
0
  5
1DF
 10
1.36721
 20
11.1780
 30
0.000000
  70
    32
  0
VERTEX
  8
0
  5
1E0
 10
1.40624
 20
11.0676
 30
0.000000
  70
    32
  0
VERTEX
  8
0
  5
1E1
 10
1.44620
 20
10.9565
 30
0.000000
  70
    32
  0
VERTEX
  8
0
  5
1E2
 10
1.48708
 20
10.8448
 30
0.000000
  70
    32
  0
VERTEX
  8
0
  5
1E3
 10
1.52890
 20
10.7325
 30
0.000000
  70
    32
  0
VERTEX
  8
0
  5
1E4
 10
1.57164
 20
10.6196
 30
0.000000
  70
    32
  0
VERTEX
  8
0
  5
1E5
 10
1.61532
 20
10.5060
 30
0.000000
  70
    32
  0
VERTEX
  8
0
  5
1E6
 10
1.65992
 20
10.3918
 30
0.000000
  70
    32
  0
VERTEX
  8
0
  5
1E7
 10
1.70545
 20
10.2769
 30
0.000000
  70
    32
  0
VERTEX
  8
0
  5
1E8
 10
1.75192
 20
10.1615
 30
0.000000
  70
    32
  0
VERTEX
  8
0
  5
1E9
 10
1.79931
 20
10.0454
 30
0.000000
  70
    32
  0
VERTEX
  8
0
  5
1EA
 10
1.84763
 20
9.92864
 30
0.000000
  70
    32
  0
VERTEX
  8
0
  5
1EB
 10
1.89688
 20
9.81129
 30
0.000000
  70
    32
  0
VERTEX
  8
0
  5
1EC
 10
1.94707
 20
9.69331
 30
0.000000
  70
    32
  0
VERTEX
  8
0
  5
1ED
 10
1.99818
 20
9.57470
 30
0.000000
  70
    32
  0
VERTEX
  8
0
  5
1EE
 10
2.05022
 20
9.45547
 30
0.000000
  70
    32
  0
VERTEX
  8
0
  5
1EF
 10
2.10319
 20
9.33560
 30
0.000000
  70
    32
  0
VERTEX
  8
0
  5
1F0
 10
2.15709
 20
9.21511
 30
0.000000
  70
    32
  0
VERTEX
  8
0
  5
1F1
 10
2.21191
 20
9.09399
 30
0.000000
  70
    32
  0
VERTEX
  8
0
  5
1F2
 10
2.26767
 20
8.97224
 30
0.000000
  70
    32
  0
VERTEX
  8
0
  5
1F3
 10
2.32436
 20
8.84986
 30
0.000000
  70
    32
  0
VERTEX
  8
0
  5
1F4
 10
2.38198
 20
8.72686
 30
0.000000
  70
    32
  0
VERTEX
  8
0
  5
1F5
 10
2.44052
 20
8.60323
 30
0.000000
  70
    32
  0
VERTEX
  8
0
  5
1F6
 10
2.50000
 20
8.47896
 30
0.000000
  70
    32
  0
SEQEND
  8
0
  5
1F7
  0
POLYLINE
  8
0
  5
1F8
  66
     1
 10
0.000000
 20
0.000000
 30
0.000000
  70
     8
  0
VERTEX
  8
0
  5
1F9
 10
1.91850e-012
 20
38.4790
 30
0.000000
  70
    32
  0
VERTEX
  8
0
  5
1FA
 10
0.0651618
 20
38.2938
 30
0.000000
  70
    32
  0
VERTEX
  8
0
  5
1FB
 10
0.135751
 20
38.1104
 30
0.000000
  70
    32
  0
VERTEX
  8
0
  5
1FC
 10
0.211629
 20
37.9287
 30
0.000000
  70
    32
  0
VERTEX
  8
0
  5
1FD
 10
0.292659
 20
37.7487
 30
0.000000
  70
    32
  0
VERTEX
  8
0
  5
1FE
 10
0.378706
 20
37.5702
 30
0.000000
  70
    32
  0
VERTEX
  8
0
  5
1FF
 10
0.469633
 20
37.3934
 30
0.000000
  70
    32
  0
VERTEX
  8
0
  5
200
 10
0.565308
 20
37.2181
 30
0.000000
  70
    32
  0
VERTEX
  8
0
  5
201
 10
0.665596
 20
37.0443
 30
0.000000
  70
    32
  0
VERTEX
  8
0
  5
202
 10
0.770365
 20
36.8720
 30
0.000000
  70
    32
  0
VERTEX
  8
0
  5
203
 10
0.879483
 20
36.7010
 30
0.000000
  70
    32
  0
VERTEX
  8
0
  5
204
 10
0.992819
 20
36.5314
 30
0.000000
  70
    32
  0
VERTEX
  8
0
  5
205
 10
1.11024
 20
36.3632
 30
0.000000
  70
    32
  0
VERTEX
  8
0
  5
206
 10
1.23163
 20
36.1962
 30
0.000000
  70
    32
  0
VERTEX
  8
0
  5
207
 10
1.35684
 20
36.0304
 30
0.000000
  70
    32
  0
VERTEX
  8
0
  5
208
 10
1.48576
 20
35.8659
 30
0.000000
  70
    32
  0
VERTEX
  8
0
  5
209
 10
1.61826
 20
35.7025
 30
0.000000
  70
    32
  0
VERTEX
  8
0
  5
20A
 10
1.75421
 20
35.5402
 30
0.000000
  70
    32
  0
VERTEX
  8
0
  5
20B
 10
1.89348
 20
35.3790
 30
0.000000
  70
    32
  0
VERTEX
  8
0
  5
20C
 10
2.03596
 20
35.2189
 30
0.000000
  70
    32
  0
VERTEX
  8
0
  5
20D
 10
2.18151
 20
35.0597
 30
0.000000
  70
    32
  0
VERTEX
  8
0
  5
20E
 10
2.33003
 20
34.9015
 30
0.000000
  70
    32
  0
VERTEX
  8
0
  5
20F
 10
2.48138
 20
34.7442
 30
0.000000
  70
    32
  0
VERTEX
  8
0
  5
210
 10
2.63545
 20
34.5878
 30
0.000000
  70
    32
  0
VERTEX
  8
0
  5
211
 10
2.79211
 20
34.4322
 30
0.000000
  70
    32
  0
VERTEX
  8
0
  5
212
 10
2.95125
 20
34.2774
 30
0.000000
  70
    32
  0
VERTEX
  8
0
  5
213
 10
3.11275
 20
34.1234
 30
0.000000
  70
    32
  0
VERTEX
  8
0
  5
214
 10
3.27649
 20
33.9701
 30
0.000000
  70
    32
  0
VERTEX
  8
0
  5
215
 10
3.44236
 20
33.8175
 30
0.000000
  70
    32
  0
VERTEX
  8
0
  5
216
 10
3.61025
 20
33.6655
 30
0.000000
  70
    32
  0
VERTEX
  8
0
  5
217
 10
3.78002
 20
33.5142
 30
0.000000
  70
    32
  0
VERTEX
  8
0
  5
218
 10
3.95159
 20
33.3634
 30
0.000000
  70
    32
  0
VERTEX
  8
0
  5
219
 10
4.12482
 20
33.2132
 30
0.000000
  70
    32
  0
VERTEX
  8
0
  5
21A
 10
4.29961
 20
33.0635
 30
0.000000
  70
    32
  0
VERTEX
  8
0
  5
21B
 10
4.47585
 20
32.9142
 30
0.000000
  70
    32
  0
VERTEX
  8
0
  5
21C
 10
4.65343
 20
32.7654
 30
0.000000
  70
    32
  0
VERTEX
  8
0
  5
21D
 10
4.83224
 20
32.6170
 30
0.000000
  70
    32
  0
VERTEX
  8
0
  5
21E
 10
5.01217
 20
32.4690
 30
0.000000
  70
    32
  0
VERTEX
  8
0
  5
21F
 10
5.19311
 20
32.3213
 30
0.000000
  70
    32
  0
VERTEX
  8
0
  5
220
 10
5.37495
 20
32.1739
 30
0.000000
  70
    32
  0
VERTEX
  8
0
  5
221
 10
5.55760
 20
32.0267
 30
0.000000
  70
    32
  0
VERTEX
  8
0
  5
222
 10
5.74095
 20
31.8798
 30
0.000000
  70
    32
  0
VERTEX
  8
0
  5
223
 10
5.92488
 20
31.7331
 30
0.000000
  70
    32
  0
VERTEX
  8
0
  5
224
 10
6.10931
 20
31.5865
 30
0.000000
  70
    32
  0
VERTEX
  8
0
  5
225
 10
6.29412
 20
31.4401
 30
0.000000
  70
    32
  0
VERTEX
  8
0
  5
226
 10
6.47922
 20
31.2938
 30
0.000000
  70
    32
  0
VERTEX
  8
0
  5
227
 10
6.66450
 20
31.1476
 30
0.000000
  70
    32
  0
VERTEX
  8
0
  5
228
 10
6.84987
 20
31.0013
 30
0.000000
  70
    32
  0
VERTEX
  8
0
  5
229
 10
7.03522
 20
30.8551
 30
0.000000
  70
    32
  0
VERTEX
  8
0
  5
22A
 10
7.22046
 20
30.7089
 30
0.000000
  70
    32
  0
VERTEX
  8
0
  5
22B
 10
7.40549
 20
30.5626
 30
0.000000
  70
    32
  0
VERTEX
  8
0
  5
22C
 10
7.59022
 20
30.4162
 30
0.000000
  70
    32
  0
VERTEX
  8
0
  5
22D
 10
7.77455
 20
30.2698
 30
0.000000
  70
    32
  0
VERTEX
  8
0
  5
22E
 10
7.95838
 20
30.1231
 30
0.000000
  70
    32
  0
VERTEX
  8
0
  5
22F
 10
8.14162
 20
29.9763
 30
0.000000
  70
    32
  0
VERTEX
  8
0
  5
230
 10
8.32418
 20
29.8293
 30
0.000000
  70
    32
  0
VERTEX
  8
0
  5
231
 10
8.50597
 20
29.6820
 30
0.000000
  70
    32
  0
VERTEX
  8
0
  5
232
 10
8.68690
 20
29.5345
 30
0.000000
  70
    32
  0
VERTEX
  8
0
  5
233
 10
8.86687
 20
29.3867
 30
0.000000
  70
    32
  0
VERTEX
  8
0
  5
234
 10
9.04580
 20
29.2386
 30
0.000000
  70
    32
  0
VERTEX
  8
0
  5
235
 10
9.22359
 20
29.0902
 30
0.000000
  70
    32
  0
VERTEX
  8
0
  5
236
 10
9.40017
 20
28.9413
 30
0.000000
  70
    32
  0
VERTEX
  8
0
  5
237
 10
9.57544
 20
28.7921
 30
0.000000
  70
    32
  0
VERTEX
  8
0
  5
238
 10
9.74932
 20
28.6424
 30
0.000000
  70
    32
  0
VERTEX
  8
0
  5
239
 10
9.92172
 20
28.4923
 30
0.000000
  70
    32
  0
VERTEX
  8
0
  5
23A
 10
10.0926
 20
28.3417
 30
0.000000
  70
    32
  0
VERTEX
  8
0
  5
23B
 10
10.2618
 20
28.1907
 30
0.000000
  70
    32
  0
VERTEX
  8
0
  5
23C
 10
10.4292
 20
28.0390
 30
0.000000
  70
    32
  0
VERTEX
  8
0
  5
23D
 10
10.5949
 20
27.8869
 30
0.000000
  70
    32
  0
VERTEX
  8
0
  5
23E
 10
10.7587
 20
27.7341
 30
0.000000
  70
    32
  0
VERTEX
  8
0
  5
23F
 10
10.9205
 20
27.5807
 30
0.000000
  70
    32
  0
VERTEX
  8
0
  5
240
 10
11.0802
 20
27.4268
 30
0.000000
  70
    32
  0
VERTEX
  8
0
  5
241
 10
11.2379
 20
27.2721
 30
0.000000
  70
    32
  0
VERTEX
  8
0
  5
242
 10
11.3933
 20
27.1168
 30
0.000000
  70
    32
  0
VERTEX
  8
0
  5
243
 10
11.5464
 20
26.9608
 30
0.000000
  70
    32
  0
VERTEX
  8
0
  5
244
 10
11.6972
 20
26.8041
 30
0.000000
  70
    32
  0
VERTEX
  8
0
  5
245
 10
11.8456
 20
26.6466
 30
0.000000
  70
    32
  0
VERTEX
  8
0
  5
246
 10
11.9915
 20
26.4883
 30
0.000000
  70
    32
  0
VERTEX
  8
0
  5
247
 10
12.1347
 20
26.3293
 30
0.000000
  70
    32
  0
VERTEX
  8
0
  5
248
 10
12.2754
 20
26.1695
 30
0.000000
  70
    32
  0
VERTEX
  8
0
  5
249
 10
12.4133
 20
26.0088
 30
0.000000
  70
    32
  0
VERTEX
  8
0
  5
24A
 10
12.5484
 20
25.8473
 30
0.000000
  70
    32
  0
VERTEX
  8
0
  5
24B
 10
12.6807
 20
25.6849
 30
0.000000
  70
    32
  0
VERTEX
  8
0
  5
24C
 10
12.8101
 20
25.5216
 30
0.000000
  70
    32
  0
VERTEX
  8
0
  5
24D
 10
12.9364
 20
25.3573
 30
0.000000
  70
    32
  0
VERTEX
  8
0
  5
24E
 10
13.0597
 20
25.1922
 30
0.000000
  70
    32
  0
VERTEX
  8
0
  5
24F
 10
13.1799
 20
25.0261
 30
0.000000
  70
    32
  0
VERTEX
  8
0
  5
250
 10
13.2969
 20
24.8590
 30
0.000000
  70
    32
  0
VERTEX
  8
0
  5
251
 10
13.4106
 20
24.6909
 30
0.000000
  70
    32
  0
VERTEX
  8
0
  5
252
 10
13.5210
 20
24.5219
 30
0.000000
  70
    32
  0
VERTEX
  8
0
  5
253
 10
13.6280
 20
24.3517
 30
0.000000
  70
    32
  0
VERTEX
  8
0
  5
254
 10
13.7316
 20
24.1806
 30
0.000000
  70
    32
  0
VERTEX
  8
0
  5
255
 10
13.8317
 20
24.0084
 30
0.000000
  70
    32
  0
VERTEX
  8
0
  5
256
 10
13.9282
 20
23.8350
 30
0.000000
  70
    32
  0
VERTEX
  8
0
  5
257
 10
14.0210
 20
23.6606
 30
0.000000
  70
    32
  0
VERTEX
  8
0
  5
258
 10
14.1103
 20
23.4851
 30
0.000000
  70
    32
  0
VERTEX
  8
0
  5
259
 10
14.1957
 20
23.3085
 30
0.000000
  70
    32
  0
VERTEX
  8
0
  5
25A
 10
14.2774
 20
23.1307
 30
0.000000
  70
    32
  0
VERTEX
  8
0
  5
25B
 10
14.3552
 20
22.9518
 30
0.000000
  70
    32
  0
VERTEX
  8
0
  5
25C
 10
14.4291
 20
22.7718
 30
0.000000
  70
    32
  0
VERTEX
  8
0
  5
25D
 10
14.4991
 20
22.5907
 30
0.000000
  70
    32
  0
VERTEX
  8
0
  5
25E
 10
14.5651
 20
22.4085
 30
0.000000
  70
    32
  0
VERTEX
  8
0
  5
25F
 10
14.6270
 20
22.2253
 30
0.000000
  70
    32
  0
VERTEX
  8
0
  5
260
 10
14.6848
 20
22.0410
 30
0.000000
  70
    32
  0
VERTEX
  8
0
  5
261
 10
14.7385
 20
21.8557
 30
0.000000
  70
    32
  0
VERTEX
  8
0
  5
262
 10
14.7879
 20
21.6694
 30
0.000000
  70
    32
  0
VERTEX
  8
0
  5
263
 10
14.8332
 20
21.4822
 30
0.000000
  70
    32
  0
VERTEX
  8
0
  5
264
 10
14.8741
 20
21.2941
 30
0.000000
  70
    32
  0
VERTEX
  8
0
  5
265
 10
14.9107
 20
21.1052
 30
0.000000
  70
    32
  0
VERTEX
  8
0
  5
266
 10
14.9429
 20
20.9155
 30
0.000000
  70
    32
  0
VERTEX
  8
0
  5
267
 10
14.9708
 20
20.7250
 30
0.000000
  70
    32
  0
VERTEX
  8
0
  5
268
 10
14.9941
 20
20.5339
 30
0.000000
  70
    32
  0
VERTEX
  8
0
  5
269
 10
15.0130
 20
20.3422
 30
0.000000
  70
    32
  0
VERTEX
  8
0
  5
26A
 10
15.0273
 20
20.1500
 30
0.000000
  70
    32
  0
VERTEX
  8
0
  5
26B
 10
15.0371
 20
19.9574
 30
0.000000
  70
    32
  0
VERTEX
  8
0
  5
26C
 10
15.0423
 20
19.7643
 30
0.000000
  70
    32
  0
VERTEX
  8
0
  5
26D
 10
15.0429
 20
19.5710
 30
0.000000
  70
    32
  0
VERTEX
  8
0
  5
26E
 10
15.0388
 20
19.3776
 30
0.000000
  70
    32
  0
VERTEX
  8
0
  5
26F
 10
15.0299
 20
19.1840
 30
0.000000
  70
    32
  0
VERTEX
  8
0
  5
270
 10
15.0164
 20
18.9905
 30
0.000000
  70
    32
  0
VERTEX
  8
0
  5
271
 10
14.9981
 20
18.7971
 30
0.000000
  70
    32
  0
VERTEX
  8
0
  5
272
 10
14.9750
 20
18.6039
 30
0.000000
  70
    32
  0
VERTEX
  8
0
  5
273
 10
14.9471
 20
18.4111
 30
0.000000
  70
    32
  0
VERTEX
  8
0
  5
274
 10
14.9144
 20
18.2188
 30
0.000000
  70
    32
  0
VERTEX
  8
0
  5
275
 10
14.8768
 20
18.0270
 30
0.000000
  70
    32
  0
VERTEX
  8
0
  5
276
 10
14.8343
 20
17.8360
 30
0.000000
  70
    32
  0
VERTEX
  8
0
  5
277
 10
14.7868
 20
17.6459
 30
0.000000
  70
    32
  0
VERTEX
  8
0
  5
278
 10
14.7345
 20
17.4567
 30
0.000000
  70
    32
  0
VERTEX
  8
0
  5
279
 10
14.6772
 20
17.2687
 30
0.000000
  70
    32
  0
VERTEX
  8
0
  5
27A
 10
14.6149
 20
17.0820
 30
0.000000
  70
    32
  0
VERTEX
  8
0
  5
27B
 10
14.5477
 20
16.8968
 30
0.000000
  70
    32
  0
VERTEX
  8
0
  5
27C
 10
14.4754
 20
16.7132
 30
0.000000
  70
    32
  0
VERTEX
  8
0
  5
27D
 10
14.3981
 20
16.5313
 30
0.000000
  70
    32
  0
VERTEX
  8
0
  5
27E
 10
14.3157
 20
16.3514
 30
0.000000
  70
    32
  0
VERTEX
  8
0
  5
27F
 10
14.2283
 20
16.1736
 30
0.000000
  70
    32
  0
VERTEX
  8
0
  5
280
 10
14.1359
 20
15.9981
 30
0.000000
  70
    32
  0
VERTEX
  8
0
  5
281
 10
14.0384
 20
15.8251
 30
0.000000
  70
    32
  0
VERTEX
  8
0
  5
282
 10
13.9357
 20
15.6547
 30
0.000000
  70
    32
  0
VERTEX
  8
0
  5
283
 10
13.8280
 20
15.4872
 30
0.000000
  70
    32
  0
VERTEX
  8
0
  5
284
 10
13.7152
 20
15.3227
 30
0.000000
  70
    32
  0
VERTEX
  8
0
  5
285
 10
13.5972
 20
15.1615
 30
0.000000
  70
    32
  0
VERTEX
  8
0
  5
286
 10
13.4742
 20
15.0038
 30
0.000000
  70
    32
  0
VERTEX
  8
0
  5
287
 10
13.3460
 20
14.8497
 30
0.000000
  70
    32
  0
VERTEX
  8
0
  5
288
 10
13.2127
 20
14.6995
 30
0.000000
  70
    32
  0
VERTEX
  8
0
  5
289
 10
13.0743
 20
14.5535
 30
0.000000
  70
    32
  0
VERTEX
  8
0
  5
28A
 10
12.9307
 20
14.4117
 30
0.000000
  70
    32
  0
VERTEX
  8
0
  5
28B
 10
12.7820
 20
14.2746
 30
0.000000
  70
    32
  0
VERTEX
  8
0
  5
28C
 10
12.6282
 20
14.1422
 30
0.000000
  70
    32
  0
VERTEX
  8
0
  5
28D
 10
12.4692
 20
14.0148
 30
0.000000
  70
    32
  0
VERTEX
  8
0
  5
28E
 10
12.3052
 20
13.8928
 30
0.000000
  70
    32
  0
VERTEX
  8
0
  5
28F
 10
12.1360
 20
13.7762
 30
0.000000
  70
    32
  0
VERTEX
  8
0
  5
290
 10
11.9617
 20
13.6655
 30
0.000000
  70
    32
  0
VERTEX
  8
0
  5
291
 10
11.7823
 20
13.5608
 30
0.000000
  70
    32
  0
VERTEX
  8
0
  5
292
 10
11.5978
 20
13.4624
 30
0.000000
  70
    32
  0
VERTEX
  8
0
  5
293
 10
11.4082
 20
13.3706
 30
0.000000
  70
    32
  0
VERTEX
  8
0
  5
294
 10
11.2135
 20
13.2856
 30
0.000000
  70
    32
  0
VERTEX
  8
0
  5
295
 10
11.0137
 20
13.2078
 30
0.000000
  70
    32
  0
VERTEX
  8
0
  5
296
 10
10.8089
 20
13.1373
 30
0.000000
  70
    32
  0
VERTEX
  8
0
  5
297
 10
10.5991
 20
13.0746
 30
0.000000
  70
    32
  0
VERTEX
  8
0
  5
298
 10
10.3842
 20
13.0198
 30
0.000000
  70
    32
  0
VERTEX
  8
0
  5
299
 10
10.1643
 20
12.9733
 30
0.000000
  70
    32
  0
VERTEX
  8
0
  5
29A
 10
9.93944
 20
12.9354
 30
0.000000
  70
    32
  0
VERTEX
  8
0
  5
29B
 10
9.70958
 20
12.9064
 30
0.000000
  70
    32
  0
VERTEX
  8
0
  5
29C
 10
9.47476
 20
12.8866
 30
0.000000
  70
    32
  0
VERTEX
  8
0
  5
29D
 10
9.23500
 20
12.8763
 30
0.000000
  70
    32
  0
VERTEX
  8
0
  5
29E
 10
8.99033
 20
12.8759
 30
0.000000
  70
    32
  0
VERTEX
  8
0
  5
29F
 10
8.74076
 20
12.8856
 30
0.000000
  70
    32
  0
VERTEX
  8
0
  5
2A0
 10
8.48632
 20
12.9058
 30
0.000000
  70
    32
  0
VERTEX
  8
0
  5
2A1
 10
8.22704
 20
12.9368
 30
0.000000
  70
    32
  0
VERTEX
  8
0
  5
2A2
 10
7.96294
 20
12.9790
 30
0.000000
  70
    32
  0
VERTEX
  8
0
  5
2A3
 10
7.69404
 20
13.0327
 30
0.000000
  70
    32
  0
VERTEX
  8
0
  5
2A4
 10
7.42038
 20
13.0983
 30
0.000000
  70
    32
  0
VERTEX
  8
0
  5
2A5
 10
7.14198
 20
13.1761
 30
0.000000
  70
    32
  0
VERTEX
  8
0
  5
2A6
 10
6.85888
 20
13.2664
 30
0.000000
  70
    32
  0
VERTEX
  8
0
  5
2A7
 10
6.57111
 20
13.3697
 30
0.000000
  70
    32
  0
VERTEX
  8
0
  5
2A8
 10
6.27869
 20
13.4863
 30
0.000000
  70
    32
  0
VERTEX
  8
0
  5
2A9
 10
5.98167
 20
13.6165
 30
0.000000
  70
    32
  0
VERTEX
  8
0
  5
2AA
 10
5.68008
 20
13.7608
 30
0.000000
  70
    32
  0
VERTEX
  8
0
  5
2AB
 10
5.37395
 20
13.9195
 30
0.000000
  70
    32
  0
VERTEX
  8
0
  5
2AC
 10
5.06332
 20
14.0931
 30
0.000000
  70
    32
  0
VERTEX
  8
0
  5
2AD
 10
4.74823
 20
14.2819
 30
0.000000
  70
    32
  0
VERTEX
  8
0
  5
2AE
 10
4.42872
 20
14.4862
 30
0.000000
  70
    32
  0
VERTEX
  8
0
  5
2AF
 10
4.10483
 20
14.7066
 30
0.000000
  70
    32
  0
VERTEX
  8
0
  5
2B0
 10
3.77660
 20
14.9434
 30
0.000000
  70
    32
  0
VERTEX
  8
0
  5
2B1
 10
3.44408
 20
15.1970
 30
0.000000
  70
    32
  0
VERTEX
  8
0
  5
2B2
 10
3.10731
 20
15.4679
 30
0.000000
  70
    32
  0
VERTEX
  8
0
  5
2B3
 10
2.76633
 20
15.7564
 30
0.000000
  70
    32
  0
VERTEX
  8
0
  5
2B4
 10
2.42119
 20
16.0630
 30
0.000000
  70
    32
  0
VERTEX
  8
0
  5
2B5
 10
2.07194
 20
16.3881
 30
0.000000
  70
    32
  0
VERTEX
  8
0
  5
2B6
 10
1.71862
 20
16.7322
 30
0.000000
  70
    32
  0
VERTEX
  8
0
  5
2B7
 10
1.36129
 20
17.0957
 30
0.000000
  70
    32
  0
VERTEX
  8
0
  5
2B8
 10
1.00000
 20
17.4790
 30
0.000000
  70
    32
  0
SEQEND
  8
0
  5
2B9
  0
POLYLINE
  8
0
  5
2BA
  66
     1
 10
0.000000
 20
0.000000
 30
0.000000
  70
     8
  0
VERTEX
  8
0
  5
2BB
 10
-1.00000
 20
17.4790
 30
0.000000
  70
    32
  0
VERTEX
  8
0
  5
2BC
 10
-1.36129
 20
17.0957
 30
0.000000
  70
    32
  0
VERTEX
  8
0
  5
2BD
 10
-1.71862
 20
16.7322
 30
0.000000
  70
    32
  0
VERTEX
  8
0
  5
2BE
 10
-2.07194
 20
16.3881
 30
0.000000
  70
    32
  0
VERTEX
  8
0
  5
2BF
 10
-2.42119
 20
16.0630
 30
0.000000
  70
    32
  0
VERTEX
  8
0
  5
2C0
 10
-2.76633
 20
15.7564
 30
0.000000
  70
    32
  0
VERTEX
  8
0
  5
2C1
 10
-3.10731
 20
15.4679
 30
0.000000
  70
    32
  0
VERTEX
  8
0
  5
2C2
 10
-3.44408
 20
15.1970
 30
0.000000
  70
    32
  0
VERTEX
  8
0
  5
2C3
 10
-3.77660
 20
14.9434
 30
0.000000
  70
    32
  0
VERTEX
  8
0
  5
2C4
 10
-4.10483
 20
14.7066
 30
0.000000
  70
    32
  0
VERTEX
  8
0
  5
2C5
 10
-4.42872
 20
14.4862
 30
0.000000
  70
    32
  0
VERTEX
  8
0
  5
2C6
 10
-4.74823
 20
14.2819
 30
0.000000
  70
    32
  0
VERTEX
  8
0
  5
2C7
 10
-5.06332
 20
14.0931
 30
0.000000
  70
    32
  0
VERTEX
  8
0
  5
2C8
 10
-5.37395
 20
13.9195
 30
0.000000
  70
    32
  0
VERTEX
  8
0
  5
2C9
 10
-5.68008
 20
13.7608
 30
0.000000
  70
    32
  0
VERTEX
  8
0
  5
2CA
 10
-5.98167
 20
13.6165
 30
0.000000
  70
    32
  0
VERTEX
  8
0
  5
2CB
 10
-6.27869
 20
13.4863
 30
0.000000
  70
    32
  0
VERTEX
  8
0
  5
2CC
 10
-6.57111
 20
13.3697
 30
0.000000
  70
    32
  0
VERTEX
  8
0
  5
2CD
 10
-6.85888
 20
13.2664
 30
0.000000
  70
    32
  0
VERTEX
  8
0
  5
2CE
 10
-7.14198
 20
13.1761
 30
0.000000
  70
    32
  0
VERTEX
  8
0
  5
2CF
 10
-7.42038
 20
13.0983
 30
0.000000
  70
    32
  0
VERTEX
  8
0
  5
2D0
 10
-7.69404
 20
13.0327
 30
0.000000
  70
    32
  0
VERTEX
  8
0
  5
2D1
 10
-7.96294
 20
12.9790
 30
0.000000
  70
    32
  0
VERTEX
  8
0
  5
2D2
 10
-8.22704
 20
12.9368
 30
0.000000
  70
    32
  0
VERTEX
  8
0
  5
2D3
 10
-8.48632
 20
12.9058
 30
0.000000
  70
    32
  0
VERTEX
  8
0
  5
2D4
 10
-8.74076
 20
12.8856
 30
0.000000
  70
    32
  0
VERTEX
  8
0
  5
2D5
 10
-8.99033
 20
12.8759
 30
0.000000
  70
    32
  0
VERTEX
  8
0
  5
2D6
 10
-9.23500
 20
12.8763
 30
0.000000
  70
    32
  0
VERTEX
  8
0
  5
2D7
 10
-9.47476
 20
12.8866
 30
0.000000
  70
    32
  0
VERTEX
  8
0
  5
2D8
 10
-9.70958
 20
12.9064
 30
0.000000
  70
    32
  0
VERTEX
  8
0
  5
2D9
 10
-9.93944
 20
12.9354
 30
0.000000
  70
    32
  0
VERTEX
  8
0
  5
2DA
 10
-10.1643
 20
12.9733
 30
0.000000
  70
    32
  0
VERTEX
  8
0
  5
2DB
 10
-10.3842
 20
13.0198
 30
0.000000
  70
    32
  0
VERTEX
  8
0
  5
2DC
 10
-10.5991
 20
13.0746
 30
0.000000
  70
    32
  0
VERTEX
  8
0
  5
2DD
 10
-10.8089
 20
13.1373
 30
0.000000
  70
    32
  0
VERTEX
  8
0
  5
2DE
 10
-11.0137
 20
13.2078
 30
0.000000
  70
    32
  0
VERTEX
  8
0
  5
2DF
 10
-11.2135
 20
13.2856
 30
0.000000
  70
    32
  0
VERTEX
  8
0
  5
2E0
 10
-11.4082
 20
13.3706
 30
0.000000
  70
    32
  0
VERTEX
  8
0
  5
2E1
 10
-11.5978
 20
13.4624
 30
0.000000
  70
    32
  0
VERTEX
  8
0
  5
2E2
 10
-11.7823
 20
13.5608
 30
0.000000
  70
    32
  0
VERTEX
  8
0
  5
2E3
 10
-11.9617
 20
13.6655
 30
0.000000
  70
    32
  0
VERTEX
  8
0
  5
2E4
 10
-12.1360
 20
13.7762
 30
0.000000
  70
    32
  0
VERTEX
  8
0
  5
2E5
 10
-12.3052
 20
13.8928
 30
0.000000
  70
    32
  0
VERTEX
  8
0
  5
2E6
 10
-12.4692
 20
14.0148
 30
0.000000
  70
    32
  0
VERTEX
  8
0
  5
2E7
 10
-12.6282
 20
14.1422
 30
0.000000
  70
    32
  0
VERTEX
  8
0
  5
2E8
 10
-12.7820
 20
14.2746
 30
0.000000
  70
    32
  0
VERTEX
  8
0
  5
2E9
 10
-12.9307
 20
14.4117
 30
0.000000
  70
    32
  0
VERTEX
  8
0
  5
2EA
 10
-13.0743
 20
14.5535
 30
0.000000
  70
    32
  0
VERTEX
  8
0
  5
2EB
 10
-13.2127
 20
14.6995
 30
0.000000
  70
    32
  0
VERTEX
  8
0
  5
2EC
 10
-13.3460
 20
14.8497
 30
0.000000
  70
    32
  0
VERTEX
  8
0
  5
2ED
 10
-13.4742
 20
15.0038
 30
0.000000
  70
    32
  0
VERTEX
  8
0
  5
2EE
 10
-13.5972
 20
15.1615
 30
0.000000
  70
    32
  0
VERTEX
  8
0
  5
2EF
 10
-13.7152
 20
15.3227
 30
0.000000
  70
    32
  0
VERTEX
  8
0
  5
2F0
 10
-13.8280
 20
15.4872
 30
0.000000
  70
    32
  0
VERTEX
  8
0
  5
2F1
 10
-13.9357
 20
15.6547
 30
0.000000
  70
    32
  0
VERTEX
  8
0
  5
2F2
 10
-14.0384
 20
15.8251
 30
0.000000
  70
    32
  0
VERTEX
  8
0
  5
2F3
 10
-14.1359
 20
15.9981
 30
0.000000
  70
    32
  0
VERTEX
  8
0
  5
2F4
 10
-14.2283
 20
16.1736
 30
0.000000
  70
    32
  0
VERTEX
  8
0
  5
2F5
 10
-14.3157
 20
16.3514
 30
0.000000
  70
    32
  0
VERTEX
  8
0
  5
2F6
 10
-14.3981
 20
16.5313
 30
0.000000
  70
    32
  0
VERTEX
  8
0
  5
2F7
 10
-14.4754
 20
16.7132
 30
0.000000
  70
    32
  0
VERTEX
  8
0
  5
2F8
 10
-14.5477
 20
16.8968
 30
0.000000
  70
    32
  0
VERTEX
  8
0
  5
2F9
 10
-14.6149
 20
17.0820
 30
0.000000
  70
    32
  0
VERTEX
  8
0
  5
2FA
 10
-14.6772
 20
17.2687
 30
0.000000
  70
    32
  0
VERTEX
  8
0
  5
2FB
 10
-14.7345
 20
17.4567
 30
0.000000
  70
    32
  0
VERTEX
  8
0
  5
2FC
 10
-14.7868
 20
17.6459
 30
0.000000
  70
    32
  0
VERTEX
  8
0
  5
2FD
 10
-14.8343
 20
17.8360
 30
0.000000
  70
    32
  0
VERTEX
  8
0
  5
2FE
 10
-14.8768
 20
18.0270
 30
0.000000
  70
    32
  0
VERTEX
  8
0
  5
2FF
 10
-14.9144
 20
18.2188
 30
0.000000
  70
    32
  0
VERTEX
  8
0
  5
300
 10
-14.9471
 20
18.4111
 30
0.000000
  70
    32
  0
VERTEX
  8
0
  5
301
 10
-14.9750
 20
18.6039
 30
0.000000
  70
    32
  0
VERTEX
  8
0
  5
302
 10
-14.9981
 20
18.7971
 30
0.000000
  70
    32
  0
VERTEX
  8
0
  5
303
 10
-15.0164
 20
18.9905
 30
0.000000
  70
    32
  0
VERTEX
  8
0
  5
304
 10
-15.0299
 20
19.1840
 30
0.000000
  70
    32
  0
VERTEX
  8
0
  5
305
 10
-15.0388
 20
19.3776
 30
0.000000
  70
    32
  0
VERTEX
  8
0
  5
306
 10
-15.0429
 20
19.5710
 30
0.000000
  70
    32
  0
VERTEX
  8
0
  5
307
 10
-15.0423
 20
19.7643
 30
0.000000
  70
    32
  0
VERTEX
  8
0
  5
308
 10
-15.0371
 20
19.9574
 30
0.000000
  70
    32
  0
VERTEX
  8
0
  5
309
 10
-15.0273
 20
20.1500
 30
0.000000
  70
    32
  0
VERTEX
  8
0
  5
30A
 10
-15.0130
 20
20.3422
 30
0.000000
  70
    32
  0
VERTEX
  8
0
  5
30B
 10
-14.9941
 20
20.5339
 30
0.000000
  70
    32
  0
VERTEX
  8
0
  5
30C
 10
-14.9708
 20
20.7250
 30
0.000000
  70
    32
  0
VERTEX
  8
0
  5
30D
 10
-14.9429
 20
20.9155
 30
0.000000
  70
    32
  0
VERTEX
  8
0
  5
30E
 10
-14.9107
 20
21.1052
 30
0.000000
  70
    32
  0
VERTEX
  8
0
  5
30F
 10
-14.8741
 20
21.2941
 30
0.000000
  70
    32
  0
VERTEX
  8
0
  5
310
 10
-14.8332
 20
21.4822
 30
0.000000
  70
    32
  0
VERTEX
  8
0
  5
311
 10
-14.7879
 20
21.6694
 30
0.000000
  70
    32
  0
VERTEX
  8
0
  5
312
 10
-14.7385
 20
21.8557
 30
0.000000
  70
    32
  0
VERTEX
  8
0
  5
313
 10
-14.6848
 20
22.0410
 30
0.000000
  70
    32
  0
VERTEX
  8
0
  5
314
 10
-14.6270
 20
22.2253
 30
0.000000
  70
    32
  0
VERTEX
  8
0
  5
315
 10
-14.5651
 20
22.4085
 30
0.000000
  70
    32
  0
VERTEX
  8
0
  5
316
 10
-14.4991
 20
22.5907
 30
0.000000
  70
    32
  0
VERTEX
  8
0
  5
317
 10
-14.4291
 20
22.7718
 30
0.000000
  70
    32
  0
VERTEX
  8
0
  5
318
 10
-14.3552
 20
22.9518
 30
0.000000
  70
    32
  0
VERTEX
  8
0
  5
319
 10
-14.2774
 20
23.1307
 30
0.000000
  70
    32
  0
VERTEX
  8
0
  5
31A
 10
-14.1957
 20
23.3085
 30
0.000000
  70
    32
  0
VERTEX
  8
0
  5
31B
 10
-14.1103
 20
23.4851
 30
0.000000
  70
    32
  0
VERTEX
  8
0
  5
31C
 10
-14.0210
 20
23.6606
 30
0.000000
  70
    32
  0
VERTEX
  8
0
  5
31D
 10
-13.9282
 20
23.8350
 30
0.000000
  70
    32
  0
VERTEX
  8
0
  5
31E
 10
-13.8317
 20
24.0084
 30
0.000000
  70
    32
  0
VERTEX
  8
0
  5
31F
 10
-13.7316
 20
24.1806
 30
0.000000
  70
    32
  0
VERTEX
  8
0
  5
320
 10
-13.6280
 20
24.3517
 30
0.000000
  70
    32
  0
VERTEX
  8
0
  5
321
 10
-13.5210
 20
24.5219
 30
0.000000
  70
    32
  0
VERTEX
  8
0
  5
322
 10
-13.4106
 20
24.6909
 30
0.000000
  70
    32
  0
VERTEX
  8
0
  5
323
 10
-13.2969
 20
24.8590
 30
0.000000
  70
    32
  0
VERTEX
  8
0
  5
324
 10
-13.1799
 20
25.0261
 30
0.000000
  70
    32
  0
VERTEX
  8
0
  5
325
 10
-13.0597
 20
25.1922
 30
0.000000
  70
    32
  0
VERTEX
  8
0
  5
326
 10
-12.9364
 20
25.3573
 30
0.000000
  70
    32
  0
VERTEX
  8
0
  5
327
 10
-12.8101
 20
25.5216
 30
0.000000
  70
    32
  0
VERTEX
  8
0
  5
328
 10
-12.6807
 20
25.6849
 30
0.000000
  70
    32
  0
VERTEX
  8
0
  5
329
 10
-12.5484
 20
25.8473
 30
0.000000
  70
    32
  0
VERTEX
  8
0
  5
32A
 10
-12.4133
 20
26.0088
 30
0.000000
  70
    32
  0
VERTEX
  8
0
  5
32B
 10
-12.2754
 20
26.1695
 30
0.000000
  70
    32
  0
VERTEX
  8
0
  5
32C
 10
-12.1347
 20
26.3293
 30
0.000000
  70
    32
  0
VERTEX
  8
0
  5
32D
 10
-11.9915
 20
26.4883
 30
0.000000
  70
    32
  0
VERTEX
  8
0
  5
32E
 10
-11.8456
 20
26.6466
 30
0.000000
  70
    32
  0
VERTEX
  8
0
  5
32F
 10
-11.6972
 20
26.8041
 30
0.000000
  70
    32
  0
VERTEX
  8
0
  5
330
 10
-11.5464
 20
26.9608
 30
0.000000
  70
    32
  0
VERTEX
  8
0
  5
331
 10
-11.3933
 20
27.1168
 30
0.000000
  70
    32
  0
VERTEX
  8
0
  5
332
 10
-11.2379
 20
27.2721
 30
0.000000
  70
    32
  0
VERTEX
  8
0
  5
333
 10
-11.0802
 20
27.4268
 30
0.000000
  70
    32
  0
VERTEX
  8
0
  5
334
 10
-10.9205
 20
27.5807
 30
0.000000
  70
    32
  0
VERTEX
  8
0
  5
335
 10
-10.7587
 20
27.7341
 30
0.000000
  70
    32
  0
VERTEX
  8
0
  5
336
 10
-10.5949
 20
27.8869
 30
0.000000
  70
    32
  0
VERTEX
  8
0
  5
337
 10
-10.4292
 20
28.0390
 30
0.000000
  70
    32
  0
VERTEX
  8
0
  5
338
 10
-10.2618
 20
28.1907
 30
0.000000
  70
    32
  0
VERTEX
  8
0
  5
339
 10
-10.0926
 20
28.3417
 30
0.000000
  70
    32
  0
VERTEX
  8
0
  5
33A
 10
-9.92172
 20
28.4923
 30
0.000000
  70
    32
  0
VERTEX
  8
0
  5
33B
 10
-9.74932
 20
28.6424
 30
0.000000
  70
    32
  0
VERTEX
  8
0
  5
33C
 10
-9.57544
 20
28.7921
 30
0.000000
  70
    32
  0
VERTEX
  8
0
  5
33D
 10
-9.40017
 20
28.9413
 30
0.000000
  70
    32
  0
VERTEX
  8
0
  5
33E
 10
-9.22359
 20
29.0902
 30
0.000000
  70
    32
  0
VERTEX
  8
0
  5
33F
 10
-9.04580
 20
29.2386
 30
0.000000
  70
    32
  0
VERTEX
  8
0
  5
340
 10
-8.86687
 20
29.3867
 30
0.000000
  70
    32
  0
VERTEX
  8
0
  5
341
 10
-8.68690
 20
29.5345
 30
0.000000
  70
    32
  0
VERTEX
  8
0
  5
342
 10
-8.50597
 20
29.6820
 30
0.000000
  70
    32
  0
VERTEX
  8
0
  5
343
 10
-8.32418
 20
29.8293
 30
0.000000
  70
    32
  0
VERTEX
  8
0
  5
344
 10
-8.14162
 20
29.9763
 30
0.000000
  70
    32
  0
VERTEX
  8
0
  5
345
 10
-7.95838
 20
30.1231
 30
0.000000
  70
    32
  0
VERTEX
  8
0
  5
346
 10
-7.77455
 20
30.2698
 30
0.000000
  70
    32
  0
VERTEX
  8
0
  5
347
 10
-7.59022
 20
30.4162
 30
0.000000
  70
    32
  0
VERTEX
  8
0
  5
348
 10
-7.40549
 20
30.5626
 30
0.000000
  70
    32
  0
VERTEX
  8
0
  5
349
 10
-7.22046
 20
30.7089
 30
0.000000
  70
    32
  0
VERTEX
  8
0
  5
34A
 10
-7.03522
 20
30.8551
 30
0.000000
  70
    32
  0
VERTEX
  8
0
  5
34B
 10
-6.84987
 20
31.0013
 30
0.000000
  70
    32
  0
VERTEX
  8
0
  5
34C
 10
-6.66450
 20
31.1476
 30
0.000000
  70
    32
  0
VERTEX
  8
0
  5
34D
 10
-6.47922
 20
31.2938
 30
0.000000
  70
    32
  0
VERTEX
  8
0
  5
34E
 10
-6.29412
 20
31.4401
 30
0.000000
  70
    32
  0
VERTEX
  8
0
  5
34F
 10
-6.10931
 20
31.5865
 30
0.000000
  70
    32
  0
VERTEX
  8
0
  5
350
 10
-5.92488
 20
31.7331
 30
0.000000
  70
    32
  0
VERTEX
  8
0
  5
351
 10
-5.74095
 20
31.8798
 30
0.000000
  70
    32
  0
VERTEX
  8
0
  5
352
 10
-5.55760
 20
32.0267
 30
0.000000
  70
    32
  0
VERTEX
  8
0
  5
353
 10
-5.37495
 20
32.1739
 30
0.000000
  70
    32
  0
VERTEX
  8
0
  5
354
 10
-5.19311
 20
32.3213
 30
0.000000
  70
    32
  0
VERTEX
  8
0
  5
355
 10
-5.01217
 20
32.4690
 30
0.000000
  70
    32
  0
VERTEX
  8
0
  5
356
 10
-4.83224
 20
32.6170
 30
0.000000
  70
    32
  0
VERTEX
  8
0
  5
357
 10
-4.65343
 20
32.7654
 30
0.000000
  70
    32
  0
VERTEX
  8
0
  5
358
 10
-4.47585
 20
32.9142
 30
0.000000
  70
    32
  0
VERTEX
  8
0
  5
359
 10
-4.29961
 20
33.0635
 30
0.000000
  70
    32
  0
VERTEX
  8
0
  5
35A
 10
-4.12482
 20
33.2132
 30
0.000000
  70
    32
  0
VERTEX
  8
0
  5
35B
 10
-3.95159
 20
33.3634
 30
0.000000
  70
    32
  0
VERTEX
  8
0
  5
35C
 10
-3.78002
 20
33.5142
 30
0.000000
  70
    32
  0
VERTEX
  8
0
  5
35D
 10
-3.61025
 20
33.6655
 30
0.000000
  70
    32
  0
VERTEX
  8
0
  5
35E
 10
-3.44236
 20
33.8175
 30
0.000000
  70
    32
  0
VERTEX
  8
0
  5
35F
 10
-3.27649
 20
33.9701
 30
0.000000
  70
    32
  0
VERTEX
  8
0
  5
360
 10
-3.11275
 20
34.1234
 30
0.000000
  70
    32
  0
VERTEX
  8
0
  5
361
 10
-2.95125
 20
34.2774
 30
0.000000
  70
    32
  0
VERTEX
  8
0
  5
362
 10
-2.79211
 20
34.4322
 30
0.000000
  70
    32
  0
VERTEX
  8
0
  5
363
 10
-2.63545
 20
34.5878
 30
0.000000
  70
    32
  0
VERTEX
  8
0
  5
364
 10
-2.48138
 20
34.7442
 30
0.000000
  70
    32
  0
VERTEX
  8
0
  5
365
 10
-2.33003
 20
34.9015
 30
0.000000
  70
    32
  0
VERTEX
  8
0
  5
366
 10
-2.18151
 20
35.0597
 30
0.000000
  70
    32
  0
VERTEX
  8
0
  5
367
 10
-2.03596
 20
35.2189
 30
0.000000
  70
    32
  0
VERTEX
  8
0
  5
368
 10
-1.89348
 20
35.3790
 30
0.000000
  70
    32
  0
VERTEX
  8
0
  5
369
 10
-1.75421
 20
35.5402
 30
0.000000
  70
    32
  0
VERTEX
  8
0
  5
36A
 10
-1.61826
 20
35.7025
 30
0.000000
  70
    32
  0
VERTEX
  8
0
  5
36B
 10
-1.48576
 20
35.8659
 30
0.000000
  70
    32
  0
VERTEX
  8
0
  5
36C
 10
-1.35684
 20
36.0304
 30
0.000000
  70
    32
  0
VERTEX
  8
0
  5
36D
 10
-1.23163
 20
36.1962
 30
0.000000
  70
    32
  0
VERTEX
  8
0
  5
36E
 10
-1.11024
 20
36.3632
 30
0.000000
  70
    32
  0
VERTEX
  8
0
  5
36F
 10
-0.992819
 20
36.5314
 30
0.000000
  70
    32
  0
VERTEX
  8
0
  5
370
 10
-0.879483
 20
36.7010
 30
0.000000
  70
    32
  0
VERTEX
  8
0
  5
371
 10
-0.770365
 20
36.8720
 30
0.000000
  70
    32
  0
VERTEX
  8
0
  5
372
 10
-0.665596
 20
37.0443
 30
0.000000
  70
    32
  0
VERTEX
  8
0
  5
373
 10
-0.565308
 20
37.2181
 30
0.000000
  70
    32
  0
VERTEX
  8
0
  5
374
 10
-0.469633
 20
37.3934
 30
0.000000
  70
    32
  0
VERTEX
  8
0
  5
375
 10
-0.378706
 20
37.5702
 30
0.000000
  70
    32
  0
VERTEX
  8
0
  5
376
 10
-0.292659
 20
37.7487
 30
0.000000
  70
    32
  0
VERTEX
  8
0
  5
377
 10
-0.211629
 20
37.9287
 30
0.000000
  70
    32
  0
VERTEX
  8
0
  5
378
 10
-0.135751
 20
38.1104
 30
0.000000
  70
    32
  0
VERTEX
  8
0
  5
379
 10
-0.0651618
 20
38.2938
 30
0.000000
  70
    32
  0
VERTEX
  8
0
  5
37A
 10
-1.17270e-010
 20
38.4790
 30
0.000000
  70
    32
  0
SEQEND
  8
0
  5
37B
  0
POLYLINE
  8
0
  5
37C
  66
     1
 10
0.000000
 20
0.000000
 30
0.000000
  70
     8
  0
VERTEX
  8
0
  5
37D
 10
-2.50000
 20
8.47896
 30
0.000000
  70
    32
  0
VERTEX
  8
0
  5
37E
 10
-2.44052
 20
8.60323
 30
0.000000
  70
    32
  0
VERTEX
  8
0
  5
37F
 10
-2.38198
 20
8.72686
 30
0.000000
  70
    32
  0
VERTEX
  8
0
  5
380
 10
-2.32436
 20
8.84986
 30
0.000000
  70
    32
  0
VERTEX
  8
0
  5
381
 10
-2.26767
 20
8.97224
 30
0.000000
  70
    32
  0
VERTEX
  8
0
  5
382
 10
-2.21191
 20
9.09399
 30
0.000000
  70
    32
  0
VERTEX
  8
0
  5
383
 10
-2.15709
 20
9.21511
 30
0.000000
  70
    32
  0
VERTEX
  8
0
  5
384
 10
-2.10319
 20
9.33560
 30
0.000000
  70
    32
  0
VERTEX
  8
0
  5
385
 10
-2.05022
 20
9.45547
 30
0.000000
  70
    32
  0
VERTEX
  8
0
  5
386
 10
-1.99818
 20
9.57470
 30
0.000000
  70
    32
  0
VERTEX
  8
0
  5
387
 10
-1.94707
 20
9.69331
 30
0.000000
  70
    32
  0
VERTEX
  8
0
  5
388
 10
-1.89688
 20
9.81129
 30
0.000000
  70
    32
  0
VERTEX
  8
0
  5
389
 10
-1.84763
 20
9.92864
 30
0.000000
  70
    32
  0
VERTEX
  8
0
  5
38A
 10
-1.79931
 20
10.0454
 30
0.000000
  70
    32
  0
VERTEX
  8
0
  5
38B
 10
-1.75192
 20
10.1615
 30
0.000000
  70
    32
  0
VERTEX
  8
0
  5
38C
 10
-1.70545
 20
10.2769
 30
0.000000
  70
    32
  0
VERTEX
  8
0
  5
38D
 10
-1.65992
 20
10.3918
 30
0.000000
  70
    32
  0
VERTEX
  8
0
  5
38E
 10
-1.61532
 20
10.5060
 30
0.000000
  70
    32
  0
VERTEX
  8
0
  5
38F
 10
-1.57164
 20
10.6196
 30
0.000000
  70
    32
  0
VERTEX
  8
0
  5
390
 10
-1.52890
 20
10.7325
 30
0.000000
  70
    32
  0
VERTEX
  8
0
  5
391
 10
-1.48708
 20
10.8448
 30
0.000000
  70
    32
  0
VERTEX
  8
0
  5
392
 10
-1.44620
 20
10.9565
 30
0.000000
  70
    32
  0
VERTEX
  8
0
  5
393
 10
-1.40624
 20
11.0676
 30
0.000000
  70
    32
  0
VERTEX
  8
0
  5
394
 10
-1.36721
 20
11.1780
 30
0.000000
  70
    32
  0
VERTEX
  8
0
  5
395
 10
-1.32911
 20
11.2879
 30
0.000000
  70
    32
  0
VERTEX
  8
0
  5
396
 10
-1.29195
 20
11.3970
 30
0.000000
  70
    32
  0
VERTEX
  8
0
  5
397
 10
-1.25571
 20
11.5056
 30
0.000000
  70
    32
  0
VERTEX
  8
0
  5
398
 10
-1.22040
 20
11.6135
 30
0.000000
  70
    32
  0
VERTEX
  8
0
  5
399
 10
-1.18602
 20
11.7208
 30
0.000000
  70
    32
  0
VERTEX
  8
0
  5
39A
 10
-1.15257
 20
11.8275
 30
0.000000
  70
    32
  0
VERTEX
  8
0
  5
39B
 10
-1.12005
 20
11.9335
 30
0.000000
  70
    32
  0
VERTEX
  8
0
  5
39C
 10
-1.08846
 20
12.0390
 30
0.000000
  70
    32
  0
VERTEX
  8
0
  5
39D
 10
-1.05780
 20
12.1437
 30
0.000000
  70
    32
  0
VERTEX
  8
0
  5
39E
 10
-1.02806
 20
12.2479
 30
0.000000
  70
    32
  0
VERTEX
  8
0
  5
39F
 10
-0.999261
 20
12.3514
 30
0.000000
  70
    32
  0
VERTEX
  8
0
  5
3A0
 10
-0.971388
 20
12.4543
 30
0.000000
  70
    32
  0
VERTEX
  8
0
  5
3A1
 10
-0.944444
 20
12.5566
 30
0.000000
  70
    32
  0
VERTEX
  8
0
  5
3A2
 10
-0.918430
 20
12.6583
 30
0.000000
  70
    32
  0
VERTEX
  8
0
  5
3A3
 10
-0.893345
 20
12.7593
 30
0.000000
  70
    32
  0
VERTEX
  8
0
  5
3A4
 10
-0.869190
 20
12.8597
 30
0.000000
  70
    32
  0
VERTEX
  8
0
  5
3A5
 10
-0.845965
 20
12.9594
 30
0.000000
  70
    32
  0
VERTEX
  8
0
  5
3A6
 10
-0.823669
 20
13.0586
 30
0.000000
  70
    32
  0
VERTEX
  8
0
  5
3A7
 10
-0.802302
 20
13.1571
 30
0.000000
  70
    32
  0
VERTEX
  8
0
  5
3A8
 10
-0.781865
 20
13.2550
 30
0.000000
  70
    32
  0
VERTEX
  8
0
  5
3A9
 10
-0.762358
 20
13.3522
 30
0.000000
  70
    32
  0
VERTEX
  8
0
  5
3AA
 10
-0.743780
 20
13.4488
 30
0.000000
  70
    32
  0
VERTEX
  8
0
  5
3AB
 10
-0.726131
 20
13.5448
 30
0.000000
  70
    32
  0
VERTEX
  8
0
  5
3AC
 10
-0.709412
 20
13.6402
 30
0.000000
  70
    32
  0
VERTEX
  8
0
  5
3AD
 10
-0.693623
 20
13.7349
 30
0.000000
  70
    32
  0
VERTEX
  8
0
  5
3AE
 10
-0.678763
 20
13.8290
 30
0.000000
  70
    32
  0
VERTEX
  8
0
  5
3AF
 10
-0.664833
 20
13.9225
 30
0.000000
  70
    32
  0
VERTEX
  8
0
  5
3B0
 10
-0.651832
 20
14.0154
 30
0.000000
  70
    32
  0
VERTEX
  8
0
  5
3B1
 10
-0.639760
 20
14.1076
 30
0.000000
  70
    32
  0
VERTEX
  8
0
  5
3B2
 10
-0.628618
 20
14.1992
 30
0.000000
  70
    32
  0
VERTEX
  8
0
  5
3B3
 10
-0.618406
 20
14.2901
 30
0.000000
  70
    32
  0
VERTEX
  8
0
  5
3B4
 10
-0.609123
 20
14.3805
 30
0.000000
  70
    32
  0
VERTEX
  8
0
  5
3B5
 10
-0.600769
 20
14.4702
 30
0.000000
  70
    32
  0
VERTEX
  8
0
  5
3B6
 10
-0.593345
 20
14.5593
 30
0.000000
  70
    32
  0
VERTEX
  8
0
  5
3B7
 10
-0.586851
 20
14.6477
 30
0.000000
  70
    32
  0
VERTEX
  8
0
  5
3B8
 10
-0.581286
 20
14.7356
 30
0.000000
  70
    32
  0
VERTEX
  8
0
  5
3B9
 10
-0.576651
 20
14.8228
 30
0.000000
  70
    32
  0
VERTEX
  8
0
  5
3BA
 10
-0.572945
 20
14.9093
 30
0.000000
  70
    32
  0
VERTEX
  8
0
  5
3BB
 10
-0.570168
 20
14.9953
 30
0.000000
  70
    32
  0
VERTEX
  8
0
  5
3BC
 10
-0.568322
 20
15.0806
 30
0.000000
  70
    32
  0
VERTEX
  8
0
  5
3BD
 10
-0.567404
 20
15.1653
 30
0.000000
  70
    32
  0
VERTEX
  8
0
  5
3BE
 10
-0.567416
 20
15.2493
 30
0.000000
  70
    32
  0
VERTEX
  8
0
  5
3BF
 10
-0.568358
 20
15.3328
 30
0.000000
  70
    32
  0
VERTEX
  8
0
  5
3C0
 10
-0.570229
 20
15.4156
 30
0.000000
  70
    32
  0
VERTEX
  8
0
  5
3C1
 10
-0.573030
 20
15.4977
 30
0.000000
  70
    32
  0
VERTEX
  8
0
  5
3C2
 10
-0.576760
 20
15.5793
 30
0.000000
  70
    32
  0
VERTEX
  8
0
  5
3C3
 10
-0.581419
 20
15.6602
 30
0.000000
  70
    32
  0
VERTEX
  8
0
  5
3C4
 10
-0.587009
 20
15.7405
 30
0.000000
  70
    32
  0
VERTEX
  8
0
  5
3C5
 10
-0.593527
 20
15.8201
 30
0.000000
  70
    32
  0
VERTEX
  8
0
  5
3C6
 10
-0.600975
 20
15.8992
 30
0.000000
  70
    32
  0
VERTEX
  8
0
  5
3C7
 10
-0.609353
 20
15.9776
 30
0.000000
  70
    32
  0
VERTEX
  8
0
  5
3C8
 10
-0.618660
 20
16.0554
 30
0.000000
  70
    32
  0
VERTEX
  8
0
  5
3C9
 10
-0.628897
 20
16.1325
 30
0.000000
  70
    32
  0
VERTEX
  8
0
  5
3CA
 10
-0.640063
 20
16.2090
 30
0.000000
  70
    32
  0
VERTEX
  8
0
  5
3CB
 10
-0.652159
 20
16.2849
 30
0.000000
  70
    32
  0
VERTEX
  8
0
  5
3CC
 10
-0.665184
 20
16.3602
 30
0.000000
  70
    32
  0
VERTEX
  8
0
  5
3CD
 10
-0.679139
 20
16.4348
 30
0.000000
  70
    32
  0
VERTEX
  8
0
  5
3CE
 10
-0.694023
 20
16.5088
 30
0.000000
  70
    32
  0
VERTEX
  8
0
  5
3CF
 10
-0.709837
 20
16.5822
 30
0.000000
  70
    32
  0
VERTEX
  8
0
  5
3D0
 10
-0.726580
 20
16.6550
 30
0.000000
  70
    32
  0
VERTEX
  8
0
  5
3D1
 10
-0.744253
 20
16.7271
 30
0.000000
  70
    32
  0
VERTEX
  8
0
  5
3D2
 10
-0.762855
 20
16.7986
 30
0.000000
  70
    32
  0
VERTEX
  8
0
  5
3D3
 10
-0.782387
 20
16.8694
 30
0.000000
  70
    32
  0
VERTEX
  8
0
  5
3D4
 10
-0.802848
 20
16.9397
 30
0.000000
  70
    32
  0
VERTEX
  8
0
  5
3D5
 10
-0.824239
 20
17.0093
 30
0.000000
  70
    32
  0
VERTEX
  8
0
  5
3D6
 10
-0.846559
 20
17.0783
 30
0.000000
  70
    32
  0
VERTEX
  8
0
  5
3D7
 10
-0.869809
 20
17.1466
 30
0.000000
  70
    32
  0
VERTEX
  8
0
  5
3D8
 10
-0.893988
 20
17.2143
 30
0.000000
  70
    32
  0
VERTEX
  8
0
  5
3D9
 10
-0.919097
 20
17.2814
 30
0.000000
  70
    32
  0
VERTEX
  8
0
  5
3DA
 10
-0.945135
 20
17.3479
 30
0.000000
  70
    32
  0
VERTEX
  8
0
  5
3DB
 10
-0.972103
 20
17.4138
 30
0.000000
  70
    32
  0
VERTEX
  8
0
  5
3DC
 10
-1.00000
 20
17.4790
 30
0.000000
  70
    32
  0
SEQEND
  8
0
  5
3DD
  0
CIRCLE
  5
120
  8
0
 10
0.0000000000020695
 20
41.47896470389729
 30
0.0
 40
0.9999999999999721
  0
CIRCLE
  5
121
  8
0
 10
-27.323157698380211
 20
22.90894229548778
 30
0.0
 40
0.4999999999999839
  0
CIRCLE
  5
122
  8
0
 10
-25.26281237700314
 20
25.8514203594127
 30
0.0
 40
0.499999999999985
  0
CIRCLE
  5
123
  8
0
 10
-14.13014773719167
 20
33.754006140440673
 30
0.0
 40
0.499999999999985
  0
CIRCLE
  5
124
  8
0
 10
-16.32985226280412
 20
32.484006140440727
 30
0.0
 40
0.499999999999985
  0
CIRCLE
  5
125
  8
0
 10
-5.1957905288788453
 20
46.635809428114733
 30
0.0
 40
0.4999999999999865
  0
CIRCLE
  5
126
  8
0
 10
-2.6706635926825051
 20
46.361339108962973
 30
0.0
 40
0.499999999999985
  0
CIRCLE
  5
127
  8
0
 10
24.821746005731612
 20
23.350008666761759
 30
0.0
 40
0.4999999999999849
  0
CIRCLE
  5
128
  8
0
 10
16.329852262807361
 20
32.484006140440727
 30
0.0
 40
0.499999999999985
  0
CIRCLE
  5
129
  8
0
 10
2.6706635926871498
 20
46.36133910896298
 30
0.0
 40
0.499999999999985
  0
CIRCLE
  5
12A
  8
0
 10
4.9213202097318556
 20
49.16093636431107
 30
0.0
 40
0.4999999999999865
  0
CIRCLE
  5
12B
  8
0
 10
15.4001477371951
 20
35.95371066605307
 30
0.0
 40
0.4999999999999866
  0
CIRCLE
  5
12C
  8
0
 10
25.262812377005719
 20
25.8514203594127
 30
0.0
 40
0.499999999999985
  0
CIRCLE
  5
12D
  8
0
 10
27.764224069656638
 20
25.410353988138699
 30
0.0
 40
0.499999999999985
  0
CIRCLE
  5
12E
  8
0
 10
17.599852262807449
 20
34.683710666053123
 30
0.0
 40
0.4999999999999866
  0
CIRCLE
  5
12F
  8
0
 10
5.1957905288835171
 20
46.635809428114733
 30
0.0
 40
0.4999999999999865
  0
CIRCLE
  5
130
  8
0
 10
2.3961932735355069
 20
48.88646604515931
 30
0.0
 40
0.499999999999985
  0
CIRCLE
  5
131
  8
0
 10
14.130147737195029
 20
33.754006140440673
 30
0.0
 40
0.499999999999985
  0
CIRCLE
  5
132
  8
0
 10
27.32315769838246
 20
22.908942295487769
 30
0.0
 40
0.4999999999999839
  0
CIRCLE
  5
133
  8
0
 10
-4.9213202097269271
 20
49.16093636431107
 30
0.0
 40
0.4999999999999865
  0
CIRCLE
  5
134
  8
0
 10
-2.3961932735306131
 20
48.88646604515931
 30
0.0
 40
0.499999999999985
  0
CIRCLE
  5
135
  8
0
 10
-17.599852262803989
 20
34.683710666053109
 30
0.0
 40
0.4999999999999866
  0
CIRCLE
  5
136
  8
0
 10
-15.400147737191521
 20
35.95371066605307
 30
0.0
 40
0.4999999999999866
  0
CIRCLE
  5
137
  8
0
 10
-27.76422406965413
 20
25.410353988138709
 30
0.0
 40
0.499999999999985
  0
CIRCLE
  5
138
  8
0
 10
-24.82174600572931
 20
23.350008666761759
 30
0.0
 40
0.4999999999999849
  0
POLYLINE
  8
0
  5
3DE
  66
     1
 10
0.000000
 20
0.000000
 30
0.000000
  70
     8
  0
VERTEX
  8
0
  5
3DF
 10
-1.00000
 20
60.4790
 30
0.000000
  70
    32
  0
VERTEX
  8
0
  5
3E0
 10
-1.37523
 20
60.4333
 30
0.000000
  70
    32
  0
VERTEX
  8
0
  5
3E1
 10
-1.74941
 20
60.3830
 30
0.000000
  70
    32
  0
VERTEX
  8
0
  5
3E2
 10
-2.12256
 20
60.3281
 30
0.000000
  70
    32
  0
VERTEX
  8
0
  5
3E3
 10
-2.49466
 20
60.2686
 30
0.000000
  70
    32
  0
VERTEX
  8
0
  5
3E4
 10
-2.86573
 20
60.2044
 30
0.000000
  70
    32
  0
VERTEX
  8
0
  5
3E5
 10
-3.23575
 20
60.1357
 30
0.000000
  70
    32
  0
VERTEX
  8
0
  5
3E6
 10
-3.60474
 20
60.0622
 30
0.000000
  70
    32
  0
VERTEX
  8
0
  5
3E7
 10
-3.97268
 20
59.9842
 30
0.000000
  70
    32
  0
VERTEX
  8
0
  5
3E8
 10
-4.33958
 20
59.9015
 30
0.000000
  70
    32
  0
VERTEX
  8
0
  5
3E9
 10
-4.70544
 20
59.8142
 30
0.000000
  70
    32
  0
VERTEX
  8
0
  5
3EA
 10
-5.07026
 20
59.7223
 30
0.000000
  70
    32
  0
VERTEX
  8
0
  5
3EB
 10
-5.43404
 20
59.6257
 30
0.000000
  70
    32
  0
VERTEX
  8
0
  5
3EC
 10
-5.79678
 20
59.5246
 30
0.000000
  70
    32
  0
VERTEX
  8
0
  5
3ED
 10
-6.15848
 20
59.4187
 30
0.000000
  70
    32
  0
VERTEX
  8
0
  5
3EE
 10
-6.51914
 20
59.3083
 30
0.000000
  70
    32
  0
VERTEX
  8
0
  5
3EF
 10
-6.87875
 20
59.1932
 30
0.000000
  70
    32
  0
VERTEX
  8
0
  5
3F0
 10
-7.23733
 20
59.0735
 30
0.000000
  70
    32
  0
VERTEX
  8
0
  5
3F1
 10
-7.59487
 20
58.9492
 30
0.000000
  70
    32
  0
VERTEX
  8
0
  5
3F2
 10
-7.95136
 20
58.8203
 30
0.000000
  70
    32
  0
VERTEX
  8
0
  5
3F3
 10
-8.30682
 20
58.6867
 30
0.000000
  70
    32
  0
VERTEX
  8
0
  5
3F4
 10
-8.66123
 20
58.5485
 30
0.000000
  70
    32
  0
VERTEX
  8
0
  5
3F5
 10
-9.01460
 20
58.4056
 30
0.000000
  70
    32
  0
VERTEX
  8
0
  5
3F6
 10
-9.36694
 20
58.2582
 30
0.000000
  70
    32
  0
VERTEX
  8
0
  5
3F7
 10
-9.71823
 20
58.1061
 30
0.000000
  70
    32
  0
VERTEX
  8
0
  5
3F8
 10
-10.0685
 20
57.9494
 30
0.000000
  70
    32
  0
VERTEX
  8
0
  5
3F9
 10
-10.4177
 20
57.7880
 30
0.000000
  70
    32
  0
VERTEX
  8
0
  5
3FA
 10
-10.7659
 20
57.6221
 30
0.000000
  70
    32
  0
VERTEX
  8
0
  5
3FB
 10
-11.1130
 20
57.4515
 30
0.000000
  70
    32
  0
VERTEX
  8
0
  5
3FC
 10
-11.4591
 20
57.2762
 30
0.000000
  70
    32
  0
VERTEX
  8
0
  5
3FD
 10
-11.8041
 20
57.0964
 30
0.000000
  70
    32
  0
VERTEX
  8
0
  5
3FE
 10
-12.1481
 20
56.9119
 30
0.000000
  70
    32
  0
VERTEX
  8
0
  5
3FF
 10
-12.4911
 20
56.7228
 30
0.000000
  70
    32
  0
VERTEX
  8
0
  5
400
 10
-12.8330
 20
56.5290
 30
0.000000
  70
    32
  0
VERTEX
  8
0
  5
401
 10
-13.1739
 20
56.3307
 30
0.000000
  70
    32
  0
VERTEX
  8
0
  5
402
 10
-13.5138
 20
56.1277
 30
0.000000
  70
    32
  0
VERTEX
  8
0
  5
403
 10
-13.8526
 20
55.9200
 30
0.000000
  70
    32
  0
VERTEX
  8
0
  5
404
 10
-14.1903
 20
55.7078
 30
0.000000
  70
    32
  0
VERTEX
  8
0
  5
405
 10
-14.5270
 20
55.4909
 30
0.000000
  70
    32
  0
VERTEX
  8
0
  5
406
 10
-14.8627
 20
55.2694
 30
0.000000
  70
    32
  0
VERTEX
  8
0
  5
407
 10
-15.1974
 20
55.0433
 30
0.000000
  70
    32
  0
VERTEX
  8
0
  5
408
 10
-15.5310
 20
54.8125
 30
0.000000
  70
    32
  0
VERTEX
  8
0
  5
409
 10
-15.8635
 20
54.5771
 30
0.000000
  70
    32
  0
VERTEX
  8
0
  5
40A
 10
-16.1950
 20
54.3371
 30
0.000000
  70
    32
  0
VERTEX
  8
0
  5
40B
 10
-16.5255
 20
54.0925
 30
0.000000
  70
    32
  0
VERTEX
  8
0
  5
40C
 10
-16.8550
 20
53.8432
 30
0.000000
  70
    32
  0
VERTEX
  8
0
  5
40D
 10
-17.1834
 20
53.5893
 30
0.000000
  70
    32
  0
VERTEX
  8
0
  5
40E
 10
-17.5107
 20
53.3307
 30
0.000000
  70
    32
  0
VERTEX
  8
0
  5
40F
 10
-17.8370
 20
53.0676
 30
0.000000
  70
    32
  0
VERTEX
  8
0
  5
410
 10
-18.1623
 20
52.7998
 30
0.000000
  70
    32
  0
VERTEX
  8
0
  5
411
 10
-18.4865
 20
52.5274
 30
0.000000
  70
    32
  0
VERTEX
  8
0
  5
412
 10
-18.8097
 20
52.2503
 30
0.000000
  70
    32
  0
VERTEX
  8
0
  5
413
 10
-19.1319
 20
51.9687
 30
0.000000
  70
    32
  0
VERTEX
  8
0
  5
414
 10
-19.4530
 20
51.6824
 30
0.000000
  70
    32
  0
VERTEX
  8
0
  5
415
 10
-19.7731
 20
51.3915
 30
0.000000
  70
    32
  0
VERTEX
  8
0
  5
416
 10
-20.0921
 20
51.0959
 30
0.000000
  70
    32
  0
VERTEX
  8
0
  5
417
 10
-20.4101
 20
50.7957
 30
0.000000
  70
    32
  0
VERTEX
  8
0
  5
418
 10
-20.7270
 20
50.4909
 30
0.000000
  70
    32
  0
VERTEX
  8
0
  5
419
 10
-21.0430
 20
50.1815
 30
0.000000
  70
    32
  0
VERTEX
  8
0
  5
41A
 10
-21.3578
 20
49.8674
 30
0.000000
  70
    32
  0
VERTEX
  8
0
  5
41B
 10
-21.6716
 20
49.5487
 30
0.000000
  70
    32
  0
VERTEX
  8
0
  5
41C
 10
-21.9844
 20
49.2254
 30
0.000000
  70
    32
  0
VERTEX
  8
0
  5
41D
 10
-22.2962
 20
48.8975
 30
0.000000
  70
    32
  0
VERTEX
  8
0
  5
41E
 10
-22.6069
 20
48.5649
 30
0.000000
  70
    32
  0
VERTEX
  8
0
  5
41F
 10
-22.9166
 20
48.2277
 30
0.000000
  70
    32
  0
VERTEX
  8
0
  5
420
 10
-23.2252
 20
47.8858
 30
0.000000
  70
    32
  0
VERTEX
  8
0
  5
421
 10
-23.5328
 20
47.5394
 30
0.000000
  70
    32
  0
VERTEX
  8
0
  5
422
 10
-23.8393
 20
47.1883
 30
0.000000
  70
    32
  0
VERTEX
  8
0
  5
423
 10
-24.1448
 20
46.8326
 30
0.000000
  70
    32
  0
VERTEX
  8
0
  5
424
 10
-24.4493
 20
46.4722
 30
0.000000
  70
    32
  0
VERTEX
  8
0
  5
425
 10
-24.7527
 20
46.1073
 30
0.000000
  70
    32
  0
VERTEX
  8
0
  5
426
 10
-25.0551
 20
45.7377
 30
0.000000
  70
    32
  0
VERTEX
  8
0
  5
427
 10
-25.3564
 20
45.3634
 30
0.000000
  70
    32
  0
VERTEX
  8
0
  5
428
 10
-25.6567
 20
44.9846
 30
0.000000
  70
    32
  0
VERTEX
  8
0
  5
429
 10
-25.9560
 20
44.6011
 30
0.000000
  70
    32
  0
VERTEX
  8
0
  5
42A
 10
-26.2542
 20
44.2130
 30
0.000000
  70
    32
  0
VERTEX
  8
0
  5
42B
 10
-26.5514
 20
43.8203
 30
0.000000
  70
    32
  0
VERTEX
  8
0
  5
42C
 10
-26.8475
 20
43.4229
 30
0.000000
  70
    32
  0
VERTEX
  8
0
  5
42D
 10
-27.1426
 20
43.0209
 30
0.000000
  70
    32
  0
VERTEX
  8
0
  5
42E
 10
-27.4366
 20
42.6143
 30
0.000000
  70
    32
  0
VERTEX
  8
0
  5
42F
 10
-27.7297
 20
42.2030
 30
0.000000
  70
    32
  0
VERTEX
  8
0
  5
430
 10
-28.0216
 20
41.7872
 30
0.000000
  70
    32
  0
VERTEX
  8
0
  5
431
 10
-28.3126
 20
41.3667
 30
0.000000
  70
    32
  0
VERTEX
  8
0
  5
432
 10
-28.6025
 20
40.9415
 30
0.000000
  70
    32
  0
VERTEX
  8
0
  5
433
 10
-28.8913
 20
40.5118
 30
0.000000
  70
    32
  0
VERTEX
  8
0
  5
434
 10
-29.1791
 20
40.0774
 30
0.000000
  70
    32
  0
VERTEX
  8
0
  5
435
 10
-29.4659
 20
39.6384
 30
0.000000
  70
    32
  0
VERTEX
  8
0
  5
436
 10
-29.7516
 20
39.1947
 30
0.000000
  70
    32
  0
VERTEX
  8
0
  5
437
 10
-30.0363
 20
38.7464
 30
0.000000
  70
    32
  0
VERTEX
  8
0
  5
438
 10
-30.3200
 20
38.2935
 30
0.000000
  70
    32
  0
VERTEX
  8
0
  5
439
 10
-30.6026
 20
37.8360
 30
0.000000
  70
    32
  0
VERTEX
  8
0
  5
43A
 10
-30.8841
 20
37.3739
 30
0.000000
  70
    32
  0
VERTEX
  8
0
  5
43B
 10
-31.1647
 20
36.9071
 30
0.000000
  70
    32
  0
VERTEX
  8
0
  5
43C
 10
-31.4442
 20
36.4357
 30
0.000000
  70
    32
  0
VERTEX
  8
0
  5
43D
 10
-31.7226
 20
35.9596
 30
0.000000
  70
    32
  0
VERTEX
  8
0
  5
43E
 10
-32.0000
 20
35.4790
 30
0.000000
  70
    32
  0
SEQEND
  8
0
  5
43F
  0
ARC
  5
13A
  8
0
 10
0.0000000000026201
 20
51.80829279426132
 30
0.0
 40
8.7281470750979384
 50
83.421069082252487
 51
96.57893091773866
  0
POLYLINE
  8
0
  5
440
  66
     1
 10
0.000000
 20
0.000000
 30
0.000000
  70
     8
  0
VERTEX
  8
0
  5
441
 10
32.0000
 20
35.4790
 30
0.000000
  70
    32
  0
VERTEX
  8
0
  5
442
 10
31.7226
 20
35.9596
 30
0.000000
  70
    32
  0
VERTEX
  8
0
  5
443
 10
31.4442
 20
36.4357
 30
0.000000
  70
    32
  0
VERTEX
  8
0
  5
444
 10
31.1647
 20
36.9071
 30
0.000000
  70
    32
  0
VERTEX
  8
0
  5
445
 10
30.8841
 20
37.3739
 30
0.000000
  70
    32
  0
VERTEX
  8
0
  5
446
 10
30.6026
 20
37.8360
 30
0.000000
  70
    32
  0
VERTEX
  8
0
  5
447
 10
30.3200
 20
38.2935
 30
0.000000
  70
    32
  0
VERTEX
  8
0
  5
448
 10
30.0363
 20
38.7464
 30
0.000000
  70
    32
  0
VERTEX
  8
0
  5
449
 10
29.7516
 20
39.1947
 30
0.000000
  70
    32
  0
VERTEX
  8
0
  5
44A
 10
29.4659
 20
39.6384
 30
0.000000
  70
    32
  0
VERTEX
  8
0
  5
44B
 10
29.1791
 20
40.0774
 30
0.000000
  70
    32
  0
VERTEX
  8
0
  5
44C
 10
28.8913
 20
40.5118
 30
0.000000
  70
    32
  0
VERTEX
  8
0
  5
44D
 10
28.6025
 20
40.9415
 30
0.000000
  70
    32
  0
VERTEX
  8
0
  5
44E
 10
28.3126
 20
41.3667
 30
0.000000
  70
    32
  0
VERTEX
  8
0
  5
44F
 10
28.0216
 20
41.7872
 30
0.000000
  70
    32
  0
VERTEX
  8
0
  5
450
 10
27.7297
 20
42.2030
 30
0.000000
  70
    32
  0
VERTEX
  8
0
  5
451
 10
27.4366
 20
42.6143
 30
0.000000
  70
    32
  0
VERTEX
  8
0
  5
452
 10
27.1426
 20
43.0209
 30
0.000000
  70
    32
  0
VERTEX
  8
0
  5
453
 10
26.8475
 20
43.4229
 30
0.000000
  70
    32
  0
VERTEX
  8
0
  5
454
 10
26.5514
 20
43.8203
 30
0.000000
  70
    32
  0
VERTEX
  8
0
  5
455
 10
26.2542
 20
44.2130
 30
0.000000
  70
    32
  0
VERTEX
  8
0
  5
456
 10
25.9560
 20
44.6011
 30
0.000000
  70
    32
  0
VERTEX
  8
0
  5
457
 10
25.6567
 20
44.9846
 30
0.000000
  70
    32
  0
VERTEX
  8
0
  5
458
 10
25.3564
 20
45.3634
 30
0.000000
  70
    32
  0
VERTEX
  8
0
  5
459
 10
25.0551
 20
45.7377
 30
0.000000
  70
    32
  0
VERTEX
  8
0
  5
45A
 10
24.7527
 20
46.1073
 30
0.000000
  70
    32
  0
VERTEX
  8
0
  5
45B
 10
24.4493
 20
46.4722
 30
0.000000
  70
    32
  0
VERTEX
  8
0
  5
45C
 10
24.1448
 20
46.8326
 30
0.000000
  70
    32
  0
VERTEX
  8
0
  5
45D
 10
23.8393
 20
47.1883
 30
0.000000
  70
    32
  0
VERTEX
  8
0
  5
45E
 10
23.5328
 20
47.5394
 30
0.000000
  70
    32
  0
VERTEX
  8
0
  5
45F
 10
23.2252
 20
47.8858
 30
0.000000
  70
    32
  0
VERTEX
  8
0
  5
460
 10
22.9166
 20
48.2277
 30
0.000000
  70
    32
  0
VERTEX
  8
0
  5
461
 10
22.6069
 20
48.5649
 30
0.000000
  70
    32
  0
VERTEX
  8
0
  5
462
 10
22.2962
 20
48.8975
 30
0.000000
  70
    32
  0
VERTEX
  8
0
  5
463
 10
21.9844
 20
49.2254
 30
0.000000
  70
    32
  0
VERTEX
  8
0
  5
464
 10
21.6716
 20
49.5487
 30
0.000000
  70
    32
  0
VERTEX
  8
0
  5
465
 10
21.3578
 20
49.8674
 30
0.000000
  70
    32
  0
VERTEX
  8
0
  5
466
 10
21.0430
 20
50.1815
 30
0.000000
  70
    32
  0
VERTEX
  8
0
  5
467
 10
20.7270
 20
50.4909
 30
0.000000
  70
    32
  0
VERTEX
  8
0
  5
468
 10
20.4101
 20
50.7957
 30
0.000000
  70
    32
  0
VERTEX
  8
0
  5
469
 10
20.0921
 20
51.0959
 30
0.000000
  70
    32
  0
VERTEX
  8
0
  5
46A
 10
19.7731
 20
51.3915
 30
0.000000
  70
    32
  0
VERTEX
  8
0
  5
46B
 10
19.4530
 20
51.6824
 30
0.000000
  70
    32
  0
VERTEX
  8
0
  5
46C
 10
19.1319
 20
51.9687
 30
0.000000
  70
    32
  0
VERTEX
  8
0
  5
46D
 10
18.8097
 20
52.2503
 30
0.000000
  70
    32
  0
VERTEX
  8
0
  5
46E
 10
18.4865
 20
52.5274
 30
0.000000
  70
    32
  0
VERTEX
  8
0
  5
46F
 10
18.1623
 20
52.7998
 30
0.000000
  70
    32
  0
VERTEX
  8
0
  5
470
 10
17.8370
 20
53.0676
 30
0.000000
  70
    32
  0
VERTEX
  8
0
  5
471
 10
17.5107
 20
53.3307
 30
0.000000
  70
    32
  0
VERTEX
  8
0
  5
472
 10
17.1834
 20
53.5893
 30
0.000000
  70
    32
  0
VERTEX
  8
0
  5
473
 10
16.8550
 20
53.8432
 30
0.000000
  70
    32
  0
VERTEX
  8
0
  5
474
 10
16.5255
 20
54.0925
 30
0.000000
  70
    32
  0
VERTEX
  8
0
  5
475
 10
16.1950
 20
54.3371
 30
0.000000
  70
    32
  0
VERTEX
  8
0
  5
476
 10
15.8635
 20
54.5771
 30
0.000000
  70
    32
  0
VERTEX
  8
0
  5
477
 10
15.5310
 20
54.8125
 30
0.000000
  70
    32
  0
VERTEX
  8
0
  5
478
 10
15.1974
 20
55.0433
 30
0.000000
  70
    32
  0
VERTEX
  8
0
  5
479
 10
14.8627
 20
55.2694
 30
0.000000
  70
    32
  0
VERTEX
  8
0
  5
47A
 10
14.5270
 20
55.4909
 30
0.000000
  70
    32
  0
VERTEX
  8
0
  5
47B
 10
14.1903
 20
55.7078
 30
0.000000
  70
    32
  0
VERTEX
  8
0
  5
47C
 10
13.8526
 20
55.9200
 30
0.000000
  70
    32
  0
VERTEX
  8
0
  5
47D
 10
13.5138
 20
56.1277
 30
0.000000
  70
    32
  0
VERTEX
  8
0
  5
47E
 10
13.1739
 20
56.3307
 30
0.000000
  70
    32
  0
VERTEX
  8
0
  5
47F
 10
12.8330
 20
56.5290
 30
0.000000
  70
    32
  0
VERTEX
  8
0
  5
480
 10
12.4911
 20
56.7228
 30
0.000000
  70
    32
  0
VERTEX
  8
0
  5
481
 10
12.1481
 20
56.9119
 30
0.000000
  70
    32
  0
VERTEX
  8
0
  5
482
 10
11.8041
 20
57.0964
 30
0.000000
  70
    32
  0
VERTEX
  8
0
  5
483
 10
11.4591
 20
57.2762
 30
0.000000
  70
    32
  0
VERTEX
  8
0
  5
484
 10
11.1130
 20
57.4515
 30
0.000000
  70
    32
  0
VERTEX
  8
0
  5
485
 10
10.7659
 20
57.6221
 30
0.000000
  70
    32
  0
VERTEX
  8
0
  5
486
 10
10.4177
 20
57.7880
 30
0.000000
  70
    32
  0
VERTEX
  8
0
  5
487
 10
10.0685
 20
57.9494
 30
0.000000
  70
    32
  0
VERTEX
  8
0
  5
488
 10
9.71823
 20
58.1061
 30
0.000000
  70
    32
  0
VERTEX
  8
0
  5
489
 10
9.36694
 20
58.2582
 30
0.000000
  70
    32
  0
VERTEX
  8
0
  5
48A
 10
9.01460
 20
58.4056
 30
0.000000
  70
    32
  0
VERTEX
  8
0
  5
48B
 10
8.66123
 20
58.5485
 30
0.000000
  70
    32
  0
VERTEX
  8
0
  5
48C
 10
8.30682
 20
58.6867
 30
0.000000
  70
    32
  0
VERTEX
  8
0
  5
48D
 10
7.95136
 20
58.8203
 30
0.000000
  70
    32
  0
VERTEX
  8
0
  5
48E
 10
7.59487
 20
58.9492
 30
0.000000
  70
    32
  0
VERTEX
  8
0
  5
48F
 10
7.23733
 20
59.0735
 30
0.000000
  70
    32
  0
VERTEX
  8
0
  5
490
 10
6.87875
 20
59.1932
 30
0.000000
  70
    32
  0
VERTEX
  8
0
  5
491
 10
6.51914
 20
59.3083
 30
0.000000
  70
    32
  0
VERTEX
  8
0
  5
492
 10
6.15848
 20
59.4187
 30
0.000000
  70
    32
  0
VERTEX
  8
0
  5
493
 10
5.79678
 20
59.5246
 30
0.000000
  70
    32
  0
VERTEX
  8
0
  5
494
 10
5.43404
 20
59.6257
 30
0.000000
  70
    32
  0
VERTEX
  8
0
  5
495
 10
5.07026
 20
59.7223
 30
0.000000
  70
    32
  0
VERTEX
  8
0
  5
496
 10
4.70544
 20
59.8142
 30
0.000000
  70
    32
  0
VERTEX
  8
0
  5
497
 10
4.33958
 20
59.9015
 30
0.000000
  70
    32
  0
VERTEX
  8
0
  5
498
 10
3.97268
 20
59.9842
 30
0.000000
  70
    32
  0
VERTEX
  8
0
  5
499
 10
3.60474
 20
60.0622
 30
0.000000
  70
    32
  0
VERTEX
  8
0
  5
49A
 10
3.23575
 20
60.1357
 30
0.000000
  70
    32
  0
VERTEX
  8
0
  5
49B
 10
2.86573
 20
60.2044
 30
0.000000
  70
    32
  0
VERTEX
  8
0
  5
49C
 10
2.49466
 20
60.2686
 30
0.000000
  70
    32
  0
VERTEX
  8
0
  5
49D
 10
2.12256
 20
60.3281
 30
0.000000
  70
    32
  0
VERTEX
  8
0
  5
49E
 10
1.74941
 20
60.3830
 30
0.000000
  70
    32
  0
VERTEX
  8
0
  5
49F
 10
1.37523
 20
60.4333
 30
0.000000
  70
    32
  0
VERTEX
  8
0
  5
4A0
 10
1.00000
 20
60.4790
 30
0.000000
  70
    32
  0
SEQEND
  8
0
  5
4A1
  0
ENDSEC
  0
EOF
