<?xml version="1.0" standalone="no"?>
 <!DOCTYPE svg PUBLIC "-//W3C//DTD SVG 1.1//EN" 
 "http://www.w3.org/Graphics/SVG/1.1/DTD/svg11.dtd"> 
<svg xmlns="http://www.w3.org/2000/svg" version="1.1" 
    width="8.49122cm" height="8.86968cm" viewBox="0 0 33430 34920 ">
<title>SVG Picture created as RX631.svg date 2016/02/20 17:34:54 </title>
  <desc>Picture generated by Eeschema-SVG </desc>
<g style="fill:#000000; fill-opacity:1;stroke:#000000; stroke-opacity:1;
stroke-linecap:round; stroke-linejoin:round; "
 transform="translate(0 0) scale(1 1)">
</g>
<g style="fill:#000000; fill-opacity:0.0; 
stroke:#000000; stroke-width:-10; stroke-opacity:1; 
stroke-linecap:round; stroke-linejoin:round;">
</g>
<g style="fill:#000000; fill-opacity:0.0; 
stroke:#000000; stroke-width:60; stroke-opacity:1; 
stroke-linecap:round; stroke-linejoin:round;">
<path d="M6710 16960
L8710 16960
" />
<path d="M4730 17190
L4730 16690
L4920 16690
L4970 16710
L4990 16730
L5010 16780
L5010 16850
L4990 16900
L4970 16920
L4920 16950
L4730 16950
" />
<path d="M5440 16850
L5440 17190
" />
<path d="M5320 16660
L5210 17020
L5510 17020
" />
<path d="M5660 16690
L5970 16690
L5800 16880
L5880 16880
L5920 16900
L5950 16920
L5970 16970
L5970 17090
L5950 17140
L5920 17160
L5880 17190
L5730 17190
L5690 17160
L5660 17140
" />
<path d="M7590 16340
L7350 16340
L7330 16570
L7350 16550
L7400 16530
L7520 16530
L7560 16550
L7590 16570
L7610 16620
L7610 16740
L7590 16790
L7560 16810
L7520 16840
L7400 16840
L7350 16810
L7330 16790
" />
<path d="M8040 16340
L7950 16340
L7900 16360
L7880 16380
L7830 16460
L7810 16550
L7810 16740
L7830 16790
L7850 16810
L7900 16840
L8000 16840
L8040 16810
L8070 16790
L8090 16740
L8090 16620
L8070 16570
L8040 16550
L8000 16530
L7900 16530
L7850 16550
L7830 16570
L7810 16620
" />
<path d="M16210 27460
L16210 25460
" />
<path d="M15940 29440
L16440 29280
L15940 29110
" />
<path d="M16410 28960
L16440 28890
L16440 28770
L16410 28730
L16390 28700
L16340 28680
L16290 28680
L16250 28700
L16220 28730
L16200 28770
L16170 28870
L16150 28920
L16130 28940
L16080 28960
L16030 28960
L15980 28940
L15960 28920
L15940 28870
L15940 28750
L15960 28680
" />
<path d="M16410 28480
L16440 28410
L16440 28290
L16410 28250
L16390 28220
L16340 28200
L16290 28200
L16250 28220
L16220 28250
L16200 28290
L16170 28390
L16150 28440
L16130 28460
L16080 28480
L16030 28480
L15980 28460
L15960 28440
L15940 28390
L15940 28270
L15960 28200
" />
<path d="M15800 26510
L15780 26560
L15750 26580
L15710 26600
L15680 26600
L15630 26580
L15610 26560
L15590 26510
L15590 26410
L15610 26370
L15630 26340
L15680 26320
L15710 26320
L15750 26340
L15780 26370
L15800 26410
L15800 26510
L15820 26560
L15850 26580
L15900 26600
L15990 26600
L16040 26580
L16060 26560
L16090 26510
L16090 26410
L16060 26370
L16040 26340
L15990 26320
L15900 26320
L15850 26340
L15820 26370
L15800 26410
" />
<path d="M17210 7460
L17210 9460
" />
<path d="M16940 6770
L17440 6610
L16940 6440
" />
<path d="M17410 6290
L17440 6220
L17440 6100
L17410 6060
L17390 6030
L17340 6010
L17290 6010
L17250 6030
L17220 6060
L17200 6100
L17170 6200
L17150 6250
L17130 6270
L17080 6290
L17030 6290
L16980 6270
L16960 6250
L16940 6200
L16940 6080
L16960 6010
" />
<path d="M17410 5810
L17440 5740
L17440 5620
L17410 5580
L17390 5550
L17340 5530
L17290 5530
L17250 5550
L17220 5580
L17200 5620
L17170 5720
L17150 5770
L17130 5790
L17080 5810
L17030 5810
L16980 5790
L16960 5770
L16940 5720
L16940 5600
L16960 5530
" />
<path d="M16750 8610
L17090 8610
" />
<path d="M16560 8730
L16920 8840
L16920 8540
" />
<path d="M16590 8250
L16590 8200
L16610 8150
L16630 8130
L16680 8100
L16780 8080
L16900 8080
L16990 8100
L17040 8130
L17060 8150
L17090 8200
L17090 8250
L17060 8290
L17040 8320
L16990 8340
L16900 8360
L16780 8360
L16680 8340
L16630 8320
L16610 8290
L16590 8250
" />
<path d="M26710 16960
L24710 16960
" />
<path d="M27470 17190
L27470 16690
L27660 16690
L27710 16710
L27730 16730
L27750 16780
L27750 16850
L27730 16900
L27710 16920
L27660 16950
L27470 16950
" />
<path d="M28210 16690
L27970 16690
L27950 16920
L27970 16900
L28020 16880
L28140 16880
L28180 16900
L28210 16920
L28230 16970
L28230 17090
L28210 17140
L28180 17160
L28140 17190
L28020 17190
L27970 17160
L27950 17140
" />
<path d="M28690 16690
L28450 16690
L28430 16920
L28450 16900
L28500 16880
L28620 16880
L28660 16900
L28690 16920
L28710 16970
L28710 17090
L28690 17140
L28660 17160
L28620 17190
L28500 17190
L28450 17160
L28430 17140
" />
<path d="M25330 16380
L25350 16360
L25400 16340
L25520 16340
L25560 16360
L25590 16380
L25610 16430
L25610 16480
L25590 16550
L25300 16840
L25610 16840
" />
<path d="M26070 16340
L25830 16340
L25810 16570
L25830 16550
L25880 16530
L26000 16530
L26040 16550
L26070 16570
L26090 16620
L26090 16740
L26070 16790
L26040 16810
L26000 16840
L25880 16840
L25830 16810
L25810 16790
" />
<path d="M6710 17960
L8710 17960
" />
<path d="M4730 18190
L4730 17690
L4920 17690
L4970 17710
L4990 17730
L5010 17780
L5010 17850
L4990 17900
L4970 17920
L4920 17950
L4730 17950
" />
<path d="M5440 17850
L5440 18190
" />
<path d="M5320 17660
L5210 18020
L5510 18020
" />
<path d="M5690 17730
L5710 17710
L5760 17690
L5880 17690
L5920 17710
L5950 17730
L5970 17780
L5970 17830
L5950 17900
L5660 18190
L5970 18190
" />
<path d="M7590 17340
L7350 17340
L7330 17570
L7350 17550
L7400 17530
L7520 17530
L7560 17550
L7590 17570
L7610 17620
L7610 17740
L7590 17790
L7560 17810
L7520 17840
L7400 17840
L7350 17810
L7330 17790
" />
<path d="M7780 17340
L8110 17340
L7900 17840
" />
<path d="M16210 7460
L16210 9460
" />
<path d="M16440 6700
L15940 6700
L15940 6510
L15960 6460
L15980 6440
L16030 6420
L16100 6420
L16150 6440
L16170 6460
L16200 6510
L16200 6700
" />
<path d="M16290 6220
L16290 5990
" />
<path d="M16440 6270
L15940 6110
L16440 5940
" />
<path d="M15940 5560
L15940 5650
L15960 5700
L15980 5720
L16060 5770
L16150 5790
L16340 5790
L16390 5770
L16410 5750
L16440 5700
L16440 5600
L16410 5560
L16390 5530
L16340 5510
L16220 5510
L16170 5530
L16150 5560
L16130 5600
L16130 5700
L16150 5750
L16170 5770
L16220 5790
" />
<path d="M15750 8610
L16090 8610
" />
<path d="M15560 8730
L15920 8840
L15920 8540
" />
<path d="M16090 8080
L16090 8360
" />
<path d="M16090 8220
L15590 8220
L15660 8270
L15710 8320
L15730 8360
" />
<path d="M17210 27460
L17210 25460
" />
<path d="M17440 32100
L16940 32100
L16940 31910
L16960 31860
L16980 31840
L17030 31820
L17100 31820
L17150 31840
L17170 31860
L17200 31910
L17200 32100
" />
<path d="M16940 31650
L16940 31340
L17130 31510
L17130 31430
L17150 31390
L17170 31360
L17220 31340
L17340 31340
L17390 31360
L17410 31390
L17440 31430
L17440 31580
L17410 31620
L17390 31650
" />
<path d="M16940 30910
L16940 31000
L16960 31050
L16980 31070
L17060 31120
L17150 31140
L17340 31140
L17390 31120
L17410 31100
L17440 31050
L17440 30950
L17410 30910
L17390 30880
L17340 30860
L17220 30860
L17170 30880
L17150 30910
L17130 30950
L17130 31050
L17150 31100
L17170 31120
L17220 31140
" />
<path d="M16910 30280
L17560 30710
" />
<path d="M17170 30120
L17170 29950
" />
<path d="M17440 29880
L17440 30120
L16940 30120
L16940 29880
" />
<path d="M16940 29720
L17440 29390
" />
<path d="M16940 29390
L17440 29720
" />
<path d="M16940 29260
L16940 28980
" />
<path d="M17440 29120
L16940 29120
" />
<path d="M17290 28830
L17290 28600
" />
<path d="M17440 28880
L16940 28720
L17440 28550
" />
<path d="M17440 28140
L17440 28380
L16940 28380
" />
<path d="M17090 26560
L17090 26460
L17060 26410
L17040 26390
L16970 26340
L16870 26320
L16680 26320
L16630 26340
L16610 26370
L16590 26410
L16590 26510
L16610 26560
L16630 26580
L16680 26600
L16800 26600
L16850 26580
L16870 26560
L16900 26510
L16900 26410
L16870 26370
L16850 26340
L16800 26320
" />
<path d="M26710 17960
L24710 17960
" />
<path d="M27400 17690
L27560 18190
L27730 17690
" />
<path d="M27880 18160
L27950 18190
L28070 18190
L28110 18160
L28140 18140
L28160 18090
L28160 18040
L28140 18000
L28110 17970
L28070 17950
L27970 17920
L27920 17900
L27900 17880
L27880 17830
L27880 17780
L27900 17730
L27920 17710
L27970 17690
L28090 17690
L28160 17710
" />
<path d="M28360 18160
L28430 18190
L28550 18190
L28590 18160
L28620 18140
L28640 18090
L28640 18040
L28620 18000
L28590 17970
L28550 17950
L28450 17920
L28400 17900
L28380 17880
L28360 17830
L28360 17780
L28380 17730
L28400 17710
L28450 17690
L28570 17690
L28640 17710
" />
<path d="M28740 18230
L29120 18230
" />
<path d="M29240 17690
L29240 18090
L29260 18140
L29290 18160
L29330 18190
L29430 18190
L29480 18160
L29500 18140
L29520 18090
L29520 17690
" />
<path d="M29740 18160
L29810 18190
L29930 18190
L29970 18160
L30000 18140
L30020 18090
L30020 18040
L30000 18000
L29970 17970
L29930 17950
L29830 17920
L29780 17900
L29760 17880
L29740 17830
L29740 17780
L29760 17730
L29780 17710
L29830 17690
L29950 17690
L30020 17710
" />
<path d="M30410 17920
L30480 17950
L30500 17970
L30520 18020
L30520 18090
L30500 18140
L30480 18160
L30430 18190
L30240 18190
L30240 17690
L30410 17690
L30450 17710
L30480 17730
L30500 17780
L30500 17830
L30480 17880
L30450 17900
L30410 17920
L30240 17920
" />
<path d="M25330 17380
L25350 17360
L25400 17340
L25520 17340
L25560 17360
L25590 17380
L25610 17430
L25610 17480
L25590 17550
L25300 17840
L25610 17840
" />
<path d="M26040 17500
L26040 17840
" />
<path d="M25920 17310
L25810 17670
L26110 17670
" />
<path d="M6710 18960
L8710 18960
" />
<path d="M4730 19190
L4730 18690
L4920 18690
L4970 18710
L4990 18730
L5010 18780
L5010 18850
L4990 18900
L4970 18920
L4920 18950
L4730 18950
" />
<path d="M5440 18850
L5440 19190
" />
<path d="M5320 18660
L5210 19020
L5510 19020
" />
<path d="M5970 19190
L5690 19190
" />
<path d="M5830 19190
L5830 18690
L5780 18760
L5730 18810
L5690 18830
" />
<path d="M7590 18340
L7350 18340
L7330 18570
L7350 18550
L7400 18530
L7520 18530
L7560 18550
L7590 18570
L7610 18620
L7610 18740
L7590 18790
L7560 18810
L7520 18840
L7400 18840
L7350 18810
L7330 18790
" />
<path d="M7900 18550
L7850 18530
L7830 18500
L7810 18460
L7810 18430
L7830 18380
L7850 18360
L7900 18340
L8000 18340
L8040 18360
L8070 18380
L8090 18430
L8090 18460
L8070 18500
L8040 18530
L8000 18550
L7900 18550
L7850 18570
L7830 18600
L7810 18650
L7810 18740
L7830 18790
L7850 18810
L7900 18840
L8000 18840
L8040 18810
L8070 18790
L8090 18740
L8090 18650
L8070 18600
L8040 18570
L8000 18550
" />
<path d="M15210 7460
L15210 9460
" />
<path d="M15440 6700
L14940 6700
L14940 6510
L14960 6460
L14980 6440
L15030 6420
L15100 6420
L15150 6440
L15170 6460
L15200 6510
L15200 6700
" />
<path d="M15290 6220
L15290 5990
" />
<path d="M15440 6270
L14940 6110
L15440 5940
" />
<path d="M15100 5560
L15440 5560
" />
<path d="M14910 5680
L15270 5790
L15270 5490
" />
<path d="M14750 8610
L15090 8610
" />
<path d="M14560 8730
L14920 8840
L14920 8540
" />
<path d="M14630 8360
L14610 8340
L14590 8290
L14590 8170
L14610 8130
L14630 8100
L14680 8080
L14730 8080
L14800 8100
L15090 8390
L15090 8080
" />
<path d="M18210 27460
L18210 25460
" />
<path d="M17940 29480
L18440 29320
L17940 29150
" />
<path d="M18390 28700
L18410 28720
L18440 28790
L18440 28840
L18410 28910
L18360 28960
L18320 28980
L18220 29000
L18150 29000
L18060 28980
L18010 28960
L17960 28910
L17940 28840
L17940 28790
L17960 28720
L17980 28700
" />
<path d="M18390 28200
L18410 28220
L18440 28290
L18440 28340
L18410 28410
L18360 28460
L18320 28480
L18220 28500
L18150 28500
L18060 28480
L18010 28460
L17960 28410
L17940 28340
L17940 28290
L17960 28220
L17980 28200
" />
<path d="M18090 26560
L18090 26840
" />
<path d="M18090 26700
L17590 26700
L17660 26750
L17710 26800
L17730 26840
" />
<path d="M17590 26250
L17590 26200
L17610 26150
L17630 26130
L17680 26100
L17780 26080
L17900 26080
L17990 26100
L18040 26130
L18060 26150
L18090 26200
L18090 26250
L18060 26290
L18040 26320
L17990 26340
L17900 26360
L17780 26360
L17680 26340
L17630 26320
L17610 26290
L17590 26250
" />
<path d="M26710 18960
L24710 18960
" />
<path d="M27470 18690
L27470 19090
L27490 19140
L27520 19160
L27560 19190
L27660 19190
L27710 19160
L27730 19140
L27750 19090
L27750 18690
" />
<path d="M27970 19160
L28040 19190
L28160 19190
L28200 19160
L28230 19140
L28250 19090
L28250 19040
L28230 19000
L28200 18970
L28160 18950
L28060 18920
L28010 18900
L27990 18880
L27970 18830
L27970 18780
L27990 18730
L28010 18710
L28060 18690
L28180 18690
L28250 18710
" />
<path d="M28640 18920
L28710 18950
L28730 18970
L28750 19020
L28750 19090
L28730 19140
L28710 19160
L28660 19190
L28470 19190
L28470 18690
L28640 18690
L28680 18710
L28710 18730
L28730 18780
L28730 18830
L28710 18880
L28680 18900
L28640 18920
L28470 18920
" />
<path d="M29060 18690
L29110 18690
L29160 18710
L29180 18730
L29210 18780
L29230 18880
L29230 19000
L29210 19090
L29180 19140
L29160 19160
L29110 19190
L29060 19190
L29020 19160
L28990 19140
L28970 19090
L28950 19000
L28950 18880
L28970 18780
L28990 18730
L29020 18710
L29060 18690
" />
<path d="M29330 19230
L29710 19230
" />
<path d="M29830 19190
L29830 18690
L29950 18690
L30020 18710
L30070 18760
L30090 18810
L30110 18900
L30110 18970
L30090 19070
L30070 19110
L30020 19160
L29950 19190
L29830 19190
" />
<path d="M30330 19190
L30330 18690
L30520 18690
L30570 18710
L30590 18730
L30610 18780
L30610 18850
L30590 18900
L30570 18920
L30520 18950
L30330 18950
" />
<path d="M25330 18380
L25350 18360
L25400 18340
L25520 18340
L25560 18360
L25590 18380
L25610 18430
L25610 18480
L25590 18550
L25300 18840
L25610 18840
" />
<path d="M25780 18340
L26090 18340
L25920 18530
L26000 18530
L26040 18550
L26070 18570
L26090 18620
L26090 18740
L26070 18790
L26040 18810
L26000 18840
L25850 18840
L25810 18810
L25780 18790
" />
<path d="M6710 9960
L8710 9960
" />
<path d="M4760 10190
L4760 9690
L4950 9690
L5000 9710
L5020 9730
L5040 9780
L5040 9850
L5020 9900
L5000 9920
L4950 9950
L4760 9950
" />
<path d="M5260 9920
L5430 9920
" />
<path d="M5500 10190
L5260 10190
L5260 9690
L5500 9690
" />
<path d="M5690 9730
L5710 9710
L5760 9690
L5880 9690
L5920 9710
L5950 9730
L5970 9780
L5970 9830
L5950 9900
L5660 10190
L5970 10190
" />
<path d="M7560 9500
L7560 9840
" />
<path d="M7440 9310
L7330 9670
L7630 9670
" />
<path d="M7850 9840
L7950 9840
L8000 9810
L8020 9790
L8070 9720
L8090 9620
L8090 9430
L8070 9380
L8040 9360
L8000 9340
L7900 9340
L7850 9360
L7830 9380
L7810 9430
L7810 9550
L7830 9600
L7850 9620
L7900 9650
L8000 9650
L8040 9620
L8070 9600
L8090 9550
" />
<path d="M9210 27460
L9210 25460
" />
<path d="M9170 29850
L9170 29680
" />
<path d="M9440 29610
L9440 29850
L8940 29850
L8940 29610
" />
<path d="M9440 29400
L8940 29400
L9290 29230
L8940 29070
L9440 29070
" />
<path d="M9440 28590
L9440 28830
L8940 28830
" />
<path d="M9170 28430
L9170 28260
" />
<path d="M9440 28190
L9440 28430
L8940 28430
L8940 28190
" />
<path d="M9090 26320
L9090 26600
" />
<path d="M9090 26460
L8590 26460
L8660 26510
L8710 26560
L8730 26600
" />
<path d="M24210 7460
L24210 9460
" />
<path d="M24440 6700
L23940 6700
L23940 6510
L23960 6460
L23980 6440
L24030 6420
L24100 6420
L24150 6440
L24170 6460
L24200 6510
L24200 6700
" />
<path d="M24170 6030
L24200 5960
L24220 5940
L24270 5920
L24340 5920
L24390 5940
L24410 5960
L24440 6010
L24440 6200
L23940 6200
L23940 6030
L23960 5990
L23980 5960
L24030 5940
L24080 5940
L24130 5960
L24150 5990
L24170 6030
L24170 6200
" />
<path d="M23940 5750
L23940 5420
L24440 5630
" />
<path d="M23590 8870
L23590 8560
L23780 8730
L23780 8650
L23800 8610
L23820 8580
L23870 8560
L23990 8560
L24040 8580
L24060 8610
L24090 8650
L24090 8800
L24060 8840
L24040 8870
" />
<path d="M23590 8390
L23590 8080
L23780 8250
L23780 8170
L23800 8130
L23820 8100
L23870 8080
L23990 8080
L24040 8100
L24060 8130
L24090 8170
L24090 8320
L24060 8360
L24040 8390
" />
<path d="M26710 9960
L24710 9960
" />
<path d="M27470 10190
L27470 9690
L27660 9690
L27710 9710
L27730 9730
L27750 9780
L27750 9850
L27730 9900
L27710 9920
L27660 9950
L27470 9950
" />
<path d="M28250 10140
L28230 10160
L28160 10190
L28110 10190
L28040 10160
L27990 10110
L27970 10070
L27950 9970
L27950 9900
L27970 9810
L27990 9760
L28040 9710
L28110 9690
L28160 9690
L28230 9710
L28250 9730
" />
<path d="M28450 9730
L28470 9710
L28520 9690
L28640 9690
L28680 9710
L28710 9730
L28730 9780
L28730 9830
L28710 9900
L28420 10190
L28730 10190
" />
<path d="M25300 9340
L25610 9340
L25440 9530
L25520 9530
L25560 9550
L25590 9570
L25610 9620
L25610 9740
L25590 9790
L25560 9810
L25520 9840
L25370 9840
L25330 9810
L25300 9790
" />
<path d="M25810 9380
L25830 9360
L25880 9340
L26000 9340
L26040 9360
L26070 9380
L26090 9430
L26090 9480
L26070 9550
L25780 9840
L26090 9840
" />
<path d="M6710 19960
L8710 19960
" />
<path d="M3430 19690
L3590 20190
L3760 19690
" />
<path d="M4210 20190
L4050 19950
" />
<path d="M3930 20190
L3930 19690
L4120 19690
L4170 19710
L4190 19730
L4210 19780
L4210 19850
L4190 19900
L4170 19920
L4120 19950
L3930 19950
" />
<path d="M4430 19920
L4600 19920
" />
<path d="M4670 20190
L4430 20190
L4430 19690
L4670 19690
" />
<path d="M5050 19920
L4880 19920
" />
<path d="M4880 20190
L4880 19690
L5120 19690
" />
<path d="M5550 20190
L5310 20190
L5310 19690
" />
<path d="M5800 19690
L5850 19690
L5900 19710
L5920 19730
L5950 19780
L5970 19880
L5970 20000
L5950 20090
L5920 20140
L5900 20160
L5850 20190
L5800 20190
L5760 20160
L5730 20140
L5710 20090
L5690 20000
L5690 19880
L5710 19780
L5730 19730
L5760 19710
L5800 19690
" />
<path d="M7590 19340
L7350 19340
L7330 19570
L7350 19550
L7400 19530
L7520 19530
L7560 19550
L7590 19570
L7610 19620
L7610 19740
L7590 19790
L7560 19810
L7520 19840
L7400 19840
L7350 19810
L7330 19790
" />
<path d="M7850 19840
L7950 19840
L8000 19810
L8020 19790
L8070 19720
L8090 19620
L8090 19430
L8070 19380
L8040 19360
L8000 19340
L7900 19340
L7850 19360
L7830 19380
L7810 19430
L7810 19550
L7830 19600
L7850 19620
L7900 19650
L8000 19650
L8040 19620
L8070 19600
L8090 19550
" />
<path d="M14210 7460
L14210 9460
" />
<path d="M14440 6700
L13940 6700
L13940 6510
L13960 6460
L13980 6440
L14030 6420
L14100 6420
L14150 6440
L14170 6460
L14200 6510
L14200 6700
" />
<path d="M14290 6220
L14290 5990
" />
<path d="M14440 6270
L13940 6110
L14440 5940
" />
<path d="M13940 5820
L13940 5510
L14130 5680
L14130 5600
L14150 5560
L14170 5530
L14220 5510
L14340 5510
L14390 5530
L14410 5560
L14440 5600
L14440 5750
L14410 5790
L14390 5820
" />
<path d="M13750 8610
L14090 8610
" />
<path d="M13560 8730
L13920 8840
L13920 8540
" />
<path d="M13590 8390
L13590 8080
L13780 8250
L13780 8170
L13800 8130
L13820 8100
L13870 8080
L13990 8080
L14040 8100
L14060 8130
L14090 8170
L14090 8320
L14060 8360
L14040 8390
" />
<path d="M19210 27460
L19210 25460
" />
<path d="M19440 31290
L18940 31290
L18940 31100
L18960 31050
L18980 31030
L19030 31010
L19100 31010
L19150 31030
L19170 31050
L19200 31100
L19200 31290
" />
<path d="M18940 30840
L18940 30530
L19130 30700
L19130 30620
L19150 30580
L19170 30550
L19220 30530
L19340 30530
L19390 30550
L19410 30580
L19440 30620
L19440 30770
L19410 30810
L19390 30840
" />
<path d="M18940 30070
L18940 30310
L19170 30330
L19150 30310
L19130 30260
L19130 30140
L19150 30100
L19170 30070
L19220 30050
L19340 30050
L19390 30070
L19410 30100
L19440 30140
L19440 30260
L19410 30310
L19390 30330
" />
<path d="M18910 29470
L19560 29900
" />
<path d="M19440 29310
L18940 29310
L19440 29030
L18940 29030
" />
<path d="M19440 28790
L18940 28790
L19290 28620
L18940 28460
L19440 28460
" />
<path d="M19440 28220
L18940 28220
" />
<path d="M19090 26560
L19090 26840
" />
<path d="M19090 26700
L18590 26700
L18660 26750
L18710 26800
L18730 26840
" />
<path d="M19090 26080
L19090 26360
" />
<path d="M19090 26220
L18590 26220
L18660 26270
L18710 26320
L18730 26360
" />
<path d="M26710 19960
L24710 19960
" />
<path d="M27470 19690
L27470 20090
L27490 20140
L27520 20160
L27560 20190
L27660 20190
L27710 20160
L27730 20140
L27750 20090
L27750 19690
" />
<path d="M27970 20160
L28040 20190
L28160 20190
L28200 20160
L28230 20140
L28250 20090
L28250 20040
L28230 20000
L28200 19970
L28160 19950
L28060 19920
L28010 19900
L27990 19880
L27970 19830
L27970 19780
L27990 19730
L28010 19710
L28060 19690
L28180 19690
L28250 19710
" />
<path d="M28640 19920
L28710 19950
L28730 19970
L28750 20020
L28750 20090
L28730 20140
L28710 20160
L28660 20190
L28470 20190
L28470 19690
L28640 19690
L28680 19710
L28710 19730
L28730 19780
L28730 19830
L28710 19880
L28680 19900
L28640 19920
L28470 19920
" />
<path d="M29060 19690
L29110 19690
L29160 19710
L29180 19730
L29210 19780
L29230 19880
L29230 20000
L29210 20090
L29180 20140
L29160 20160
L29110 20190
L29060 20190
L29020 20160
L28990 20140
L28970 20090
L28950 20000
L28950 19880
L28970 19780
L28990 19730
L29020 19710
L29060 19690
" />
<path d="M29330 20230
L29710 20230
" />
<path d="M29830 20190
L29830 19690
L29950 19690
L30020 19710
L30070 19760
L30090 19810
L30110 19900
L30110 19970
L30090 20070
L30070 20110
L30020 20160
L29950 20190
L29830 20190
" />
<path d="M30330 20190
L30330 19690
L30500 20040
L30660 19690
L30660 20190
" />
<path d="M25330 19380
L25350 19360
L25400 19340
L25520 19340
L25560 19360
L25590 19380
L25610 19430
L25610 19480
L25590 19550
L25300 19840
L25610 19840
" />
<path d="M25810 19380
L25830 19360
L25880 19340
L26000 19340
L26040 19360
L26070 19380
L26090 19430
L26090 19480
L26070 19550
L25780 19840
L26090 19840
" />
<path d="M6710 10960
L8710 10960
" />
<path d="M4760 11190
L4760 10690
L4950 10690
L5000 10710
L5020 10730
L5040 10780
L5040 10850
L5020 10900
L5000 10920
L4950 10950
L4760 10950
" />
<path d="M5260 10920
L5430 10920
" />
<path d="M5500 11190
L5260 11190
L5260 10690
L5500 10690
" />
<path d="M5970 11190
L5690 11190
" />
<path d="M5830 11190
L5830 10690
L5780 10760
L5730 10810
L5690 10830
" />
<path d="M7590 10340
L7350 10340
L7330 10570
L7350 10550
L7400 10530
L7520 10530
L7560 10550
L7590 10570
L7610 10620
L7610 10740
L7590 10790
L7560 10810
L7520 10840
L7400 10840
L7350 10810
L7330 10790
" />
<path d="M7920 10340
L7970 10340
L8020 10360
L8040 10380
L8070 10430
L8090 10530
L8090 10650
L8070 10740
L8040 10790
L8020 10810
L7970 10840
L7920 10840
L7880 10810
L7850 10790
L7830 10740
L7810 10650
L7810 10530
L7830 10430
L7850 10380
L7880 10360
L7920 10340
" />
<path d="M10210 27460
L10210 25460
" />
<path d="M9940 29380
L10440 29220
L9940 29050
" />
<path d="M10390 28600
L10410 28620
L10440 28690
L10440 28740
L10410 28810
L10360 28860
L10320 28880
L10220 28900
L10150 28900
L10060 28880
L10010 28860
L9960 28810
L9940 28740
L9940 28690
L9960 28620
L9980 28600
" />
<path d="M10440 28140
L10440 28380
L9940 28380
" />
<path d="M9630 26600
L9610 26580
L9590 26530
L9590 26410
L9610 26370
L9630 26340
L9680 26320
L9730 26320
L9800 26340
L10090 26630
L10090 26320
" />
<path d="M23210 7460
L23210 9460
" />
<path d="M23440 6700
L22940 6700
L22940 6510
L22960 6460
L22980 6440
L23030 6420
L23100 6420
L23150 6440
L23170 6460
L23200 6510
L23200 6700
" />
<path d="M23170 6030
L23200 5960
L23220 5940
L23270 5920
L23340 5920
L23390 5940
L23410 5960
L23440 6010
L23440 6200
L22940 6200
L22940 6030
L22960 5990
L22980 5960
L23030 5940
L23080 5940
L23130 5960
L23150 5990
L23170 6030
L23170 6200
" />
<path d="M22940 5490
L22940 5580
L22960 5630
L22980 5650
L23060 5700
L23150 5720
L23340 5720
L23390 5700
L23410 5680
L23440 5630
L23440 5530
L23410 5490
L23390 5460
L23340 5440
L23220 5440
L23170 5460
L23150 5490
L23130 5530
L23130 5630
L23150 5680
L23170 5700
L23220 5720
" />
<path d="M22590 8870
L22590 8560
L22780 8730
L22780 8650
L22800 8610
L22820 8580
L22870 8560
L22990 8560
L23040 8580
L23060 8610
L23090 8650
L23090 8800
L23060 8840
L23040 8870
" />
<path d="M22750 8130
L23090 8130
" />
<path d="M22560 8250
L22920 8360
L22920 8060
" />
<path d="M26710 10960
L24710 10960
" />
<path d="M27470 11190
L27470 10690
L27660 10690
L27710 10710
L27730 10730
L27750 10780
L27750 10850
L27730 10900
L27710 10920
L27660 10950
L27470 10950
" />
<path d="M28250 11140
L28230 11160
L28160 11190
L28110 11190
L28040 11160
L27990 11110
L27970 11070
L27950 10970
L27950 10900
L27970 10810
L27990 10760
L28040 10710
L28110 10690
L28160 10690
L28230 10710
L28250 10730
" />
<path d="M28420 10690
L28730 10690
L28560 10880
L28640 10880
L28680 10900
L28710 10920
L28730 10970
L28730 11090
L28710 11140
L28680 11160
L28640 11190
L28490 11190
L28450 11160
L28420 11140
" />
<path d="M25300 10340
L25610 10340
L25440 10530
L25520 10530
L25560 10550
L25590 10570
L25610 10620
L25610 10740
L25590 10790
L25560 10810
L25520 10840
L25370 10840
L25330 10810
L25300 10790
" />
<path d="M26090 10840
L25810 10840
" />
<path d="M25950 10840
L25950 10340
L25900 10410
L25850 10460
L25810 10480
" />
<path d="M6710 20960
L8710 20960
" />
<path d="M4730 21190
L4730 20690
L4920 20690
L4970 20710
L4990 20730
L5010 20780
L5010 20850
L4990 20900
L4970 20920
L4920 20950
L4730 20950
" />
<path d="M5440 20850
L5440 21190
" />
<path d="M5320 20660
L5210 21020
L5510 21020
" />
<path d="M5800 20690
L5850 20690
L5900 20710
L5920 20730
L5950 20780
L5970 20880
L5970 21000
L5950 21090
L5920 21140
L5900 21160
L5850 21190
L5800 21190
L5760 21160
L5730 21140
L5710 21090
L5690 21000
L5690 20880
L5710 20780
L5730 20730
L5760 20710
L5800 20690
" />
<path d="M7560 20340
L7470 20340
L7420 20360
L7400 20380
L7350 20460
L7330 20550
L7330 20740
L7350 20790
L7370 20810
L7420 20840
L7520 20840
L7560 20810
L7590 20790
L7610 20740
L7610 20620
L7590 20570
L7560 20550
L7520 20530
L7420 20530
L7370 20550
L7350 20570
L7330 20620
" />
<path d="M7920 20340
L7970 20340
L8020 20360
L8040 20380
L8070 20430
L8090 20530
L8090 20650
L8070 20740
L8040 20790
L8020 20810
L7970 20840
L7920 20840
L7880 20810
L7850 20790
L7830 20740
L7810 20650
L7810 20530
L7830 20430
L7850 20380
L7880 20360
L7920 20340
" />
<path d="M13210 7460
L13210 9460
" />
<path d="M13440 6700
L12940 6700
L12940 6510
L12960 6460
L12980 6440
L13030 6420
L13100 6420
L13150 6440
L13170 6460
L13200 6510
L13200 6700
" />
<path d="M13290 6220
L13290 5990
" />
<path d="M13440 6270
L12940 6110
L13440 5940
" />
<path d="M13440 5510
L13440 5790
" />
<path d="M13440 5650
L12940 5650
L13010 5700
L13060 5750
L13080 5790
" />
<path d="M12750 8610
L13090 8610
" />
<path d="M12560 8730
L12920 8840
L12920 8540
" />
<path d="M12750 8130
L13090 8130
" />
<path d="M12560 8250
L12920 8360
L12920 8060
" />
<path d="M20210 27460
L20210 25460
" />
<path d="M19940 30170
L20440 30010
L19940 29840
" />
<path d="M20170 29500
L20200 29430
L20220 29410
L20270 29390
L20340 29390
L20390 29410
L20410 29430
L20440 29480
L20440 29670
L19940 29670
L19940 29500
L19960 29460
L19980 29430
L20030 29410
L20080 29410
L20130 29430
L20150 29460
L20170 29500
L20170 29670
" />
<path d="M20290 29190
L20290 28960
" />
<path d="M20440 29240
L19940 29080
L20440 28910
" />
<path d="M19940 28810
L19940 28530
" />
<path d="M20440 28670
L19940 28670
" />
<path d="M19940 28430
L19940 28150
" />
<path d="M20440 28290
L19940 28290
" />
<path d="M20090 26560
L20090 26840
" />
<path d="M20090 26700
L19590 26700
L19660 26750
L19710 26800
L19730 26840
" />
<path d="M19630 26360
L19610 26340
L19590 26290
L19590 26170
L19610 26130
L19630 26100
L19680 26080
L19730 26080
L19800 26100
L20090 26390
L20090 26080
" />
<path d="M26710 20960
L24710 20960
" />
<path d="M27400 20690
L27560 21190
L27730 20690
" />
<path d="M28180 21140
L28160 21160
L28090 21190
L28040 21190
L27970 21160
L27920 21110
L27900 21070
L27880 20970
L27880 20900
L27900 20810
L27920 20760
L27970 20710
L28040 20690
L28090 20690
L28160 20710
L28180 20730
" />
<path d="M28680 21140
L28660 21160
L28590 21190
L28540 21190
L28470 21160
L28420 21110
L28400 21070
L28380 20970
L28380 20900
L28400 20810
L28420 20760
L28470 20710
L28540 20690
L28590 20690
L28660 20710
L28680 20730
" />
<path d="M28780 21230
L29160 21230
" />
<path d="M29280 20690
L29280 21090
L29300 21140
L29330 21160
L29370 21190
L29470 21190
L29520 21160
L29540 21140
L29560 21090
L29560 20690
" />
<path d="M29780 21160
L29850 21190
L29970 21190
L30010 21160
L30040 21140
L30060 21090
L30060 21040
L30040 21000
L30010 20970
L29970 20950
L29870 20920
L29820 20900
L29800 20880
L29780 20830
L29780 20780
L29800 20730
L29820 20710
L29870 20690
L29990 20690
L30060 20710
" />
<path d="M30450 20920
L30520 20950
L30540 20970
L30560 21020
L30560 21090
L30540 21140
L30520 21160
L30470 21190
L30280 21190
L30280 20690
L30450 20690
L30490 20710
L30520 20730
L30540 20780
L30540 20830
L30520 20880
L30490 20900
L30450 20920
L30280 20920
" />
<path d="M25330 20380
L25350 20360
L25400 20340
L25520 20340
L25560 20360
L25590 20380
L25610 20430
L25610 20480
L25590 20550
L25300 20840
L25610 20840
" />
<path d="M26090 20840
L25810 20840
" />
<path d="M25950 20840
L25950 20340
L25900 20410
L25850 20460
L25810 20480
" />
<path d="M6710 11960
L8710 11960
" />
<path d="M4760 12190
L4760 11690
L4950 11690
L5000 11710
L5020 11730
L5040 11780
L5040 11850
L5020 11900
L5000 11920
L4950 11950
L4760 11950
" />
<path d="M5260 11920
L5430 11920
" />
<path d="M5500 12190
L5260 12190
L5260 11690
L5500 11690
" />
<path d="M5800 11690
L5850 11690
L5900 11710
L5920 11730
L5950 11780
L5970 11880
L5970 12000
L5950 12090
L5920 12140
L5900 12160
L5850 12190
L5800 12190
L5760 12160
L5730 12140
L5710 12090
L5690 12000
L5690 11880
L5710 11780
L5730 11730
L5760 11710
L5800 11690
" />
<path d="M7590 11340
L7350 11340
L7330 11570
L7350 11550
L7400 11530
L7520 11530
L7560 11550
L7590 11570
L7610 11620
L7610 11740
L7590 11790
L7560 11810
L7520 11840
L7400 11840
L7350 11810
L7330 11790
" />
<path d="M8090 11840
L7810 11840
" />
<path d="M7950 11840
L7950 11340
L7900 11410
L7850 11460
L7810 11480
" />
<path d="M11210 27460
L11210 25460
" />
<path d="M11440 31710
L10940 31710
L11290 31540
L10940 31380
L11440 31380
" />
<path d="M11440 31140
L10940 31140
L10940 31020
L10960 30950
L11010 30900
L11060 30880
L11150 30860
L11220 30860
L11320 30880
L11360 30900
L11410 30950
L11440 31020
L11440 31140
" />
<path d="M10910 30280
L11560 30710
" />
<path d="M11170 29950
L11170 30120
" />
<path d="M11440 30120
L10940 30120
L10940 29880
" />
<path d="M11440 29690
L10940 29690
" />
<path d="M11440 29450
L10940 29450
L11440 29170
L10940 29170
" />
<path d="M11170 28930
L11170 28760
" />
<path d="M11440 28690
L11440 28930
L10940 28930
L10940 28690
" />
<path d="M11440 28480
L10940 28480
L10940 28360
L10960 28290
L11010 28240
L11060 28220
L11150 28200
L11220 28200
L11320 28220
L11360 28240
L11410 28290
L11440 28360
L11440 28480
" />
<path d="M10590 26630
L10590 26320
L10780 26490
L10780 26410
L10800 26370
L10820 26340
L10870 26320
L10990 26320
L11040 26340
L11060 26370
L11090 26410
L11090 26560
L11060 26600
L11040 26630
" />
<path d="M22210 7460
L22210 9460
" />
<path d="M22440 6700
L21940 6700
L21940 6510
L21960 6460
L21980 6440
L22030 6420
L22100 6420
L22150 6440
L22170 6460
L22200 6510
L22200 6700
" />
<path d="M22170 6030
L22200 5960
L22220 5940
L22270 5920
L22340 5920
L22390 5940
L22410 5960
L22440 6010
L22440 6200
L21940 6200
L21940 6030
L21960 5990
L21980 5960
L22030 5940
L22080 5940
L22130 5960
L22150 5990
L22170 6030
L22170 6200
" />
<path d="M21940 5460
L21940 5700
L22170 5720
L22150 5700
L22130 5650
L22130 5530
L22150 5490
L22170 5460
L22220 5440
L22340 5440
L22390 5460
L22410 5490
L22440 5530
L22440 5650
L22410 5700
L22390 5720
" />
<path d="M21590 8870
L21590 8560
L21780 8730
L21780 8650
L21800 8610
L21820 8580
L21870 8560
L21990 8560
L22040 8580
L22060 8610
L22090 8650
L22090 8800
L22060 8840
L22040 8870
" />
<path d="M21590 8100
L21590 8340
L21820 8360
L21800 8340
L21780 8290
L21780 8170
L21800 8130
L21820 8100
L21870 8080
L21990 8080
L22040 8100
L22060 8130
L22090 8170
L22090 8290
L22060 8340
L22040 8360
" />
<path d="M26710 11960
L24710 11960
" />
<path d="M27470 12190
L27470 11690
L27660 11690
L27710 11710
L27730 11730
L27750 11780
L27750 11850
L27730 11900
L27710 11920
L27660 11950
L27470 11950
" />
<path d="M28250 12140
L28230 12160
L28160 12190
L28110 12190
L28040 12160
L27990 12110
L27970 12070
L27950 11970
L27950 11900
L27970 11810
L27990 11760
L28040 11710
L28110 11690
L28160 11690
L28230 11710
L28250 11730
" />
<path d="M28680 11850
L28680 12190
" />
<path d="M28560 11660
L28450 12020
L28750 12020
" />
<path d="M25300 11340
L25610 11340
L25440 11530
L25520 11530
L25560 11550
L25590 11570
L25610 11620
L25610 11740
L25590 11790
L25560 11810
L25520 11840
L25370 11840
L25330 11810
L25300 11790
" />
<path d="M25920 11340
L25970 11340
L26020 11360
L26040 11380
L26070 11430
L26090 11530
L26090 11650
L26070 11740
L26040 11790
L26020 11810
L25970 11840
L25920 11840
L25880 11810
L25850 11790
L25830 11740
L25810 11650
L25810 11530
L25830 11430
L25850 11380
L25880 11360
L25920 11340
" />
<path d="M6710 21960
L8710 21960
" />
<path d="M3310 21690
L3470 22190
L3640 21690
" />
<path d="M4090 22190
L3930 21950
" />
<path d="M3810 22190
L3810 21690
L4000 21690
L4050 21710
L4070 21730
L4090 21780
L4090 21850
L4070 21900
L4050 21920
L4000 21950
L3810 21950
" />
<path d="M4310 21920
L4480 21920
" />
<path d="M4550 22190
L4310 22190
L4310 21690
L4550 21690
" />
<path d="M4930 21920
L4760 21920
" />
<path d="M4760 22190
L4760 21690
L5000 21690
" />
<path d="M5190 22190
L5190 21690
" />
<path d="M5190 21920
L5470 21920
" />
<path d="M5470 22190
L5470 21690
" />
<path d="M5800 21690
L5850 21690
L5900 21710
L5920 21730
L5950 21780
L5970 21880
L5970 22000
L5950 22090
L5920 22140
L5900 22160
L5850 22190
L5800 22190
L5760 22160
L5730 22140
L5710 22090
L5690 22000
L5690 21880
L5710 21780
L5730 21730
L5760 21710
L5800 21690
" />
<path d="M7560 21340
L7470 21340
L7420 21360
L7400 21380
L7350 21460
L7330 21550
L7330 21740
L7350 21790
L7370 21810
L7420 21840
L7520 21840
L7560 21810
L7590 21790
L7610 21740
L7610 21620
L7590 21570
L7560 21550
L7520 21530
L7420 21530
L7370 21550
L7350 21570
L7330 21620
" />
<path d="M8090 21840
L7810 21840
" />
<path d="M7950 21840
L7950 21340
L7900 21410
L7850 21460
L7810 21480
" />
<path d="M12210 7460
L12210 9460
" />
<path d="M12440 6700
L11940 6700
L11940 6510
L11960 6460
L11980 6440
L12030 6420
L12100 6420
L12150 6440
L12170 6460
L12200 6510
L12200 6700
" />
<path d="M12290 6220
L12290 5990
" />
<path d="M12440 6270
L11940 6110
L12440 5940
" />
<path d="M11940 5680
L11940 5630
L11960 5580
L11980 5560
L12030 5530
L12130 5510
L12250 5510
L12340 5530
L12390 5560
L12410 5580
L12440 5630
L12440 5680
L12410 5720
L12390 5750
L12340 5770
L12250 5790
L12130 5790
L12030 5770
L11980 5750
L11960 5720
L11940 5680
" />
<path d="M11750 8610
L12090 8610
" />
<path d="M11560 8730
L11920 8840
L11920 8540
" />
<path d="M11590 8100
L11590 8340
L11820 8360
L11800 8340
L11780 8290
L11780 8170
L11800 8130
L11820 8100
L11870 8080
L11990 8080
L12040 8100
L12060 8130
L12090 8170
L12090 8290
L12060 8340
L12040 8360
" />
<path d="M21210 27460
L21210 25460
" />
<path d="M21440 29440
L20940 29440
L20940 29250
L20960 29200
L20980 29180
L21030 29160
L21100 29160
L21150 29180
L21170 29200
L21200 29250
L21200 29440
" />
<path d="M20940 28990
L20940 28680
L21130 28850
L21130 28770
L21150 28730
L21170 28700
L21220 28680
L21340 28680
L21390 28700
L21410 28730
L21440 28770
L21440 28920
L21410 28960
L21390 28990
" />
<path d="M21440 28200
L21440 28480
" />
<path d="M21440 28340
L20940 28340
L21010 28390
L21060 28440
L21080 28480
" />
<path d="M21090 26560
L21090 26840
" />
<path d="M21090 26700
L20590 26700
L20660 26750
L20710 26800
L20730 26840
" />
<path d="M20590 26390
L20590 26080
L20780 26250
L20780 26170
L20800 26130
L20820 26100
L20870 26080
L20990 26080
L21040 26100
L21060 26130
L21090 26170
L21090 26320
L21060 26360
L21040 26390
" />
<path d="M26710 21960
L24710 21960
" />
<path d="M27470 22190
L27470 21690
L27660 21690
L27710 21710
L27730 21730
L27750 21780
L27750 21850
L27730 21900
L27710 21920
L27660 21950
L27470 21950
" />
<path d="M28230 22190
L27950 22190
" />
<path d="M28090 22190
L28090 21690
L28040 21760
L27990 21810
L27950 21830
" />
<path d="M28660 21850
L28660 22190
" />
<path d="M28540 21660
L28430 22020
L28730 22020
" />
<path d="M25330 21380
L25350 21360
L25400 21340
L25520 21340
L25560 21360
L25590 21380
L25610 21430
L25610 21480
L25590 21550
L25300 21840
L25610 21840
" />
<path d="M25920 21340
L25970 21340
L26020 21360
L26040 21380
L26070 21430
L26090 21530
L26090 21650
L26070 21740
L26040 21790
L26020 21810
L25970 21840
L25920 21840
L25880 21810
L25850 21790
L25830 21740
L25810 21650
L25810 21530
L25830 21430
L25850 21380
L25880 21360
L25920 21340
" />
<path d="M6710 12960
L8710 12960
" />
<path d="M3910 12690
L4070 13190
L4240 12690
" />
<path d="M4690 13190
L4530 12950
" />
<path d="M4410 13190
L4410 12690
L4600 12690
L4650 12710
L4670 12730
L4690 12780
L4690 12850
L4670 12900
L4650 12920
L4600 12950
L4410 12950
" />
<path d="M4910 12920
L5080 12920
" />
<path d="M5150 13190
L4910 13190
L4910 12690
L5150 12690
" />
<path d="M5530 12920
L5360 12920
" />
<path d="M5360 13190
L5360 12690
L5600 12690
" />
<path d="M6030 13190
L5790 13190
L5790 12690
" />
<path d="M7590 12340
L7350 12340
L7330 12570
L7350 12550
L7400 12530
L7520 12530
L7560 12550
L7590 12570
L7610 12620
L7610 12740
L7590 12790
L7560 12810
L7520 12840
L7400 12840
L7350 12810
L7330 12790
" />
<path d="M7810 12380
L7830 12360
L7880 12340
L8000 12340
L8040 12360
L8070 12380
L8090 12430
L8090 12480
L8070 12550
L7780 12840
L8090 12840
" />
<path d="M12210 27460
L12210 25460
" />
<path d="M11940 29770
L12440 29440
" />
<path d="M11940 29440
L12440 29770
" />
<path d="M12390 28960
L12410 28980
L12440 29050
L12440 29100
L12410 29170
L12360 29220
L12320 29240
L12220 29260
L12150 29260
L12060 29240
L12010 29220
L11960 29170
L11940 29100
L11940 29050
L11960 28980
L11980 28960
" />
<path d="M12440 28740
L11940 28740
" />
<path d="M12440 28500
L11940 28500
L12440 28220
L11940 28220
" />
<path d="M11750 26370
L12090 26370
" />
<path d="M11560 26490
L11920 26600
L11920 26300
" />
<path d="M21210 7460
L21210 9460
" />
<path d="M21440 6700
L20940 6700
L20940 6510
L20960 6460
L20980 6440
L21030 6420
L21100 6420
L21150 6440
L21170 6460
L21200 6510
L21200 6700
" />
<path d="M21170 6030
L21200 5960
L21220 5940
L21270 5920
L21340 5920
L21390 5940
L21410 5960
L21440 6010
L21440 6200
L20940 6200
L20940 6030
L20960 5990
L20980 5960
L21030 5940
L21080 5940
L21130 5960
L21150 5990
L21170 6030
L21170 6200
" />
<path d="M20940 5750
L20940 5440
L21130 5610
L21130 5530
L21150 5490
L21170 5460
L21220 5440
L21340 5440
L21390 5460
L21410 5490
L21440 5530
L21440 5680
L21410 5720
L21390 5750
" />
<path d="M20590 8870
L20590 8560
L20780 8730
L20780 8650
L20800 8610
L20820 8580
L20870 8560
L20990 8560
L21040 8580
L21060 8610
L21090 8650
L21090 8800
L21060 8840
L21040 8870
" />
<path d="M20590 8130
L20590 8220
L20610 8270
L20630 8290
L20710 8340
L20800 8360
L20990 8360
L21040 8340
L21060 8320
L21090 8270
L21090 8170
L21060 8130
L21040 8100
L20990 8080
L20870 8080
L20820 8100
L20800 8130
L20780 8170
L20780 8270
L20800 8320
L20820 8340
L20870 8360
" />
<path d="M26710 12960
L24710 12960
" />
<path d="M27470 13190
L27470 12690
L27660 12690
L27710 12710
L27730 12730
L27750 12780
L27750 12850
L27730 12900
L27710 12920
L27660 12950
L27470 12950
" />
<path d="M28250 13140
L28230 13160
L28160 13190
L28110 13190
L28040 13160
L27990 13110
L27970 13070
L27950 12970
L27950 12900
L27970 12810
L27990 12760
L28040 12710
L28110 12690
L28160 12690
L28230 12710
L28250 12730
" />
<path d="M28710 12690
L28470 12690
L28450 12920
L28470 12900
L28520 12880
L28640 12880
L28680 12900
L28710 12920
L28730 12970
L28730 13090
L28710 13140
L28680 13160
L28640 13190
L28520 13190
L28470 13160
L28450 13140
" />
<path d="M25330 12380
L25350 12360
L25400 12340
L25520 12340
L25560 12360
L25590 12380
L25610 12430
L25610 12480
L25590 12550
L25300 12840
L25610 12840
" />
<path d="M25850 12840
L25950 12840
L26000 12810
L26020 12790
L26070 12720
L26090 12620
L26090 12430
L26070 12380
L26040 12360
L26000 12340
L25900 12340
L25850 12360
L25830 12380
L25810 12430
L25810 12550
L25830 12600
L25850 12620
L25900 12650
L26000 12650
L26040 12620
L26070 12600
L26090 12550
" />
<path d="M6710 22960
L8710 22960
" />
<path d="M3830 23040
L4060 23040
" />
<path d="M3780 23190
L3940 22690
L4110 23190
" />
<path d="M4210 22690
L4370 23190
L4540 22690
" />
<path d="M4990 23140
L4970 23160
L4900 23190
L4850 23190
L4780 23160
L4730 23110
L4710 23070
L4690 22970
L4690 22900
L4710 22810
L4730 22760
L4780 22710
L4850 22690
L4900 22690
L4970 22710
L4990 22730
" />
<path d="M5490 23140
L5470 23160
L5400 23190
L5350 23190
L5280 23160
L5230 23110
L5210 23070
L5190 22970
L5190 22900
L5210 22810
L5230 22760
L5280 22710
L5350 22690
L5400 22690
L5470 22710
L5490 22730
" />
<path d="M5800 22690
L5850 22690
L5900 22710
L5920 22730
L5950 22780
L5970 22880
L5970 23000
L5950 23090
L5920 23140
L5900 23160
L5850 23190
L5800 23190
L5760 23160
L5730 23140
L5710 23090
L5690 23000
L5690 22880
L5710 22780
L5730 22730
L5760 22710
L5800 22690
" />
<path d="M7560 22340
L7470 22340
L7420 22360
L7400 22380
L7350 22460
L7330 22550
L7330 22740
L7350 22790
L7370 22810
L7420 22840
L7520 22840
L7560 22810
L7590 22790
L7610 22740
L7610 22620
L7590 22570
L7560 22550
L7520 22530
L7420 22530
L7370 22550
L7350 22570
L7330 22620
" />
<path d="M7810 22380
L7830 22360
L7880 22340
L8000 22340
L8040 22360
L8070 22380
L8090 22430
L8090 22480
L8070 22550
L7780 22840
L8090 22840
" />
<path d="M11210 7460
L11210 9460
" />
<path d="M11440 6700
L10940 6700
L10940 6510
L10960 6460
L10980 6440
L11030 6420
L11100 6420
L11150 6440
L11170 6460
L11200 6510
L11200 6700
" />
<path d="M11170 6200
L11170 6030
" />
<path d="M11440 5960
L11440 6200
L10940 6200
L10940 5960
" />
<path d="M10940 5510
L10940 5750
L11170 5770
L11150 5750
L11130 5700
L11130 5580
L11150 5540
L11170 5510
L11220 5490
L11340 5490
L11390 5510
L11410 5540
L11440 5580
L11440 5700
L11410 5750
L11390 5770
" />
<path d="M10750 8610
L11090 8610
" />
<path d="M10560 8730
L10920 8840
L10920 8540
" />
<path d="M10590 8130
L10590 8220
L10610 8270
L10630 8290
L10710 8340
L10800 8360
L10990 8360
L11040 8340
L11060 8320
L11090 8270
L11090 8170
L11060 8130
L11040 8100
L10990 8080
L10870 8080
L10820 8100
L10800 8130
L10780 8170
L10780 8270
L10800 8320
L10820 8340
L10870 8360
" />
<path d="M22210 27460
L22210 25460
" />
<path d="M22440 29440
L21940 29440
L21940 29250
L21960 29200
L21980 29180
L22030 29160
L22100 29160
L22150 29180
L22170 29200
L22200 29250
L22200 29440
" />
<path d="M21940 28990
L21940 28680
L22130 28850
L22130 28770
L22150 28730
L22170 28700
L22220 28680
L22340 28680
L22390 28700
L22410 28730
L22440 28770
L22440 28920
L22410 28960
L22390 28990
" />
<path d="M21940 28370
L21940 28320
L21960 28270
L21980 28250
L22030 28220
L22130 28200
L22250 28200
L22340 28220
L22390 28250
L22410 28270
L22440 28320
L22440 28370
L22410 28410
L22390 28440
L22340 28460
L22250 28480
L22130 28480
L22030 28460
L21980 28440
L21960 28410
L21940 28370
" />
<path d="M22090 26560
L22090 26840
" />
<path d="M22090 26700
L21590 26700
L21660 26750
L21710 26800
L21730 26840
" />
<path d="M21750 26130
L22090 26130
" />
<path d="M21560 26250
L21920 26360
L21920 26060
" />
<path d="M26710 22960
L24710 22960
" />
<path d="M27470 23190
L27470 22690
L27660 22690
L27710 22710
L27730 22730
L27750 22780
L27750 22850
L27730 22900
L27710 22920
L27660 22950
L27470 22950
" />
<path d="M28230 23190
L27950 23190
" />
<path d="M28090 23190
L28090 22690
L28040 22760
L27990 22810
L27950 22830
" />
<path d="M28690 22690
L28450 22690
L28430 22920
L28450 22900
L28500 22880
L28620 22880
L28660 22900
L28690 22920
L28710 22970
L28710 23090
L28690 23140
L28660 23160
L28620 23190
L28500 23190
L28450 23160
L28430 23140
" />
<path d="M25610 22840
L25330 22840
" />
<path d="M25470 22840
L25470 22340
L25420 22410
L25370 22460
L25330 22480
" />
<path d="M25850 22840
L25950 22840
L26000 22810
L26020 22790
L26070 22720
L26090 22620
L26090 22430
L26070 22380
L26040 22360
L26000 22340
L25900 22340
L25850 22360
L25830 22380
L25810 22430
L25810 22550
L25830 22600
L25850 22620
L25900 22650
L26000 22650
L26040 22620
L26070 22600
L26090 22550
" />
<path d="M6710 13960
L8710 13960
" />
<path d="M4730 14190
L4730 13690
L4920 13690
L4970 13710
L4990 13730
L5010 13780
L5010 13850
L4990 13900
L4970 13920
L4920 13950
L4730 13950
" />
<path d="M5440 13850
L5440 14190
" />
<path d="M5320 13660
L5210 14020
L5510 14020
" />
<path d="M5920 13690
L5830 13690
L5780 13710
L5760 13730
L5710 13810
L5690 13900
L5690 14090
L5710 14140
L5730 14160
L5780 14190
L5880 14190
L5920 14160
L5950 14140
L5970 14090
L5970 13970
L5950 13920
L5920 13900
L5880 13880
L5780 13880
L5730 13900
L5710 13920
L5690 13970
" />
<path d="M7590 13340
L7350 13340
L7330 13570
L7350 13550
L7400 13530
L7520 13530
L7560 13550
L7590 13570
L7610 13620
L7610 13740
L7590 13790
L7560 13810
L7520 13840
L7400 13840
L7350 13810
L7330 13790
" />
<path d="M7780 13340
L8090 13340
L7920 13530
L8000 13530
L8040 13550
L8070 13570
L8090 13620
L8090 13740
L8070 13790
L8040 13810
L8000 13840
L7850 13840
L7810 13810
L7780 13790
" />
<path d="M13210 27460
L13210 25460
" />
<path d="M12940 30430
L13440 30100
" />
<path d="M12940 30100
L13440 30430
" />
<path d="M13390 29620
L13410 29640
L13440 29710
L13440 29760
L13410 29830
L13360 29880
L13320 29900
L13220 29920
L13150 29920
L13060 29900
L13010 29880
L12960 29830
L12940 29760
L12940 29710
L12960 29640
L12980 29620
" />
<path d="M12940 29310
L12940 29210
L12960 29160
L13010 29120
L13100 29090
L13270 29090
L13360 29120
L13410 29160
L13440 29210
L13440 29310
L13410 29350
L13360 29400
L13270 29420
L13100 29420
L13010 29400
L12960 29350
L12940 29310
" />
<path d="M12940 28880
L13340 28880
L13390 28860
L13410 28830
L13440 28790
L13440 28690
L13410 28640
L13390 28620
L13340 28600
L12940 28600
" />
<path d="M12940 28430
L12940 28150
" />
<path d="M13440 28290
L12940 28290
" />
<path d="M12590 26340
L12590 26580
L12820 26600
L12800 26580
L12780 26530
L12780 26410
L12800 26370
L12820 26340
L12870 26320
L12990 26320
L13040 26340
L13060 26370
L13090 26410
L13090 26530
L13060 26580
L13040 26600
" />
<path d="M20210 7460
L20210 9460
" />
<path d="M20440 6700
L19940 6700
L19940 6510
L19960 6460
L19980 6440
L20030 6420
L20100 6420
L20150 6440
L20170 6460
L20200 6510
L20200 6700
" />
<path d="M20170 6030
L20200 5960
L20220 5940
L20270 5920
L20340 5920
L20390 5940
L20410 5960
L20440 6010
L20440 6200
L19940 6200
L19940 6030
L19960 5990
L19980 5960
L20030 5940
L20080 5940
L20130 5960
L20150 5990
L20170 6030
L20170 6200
" />
<path d="M20440 5440
L20440 5720
" />
<path d="M20440 5580
L19940 5580
L20010 5630
L20060 5680
L20080 5720
" />
<path d="M19590 8870
L19590 8560
L19780 8730
L19780 8650
L19800 8610
L19820 8580
L19870 8560
L19990 8560
L20040 8580
L20060 8610
L20090 8650
L20090 8800
L20060 8840
L20040 8870
" />
<path d="M19590 8390
L19590 8060
L20090 8270
" />
<path d="M26710 13960
L24710 13960
" />
<path d="M27470 14190
L27470 13690
L27660 13690
L27710 13710
L27730 13730
L27750 13780
L27750 13850
L27730 13900
L27710 13920
L27660 13950
L27470 13950
" />
<path d="M28250 14140
L28230 14160
L28160 14190
L28110 14190
L28040 14160
L27990 14110
L27970 14070
L27950 13970
L27950 13900
L27970 13810
L27990 13760
L28040 13710
L28110 13690
L28160 13690
L28230 13710
L28250 13730
" />
<path d="M28680 13690
L28590 13690
L28540 13710
L28520 13730
L28470 13810
L28450 13900
L28450 14090
L28470 14140
L28490 14160
L28540 14190
L28640 14190
L28680 14160
L28710 14140
L28730 14090
L28730 13970
L28710 13920
L28680 13900
L28640 13880
L28540 13880
L28490 13900
L28470 13920
L28450 13970
" />
<path d="M25330 13380
L25350 13360
L25400 13340
L25520 13340
L25560 13360
L25590 13380
L25610 13430
L25610 13480
L25590 13550
L25300 13840
L25610 13840
" />
<path d="M25900 13550
L25850 13530
L25830 13500
L25810 13460
L25810 13430
L25830 13380
L25850 13360
L25900 13340
L26000 13340
L26040 13360
L26070 13380
L26090 13430
L26090 13460
L26070 13500
L26040 13530
L26000 13550
L25900 13550
L25850 13570
L25830 13600
L25810 13650
L25810 13740
L25830 13790
L25850 13810
L25900 13840
L26000 13840
L26040 13810
L26070 13790
L26090 13740
L26090 13650
L26070 13600
L26040 13570
L26000 13550
" />
<path d="M6710 23960
L8710 23960
" />
<path d="M4730 24190
L4730 23690
L4920 23690
L4970 23710
L4990 23730
L5010 23780
L5010 23850
L4990 23900
L4970 23920
L4920 23950
L4730 23950
" />
<path d="M5320 23690
L5370 23690
L5420 23710
L5440 23730
L5470 23780
L5490 23880
L5490 24000
L5470 24090
L5440 24140
L5420 24160
L5370 24190
L5320 24190
L5280 24160
L5250 24140
L5230 24090
L5210 24000
L5210 23880
L5230 23780
L5250 23730
L5280 23710
L5320 23690
" />
<path d="M5950 23690
L5710 23690
L5690 23920
L5710 23900
L5760 23880
L5880 23880
L5920 23900
L5950 23920
L5970 23970
L5970 24090
L5950 24140
L5920 24160
L5880 24190
L5760 24190
L5710 24160
L5690 24140
" />
<path d="M7560 23340
L7470 23340
L7420 23360
L7400 23380
L7350 23460
L7330 23550
L7330 23740
L7350 23790
L7370 23810
L7420 23840
L7520 23840
L7560 23810
L7590 23790
L7610 23740
L7610 23620
L7590 23570
L7560 23550
L7520 23530
L7420 23530
L7370 23550
L7350 23570
L7330 23620
" />
<path d="M7780 23340
L8090 23340
L7920 23530
L8000 23530
L8040 23550
L8070 23570
L8090 23620
L8090 23740
L8070 23790
L8040 23810
L8000 23840
L7850 23840
L7810 23810
L7780 23790
" />
<path d="M10210 7460
L10210 9460
" />
<path d="M10440 6700
L9940 6700
L9940 6510
L9960 6460
L9980 6440
L10030 6420
L10100 6420
L10150 6440
L10170 6460
L10200 6510
L10200 6700
" />
<path d="M10170 6200
L10170 6030
" />
<path d="M10440 5960
L10440 6200
L9940 6200
L9940 5960
" />
<path d="M10100 5540
L10440 5540
" />
<path d="M9910 5660
L10270 5770
L10270 5470
" />
<path d="M9750 8610
L10090 8610
" />
<path d="M9560 8730
L9920 8840
L9920 8540
" />
<path d="M9590 8390
L9590 8060
L10090 8270
" />
<path d="M23210 27460
L23210 25460
" />
<path d="M23440 29440
L22940 29440
L22940 29250
L22960 29200
L22980 29180
L23030 29160
L23100 29160
L23150 29180
L23170 29200
L23200 29250
L23200 29440
" />
<path d="M22980 28960
L22960 28940
L22940 28890
L22940 28770
L22960 28730
L22980 28700
L23030 28680
L23080 28680
L23150 28700
L23440 28990
L23440 28680
" />
<path d="M22940 28510
L22940 28180
L23440 28390
" />
<path d="M23090 26560
L23090 26840
" />
<path d="M23090 26700
L22590 26700
L22660 26750
L22710 26800
L22730 26840
" />
<path d="M22590 26100
L22590 26340
L22820 26360
L22800 26340
L22780 26290
L22780 26170
L22800 26130
L22820 26100
L22870 26080
L22990 26080
L23040 26100
L23060 26130
L23090 26170
L23090 26290
L23060 26340
L23040 26360
" />
<path d="M26710 23960
L24710 23960
" />
<path d="M27470 24190
L27470 23690
L27660 23690
L27710 23710
L27730 23730
L27750 23780
L27750 23850
L27730 23900
L27710 23920
L27660 23950
L27470 23950
" />
<path d="M28230 24190
L27950 24190
" />
<path d="M28090 24190
L28090 23690
L28040 23760
L27990 23810
L27950 23830
" />
<path d="M28660 23690
L28570 23690
L28520 23710
L28500 23730
L28450 23810
L28430 23900
L28430 24090
L28450 24140
L28470 24160
L28520 24190
L28620 24190
L28660 24160
L28690 24140
L28710 24090
L28710 23970
L28690 23920
L28660 23900
L28620 23880
L28520 23880
L28470 23900
L28450 23920
L28430 23970
" />
<path d="M25610 23840
L25330 23840
" />
<path d="M25470 23840
L25470 23340
L25420 23410
L25370 23460
L25330 23480
" />
<path d="M25900 23550
L25850 23530
L25830 23500
L25810 23460
L25810 23430
L25830 23380
L25850 23360
L25900 23340
L26000 23340
L26040 23360
L26070 23380
L26090 23430
L26090 23460
L26070 23500
L26040 23530
L26000 23550
L25900 23550
L25850 23570
L25830 23600
L25810 23650
L25810 23740
L25830 23790
L25850 23810
L25900 23840
L26000 23840
L26040 23810
L26070 23790
L26090 23740
L26090 23650
L26070 23600
L26040 23570
L26000 23550
" />
<path d="M6710 14960
L8710 14960
" />
<path d="M3790 14690
L3950 15190
L4120 14690
" />
<path d="M4570 15190
L4410 14950
" />
<path d="M4290 15190
L4290 14690
L4480 14690
L4530 14710
L4550 14730
L4570 14780
L4570 14850
L4550 14900
L4530 14920
L4480 14950
L4290 14950
" />
<path d="M4790 14920
L4960 14920
" />
<path d="M5030 15190
L4790 15190
L4790 14690
L5030 14690
" />
<path d="M5410 14920
L5240 14920
" />
<path d="M5240 15190
L5240 14690
L5480 14690
" />
<path d="M5670 15190
L5670 14690
" />
<path d="M5670 14920
L5950 14920
" />
<path d="M5950 15190
L5950 14690
" />
<path d="M7590 14340
L7350 14340
L7330 14570
L7350 14550
L7400 14530
L7520 14530
L7560 14550
L7590 14570
L7610 14620
L7610 14740
L7590 14790
L7560 14810
L7520 14840
L7400 14840
L7350 14810
L7330 14790
" />
<path d="M8040 14500
L8040 14840
" />
<path d="M7920 14310
L7810 14670
L8110 14670
" />
<path d="M14210 27460
L14210 25460
" />
<path d="M14440 29630
L14200 29790
" />
<path d="M14440 29910
L13940 29910
L13940 29720
L13960 29670
L13980 29650
L14030 29630
L14100 29630
L14150 29650
L14170 29670
L14200 29720
L14200 29910
" />
<path d="M14170 29410
L14170 29240
" />
<path d="M14440 29170
L14440 29410
L13940 29410
L13940 29170
" />
<path d="M14410 28980
L14440 28910
L14440 28790
L14410 28750
L14390 28720
L14340 28700
L14290 28700
L14250 28720
L14220 28750
L14200 28790
L14170 28890
L14150 28940
L14130 28960
L14080 28980
L14030 28980
L13980 28960
L13960 28940
L13940 28890
L13940 28770
L13960 28700
" />
<path d="M14100 28500
L14100 28150
" />
<path d="M13890 28360
L14530 28500
" />
<path d="M14320 28200
L14320 28550
" />
<path d="M14530 28340
L13890 28200
" />
<path d="M13590 26370
L13590 26460
L13610 26510
L13630 26530
L13710 26580
L13800 26600
L13990 26600
L14040 26580
L14060 26560
L14090 26510
L14090 26410
L14060 26370
L14040 26340
L13990 26320
L13870 26320
L13820 26340
L13800 26370
L13780 26410
L13780 26510
L13800 26560
L13820 26580
L13870 26600
" />
<path d="M19210 7460
L19210 9460
" />
<path d="M18940 6770
L19440 6610
L18940 6440
" />
<path d="M19390 5990
L19410 6010
L19440 6080
L19440 6130
L19410 6200
L19360 6250
L19320 6270
L19220 6290
L19150 6290
L19060 6270
L19010 6250
L18960 6200
L18940 6130
L18940 6080
L18960 6010
L18980 5990
" />
<path d="M19390 5490
L19410 5510
L19440 5580
L19440 5630
L19410 5700
L19360 5750
L19320 5770
L19220 5790
L19150 5790
L19060 5770
L19010 5750
L18960 5700
L18940 5630
L18940 5580
L18960 5510
L18980 5490
" />
<path d="M18590 8870
L18590 8560
L18780 8730
L18780 8650
L18800 8610
L18820 8580
L18870 8560
L18990 8560
L19040 8580
L19060 8610
L19090 8650
L19090 8800
L19060 8840
L19040 8870
" />
<path d="M18800 8270
L18780 8320
L18750 8340
L18710 8360
L18680 8360
L18630 8340
L18610 8320
L18590 8270
L18590 8170
L18610 8130
L18630 8100
L18680 8080
L18710 8080
L18750 8100
L18780 8130
L18800 8170
L18800 8270
L18820 8320
L18850 8340
L18900 8360
L18990 8360
L19040 8340
L19060 8320
L19090 8270
L19090 8170
L19060 8130
L19040 8100
L18990 8080
L18900 8080
L18850 8100
L18820 8130
L18800 8170
" />
<path d="M26710 14960
L24710 14960
" />
<path d="M27470 15190
L27470 14690
L27660 14690
L27710 14710
L27730 14730
L27750 14780
L27750 14850
L27730 14900
L27710 14920
L27660 14950
L27470 14950
" />
<path d="M28250 15140
L28230 15160
L28160 15190
L28110 15190
L28040 15160
L27990 15110
L27970 15070
L27950 14970
L27950 14900
L27970 14810
L27990 14760
L28040 14710
L28110 14690
L28160 14690
L28230 14710
L28250 14730
" />
<path d="M28420 14690
L28750 14690
L28540 15190
" />
<path d="M25330 14380
L25350 14360
L25400 14340
L25520 14340
L25560 14360
L25590 14380
L25610 14430
L25610 14480
L25590 14550
L25300 14840
L25610 14840
" />
<path d="M25780 14340
L26110 14340
L25900 14840
" />
<path d="M6710 24960
L8710 24960
" />
<path d="M4350 25040
L4580 25040
" />
<path d="M4300 25190
L4460 24690
L4630 25190
" />
<path d="M4730 24690
L4890 25190
L5060 24690
" />
<path d="M5210 25160
L5280 25190
L5400 25190
L5440 25160
L5470 25140
L5490 25090
L5490 25040
L5470 25000
L5440 24970
L5400 24950
L5300 24920
L5250 24900
L5230 24880
L5210 24830
L5210 24780
L5230 24730
L5250 24710
L5300 24690
L5420 24690
L5490 24710
" />
<path d="M5690 25160
L5760 25190
L5880 25190
L5920 25160
L5950 25140
L5970 25090
L5970 25040
L5950 25000
L5920 24970
L5880 24950
L5780 24920
L5730 24900
L5710 24880
L5690 24830
L5690 24780
L5710 24730
L5730 24710
L5780 24690
L5900 24690
L5970 24710
" />
<path d="M7560 24340
L7470 24340
L7420 24360
L7400 24380
L7350 24460
L7330 24550
L7330 24740
L7350 24790
L7370 24810
L7420 24840
L7520 24840
L7560 24810
L7590 24790
L7610 24740
L7610 24620
L7590 24570
L7560 24550
L7520 24530
L7420 24530
L7370 24550
L7350 24570
L7330 24620
" />
<path d="M8040 24500
L8040 24840
" />
<path d="M7920 24310
L7810 24670
L8110 24670
" />
<path d="M9210 7460
L9210 9460
" />
<path d="M9440 6700
L8940 6700
L8940 6510
L8960 6460
L8980 6440
L9030 6420
L9100 6420
L9150 6440
L9170 6460
L9200 6510
L9200 6700
" />
<path d="M9170 6200
L9170 6030
" />
<path d="M9440 5960
L9440 6200
L8940 6200
L8940 5960
" />
<path d="M8940 5800
L8940 5490
L9130 5660
L9130 5580
L9150 5540
L9170 5510
L9220 5490
L9340 5490
L9390 5510
L9410 5540
L9440 5580
L9440 5730
L9410 5770
L9390 5800
" />
<path d="M8750 8610
L9090 8610
" />
<path d="M8560 8730
L8920 8840
L8920 8540
" />
<path d="M8800 8270
L8780 8320
L8750 8340
L8710 8360
L8680 8360
L8630 8340
L8610 8320
L8590 8270
L8590 8170
L8610 8130
L8630 8100
L8680 8080
L8710 8080
L8750 8100
L8780 8130
L8800 8170
L8800 8270
L8820 8320
L8850 8340
L8900 8360
L8990 8360
L9040 8340
L9060 8320
L9090 8270
L9090 8170
L9060 8130
L9040 8100
L8990 8080
L8900 8080
L8850 8100
L8820 8130
L8800 8170
" />
<path d="M24210 27460
L24210 25460
" />
<path d="M24440 29440
L23940 29440
L23940 29250
L23960 29200
L23980 29180
L24030 29160
L24100 29160
L24150 29180
L24170 29200
L24200 29250
L24200 29440
" />
<path d="M23980 28960
L23960 28940
L23940 28890
L23940 28770
L23960 28730
L23980 28700
L24030 28680
L24080 28680
L24150 28700
L24440 28990
L24440 28680
" />
<path d="M23940 28250
L23940 28340
L23960 28390
L23980 28410
L24060 28460
L24150 28480
L24340 28480
L24390 28460
L24410 28440
L24440 28390
L24440 28290
L24410 28250
L24390 28220
L24340 28200
L24220 28200
L24170 28220
L24150 28250
L24130 28290
L24130 28390
L24150 28440
L24170 28460
L24220 28480
" />
<path d="M24090 26560
L24090 26840
" />
<path d="M24090 26700
L23590 26700
L23660 26750
L23710 26800
L23730 26840
" />
<path d="M23590 26130
L23590 26220
L23610 26270
L23630 26290
L23710 26340
L23800 26360
L23990 26360
L24040 26340
L24060 26320
L24090 26270
L24090 26170
L24060 26130
L24040 26100
L23990 26080
L23870 26080
L23820 26100
L23800 26130
L23780 26170
L23780 26270
L23800 26320
L23820 26340
L23870 26360
" />
<path d="M26710 24960
L24710 24960
" />
<path d="M27470 25190
L27470 24690
L27660 24690
L27710 24710
L27730 24730
L27750 24780
L27750 24850
L27730 24900
L27710 24920
L27660 24950
L27470 24950
" />
<path d="M28230 25190
L27950 25190
" />
<path d="M28090 25190
L28090 24690
L28040 24760
L27990 24810
L27950 24830
" />
<path d="M28400 24690
L28730 24690
L28520 25190
" />
<path d="M25610 24840
L25330 24840
" />
<path d="M25470 24840
L25470 24340
L25420 24410
L25370 24460
L25330 24480
" />
<path d="M25780 24340
L26110 24340
L25900 24840
" />
<path d="M6710 15960
L8710 15960
" />
<path d="M4730 16190
L4730 15690
L4920 15690
L4970 15710
L4990 15730
L5010 15780
L5010 15850
L4990 15900
L4970 15920
L4920 15950
L4730 15950
" />
<path d="M5440 15850
L5440 16190
" />
<path d="M5320 15660
L5210 16020
L5510 16020
" />
<path d="M5920 15850
L5920 16190
" />
<path d="M5800 15660
L5690 16020
L5990 16020
" />
<path d="M7590 15340
L7350 15340
L7330 15570
L7350 15550
L7400 15530
L7520 15530
L7560 15550
L7590 15570
L7610 15620
L7610 15740
L7590 15790
L7560 15810
L7520 15840
L7400 15840
L7350 15810
L7330 15790
" />
<path d="M8070 15340
L7830 15340
L7810 15570
L7830 15550
L7880 15530
L8000 15530
L8040 15550
L8070 15570
L8090 15620
L8090 15740
L8070 15790
L8040 15810
L8000 15840
L7880 15840
L7830 15810
L7810 15790
" />
<path d="M15210 27460
L15210 25460
" />
<path d="M15440 31650
L14940 31650
L14940 31460
L14960 31410
L14980 31390
L15030 31370
L15100 31370
L15150 31390
L15170 31410
L15200 31460
L15200 31650
" />
<path d="M14940 31200
L14940 30890
L15130 31060
L15130 30980
L15150 30940
L15170 30910
L15220 30890
L15340 30890
L15390 30910
L15410 30940
L15440 30980
L15440 31130
L15410 31170
L15390 31200
" />
<path d="M14940 30720
L14940 30390
L15440 30600
" />
<path d="M14910 29830
L15560 30260
" />
<path d="M14940 29720
L15440 29390
" />
<path d="M14940 29390
L15440 29720
" />
<path d="M14940 29260
L14940 28980
" />
<path d="M15440 29120
L14940 29120
" />
<path d="M15290 28830
L15290 28600
" />
<path d="M15440 28880
L14940 28720
L15440 28550
" />
<path d="M15440 28140
L15440 28380
L14940 28380
" />
<path d="M14590 26630
L14590 26300
L15090 26510
" />
<path d="M18210 7460
L18210 9460
" />
<path d="M18440 6700
L17940 6700
L17940 6510
L17960 6460
L17980 6440
L18030 6420
L18100 6420
L18150 6440
L18170 6460
L18200 6510
L18200 6700
" />
<path d="M18170 6030
L18200 5960
L18220 5940
L18270 5920
L18340 5920
L18390 5940
L18410 5960
L18440 6010
L18440 6200
L17940 6200
L17940 6030
L17960 5990
L17980 5960
L18030 5940
L18080 5940
L18130 5960
L18150 5990
L18170 6030
L18170 6200
" />
<path d="M17940 5610
L17940 5560
L17960 5510
L17980 5490
L18030 5460
L18130 5440
L18250 5440
L18340 5460
L18390 5490
L18410 5510
L18440 5560
L18440 5610
L18410 5650
L18390 5680
L18340 5700
L18250 5720
L18130 5720
L18030 5700
L17980 5680
L17960 5650
L17940 5610
" />
<path d="M17590 8870
L17590 8560
L17780 8730
L17780 8650
L17800 8610
L17820 8580
L17870 8560
L17990 8560
L18040 8580
L18060 8610
L18090 8650
L18090 8800
L18060 8840
L18040 8870
" />
<path d="M18090 8320
L18090 8220
L18060 8170
L18040 8150
L17970 8100
L17870 8080
L17680 8080
L17630 8100
L17610 8130
L17590 8170
L17590 8270
L17610 8320
L17630 8340
L17680 8360
L17800 8360
L17850 8340
L17870 8320
L17900 8270
L17900 8170
L17870 8130
L17850 8100
L17800 8080
" />
<path d="M26710 15960
L24710 15960
" />
<path d="M27470 16190
L27470 15690
L27660 15690
L27710 15710
L27730 15730
L27750 15780
L27750 15850
L27730 15900
L27710 15920
L27660 15950
L27470 15950
" />
<path d="M28210 15690
L27970 15690
L27950 15920
L27970 15900
L28020 15880
L28140 15880
L28180 15900
L28210 15920
L28230 15970
L28230 16090
L28210 16140
L28180 16160
L28140 16190
L28020 16190
L27970 16160
L27950 16140
" />
<path d="M28660 15850
L28660 16190
" />
<path d="M28540 15660
L28430 16020
L28730 16020
" />
<path d="M25330 15380
L25350 15360
L25400 15340
L25520 15340
L25560 15360
L25590 15380
L25610 15430
L25610 15480
L25590 15550
L25300 15840
L25610 15840
" />
<path d="M26040 15340
L25950 15340
L25900 15360
L25880 15380
L25830 15460
L25810 15550
L25810 15740
L25830 15790
L25850 15810
L25900 15840
L26000 15840
L26040 15810
L26070 15790
L26090 15740
L26090 15620
L26070 15570
L26040 15550
L26000 15530
L25900 15530
L25850 15550
L25830 15570
L25810 15620
" />
<path d="M16280 3630
L16280 4120
L16310 4170
L16340 4200
L16400 4230
L16510 4230
L16570 4200
L16600 4170
L16630 4120
L16630 3630
" />
<path d="M17000 4170
L17030 4200
L17000 4230
L16970 4200
L17000 4170
L17000 4230
" />
<path d="M16880 3660
L16940 3630
L17080 3630
L17140 3660
L17170 3720
L17170 3770
L17140 3830
L17110 3860
L17060 3890
L17030 3920
L17000 3970
L17000 4000
" />
<path d="M15760 17730
L15560 17450
" />
<path d="M15410 17730
L15410 17130
L15640 17130
L15700 17160
L15730 17190
L15760 17250
L15760 17330
L15730 17390
L15700 17420
L15640 17450
L15410 17450
" />
<path d="M15960 17130
L16360 17730
" />
<path d="M16360 17130
L15960 17730
" />
<path d="M16840 17130
L16730 17130
L16670 17160
L16640 17190
L16580 17270
L16550 17390
L16550 17620
L16580 17670
L16610 17700
L16670 17730
L16780 17730
L16840 17700
L16870 17670
L16900 17620
L16900 17470
L16870 17420
L16840 17390
L16780 17360
L16670 17360
L16610 17390
L16580 17420
L16550 17470
" />
<path d="M17100 17130
L17470 17130
L17270 17360
L17350 17360
L17410 17390
L17440 17420
L17470 17470
L17470 17620
L17440 17670
L17410 17700
L17350 17730
L17180 17730
L17120 17700
L17100 17670
" />
<path d="M18040 17730
L17690 17730
" />
<path d="M17870 17730
L17870 17130
L17810 17220
L17750 17270
L17690 17300
" />
</g> 
</svg>
