  0
SECTION
  2
HEADER
  9
$ACADVER
  1
AC1009
  9
$INSBASE
 10
0.0
 20
0.0
 30
0.0
  9
$EXTMIN
 10
0.0
 20
0.0
 30
0.0
  9
$EXTMAX
 10
83.600000531126994
 20
111.6281046171537
 30
0.0
  9
$LIMMIN
 10
0.0
 20
0.0
  9
$LIMMAX
 10
83.600000531126994
 20
111.6281046171537
  9
$ORTHOMODE
 70
     0
  9
$REGENMODE
 70
     1
  9
$FILLMODE
 70
     1
  9
$QTEXTMODE
 70
     0
  9
$MIRRTEXT
 70
     0
  9
$DRAGMODE
 70
     2
  9
$LTSCALE
 40
1.0
  9
$OSMODE
 70
     0
  9
$ATTMODE
 70
     1
  9
$TEXTSIZE
 40
0.2
  9
$TRACEWID
 40
0.05
  9
$TEXTSTYLE
  7
STANDARD
  9
$CLAYER
  8
0
  9
$CELTYPE
  6
BYLAYER
  9
$CECOLOR
 62
   256
  9
$DIMSCALE
 40
1.0
  9
$DIMASZ
 40
1.7999999999999989
  9
$DIMEXO
 40
0.0625
  9
$DIMDLI
 40
0.38
  9
$DIMRND
 40
0.0
  9
$DIMDLE
 40
0.0
  9
$DIMEXE
 40
0.18
  9
$DIMTP
 40
0.0
  9
$DIMTM
 40
0.0
  9
$DIMTXT
 40
1.7999999999999989
  9
$DIMCEN
 40
0.09
  9
$DIMTSZ
 40
0.0
  9
$DIMTOL
 70
     0
  9
$DIMLIM
 70
     0
  9
$DIMTIH
 70
     1
  9
$DIMTOH
 70
     1
  9
$DIMSE1
 70
     0
  9
$DIMSE2
 70
     0
  9
$DIMTAD
 70
     0
  9
$DIMZIN
 70
     0
  9
$DIMBLK
  1

  9
$DIMASO
 70
     1
  9
$DIMSHO
 70
     1
  9
$DIMPOST
  1

  9
$DIMAPOST
  1

  9
$DIMALT
 70
     0
  9
$DIMALTD
 70
     2
  9
$DIMALTF
 40
25.399999999999999
  9
$DIMLFAC
 40
1.0
  9
$DIMTOFL
 70
     0
  9
$DIMTVP
 40
0.0
  9
$DIMTIX
 70
     0
  9
$DIMSOXD
 70
     0
  9
$DIMSAH
 70
     0
  9
$DIMBLK1
  1

  9
$DIMBLK2
  1

  9
$DIMSTYLE
  2
STANDARD
  9
$DIMCLRD
 70
     0
  9
$DIMCLRE
 70
     0
  9
$DIMCLRT
 70
     0
  9
$DIMTFAC
 40
1.0
  9
$DIMGAP
 40
0.09
  9
$LUNITS
 70
     2
  9
$LUPREC
 70
     4
  9
$SKETCHINC
 40
0.1
  9
$FILLETRAD
 40
0.0
  9
$AUNITS
 70
     0
  9
$AUPREC
 70
     0
  9
$MENU
  1
.
  9
$ELEVATION
 40
0.0
  9
$PELEVATION
 40
0.0
  9
$THICKNESS
 40
0.0
  9
$LIMCHECK
 70
     0
  9
$BLIPMODE
 70
     0
  9
$CHAMFERA
 40
0.0
  9
$CHAMFERB
 40
0.0
  9
$SKPOLY
 70
     0
  9
$TDCREATE
 40
2457661.569816852
  9
$TDUPDATE
 40
2457661.569816852
  9
$TDINDWG
 40
0.000002963
  9
$TDUSRTIMER
 40
0.000002963
  9
$USRTIMER
 70
     1
  9
$ANGBASE
 50
0.0
  9
$ANGDIR
 70
     0
  9
$PDMODE
 70
     0
  9
$PDSIZE
 40
0.0
  9
$PLINEWID
 40
0.0
  9
$COORDS
 70
     0
  9
$SPLFRAME
 70
     0
  9
$SPLINETYPE
 70
     6
  9
$SPLINESEGS
 70
     8
  9
$ATTDIA
 70
     1
  9
$ATTREQ
 70
     1
  9
$HANDLING
 70
     1
  9
$HANDSEED
  5
46E
  9
$SURFTAB1
 70
     6
  9
$SURFTAB2
 70
     6
  9
$SURFTYPE
 70
     6
  9
$SURFU
 70
     6
  9
$SURFV
 70
     6
  9
$UCSNAME
  2

  9
$UCSORG
 10
0.0
 20
0.0
 30
0.0
  9
$UCSXDIR
 10
1.0
 20
0.0
 30
0.0
  9
$UCSYDIR
 10
0.0
 20
1.0
 30
0.0
  9
$PUCSNAME
  2

  9
$PUCSORG
 10
0.0
 20
0.0
 30
0.0
  9
$PUCSXDIR
 10
1.0
 20
0.0
 30
0.0
  9
$PUCSYDIR
 10
0.0
 20
1.0
 30
0.0
  9
$USERI1
 70
     0
  9
$USERI2
 70
     0
  9
$USERI3
 70
     0
  9
$USERI4
 70
     0
  9
$USERI5
 70
     0
  9
$USERR1
 40
0.0
  9
$USERR2
 40
0.0
  9
$USERR3
 40
0.0
  9
$USERR4
 40
0.0
  9
$USERR5
 40
0.0
  9
$WORLDVIEW
 70
     1
  9
$SHADEDGE
 70
     3
  9
$SHADEDIF
 70
    70
  9
$TILEMODE
 70
     1
  9
$MAXACTVP
 70
    64
  9
$PLIMCHECK
 70
     0
  9
$PEXTMIN
 10
0.0
 20
0.0
 30
0.0
  9
$PEXTMAX
 10
83.600000531126994
 20
111.6281046171537
 30
0.0
  9
$PLIMMIN
 10
0.0
 20
0.0
  9
$PLIMMAX
 10
83.600000531126994
 20
111.6281046171537
  9
$UNITMODE
 70
     0
  9
$VISRETAIN
 70
     1
  9
$PLINEGEN
 70
     0
  9
$PSLTSCALE
 70
     1
  0
ENDSEC
  0
SECTION
  2
TABLES
  0
TABLE
  2
VPORT
 70
     1
  0
VPORT
  2
*ACTIVE
 70
     0
 10
0.0
 20
0.0
 11
1.0
 21
1.0
 12
0.0000000000000071
 22
-7.2599526854233778
 13
0.0
 23
0.0
 14
1.0
 24
1.0
 15
0.0
 25
0.0
 16
0.0
 26
0.0
 36
1.0
 17
0.0
 27
0.0
 37
0.0
 40
111.6281046171537
 41
0.74891534544859
 42
50.0
 43
0.0
 44
0.0
 50
0.0
 51
0.0
 71
     0
 72
   100
 73
     1
 74
     1
 75
     0
 76
     0
 77
     0
 78
     0
  0
ENDTAB
  0
TABLE
  2
LTYPE
 70
    59
  0
LTYPE
  2
CONTINUOUS
 70
     0
  3
Solid line
 72
    65
 73
     0
 40
0.0
  0
LTYPE
  2
BY_STANDARD
 70
     0
  3
By Standard ____________    ____    ____   _
 72
    65
 73
     6
 40
1.2402999999999991
 49
0.6614
 49
-0.0827
 49
0.1654
 49
-0.0827
 49
0.1654
 49
-0.0827
  0
LTYPE
  2
CHAIN
 70
     0
  3
Chain ____ _ ____ _ ____ _ ____ _ ____ _ ____
 72
    65
 73
     4
 40
0.7087
 49
0.4724000000000001
 49
-0.0591
 49
0.1181
 49
-0.0591
  0
LTYPE
  2
DASH_DOT
 70
     0
  3
Dash dot __ . __ . __ . __ . __ . __ . __ . __
 72
    65
 73
     4
 40
0.37
 49
0.24
 49
-0.06
 49
0.01
 49
-0.06
  0
LTYPE
  2
DOUBLE_DASH_DOT
 70
     0
  3
Double-Dash Dot __ __ . __ __ . __ __ . __ _
 72
    65
 73
     6
 40
0.4398
 49
0.24
 49
-0.06
 49
0.0098
 49
-0.06
 49
0.01
 49
-0.06
  0
LTYPE
  2
DASH_TRIPLE_DOT
 70
     0
  3
Dash Triple-Dot _ . . . _ . . . _ . . . _
 72
    65
 73
     8
 40
0.51
 49
0.24
 49
-0.06
 49
0.01
 49
-0.06
 49
0.01
 49
-0.06
 49
0.01
 49
-0.06
  0
LTYPE
  2
DASHED
 70
     0
  3
Dashed __ __ __ __ __ __ __ __ __ __ __ __ __ _
 72
    65
 73
     2
 40
0.2067
 49
0.1654
 49
-0.0413
  0
LTYPE
  2
DASH_DOUBLE_DOT
 70
     0
  3
Dash Double-Dot __ . . __ . . __ . . __ . .
 72
    65
 73
     6
 40
0.4398
 49
0.24
 49
-0.06
 49
0.0098
 49
-0.06
 49
0.01
 49
-0.06
  0
LTYPE
  2
DASHED_SPACE
 70
     0
  3
Dashed Space __ __ __ __ __ __ __ __ __ __ __ _
 72
    65
 73
     2
 40
0.2067
 49
0.1654
 49
-0.0413
  0
LTYPE
  2
DOTTED
 70
     0
  3
Dotted . . . . . . . . . . . . . . . . . . . . 
 72
    65
 73
     2
 40
0.0482
 49
0.0069
 49
-0.0413
  0
LTYPE
  2
DOUBLE_DASH_CHAIN
 70
     0
  3
Double-Dash Chain ______  __  __  ______  __  _
 72
    65
 73
     6
 40
1.2402999999999991
 49
0.6614
 49
-0.0827
 49
0.1654
 49
-0.0827
 49
0.1654
 49
-0.0827
  0
LTYPE
  2
DOUBLE_DASH_DOUBLE_DOT
 70
     0
  3
Double-Dash Double-dot _ _ . . _ _ . . _
 72
    65
 73
     8
 40
0.7400000000000001
 49
0.24
 49
-0.06
 49
0.24
 49
-0.06
 49
0.01
 49
-0.06
 49
0.01
 49
-0.06
  0
LTYPE
  2
DOUBLE_DASH_TRIPLE_DOT
 70
     0
  3
Double Dash Triple Dot __ __ . . . __ __ . .
 72
    65
 73
    10
 40
0.8100000000000001
 49
0.24
 49
-0.06
 49
0.24
 49
-0.06
 49
0.01
 49
-0.06
 49
0.01
 49
-0.06
 49
0.01
 49
-0.06
  0
LTYPE
  2
LONG_DASH_DOTTED
 70
     0
  3
Long Dash Dotted ____ . ____ . ____ . ____ . _
 72
    65
 73
     4
 40
0.3543
 49
0.2362
 49
-0.0295
 49
0.0591
 49
-0.0295
  0
LTYPE
  2
LONG_DASH_DOUBLE_DOT
 70
     0
  3
Long Dash Double Dot ________  .  .  ________  
 72
    65
 73
     6
 40
0.6799999999999999
 49
0.48
 49
-0.06
 49
0.01
 49
-0.06
 49
0.01
 49
-0.06
  0
LTYPE
  2
LONG_DASH_TRIPLE_DOT
 70
     0
  3
Long Dash Triple Dot ____ ... ____ ... ____
 72
    65
 73
     8
 40
0.3689
 49
0.2362
 49
-0.0295
 49
0.0049
 49
-0.0295
 49
0.0049
 49
-0.0295
 49
0.0049
 49
-0.0295
  0
LTYPE
  2
BORDER
 70
     0
  3
Border __ __ . __ __ . __ __ . __ __ . __ __ .
 72
    65
 73
     6
 40
1.75
 49
0.5
 49
-0.25
 49
0.5
 49
-0.25
 49
0.0
 49
-0.25
  0
LTYPE
  2
BORDER2
 70
     0
  3
Border (.5x) __.__.__.__.__.__.__.__.__.__.__.
 72
    65
 73
     6
 40
0.875
 49
0.25
 49
-0.125
 49
0.25
 49
-0.125
 49
0.0
 49
-0.125
  0
LTYPE
  2
BORDERX2
 70
     0
  3
Border (2x) ____  ____  .  ____  ____  .  ___
 72
    65
 73
     6
 40
3.5
 49
1.0
 49
-0.5
 49
1.0
 49
-0.5
 49
0.0
 49
-0.5
  0
LTYPE
  2
CENTER
 70
     0
  3
Center ____ _ ____ _ ____ _ ____ _ ____ _ ____
 72
    65
 73
     4
 40
2.0
 49
1.25
 49
-0.25
 49
0.25
 49
-0.25
  0
LTYPE
  2
CENTER2
 70
     0
  3
Center (.5x) ___ _ ___ _ ___ _ ___ _ ___ _ ___
 72
    65
 73
     4
 40
1.125
 49
0.75
 49
-0.125
 49
0.125
 49
-0.125
  0
LTYPE
  2
CENTERX2
 70
     0
  3
Center (2x) ________  __  ________  __  _____
 72
    65
 73
     4
 40
4.0
 49
2.5
 49
-0.5
 49
0.5
 49
-0.5
  0
LTYPE
  2
DASHDOT2
 70
     0
  3
Dash dot (.5x) _._._._._._._._._._._._._._._.
 72
    65
 73
     4
 40
0.5
 49
0.25
 49
-0.125
 49
0.0
 49
-0.125
  0
LTYPE
  2
DASHDOTX2
 70
     0
  3
Dash dot (2x) ____  .  ____  .  ____  .  ___
 72
    65
 73
     4
 40
2.0
 49
1.0
 49
-0.5
 49
0.0
 49
-0.5
  0
LTYPE
  2
DASHED2
 70
     0
  3
Dashed (.5x) _ _ _ _ _ _ _ _ _ _ _ _ _ _ _ _ _
 72
    65
 73
     2
 40
0.375
 49
0.25
 49
-0.125
  0
LTYPE
  2
DASHEDX2
 70
     0
  3
Dashed (2x) ____  ____  ____  ____  ____  ___
 72
    65
 73
     2
 40
1.5
 49
1.0
 49
-0.5
  0
LTYPE
  2
DIVIDE
 70
     0
  3
Divide ____ . . ____ . . ____ . . ____ . . ____
 72
    65
 73
     6
 40
1.25
 49
0.5
 49
-0.25
 49
0.0
 49
-0.25
 49
0.0
 49
-0.25
  0
LTYPE
  2
DIVIDE2
 70
     0
  3
Divide (.5x) __..__..__..__..__..__..__..__.._
 72
    65
 73
     6
 40
0.625
 49
0.25
 49
-0.125
 49
0.0
 49
-0.125
 49
0.0
 49
-0.125
  0
LTYPE
  2
DIVIDEX2
 70
     0
  3
Divide (2x) ________  .  .  ________  .  .  _
 72
    65
 73
     6
 40
2.5
 49
1.0
 49
-0.5
 49
0.0
 49
-0.5
 49
0.0
 49
-0.5
  0
LTYPE
  2
DOT
 70
     0
  3
Dot . . . . . . . . . . . . . . . . . . . . . .
 72
    65
 73
     2
 40
0.25
 49
0.0
 49
-0.25
  0
LTYPE
  2
DOT2
 70
     0
  3
Dot (.5x) .....................................
 72
    65
 73
     2
 40
0.125
 49
0.0
 49
-0.125
  0
LTYPE
  2
DOTX2
 70
     0
  3
Dot (2x) .  .  .  .  .  .  .  .  .  .  .  .  . 
 72
    65
 73
     2
 40
0.5
 49
0.0
 49
-0.5
  0
LTYPE
  2
HIDDEN
 70
     0
  3
Hidden __ __ __ __ __ __ __ __ __ __ __ __ __ _
 72
    65
 73
     2
 40
0.375
 49
0.25
 49
-0.125
  0
LTYPE
  2
HIDDEN2
 70
     0
  3
Hidden (.5x) _ _ _ _ _ _ _ _ _ _ _ _ _ _ _ _ _
 72
    65
 73
     2
 40
0.1875
 49
0.125
 49
-0.0625
  0
LTYPE
  2
HIDDENX2
 70
     0
  3
Hidden (2x) ____ ____ ____ ____ ____ ____ ____
 72
    65
 73
     2
 40
0.75
 49
0.5
 49
-0.25
  0
LTYPE
  2
PHANTOM
 70
     0
  3
Phantom ______  __  __  ______  __  __  ______
 72
    65
 73
     6
 40
2.5
 49
1.25
 49
-0.25
 49
0.25
 49
-0.25
 49
0.25
 49
-0.25
  0
LTYPE
  2
PHANTOM2
 70
     0
  3
Phantom (.5x) ___ _ _ ___ _ _ ___ _ _ ___ _ _
 72
    65
 73
     6
 40
1.25
 49
0.625
 49
-0.125
 49
0.125
 49
-0.125
 49
0.125
 49
-0.125
  0
LTYPE
  2
PHANTOMX2
 70
     0
  3
Phantom (2x) ____________    ____    ____   _
 72
    65
 73
     6
 40
5.0
 49
2.5
 49
-0.5
 49
0.5
 49
-0.5
 49
0.5
 49
-0.5
  0
LTYPE
  2
ACAD_ISO02W100
 70
     0
  3
ISO dash __ __ __ __ __ __ __ __ __ __ __ __ __
 72
    65
 73
     2
 40
0.59
 49
0.47
 49
-0.12
  0
LTYPE
  2
ACAD_ISO03W100
 70
     0
  3
ISO dash space __    __    __    __    __    __
 72
    65
 73
     2
 40
1.179999999999999
 49
0.47
 49
-0.71
  0
LTYPE
  2
ACAD_ISO04W100
 70
     0
  3
ISO long-dash dot ____ . ____ . ____ . ____ . _
 72
    65
 73
     4
 40
1.179999999999999
 49
0.9399999999999998
 49
-0.12
 49
0.0
 49
-0.12
  0
LTYPE
  2
ACAD_ISO05W100
 70
     0
  3
ISO long-dash double-dot ____ .. ____ .. ____ .
 72
    65
 73
     6
 40
1.2999999999999989
 49
0.9399999999999998
 49
-0.12
 49
0.0
 49
-0.12
 49
0.0
 49
-0.12
  0
LTYPE
  2
ACAD_ISO06W100
 70
     0
  3
ISO long-dash triple-dot ____ ... ____ ... ____
 72
    65
 73
     8
 40
1.419999999999999
 49
0.9399999999999998
 49
-0.12
 49
0.0
 49
-0.12
 49
0.0
 49
-0.12
 49
0.0
 49
-0.12
  0
LTYPE
  2
ACAD_ISO07W100
 70
     0
  3
ISO dot . . . . . . . . . . . . . . . . . . . .
 72
    65
 73
     2
 40
0.12
 49
0.0
 49
-0.12
  0
LTYPE
  2
ACAD_ISO08W100
 70
     0
  3
ISO long-dash short-dash ____ __ ____ __ ____ _
 72
    65
 73
     4
 40
0.95
 49
0.47
 49
-0.12
 49
0.24
 49
-0.12
  0
LTYPE
  2
ACAD_ISO09W100
 70
     0
  3
ISO long-dash double-short-dash ____ __ __ ____
 72
    65
 73
     6
 40
1.3100000000000001
 49
0.47
 49
-0.12
 49
0.24
 49
-0.12
 49
0.24
 49
-0.12
  0
LTYPE
  2
ACAD_ISO10W100
 70
     0
  3
ISO dash dot __ . __ . __ . __ . __ . __ . __ .
 72
    65
 73
     4
 40
0.71
 49
0.47
 49
-0.12
 49
0.0
 49
-0.12
  0
LTYPE
  2
ACAD_ISO11W100
 70
     0
  3
ISO double-dash dot __ __ . __ __ . __ __ . __ 
 72
    65
 73
     6
 40
1.2999999999999989
 49
0.47
 49
-0.12
 49
0.47
 49
-0.12
 49
0.0
 49
-0.12
  0
LTYPE
  2
ACAD_ISO12W100
 70
     0
  3
ISO dash double-dot __ . . __ . . __ . . __ . .
 72
    65
 73
     6
 40
0.8299999999999999
 49
0.47
 49
-0.12
 49
0.0
 49
-0.12
 49
0.0
 49
-0.12
  0
LTYPE
  2
ACAD_ISO13W100
 70
     0
  3
ISO double-dash double-dot __ __ . . __ __ . . 
 72
    65
 73
     8
 40
1.419999999999999
 49
0.47
 49
-0.12
 49
0.47
 49
-0.12
 49
0.0
 49
-0.12
 49
0.0
 49
-0.12
  0
LTYPE
  2
ACAD_ISO14W100
 70
     0
  3
ISO dash triple-dot __ . . . __ . . . __ . . . 
 72
    65
 73
     8
 40
0.95
 49
0.47
 49
-0.12
 49
0.0
 49
-0.12
 49
0.0
 49
-0.12
 49
0.0
 49
-0.12
  0
LTYPE
  2
ACAD_ISO15W100
 70
     0
  3
ISO double-dash triple-dot __ __ . . . __ __ . 
 72
    65
 73
    10
 40
1.5399999999999989
 49
0.47
 49
-0.12
 49
0.47
 49
-0.12
 49
0.0
 49
-0.12
 49
0.0
 49
-0.12
 49
0.0
 49
-0.12
  0
LTYPE
  2
FENCELINE1
 70
     0
  3
Fenceline circle ----0-----0----0-----0----0---
 72
    65
 73
     4
 40
1.45
 49
0.25
 49
-0.1
 49
-0.1
 49
1.0
  0
LTYPE
  2
FENCELINE2
 70
     0
  3
Fenceline square ----[]-----[]----[]-----[]----
 72
    65
 73
     4
 40
1.45
 49
0.25
 49
-0.1
 49
-0.1
 49
1.0
  0
LTYPE
  2
TRACKS
 70
     0
  3
Tracks -|-|-|-|-|-|-|-|-|-|-|-|-|-|-|-|-|-|-|-|
 72
    65
 73
     2
 40
0.3
 49
0.15
 49
0.15
  0
LTYPE
  2
BATTING
 70
     0
  3
Batting SSSSSSSSSSSSSSSSSSSSSSSSSSSSSSSSSSSSSSS
 72
    65
 73
     4
 40
0.4001000000000001
 49
0.0001
 49
-0.1
 49
-0.2
 49
-0.1
  0
LTYPE
  2
HOT_WATER_SUPPLY
 70
     0
  3
Hot water supply ---- HW ---- HW ---- HW ----
 72
    65
 73
     3
 40
0.9
 49
0.5
 49
-0.2
 49
-0.2
  0
LTYPE
  2
GAS_LINE
 70
     0
  3
Gas line ----GAS----GAS----GAS----GAS----GAS---
 72
    65
 73
     3
 40
0.95
 49
0.5
 49
-0.2
 49
-0.25
  0
LTYPE
  2
ZIGZAG
 70
     0
  3
Zig zag /\/\/\/\/\/\/\/\/\/\/\/\/\/\/\/\/\/\/\/
 72
    65
 73
     4
 40
0.8001000000000001
 49
0.0001
 49
-0.2
 49
-0.4
 49
-0.2
  0
ENDTAB
  0
TABLE
  2
LAYER
 70
     1
  0
LAYER
  2
0
 70
     0
 62
     7
  6
CONTINUOUS
  0
ENDTAB
  0
TABLE
  2
STYLE
 70
     3
  0
STYLE
  2
STANDARD
 70
     0
 40
0.0
 41
1.0
 50
0.0
 71
     0
 42
0.2
  3
txt
  4

  0
STYLE
  2
ANNOTATIVE
 70
     0
 40
0.0
 41
1.0
 50
0.0
 71
     0
 42
0.2
  3
txt
  4

  0
STYLE
  2

 70
     1
 40
0.0
 41
1.0
 50
0.0
 71
     0
 42
0.2
  3
ltypeshp.shx
  4

  0
ENDTAB
  0
TABLE
  2
VIEW
 70
     0
  0
ENDTAB
  0
TABLE
  2
UCS
 70
     0
  0
ENDTAB
  0
TABLE
  2
APPID
 70
     3
  0
APPID
  2
ACAD
 70
     0
  0
APPID
  2
ACADANNOTATIVE
 70
     0
  0
APPID
  2
ACAD_MLEADERVER
 70
     0
  0
ENDTAB
  0
TABLE
  2
DIMSTYLE
 70
     2
  0
DIMSTYLE
  2
STANDARD
 70
     0
  3

  4

  5

  6

  7

 40
1.0
 41
0.18
 42
0.0625
 43
0.38
 44
0.18
 45
0.0
 46
0.0
 47
0.0
 48
0.0
140
0.18
141
0.09
142
0.0
143
25.399999999999999
144
1.0
145
0.0
146
1.0
147
0.09
 71
     0
 72
     0
 73
     1
 74
     1
 75
     0
 76
     0
 77
     0
 78
     0
170
     0
171
     2
172
     0
173
     0
174
     0
175
     0
176
     0
177
     0
178
     0
  0
DIMSTYLE
  2
ANNOTATIVE
 70
     0
  3

  4

  5

  6

  7

 40
1.0
 41
0.18
 42
0.0625
 43
0.38
 44
0.18
 45
0.0
 46
0.0
 47
0.0
 48
0.0
140
0.18
141
0.09
142
0.0
143
25.399999999999999
144
1.0
145
0.0
146
1.0
147
0.09
 71
     0
 72
     0
 73
     1
 74
     1
 75
     0
 76
     0
 77
     0
 78
     0
170
     0
171
     2
172
     0
173
     0
174
     0
175
     0
176
     0
177
     0
178
     0
  0
ENDTAB
  0
ENDSEC
  0
SECTION
  2
BLOCKS
  0
BLOCK
  8
0
  2
$MODEL_SPACE
 70
     0
 10
0.0
 20
0.0
 30
0.0
  3
$MODEL_SPACE
  1

  0
ENDBLK
  5
72
  8
0
  0
BLOCK
 67
     1
  8
0
  2
$PAPER_SPACE
 70
     0
 10
0.0
 20
0.0
 30
0.0
  3
$PAPER_SPACE
  1

  0
ENDBLK
  5
6E
 67
     1
  8
0
  0
ENDSEC
  0
SECTION
  2
ENTITIES
  0
POLYLINE
  5
B6
  8
0
 66
     1
 10
0.0
 20
0.0
 30
0.0
 70
     1
  0
VERTEX
  5
B7
  8
0
 10
22.100000000000001
 20
-20.0
 30
0.0
  0
VERTEX
  5
B8
  8
0
 10
22.100000000000001
 20
-30.0
 30
0.0
  0
VERTEX
  5
BA
  8
0
 10
4.9000000000000021
 20
-30.0
 30
0.0
  0
VERTEX
  5
BB
  8
0
 10
4.9000000000000004
 20
-20.0
 30
0.0
  0
SEQEND
  5
B9
  8
0
  0
POLYLINE
  5
BD
  8
0
 66
     1
 10
0.0
 20
0.0
 30
0.0
 70
     1
  0
VERTEX
  5
BE
  8
0
 10
-4.899999999999995
 20
-20.0
 30
0.0
  0
VERTEX
  5
BF
  8
0
 10
-4.899999999999995
 20
-30.0
 30
0.0
  0
VERTEX
  5
C1
  8
0
 10
-22.099999999999991
 20
-30.0
 30
0.0
  0
VERTEX
  5
C2
  8
0
 10
-22.099999999999991
 20
-20.0
 30
0.0
  0
SEQEND
  5
C0
  8
0
  0
POLYLINE
  5
C3
  8
0
 66
     1
 10
0.0
 20
0.0
 30
0.0
 70
     1
  0
VERTEX
  5
C4
  8
0
 10
-22.999999999999989
 20
-35.850000000000001
 30
0.0
  0
VERTEX
  5
C5
  8
0
 10
-22.999999999999989
 20
-37.950000000000003
 30
0.0
  0
VERTEX
  5
C7
  8
0
 10
-25.0
 20
-37.950000000000003
 30
0.0
  0
VERTEX
  5
C8
  8
0
 10
-25.0
 20
-35.850000000000001
 30
0.0
  0
SEQEND
  5
C6
  8
0
  0
POLYLINE
  5
C9
  8
0
 66
     1
 10
0.0
 20
0.0
 30
0.0
 70
     1
  0
VERTEX
  5
CA
  8
0
 10
25.0
 20
-35.850000000000001
 30
0.0
  0
VERTEX
  5
CB
  8
0
 10
25.0
 20
-37.950000000000003
 30
0.0
  0
VERTEX
  5
CD
  8
0
 10
22.999999999999989
 20
-37.950000000000003
 30
0.0
  0
VERTEX
  5
CE
  8
0
 10
22.999999999999989
 20
-35.850000000000001
 30
0.0
  0
SEQEND
  5
CC
  8
0
  0
POLYLINE
  5
CF
  8
0
 66
     1
 10
0.0
 20
0.0
 30
0.0
 70
     1
  0
VERTEX
  5
D0
  8
0
 10
25.0
 20
-12.050000000000001
 30
0.0
  0
VERTEX
  5
D1
  8
0
 10
25.0
 20
-14.15
 30
0.0
  0
VERTEX
  5
D3
  8
0
 10
22.999999999999989
 20
-14.15
 30
0.0
  0
VERTEX
  5
D4
  8
0
 10
23.0
 20
-12.050000000000001
 30
0.0
  0
SEQEND
  5
D2
  8
0
  0
POLYLINE
  5
D5
  8
0
 66
     1
 10
0.0
 20
0.0
 30
0.0
 70
     1
  0
VERTEX
  5
D6
  8
0
 10
-22.999999999999989
 20
-12.050000000000001
 30
0.0
  0
VERTEX
  5
D7
  8
0
 10
-22.999999999999989
 20
-14.15
 30
0.0
  0
VERTEX
  5
D9
  8
0
 10
-25.0
 20
-14.15
 30
0.0
  0
VERTEX
  5
DA
  8
0
 10
-25.0
 20
-12.050000000000001
 30
0.0
  0
SEQEND
  5
D8
  8
0
  0
POLYLINE
  5
DB
  8
0
 66
     1
 10
0.0
 20
0.0
 30
0.0
  0
VERTEX
  5
DC
  8
0
 10
-32.0
 20
18.0
 30
0.0
  0
VERTEX
  5
DD
  8
0
 10
-38.0
 20
5.9999999999999956
 30
0.0
  0
VERTEX
  5
DF
  8
0
 10
-32.0
 20
-0.0000000000000011
 30
0.0
  0
VERTEX
  5
E0
  8
0
 10
-26.0
 20
0.0
 30
0.0
  0
VERTEX
  5
E1
  8
0
 10
-26.0
 20
-50.0
 30
0.0
  0
VERTEX
  5
E2
  8
0
 10
-31.999999999999979
 20
-50.0
 30
0.0
  0
VERTEX
  5
E3
  8
0
 10
-38.0
 20
-53.0
 30
0.0
  0
VERTEX
  5
E4
  8
0
 10
-38.0
 20
-58.0
 30
0.0
  0
VERTEX
  5
E5
  8
0
 10
-24.000000000000021
 20
-58.0
 30
0.0
  0
VERTEX
  5
E6
  8
0
 10
-22.000000000000011
 20
-55.0
 30
0.0
  0
VERTEX
  5
E7
  8
0
 10
-17.000000000000011
 20
-55.0
 30
0.0
  0
VERTEX
  5
E8
  8
0
 10
-15.000000000000011
 20
-58.0
 30
0.0
  0
VERTEX
  5
E9
  8
0
 10
-1.000000000000014
 20
-58.0
 30
0.0
  0
VERTEX
  5
EA
  8
0
 10
0.0000000000000089
 20
-56.000000000000007
 30
0.0
  0
VERTEX
  5
EB
  8
0
 10
1.0000000000000091
 20
-58.0
 30
0.0
  0
VERTEX
  5
EC
  8
0
 10
15.000000000000011
 20
-58.0
 30
0.0
  0
VERTEX
  5
ED
  8
0
 10
17.000000000000011
 20
-55.0
 30
0.0
  0
VERTEX
  5
EE
  8
0
 10
22.000000000000011
 20
-55.0
 30
0.0
  0
VERTEX
  5
EF
  8
0
 10
24.000000000000021
 20
-58.0
 30
0.0
  0
VERTEX
  5
F0
  8
0
 10
38.000000000000021
 20
-58.0
 30
0.0
  0
VERTEX
  5
F1
  8
0
 10
38.000000000000021
 20
-53.0
 30
0.0
  0
VERTEX
  5
F2
  8
0
 10
32.000000000000007
 20
-50.0
 30
0.0
  0
VERTEX
  5
F3
  8
0
 10
26.000000000000011
 20
-50.0
 30
0.0
  0
VERTEX
  5
F4
  8
0
 10
26.0
 20
0.0
 30
0.0
  0
VERTEX
  5
F5
  8
0
 10
32.000000000000007
 20
0.0
 30
0.0
  0
VERTEX
  5
F6
  8
0
 10
38.0
 20
6.0
 30
0.0
  0
VERTEX
  5
F7
  8
0
 10
32.000000000000007
 20
18.0
 30
0.0
  0
SEQEND
  5
DE
  8
0
  0
POLYLINE
  5
F8
  8
0
 66
     1
 10
0.0
 20
0.0
 30
0.0
  0
VERTEX
  5
F9
  8
0
 10
0.999999999999992
 20
40.0
 30
0.0
  0
VERTEX
  5
FA
  8
0
 10
0.0000000000000089
 20
38.000000000000028
 30
0.0
  0
VERTEX
  5
FC
  8
0
 10
-1.0000000000000091
 20
40.0
 30
0.0
  0
SEQEND
  5
FB
  8
0
  0
POLYLINE
  8
0
  5
162
  66
     1
 10
0.000000
 20
0.000000
 30
0.000000
  70
     8
  0
VERTEX
  8
0
  5
163
 10
-1.00000
 20
40.0000
 30
0.000000
  70
    32
  0
VERTEX
  8
0
  5
164
 10
-1.35998
 20
39.9394
 30
0.000000
  70
    32
  0
VERTEX
  8
0
  5
165
 10
-1.71925
 20
39.8752
 30
0.000000
  70
    32
  0
VERTEX
  8
0
  5
166
 10
-2.07780
 20
39.8074
 30
0.000000
  70
    32
  0
VERTEX
  8
0
  5
167
 10
-2.43564
 20
39.7359
 30
0.000000
  70
    32
  0
VERTEX
  8
0
  5
168
 10
-2.79276
 20
39.6608
 30
0.000000
  70
    32
  0
VERTEX
  8
0
  5
169
 10
-3.14916
 20
39.5820
 30
0.000000
  70
    32
  0
VERTEX
  8
0
  5
16A
 10
-3.50484
 20
39.4996
 30
0.000000
  70
    32
  0
VERTEX
  8
0
  5
16B
 10
-3.85981
 20
39.4136
 30
0.000000
  70
    32
  0
VERTEX
  8
0
  5
16C
 10
-4.21407
 20
39.3239
 30
0.000000
  70
    32
  0
VERTEX
  8
0
  5
16D
 10
-4.56760
 20
39.2306
 30
0.000000
  70
    32
  0
VERTEX
  8
0
  5
16E
 10
-4.92042
 20
39.1336
 30
0.000000
  70
    32
  0
VERTEX
  8
0
  5
16F
 10
-5.27253
 20
39.0330
 30
0.000000
  70
    32
  0
VERTEX
  8
0
  5
170
 10
-5.62392
 20
38.9288
 30
0.000000
  70
    32
  0
VERTEX
  8
0
  5
171
 10
-5.97459
 20
38.8209
 30
0.000000
  70
    32
  0
VERTEX
  8
0
  5
172
 10
-6.32454
 20
38.7094
 30
0.000000
  70
    32
  0
VERTEX
  8
0
  5
173
 10
-6.67378
 20
38.5943
 30
0.000000
  70
    32
  0
VERTEX
  8
0
  5
174
 10
-7.02230
 20
38.4755
 30
0.000000
  70
    32
  0
VERTEX
  8
0
  5
175
 10
-7.37011
 20
38.3531
 30
0.000000
  70
    32
  0
VERTEX
  8
0
  5
176
 10
-7.71720
 20
38.2270
 30
0.000000
  70
    32
  0
VERTEX
  8
0
  5
177
 10
-8.06357
 20
38.0973
 30
0.000000
  70
    32
  0
VERTEX
  8
0
  5
178
 10
-8.40923
 20
37.9640
 30
0.000000
  70
    32
  0
VERTEX
  8
0
  5
179
 10
-8.75417
 20
37.8270
 30
0.000000
  70
    32
  0
VERTEX
  8
0
  5
17A
 10
-9.09839
 20
37.6864
 30
0.000000
  70
    32
  0
VERTEX
  8
0
  5
17B
 10
-9.44190
 20
37.5421
 30
0.000000
  70
    32
  0
VERTEX
  8
0
  5
17C
 10
-9.78469
 20
37.3942
 30
0.000000
  70
    32
  0
VERTEX
  8
0
  5
17D
 10
-10.1268
 20
37.2427
 30
0.000000
  70
    32
  0
VERTEX
  8
0
  5
17E
 10
-10.4681
 20
37.0875
 30
0.000000
  70
    32
  0
VERTEX
  8
0
  5
17F
 10
-10.8088
 20
36.9287
 30
0.000000
  70
    32
  0
VERTEX
  8
0
  5
180
 10
-11.1487
 20
36.7663
 30
0.000000
  70
    32
  0
VERTEX
  8
0
  5
181
 10
-11.4879
 20
36.6002
 30
0.000000
  70
    32
  0
VERTEX
  8
0
  5
182
 10
-11.8264
 20
36.4304
 30
0.000000
  70
    32
  0
VERTEX
  8
0
  5
183
 10
-12.1642
 20
36.2571
 30
0.000000
  70
    32
  0
VERTEX
  8
0
  5
184
 10
-12.5012
 20
36.0801
 30
0.000000
  70
    32
  0
VERTEX
  8
0
  5
185
 10
-12.8376
 20
35.8994
 30
0.000000
  70
    32
  0
VERTEX
  8
0
  5
186
 10
-13.1732
 20
35.7152
 30
0.000000
  70
    32
  0
VERTEX
  8
0
  5
187
 10
-13.5081
 20
35.5272
 30
0.000000
  70
    32
  0
VERTEX
  8
0
  5
188
 10
-13.8423
 20
35.3357
 30
0.000000
  70
    32
  0
VERTEX
  8
0
  5
189
 10
-14.1758
 20
35.1405
 30
0.000000
  70
    32
  0
VERTEX
  8
0
  5
18A
 10
-14.5086
 20
34.9417
 30
0.000000
  70
    32
  0
VERTEX
  8
0
  5
18B
 10
-14.8406
 20
34.7392
 30
0.000000
  70
    32
  0
VERTEX
  8
0
  5
18C
 10
-15.1719
 20
34.5331
 30
0.000000
  70
    32
  0
VERTEX
  8
0
  5
18D
 10
-15.5026
 20
34.3233
 30
0.000000
  70
    32
  0
VERTEX
  8
0
  5
18E
 10
-15.8324
 20
34.1100
 30
0.000000
  70
    32
  0
VERTEX
  8
0
  5
18F
 10
-16.1616
 20
33.8929
 30
0.000000
  70
    32
  0
VERTEX
  8
0
  5
190
 10
-16.4901
 20
33.6723
 30
0.000000
  70
    32
  0
VERTEX
  8
0
  5
191
 10
-16.8178
 20
33.4480
 30
0.000000
  70
    32
  0
VERTEX
  8
0
  5
192
 10
-17.1449
 20
33.2200
 30
0.000000
  70
    32
  0
VERTEX
  8
0
  5
193
 10
-17.4712
 20
32.9884
 30
0.000000
  70
    32
  0
VERTEX
  8
0
  5
194
 10
-17.7968
 20
32.7532
 30
0.000000
  70
    32
  0
VERTEX
  8
0
  5
195
 10
-18.1217
 20
32.5144
 30
0.000000
  70
    32
  0
VERTEX
  8
0
  5
196
 10
-18.4458
 20
32.2719
 30
0.000000
  70
    32
  0
VERTEX
  8
0
  5
197
 10
-18.7693
 20
32.0257
 30
0.000000
  70
    32
  0
VERTEX
  8
0
  5
198
 10
-19.0920
 20
31.7760
 30
0.000000
  70
    32
  0
VERTEX
  8
0
  5
199
 10
-19.4140
 20
31.5226
 30
0.000000
  70
    32
  0
VERTEX
  8
0
  5
19A
 10
-19.7353
 20
31.2655
 30
0.000000
  70
    32
  0
VERTEX
  8
0
  5
19B
 10
-20.0559
 20
31.0048
 30
0.000000
  70
    32
  0
VERTEX
  8
0
  5
19C
 10
-20.3758
 20
30.7405
 30
0.000000
  70
    32
  0
VERTEX
  8
0
  5
19D
 10
-20.6950
 20
30.4725
 30
0.000000
  70
    32
  0
VERTEX
  8
0
  5
19E
 10
-21.0134
 20
30.2009
 30
0.000000
  70
    32
  0
VERTEX
  8
0
  5
19F
 10
-21.3311
 20
29.9257
 30
0.000000
  70
    32
  0
VERTEX
  8
0
  5
1A0
 10
-21.6481
 20
29.6468
 30
0.000000
  70
    32
  0
VERTEX
  8
0
  5
1A1
 10
-21.9644
 20
29.3643
 30
0.000000
  70
    32
  0
VERTEX
  8
0
  5
1A2
 10
-22.2800
 20
29.0781
 30
0.000000
  70
    32
  0
VERTEX
  8
0
  5
1A3
 10
-22.5948
 20
28.7883
 30
0.000000
  70
    32
  0
VERTEX
  8
0
  5
1A4
 10
-22.9090
 20
28.4949
 30
0.000000
  70
    32
  0
VERTEX
  8
0
  5
1A5
 10
-23.2224
 20
28.1978
 30
0.000000
  70
    32
  0
VERTEX
  8
0
  5
1A6
 10
-23.5351
 20
27.8971
 30
0.000000
  70
    32
  0
VERTEX
  8
0
  5
1A7
 10
-23.8471
 20
27.5928
 30
0.000000
  70
    32
  0
VERTEX
  8
0
  5
1A8
 10
-24.1583
 20
27.2848
 30
0.000000
  70
    32
  0
VERTEX
  8
0
  5
1A9
 10
-24.4689
 20
26.9732
 30
0.000000
  70
    32
  0
VERTEX
  8
0
  5
1AA
 10
-24.7787
 20
26.6579
 30
0.000000
  70
    32
  0
VERTEX
  8
0
  5
1AB
 10
-25.0879
 20
26.3390
 30
0.000000
  70
    32
  0
VERTEX
  8
0
  5
1AC
 10
-25.3963
 20
26.0165
 30
0.000000
  70
    32
  0
VERTEX
  8
0
  5
1AD
 10
-25.7040
 20
25.6903
 30
0.000000
  70
    32
  0
VERTEX
  8
0
  5
1AE
 10
-26.0109
 20
25.3605
 30
0.000000
  70
    32
  0
VERTEX
  8
0
  5
1AF
 10
-26.3172
 20
25.0270
 30
0.000000
  70
    32
  0
VERTEX
  8
0
  5
1B0
 10
-26.6227
 20
24.6899
 30
0.000000
  70
    32
  0
VERTEX
  8
0
  5
1B1
 10
-26.9276
 20
24.3492
 30
0.000000
  70
    32
  0
VERTEX
  8
0
  5
1B2
 10
-27.2317
 20
24.0048
 30
0.000000
  70
    32
  0
VERTEX
  8
0
  5
1B3
 10
-27.5351
 20
23.6568
 30
0.000000
  70
    32
  0
VERTEX
  8
0
  5
1B4
 10
-27.8377
 20
23.3051
 30
0.000000
  70
    32
  0
VERTEX
  8
0
  5
1B5
 10
-28.1397
 20
22.9498
 30
0.000000
  70
    32
  0
VERTEX
  8
0
  5
1B6
 10
-28.4409
 20
22.5909
 30
0.000000
  70
    32
  0
VERTEX
  8
0
  5
1B7
 10
-28.7415
 20
22.2284
 30
0.000000
  70
    32
  0
VERTEX
  8
0
  5
1B8
 10
-29.0413
 20
21.8622
 30
0.000000
  70
    32
  0
VERTEX
  8
0
  5
1B9
 10
-29.3404
 20
21.4923
 30
0.000000
  70
    32
  0
VERTEX
  8
0
  5
1BA
 10
-29.6388
 20
21.1188
 30
0.000000
  70
    32
  0
VERTEX
  8
0
  5
1BB
 10
-29.9364
 20
20.7417
 30
0.000000
  70
    32
  0
VERTEX
  8
0
  5
1BC
 10
-30.2334
 20
20.3610
 30
0.000000
  70
    32
  0
VERTEX
  8
0
  5
1BD
 10
-30.5296
 20
19.9766
 30
0.000000
  70
    32
  0
VERTEX
  8
0
  5
1BE
 10
-30.8251
 20
19.5885
 30
0.000000
  70
    32
  0
VERTEX
  8
0
  5
1BF
 10
-31.1199
 20
19.1969
 30
0.000000
  70
    32
  0
VERTEX
  8
0
  5
1C0
 10
-31.4140
 20
18.8015
 30
0.000000
  70
    32
  0
VERTEX
  8
0
  5
1C1
 10
-31.7074
 20
18.4026
 30
0.000000
  70
    32
  0
VERTEX
  8
0
  5
1C2
 10
-32.0000
 20
18.0000
 30
0.000000
  70
    32
  0
SEQEND
  8
0
  5
1C3
  0
POLYLINE
  8
0
  5
1C4
  66
     1
 10
0.000000
 20
0.000000
 30
0.000000
  70
     8
  0
VERTEX
  8
0
  5
1C5
 10
32.0000
 20
18.0000
 30
0.000000
  70
    32
  0
VERTEX
  8
0
  5
1C6
 10
31.7074
 20
18.4026
 30
0.000000
  70
    32
  0
VERTEX
  8
0
  5
1C7
 10
31.4140
 20
18.8015
 30
0.000000
  70
    32
  0
VERTEX
  8
0
  5
1C8
 10
31.1199
 20
19.1969
 30
0.000000
  70
    32
  0
VERTEX
  8
0
  5
1C9
 10
30.8251
 20
19.5885
 30
0.000000
  70
    32
  0
VERTEX
  8
0
  5
1CA
 10
30.5296
 20
19.9766
 30
0.000000
  70
    32
  0
VERTEX
  8
0
  5
1CB
 10
30.2334
 20
20.3610
 30
0.000000
  70
    32
  0
VERTEX
  8
0
  5
1CC
 10
29.9364
 20
20.7417
 30
0.000000
  70
    32
  0
VERTEX
  8
0
  5
1CD
 10
29.6388
 20
21.1188
 30
0.000000
  70
    32
  0
VERTEX
  8
0
  5
1CE
 10
29.3404
 20
21.4923
 30
0.000000
  70
    32
  0
VERTEX
  8
0
  5
1CF
 10
29.0413
 20
21.8622
 30
0.000000
  70
    32
  0
VERTEX
  8
0
  5
1D0
 10
28.7415
 20
22.2284
 30
0.000000
  70
    32
  0
VERTEX
  8
0
  5
1D1
 10
28.4409
 20
22.5909
 30
0.000000
  70
    32
  0
VERTEX
  8
0
  5
1D2
 10
28.1397
 20
22.9498
 30
0.000000
  70
    32
  0
VERTEX
  8
0
  5
1D3
 10
27.8377
 20
23.3051
 30
0.000000
  70
    32
  0
VERTEX
  8
0
  5
1D4
 10
27.5351
 20
23.6568
 30
0.000000
  70
    32
  0
VERTEX
  8
0
  5
1D5
 10
27.2317
 20
24.0048
 30
0.000000
  70
    32
  0
VERTEX
  8
0
  5
1D6
 10
26.9276
 20
24.3492
 30
0.000000
  70
    32
  0
VERTEX
  8
0
  5
1D7
 10
26.6227
 20
24.6899
 30
0.000000
  70
    32
  0
VERTEX
  8
0
  5
1D8
 10
26.3172
 20
25.0270
 30
0.000000
  70
    32
  0
VERTEX
  8
0
  5
1D9
 10
26.0109
 20
25.3605
 30
0.000000
  70
    32
  0
VERTEX
  8
0
  5
1DA
 10
25.7040
 20
25.6903
 30
0.000000
  70
    32
  0
VERTEX
  8
0
  5
1DB
 10
25.3963
 20
26.0165
 30
0.000000
  70
    32
  0
VERTEX
  8
0
  5
1DC
 10
25.0879
 20
26.3390
 30
0.000000
  70
    32
  0
VERTEX
  8
0
  5
1DD
 10
24.7787
 20
26.6579
 30
0.000000
  70
    32
  0
VERTEX
  8
0
  5
1DE
 10
24.4689
 20
26.9732
 30
0.000000
  70
    32
  0
VERTEX
  8
0
  5
1DF
 10
24.1583
 20
27.2848
 30
0.000000
  70
    32
  0
VERTEX
  8
0
  5
1E0
 10
23.8471
 20
27.5928
 30
0.000000
  70
    32
  0
VERTEX
  8
0
  5
1E1
 10
23.5351
 20
27.8971
 30
0.000000
  70
    32
  0
VERTEX
  8
0
  5
1E2
 10
23.2224
 20
28.1978
 30
0.000000
  70
    32
  0
VERTEX
  8
0
  5
1E3
 10
22.9090
 20
28.4949
 30
0.000000
  70
    32
  0
VERTEX
  8
0
  5
1E4
 10
22.5948
 20
28.7883
 30
0.000000
  70
    32
  0
VERTEX
  8
0
  5
1E5
 10
22.2800
 20
29.0781
 30
0.000000
  70
    32
  0
VERTEX
  8
0
  5
1E6
 10
21.9644
 20
29.3643
 30
0.000000
  70
    32
  0
VERTEX
  8
0
  5
1E7
 10
21.6481
 20
29.6468
 30
0.000000
  70
    32
  0
VERTEX
  8
0
  5
1E8
 10
21.3311
 20
29.9257
 30
0.000000
  70
    32
  0
VERTEX
  8
0
  5
1E9
 10
21.0134
 20
30.2009
 30
0.000000
  70
    32
  0
VERTEX
  8
0
  5
1EA
 10
20.6950
 20
30.4725
 30
0.000000
  70
    32
  0
VERTEX
  8
0
  5
1EB
 10
20.3758
 20
30.7405
 30
0.000000
  70
    32
  0
VERTEX
  8
0
  5
1EC
 10
20.0559
 20
31.0048
 30
0.000000
  70
    32
  0
VERTEX
  8
0
  5
1ED
 10
19.7353
 20
31.2655
 30
0.000000
  70
    32
  0
VERTEX
  8
0
  5
1EE
 10
19.4140
 20
31.5226
 30
0.000000
  70
    32
  0
VERTEX
  8
0
  5
1EF
 10
19.0920
 20
31.7760
 30
0.000000
  70
    32
  0
VERTEX
  8
0
  5
1F0
 10
18.7693
 20
32.0257
 30
0.000000
  70
    32
  0
VERTEX
  8
0
  5
1F1
 10
18.4458
 20
32.2719
 30
0.000000
  70
    32
  0
VERTEX
  8
0
  5
1F2
 10
18.1217
 20
32.5144
 30
0.000000
  70
    32
  0
VERTEX
  8
0
  5
1F3
 10
17.7968
 20
32.7532
 30
0.000000
  70
    32
  0
VERTEX
  8
0
  5
1F4
 10
17.4712
 20
32.9884
 30
0.000000
  70
    32
  0
VERTEX
  8
0
  5
1F5
 10
17.1449
 20
33.2200
 30
0.000000
  70
    32
  0
VERTEX
  8
0
  5
1F6
 10
16.8178
 20
33.4480
 30
0.000000
  70
    32
  0
VERTEX
  8
0
  5
1F7
 10
16.4901
 20
33.6723
 30
0.000000
  70
    32
  0
VERTEX
  8
0
  5
1F8
 10
16.1616
 20
33.8929
 30
0.000000
  70
    32
  0
VERTEX
  8
0
  5
1F9
 10
15.8324
 20
34.1100
 30
0.000000
  70
    32
  0
VERTEX
  8
0
  5
1FA
 10
15.5026
 20
34.3233
 30
0.000000
  70
    32
  0
VERTEX
  8
0
  5
1FB
 10
15.1719
 20
34.5331
 30
0.000000
  70
    32
  0
VERTEX
  8
0
  5
1FC
 10
14.8406
 20
34.7392
 30
0.000000
  70
    32
  0
VERTEX
  8
0
  5
1FD
 10
14.5086
 20
34.9417
 30
0.000000
  70
    32
  0
VERTEX
  8
0
  5
1FE
 10
14.1758
 20
35.1405
 30
0.000000
  70
    32
  0
VERTEX
  8
0
  5
1FF
 10
13.8423
 20
35.3357
 30
0.000000
  70
    32
  0
VERTEX
  8
0
  5
200
 10
13.5081
 20
35.5272
 30
0.000000
  70
    32
  0
VERTEX
  8
0
  5
201
 10
13.1732
 20
35.7152
 30
0.000000
  70
    32
  0
VERTEX
  8
0
  5
202
 10
12.8376
 20
35.8994
 30
0.000000
  70
    32
  0
VERTEX
  8
0
  5
203
 10
12.5012
 20
36.0801
 30
0.000000
  70
    32
  0
VERTEX
  8
0
  5
204
 10
12.1642
 20
36.2571
 30
0.000000
  70
    32
  0
VERTEX
  8
0
  5
205
 10
11.8264
 20
36.4304
 30
0.000000
  70
    32
  0
VERTEX
  8
0
  5
206
 10
11.4879
 20
36.6002
 30
0.000000
  70
    32
  0
VERTEX
  8
0
  5
207
 10
11.1487
 20
36.7663
 30
0.000000
  70
    32
  0
VERTEX
  8
0
  5
208
 10
10.8088
 20
36.9287
 30
0.000000
  70
    32
  0
VERTEX
  8
0
  5
209
 10
10.4681
 20
37.0875
 30
0.000000
  70
    32
  0
VERTEX
  8
0
  5
20A
 10
10.1268
 20
37.2427
 30
0.000000
  70
    32
  0
VERTEX
  8
0
  5
20B
 10
9.78469
 20
37.3942
 30
0.000000
  70
    32
  0
VERTEX
  8
0
  5
20C
 10
9.44190
 20
37.5421
 30
0.000000
  70
    32
  0
VERTEX
  8
0
  5
20D
 10
9.09839
 20
37.6864
 30
0.000000
  70
    32
  0
VERTEX
  8
0
  5
20E
 10
8.75417
 20
37.8270
 30
0.000000
  70
    32
  0
VERTEX
  8
0
  5
20F
 10
8.40923
 20
37.9640
 30
0.000000
  70
    32
  0
VERTEX
  8
0
  5
210
 10
8.06357
 20
38.0973
 30
0.000000
  70
    32
  0
VERTEX
  8
0
  5
211
 10
7.71720
 20
38.2270
 30
0.000000
  70
    32
  0
VERTEX
  8
0
  5
212
 10
7.37011
 20
38.3531
 30
0.000000
  70
    32
  0
VERTEX
  8
0
  5
213
 10
7.02230
 20
38.4755
 30
0.000000
  70
    32
  0
VERTEX
  8
0
  5
214
 10
6.67378
 20
38.5943
 30
0.000000
  70
    32
  0
VERTEX
  8
0
  5
215
 10
6.32454
 20
38.7094
 30
0.000000
  70
    32
  0
VERTEX
  8
0
  5
216
 10
5.97459
 20
38.8209
 30
0.000000
  70
    32
  0
VERTEX
  8
0
  5
217
 10
5.62392
 20
38.9288
 30
0.000000
  70
    32
  0
VERTEX
  8
0
  5
218
 10
5.27253
 20
39.0330
 30
0.000000
  70
    32
  0
VERTEX
  8
0
  5
219
 10
4.92042
 20
39.1336
 30
0.000000
  70
    32
  0
VERTEX
  8
0
  5
21A
 10
4.56760
 20
39.2306
 30
0.000000
  70
    32
  0
VERTEX
  8
0
  5
21B
 10
4.21407
 20
39.3239
 30
0.000000
  70
    32
  0
VERTEX
  8
0
  5
21C
 10
3.85981
 20
39.4136
 30
0.000000
  70
    32
  0
VERTEX
  8
0
  5
21D
 10
3.50484
 20
39.4996
 30
0.000000
  70
    32
  0
VERTEX
  8
0
  5
21E
 10
3.14916
 20
39.5820
 30
0.000000
  70
    32
  0
VERTEX
  8
0
  5
21F
 10
2.79276
 20
39.6608
 30
0.000000
  70
    32
  0
VERTEX
  8
0
  5
220
 10
2.43564
 20
39.7359
 30
0.000000
  70
    32
  0
VERTEX
  8
0
  5
221
 10
2.07780
 20
39.8074
 30
0.000000
  70
    32
  0
VERTEX
  8
0
  5
222
 10
1.71925
 20
39.8752
 30
0.000000
  70
    32
  0
VERTEX
  8
0
  5
223
 10
1.35998
 20
39.9394
 30
0.000000
  70
    32
  0
VERTEX
  8
0
  5
224
 10
1.00000
 20
40.0000
 30
0.000000
  70
    32
  0
SEQEND
  8
0
  5
225
  0
CIRCLE
  5
FF
  8
0
 10
-24.0
 20
-9.0
 30
0.0
 40
1.05
  0
CIRCLE
  5
100
  8
0
 10
-24.0
 20
-41.0
 30
0.0
 40
1.049999999999998
  0
CIRCLE
  5
101
  8
0
 10
24.0
 20
-9.0
 30
0.0
 40
1.0499999999999989
  0
CIRCLE
  5
102
  8
0
 10
24.000000000000011
 20
-41.0
 30
0.0
 40
1.05
  0
LINE
  5
103
  8
0
 10
2.5
 20
-5.0
 30
0.0
 11
-2.5
 21
-5.0
 31
0.0
  0
POLYLINE
  8
0
  5
226
  66
     1
 10
0.000000
 20
0.000000
 30
0.000000
  70
     8
  0
VERTEX
  8
0
  5
227
 10
1.00000
 20
4.00000
 30
0.000000
  70
    32
  0
VERTEX
  8
0
  5
228
 10
0.972103
 20
3.93479
 30
0.000000
  70
    32
  0
VERTEX
  8
0
  5
229
 10
0.945135
 20
3.86895
 30
0.000000
  70
    32
  0
VERTEX
  8
0
  5
22A
 10
0.919097
 20
3.80248
 30
0.000000
  70
    32
  0
VERTEX
  8
0
  5
22B
 10
0.893988
 20
3.73538
 30
0.000000
  70
    32
  0
VERTEX
  8
0
  5
22C
 10
0.869809
 20
3.66766
 30
0.000000
  70
    32
  0
VERTEX
  8
0
  5
22D
 10
0.846559
 20
3.59930
 30
0.000000
  70
    32
  0
VERTEX
  8
0
  5
22E
 10
0.824239
 20
3.53032
 30
0.000000
  70
    32
  0
VERTEX
  8
0
  5
22F
 10
0.802848
 20
3.46071
 30
0.000000
  70
    32
  0
VERTEX
  8
0
  5
230
 10
0.782387
 20
3.39047
 30
0.000000
  70
    32
  0
VERTEX
  8
0
  5
231
 10
0.762855
 20
3.31961
 30
0.000000
  70
    32
  0
VERTEX
  8
0
  5
232
 10
0.744253
 20
3.24811
 30
0.000000
  70
    32
  0
VERTEX
  8
0
  5
233
 10
0.726580
 20
3.17599
 30
0.000000
  70
    32
  0
VERTEX
  8
0
  5
234
 10
0.709837
 20
3.10324
 30
0.000000
  70
    32
  0
VERTEX
  8
0
  5
235
 10
0.694023
 20
3.02986
 30
0.000000
  70
    32
  0
VERTEX
  8
0
  5
236
 10
0.679139
 20
2.95585
 30
0.000000
  70
    32
  0
VERTEX
  8
0
  5
237
 10
0.665184
 20
2.88122
 30
0.000000
  70
    32
  0
VERTEX
  8
0
  5
238
 10
0.652159
 20
2.80596
 30
0.000000
  70
    32
  0
VERTEX
  8
0
  5
239
 10
0.640063
 20
2.73006
 30
0.000000
  70
    32
  0
VERTEX
  8
0
  5
23A
 10
0.628897
 20
2.65354
 30
0.000000
  70
    32
  0
VERTEX
  8
0
  5
23B
 10
0.618660
 20
2.57640
 30
0.000000
  70
    32
  0
VERTEX
  8
0
  5
23C
 10
0.609353
 20
2.49862
 30
0.000000
  70
    32
  0
VERTEX
  8
0
  5
23D
 10
0.600975
 20
2.42022
 30
0.000000
  70
    32
  0
VERTEX
  8
0
  5
23E
 10
0.593527
 20
2.34118
 30
0.000000
  70
    32
  0
VERTEX
  8
0
  5
23F
 10
0.587009
 20
2.26152
 30
0.000000
  70
    32
  0
VERTEX
  8
0
  5
240
 10
0.581419
 20
2.18123
 30
0.000000
  70
    32
  0
VERTEX
  8
0
  5
241
 10
0.576760
 20
2.10032
 30
0.000000
  70
    32
  0
VERTEX
  8
0
  5
242
 10
0.573030
 20
2.01877
 30
0.000000
  70
    32
  0
VERTEX
  8
0
  5
243
 10
0.570229
 20
1.93660
 30
0.000000
  70
    32
  0
VERTEX
  8
0
  5
244
 10
0.568358
 20
1.85380
 30
0.000000
  70
    32
  0
VERTEX
  8
0
  5
245
 10
0.567416
 20
1.77037
 30
0.000000
  70
    32
  0
VERTEX
  8
0
  5
246
 10
0.567404
 20
1.68631
 30
0.000000
  70
    32
  0
VERTEX
  8
0
  5
247
 10
0.568322
 20
1.60162
 30
0.000000
  70
    32
  0
VERTEX
  8
0
  5
248
 10
0.570168
 20
1.51631
 30
0.000000
  70
    32
  0
VERTEX
  8
0
  5
249
 10
0.572945
 20
1.43037
 30
0.000000
  70
    32
  0
VERTEX
  8
0
  5
24A
 10
0.576651
 20
1.34380
 30
0.000000
  70
    32
  0
VERTEX
  8
0
  5
24B
 10
0.581286
 20
1.25660
 30
0.000000
  70
    32
  0
VERTEX
  8
0
  5
24C
 10
0.586851
 20
1.16877
 30
0.000000
  70
    32
  0
VERTEX
  8
0
  5
24D
 10
0.593345
 20
1.08032
 30
0.000000
  70
    32
  0
VERTEX
  8
0
  5
24E
 10
0.600769
 20
0.991233
 30
0.000000
  70
    32
  0
VERTEX
  8
0
  5
24F
 10
0.609123
 20
0.901522
 30
0.000000
  70
    32
  0
VERTEX
  8
0
  5
250
 10
0.618406
 20
0.811182
 30
0.000000
  70
    32
  0
VERTEX
  8
0
  5
251
 10
0.628618
 20
0.720214
 30
0.000000
  70
    32
  0
VERTEX
  8
0
  5
252
 10
0.639760
 20
0.628618
 30
0.000000
  70
    32
  0
VERTEX
  8
0
  5
253
 10
0.651832
 20
0.536394
 30
0.000000
  70
    32
  0
VERTEX
  8
0
  5
254
 10
0.664833
 20
0.443542
 30
0.000000
  70
    32
  0
VERTEX
  8
0
  5
255
 10
0.678763
 20
0.350061
 30
0.000000
  70
    32
  0
VERTEX
  8
0
  5
256
 10
0.693623
 20
0.255953
 30
0.000000
  70
    32
  0
VERTEX
  8
0
  5
257
 10
0.709412
 20
0.161216
 30
0.000000
  70
    32
  0
VERTEX
  8
0
  5
258
 10
0.726131
 20
0.0658509
 30
0.000000
  70
    32
  0
VERTEX
  8
0
  5
259
 10
0.743780
 20
-0.0301423
 30
0.000000
  70
    32
  0
VERTEX
  8
0
  5
25A
 10
0.762358
 20
-0.126764
 30
0.000000
  70
    32
  0
VERTEX
  8
0
  5
25B
 10
0.781865
 20
-0.224013
 30
0.000000
  70
    32
  0
VERTEX
  8
0
  5
25C
 10
0.802302
 20
-0.321891
 30
0.000000
  70
    32
  0
VERTEX
  8
0
  5
25D
 10
0.823669
 20
-0.420397
 30
0.000000
  70
    32
  0
VERTEX
  8
0
  5
25E
 10
0.845965
 20
-0.519531
 30
0.000000
  70
    32
  0
VERTEX
  8
0
  5
25F
 10
0.869190
 20
-0.619293
 30
0.000000
  70
    32
  0
VERTEX
  8
0
  5
260
 10
0.893345
 20
-0.719684
 30
0.000000
  70
    32
  0
VERTEX
  8
0
  5
261
 10
0.918430
 20
-0.820702
 30
0.000000
  70
    32
  0
VERTEX
  8
0
  5
262
 10
0.944444
 20
-0.922349
 30
0.000000
  70
    32
  0
VERTEX
  8
0
  5
263
 10
0.971388
 20
-1.02462
 30
0.000000
  70
    32
  0
VERTEX
  8
0
  5
264
 10
0.999261
 20
-1.12753
 30
0.000000
  70
    32
  0
VERTEX
  8
0
  5
265
 10
1.02806
 20
-1.23106
 30
0.000000
  70
    32
  0
VERTEX
  8
0
  5
266
 10
1.05780
 20
-1.33522
 30
0.000000
  70
    32
  0
VERTEX
  8
0
  5
267
 10
1.08846
 20
-1.44001
 30
0.000000
  70
    32
  0
VERTEX
  8
0
  5
268
 10
1.12005
 20
-1.54542
 30
0.000000
  70
    32
  0
VERTEX
  8
0
  5
269
 10
1.15257
 20
-1.65147
 30
0.000000
  70
    32
  0
VERTEX
  8
0
  5
26A
 10
1.18602
 20
-1.75814
 30
0.000000
  70
    32
  0
VERTEX
  8
0
  5
26B
 10
1.22040
 20
-1.86544
 30
0.000000
  70
    32
  0
VERTEX
  8
0
  5
26C
 10
1.25571
 20
-1.97337
 30
0.000000
  70
    32
  0
VERTEX
  8
0
  5
26D
 10
1.29195
 20
-2.08192
 30
0.000000
  70
    32
  0
VERTEX
  8
0
  5
26E
 10
1.32911
 20
-2.19111
 30
0.000000
  70
    32
  0
VERTEX
  8
0
  5
26F
 10
1.36721
 20
-2.30092
 30
0.000000
  70
    32
  0
VERTEX
  8
0
  5
270
 10
1.40624
 20
-2.41136
 30
0.000000
  70
    32
  0
VERTEX
  8
0
  5
271
 10
1.44620
 20
-2.52243
 30
0.000000
  70
    32
  0
VERTEX
  8
0
  5
272
 10
1.48708
 20
-2.63413
 30
0.000000
  70
    32
  0
VERTEX
  8
0
  5
273
 10
1.52890
 20
-2.74646
 30
0.000000
  70
    32
  0
VERTEX
  8
0
  5
274
 10
1.57164
 20
-2.85941
 30
0.000000
  70
    32
  0
VERTEX
  8
0
  5
275
 10
1.61532
 20
-2.97299
 30
0.000000
  70
    32
  0
VERTEX
  8
0
  5
276
 10
1.65992
 20
-3.08720
 30
0.000000
  70
    32
  0
VERTEX
  8
0
  5
277
 10
1.70545
 20
-3.20204
 30
0.000000
  70
    32
  0
VERTEX
  8
0
  5
278
 10
1.75192
 20
-3.31751
 30
0.000000
  70
    32
  0
VERTEX
  8
0
  5
279
 10
1.79931
 20
-3.43360
 30
0.000000
  70
    32
  0
VERTEX
  8
0
  5
27A
 10
1.84763
 20
-3.55033
 30
0.000000
  70
    32
  0
VERTEX
  8
0
  5
27B
 10
1.89688
 20
-3.66768
 30
0.000000
  70
    32
  0
VERTEX
  8
0
  5
27C
 10
1.94707
 20
-3.78566
 30
0.000000
  70
    32
  0
VERTEX
  8
0
  5
27D
 10
1.99818
 20
-3.90426
 30
0.000000
  70
    32
  0
VERTEX
  8
0
  5
27E
 10
2.05022
 20
-4.02350
 30
0.000000
  70
    32
  0
VERTEX
  8
0
  5
27F
 10
2.10319
 20
-4.14336
 30
0.000000
  70
    32
  0
VERTEX
  8
0
  5
280
 10
2.15709
 20
-4.26386
 30
0.000000
  70
    32
  0
VERTEX
  8
0
  5
281
 10
2.21191
 20
-4.38498
 30
0.000000
  70
    32
  0
VERTEX
  8
0
  5
282
 10
2.26767
 20
-4.50672
 30
0.000000
  70
    32
  0
VERTEX
  8
0
  5
283
 10
2.32436
 20
-4.62910
 30
0.000000
  70
    32
  0
VERTEX
  8
0
  5
284
 10
2.38198
 20
-4.75211
 30
0.000000
  70
    32
  0
VERTEX
  8
0
  5
285
 10
2.44052
 20
-4.87574
 30
0.000000
  70
    32
  0
VERTEX
  8
0
  5
286
 10
2.50000
 20
-5.00000
 30
0.000000
  70
    32
  0
SEQEND
  8
0
  5
287
  0
POLYLINE
  8
0
  5
288
  66
     1
 10
0.000000
 20
0.000000
 30
0.000000
  70
     8
  0
VERTEX
  8
0
  5
289
 10
1.30000e-015
 20
25.0000
 30
0.000000
  70
    32
  0
VERTEX
  8
0
  5
28A
 10
0.0651618
 20
24.8148
 30
0.000000
  70
    32
  0
VERTEX
  8
0
  5
28B
 10
0.135751
 20
24.6314
 30
0.000000
  70
    32
  0
VERTEX
  8
0
  5
28C
 10
0.211629
 20
24.4497
 30
0.000000
  70
    32
  0
VERTEX
  8
0
  5
28D
 10
0.292659
 20
24.2697
 30
0.000000
  70
    32
  0
VERTEX
  8
0
  5
28E
 10
0.378706
 20
24.0913
 30
0.000000
  70
    32
  0
VERTEX
  8
0
  5
28F
 10
0.469633
 20
23.9144
 30
0.000000
  70
    32
  0
VERTEX
  8
0
  5
290
 10
0.565308
 20
23.7392
 30
0.000000
  70
    32
  0
VERTEX
  8
0
  5
291
 10
0.665596
 20
23.5653
 30
0.000000
  70
    32
  0
VERTEX
  8
0
  5
292
 10
0.770365
 20
23.3930
 30
0.000000
  70
    32
  0
VERTEX
  8
0
  5
293
 10
0.879483
 20
23.2220
 30
0.000000
  70
    32
  0
VERTEX
  8
0
  5
294
 10
0.992819
 20
23.0525
 30
0.000000
  70
    32
  0
VERTEX
  8
0
  5
295
 10
1.11024
 20
22.8842
 30
0.000000
  70
    32
  0
VERTEX
  8
0
  5
296
 10
1.23163
 20
22.7172
 30
0.000000
  70
    32
  0
VERTEX
  8
0
  5
297
 10
1.35684
 20
22.5515
 30
0.000000
  70
    32
  0
VERTEX
  8
0
  5
298
 10
1.48576
 20
22.3869
 30
0.000000
  70
    32
  0
VERTEX
  8
0
  5
299
 10
1.61826
 20
22.2235
 30
0.000000
  70
    32
  0
VERTEX
  8
0
  5
29A
 10
1.75421
 20
22.0613
 30
0.000000
  70
    32
  0
VERTEX
  8
0
  5
29B
 10
1.89348
 20
21.9001
 30
0.000000
  70
    32
  0
VERTEX
  8
0
  5
29C
 10
2.03596
 20
21.7399
 30
0.000000
  70
    32
  0
VERTEX
  8
0
  5
29D
 10
2.18151
 20
21.5807
 30
0.000000
  70
    32
  0
VERTEX
  8
0
  5
29E
 10
2.33003
 20
21.4225
 30
0.000000
  70
    32
  0
VERTEX
  8
0
  5
29F
 10
2.48138
 20
21.2652
 30
0.000000
  70
    32
  0
VERTEX
  8
0
  5
2A0
 10
2.63545
 20
21.1088
 30
0.000000
  70
    32
  0
VERTEX
  8
0
  5
2A1
 10
2.79211
 20
20.9532
 30
0.000000
  70
    32
  0
VERTEX
  8
0
  5
2A2
 10
2.95125
 20
20.7984
 30
0.000000
  70
    32
  0
VERTEX
  8
0
  5
2A3
 10
3.11275
 20
20.6444
 30
0.000000
  70
    32
  0
VERTEX
  8
0
  5
2A4
 10
3.27649
 20
20.4911
 30
0.000000
  70
    32
  0
VERTEX
  8
0
  5
2A5
 10
3.44236
 20
20.3385
 30
0.000000
  70
    32
  0
VERTEX
  8
0
  5
2A6
 10
3.61025
 20
20.1866
 30
0.000000
  70
    32
  0
VERTEX
  8
0
  5
2A7
 10
3.78002
 20
20.0352
 30
0.000000
  70
    32
  0
VERTEX
  8
0
  5
2A8
 10
3.95159
 20
19.8845
 30
0.000000
  70
    32
  0
VERTEX
  8
0
  5
2A9
 10
4.12482
 20
19.7342
 30
0.000000
  70
    32
  0
VERTEX
  8
0
  5
2AA
 10
4.29961
 20
19.5845
 30
0.000000
  70
    32
  0
VERTEX
  8
0
  5
2AB
 10
4.47585
 20
19.4353
 30
0.000000
  70
    32
  0
VERTEX
  8
0
  5
2AC
 10
4.65343
 20
19.2865
 30
0.000000
  70
    32
  0
VERTEX
  8
0
  5
2AD
 10
4.83224
 20
19.1381
 30
0.000000
  70
    32
  0
VERTEX
  8
0
  5
2AE
 10
5.01217
 20
18.9900
 30
0.000000
  70
    32
  0
VERTEX
  8
0
  5
2AF
 10
5.19311
 20
18.8423
 30
0.000000
  70
    32
  0
VERTEX
  8
0
  5
2B0
 10
5.37495
 20
18.6949
 30
0.000000
  70
    32
  0
VERTEX
  8
0
  5
2B1
 10
5.55760
 20
18.5478
 30
0.000000
  70
    32
  0
VERTEX
  8
0
  5
2B2
 10
5.74095
 20
18.4008
 30
0.000000
  70
    32
  0
VERTEX
  8
0
  5
2B3
 10
5.92488
 20
18.2541
 30
0.000000
  70
    32
  0
VERTEX
  8
0
  5
2B4
 10
6.10931
 20
18.1076
 30
0.000000
  70
    32
  0
VERTEX
  8
0
  5
2B5
 10
6.29412
 20
17.9612
 30
0.000000
  70
    32
  0
VERTEX
  8
0
  5
2B6
 10
6.47922
 20
17.8148
 30
0.000000
  70
    32
  0
VERTEX
  8
0
  5
2B7
 10
6.66450
 20
17.6686
 30
0.000000
  70
    32
  0
VERTEX
  8
0
  5
2B8
 10
6.84987
 20
17.5224
 30
0.000000
  70
    32
  0
VERTEX
  8
0
  5
2B9
 10
7.03522
 20
17.3762
 30
0.000000
  70
    32
  0
VERTEX
  8
0
  5
2BA
 10
7.22046
 20
17.2299
 30
0.000000
  70
    32
  0
VERTEX
  8
0
  5
2BB
 10
7.40549
 20
17.0836
 30
0.000000
  70
    32
  0
VERTEX
  8
0
  5
2BC
 10
7.59022
 20
16.9373
 30
0.000000
  70
    32
  0
VERTEX
  8
0
  5
2BD
 10
7.77455
 20
16.7908
 30
0.000000
  70
    32
  0
VERTEX
  8
0
  5
2BE
 10
7.95838
 20
16.6442
 30
0.000000
  70
    32
  0
VERTEX
  8
0
  5
2BF
 10
8.14162
 20
16.4973
 30
0.000000
  70
    32
  0
VERTEX
  8
0
  5
2C0
 10
8.32418
 20
16.3503
 30
0.000000
  70
    32
  0
VERTEX
  8
0
  5
2C1
 10
8.50597
 20
16.2031
 30
0.000000
  70
    32
  0
VERTEX
  8
0
  5
2C2
 10
8.68690
 20
16.0556
 30
0.000000
  70
    32
  0
VERTEX
  8
0
  5
2C3
 10
8.86687
 20
15.9078
 30
0.000000
  70
    32
  0
VERTEX
  8
0
  5
2C4
 10
9.04580
 20
15.7597
 30
0.000000
  70
    32
  0
VERTEX
  8
0
  5
2C5
 10
9.22359
 20
15.6112
 30
0.000000
  70
    32
  0
VERTEX
  8
0
  5
2C6
 10
9.40017
 20
15.4624
 30
0.000000
  70
    32
  0
VERTEX
  8
0
  5
2C7
 10
9.57544
 20
15.3131
 30
0.000000
  70
    32
  0
VERTEX
  8
0
  5
2C8
 10
9.74932
 20
15.1635
 30
0.000000
  70
    32
  0
VERTEX
  8
0
  5
2C9
 10
9.92172
 20
15.0134
 30
0.000000
  70
    32
  0
VERTEX
  8
0
  5
2CA
 10
10.0926
 20
14.8628
 30
0.000000
  70
    32
  0
VERTEX
  8
0
  5
2CB
 10
10.2618
 20
14.7117
 30
0.000000
  70
    32
  0
VERTEX
  8
0
  5
2CC
 10
10.4292
 20
14.5601
 30
0.000000
  70
    32
  0
VERTEX
  8
0
  5
2CD
 10
10.5949
 20
14.4079
 30
0.000000
  70
    32
  0
VERTEX
  8
0
  5
2CE
 10
10.7587
 20
14.2551
 30
0.000000
  70
    32
  0
VERTEX
  8
0
  5
2CF
 10
10.9205
 20
14.1018
 30
0.000000
  70
    32
  0
VERTEX
  8
0
  5
2D0
 10
11.0802
 20
13.9478
 30
0.000000
  70
    32
  0
VERTEX
  8
0
  5
2D1
 10
11.2379
 20
13.7932
 30
0.000000
  70
    32
  0
VERTEX
  8
0
  5
2D2
 10
11.3933
 20
13.6378
 30
0.000000
  70
    32
  0
VERTEX
  8
0
  5
2D3
 10
11.5464
 20
13.4818
 30
0.000000
  70
    32
  0
VERTEX
  8
0
  5
2D4
 10
11.6972
 20
13.3251
 30
0.000000
  70
    32
  0
VERTEX
  8
0
  5
2D5
 10
11.8456
 20
13.1676
 30
0.000000
  70
    32
  0
VERTEX
  8
0
  5
2D6
 10
11.9915
 20
13.0094
 30
0.000000
  70
    32
  0
VERTEX
  8
0
  5
2D7
 10
12.1347
 20
12.8503
 30
0.000000
  70
    32
  0
VERTEX
  8
0
  5
2D8
 10
12.2754
 20
12.6905
 30
0.000000
  70
    32
  0
VERTEX
  8
0
  5
2D9
 10
12.4133
 20
12.5298
 30
0.000000
  70
    32
  0
VERTEX
  8
0
  5
2DA
 10
12.5484
 20
12.3683
 30
0.000000
  70
    32
  0
VERTEX
  8
0
  5
2DB
 10
12.6807
 20
12.2059
 30
0.000000
  70
    32
  0
VERTEX
  8
0
  5
2DC
 10
12.8101
 20
12.0426
 30
0.000000
  70
    32
  0
VERTEX
  8
0
  5
2DD
 10
12.9364
 20
11.8784
 30
0.000000
  70
    32
  0
VERTEX
  8
0
  5
2DE
 10
13.0597
 20
11.7132
 30
0.000000
  70
    32
  0
VERTEX
  8
0
  5
2DF
 10
13.1799
 20
11.5471
 30
0.000000
  70
    32
  0
VERTEX
  8
0
  5
2E0
 10
13.2969
 20
11.3800
 30
0.000000
  70
    32
  0
VERTEX
  8
0
  5
2E1
 10
13.4106
 20
11.2120
 30
0.000000
  70
    32
  0
VERTEX
  8
0
  5
2E2
 10
13.5210
 20
11.0429
 30
0.000000
  70
    32
  0
VERTEX
  8
0
  5
2E3
 10
13.6280
 20
10.8728
 30
0.000000
  70
    32
  0
VERTEX
  8
0
  5
2E4
 10
13.7316
 20
10.7016
 30
0.000000
  70
    32
  0
VERTEX
  8
0
  5
2E5
 10
13.8317
 20
10.5294
 30
0.000000
  70
    32
  0
VERTEX
  8
0
  5
2E6
 10
13.9282
 20
10.3561
 30
0.000000
  70
    32
  0
VERTEX
  8
0
  5
2E7
 10
14.0210
 20
10.1817
 30
0.000000
  70
    32
  0
VERTEX
  8
0
  5
2E8
 10
14.1103
 20
10.0061
 30
0.000000
  70
    32
  0
VERTEX
  8
0
  5
2E9
 10
14.1957
 20
9.82950
 30
0.000000
  70
    32
  0
VERTEX
  8
0
  5
2EA
 10
14.2774
 20
9.65173
 30
0.000000
  70
    32
  0
VERTEX
  8
0
  5
2EB
 10
14.3552
 20
9.47285
 30
0.000000
  70
    32
  0
VERTEX
  8
0
  5
2EC
 10
14.4291
 20
9.29285
 30
0.000000
  70
    32
  0
VERTEX
  8
0
  5
2ED
 10
14.4991
 20
9.11175
 30
0.000000
  70
    32
  0
VERTEX
  8
0
  5
2EE
 10
14.5651
 20
8.92956
 30
0.000000
  70
    32
  0
VERTEX
  8
0
  5
2EF
 10
14.6270
 20
8.74631
 30
0.000000
  70
    32
  0
VERTEX
  8
0
  5
2F0
 10
14.6848
 20
8.56202
 30
0.000000
  70
    32
  0
VERTEX
  8
0
  5
2F1
 10
14.7385
 20
8.37672
 30
0.000000
  70
    32
  0
VERTEX
  8
0
  5
2F2
 10
14.7879
 20
8.19045
 30
0.000000
  70
    32
  0
VERTEX
  8
0
  5
2F3
 10
14.8332
 20
8.00325
 30
0.000000
  70
    32
  0
VERTEX
  8
0
  5
2F4
 10
14.8741
 20
7.81516
 30
0.000000
  70
    32
  0
VERTEX
  8
0
  5
2F5
 10
14.9107
 20
7.62622
 30
0.000000
  70
    32
  0
VERTEX
  8
0
  5
2F6
 10
14.9429
 20
7.43651
 30
0.000000
  70
    32
  0
VERTEX
  8
0
  5
2F7
 10
14.9708
 20
7.24607
 30
0.000000
  70
    32
  0
VERTEX
  8
0
  5
2F8
 10
14.9941
 20
7.05496
 30
0.000000
  70
    32
  0
VERTEX
  8
0
  5
2F9
 10
15.0130
 20
6.86326
 30
0.000000
  70
    32
  0
VERTEX
  8
0
  5
2FA
 10
15.0273
 20
6.67105
 30
0.000000
  70
    32
  0
VERTEX
  8
0
  5
2FB
 10
15.0371
 20
6.47839
 30
0.000000
  70
    32
  0
VERTEX
  8
0
  5
2FC
 10
15.0423
 20
6.28537
 30
0.000000
  70
    32
  0
VERTEX
  8
0
  5
2FD
 10
15.0429
 20
6.09208
 30
0.000000
  70
    32
  0
VERTEX
  8
0
  5
2FE
 10
15.0388
 20
5.89861
 30
0.000000
  70
    32
  0
VERTEX
  8
0
  5
2FF
 10
15.0299
 20
5.70506
 30
0.000000
  70
    32
  0
VERTEX
  8
0
  5
300
 10
15.0164
 20
5.51153
 30
0.000000
  70
    32
  0
VERTEX
  8
0
  5
301
 10
14.9981
 20
5.31812
 30
0.000000
  70
    32
  0
VERTEX
  8
0
  5
302
 10
14.9750
 20
5.12495
 30
0.000000
  70
    32
  0
VERTEX
  8
0
  5
303
 10
14.9471
 20
4.93214
 30
0.000000
  70
    32
  0
VERTEX
  8
0
  5
304
 10
14.9144
 20
4.73980
 30
0.000000
  70
    32
  0
VERTEX
  8
0
  5
305
 10
14.8768
 20
4.54805
 30
0.000000
  70
    32
  0
VERTEX
  8
0
  5
306
 10
14.8343
 20
4.35704
 30
0.000000
  70
    32
  0
VERTEX
  8
0
  5
307
 10
14.7868
 20
4.16689
 30
0.000000
  70
    32
  0
VERTEX
  8
0
  5
308
 10
14.7345
 20
3.97775
 30
0.000000
  70
    32
  0
VERTEX
  8
0
  5
309
 10
14.6772
 20
3.78976
 30
0.000000
  70
    32
  0
VERTEX
  8
0
  5
30A
 10
14.6149
 20
3.60306
 30
0.000000
  70
    32
  0
VERTEX
  8
0
  5
30B
 10
14.5477
 20
3.41782
 30
0.000000
  70
    32
  0
VERTEX
  8
0
  5
30C
 10
14.4754
 20
3.23419
 30
0.000000
  70
    32
  0
VERTEX
  8
0
  5
30D
 10
14.3981
 20
3.05233
 30
0.000000
  70
    32
  0
VERTEX
  8
0
  5
30E
 10
14.3157
 20
2.87242
 30
0.000000
  70
    32
  0
VERTEX
  8
0
  5
30F
 10
14.2283
 20
2.69462
 30
0.000000
  70
    32
  0
VERTEX
  8
0
  5
310
 10
14.1359
 20
2.51912
 30
0.000000
  70
    32
  0
VERTEX
  8
0
  5
311
 10
14.0384
 20
2.34609
 30
0.000000
  70
    32
  0
VERTEX
  8
0
  5
312
 10
13.9357
 20
2.17573
 30
0.000000
  70
    32
  0
VERTEX
  8
0
  5
313
 10
13.8280
 20
2.00822
 30
0.000000
  70
    32
  0
VERTEX
  8
0
  5
314
 10
13.7152
 20
1.84377
 30
0.000000
  70
    32
  0
VERTEX
  8
0
  5
315
 10
13.5972
 20
1.68257
 30
0.000000
  70
    32
  0
VERTEX
  8
0
  5
316
 10
13.4742
 20
1.52483
 30
0.000000
  70
    32
  0
VERTEX
  8
0
  5
317
 10
13.3460
 20
1.37076
 30
0.000000
  70
    32
  0
VERTEX
  8
0
  5
318
 10
13.2127
 20
1.22058
 30
0.000000
  70
    32
  0
VERTEX
  8
0
  5
319
 10
13.0743
 20
1.07451
 30
0.000000
  70
    32
  0
VERTEX
  8
0
  5
31A
 10
12.9307
 20
0.932765
 30
0.000000
  70
    32
  0
VERTEX
  8
0
  5
31B
 10
12.7820
 20
0.795588
 30
0.000000
  70
    32
  0
VERTEX
  8
0
  5
31C
 10
12.6282
 20
0.663209
 30
0.000000
  70
    32
  0
VERTEX
  8
0
  5
31D
 10
12.4692
 20
0.535867
 30
0.000000
  70
    32
  0
VERTEX
  8
0
  5
31E
 10
12.3052
 20
0.413807
 30
0.000000
  70
    32
  0
VERTEX
  8
0
  5
31F
 10
12.1360
 20
0.297278
 30
0.000000
  70
    32
  0
VERTEX
  8
0
  5
320
 10
11.9617
 20
0.186534
 30
0.000000
  70
    32
  0
VERTEX
  8
0
  5
321
 10
11.7823
 20
0.0818322
 30
0.000000
  70
    32
  0
VERTEX
  8
0
  5
322
 10
11.5978
 20
-0.0165627
 30
0.000000
  70
    32
  0
VERTEX
  8
0
  5
323
 10
11.4082
 20
-0.108383
 30
0.000000
  70
    32
  0
VERTEX
  8
0
  5
324
 10
11.2135
 20
-0.193356
 30
0.000000
  70
    32
  0
VERTEX
  8
0
  5
325
 10
11.0137
 20
-0.271204
 30
0.000000
  70
    32
  0
VERTEX
  8
0
  5
326
 10
10.8089
 20
-0.341646
 30
0.000000
  70
    32
  0
VERTEX
  8
0
  5
327
 10
10.5991
 20
-0.404392
 30
0.000000
  70
    32
  0
VERTEX
  8
0
  5
328
 10
10.3842
 20
-0.459153
 30
0.000000
  70
    32
  0
VERTEX
  8
0
  5
329
 10
10.1643
 20
-0.505632
 30
0.000000
  70
    32
  0
VERTEX
  8
0
  5
32A
 10
9.93944
 20
-0.543526
 30
0.000000
  70
    32
  0
VERTEX
  8
0
  5
32B
 10
9.70958
 20
-0.572530
 30
0.000000
  70
    32
  0
VERTEX
  8
0
  5
32C
 10
9.47476
 20
-0.592334
 30
0.000000
  70
    32
  0
VERTEX
  8
0
  5
32D
 10
9.23500
 20
-0.602622
 30
0.000000
  70
    32
  0
VERTEX
  8
0
  5
32E
 10
8.99033
 20
-0.603073
 30
0.000000
  70
    32
  0
VERTEX
  8
0
  5
32F
 10
8.74076
 20
-0.593362
 30
0.000000
  70
    32
  0
VERTEX
  8
0
  5
330
 10
8.48632
 20
-0.573160
 30
0.000000
  70
    32
  0
VERTEX
  8
0
  5
331
 10
8.22704
 20
-0.542131
 30
0.000000
  70
    32
  0
VERTEX
  8
0
  5
332
 10
7.96294
 20
-0.499938
 30
0.000000
  70
    32
  0
VERTEX
  8
0
  5
333
 10
7.69404
 20
-0.446235
 30
0.000000
  70
    32
  0
VERTEX
  8
0
  5
334
 10
7.42038
 20
-0.380674
 30
0.000000
  70
    32
  0
VERTEX
  8
0
  5
335
 10
7.14198
 20
-0.302901
 30
0.000000
  70
    32
  0
VERTEX
  8
0
  5
336
 10
6.85888
 20
-0.212558
 30
0.000000
  70
    32
  0
VERTEX
  8
0
  5
337
 10
6.57111
 20
-0.109282
 30
0.000000
  70
    32
  0
VERTEX
  8
0
  5
338
 10
6.27869
 20
0.00729469
 30
0.000000
  70
    32
  0
VERTEX
  8
0
  5
339
 10
5.98167
 20
0.137545
 30
0.000000
  70
    32
  0
VERTEX
  8
0
  5
33A
 10
5.68008
 20
0.281846
 30
0.000000
  70
    32
  0
VERTEX
  8
0
  5
33B
 10
5.37395
 20
0.440580
 30
0.000000
  70
    32
  0
VERTEX
  8
0
  5
33C
 10
5.06332
 20
0.614134
 30
0.000000
  70
    32
  0
VERTEX
  8
0
  5
33D
 10
4.74823
 20
0.802899
 30
0.000000
  70
    32
  0
VERTEX
  8
0
  5
33E
 10
4.42872
 20
1.00727
 30
0.000000
  70
    32
  0
VERTEX
  8
0
  5
33F
 10
4.10483
 20
1.22765
 30
0.000000
  70
    32
  0
VERTEX
  8
0
  5
340
 10
3.77660
 20
1.46445
 30
0.000000
  70
    32
  0
VERTEX
  8
0
  5
341
 10
3.44408
 20
1.71807
 30
0.000000
  70
    32
  0
VERTEX
  8
0
  5
342
 10
3.10731
 20
1.98893
 30
0.000000
  70
    32
  0
VERTEX
  8
0
  5
343
 10
2.76633
 20
2.27745
 30
0.000000
  70
    32
  0
VERTEX
  8
0
  5
344
 10
2.42119
 20
2.58406
 30
0.000000
  70
    32
  0
VERTEX
  8
0
  5
345
 10
2.07194
 20
2.90918
 30
0.000000
  70
    32
  0
VERTEX
  8
0
  5
346
 10
1.71862
 20
3.25325
 30
0.000000
  70
    32
  0
VERTEX
  8
0
  5
347
 10
1.36129
 20
3.61671
 30
0.000000
  70
    32
  0
VERTEX
  8
0
  5
348
 10
1.00000
 20
4.00000
 30
0.000000
  70
    32
  0
SEQEND
  8
0
  5
349
  0
POLYLINE
  8
0
  5
34A
  66
     1
 10
0.000000
 20
0.000000
 30
0.000000
  70
     8
  0
VERTEX
  8
0
  5
34B
 10
-1.00000
 20
4.00000
 30
0.000000
  70
    32
  0
VERTEX
  8
0
  5
34C
 10
-1.36129
 20
3.61671
 30
0.000000
  70
    32
  0
VERTEX
  8
0
  5
34D
 10
-1.71862
 20
3.25325
 30
0.000000
  70
    32
  0
VERTEX
  8
0
  5
34E
 10
-2.07194
 20
2.90918
 30
0.000000
  70
    32
  0
VERTEX
  8
0
  5
34F
 10
-2.42119
 20
2.58406
 30
0.000000
  70
    32
  0
VERTEX
  8
0
  5
350
 10
-2.76633
 20
2.27745
 30
0.000000
  70
    32
  0
VERTEX
  8
0
  5
351
 10
-3.10731
 20
1.98893
 30
0.000000
  70
    32
  0
VERTEX
  8
0
  5
352
 10
-3.44408
 20
1.71807
 30
0.000000
  70
    32
  0
VERTEX
  8
0
  5
353
 10
-3.77660
 20
1.46445
 30
0.000000
  70
    32
  0
VERTEX
  8
0
  5
354
 10
-4.10483
 20
1.22765
 30
0.000000
  70
    32
  0
VERTEX
  8
0
  5
355
 10
-4.42872
 20
1.00727
 30
0.000000
  70
    32
  0
VERTEX
  8
0
  5
356
 10
-4.74823
 20
0.802899
 30
0.000000
  70
    32
  0
VERTEX
  8
0
  5
357
 10
-5.06332
 20
0.614134
 30
0.000000
  70
    32
  0
VERTEX
  8
0
  5
358
 10
-5.37395
 20
0.440580
 30
0.000000
  70
    32
  0
VERTEX
  8
0
  5
359
 10
-5.68008
 20
0.281846
 30
0.000000
  70
    32
  0
VERTEX
  8
0
  5
35A
 10
-5.98167
 20
0.137545
 30
0.000000
  70
    32
  0
VERTEX
  8
0
  5
35B
 10
-6.27869
 20
0.00729469
 30
0.000000
  70
    32
  0
VERTEX
  8
0
  5
35C
 10
-6.57111
 20
-0.109282
 30
0.000000
  70
    32
  0
VERTEX
  8
0
  5
35D
 10
-6.85888
 20
-0.212558
 30
0.000000
  70
    32
  0
VERTEX
  8
0
  5
35E
 10
-7.14198
 20
-0.302901
 30
0.000000
  70
    32
  0
VERTEX
  8
0
  5
35F
 10
-7.42038
 20
-0.380674
 30
0.000000
  70
    32
  0
VERTEX
  8
0
  5
360
 10
-7.69404
 20
-0.446235
 30
0.000000
  70
    32
  0
VERTEX
  8
0
  5
361
 10
-7.96294
 20
-0.499938
 30
0.000000
  70
    32
  0
VERTEX
  8
0
  5
362
 10
-8.22704
 20
-0.542131
 30
0.000000
  70
    32
  0
VERTEX
  8
0
  5
363
 10
-8.48632
 20
-0.573160
 30
0.000000
  70
    32
  0
VERTEX
  8
0
  5
364
 10
-8.74076
 20
-0.593362
 30
0.000000
  70
    32
  0
VERTEX
  8
0
  5
365
 10
-8.99033
 20
-0.603073
 30
0.000000
  70
    32
  0
VERTEX
  8
0
  5
366
 10
-9.23500
 20
-0.602622
 30
0.000000
  70
    32
  0
VERTEX
  8
0
  5
367
 10
-9.47476
 20
-0.592334
 30
0.000000
  70
    32
  0
VERTEX
  8
0
  5
368
 10
-9.70958
 20
-0.572530
 30
0.000000
  70
    32
  0
VERTEX
  8
0
  5
369
 10
-9.93944
 20
-0.543526
 30
0.000000
  70
    32
  0
VERTEX
  8
0
  5
36A
 10
-10.1643
 20
-0.505632
 30
0.000000
  70
    32
  0
VERTEX
  8
0
  5
36B
 10
-10.3842
 20
-0.459153
 30
0.000000
  70
    32
  0
VERTEX
  8
0
  5
36C
 10
-10.5991
 20
-0.404392
 30
0.000000
  70
    32
  0
VERTEX
  8
0
  5
36D
 10
-10.8089
 20
-0.341646
 30
0.000000
  70
    32
  0
VERTEX
  8
0
  5
36E
 10
-11.0137
 20
-0.271204
 30
0.000000
  70
    32
  0
VERTEX
  8
0
  5
36F
 10
-11.2135
 20
-0.193356
 30
0.000000
  70
    32
  0
VERTEX
  8
0
  5
370
 10
-11.4082
 20
-0.108383
 30
0.000000
  70
    32
  0
VERTEX
  8
0
  5
371
 10
-11.5978
 20
-0.0165627
 30
0.000000
  70
    32
  0
VERTEX
  8
0
  5
372
 10
-11.7823
 20
0.0818322
 30
0.000000
  70
    32
  0
VERTEX
  8
0
  5
373
 10
-11.9617
 20
0.186534
 30
0.000000
  70
    32
  0
VERTEX
  8
0
  5
374
 10
-12.1360
 20
0.297278
 30
0.000000
  70
    32
  0
VERTEX
  8
0
  5
375
 10
-12.3052
 20
0.413807
 30
0.000000
  70
    32
  0
VERTEX
  8
0
  5
376
 10
-12.4692
 20
0.535867
 30
0.000000
  70
    32
  0
VERTEX
  8
0
  5
377
 10
-12.6282
 20
0.663209
 30
0.000000
  70
    32
  0
VERTEX
  8
0
  5
378
 10
-12.7820
 20
0.795588
 30
0.000000
  70
    32
  0
VERTEX
  8
0
  5
379
 10
-12.9307
 20
0.932765
 30
0.000000
  70
    32
  0
VERTEX
  8
0
  5
37A
 10
-13.0743
 20
1.07451
 30
0.000000
  70
    32
  0
VERTEX
  8
0
  5
37B
 10
-13.2127
 20
1.22058
 30
0.000000
  70
    32
  0
VERTEX
  8
0
  5
37C
 10
-13.3460
 20
1.37076
 30
0.000000
  70
    32
  0
VERTEX
  8
0
  5
37D
 10
-13.4742
 20
1.52483
 30
0.000000
  70
    32
  0
VERTEX
  8
0
  5
37E
 10
-13.5972
 20
1.68257
 30
0.000000
  70
    32
  0
VERTEX
  8
0
  5
37F
 10
-13.7152
 20
1.84377
 30
0.000000
  70
    32
  0
VERTEX
  8
0
  5
380
 10
-13.8280
 20
2.00822
 30
0.000000
  70
    32
  0
VERTEX
  8
0
  5
381
 10
-13.9357
 20
2.17573
 30
0.000000
  70
    32
  0
VERTEX
  8
0
  5
382
 10
-14.0384
 20
2.34609
 30
0.000000
  70
    32
  0
VERTEX
  8
0
  5
383
 10
-14.1359
 20
2.51912
 30
0.000000
  70
    32
  0
VERTEX
  8
0
  5
384
 10
-14.2283
 20
2.69462
 30
0.000000
  70
    32
  0
VERTEX
  8
0
  5
385
 10
-14.3157
 20
2.87242
 30
0.000000
  70
    32
  0
VERTEX
  8
0
  5
386
 10
-14.3981
 20
3.05233
 30
0.000000
  70
    32
  0
VERTEX
  8
0
  5
387
 10
-14.4754
 20
3.23419
 30
0.000000
  70
    32
  0
VERTEX
  8
0
  5
388
 10
-14.5477
 20
3.41782
 30
0.000000
  70
    32
  0
VERTEX
  8
0
  5
389
 10
-14.6149
 20
3.60306
 30
0.000000
  70
    32
  0
VERTEX
  8
0
  5
38A
 10
-14.6772
 20
3.78976
 30
0.000000
  70
    32
  0
VERTEX
  8
0
  5
38B
 10
-14.7345
 20
3.97775
 30
0.000000
  70
    32
  0
VERTEX
  8
0
  5
38C
 10
-14.7868
 20
4.16689
 30
0.000000
  70
    32
  0
VERTEX
  8
0
  5
38D
 10
-14.8343
 20
4.35704
 30
0.000000
  70
    32
  0
VERTEX
  8
0
  5
38E
 10
-14.8768
 20
4.54805
 30
0.000000
  70
    32
  0
VERTEX
  8
0
  5
38F
 10
-14.9144
 20
4.73980
 30
0.000000
  70
    32
  0
VERTEX
  8
0
  5
390
 10
-14.9471
 20
4.93214
 30
0.000000
  70
    32
  0
VERTEX
  8
0
  5
391
 10
-14.9750
 20
5.12495
 30
0.000000
  70
    32
  0
VERTEX
  8
0
  5
392
 10
-14.9981
 20
5.31812
 30
0.000000
  70
    32
  0
VERTEX
  8
0
  5
393
 10
-15.0164
 20
5.51153
 30
0.000000
  70
    32
  0
VERTEX
  8
0
  5
394
 10
-15.0299
 20
5.70506
 30
0.000000
  70
    32
  0
VERTEX
  8
0
  5
395
 10
-15.0388
 20
5.89861
 30
0.000000
  70
    32
  0
VERTEX
  8
0
  5
396
 10
-15.0429
 20
6.09208
 30
0.000000
  70
    32
  0
VERTEX
  8
0
  5
397
 10
-15.0423
 20
6.28537
 30
0.000000
  70
    32
  0
VERTEX
  8
0
  5
398
 10
-15.0371
 20
6.47839
 30
0.000000
  70
    32
  0
VERTEX
  8
0
  5
399
 10
-15.0273
 20
6.67105
 30
0.000000
  70
    32
  0
VERTEX
  8
0
  5
39A
 10
-15.0130
 20
6.86326
 30
0.000000
  70
    32
  0
VERTEX
  8
0
  5
39B
 10
-14.9941
 20
7.05496
 30
0.000000
  70
    32
  0
VERTEX
  8
0
  5
39C
 10
-14.9708
 20
7.24607
 30
0.000000
  70
    32
  0
VERTEX
  8
0
  5
39D
 10
-14.9429
 20
7.43651
 30
0.000000
  70
    32
  0
VERTEX
  8
0
  5
39E
 10
-14.9107
 20
7.62622
 30
0.000000
  70
    32
  0
VERTEX
  8
0
  5
39F
 10
-14.8741
 20
7.81516
 30
0.000000
  70
    32
  0
VERTEX
  8
0
  5
3A0
 10
-14.8332
 20
8.00325
 30
0.000000
  70
    32
  0
VERTEX
  8
0
  5
3A1
 10
-14.7879
 20
8.19045
 30
0.000000
  70
    32
  0
VERTEX
  8
0
  5
3A2
 10
-14.7385
 20
8.37672
 30
0.000000
  70
    32
  0
VERTEX
  8
0
  5
3A3
 10
-14.6848
 20
8.56202
 30
0.000000
  70
    32
  0
VERTEX
  8
0
  5
3A4
 10
-14.6270
 20
8.74631
 30
0.000000
  70
    32
  0
VERTEX
  8
0
  5
3A5
 10
-14.5651
 20
8.92956
 30
0.000000
  70
    32
  0
VERTEX
  8
0
  5
3A6
 10
-14.4991
 20
9.11175
 30
0.000000
  70
    32
  0
VERTEX
  8
0
  5
3A7
 10
-14.4291
 20
9.29285
 30
0.000000
  70
    32
  0
VERTEX
  8
0
  5
3A8
 10
-14.3552
 20
9.47285
 30
0.000000
  70
    32
  0
VERTEX
  8
0
  5
3A9
 10
-14.2774
 20
9.65173
 30
0.000000
  70
    32
  0
VERTEX
  8
0
  5
3AA
 10
-14.1957
 20
9.82950
 30
0.000000
  70
    32
  0
VERTEX
  8
0
  5
3AB
 10
-14.1103
 20
10.0061
 30
0.000000
  70
    32
  0
VERTEX
  8
0
  5
3AC
 10
-14.0210
 20
10.1817
 30
0.000000
  70
    32
  0
VERTEX
  8
0
  5
3AD
 10
-13.9282
 20
10.3561
 30
0.000000
  70
    32
  0
VERTEX
  8
0
  5
3AE
 10
-13.8317
 20
10.5294
 30
0.000000
  70
    32
  0
VERTEX
  8
0
  5
3AF
 10
-13.7316
 20
10.7016
 30
0.000000
  70
    32
  0
VERTEX
  8
0
  5
3B0
 10
-13.6280
 20
10.8728
 30
0.000000
  70
    32
  0
VERTEX
  8
0
  5
3B1
 10
-13.5210
 20
11.0429
 30
0.000000
  70
    32
  0
VERTEX
  8
0
  5
3B2
 10
-13.4106
 20
11.2120
 30
0.000000
  70
    32
  0
VERTEX
  8
0
  5
3B3
 10
-13.2969
 20
11.3800
 30
0.000000
  70
    32
  0
VERTEX
  8
0
  5
3B4
 10
-13.1799
 20
11.5471
 30
0.000000
  70
    32
  0
VERTEX
  8
0
  5
3B5
 10
-13.0597
 20
11.7132
 30
0.000000
  70
    32
  0
VERTEX
  8
0
  5
3B6
 10
-12.9364
 20
11.8784
 30
0.000000
  70
    32
  0
VERTEX
  8
0
  5
3B7
 10
-12.8101
 20
12.0426
 30
0.000000
  70
    32
  0
VERTEX
  8
0
  5
3B8
 10
-12.6807
 20
12.2059
 30
0.000000
  70
    32
  0
VERTEX
  8
0
  5
3B9
 10
-12.5484
 20
12.3683
 30
0.000000
  70
    32
  0
VERTEX
  8
0
  5
3BA
 10
-12.4133
 20
12.5298
 30
0.000000
  70
    32
  0
VERTEX
  8
0
  5
3BB
 10
-12.2754
 20
12.6905
 30
0.000000
  70
    32
  0
VERTEX
  8
0
  5
3BC
 10
-12.1347
 20
12.8503
 30
0.000000
  70
    32
  0
VERTEX
  8
0
  5
3BD
 10
-11.9915
 20
13.0094
 30
0.000000
  70
    32
  0
VERTEX
  8
0
  5
3BE
 10
-11.8456
 20
13.1676
 30
0.000000
  70
    32
  0
VERTEX
  8
0
  5
3BF
 10
-11.6972
 20
13.3251
 30
0.000000
  70
    32
  0
VERTEX
  8
0
  5
3C0
 10
-11.5464
 20
13.4818
 30
0.000000
  70
    32
  0
VERTEX
  8
0
  5
3C1
 10
-11.3933
 20
13.6378
 30
0.000000
  70
    32
  0
VERTEX
  8
0
  5
3C2
 10
-11.2379
 20
13.7932
 30
0.000000
  70
    32
  0
VERTEX
  8
0
  5
3C3
 10
-11.0802
 20
13.9478
 30
0.000000
  70
    32
  0
VERTEX
  8
0
  5
3C4
 10
-10.9205
 20
14.1018
 30
0.000000
  70
    32
  0
VERTEX
  8
0
  5
3C5
 10
-10.7587
 20
14.2551
 30
0.000000
  70
    32
  0
VERTEX
  8
0
  5
3C6
 10
-10.5949
 20
14.4079
 30
0.000000
  70
    32
  0
VERTEX
  8
0
  5
3C7
 10
-10.4292
 20
14.5601
 30
0.000000
  70
    32
  0
VERTEX
  8
0
  5
3C8
 10
-10.2618
 20
14.7117
 30
0.000000
  70
    32
  0
VERTEX
  8
0
  5
3C9
 10
-10.0926
 20
14.8628
 30
0.000000
  70
    32
  0
VERTEX
  8
0
  5
3CA
 10
-9.92172
 20
15.0134
 30
0.000000
  70
    32
  0
VERTEX
  8
0
  5
3CB
 10
-9.74932
 20
15.1635
 30
0.000000
  70
    32
  0
VERTEX
  8
0
  5
3CC
 10
-9.57544
 20
15.3131
 30
0.000000
  70
    32
  0
VERTEX
  8
0
  5
3CD
 10
-9.40017
 20
15.4624
 30
0.000000
  70
    32
  0
VERTEX
  8
0
  5
3CE
 10
-9.22359
 20
15.6112
 30
0.000000
  70
    32
  0
VERTEX
  8
0
  5
3CF
 10
-9.04580
 20
15.7597
 30
0.000000
  70
    32
  0
VERTEX
  8
0
  5
3D0
 10
-8.86687
 20
15.9078
 30
0.000000
  70
    32
  0
VERTEX
  8
0
  5
3D1
 10
-8.68690
 20
16.0556
 30
0.000000
  70
    32
  0
VERTEX
  8
0
  5
3D2
 10
-8.50597
 20
16.2031
 30
0.000000
  70
    32
  0
VERTEX
  8
0
  5
3D3
 10
-8.32418
 20
16.3503
 30
0.000000
  70
    32
  0
VERTEX
  8
0
  5
3D4
 10
-8.14162
 20
16.4973
 30
0.000000
  70
    32
  0
VERTEX
  8
0
  5
3D5
 10
-7.95838
 20
16.6442
 30
0.000000
  70
    32
  0
VERTEX
  8
0
  5
3D6
 10
-7.77455
 20
16.7908
 30
0.000000
  70
    32
  0
VERTEX
  8
0
  5
3D7
 10
-7.59022
 20
16.9373
 30
0.000000
  70
    32
  0
VERTEX
  8
0
  5
3D8
 10
-7.40549
 20
17.0836
 30
0.000000
  70
    32
  0
VERTEX
  8
0
  5
3D9
 10
-7.22046
 20
17.2299
 30
0.000000
  70
    32
  0
VERTEX
  8
0
  5
3DA
 10
-7.03522
 20
17.3762
 30
0.000000
  70
    32
  0
VERTEX
  8
0
  5
3DB
 10
-6.84987
 20
17.5224
 30
0.000000
  70
    32
  0
VERTEX
  8
0
  5
3DC
 10
-6.66450
 20
17.6686
 30
0.000000
  70
    32
  0
VERTEX
  8
0
  5
3DD
 10
-6.47922
 20
17.8148
 30
0.000000
  70
    32
  0
VERTEX
  8
0
  5
3DE
 10
-6.29412
 20
17.9612
 30
0.000000
  70
    32
  0
VERTEX
  8
0
  5
3DF
 10
-6.10931
 20
18.1076
 30
0.000000
  70
    32
  0
VERTEX
  8
0
  5
3E0
 10
-5.92488
 20
18.2541
 30
0.000000
  70
    32
  0
VERTEX
  8
0
  5
3E1
 10
-5.74095
 20
18.4008
 30
0.000000
  70
    32
  0
VERTEX
  8
0
  5
3E2
 10
-5.55760
 20
18.5478
 30
0.000000
  70
    32
  0
VERTEX
  8
0
  5
3E3
 10
-5.37495
 20
18.6949
 30
0.000000
  70
    32
  0
VERTEX
  8
0
  5
3E4
 10
-5.19311
 20
18.8423
 30
0.000000
  70
    32
  0
VERTEX
  8
0
  5
3E5
 10
-5.01217
 20
18.9900
 30
0.000000
  70
    32
  0
VERTEX
  8
0
  5
3E6
 10
-4.83224
 20
19.1381
 30
0.000000
  70
    32
  0
VERTEX
  8
0
  5
3E7
 10
-4.65343
 20
19.2865
 30
0.000000
  70
    32
  0
VERTEX
  8
0
  5
3E8
 10
-4.47585
 20
19.4353
 30
0.000000
  70
    32
  0
VERTEX
  8
0
  5
3E9
 10
-4.29961
 20
19.5845
 30
0.000000
  70
    32
  0
VERTEX
  8
0
  5
3EA
 10
-4.12482
 20
19.7342
 30
0.000000
  70
    32
  0
VERTEX
  8
0
  5
3EB
 10
-3.95159
 20
19.8845
 30
0.000000
  70
    32
  0
VERTEX
  8
0
  5
3EC
 10
-3.78002
 20
20.0352
 30
0.000000
  70
    32
  0
VERTEX
  8
0
  5
3ED
 10
-3.61025
 20
20.1866
 30
0.000000
  70
    32
  0
VERTEX
  8
0
  5
3EE
 10
-3.44236
 20
20.3385
 30
0.000000
  70
    32
  0
VERTEX
  8
0
  5
3EF
 10
-3.27649
 20
20.4911
 30
0.000000
  70
    32
  0
VERTEX
  8
0
  5
3F0
 10
-3.11275
 20
20.6444
 30
0.000000
  70
    32
  0
VERTEX
  8
0
  5
3F1
 10
-2.95125
 20
20.7984
 30
0.000000
  70
    32
  0
VERTEX
  8
0
  5
3F2
 10
-2.79211
 20
20.9532
 30
0.000000
  70
    32
  0
VERTEX
  8
0
  5
3F3
 10
-2.63545
 20
21.1088
 30
0.000000
  70
    32
  0
VERTEX
  8
0
  5
3F4
 10
-2.48138
 20
21.2652
 30
0.000000
  70
    32
  0
VERTEX
  8
0
  5
3F5
 10
-2.33003
 20
21.4225
 30
0.000000
  70
    32
  0
VERTEX
  8
0
  5
3F6
 10
-2.18151
 20
21.5807
 30
0.000000
  70
    32
  0
VERTEX
  8
0
  5
3F7
 10
-2.03596
 20
21.7399
 30
0.000000
  70
    32
  0
VERTEX
  8
0
  5
3F8
 10
-1.89348
 20
21.9001
 30
0.000000
  70
    32
  0
VERTEX
  8
0
  5
3F9
 10
-1.75421
 20
22.0613
 30
0.000000
  70
    32
  0
VERTEX
  8
0
  5
3FA
 10
-1.61826
 20
22.2235
 30
0.000000
  70
    32
  0
VERTEX
  8
0
  5
3FB
 10
-1.48576
 20
22.3869
 30
0.000000
  70
    32
  0
VERTEX
  8
0
  5
3FC
 10
-1.35684
 20
22.5515
 30
0.000000
  70
    32
  0
VERTEX
  8
0
  5
3FD
 10
-1.23163
 20
22.7172
 30
0.000000
  70
    32
  0
VERTEX
  8
0
  5
3FE
 10
-1.11024
 20
22.8842
 30
0.000000
  70
    32
  0
VERTEX
  8
0
  5
3FF
 10
-0.992819
 20
23.0525
 30
0.000000
  70
    32
  0
VERTEX
  8
0
  5
400
 10
-0.879483
 20
23.2220
 30
0.000000
  70
    32
  0
VERTEX
  8
0
  5
401
 10
-0.770365
 20
23.3930
 30
0.000000
  70
    32
  0
VERTEX
  8
0
  5
402
 10
-0.665596
 20
23.5653
 30
0.000000
  70
    32
  0
VERTEX
  8
0
  5
403
 10
-0.565308
 20
23.7392
 30
0.000000
  70
    32
  0
VERTEX
  8
0
  5
404
 10
-0.469633
 20
23.9144
 30
0.000000
  70
    32
  0
VERTEX
  8
0
  5
405
 10
-0.378706
 20
24.0913
 30
0.000000
  70
    32
  0
VERTEX
  8
0
  5
406
 10
-0.292659
 20
24.2697
 30
0.000000
  70
    32
  0
VERTEX
  8
0
  5
407
 10
-0.211629
 20
24.4497
 30
0.000000
  70
    32
  0
VERTEX
  8
0
  5
408
 10
-0.135751
 20
24.6314
 30
0.000000
  70
    32
  0
VERTEX
  8
0
  5
409
 10
-0.0651618
 20
24.8148
 30
0.000000
  70
    32
  0
VERTEX
  8
0
  5
40A
 10
-1.19190e-010
 20
25.0000
 30
0.000000
  70
    32
  0
SEQEND
  8
0
  5
40B
  0
POLYLINE
  8
0
  5
40C
  66
     1
 10
0.000000
 20
0.000000
 30
0.000000
  70
     8
  0
VERTEX
  8
0
  5
40D
 10
-2.50000
 20
-5.00000
 30
0.000000
  70
    32
  0
VERTEX
  8
0
  5
40E
 10
-2.44052
 20
-4.87574
 30
0.000000
  70
    32
  0
VERTEX
  8
0
  5
40F
 10
-2.38198
 20
-4.75211
 30
0.000000
  70
    32
  0
VERTEX
  8
0
  5
410
 10
-2.32436
 20
-4.62910
 30
0.000000
  70
    32
  0
VERTEX
  8
0
  5
411
 10
-2.26767
 20
-4.50672
 30
0.000000
  70
    32
  0
VERTEX
  8
0
  5
412
 10
-2.21191
 20
-4.38498
 30
0.000000
  70
    32
  0
VERTEX
  8
0
  5
413
 10
-2.15709
 20
-4.26386
 30
0.000000
  70
    32
  0
VERTEX
  8
0
  5
414
 10
-2.10319
 20
-4.14336
 30
0.000000
  70
    32
  0
VERTEX
  8
0
  5
415
 10
-2.05022
 20
-4.02350
 30
0.000000
  70
    32
  0
VERTEX
  8
0
  5
416
 10
-1.99818
 20
-3.90426
 30
0.000000
  70
    32
  0
VERTEX
  8
0
  5
417
 10
-1.94707
 20
-3.78566
 30
0.000000
  70
    32
  0
VERTEX
  8
0
  5
418
 10
-1.89688
 20
-3.66768
 30
0.000000
  70
    32
  0
VERTEX
  8
0
  5
419
 10
-1.84763
 20
-3.55033
 30
0.000000
  70
    32
  0
VERTEX
  8
0
  5
41A
 10
-1.79931
 20
-3.43360
 30
0.000000
  70
    32
  0
VERTEX
  8
0
  5
41B
 10
-1.75192
 20
-3.31751
 30
0.000000
  70
    32
  0
VERTEX
  8
0
  5
41C
 10
-1.70545
 20
-3.20204
 30
0.000000
  70
    32
  0
VERTEX
  8
0
  5
41D
 10
-1.65992
 20
-3.08720
 30
0.000000
  70
    32
  0
VERTEX
  8
0
  5
41E
 10
-1.61532
 20
-2.97299
 30
0.000000
  70
    32
  0
VERTEX
  8
0
  5
41F
 10
-1.57164
 20
-2.85941
 30
0.000000
  70
    32
  0
VERTEX
  8
0
  5
420
 10
-1.52890
 20
-2.74646
 30
0.000000
  70
    32
  0
VERTEX
  8
0
  5
421
 10
-1.48708
 20
-2.63413
 30
0.000000
  70
    32
  0
VERTEX
  8
0
  5
422
 10
-1.44620
 20
-2.52243
 30
0.000000
  70
    32
  0
VERTEX
  8
0
  5
423
 10
-1.40624
 20
-2.41136
 30
0.000000
  70
    32
  0
VERTEX
  8
0
  5
424
 10
-1.36721
 20
-2.30092
 30
0.000000
  70
    32
  0
VERTEX
  8
0
  5
425
 10
-1.32911
 20
-2.19111
 30
0.000000
  70
    32
  0
VERTEX
  8
0
  5
426
 10
-1.29195
 20
-2.08192
 30
0.000000
  70
    32
  0
VERTEX
  8
0
  5
427
 10
-1.25571
 20
-1.97337
 30
0.000000
  70
    32
  0
VERTEX
  8
0
  5
428
 10
-1.22040
 20
-1.86544
 30
0.000000
  70
    32
  0
VERTEX
  8
0
  5
429
 10
-1.18602
 20
-1.75814
 30
0.000000
  70
    32
  0
VERTEX
  8
0
  5
42A
 10
-1.15257
 20
-1.65147
 30
0.000000
  70
    32
  0
VERTEX
  8
0
  5
42B
 10
-1.12005
 20
-1.54542
 30
0.000000
  70
    32
  0
VERTEX
  8
0
  5
42C
 10
-1.08846
 20
-1.44001
 30
0.000000
  70
    32
  0
VERTEX
  8
0
  5
42D
 10
-1.05780
 20
-1.33522
 30
0.000000
  70
    32
  0
VERTEX
  8
0
  5
42E
 10
-1.02806
 20
-1.23106
 30
0.000000
  70
    32
  0
VERTEX
  8
0
  5
42F
 10
-0.999261
 20
-1.12753
 30
0.000000
  70
    32
  0
VERTEX
  8
0
  5
430
 10
-0.971388
 20
-1.02462
 30
0.000000
  70
    32
  0
VERTEX
  8
0
  5
431
 10
-0.944444
 20
-0.922349
 30
0.000000
  70
    32
  0
VERTEX
  8
0
  5
432
 10
-0.918430
 20
-0.820702
 30
0.000000
  70
    32
  0
VERTEX
  8
0
  5
433
 10
-0.893345
 20
-0.719684
 30
0.000000
  70
    32
  0
VERTEX
  8
0
  5
434
 10
-0.869190
 20
-0.619293
 30
0.000000
  70
    32
  0
VERTEX
  8
0
  5
435
 10
-0.845965
 20
-0.519531
 30
0.000000
  70
    32
  0
VERTEX
  8
0
  5
436
 10
-0.823669
 20
-0.420397
 30
0.000000
  70
    32
  0
VERTEX
  8
0
  5
437
 10
-0.802302
 20
-0.321891
 30
0.000000
  70
    32
  0
VERTEX
  8
0
  5
438
 10
-0.781865
 20
-0.224013
 30
0.000000
  70
    32
  0
VERTEX
  8
0
  5
439
 10
-0.762358
 20
-0.126764
 30
0.000000
  70
    32
  0
VERTEX
  8
0
  5
43A
 10
-0.743780
 20
-0.0301423
 30
0.000000
  70
    32
  0
VERTEX
  8
0
  5
43B
 10
-0.726131
 20
0.0658509
 30
0.000000
  70
    32
  0
VERTEX
  8
0
  5
43C
 10
-0.709412
 20
0.161216
 30
0.000000
  70
    32
  0
VERTEX
  8
0
  5
43D
 10
-0.693623
 20
0.255953
 30
0.000000
  70
    32
  0
VERTEX
  8
0
  5
43E
 10
-0.678763
 20
0.350061
 30
0.000000
  70
    32
  0
VERTEX
  8
0
  5
43F
 10
-0.664833
 20
0.443542
 30
0.000000
  70
    32
  0
VERTEX
  8
0
  5
440
 10
-0.651832
 20
0.536394
 30
0.000000
  70
    32
  0
VERTEX
  8
0
  5
441
 10
-0.639760
 20
0.628618
 30
0.000000
  70
    32
  0
VERTEX
  8
0
  5
442
 10
-0.628618
 20
0.720214
 30
0.000000
  70
    32
  0
VERTEX
  8
0
  5
443
 10
-0.618406
 20
0.811182
 30
0.000000
  70
    32
  0
VERTEX
  8
0
  5
444
 10
-0.609123
 20
0.901522
 30
0.000000
  70
    32
  0
VERTEX
  8
0
  5
445
 10
-0.600769
 20
0.991233
 30
0.000000
  70
    32
  0
VERTEX
  8
0
  5
446
 10
-0.593345
 20
1.08032
 30
0.000000
  70
    32
  0
VERTEX
  8
0
  5
447
 10
-0.586851
 20
1.16877
 30
0.000000
  70
    32
  0
VERTEX
  8
0
  5
448
 10
-0.581286
 20
1.25660
 30
0.000000
  70
    32
  0
VERTEX
  8
0
  5
449
 10
-0.576651
 20
1.34380
 30
0.000000
  70
    32
  0
VERTEX
  8
0
  5
44A
 10
-0.572945
 20
1.43037
 30
0.000000
  70
    32
  0
VERTEX
  8
0
  5
44B
 10
-0.570168
 20
1.51631
 30
0.000000
  70
    32
  0
VERTEX
  8
0
  5
44C
 10
-0.568322
 20
1.60162
 30
0.000000
  70
    32
  0
VERTEX
  8
0
  5
44D
 10
-0.567404
 20
1.68631
 30
0.000000
  70
    32
  0
VERTEX
  8
0
  5
44E
 10
-0.567416
 20
1.77037
 30
0.000000
  70
    32
  0
VERTEX
  8
0
  5
44F
 10
-0.568358
 20
1.85380
 30
0.000000
  70
    32
  0
VERTEX
  8
0
  5
450
 10
-0.570229
 20
1.93660
 30
0.000000
  70
    32
  0
VERTEX
  8
0
  5
451
 10
-0.573030
 20
2.01877
 30
0.000000
  70
    32
  0
VERTEX
  8
0
  5
452
 10
-0.576760
 20
2.10032
 30
0.000000
  70
    32
  0
VERTEX
  8
0
  5
453
 10
-0.581419
 20
2.18123
 30
0.000000
  70
    32
  0
VERTEX
  8
0
  5
454
 10
-0.587009
 20
2.26152
 30
0.000000
  70
    32
  0
VERTEX
  8
0
  5
455
 10
-0.593527
 20
2.34118
 30
0.000000
  70
    32
  0
VERTEX
  8
0
  5
456
 10
-0.600975
 20
2.42022
 30
0.000000
  70
    32
  0
VERTEX
  8
0
  5
457
 10
-0.609353
 20
2.49862
 30
0.000000
  70
    32
  0
VERTEX
  8
0
  5
458
 10
-0.618660
 20
2.57640
 30
0.000000
  70
    32
  0
VERTEX
  8
0
  5
459
 10
-0.628897
 20
2.65354
 30
0.000000
  70
    32
  0
VERTEX
  8
0
  5
45A
 10
-0.640063
 20
2.73006
 30
0.000000
  70
    32
  0
VERTEX
  8
0
  5
45B
 10
-0.652159
 20
2.80596
 30
0.000000
  70
    32
  0
VERTEX
  8
0
  5
45C
 10
-0.665184
 20
2.88122
 30
0.000000
  70
    32
  0
VERTEX
  8
0
  5
45D
 10
-0.679139
 20
2.95585
 30
0.000000
  70
    32
  0
VERTEX
  8
0
  5
45E
 10
-0.694023
 20
3.02986
 30
0.000000
  70
    32
  0
VERTEX
  8
0
  5
45F
 10
-0.709837
 20
3.10324
 30
0.000000
  70
    32
  0
VERTEX
  8
0
  5
460
 10
-0.726580
 20
3.17599
 30
0.000000
  70
    32
  0
VERTEX
  8
0
  5
461
 10
-0.744253
 20
3.24811
 30
0.000000
  70
    32
  0
VERTEX
  8
0
  5
462
 10
-0.762855
 20
3.31961
 30
0.000000
  70
    32
  0
VERTEX
  8
0
  5
463
 10
-0.782387
 20
3.39047
 30
0.000000
  70
    32
  0
VERTEX
  8
0
  5
464
 10
-0.802848
 20
3.46071
 30
0.000000
  70
    32
  0
VERTEX
  8
0
  5
465
 10
-0.824239
 20
3.53032
 30
0.000000
  70
    32
  0
VERTEX
  8
0
  5
466
 10
-0.846559
 20
3.59930
 30
0.000000
  70
    32
  0
VERTEX
  8
0
  5
467
 10
-0.869809
 20
3.66766
 30
0.000000
  70
    32
  0
VERTEX
  8
0
  5
468
 10
-0.893988
 20
3.73538
 30
0.000000
  70
    32
  0
VERTEX
  8
0
  5
469
 10
-0.919097
 20
3.80248
 30
0.000000
  70
    32
  0
VERTEX
  8
0
  5
46A
 10
-0.945135
 20
3.86895
 30
0.000000
  70
    32
  0
VERTEX
  8
0
  5
46B
 10
-0.972103
 20
3.93479
 30
0.000000
  70
    32
  0
VERTEX
  8
0
  5
46C
 10
-1.00000
 20
4.00000
 30
0.000000
  70
    32
  0
SEQEND
  8
0
  5
46D
  0
ENDSEC
  0
EOF
