  0
SECTION
  2
HEADER
  9
$ACADVER
  1
AC1009
  9
$INSBASE
 10
0.0
 20
0.0
 30
0.0
  9
$EXTMIN
 10
0.0
 20
0.0
 30
0.0
  9
$EXTMAX
 10
39.240460024238338
 20
36.773972654541907
 30
0.0
  9
$LIMMIN
 10
0.0
 20
0.0
  9
$LIMMAX
 10
39.240460024238338
 20
36.773972654541907
  9
$ORTHOMODE
 70
     0
  9
$REGENMODE
 70
     1
  9
$FILLMODE
 70
     1
  9
$QTEXTMODE
 70
     0
  9
$MIRRTEXT
 70
     0
  9
$DRAGMODE
 70
     2
  9
$LTSCALE
 40
1.0
  9
$OSMODE
 70
     0
  9
$ATTMODE
 70
     1
  9
$TEXTSIZE
 40
0.2
  9
$TRACEWID
 40
0.05
  9
$TEXTSTYLE
  7
STANDARD
  9
$CLAYER
  8
0
  9
$CELTYPE
  6
BYLAYER
  9
$CECOLOR
 62
   256
  9
$DIMSCALE
 40
1.0
  9
$DIMASZ
 40
1.7999999999999989
  9
$DIMEXO
 40
0.0625
  9
$DIMDLI
 40
0.38
  9
$DIMRND
 40
0.0
  9
$DIMDLE
 40
0.0
  9
$DIMEXE
 40
0.18
  9
$DIMTP
 40
0.0
  9
$DIMTM
 40
0.0
  9
$DIMTXT
 40
1.7999999999999989
  9
$DIMCEN
 40
0.09
  9
$DIMTSZ
 40
0.0
  9
$DIMTOL
 70
     0
  9
$DIMLIM
 70
     0
  9
$DIMTIH
 70
     1
  9
$DIMTOH
 70
     1
  9
$DIMSE1
 70
     0
  9
$DIMSE2
 70
     0
  9
$DIMTAD
 70
     0
  9
$DIMZIN
 70
     0
  9
$DIMBLK
  1

  9
$DIMASO
 70
     1
  9
$DIMSHO
 70
     1
  9
$DIMPOST
  1

  9
$DIMAPOST
  1

  9
$DIMALT
 70
     0
  9
$DIMALTD
 70
     2
  9
$DIMALTF
 40
25.399999999999999
  9
$DIMLFAC
 40
1.0
  9
$DIMTOFL
 70
     0
  9
$DIMTVP
 40
0.0
  9
$DIMTIX
 70
     0
  9
$DIMSOXD
 70
     0
  9
$DIMSAH
 70
     0
  9
$DIMBLK1
  1

  9
$DIMBLK2
  1

  9
$DIMSTYLE
  2
STANDARD
  9
$DIMCLRD
 70
     0
  9
$DIMCLRE
 70
     0
  9
$DIMCLRT
 70
     0
  9
$DIMTFAC
 40
1.0
  9
$DIMGAP
 40
0.09
  9
$LUNITS
 70
     2
  9
$LUPREC
 70
     4
  9
$SKETCHINC
 40
0.1
  9
$FILLETRAD
 40
0.0
  9
$AUNITS
 70
     0
  9
$AUPREC
 70
     0
  9
$MENU
  1
.
  9
$ELEVATION
 40
0.0
  9
$PELEVATION
 40
0.0
  9
$THICKNESS
 40
0.0
  9
$LIMCHECK
 70
     0
  9
$BLIPMODE
 70
     0
  9
$CHAMFERA
 40
0.0
  9
$CHAMFERB
 40
0.0
  9
$SKPOLY
 70
     0
  9
$TDCREATE
 40
2457725.4237687159
  9
$TDUPDATE
 40
2457725.4237687159
  9
$TDINDWG
 40
0.0000098032
  9
$TDUSRTIMER
 40
0.0000098032
  9
$USRTIMER
 70
     1
  9
$ANGBASE
 50
0.0
  9
$ANGDIR
 70
     0
  9
$PDMODE
 70
     0
  9
$PDSIZE
 40
0.0
  9
$PLINEWID
 40
0.0
  9
$COORDS
 70
     0
  9
$SPLFRAME
 70
     0
  9
$SPLINETYPE
 70
     6
  9
$SPLINESEGS
 70
     8
  9
$ATTDIA
 70
     1
  9
$ATTREQ
 70
     1
  9
$HANDLING
 70
     1
  9
$HANDSEED
  5
35E
  9
$SURFTAB1
 70
     6
  9
$SURFTAB2
 70
     6
  9
$SURFTYPE
 70
     6
  9
$SURFU
 70
     6
  9
$SURFV
 70
     6
  9
$UCSNAME
  2

  9
$UCSORG
 10
0.0
 20
0.0
 30
0.0
  9
$UCSXDIR
 10
1.0
 20
0.0
 30
0.0
  9
$UCSYDIR
 10
0.0
 20
1.0
 30
0.0
  9
$PUCSNAME
  2

  9
$PUCSORG
 10
0.0
 20
0.0
 30
0.0
  9
$PUCSXDIR
 10
1.0
 20
0.0
 30
0.0
  9
$PUCSYDIR
 10
0.0
 20
1.0
 30
0.0
  9
$USERI1
 70
     0
  9
$USERI2
 70
     0
  9
$USERI3
 70
     0
  9
$USERI4
 70
     0
  9
$USERI5
 70
     0
  9
$USERR1
 40
0.0
  9
$USERR2
 40
0.0
  9
$USERR3
 40
0.0
  9
$USERR4
 40
0.0
  9
$USERR5
 40
0.0
  9
$WORLDVIEW
 70
     1
  9
$SHADEDGE
 70
     3
  9
$SHADEDIF
 70
    70
  9
$TILEMODE
 70
     1
  9
$MAXACTVP
 70
    64
  9
$PLIMCHECK
 70
     0
  9
$PEXTMIN
 10
0.0
 20
0.0
 30
0.0
  9
$PEXTMAX
 10
39.240460024238338
 20
36.773972654541907
 30
0.0
  9
$PLIMMIN
 10
0.0
 20
0.0
  9
$PLIMMAX
 10
39.240460024238338
 20
36.773972654541907
  9
$UNITMODE
 70
     0
  9
$VISRETAIN
 70
     1
  9
$PLINEGEN
 70
     0
  9
$PSLTSCALE
 70
     1
  0
ENDSEC
  0
SECTION
  2
TABLES
  0
TABLE
  2
VPORT
 70
     1
  0
VPORT
  2
*ACTIVE
 70
     0
 10
0.0
 20
0.0
 11
1.0
 21
1.0
 12
0.0
 22
8.4687199248224907
 13
0.0
 23
0.0
 14
1.0
 24
1.0
 15
0.0
 25
0.0
 16
0.0
 26
0.0
 36
1.0
 17
0.0
 27
0.0
 37
0.0
 40
36.773972654541907
 41
1.067071550655319
 42
50.0
 43
0.0
 44
0.0
 50
0.0
 51
0.0
 71
     0
 72
   100
 73
     1
 74
     1
 75
     0
 76
     0
 77
     0
 78
     0
  0
ENDTAB
  0
TABLE
  2
LTYPE
 70
    59
  0
LTYPE
  2
CONTINUOUS
 70
     0
  3
Solid line
 72
    65
 73
     0
 40
0.0
  0
LTYPE
  2
BY_STANDARD
 70
     0
  3
By Standard ____________    ____    ____   _
 72
    65
 73
     6
 40
1.2402999999999991
 49
0.6614
 49
-0.0827
 49
0.1654
 49
-0.0827
 49
0.1654
 49
-0.0827
  0
LTYPE
  2
CHAIN
 70
     0
  3
Chain ____ _ ____ _ ____ _ ____ _ ____ _ ____
 72
    65
 73
     4
 40
0.7087
 49
0.4724000000000001
 49
-0.0591
 49
0.1181
 49
-0.0591
  0
LTYPE
  2
DASH_DOT
 70
     0
  3
Dash dot __ . __ . __ . __ . __ . __ . __ . __
 72
    65
 73
     4
 40
0.37
 49
0.24
 49
-0.06
 49
0.01
 49
-0.06
  0
LTYPE
  2
DOUBLE_DASH_DOT
 70
     0
  3
Double-Dash Dot __ __ . __ __ . __ __ . __ _
 72
    65
 73
     6
 40
0.4398
 49
0.24
 49
-0.06
 49
0.0098
 49
-0.06
 49
0.01
 49
-0.06
  0
LTYPE
  2
DASH_TRIPLE_DOT
 70
     0
  3
Dash Triple-Dot _ . . . _ . . . _ . . . _
 72
    65
 73
     8
 40
0.51
 49
0.24
 49
-0.06
 49
0.01
 49
-0.06
 49
0.01
 49
-0.06
 49
0.01
 49
-0.06
  0
LTYPE
  2
DASHED
 70
     0
  3
Dashed __ __ __ __ __ __ __ __ __ __ __ __ __ _
 72
    65
 73
     2
 40
0.2067
 49
0.1654
 49
-0.0413
  0
LTYPE
  2
DASH_DOUBLE_DOT
 70
     0
  3
Dash Double-Dot __ . . __ . . __ . . __ . .
 72
    65
 73
     6
 40
0.4398
 49
0.24
 49
-0.06
 49
0.0098
 49
-0.06
 49
0.01
 49
-0.06
  0
LTYPE
  2
DASHED_SPACE
 70
     0
  3
Dashed Space __ __ __ __ __ __ __ __ __ __ __ _
 72
    65
 73
     2
 40
0.2067
 49
0.1654
 49
-0.0413
  0
LTYPE
  2
DOTTED
 70
     0
  3
Dotted . . . . . . . . . . . . . . . . . . . . 
 72
    65
 73
     2
 40
0.0482
 49
0.0069
 49
-0.0413
  0
LTYPE
  2
DOUBLE_DASH_CHAIN
 70
     0
  3
Double-Dash Chain ______  __  __  ______  __  _
 72
    65
 73
     6
 40
1.2402999999999991
 49
0.6614
 49
-0.0827
 49
0.1654
 49
-0.0827
 49
0.1654
 49
-0.0827
  0
LTYPE
  2
DOUBLE_DASH_DOUBLE_DOT
 70
     0
  3
Double-Dash Double-dot _ _ . . _ _ . . _
 72
    65
 73
     8
 40
0.7400000000000001
 49
0.24
 49
-0.06
 49
0.24
 49
-0.06
 49
0.01
 49
-0.06
 49
0.01
 49
-0.06
  0
LTYPE
  2
DOUBLE_DASH_TRIPLE_DOT
 70
     0
  3
Double Dash Triple Dot __ __ . . . __ __ . .
 72
    65
 73
    10
 40
0.8100000000000001
 49
0.24
 49
-0.06
 49
0.24
 49
-0.06
 49
0.01
 49
-0.06
 49
0.01
 49
-0.06
 49
0.01
 49
-0.06
  0
LTYPE
  2
LONG_DASH_DOTTED
 70
     0
  3
Long Dash Dotted ____ . ____ . ____ . ____ . _
 72
    65
 73
     4
 40
0.3543
 49
0.2362
 49
-0.0295
 49
0.0591
 49
-0.0295
  0
LTYPE
  2
LONG_DASH_DOUBLE_DOT
 70
     0
  3
Long Dash Double Dot ________  .  .  ________  
 72
    65
 73
     6
 40
0.6799999999999999
 49
0.48
 49
-0.06
 49
0.01
 49
-0.06
 49
0.01
 49
-0.06
  0
LTYPE
  2
LONG_DASH_TRIPLE_DOT
 70
     0
  3
Long Dash Triple Dot ____ ... ____ ... ____
 72
    65
 73
     8
 40
0.3689
 49
0.2362
 49
-0.0295
 49
0.0049
 49
-0.0295
 49
0.0049
 49
-0.0295
 49
0.0049
 49
-0.0295
  0
LTYPE
  2
BORDER
 70
     0
  3
Border __ __ . __ __ . __ __ . __ __ . __ __ .
 72
    65
 73
     6
 40
1.75
 49
0.5
 49
-0.25
 49
0.5
 49
-0.25
 49
0.0
 49
-0.25
  0
LTYPE
  2
BORDER2
 70
     0
  3
Border (.5x) __.__.__.__.__.__.__.__.__.__.__.
 72
    65
 73
     6
 40
0.875
 49
0.25
 49
-0.125
 49
0.25
 49
-0.125
 49
0.0
 49
-0.125
  0
LTYPE
  2
BORDERX2
 70
     0
  3
Border (2x) ____  ____  .  ____  ____  .  ___
 72
    65
 73
     6
 40
3.5
 49
1.0
 49
-0.5
 49
1.0
 49
-0.5
 49
0.0
 49
-0.5
  0
LTYPE
  2
CENTER
 70
     0
  3
Center ____ _ ____ _ ____ _ ____ _ ____ _ ____
 72
    65
 73
     4
 40
2.0
 49
1.25
 49
-0.25
 49
0.25
 49
-0.25
  0
LTYPE
  2
CENTER2
 70
     0
  3
Center (.5x) ___ _ ___ _ ___ _ ___ _ ___ _ ___
 72
    65
 73
     4
 40
1.125
 49
0.75
 49
-0.125
 49
0.125
 49
-0.125
  0
LTYPE
  2
CENTERX2
 70
     0
  3
Center (2x) ________  __  ________  __  _____
 72
    65
 73
     4
 40
4.0
 49
2.5
 49
-0.5
 49
0.5
 49
-0.5
  0
LTYPE
  2
DASHDOT2
 70
     0
  3
Dash dot (.5x) _._._._._._._._._._._._._._._.
 72
    65
 73
     4
 40
0.5
 49
0.25
 49
-0.125
 49
0.0
 49
-0.125
  0
LTYPE
  2
DASHDOTX2
 70
     0
  3
Dash dot (2x) ____  .  ____  .  ____  .  ___
 72
    65
 73
     4
 40
2.0
 49
1.0
 49
-0.5
 49
0.0
 49
-0.5
  0
LTYPE
  2
DASHED2
 70
     0
  3
Dashed (.5x) _ _ _ _ _ _ _ _ _ _ _ _ _ _ _ _ _
 72
    65
 73
     2
 40
0.375
 49
0.25
 49
-0.125
  0
LTYPE
  2
DASHEDX2
 70
     0
  3
Dashed (2x) ____  ____  ____  ____  ____  ___
 72
    65
 73
     2
 40
1.5
 49
1.0
 49
-0.5
  0
LTYPE
  2
DIVIDE
 70
     0
  3
Divide ____ . . ____ . . ____ . . ____ . . ____
 72
    65
 73
     6
 40
1.25
 49
0.5
 49
-0.25
 49
0.0
 49
-0.25
 49
0.0
 49
-0.25
  0
LTYPE
  2
DIVIDE2
 70
     0
  3
Divide (.5x) __..__..__..__..__..__..__..__.._
 72
    65
 73
     6
 40
0.625
 49
0.25
 49
-0.125
 49
0.0
 49
-0.125
 49
0.0
 49
-0.125
  0
LTYPE
  2
DIVIDEX2
 70
     0
  3
Divide (2x) ________  .  .  ________  .  .  _
 72
    65
 73
     6
 40
2.5
 49
1.0
 49
-0.5
 49
0.0
 49
-0.5
 49
0.0
 49
-0.5
  0
LTYPE
  2
DOT
 70
     0
  3
Dot . . . . . . . . . . . . . . . . . . . . . .
 72
    65
 73
     2
 40
0.25
 49
0.0
 49
-0.25
  0
LTYPE
  2
DOT2
 70
     0
  3
Dot (.5x) .....................................
 72
    65
 73
     2
 40
0.125
 49
0.0
 49
-0.125
  0
LTYPE
  2
DOTX2
 70
     0
  3
Dot (2x) .  .  .  .  .  .  .  .  .  .  .  .  . 
 72
    65
 73
     2
 40
0.5
 49
0.0
 49
-0.5
  0
LTYPE
  2
HIDDEN
 70
     0
  3
Hidden __ __ __ __ __ __ __ __ __ __ __ __ __ _
 72
    65
 73
     2
 40
0.375
 49
0.25
 49
-0.125
  0
LTYPE
  2
HIDDEN2
 70
     0
  3
Hidden (.5x) _ _ _ _ _ _ _ _ _ _ _ _ _ _ _ _ _
 72
    65
 73
     2
 40
0.1875
 49
0.125
 49
-0.0625
  0
LTYPE
  2
HIDDENX2
 70
     0
  3
Hidden (2x) ____ ____ ____ ____ ____ ____ ____
 72
    65
 73
     2
 40
0.75
 49
0.5
 49
-0.25
  0
LTYPE
  2
PHANTOM
 70
     0
  3
Phantom ______  __  __  ______  __  __  ______
 72
    65
 73
     6
 40
2.5
 49
1.25
 49
-0.25
 49
0.25
 49
-0.25
 49
0.25
 49
-0.25
  0
LTYPE
  2
PHANTOM2
 70
     0
  3
Phantom (.5x) ___ _ _ ___ _ _ ___ _ _ ___ _ _
 72
    65
 73
     6
 40
1.25
 49
0.625
 49
-0.125
 49
0.125
 49
-0.125
 49
0.125
 49
-0.125
  0
LTYPE
  2
PHANTOMX2
 70
     0
  3
Phantom (2x) ____________    ____    ____   _
 72
    65
 73
     6
 40
5.0
 49
2.5
 49
-0.5
 49
0.5
 49
-0.5
 49
0.5
 49
-0.5
  0
LTYPE
  2
ACAD_ISO02W100
 70
     0
  3
ISO dash __ __ __ __ __ __ __ __ __ __ __ __ __
 72
    65
 73
     2
 40
0.59
 49
0.47
 49
-0.12
  0
LTYPE
  2
ACAD_ISO03W100
 70
     0
  3
ISO dash space __    __    __    __    __    __
 72
    65
 73
     2
 40
1.179999999999999
 49
0.47
 49
-0.71
  0
LTYPE
  2
ACAD_ISO04W100
 70
     0
  3
ISO long-dash dot ____ . ____ . ____ . ____ . _
 72
    65
 73
     4
 40
1.179999999999999
 49
0.9399999999999998
 49
-0.12
 49
0.0
 49
-0.12
  0
LTYPE
  2
ACAD_ISO05W100
 70
     0
  3
ISO long-dash double-dot ____ .. ____ .. ____ .
 72
    65
 73
     6
 40
1.2999999999999989
 49
0.9399999999999998
 49
-0.12
 49
0.0
 49
-0.12
 49
0.0
 49
-0.12
  0
LTYPE
  2
ACAD_ISO06W100
 70
     0
  3
ISO long-dash triple-dot ____ ... ____ ... ____
 72
    65
 73
     8
 40
1.419999999999999
 49
0.9399999999999998
 49
-0.12
 49
0.0
 49
-0.12
 49
0.0
 49
-0.12
 49
0.0
 49
-0.12
  0
LTYPE
  2
ACAD_ISO07W100
 70
     0
  3
ISO dot . . . . . . . . . . . . . . . . . . . .
 72
    65
 73
     2
 40
0.12
 49
0.0
 49
-0.12
  0
LTYPE
  2
ACAD_ISO08W100
 70
     0
  3
ISO long-dash short-dash ____ __ ____ __ ____ _
 72
    65
 73
     4
 40
0.95
 49
0.47
 49
-0.12
 49
0.24
 49
-0.12
  0
LTYPE
  2
ACAD_ISO09W100
 70
     0
  3
ISO long-dash double-short-dash ____ __ __ ____
 72
    65
 73
     6
 40
1.3100000000000001
 49
0.47
 49
-0.12
 49
0.24
 49
-0.12
 49
0.24
 49
-0.12
  0
LTYPE
  2
ACAD_ISO10W100
 70
     0
  3
ISO dash dot __ . __ . __ . __ . __ . __ . __ .
 72
    65
 73
     4
 40
0.71
 49
0.47
 49
-0.12
 49
0.0
 49
-0.12
  0
LTYPE
  2
ACAD_ISO11W100
 70
     0
  3
ISO double-dash dot __ __ . __ __ . __ __ . __ 
 72
    65
 73
     6
 40
1.2999999999999989
 49
0.47
 49
-0.12
 49
0.47
 49
-0.12
 49
0.0
 49
-0.12
  0
LTYPE
  2
ACAD_ISO12W100
 70
     0
  3
ISO dash double-dot __ . . __ . . __ . . __ . .
 72
    65
 73
     6
 40
0.8299999999999999
 49
0.47
 49
-0.12
 49
0.0
 49
-0.12
 49
0.0
 49
-0.12
  0
LTYPE
  2
ACAD_ISO13W100
 70
     0
  3
ISO double-dash double-dot __ __ . . __ __ . . 
 72
    65
 73
     8
 40
1.419999999999999
 49
0.47
 49
-0.12
 49
0.47
 49
-0.12
 49
0.0
 49
-0.12
 49
0.0
 49
-0.12
  0
LTYPE
  2
ACAD_ISO14W100
 70
     0
  3
ISO dash triple-dot __ . . . __ . . . __ . . . 
 72
    65
 73
     8
 40
0.95
 49
0.47
 49
-0.12
 49
0.0
 49
-0.12
 49
0.0
 49
-0.12
 49
0.0
 49
-0.12
  0
LTYPE
  2
ACAD_ISO15W100
 70
     0
  3
ISO double-dash triple-dot __ __ . . . __ __ . 
 72
    65
 73
    10
 40
1.5399999999999989
 49
0.47
 49
-0.12
 49
0.47
 49
-0.12
 49
0.0
 49
-0.12
 49
0.0
 49
-0.12
 49
0.0
 49
-0.12
  0
LTYPE
  2
FENCELINE1
 70
     0
  3
Fenceline circle ----0-----0----0-----0----0---
 72
    65
 73
     4
 40
1.45
 49
0.25
 49
-0.1
 49
-0.1
 49
1.0
  0
LTYPE
  2
FENCELINE2
 70
     0
  3
Fenceline square ----[]-----[]----[]-----[]----
 72
    65
 73
     4
 40
1.45
 49
0.25
 49
-0.1
 49
-0.1
 49
1.0
  0
LTYPE
  2
TRACKS
 70
     0
  3
Tracks -|-|-|-|-|-|-|-|-|-|-|-|-|-|-|-|-|-|-|-|
 72
    65
 73
     2
 40
0.3
 49
0.15
 49
0.15
  0
LTYPE
  2
BATTING
 70
     0
  3
Batting SSSSSSSSSSSSSSSSSSSSSSSSSSSSSSSSSSSSSSS
 72
    65
 73
     4
 40
0.4001000000000001
 49
0.0001
 49
-0.1
 49
-0.2
 49
-0.1
  0
LTYPE
  2
HOT_WATER_SUPPLY
 70
     0
  3
Hot water supply ---- HW ---- HW ---- HW ----
 72
    65
 73
     3
 40
0.9
 49
0.5
 49
-0.2
 49
-0.2
  0
LTYPE
  2
GAS_LINE
 70
     0
  3
Gas line ----GAS----GAS----GAS----GAS----GAS---
 72
    65
 73
     3
 40
0.95
 49
0.5
 49
-0.2
 49
-0.25
  0
LTYPE
  2
ZIGZAG
 70
     0
  3
Zig zag /\/\/\/\/\/\/\/\/\/\/\/\/\/\/\/\/\/\/\/
 72
    65
 73
     4
 40
0.8001000000000001
 49
0.0001
 49
-0.2
 49
-0.4
 49
-0.2
  0
ENDTAB
  0
TABLE
  2
LAYER
 70
     1
  0
LAYER
  2
0
 70
     0
 62
     7
  6
CONTINUOUS
  0
ENDTAB
  0
TABLE
  2
STYLE
 70
     3
  0
STYLE
  2
STANDARD
 70
     0
 40
0.0
 41
1.0
 50
0.0
 71
     0
 42
0.2
  3
txt
  4

  0
STYLE
  2
ANNOTATIVE
 70
     0
 40
0.0
 41
1.0
 50
0.0
 71
     0
 42
0.2
  3
txt
  4

  0
STYLE
  2

 70
     1
 40
0.0
 41
1.0
 50
0.0
 71
     0
 42
0.2
  3
ltypeshp.shx
  4

  0
ENDTAB
  0
TABLE
  2
VIEW
 70
     0
  0
ENDTAB
  0
TABLE
  2
UCS
 70
     0
  0
ENDTAB
  0
TABLE
  2
APPID
 70
     3
  0
APPID
  2
ACAD
 70
     0
  0
APPID
  2
ACADANNOTATIVE
 70
     0
  0
APPID
  2
ACAD_MLEADERVER
 70
     0
  0
ENDTAB
  0
TABLE
  2
DIMSTYLE
 70
     2
  0
DIMSTYLE
  2
STANDARD
 70
     0
  3

  4

  5

  6

  7

 40
1.0
 41
0.18
 42
0.0625
 43
0.38
 44
0.18
 45
0.0
 46
0.0
 47
0.0
 48
0.0
140
0.18
141
0.09
142
0.0
143
25.399999999999999
144
1.0
145
0.0
146
1.0
147
0.09
 71
     0
 72
     0
 73
     1
 74
     1
 75
     0
 76
     0
 77
     0
 78
     0
170
     0
171
     2
172
     0
173
     0
174
     0
175
     0
176
     0
177
     0
178
     0
  0
DIMSTYLE
  2
ANNOTATIVE
 70
     0
  3

  4

  5

  6

  7

 40
1.0
 41
0.18
 42
0.0625
 43
0.38
 44
0.18
 45
0.0
 46
0.0
 47
0.0
 48
0.0
140
0.18
141
0.09
142
0.0
143
25.399999999999999
144
1.0
145
0.0
146
1.0
147
0.09
 71
     0
 72
     0
 73
     1
 74
     1
 75
     0
 76
     0
 77
     0
 78
     0
170
     0
171
     2
172
     0
173
     0
174
     0
175
     0
176
     0
177
     0
178
     0
  0
ENDTAB
  0
ENDSEC
  0
SECTION
  2
BLOCKS
  0
BLOCK
  8
0
  2
$MODEL_SPACE
 70
     0
 10
0.0
 20
0.0
 30
0.0
  3
$MODEL_SPACE
  1

  0
ENDBLK
  5
72
  8
0
  0
BLOCK
 67
     1
  8
0
  2
$PAPER_SPACE
 70
     0
 10
0.0
 20
0.0
 30
0.0
  3
$PAPER_SPACE
  1

  0
ENDBLK
  5
6E
 67
     1
  8
0
  0
ENDSEC
  0
SECTION
  2
ENTITIES
  0
LINE
  5
B6
  8
0
 10
-2.5
 20
-7.9999999999999991
 30
0.0
 11
2.5
 21
-7.9999999999999991
 31
0.0
  0
POLYLINE
  8
0
  5
116
  66
     1
 10
0.000000
 20
0.000000
 30
0.000000
  70
     8
  0
VERTEX
  8
0
  5
117
 10
-1.00000
 20
1.00000
 30
0.000000
  70
    32
  0
VERTEX
  8
0
  5
118
 10
-0.972103
 20
0.934788
 30
0.000000
  70
    32
  0
VERTEX
  8
0
  5
119
 10
-0.945135
 20
0.868947
 30
0.000000
  70
    32
  0
VERTEX
  8
0
  5
11A
 10
-0.919097
 20
0.802478
 30
0.000000
  70
    32
  0
VERTEX
  8
0
  5
11B
 10
-0.893988
 20
0.735381
 30
0.000000
  70
    32
  0
VERTEX
  8
0
  5
11C
 10
-0.869809
 20
0.667656
 30
0.000000
  70
    32
  0
VERTEX
  8
0
  5
11D
 10
-0.846559
 20
0.599302
 30
0.000000
  70
    32
  0
VERTEX
  8
0
  5
11E
 10
-0.824239
 20
0.530321
 30
0.000000
  70
    32
  0
VERTEX
  8
0
  5
11F
 10
-0.802848
 20
0.460711
 30
0.000000
  70
    32
  0
VERTEX
  8
0
  5
120
 10
-0.782387
 20
0.390473
 30
0.000000
  70
    32
  0
VERTEX
  8
0
  5
121
 10
-0.762855
 20
0.319607
 30
0.000000
  70
    32
  0
VERTEX
  8
0
  5
122
 10
-0.744253
 20
0.248113
 30
0.000000
  70
    32
  0
VERTEX
  8
0
  5
123
 10
-0.726580
 20
0.175990
 30
0.000000
  70
    32
  0
VERTEX
  8
0
  5
124
 10
-0.709837
 20
0.103240
 30
0.000000
  70
    32
  0
VERTEX
  8
0
  5
125
 10
-0.694023
 20
0.0298609
 30
0.000000
  70
    32
  0
VERTEX
  8
0
  5
126
 10
-0.679139
 20
-0.0441461
 30
0.000000
  70
    32
  0
VERTEX
  8
0
  5
127
 10
-0.665184
 20
-0.118781
 30
0.000000
  70
    32
  0
VERTEX
  8
0
  5
128
 10
-0.652159
 20
-0.194045
 30
0.000000
  70
    32
  0
VERTEX
  8
0
  5
129
 10
-0.640063
 20
-0.269936
 30
0.000000
  70
    32
  0
VERTEX
  8
0
  5
12A
 10
-0.628897
 20
-0.346456
 30
0.000000
  70
    32
  0
VERTEX
  8
0
  5
12B
 10
-0.618660
 20
-0.423604
 30
0.000000
  70
    32
  0
VERTEX
  8
0
  5
12C
 10
-0.609353
 20
-0.501380
 30
0.000000
  70
    32
  0
VERTEX
  8
0
  5
12D
 10
-0.600975
 20
-0.579784
 30
0.000000
  70
    32
  0
VERTEX
  8
0
  5
12E
 10
-0.593527
 20
-0.658816
 30
0.000000
  70
    32
  0
VERTEX
  8
0
  5
12F
 10
-0.587009
 20
-0.738477
 30
0.000000
  70
    32
  0
VERTEX
  8
0
  5
130
 10
-0.581419
 20
-0.818766
 30
0.000000
  70
    32
  0
VERTEX
  8
0
  5
131
 10
-0.576760
 20
-0.899683
 30
0.000000
  70
    32
  0
VERTEX
  8
0
  5
132
 10
-0.573030
 20
-0.981228
 30
0.000000
  70
    32
  0
VERTEX
  8
0
  5
133
 10
-0.570229
 20
-1.06340
 30
0.000000
  70
    32
  0
VERTEX
  8
0
  5
134
 10
-0.568358
 20
-1.14620
 30
0.000000
  70
    32
  0
VERTEX
  8
0
  5
135
 10
-0.567416
 20
-1.22963
 30
0.000000
  70
    32
  0
VERTEX
  8
0
  5
136
 10
-0.567404
 20
-1.31369
 30
0.000000
  70
    32
  0
VERTEX
  8
0
  5
137
 10
-0.568322
 20
-1.39838
 30
0.000000
  70
    32
  0
VERTEX
  8
0
  5
138
 10
-0.570168
 20
-1.48369
 30
0.000000
  70
    32
  0
VERTEX
  8
0
  5
139
 10
-0.572945
 20
-1.56963
 30
0.000000
  70
    32
  0
VERTEX
  8
0
  5
13A
 10
-0.576651
 20
-1.65620
 30
0.000000
  70
    32
  0
VERTEX
  8
0
  5
13B
 10
-0.581286
 20
-1.74340
 30
0.000000
  70
    32
  0
VERTEX
  8
0
  5
13C
 10
-0.586851
 20
-1.83123
 30
0.000000
  70
    32
  0
VERTEX
  8
0
  5
13D
 10
-0.593345
 20
-1.91968
 30
0.000000
  70
    32
  0
VERTEX
  8
0
  5
13E
 10
-0.600769
 20
-2.00877
 30
0.000000
  70
    32
  0
VERTEX
  8
0
  5
13F
 10
-0.609123
 20
-2.09848
 30
0.000000
  70
    32
  0
VERTEX
  8
0
  5
140
 10
-0.618406
 20
-2.18882
 30
0.000000
  70
    32
  0
VERTEX
  8
0
  5
141
 10
-0.628618
 20
-2.27979
 30
0.000000
  70
    32
  0
VERTEX
  8
0
  5
142
 10
-0.639760
 20
-2.37138
 30
0.000000
  70
    32
  0
VERTEX
  8
0
  5
143
 10
-0.651832
 20
-2.46361
 30
0.000000
  70
    32
  0
VERTEX
  8
0
  5
144
 10
-0.664833
 20
-2.55646
 30
0.000000
  70
    32
  0
VERTEX
  8
0
  5
145
 10
-0.678763
 20
-2.64994
 30
0.000000
  70
    32
  0
VERTEX
  8
0
  5
146
 10
-0.693623
 20
-2.74405
 30
0.000000
  70
    32
  0
VERTEX
  8
0
  5
147
 10
-0.709412
 20
-2.83878
 30
0.000000
  70
    32
  0
VERTEX
  8
0
  5
148
 10
-0.726131
 20
-2.93415
 30
0.000000
  70
    32
  0
VERTEX
  8
0
  5
149
 10
-0.743780
 20
-3.03014
 30
0.000000
  70
    32
  0
VERTEX
  8
0
  5
14A
 10
-0.762358
 20
-3.12676
 30
0.000000
  70
    32
  0
VERTEX
  8
0
  5
14B
 10
-0.781865
 20
-3.22401
 30
0.000000
  70
    32
  0
VERTEX
  8
0
  5
14C
 10
-0.802302
 20
-3.32189
 30
0.000000
  70
    32
  0
VERTEX
  8
0
  5
14D
 10
-0.823669
 20
-3.42040
 30
0.000000
  70
    32
  0
VERTEX
  8
0
  5
14E
 10
-0.845965
 20
-3.51953
 30
0.000000
  70
    32
  0
VERTEX
  8
0
  5
14F
 10
-0.869190
 20
-3.61929
 30
0.000000
  70
    32
  0
VERTEX
  8
0
  5
150
 10
-0.893345
 20
-3.71968
 30
0.000000
  70
    32
  0
VERTEX
  8
0
  5
151
 10
-0.918430
 20
-3.82070
 30
0.000000
  70
    32
  0
VERTEX
  8
0
  5
152
 10
-0.944444
 20
-3.92235
 30
0.000000
  70
    32
  0
VERTEX
  8
0
  5
153
 10
-0.971388
 20
-4.02462
 30
0.000000
  70
    32
  0
VERTEX
  8
0
  5
154
 10
-0.999261
 20
-4.12753
 30
0.000000
  70
    32
  0
VERTEX
  8
0
  5
155
 10
-1.02806
 20
-4.23106
 30
0.000000
  70
    32
  0
VERTEX
  8
0
  5
156
 10
-1.05780
 20
-4.33522
 30
0.000000
  70
    32
  0
VERTEX
  8
0
  5
157
 10
-1.08846
 20
-4.44001
 30
0.000000
  70
    32
  0
VERTEX
  8
0
  5
158
 10
-1.12005
 20
-4.54542
 30
0.000000
  70
    32
  0
VERTEX
  8
0
  5
159
 10
-1.15257
 20
-4.65147
 30
0.000000
  70
    32
  0
VERTEX
  8
0
  5
15A
 10
-1.18602
 20
-4.75814
 30
0.000000
  70
    32
  0
VERTEX
  8
0
  5
15B
 10
-1.22040
 20
-4.86544
 30
0.000000
  70
    32
  0
VERTEX
  8
0
  5
15C
 10
-1.25571
 20
-4.97337
 30
0.000000
  70
    32
  0
VERTEX
  8
0
  5
15D
 10
-1.29195
 20
-5.08192
 30
0.000000
  70
    32
  0
VERTEX
  8
0
  5
15E
 10
-1.32911
 20
-5.19111
 30
0.000000
  70
    32
  0
VERTEX
  8
0
  5
15F
 10
-1.36721
 20
-5.30092
 30
0.000000
  70
    32
  0
VERTEX
  8
0
  5
160
 10
-1.40624
 20
-5.41136
 30
0.000000
  70
    32
  0
VERTEX
  8
0
  5
161
 10
-1.44620
 20
-5.52243
 30
0.000000
  70
    32
  0
VERTEX
  8
0
  5
162
 10
-1.48708
 20
-5.63413
 30
0.000000
  70
    32
  0
VERTEX
  8
0
  5
163
 10
-1.52890
 20
-5.74646
 30
0.000000
  70
    32
  0
VERTEX
  8
0
  5
164
 10
-1.57164
 20
-5.85941
 30
0.000000
  70
    32
  0
VERTEX
  8
0
  5
165
 10
-1.61532
 20
-5.97299
 30
0.000000
  70
    32
  0
VERTEX
  8
0
  5
166
 10
-1.65992
 20
-6.08720
 30
0.000000
  70
    32
  0
VERTEX
  8
0
  5
167
 10
-1.70545
 20
-6.20204
 30
0.000000
  70
    32
  0
VERTEX
  8
0
  5
168
 10
-1.75192
 20
-6.31751
 30
0.000000
  70
    32
  0
VERTEX
  8
0
  5
169
 10
-1.79931
 20
-6.43360
 30
0.000000
  70
    32
  0
VERTEX
  8
0
  5
16A
 10
-1.84763
 20
-6.55033
 30
0.000000
  70
    32
  0
VERTEX
  8
0
  5
16B
 10
-1.89688
 20
-6.66768
 30
0.000000
  70
    32
  0
VERTEX
  8
0
  5
16C
 10
-1.94707
 20
-6.78566
 30
0.000000
  70
    32
  0
VERTEX
  8
0
  5
16D
 10
-1.99818
 20
-6.90426
 30
0.000000
  70
    32
  0
VERTEX
  8
0
  5
16E
 10
-2.05022
 20
-7.02350
 30
0.000000
  70
    32
  0
VERTEX
  8
0
  5
16F
 10
-2.10319
 20
-7.14336
 30
0.000000
  70
    32
  0
VERTEX
  8
0
  5
170
 10
-2.15709
 20
-7.26386
 30
0.000000
  70
    32
  0
VERTEX
  8
0
  5
171
 10
-2.21191
 20
-7.38498
 30
0.000000
  70
    32
  0
VERTEX
  8
0
  5
172
 10
-2.26767
 20
-7.50672
 30
0.000000
  70
    32
  0
VERTEX
  8
0
  5
173
 10
-2.32436
 20
-7.62910
 30
0.000000
  70
    32
  0
VERTEX
  8
0
  5
174
 10
-2.38198
 20
-7.75211
 30
0.000000
  70
    32
  0
VERTEX
  8
0
  5
175
 10
-2.44052
 20
-7.87574
 30
0.000000
  70
    32
  0
VERTEX
  8
0
  5
176
 10
-2.50000
 20
-8.00000
 30
0.000000
  70
    32
  0
SEQEND
  8
0
  5
177
  0
POLYLINE
  8
0
  5
178
  66
     1
 10
0.000000
 20
0.000000
 30
0.000000
  70
     8
  0
VERTEX
  8
0
  5
179
 10
1.00000
 20
1.00000
 30
0.000000
  70
    32
  0
VERTEX
  8
0
  5
17A
 10
0.972103
 20
0.934788
 30
0.000000
  70
    32
  0
VERTEX
  8
0
  5
17B
 10
0.945135
 20
0.868947
 30
0.000000
  70
    32
  0
VERTEX
  8
0
  5
17C
 10
0.919097
 20
0.802478
 30
0.000000
  70
    32
  0
VERTEX
  8
0
  5
17D
 10
0.893988
 20
0.735381
 30
0.000000
  70
    32
  0
VERTEX
  8
0
  5
17E
 10
0.869809
 20
0.667656
 30
0.000000
  70
    32
  0
VERTEX
  8
0
  5
17F
 10
0.846559
 20
0.599302
 30
0.000000
  70
    32
  0
VERTEX
  8
0
  5
180
 10
0.824239
 20
0.530321
 30
0.000000
  70
    32
  0
VERTEX
  8
0
  5
181
 10
0.802848
 20
0.460711
 30
0.000000
  70
    32
  0
VERTEX
  8
0
  5
182
 10
0.782387
 20
0.390473
 30
0.000000
  70
    32
  0
VERTEX
  8
0
  5
183
 10
0.762855
 20
0.319607
 30
0.000000
  70
    32
  0
VERTEX
  8
0
  5
184
 10
0.744253
 20
0.248113
 30
0.000000
  70
    32
  0
VERTEX
  8
0
  5
185
 10
0.726580
 20
0.175990
 30
0.000000
  70
    32
  0
VERTEX
  8
0
  5
186
 10
0.709837
 20
0.103240
 30
0.000000
  70
    32
  0
VERTEX
  8
0
  5
187
 10
0.694023
 20
0.0298609
 30
0.000000
  70
    32
  0
VERTEX
  8
0
  5
188
 10
0.679139
 20
-0.0441461
 30
0.000000
  70
    32
  0
VERTEX
  8
0
  5
189
 10
0.665184
 20
-0.118781
 30
0.000000
  70
    32
  0
VERTEX
  8
0
  5
18A
 10
0.652159
 20
-0.194045
 30
0.000000
  70
    32
  0
VERTEX
  8
0
  5
18B
 10
0.640063
 20
-0.269936
 30
0.000000
  70
    32
  0
VERTEX
  8
0
  5
18C
 10
0.628897
 20
-0.346456
 30
0.000000
  70
    32
  0
VERTEX
  8
0
  5
18D
 10
0.618660
 20
-0.423604
 30
0.000000
  70
    32
  0
VERTEX
  8
0
  5
18E
 10
0.609353
 20
-0.501380
 30
0.000000
  70
    32
  0
VERTEX
  8
0
  5
18F
 10
0.600975
 20
-0.579784
 30
0.000000
  70
    32
  0
VERTEX
  8
0
  5
190
 10
0.593527
 20
-0.658816
 30
0.000000
  70
    32
  0
VERTEX
  8
0
  5
191
 10
0.587009
 20
-0.738477
 30
0.000000
  70
    32
  0
VERTEX
  8
0
  5
192
 10
0.581419
 20
-0.818766
 30
0.000000
  70
    32
  0
VERTEX
  8
0
  5
193
 10
0.576760
 20
-0.899683
 30
0.000000
  70
    32
  0
VERTEX
  8
0
  5
194
 10
0.573030
 20
-0.981228
 30
0.000000
  70
    32
  0
VERTEX
  8
0
  5
195
 10
0.570229
 20
-1.06340
 30
0.000000
  70
    32
  0
VERTEX
  8
0
  5
196
 10
0.568358
 20
-1.14620
 30
0.000000
  70
    32
  0
VERTEX
  8
0
  5
197
 10
0.567416
 20
-1.22963
 30
0.000000
  70
    32
  0
VERTEX
  8
0
  5
198
 10
0.567404
 20
-1.31369
 30
0.000000
  70
    32
  0
VERTEX
  8
0
  5
199
 10
0.568322
 20
-1.39838
 30
0.000000
  70
    32
  0
VERTEX
  8
0
  5
19A
 10
0.570168
 20
-1.48369
 30
0.000000
  70
    32
  0
VERTEX
  8
0
  5
19B
 10
0.572945
 20
-1.56963
 30
0.000000
  70
    32
  0
VERTEX
  8
0
  5
19C
 10
0.576651
 20
-1.65620
 30
0.000000
  70
    32
  0
VERTEX
  8
0
  5
19D
 10
0.581286
 20
-1.74340
 30
0.000000
  70
    32
  0
VERTEX
  8
0
  5
19E
 10
0.586851
 20
-1.83123
 30
0.000000
  70
    32
  0
VERTEX
  8
0
  5
19F
 10
0.593345
 20
-1.91968
 30
0.000000
  70
    32
  0
VERTEX
  8
0
  5
1A0
 10
0.600769
 20
-2.00877
 30
0.000000
  70
    32
  0
VERTEX
  8
0
  5
1A1
 10
0.609123
 20
-2.09848
 30
0.000000
  70
    32
  0
VERTEX
  8
0
  5
1A2
 10
0.618406
 20
-2.18882
 30
0.000000
  70
    32
  0
VERTEX
  8
0
  5
1A3
 10
0.628618
 20
-2.27979
 30
0.000000
  70
    32
  0
VERTEX
  8
0
  5
1A4
 10
0.639760
 20
-2.37138
 30
0.000000
  70
    32
  0
VERTEX
  8
0
  5
1A5
 10
0.651832
 20
-2.46361
 30
0.000000
  70
    32
  0
VERTEX
  8
0
  5
1A6
 10
0.664833
 20
-2.55646
 30
0.000000
  70
    32
  0
VERTEX
  8
0
  5
1A7
 10
0.678763
 20
-2.64994
 30
0.000000
  70
    32
  0
VERTEX
  8
0
  5
1A8
 10
0.693623
 20
-2.74405
 30
0.000000
  70
    32
  0
VERTEX
  8
0
  5
1A9
 10
0.709412
 20
-2.83878
 30
0.000000
  70
    32
  0
VERTEX
  8
0
  5
1AA
 10
0.726131
 20
-2.93415
 30
0.000000
  70
    32
  0
VERTEX
  8
0
  5
1AB
 10
0.743780
 20
-3.03014
 30
0.000000
  70
    32
  0
VERTEX
  8
0
  5
1AC
 10
0.762358
 20
-3.12676
 30
0.000000
  70
    32
  0
VERTEX
  8
0
  5
1AD
 10
0.781865
 20
-3.22401
 30
0.000000
  70
    32
  0
VERTEX
  8
0
  5
1AE
 10
0.802302
 20
-3.32189
 30
0.000000
  70
    32
  0
VERTEX
  8
0
  5
1AF
 10
0.823669
 20
-3.42040
 30
0.000000
  70
    32
  0
VERTEX
  8
0
  5
1B0
 10
0.845965
 20
-3.51953
 30
0.000000
  70
    32
  0
VERTEX
  8
0
  5
1B1
 10
0.869190
 20
-3.61929
 30
0.000000
  70
    32
  0
VERTEX
  8
0
  5
1B2
 10
0.893345
 20
-3.71968
 30
0.000000
  70
    32
  0
VERTEX
  8
0
  5
1B3
 10
0.918430
 20
-3.82070
 30
0.000000
  70
    32
  0
VERTEX
  8
0
  5
1B4
 10
0.944444
 20
-3.92235
 30
0.000000
  70
    32
  0
VERTEX
  8
0
  5
1B5
 10
0.971388
 20
-4.02462
 30
0.000000
  70
    32
  0
VERTEX
  8
0
  5
1B6
 10
0.999261
 20
-4.12753
 30
0.000000
  70
    32
  0
VERTEX
  8
0
  5
1B7
 10
1.02806
 20
-4.23106
 30
0.000000
  70
    32
  0
VERTEX
  8
0
  5
1B8
 10
1.05780
 20
-4.33522
 30
0.000000
  70
    32
  0
VERTEX
  8
0
  5
1B9
 10
1.08846
 20
-4.44001
 30
0.000000
  70
    32
  0
VERTEX
  8
0
  5
1BA
 10
1.12005
 20
-4.54542
 30
0.000000
  70
    32
  0
VERTEX
  8
0
  5
1BB
 10
1.15257
 20
-4.65147
 30
0.000000
  70
    32
  0
VERTEX
  8
0
  5
1BC
 10
1.18602
 20
-4.75814
 30
0.000000
  70
    32
  0
VERTEX
  8
0
  5
1BD
 10
1.22040
 20
-4.86544
 30
0.000000
  70
    32
  0
VERTEX
  8
0
  5
1BE
 10
1.25571
 20
-4.97337
 30
0.000000
  70
    32
  0
VERTEX
  8
0
  5
1BF
 10
1.29195
 20
-5.08192
 30
0.000000
  70
    32
  0
VERTEX
  8
0
  5
1C0
 10
1.32911
 20
-5.19111
 30
0.000000
  70
    32
  0
VERTEX
  8
0
  5
1C1
 10
1.36721
 20
-5.30092
 30
0.000000
  70
    32
  0
VERTEX
  8
0
  5
1C2
 10
1.40624
 20
-5.41136
 30
0.000000
  70
    32
  0
VERTEX
  8
0
  5
1C3
 10
1.44620
 20
-5.52243
 30
0.000000
  70
    32
  0
VERTEX
  8
0
  5
1C4
 10
1.48708
 20
-5.63413
 30
0.000000
  70
    32
  0
VERTEX
  8
0
  5
1C5
 10
1.52890
 20
-5.74646
 30
0.000000
  70
    32
  0
VERTEX
  8
0
  5
1C6
 10
1.57164
 20
-5.85941
 30
0.000000
  70
    32
  0
VERTEX
  8
0
  5
1C7
 10
1.61532
 20
-5.97299
 30
0.000000
  70
    32
  0
VERTEX
  8
0
  5
1C8
 10
1.65992
 20
-6.08720
 30
0.000000
  70
    32
  0
VERTEX
  8
0
  5
1C9
 10
1.70545
 20
-6.20204
 30
0.000000
  70
    32
  0
VERTEX
  8
0
  5
1CA
 10
1.75192
 20
-6.31751
 30
0.000000
  70
    32
  0
VERTEX
  8
0
  5
1CB
 10
1.79931
 20
-6.43360
 30
0.000000
  70
    32
  0
VERTEX
  8
0
  5
1CC
 10
1.84763
 20
-6.55033
 30
0.000000
  70
    32
  0
VERTEX
  8
0
  5
1CD
 10
1.89688
 20
-6.66768
 30
0.000000
  70
    32
  0
VERTEX
  8
0
  5
1CE
 10
1.94707
 20
-6.78566
 30
0.000000
  70
    32
  0
VERTEX
  8
0
  5
1CF
 10
1.99818
 20
-6.90426
 30
0.000000
  70
    32
  0
VERTEX
  8
0
  5
1D0
 10
2.05022
 20
-7.02350
 30
0.000000
  70
    32
  0
VERTEX
  8
0
  5
1D1
 10
2.10319
 20
-7.14336
 30
0.000000
  70
    32
  0
VERTEX
  8
0
  5
1D2
 10
2.15709
 20
-7.26386
 30
0.000000
  70
    32
  0
VERTEX
  8
0
  5
1D3
 10
2.21191
 20
-7.38498
 30
0.000000
  70
    32
  0
VERTEX
  8
0
  5
1D4
 10
2.26767
 20
-7.50672
 30
0.000000
  70
    32
  0
VERTEX
  8
0
  5
1D5
 10
2.32436
 20
-7.62910
 30
0.000000
  70
    32
  0
VERTEX
  8
0
  5
1D6
 10
2.38198
 20
-7.75211
 30
0.000000
  70
    32
  0
VERTEX
  8
0
  5
1D7
 10
2.44052
 20
-7.87574
 30
0.000000
  70
    32
  0
VERTEX
  8
0
  5
1D8
 10
2.50000
 20
-8.00000
 30
0.000000
  70
    32
  0
SEQEND
  8
0
  5
1D9
  0
POLYLINE
  8
0
  5
1DA
  66
     1
 10
0.000000
 20
0.000000
 30
0.000000
  70
     8
  0
VERTEX
  8
0
  5
1DB
 10
-7.00000e-016
 20
22.0000
 30
0.000000
  70
    32
  0
VERTEX
  8
0
  5
1DC
 10
0.0651618
 20
21.8148
 30
0.000000
  70
    32
  0
VERTEX
  8
0
  5
1DD
 10
0.135751
 20
21.6314
 30
0.000000
  70
    32
  0
VERTEX
  8
0
  5
1DE
 10
0.211629
 20
21.4497
 30
0.000000
  70
    32
  0
VERTEX
  8
0
  5
1DF
 10
0.292659
 20
21.2697
 30
0.000000
  70
    32
  0
VERTEX
  8
0
  5
1E0
 10
0.378706
 20
21.0913
 30
0.000000
  70
    32
  0
VERTEX
  8
0
  5
1E1
 10
0.469633
 20
20.9144
 30
0.000000
  70
    32
  0
VERTEX
  8
0
  5
1E2
 10
0.565308
 20
20.7392
 30
0.000000
  70
    32
  0
VERTEX
  8
0
  5
1E3
 10
0.665596
 20
20.5653
 30
0.000000
  70
    32
  0
VERTEX
  8
0
  5
1E4
 10
0.770365
 20
20.3930
 30
0.000000
  70
    32
  0
VERTEX
  8
0
  5
1E5
 10
0.879483
 20
20.2220
 30
0.000000
  70
    32
  0
VERTEX
  8
0
  5
1E6
 10
0.992819
 20
20.0525
 30
0.000000
  70
    32
  0
VERTEX
  8
0
  5
1E7
 10
1.11024
 20
19.8842
 30
0.000000
  70
    32
  0
VERTEX
  8
0
  5
1E8
 10
1.23163
 20
19.7172
 30
0.000000
  70
    32
  0
VERTEX
  8
0
  5
1E9
 10
1.35684
 20
19.5515
 30
0.000000
  70
    32
  0
VERTEX
  8
0
  5
1EA
 10
1.48576
 20
19.3869
 30
0.000000
  70
    32
  0
VERTEX
  8
0
  5
1EB
 10
1.61826
 20
19.2235
 30
0.000000
  70
    32
  0
VERTEX
  8
0
  5
1EC
 10
1.75421
 20
19.0613
 30
0.000000
  70
    32
  0
VERTEX
  8
0
  5
1ED
 10
1.89348
 20
18.9001
 30
0.000000
  70
    32
  0
VERTEX
  8
0
  5
1EE
 10
2.03596
 20
18.7399
 30
0.000000
  70
    32
  0
VERTEX
  8
0
  5
1EF
 10
2.18151
 20
18.5807
 30
0.000000
  70
    32
  0
VERTEX
  8
0
  5
1F0
 10
2.33003
 20
18.4225
 30
0.000000
  70
    32
  0
VERTEX
  8
0
  5
1F1
 10
2.48138
 20
18.2652
 30
0.000000
  70
    32
  0
VERTEX
  8
0
  5
1F2
 10
2.63545
 20
18.1088
 30
0.000000
  70
    32
  0
VERTEX
  8
0
  5
1F3
 10
2.79211
 20
17.9532
 30
0.000000
  70
    32
  0
VERTEX
  8
0
  5
1F4
 10
2.95125
 20
17.7984
 30
0.000000
  70
    32
  0
VERTEX
  8
0
  5
1F5
 10
3.11275
 20
17.6444
 30
0.000000
  70
    32
  0
VERTEX
  8
0
  5
1F6
 10
3.27649
 20
17.4911
 30
0.000000
  70
    32
  0
VERTEX
  8
0
  5
1F7
 10
3.44236
 20
17.3385
 30
0.000000
  70
    32
  0
VERTEX
  8
0
  5
1F8
 10
3.61025
 20
17.1866
 30
0.000000
  70
    32
  0
VERTEX
  8
0
  5
1F9
 10
3.78002
 20
17.0352
 30
0.000000
  70
    32
  0
VERTEX
  8
0
  5
1FA
 10
3.95159
 20
16.8845
 30
0.000000
  70
    32
  0
VERTEX
  8
0
  5
1FB
 10
4.12482
 20
16.7342
 30
0.000000
  70
    32
  0
VERTEX
  8
0
  5
1FC
 10
4.29961
 20
16.5845
 30
0.000000
  70
    32
  0
VERTEX
  8
0
  5
1FD
 10
4.47585
 20
16.4353
 30
0.000000
  70
    32
  0
VERTEX
  8
0
  5
1FE
 10
4.65343
 20
16.2865
 30
0.000000
  70
    32
  0
VERTEX
  8
0
  5
1FF
 10
4.83224
 20
16.1381
 30
0.000000
  70
    32
  0
VERTEX
  8
0
  5
200
 10
5.01217
 20
15.9900
 30
0.000000
  70
    32
  0
VERTEX
  8
0
  5
201
 10
5.19311
 20
15.8423
 30
0.000000
  70
    32
  0
VERTEX
  8
0
  5
202
 10
5.37495
 20
15.6949
 30
0.000000
  70
    32
  0
VERTEX
  8
0
  5
203
 10
5.55760
 20
15.5478
 30
0.000000
  70
    32
  0
VERTEX
  8
0
  5
204
 10
5.74095
 20
15.4008
 30
0.000000
  70
    32
  0
VERTEX
  8
0
  5
205
 10
5.92488
 20
15.2541
 30
0.000000
  70
    32
  0
VERTEX
  8
0
  5
206
 10
6.10931
 20
15.1076
 30
0.000000
  70
    32
  0
VERTEX
  8
0
  5
207
 10
6.29412
 20
14.9612
 30
0.000000
  70
    32
  0
VERTEX
  8
0
  5
208
 10
6.47922
 20
14.8148
 30
0.000000
  70
    32
  0
VERTEX
  8
0
  5
209
 10
6.66450
 20
14.6686
 30
0.000000
  70
    32
  0
VERTEX
  8
0
  5
20A
 10
6.84987
 20
14.5224
 30
0.000000
  70
    32
  0
VERTEX
  8
0
  5
20B
 10
7.03522
 20
14.3762
 30
0.000000
  70
    32
  0
VERTEX
  8
0
  5
20C
 10
7.22046
 20
14.2299
 30
0.000000
  70
    32
  0
VERTEX
  8
0
  5
20D
 10
7.40549
 20
14.0836
 30
0.000000
  70
    32
  0
VERTEX
  8
0
  5
20E
 10
7.59022
 20
13.9373
 30
0.000000
  70
    32
  0
VERTEX
  8
0
  5
20F
 10
7.77455
 20
13.7908
 30
0.000000
  70
    32
  0
VERTEX
  8
0
  5
210
 10
7.95838
 20
13.6442
 30
0.000000
  70
    32
  0
VERTEX
  8
0
  5
211
 10
8.14162
 20
13.4973
 30
0.000000
  70
    32
  0
VERTEX
  8
0
  5
212
 10
8.32418
 20
13.3503
 30
0.000000
  70
    32
  0
VERTEX
  8
0
  5
213
 10
8.50597
 20
13.2031
 30
0.000000
  70
    32
  0
VERTEX
  8
0
  5
214
 10
8.68690
 20
13.0556
 30
0.000000
  70
    32
  0
VERTEX
  8
0
  5
215
 10
8.86687
 20
12.9078
 30
0.000000
  70
    32
  0
VERTEX
  8
0
  5
216
 10
9.04580
 20
12.7597
 30
0.000000
  70
    32
  0
VERTEX
  8
0
  5
217
 10
9.22359
 20
12.6112
 30
0.000000
  70
    32
  0
VERTEX
  8
0
  5
218
 10
9.40017
 20
12.4624
 30
0.000000
  70
    32
  0
VERTEX
  8
0
  5
219
 10
9.57544
 20
12.3131
 30
0.000000
  70
    32
  0
VERTEX
  8
0
  5
21A
 10
9.74932
 20
12.1635
 30
0.000000
  70
    32
  0
VERTEX
  8
0
  5
21B
 10
9.92172
 20
12.0134
 30
0.000000
  70
    32
  0
VERTEX
  8
0
  5
21C
 10
10.0926
 20
11.8628
 30
0.000000
  70
    32
  0
VERTEX
  8
0
  5
21D
 10
10.2618
 20
11.7117
 30
0.000000
  70
    32
  0
VERTEX
  8
0
  5
21E
 10
10.4292
 20
11.5601
 30
0.000000
  70
    32
  0
VERTEX
  8
0
  5
21F
 10
10.5949
 20
11.4079
 30
0.000000
  70
    32
  0
VERTEX
  8
0
  5
220
 10
10.7587
 20
11.2551
 30
0.000000
  70
    32
  0
VERTEX
  8
0
  5
221
 10
10.9205
 20
11.1018
 30
0.000000
  70
    32
  0
VERTEX
  8
0
  5
222
 10
11.0802
 20
10.9478
 30
0.000000
  70
    32
  0
VERTEX
  8
0
  5
223
 10
11.2379
 20
10.7932
 30
0.000000
  70
    32
  0
VERTEX
  8
0
  5
224
 10
11.3933
 20
10.6378
 30
0.000000
  70
    32
  0
VERTEX
  8
0
  5
225
 10
11.5464
 20
10.4818
 30
0.000000
  70
    32
  0
VERTEX
  8
0
  5
226
 10
11.6972
 20
10.3251
 30
0.000000
  70
    32
  0
VERTEX
  8
0
  5
227
 10
11.8456
 20
10.1676
 30
0.000000
  70
    32
  0
VERTEX
  8
0
  5
228
 10
11.9915
 20
10.0094
 30
0.000000
  70
    32
  0
VERTEX
  8
0
  5
229
 10
12.1347
 20
9.85035
 30
0.000000
  70
    32
  0
VERTEX
  8
0
  5
22A
 10
12.2754
 20
9.69050
 30
0.000000
  70
    32
  0
VERTEX
  8
0
  5
22B
 10
12.4133
 20
9.52982
 30
0.000000
  70
    32
  0
VERTEX
  8
0
  5
22C
 10
12.5484
 20
9.36829
 30
0.000000
  70
    32
  0
VERTEX
  8
0
  5
22D
 10
12.6807
 20
9.20589
 30
0.000000
  70
    32
  0
VERTEX
  8
0
  5
22E
 10
12.8101
 20
9.04259
 30
0.000000
  70
    32
  0
VERTEX
  8
0
  5
22F
 10
12.9364
 20
8.87837
 30
0.000000
  70
    32
  0
VERTEX
  8
0
  5
230
 10
13.0597
 20
8.71323
 30
0.000000
  70
    32
  0
VERTEX
  8
0
  5
231
 10
13.1799
 20
8.54712
 30
0.000000
  70
    32
  0
VERTEX
  8
0
  5
232
 10
13.2969
 20
8.38004
 30
0.000000
  70
    32
  0
VERTEX
  8
0
  5
233
 10
13.4106
 20
8.21197
 30
0.000000
  70
    32
  0
VERTEX
  8
0
  5
234
 10
13.5210
 20
8.04289
 30
0.000000
  70
    32
  0
VERTEX
  8
0
  5
235
 10
13.6280
 20
7.87278
 30
0.000000
  70
    32
  0
VERTEX
  8
0
  5
236
 10
13.7316
 20
7.70161
 30
0.000000
  70
    32
  0
VERTEX
  8
0
  5
237
 10
13.8317
 20
7.52939
 30
0.000000
  70
    32
  0
VERTEX
  8
0
  5
238
 10
13.9282
 20
7.35608
 30
0.000000
  70
    32
  0
VERTEX
  8
0
  5
239
 10
14.0210
 20
7.18166
 30
0.000000
  70
    32
  0
VERTEX
  8
0
  5
23A
 10
14.1103
 20
7.00614
 30
0.000000
  70
    32
  0
VERTEX
  8
0
  5
23B
 10
14.1957
 20
6.82950
 30
0.000000
  70
    32
  0
VERTEX
  8
0
  5
23C
 10
14.2774
 20
6.65173
 30
0.000000
  70
    32
  0
VERTEX
  8
0
  5
23D
 10
14.3552
 20
6.47285
 30
0.000000
  70
    32
  0
VERTEX
  8
0
  5
23E
 10
14.4291
 20
6.29285
 30
0.000000
  70
    32
  0
VERTEX
  8
0
  5
23F
 10
14.4991
 20
6.11175
 30
0.000000
  70
    32
  0
VERTEX
  8
0
  5
240
 10
14.5651
 20
5.92956
 30
0.000000
  70
    32
  0
VERTEX
  8
0
  5
241
 10
14.6270
 20
5.74631
 30
0.000000
  70
    32
  0
VERTEX
  8
0
  5
242
 10
14.6848
 20
5.56202
 30
0.000000
  70
    32
  0
VERTEX
  8
0
  5
243
 10
14.7385
 20
5.37672
 30
0.000000
  70
    32
  0
VERTEX
  8
0
  5
244
 10
14.7879
 20
5.19045
 30
0.000000
  70
    32
  0
VERTEX
  8
0
  5
245
 10
14.8332
 20
5.00325
 30
0.000000
  70
    32
  0
VERTEX
  8
0
  5
246
 10
14.8741
 20
4.81516
 30
0.000000
  70
    32
  0
VERTEX
  8
0
  5
247
 10
14.9107
 20
4.62622
 30
0.000000
  70
    32
  0
VERTEX
  8
0
  5
248
 10
14.9429
 20
4.43651
 30
0.000000
  70
    32
  0
VERTEX
  8
0
  5
249
 10
14.9708
 20
4.24607
 30
0.000000
  70
    32
  0
VERTEX
  8
0
  5
24A
 10
14.9941
 20
4.05496
 30
0.000000
  70
    32
  0
VERTEX
  8
0
  5
24B
 10
15.0130
 20
3.86326
 30
0.000000
  70
    32
  0
VERTEX
  8
0
  5
24C
 10
15.0273
 20
3.67105
 30
0.000000
  70
    32
  0
VERTEX
  8
0
  5
24D
 10
15.0371
 20
3.47839
 30
0.000000
  70
    32
  0
VERTEX
  8
0
  5
24E
 10
15.0423
 20
3.28537
 30
0.000000
  70
    32
  0
VERTEX
  8
0
  5
24F
 10
15.0429
 20
3.09208
 30
0.000000
  70
    32
  0
VERTEX
  8
0
  5
250
 10
15.0388
 20
2.89861
 30
0.000000
  70
    32
  0
VERTEX
  8
0
  5
251
 10
15.0299
 20
2.70506
 30
0.000000
  70
    32
  0
VERTEX
  8
0
  5
252
 10
15.0164
 20
2.51153
 30
0.000000
  70
    32
  0
VERTEX
  8
0
  5
253
 10
14.9981
 20
2.31812
 30
0.000000
  70
    32
  0
VERTEX
  8
0
  5
254
 10
14.9750
 20
2.12495
 30
0.000000
  70
    32
  0
VERTEX
  8
0
  5
255
 10
14.9471
 20
1.93214
 30
0.000000
  70
    32
  0
VERTEX
  8
0
  5
256
 10
14.9144
 20
1.73980
 30
0.000000
  70
    32
  0
VERTEX
  8
0
  5
257
 10
14.8768
 20
1.54805
 30
0.000000
  70
    32
  0
VERTEX
  8
0
  5
258
 10
14.8343
 20
1.35704
 30
0.000000
  70
    32
  0
VERTEX
  8
0
  5
259
 10
14.7868
 20
1.16689
 30
0.000000
  70
    32
  0
VERTEX
  8
0
  5
25A
 10
14.7345
 20
0.977752
 30
0.000000
  70
    32
  0
VERTEX
  8
0
  5
25B
 10
14.6772
 20
0.789758
 30
0.000000
  70
    32
  0
VERTEX
  8
0
  5
25C
 10
14.6149
 20
0.603063
 30
0.000000
  70
    32
  0
VERTEX
  8
0
  5
25D
 10
14.5477
 20
0.417821
 30
0.000000
  70
    32
  0
VERTEX
  8
0
  5
25E
 10
14.4754
 20
0.234190
 30
0.000000
  70
    32
  0
VERTEX
  8
0
  5
25F
 10
14.3981
 20
0.0523335
 30
0.000000
  70
    32
  0
VERTEX
  8
0
  5
260
 10
14.3157
 20
-0.127580
 30
0.000000
  70
    32
  0
VERTEX
  8
0
  5
261
 10
14.2283
 20
-0.305377
 30
0.000000
  70
    32
  0
VERTEX
  8
0
  5
262
 10
14.1359
 20
-0.480880
 30
0.000000
  70
    32
  0
VERTEX
  8
0
  5
263
 10
14.0384
 20
-0.653906
 30
0.000000
  70
    32
  0
VERTEX
  8
0
  5
264
 10
13.9357
 20
-0.824269
 30
0.000000
  70
    32
  0
VERTEX
  8
0
  5
265
 10
13.8280
 20
-0.991776
 30
0.000000
  70
    32
  0
VERTEX
  8
0
  5
266
 10
13.7152
 20
-1.15623
 30
0.000000
  70
    32
  0
VERTEX
  8
0
  5
267
 10
13.5972
 20
-1.31743
 30
0.000000
  70
    32
  0
VERTEX
  8
0
  5
268
 10
13.4742
 20
-1.47517
 30
0.000000
  70
    32
  0
VERTEX
  8
0
  5
269
 10
13.3460
 20
-1.62924
 30
0.000000
  70
    32
  0
VERTEX
  8
0
  5
26A
 10
13.2127
 20
-1.77942
 30
0.000000
  70
    32
  0
VERTEX
  8
0
  5
26B
 10
13.0743
 20
-1.92549
 30
0.000000
  70
    32
  0
VERTEX
  8
0
  5
26C
 10
12.9307
 20
-2.06723
 30
0.000000
  70
    32
  0
VERTEX
  8
0
  5
26D
 10
12.7820
 20
-2.20441
 30
0.000000
  70
    32
  0
VERTEX
  8
0
  5
26E
 10
12.6282
 20
-2.33679
 30
0.000000
  70
    32
  0
VERTEX
  8
0
  5
26F
 10
12.4692
 20
-2.46413
 30
0.000000
  70
    32
  0
VERTEX
  8
0
  5
270
 10
12.3052
 20
-2.58619
 30
0.000000
  70
    32
  0
VERTEX
  8
0
  5
271
 10
12.1360
 20
-2.70272
 30
0.000000
  70
    32
  0
VERTEX
  8
0
  5
272
 10
11.9617
 20
-2.81347
 30
0.000000
  70
    32
  0
VERTEX
  8
0
  5
273
 10
11.7823
 20
-2.91817
 30
0.000000
  70
    32
  0
VERTEX
  8
0
  5
274
 10
11.5978
 20
-3.01656
 30
0.000000
  70
    32
  0
VERTEX
  8
0
  5
275
 10
11.4082
 20
-3.10838
 30
0.000000
  70
    32
  0
VERTEX
  8
0
  5
276
 10
11.2135
 20
-3.19336
 30
0.000000
  70
    32
  0
VERTEX
  8
0
  5
277
 10
11.0137
 20
-3.27120
 30
0.000000
  70
    32
  0
VERTEX
  8
0
  5
278
 10
10.8089
 20
-3.34165
 30
0.000000
  70
    32
  0
VERTEX
  8
0
  5
279
 10
10.5991
 20
-3.40439
 30
0.000000
  70
    32
  0
VERTEX
  8
0
  5
27A
 10
10.3842
 20
-3.45915
 30
0.000000
  70
    32
  0
VERTEX
  8
0
  5
27B
 10
10.1643
 20
-3.50563
 30
0.000000
  70
    32
  0
VERTEX
  8
0
  5
27C
 10
9.93944
 20
-3.54353
 30
0.000000
  70
    32
  0
VERTEX
  8
0
  5
27D
 10
9.70958
 20
-3.57253
 30
0.000000
  70
    32
  0
VERTEX
  8
0
  5
27E
 10
9.47476
 20
-3.59233
 30
0.000000
  70
    32
  0
VERTEX
  8
0
  5
27F
 10
9.23500
 20
-3.60262
 30
0.000000
  70
    32
  0
VERTEX
  8
0
  5
280
 10
8.99033
 20
-3.60307
 30
0.000000
  70
    32
  0
VERTEX
  8
0
  5
281
 10
8.74076
 20
-3.59336
 30
0.000000
  70
    32
  0
VERTEX
  8
0
  5
282
 10
8.48632
 20
-3.57316
 30
0.000000
  70
    32
  0
VERTEX
  8
0
  5
283
 10
8.22704
 20
-3.54213
 30
0.000000
  70
    32
  0
VERTEX
  8
0
  5
284
 10
7.96294
 20
-3.49994
 30
0.000000
  70
    32
  0
VERTEX
  8
0
  5
285
 10
7.69404
 20
-3.44624
 30
0.000000
  70
    32
  0
VERTEX
  8
0
  5
286
 10
7.42038
 20
-3.38067
 30
0.000000
  70
    32
  0
VERTEX
  8
0
  5
287
 10
7.14198
 20
-3.30290
 30
0.000000
  70
    32
  0
VERTEX
  8
0
  5
288
 10
6.85888
 20
-3.21256
 30
0.000000
  70
    32
  0
VERTEX
  8
0
  5
289
 10
6.57111
 20
-3.10928
 30
0.000000
  70
    32
  0
VERTEX
  8
0
  5
28A
 10
6.27869
 20
-2.99271
 30
0.000000
  70
    32
  0
VERTEX
  8
0
  5
28B
 10
5.98167
 20
-2.86245
 30
0.000000
  70
    32
  0
VERTEX
  8
0
  5
28C
 10
5.68008
 20
-2.71815
 30
0.000000
  70
    32
  0
VERTEX
  8
0
  5
28D
 10
5.37395
 20
-2.55942
 30
0.000000
  70
    32
  0
VERTEX
  8
0
  5
28E
 10
5.06332
 20
-2.38587
 30
0.000000
  70
    32
  0
VERTEX
  8
0
  5
28F
 10
4.74823
 20
-2.19710
 30
0.000000
  70
    32
  0
VERTEX
  8
0
  5
290
 10
4.42872
 20
-1.99273
 30
0.000000
  70
    32
  0
VERTEX
  8
0
  5
291
 10
4.10483
 20
-1.77235
 30
0.000000
  70
    32
  0
VERTEX
  8
0
  5
292
 10
3.77660
 20
-1.53555
 30
0.000000
  70
    32
  0
VERTEX
  8
0
  5
293
 10
3.44408
 20
-1.28193
 30
0.000000
  70
    32
  0
VERTEX
  8
0
  5
294
 10
3.10731
 20
-1.01107
 30
0.000000
  70
    32
  0
VERTEX
  8
0
  5
295
 10
2.76633
 20
-0.722548
 30
0.000000
  70
    32
  0
VERTEX
  8
0
  5
296
 10
2.42119
 20
-0.415941
 30
0.000000
  70
    32
  0
VERTEX
  8
0
  5
297
 10
2.07194
 20
-0.0908200
 30
0.000000
  70
    32
  0
VERTEX
  8
0
  5
298
 10
1.71862
 20
0.253251
 30
0.000000
  70
    32
  0
VERTEX
  8
0
  5
299
 10
1.36129
 20
0.616709
 30
0.000000
  70
    32
  0
VERTEX
  8
0
  5
29A
 10
1.00000
 20
1.00000
 30
0.000000
  70
    32
  0
SEQEND
  8
0
  5
29B
  0
POLYLINE
  8
0
  5
29C
  66
     1
 10
0.000000
 20
0.000000
 30
0.000000
  70
     8
  0
VERTEX
  8
0
  5
29D
 10
7.00000e-016
 20
22.0000
 30
0.000000
  70
    32
  0
VERTEX
  8
0
  5
29E
 10
-0.0651618
 20
21.8148
 30
0.000000
  70
    32
  0
VERTEX
  8
0
  5
29F
 10
-0.135751
 20
21.6314
 30
0.000000
  70
    32
  0
VERTEX
  8
0
  5
2A0
 10
-0.211629
 20
21.4497
 30
0.000000
  70
    32
  0
VERTEX
  8
0
  5
2A1
 10
-0.292659
 20
21.2697
 30
0.000000
  70
    32
  0
VERTEX
  8
0
  5
2A2
 10
-0.378706
 20
21.0913
 30
0.000000
  70
    32
  0
VERTEX
  8
0
  5
2A3
 10
-0.469633
 20
20.9144
 30
0.000000
  70
    32
  0
VERTEX
  8
0
  5
2A4
 10
-0.565308
 20
20.7392
 30
0.000000
  70
    32
  0
VERTEX
  8
0
  5
2A5
 10
-0.665596
 20
20.5653
 30
0.000000
  70
    32
  0
VERTEX
  8
0
  5
2A6
 10
-0.770365
 20
20.3930
 30
0.000000
  70
    32
  0
VERTEX
  8
0
  5
2A7
 10
-0.879483
 20
20.2220
 30
0.000000
  70
    32
  0
VERTEX
  8
0
  5
2A8
 10
-0.992819
 20
20.0525
 30
0.000000
  70
    32
  0
VERTEX
  8
0
  5
2A9
 10
-1.11024
 20
19.8842
 30
0.000000
  70
    32
  0
VERTEX
  8
0
  5
2AA
 10
-1.23163
 20
19.7172
 30
0.000000
  70
    32
  0
VERTEX
  8
0
  5
2AB
 10
-1.35684
 20
19.5515
 30
0.000000
  70
    32
  0
VERTEX
  8
0
  5
2AC
 10
-1.48576
 20
19.3869
 30
0.000000
  70
    32
  0
VERTEX
  8
0
  5
2AD
 10
-1.61826
 20
19.2235
 30
0.000000
  70
    32
  0
VERTEX
  8
0
  5
2AE
 10
-1.75421
 20
19.0613
 30
0.000000
  70
    32
  0
VERTEX
  8
0
  5
2AF
 10
-1.89348
 20
18.9001
 30
0.000000
  70
    32
  0
VERTEX
  8
0
  5
2B0
 10
-2.03596
 20
18.7399
 30
0.000000
  70
    32
  0
VERTEX
  8
0
  5
2B1
 10
-2.18151
 20
18.5807
 30
0.000000
  70
    32
  0
VERTEX
  8
0
  5
2B2
 10
-2.33003
 20
18.4225
 30
0.000000
  70
    32
  0
VERTEX
  8
0
  5
2B3
 10
-2.48138
 20
18.2652
 30
0.000000
  70
    32
  0
VERTEX
  8
0
  5
2B4
 10
-2.63545
 20
18.1088
 30
0.000000
  70
    32
  0
VERTEX
  8
0
  5
2B5
 10
-2.79211
 20
17.9532
 30
0.000000
  70
    32
  0
VERTEX
  8
0
  5
2B6
 10
-2.95125
 20
17.7984
 30
0.000000
  70
    32
  0
VERTEX
  8
0
  5
2B7
 10
-3.11275
 20
17.6444
 30
0.000000
  70
    32
  0
VERTEX
  8
0
  5
2B8
 10
-3.27649
 20
17.4911
 30
0.000000
  70
    32
  0
VERTEX
  8
0
  5
2B9
 10
-3.44236
 20
17.3385
 30
0.000000
  70
    32
  0
VERTEX
  8
0
  5
2BA
 10
-3.61025
 20
17.1866
 30
0.000000
  70
    32
  0
VERTEX
  8
0
  5
2BB
 10
-3.78002
 20
17.0352
 30
0.000000
  70
    32
  0
VERTEX
  8
0
  5
2BC
 10
-3.95159
 20
16.8845
 30
0.000000
  70
    32
  0
VERTEX
  8
0
  5
2BD
 10
-4.12482
 20
16.7342
 30
0.000000
  70
    32
  0
VERTEX
  8
0
  5
2BE
 10
-4.29961
 20
16.5845
 30
0.000000
  70
    32
  0
VERTEX
  8
0
  5
2BF
 10
-4.47585
 20
16.4353
 30
0.000000
  70
    32
  0
VERTEX
  8
0
  5
2C0
 10
-4.65343
 20
16.2865
 30
0.000000
  70
    32
  0
VERTEX
  8
0
  5
2C1
 10
-4.83224
 20
16.1381
 30
0.000000
  70
    32
  0
VERTEX
  8
0
  5
2C2
 10
-5.01217
 20
15.9900
 30
0.000000
  70
    32
  0
VERTEX
  8
0
  5
2C3
 10
-5.19311
 20
15.8423
 30
0.000000
  70
    32
  0
VERTEX
  8
0
  5
2C4
 10
-5.37495
 20
15.6949
 30
0.000000
  70
    32
  0
VERTEX
  8
0
  5
2C5
 10
-5.55760
 20
15.5478
 30
0.000000
  70
    32
  0
VERTEX
  8
0
  5
2C6
 10
-5.74095
 20
15.4008
 30
0.000000
  70
    32
  0
VERTEX
  8
0
  5
2C7
 10
-5.92488
 20
15.2541
 30
0.000000
  70
    32
  0
VERTEX
  8
0
  5
2C8
 10
-6.10931
 20
15.1076
 30
0.000000
  70
    32
  0
VERTEX
  8
0
  5
2C9
 10
-6.29412
 20
14.9612
 30
0.000000
  70
    32
  0
VERTEX
  8
0
  5
2CA
 10
-6.47922
 20
14.8148
 30
0.000000
  70
    32
  0
VERTEX
  8
0
  5
2CB
 10
-6.66450
 20
14.6686
 30
0.000000
  70
    32
  0
VERTEX
  8
0
  5
2CC
 10
-6.84987
 20
14.5224
 30
0.000000
  70
    32
  0
VERTEX
  8
0
  5
2CD
 10
-7.03522
 20
14.3762
 30
0.000000
  70
    32
  0
VERTEX
  8
0
  5
2CE
 10
-7.22046
 20
14.2299
 30
0.000000
  70
    32
  0
VERTEX
  8
0
  5
2CF
 10
-7.40549
 20
14.0836
 30
0.000000
  70
    32
  0
VERTEX
  8
0
  5
2D0
 10
-7.59022
 20
13.9373
 30
0.000000
  70
    32
  0
VERTEX
  8
0
  5
2D1
 10
-7.77455
 20
13.7908
 30
0.000000
  70
    32
  0
VERTEX
  8
0
  5
2D2
 10
-7.95838
 20
13.6442
 30
0.000000
  70
    32
  0
VERTEX
  8
0
  5
2D3
 10
-8.14162
 20
13.4973
 30
0.000000
  70
    32
  0
VERTEX
  8
0
  5
2D4
 10
-8.32418
 20
13.3503
 30
0.000000
  70
    32
  0
VERTEX
  8
0
  5
2D5
 10
-8.50597
 20
13.2031
 30
0.000000
  70
    32
  0
VERTEX
  8
0
  5
2D6
 10
-8.68690
 20
13.0556
 30
0.000000
  70
    32
  0
VERTEX
  8
0
  5
2D7
 10
-8.86687
 20
12.9078
 30
0.000000
  70
    32
  0
VERTEX
  8
0
  5
2D8
 10
-9.04580
 20
12.7597
 30
0.000000
  70
    32
  0
VERTEX
  8
0
  5
2D9
 10
-9.22359
 20
12.6112
 30
0.000000
  70
    32
  0
VERTEX
  8
0
  5
2DA
 10
-9.40017
 20
12.4624
 30
0.000000
  70
    32
  0
VERTEX
  8
0
  5
2DB
 10
-9.57544
 20
12.3131
 30
0.000000
  70
    32
  0
VERTEX
  8
0
  5
2DC
 10
-9.74932
 20
12.1635
 30
0.000000
  70
    32
  0
VERTEX
  8
0
  5
2DD
 10
-9.92172
 20
12.0134
 30
0.000000
  70
    32
  0
VERTEX
  8
0
  5
2DE
 10
-10.0926
 20
11.8628
 30
0.000000
  70
    32
  0
VERTEX
  8
0
  5
2DF
 10
-10.2618
 20
11.7117
 30
0.000000
  70
    32
  0
VERTEX
  8
0
  5
2E0
 10
-10.4292
 20
11.5601
 30
0.000000
  70
    32
  0
VERTEX
  8
0
  5
2E1
 10
-10.5949
 20
11.4079
 30
0.000000
  70
    32
  0
VERTEX
  8
0
  5
2E2
 10
-10.7587
 20
11.2551
 30
0.000000
  70
    32
  0
VERTEX
  8
0
  5
2E3
 10
-10.9205
 20
11.1018
 30
0.000000
  70
    32
  0
VERTEX
  8
0
  5
2E4
 10
-11.0802
 20
10.9478
 30
0.000000
  70
    32
  0
VERTEX
  8
0
  5
2E5
 10
-11.2379
 20
10.7932
 30
0.000000
  70
    32
  0
VERTEX
  8
0
  5
2E6
 10
-11.3933
 20
10.6378
 30
0.000000
  70
    32
  0
VERTEX
  8
0
  5
2E7
 10
-11.5464
 20
10.4818
 30
0.000000
  70
    32
  0
VERTEX
  8
0
  5
2E8
 10
-11.6972
 20
10.3251
 30
0.000000
  70
    32
  0
VERTEX
  8
0
  5
2E9
 10
-11.8456
 20
10.1676
 30
0.000000
  70
    32
  0
VERTEX
  8
0
  5
2EA
 10
-11.9915
 20
10.0094
 30
0.000000
  70
    32
  0
VERTEX
  8
0
  5
2EB
 10
-12.1347
 20
9.85035
 30
0.000000
  70
    32
  0
VERTEX
  8
0
  5
2EC
 10
-12.2754
 20
9.69050
 30
0.000000
  70
    32
  0
VERTEX
  8
0
  5
2ED
 10
-12.4133
 20
9.52982
 30
0.000000
  70
    32
  0
VERTEX
  8
0
  5
2EE
 10
-12.5484
 20
9.36829
 30
0.000000
  70
    32
  0
VERTEX
  8
0
  5
2EF
 10
-12.6807
 20
9.20589
 30
0.000000
  70
    32
  0
VERTEX
  8
0
  5
2F0
 10
-12.8101
 20
9.04259
 30
0.000000
  70
    32
  0
VERTEX
  8
0
  5
2F1
 10
-12.9364
 20
8.87837
 30
0.000000
  70
    32
  0
VERTEX
  8
0
  5
2F2
 10
-13.0597
 20
8.71323
 30
0.000000
  70
    32
  0
VERTEX
  8
0
  5
2F3
 10
-13.1799
 20
8.54712
 30
0.000000
  70
    32
  0
VERTEX
  8
0
  5
2F4
 10
-13.2969
 20
8.38004
 30
0.000000
  70
    32
  0
VERTEX
  8
0
  5
2F5
 10
-13.4106
 20
8.21197
 30
0.000000
  70
    32
  0
VERTEX
  8
0
  5
2F6
 10
-13.5210
 20
8.04289
 30
0.000000
  70
    32
  0
VERTEX
  8
0
  5
2F7
 10
-13.6280
 20
7.87278
 30
0.000000
  70
    32
  0
VERTEX
  8
0
  5
2F8
 10
-13.7316
 20
7.70161
 30
0.000000
  70
    32
  0
VERTEX
  8
0
  5
2F9
 10
-13.8317
 20
7.52939
 30
0.000000
  70
    32
  0
VERTEX
  8
0
  5
2FA
 10
-13.9282
 20
7.35608
 30
0.000000
  70
    32
  0
VERTEX
  8
0
  5
2FB
 10
-14.0210
 20
7.18166
 30
0.000000
  70
    32
  0
VERTEX
  8
0
  5
2FC
 10
-14.1103
 20
7.00614
 30
0.000000
  70
    32
  0
VERTEX
  8
0
  5
2FD
 10
-14.1957
 20
6.82950
 30
0.000000
  70
    32
  0
VERTEX
  8
0
  5
2FE
 10
-14.2774
 20
6.65173
 30
0.000000
  70
    32
  0
VERTEX
  8
0
  5
2FF
 10
-14.3552
 20
6.47285
 30
0.000000
  70
    32
  0
VERTEX
  8
0
  5
300
 10
-14.4291
 20
6.29285
 30
0.000000
  70
    32
  0
VERTEX
  8
0
  5
301
 10
-14.4991
 20
6.11175
 30
0.000000
  70
    32
  0
VERTEX
  8
0
  5
302
 10
-14.5651
 20
5.92956
 30
0.000000
  70
    32
  0
VERTEX
  8
0
  5
303
 10
-14.6270
 20
5.74631
 30
0.000000
  70
    32
  0
VERTEX
  8
0
  5
304
 10
-14.6848
 20
5.56202
 30
0.000000
  70
    32
  0
VERTEX
  8
0
  5
305
 10
-14.7385
 20
5.37672
 30
0.000000
  70
    32
  0
VERTEX
  8
0
  5
306
 10
-14.7879
 20
5.19045
 30
0.000000
  70
    32
  0
VERTEX
  8
0
  5
307
 10
-14.8332
 20
5.00325
 30
0.000000
  70
    32
  0
VERTEX
  8
0
  5
308
 10
-14.8741
 20
4.81516
 30
0.000000
  70
    32
  0
VERTEX
  8
0
  5
309
 10
-14.9107
 20
4.62622
 30
0.000000
  70
    32
  0
VERTEX
  8
0
  5
30A
 10
-14.9429
 20
4.43651
 30
0.000000
  70
    32
  0
VERTEX
  8
0
  5
30B
 10
-14.9708
 20
4.24607
 30
0.000000
  70
    32
  0
VERTEX
  8
0
  5
30C
 10
-14.9941
 20
4.05496
 30
0.000000
  70
    32
  0
VERTEX
  8
0
  5
30D
 10
-15.0130
 20
3.86326
 30
0.000000
  70
    32
  0
VERTEX
  8
0
  5
30E
 10
-15.0273
 20
3.67105
 30
0.000000
  70
    32
  0
VERTEX
  8
0
  5
30F
 10
-15.0371
 20
3.47839
 30
0.000000
  70
    32
  0
VERTEX
  8
0
  5
310
 10
-15.0423
 20
3.28537
 30
0.000000
  70
    32
  0
VERTEX
  8
0
  5
311
 10
-15.0429
 20
3.09208
 30
0.000000
  70
    32
  0
VERTEX
  8
0
  5
312
 10
-15.0388
 20
2.89861
 30
0.000000
  70
    32
  0
VERTEX
  8
0
  5
313
 10
-15.0299
 20
2.70506
 30
0.000000
  70
    32
  0
VERTEX
  8
0
  5
314
 10
-15.0164
 20
2.51153
 30
0.000000
  70
    32
  0
VERTEX
  8
0
  5
315
 10
-14.9981
 20
2.31812
 30
0.000000
  70
    32
  0
VERTEX
  8
0
  5
316
 10
-14.9750
 20
2.12495
 30
0.000000
  70
    32
  0
VERTEX
  8
0
  5
317
 10
-14.9471
 20
1.93214
 30
0.000000
  70
    32
  0
VERTEX
  8
0
  5
318
 10
-14.9144
 20
1.73980
 30
0.000000
  70
    32
  0
VERTEX
  8
0
  5
319
 10
-14.8768
 20
1.54805
 30
0.000000
  70
    32
  0
VERTEX
  8
0
  5
31A
 10
-14.8343
 20
1.35704
 30
0.000000
  70
    32
  0
VERTEX
  8
0
  5
31B
 10
-14.7868
 20
1.16689
 30
0.000000
  70
    32
  0
VERTEX
  8
0
  5
31C
 10
-14.7345
 20
0.977752
 30
0.000000
  70
    32
  0
VERTEX
  8
0
  5
31D
 10
-14.6772
 20
0.789758
 30
0.000000
  70
    32
  0
VERTEX
  8
0
  5
31E
 10
-14.6149
 20
0.603063
 30
0.000000
  70
    32
  0
VERTEX
  8
0
  5
31F
 10
-14.5477
 20
0.417821
 30
0.000000
  70
    32
  0
VERTEX
  8
0
  5
320
 10
-14.4754
 20
0.234190
 30
0.000000
  70
    32
  0
VERTEX
  8
0
  5
321
 10
-14.3981
 20
0.0523335
 30
0.000000
  70
    32
  0
VERTEX
  8
0
  5
322
 10
-14.3157
 20
-0.127580
 30
0.000000
  70
    32
  0
VERTEX
  8
0
  5
323
 10
-14.2283
 20
-0.305377
 30
0.000000
  70
    32
  0
VERTEX
  8
0
  5
324
 10
-14.1359
 20
-0.480880
 30
0.000000
  70
    32
  0
VERTEX
  8
0
  5
325
 10
-14.0384
 20
-0.653906
 30
0.000000
  70
    32
  0
VERTEX
  8
0
  5
326
 10
-13.9357
 20
-0.824269
 30
0.000000
  70
    32
  0
VERTEX
  8
0
  5
327
 10
-13.8280
 20
-0.991776
 30
0.000000
  70
    32
  0
VERTEX
  8
0
  5
328
 10
-13.7152
 20
-1.15623
 30
0.000000
  70
    32
  0
VERTEX
  8
0
  5
329
 10
-13.5972
 20
-1.31743
 30
0.000000
  70
    32
  0
VERTEX
  8
0
  5
32A
 10
-13.4742
 20
-1.47517
 30
0.000000
  70
    32
  0
VERTEX
  8
0
  5
32B
 10
-13.3460
 20
-1.62924
 30
0.000000
  70
    32
  0
VERTEX
  8
0
  5
32C
 10
-13.2127
 20
-1.77942
 30
0.000000
  70
    32
  0
VERTEX
  8
0
  5
32D
 10
-13.0743
 20
-1.92549
 30
0.000000
  70
    32
  0
VERTEX
  8
0
  5
32E
 10
-12.9307
 20
-2.06723
 30
0.000000
  70
    32
  0
VERTEX
  8
0
  5
32F
 10
-12.7820
 20
-2.20441
 30
0.000000
  70
    32
  0
VERTEX
  8
0
  5
330
 10
-12.6282
 20
-2.33679
 30
0.000000
  70
    32
  0
VERTEX
  8
0
  5
331
 10
-12.4692
 20
-2.46413
 30
0.000000
  70
    32
  0
VERTEX
  8
0
  5
332
 10
-12.3052
 20
-2.58619
 30
0.000000
  70
    32
  0
VERTEX
  8
0
  5
333
 10
-12.1360
 20
-2.70272
 30
0.000000
  70
    32
  0
VERTEX
  8
0
  5
334
 10
-11.9617
 20
-2.81347
 30
0.000000
  70
    32
  0
VERTEX
  8
0
  5
335
 10
-11.7823
 20
-2.91817
 30
0.000000
  70
    32
  0
VERTEX
  8
0
  5
336
 10
-11.5978
 20
-3.01656
 30
0.000000
  70
    32
  0
VERTEX
  8
0
  5
337
 10
-11.4082
 20
-3.10838
 30
0.000000
  70
    32
  0
VERTEX
  8
0
  5
338
 10
-11.2135
 20
-3.19336
 30
0.000000
  70
    32
  0
VERTEX
  8
0
  5
339
 10
-11.0137
 20
-3.27120
 30
0.000000
  70
    32
  0
VERTEX
  8
0
  5
33A
 10
-10.8089
 20
-3.34165
 30
0.000000
  70
    32
  0
VERTEX
  8
0
  5
33B
 10
-10.5991
 20
-3.40439
 30
0.000000
  70
    32
  0
VERTEX
  8
0
  5
33C
 10
-10.3842
 20
-3.45915
 30
0.000000
  70
    32
  0
VERTEX
  8
0
  5
33D
 10
-10.1643
 20
-3.50563
 30
0.000000
  70
    32
  0
VERTEX
  8
0
  5
33E
 10
-9.93944
 20
-3.54353
 30
0.000000
  70
    32
  0
VERTEX
  8
0
  5
33F
 10
-9.70958
 20
-3.57253
 30
0.000000
  70
    32
  0
VERTEX
  8
0
  5
340
 10
-9.47476
 20
-3.59233
 30
0.000000
  70
    32
  0
VERTEX
  8
0
  5
341
 10
-9.23500
 20
-3.60262
 30
0.000000
  70
    32
  0
VERTEX
  8
0
  5
342
 10
-8.99033
 20
-3.60307
 30
0.000000
  70
    32
  0
VERTEX
  8
0
  5
343
 10
-8.74076
 20
-3.59336
 30
0.000000
  70
    32
  0
VERTEX
  8
0
  5
344
 10
-8.48632
 20
-3.57316
 30
0.000000
  70
    32
  0
VERTEX
  8
0
  5
345
 10
-8.22704
 20
-3.54213
 30
0.000000
  70
    32
  0
VERTEX
  8
0
  5
346
 10
-7.96294
 20
-3.49994
 30
0.000000
  70
    32
  0
VERTEX
  8
0
  5
347
 10
-7.69404
 20
-3.44624
 30
0.000000
  70
    32
  0
VERTEX
  8
0
  5
348
 10
-7.42038
 20
-3.38067
 30
0.000000
  70
    32
  0
VERTEX
  8
0
  5
349
 10
-7.14198
 20
-3.30290
 30
0.000000
  70
    32
  0
VERTEX
  8
0
  5
34A
 10
-6.85888
 20
-3.21256
 30
0.000000
  70
    32
  0
VERTEX
  8
0
  5
34B
 10
-6.57111
 20
-3.10928
 30
0.000000
  70
    32
  0
VERTEX
  8
0
  5
34C
 10
-6.27869
 20
-2.99271
 30
0.000000
  70
    32
  0
VERTEX
  8
0
  5
34D
 10
-5.98167
 20
-2.86245
 30
0.000000
  70
    32
  0
VERTEX
  8
0
  5
34E
 10
-5.68008
 20
-2.71815
 30
0.000000
  70
    32
  0
VERTEX
  8
0
  5
34F
 10
-5.37395
 20
-2.55942
 30
0.000000
  70
    32
  0
VERTEX
  8
0
  5
350
 10
-5.06332
 20
-2.38587
 30
0.000000
  70
    32
  0
VERTEX
  8
0
  5
351
 10
-4.74823
 20
-2.19710
 30
0.000000
  70
    32
  0
VERTEX
  8
0
  5
352
 10
-4.42872
 20
-1.99273
 30
0.000000
  70
    32
  0
VERTEX
  8
0
  5
353
 10
-4.10483
 20
-1.77235
 30
0.000000
  70
    32
  0
VERTEX
  8
0
  5
354
 10
-3.77660
 20
-1.53555
 30
0.000000
  70
    32
  0
VERTEX
  8
0
  5
355
 10
-3.44408
 20
-1.28193
 30
0.000000
  70
    32
  0
VERTEX
  8
0
  5
356
 10
-3.10731
 20
-1.01107
 30
0.000000
  70
    32
  0
VERTEX
  8
0
  5
357
 10
-2.76633
 20
-0.722548
 30
0.000000
  70
    32
  0
VERTEX
  8
0
  5
358
 10
-2.42119
 20
-0.415941
 30
0.000000
  70
    32
  0
VERTEX
  8
0
  5
359
 10
-2.07194
 20
-0.0908200
 30
0.000000
  70
    32
  0
VERTEX
  8
0
  5
35A
 10
-1.71862
 20
0.253251
 30
0.000000
  70
    32
  0
VERTEX
  8
0
  5
35B
 10
-1.36129
 20
0.616709
 30
0.000000
  70
    32
  0
VERTEX
  8
0
  5
35C
 10
-1.00000
 20
1.00000
 30
0.000000
  70
    32
  0
SEQEND
  8
0
  5
35D
  0
ENDSEC
  0
EOF
