M48
;DRILL file {KiCad 4.0.1-stable} date 2017/06/23 15:26:24
;FORMAT={-:-/ absolute / metric / decimal}
FMAT,2
METRIC,TZ
T1C0.300
T2C0.400
T3C0.600
T4C0.762
T5C0.800
T6C0.900
T7C0.998
T8C1.000
%
G90
G05
M71
T1
X114.5Y-100.
X117.15Y-152.05
X117.25Y-95.394
X127.1Y-156.125
X128.5Y-89.5
X131.889Y-116.655
X132.Y-109.175
X132.2Y-143.6
X132.613Y-117.73
X132.883Y-139.229
X133.Y-148.
X133.455Y-149.047
X134.347Y-136.
X134.922Y-135.075
X136.7Y-139.7
X136.7Y-144.1
X136.727Y-151.447
X137.605Y-81.155
X137.8Y-149.375
X137.852Y-117.325
X138.Y-133.05
X138.617Y-117.163
X138.66Y-130.597
X138.875Y-143.75
X139.64Y-130.071
X139.946Y-116.557
X140.175Y-119.5
X140.5Y-134.35
X140.625Y-120.5
X140.782Y-117.859
X140.928Y-143.75
X141.3Y-127.6
X141.311Y-126.7
X141.712Y-133.712
X141.75Y-111.5
X141.925Y-149.4
X142.Y-114.091
X142.25Y-125.
X142.375Y-145.525
X142.462Y-126.695
X142.675Y-116.534
X143.071Y-154.048
X143.15Y-110.25
X143.268Y-125.016
X143.437Y-122.126
X143.584Y-124.206
X143.604Y-121.443
X143.651Y-152.125
X143.703Y-129.353
X143.75Y-112.5
X143.76Y-154.172
X144.1Y-128.4
X144.282Y-124.252
X144.325Y-139.775
X144.765Y-112.599
X144.766Y-135.466
X144.8Y-129.8
X144.849Y-152.125
X144.901Y-123.924
X145.375Y-129.
X145.408Y-119.05
X145.8Y-116.2
X146.09Y-115.563
X146.175Y-122.885
X146.75Y-120.5
X147.086Y-125.163
X147.4Y-123.1
X147.7Y-153.4
X148.127Y-122.075
X148.243Y-125.823
X148.805Y-120.344
X148.887Y-123.427
X149.1Y-135.9
X149.201Y-124.588
X149.829Y-126.535
X149.9Y-129.775
X149.9Y-134.2
X150.111Y-122.846
X150.323Y-119.675
X150.63Y-126.55
X150.773Y-121.064
X151.75Y-127.25
X151.75Y-133.
X151.794Y-121.975
X152.325Y-146.775
X152.609Y-135.984
X152.846Y-112.091
X152.953Y-124.487
X153.25Y-136.75
X153.732Y-121.
X154.Y-116.25
X154.265Y-77.25
X154.276Y-114.083
X154.307Y-119.725
X154.307Y-121.5
X155.31Y-140.468
X155.325Y-143.7
X155.705Y-110.545
X155.75Y-126.
X155.75Y-127.
X155.759Y-128.639
X155.925Y-137.25
X156.Y-109.75
X156.Y-125.45
X156.685Y-123.622
X157.159Y-149.846
X157.25Y-127.5
X157.4Y-152.5
X157.7Y-146.595
X158.5Y-118.
X159.Y-81.25
X159.073Y-118.483
X159.3Y-119.16
X159.39Y-130.89
X159.462Y-140.628
X159.6Y-146.5
X159.885Y-131.385
X160.275Y-144.974
X160.38Y-131.88
X160.4Y-133.8
X160.45Y-146.9
X160.85Y-139.498
X161.5Y-124.5
X162.419Y-150.438
X162.5Y-128.5
X162.728Y-118.004
X163.Y-121.025
X164.136Y-93.265
X164.159Y-107.075
X165.646Y-110.525
X166.277Y-138.489
X166.793Y-140.111
X166.901Y-112.67
X167.75Y-119.
X168.51Y-123.263
X168.899Y-123.845
X178.75Y-155.725
X182.2Y-95.1
X182.825Y-155.05
X188.5Y-130.75
X193.653Y-124.916
X193.75Y-133.25
X193.981Y-131.806
X194.Y-134.75
X194.034Y-126.257
X194.425Y-125.5
X194.609Y-128.
X194.75Y-136.75
X194.803Y-138.05
X196.75Y-118.
X196.75Y-121.
X196.75Y-147.25
X196.75Y-148.75
X196.825Y-139.75
X196.825Y-145.742
X196.887Y-141.073
X197.043Y-142.457
X197.275Y-143.642
X197.5Y-137.5
T2
X125.5Y-99.25
X128.22Y-147.72
X129.5Y-120.5
X129.5Y-121.5
X129.7Y-124.81
X132.25Y-138.75
X132.7Y-120.35
X133.25Y-126.
X133.446Y-120.205
X133.75Y-137.
X134.141Y-122.177
X134.163Y-121.412
X134.5Y-81.25
X136.Y-121.2
X136.75Y-131.25
X137.1Y-121.2
X140.795Y-151.425
X150.5Y-145.75
X154.496Y-112.165
X155.252Y-79.191
X156.Y-73.25
X156.8Y-142.2
X157.Y-148.138
X157.7Y-142.2
X158.144Y-151.606
X158.2Y-138.5
X158.349Y-135.462
X158.5Y-134.2
X159.523Y-137.2
X160.494Y-121.067
X161.2Y-121.1
X162.25Y-122.443
X162.5Y-90.5
X162.5Y-141.25
X162.5Y-142.3
X163.09Y-135.026
X163.829Y-140.614
X163.872Y-122.425
X164.05Y-120.35
X164.403Y-148.875
X164.85Y-120.35
X165.25Y-115.5
X166.883Y-132.145
X167.8Y-120.6
X167.8Y-121.4
X168.094Y-134.228
X168.12Y-129.376
X169.177Y-107.032
X170.905Y-89.095
X171.5Y-90.5
T3
X137.05Y-124.075
X137.25Y-129.
X157.5Y-69.25
X157.521Y-124.766
X164.Y-133.75
X164.144Y-129.433
X165.75Y-126.5
X165.757Y-130.
X166.Y-102.
X166.25Y-137.
X166.8Y-107.644
X169.197Y-126.75
X169.7Y-124.55
X175.Y-91.5
T4
X166.1Y-155.7
X167.7Y-155.7
T5
X132.5Y-112.
X132.5Y-114.
X134.5Y-112.
X134.5Y-114.
X136.5Y-112.
X136.5Y-114.
X160.5Y-112.
X160.5Y-114.
X162.5Y-112.
X162.5Y-114.
X164.5Y-112.
X164.5Y-114.
T6
X121.17Y-97.09
X123.671Y-96.649
X132.16Y-87.51
X134.36Y-86.24
X145.826Y-73.635
X146.1Y-71.11
X150.896Y-71.115
X151.17Y-73.64
X153.Y-149.85
X153.Y-153.15
X155.Y-149.85
X155.Y-153.15
X159.Y-149.85
X159.Y-153.15
X161.Y-149.85
X161.Y-153.15
X162.62Y-86.25
X164.82Y-87.52
X173.32Y-96.65
X175.821Y-97.091
T7
X166.Y-152.
X168.Y-152.
T8
X120.74Y-94.59
X123.241Y-94.149
X130.9Y-85.32
X133.1Y-84.05
X133.88Y-154.
X136.42Y-154.
X138.96Y-154.
X141.5Y-154.
X143.3Y-73.37
X143.574Y-70.845
X153.416Y-70.835
X153.69Y-73.36
X163.9Y-84.05
X166.1Y-85.32
X167.8Y-92.2
X167.8Y-94.74
X173.759Y-94.149
X176.26Y-94.59
T0
M30
