G04 #@! TF.FileFunction,Copper,L2,Bot,Signal*
%FSLAX46Y46*%
G04 Gerber Fmt 4.6, Leading zero omitted, Abs format (unit mm)*
G04 Created by KiCad (PCBNEW 4.0.1-stable) date 2017/06/23 15:44:35*
%MOMM*%
G01*
G04 APERTURE LIST*
%ADD10C,0.100000*%
%ADD11O,1.506220X3.014980*%
%ADD12R,1.700000X1.700000*%
%ADD13O,1.700000X1.700000*%
%ADD14C,1.524000*%
%ADD15C,1.800000*%
%ADD16C,1.700000*%
%ADD17R,2.000000X0.600000*%
%ADD18R,4.200000X0.700000*%
%ADD19R,1.350000X1.350000*%
%ADD20O,1.350000X1.350000*%
%ADD21R,0.750000X0.800000*%
%ADD22R,0.600000X0.400000*%
%ADD23C,0.500000*%
%ADD24C,0.600000*%
%ADD25C,0.800000*%
%ADD26C,0.250000*%
%ADD27C,1.500000*%
%ADD28C,1.000000*%
%ADD29C,0.500000*%
%ADD30C,0.800000*%
%ADD31C,0.254000*%
G04 APERTURE END LIST*
D10*
D11*
X168000000Y-152000000D03*
X166000000Y-152000000D03*
D12*
X141500000Y-154000000D03*
D13*
X138960000Y-154000000D03*
X136420000Y-154000000D03*
X133880000Y-154000000D03*
D14*
X167700000Y-155700000D03*
X166100000Y-155700000D03*
X153000000Y-153150000D03*
X155000000Y-153150000D03*
X159000000Y-153150000D03*
X161000000Y-153150000D03*
X153000000Y-149850000D03*
X155000000Y-149850000D03*
X159000000Y-149850000D03*
X161000000Y-149850000D03*
D10*
G36*
X161390577Y-86579423D02*
X162290577Y-85020577D01*
X163849423Y-85920577D01*
X162949423Y-87479423D01*
X161390577Y-86579423D01*
X161390577Y-86579423D01*
G37*
D15*
X164819705Y-87520000D03*
D10*
G36*
X134689423Y-85010577D02*
X135589423Y-86569423D01*
X134030577Y-87469423D01*
X133130577Y-85910577D01*
X134689423Y-85010577D01*
X134689423Y-85010577D01*
G37*
D15*
X132160295Y-87510000D03*
D10*
G36*
X152161935Y-74437536D02*
X150372464Y-74631935D01*
X150178065Y-72842464D01*
X151967536Y-72648065D01*
X152161935Y-74437536D01*
X152161935Y-74437536D01*
G37*
D15*
X150895682Y-71114857D03*
D10*
G36*
X145302464Y-70118065D02*
X147091935Y-70312464D01*
X146897536Y-72101935D01*
X145108065Y-71907536D01*
X145302464Y-70118065D01*
X145302464Y-70118065D01*
G37*
D15*
X145825682Y-73635143D03*
D10*
G36*
X120439956Y-98132610D02*
X120127390Y-96359956D01*
X121900044Y-96047390D01*
X122212610Y-97820044D01*
X120439956Y-98132610D01*
X120439956Y-98132610D01*
G37*
D15*
X123671412Y-96648934D03*
D10*
G36*
X172277390Y-97380044D02*
X172589956Y-95607390D01*
X174362610Y-95919956D01*
X174050044Y-97692610D01*
X172277390Y-97380044D01*
X172277390Y-97380044D01*
G37*
D15*
X175821412Y-97091066D03*
D12*
X167800000Y-92200000D03*
D13*
X167800000Y-94740000D03*
D10*
G36*
X165788878Y-84158878D02*
X167261122Y-85008878D01*
X166411122Y-86481122D01*
X164938878Y-85631122D01*
X165788878Y-84158878D01*
X165788878Y-84158878D01*
G37*
D16*
X163900295Y-84050000D02*
X163900295Y-84050000D01*
D10*
G36*
X175570514Y-93605312D02*
X177244688Y-93900514D01*
X176949486Y-95574688D01*
X175275312Y-95279486D01*
X175570514Y-93605312D01*
X175570514Y-93605312D01*
G37*
D16*
X173758588Y-94148934D02*
X173758588Y-94148934D01*
D10*
G36*
X132061122Y-85631122D02*
X130588878Y-86481122D01*
X129738878Y-85008878D01*
X131211122Y-84158878D01*
X132061122Y-85631122D01*
X132061122Y-85631122D01*
G37*
D16*
X133099705Y-84050000D02*
X133099705Y-84050000D01*
D10*
G36*
X121724688Y-95279486D02*
X120050514Y-95574688D01*
X119755312Y-93900514D01*
X121429486Y-93605312D01*
X121724688Y-95279486D01*
X121724688Y-95279486D01*
G37*
D16*
X123241412Y-94148934D02*
X123241412Y-94148934D01*
D10*
G36*
X144236828Y-72616771D02*
X144053229Y-74306828D01*
X142363172Y-74123229D01*
X142546771Y-72433172D01*
X144236828Y-72616771D01*
X144236828Y-72616771D01*
G37*
D16*
X143574318Y-70844857D02*
X143574318Y-70844857D01*
D10*
G36*
X154443229Y-72423172D02*
X154626828Y-74113229D01*
X152936771Y-74296828D01*
X152753172Y-72606771D01*
X154443229Y-72423172D01*
X154443229Y-72423172D01*
G37*
D16*
X153415682Y-70834857D02*
X153415682Y-70834857D01*
D17*
X190000000Y-133500000D03*
X190000000Y-132500000D03*
X190000000Y-134500000D03*
X190000000Y-131500000D03*
X190000000Y-135500000D03*
D18*
X192100000Y-136500000D03*
X192100000Y-130500000D03*
D19*
X164500000Y-112000000D03*
D20*
X164500000Y-114000000D03*
X162500000Y-112000000D03*
X162500000Y-114000000D03*
X160500000Y-112000000D03*
X160500000Y-114000000D03*
D19*
X136500000Y-112000000D03*
D20*
X136500000Y-114000000D03*
X134500000Y-112000000D03*
X134500000Y-114000000D03*
X132500000Y-112000000D03*
X132500000Y-114000000D03*
D21*
X197500000Y-148750000D03*
X197500000Y-147250000D03*
X197500000Y-145750000D03*
X197500000Y-144250000D03*
X197500000Y-142750000D03*
X197500000Y-141250000D03*
X197500000Y-138250000D03*
X197500000Y-139750000D03*
X197500000Y-122250000D03*
X197500000Y-123750000D03*
X197500000Y-125250000D03*
X197500000Y-126750000D03*
D22*
X197500000Y-120050000D03*
X197500000Y-120950000D03*
X197500000Y-118950000D03*
X197500000Y-118050000D03*
X197500000Y-128950000D03*
X197500000Y-128050000D03*
D23*
X156000000Y-109750000D03*
X155704614Y-110545386D03*
X156000000Y-125450000D03*
X155750000Y-126000000D03*
D24*
X157000000Y-148137999D03*
X133445875Y-120204809D03*
D25*
X165756501Y-130000000D03*
D24*
X129700000Y-124809537D03*
X164050000Y-120350000D03*
X164850000Y-120350000D03*
X132700000Y-120350000D03*
X136750000Y-131250000D03*
X134140627Y-122176564D03*
X134163120Y-121411800D03*
D25*
X169700020Y-124549980D03*
X165750000Y-126500000D03*
X166000000Y-102000000D03*
D24*
X162249980Y-122442841D03*
X163872221Y-122425219D03*
D23*
X162500000Y-128500000D03*
D24*
X133250000Y-126000000D03*
X156800000Y-142200000D03*
X157700000Y-142200000D03*
X162500000Y-141250000D03*
X162500000Y-142300000D03*
X155252033Y-79191007D03*
D25*
X169197070Y-126750000D03*
X166250000Y-137000000D03*
X164143971Y-129433136D03*
D24*
X169177462Y-107031639D03*
X162500000Y-90500000D03*
X170905344Y-89094656D03*
D25*
X164000000Y-133750000D03*
D23*
X154307428Y-119724974D03*
X154307428Y-121500000D03*
X166901038Y-112669852D03*
X151750000Y-133000000D03*
X151750000Y-127250000D03*
X165645903Y-110524634D03*
D25*
X137050000Y-124075000D03*
X137250000Y-129000000D03*
D23*
X162419047Y-150438278D03*
X142000000Y-114090604D03*
D24*
X165250000Y-115500000D03*
D23*
X141750000Y-111500000D03*
X161500000Y-124500000D03*
X162727914Y-118003832D03*
X163000000Y-121025020D03*
X159462291Y-140628062D03*
X155925000Y-137250000D03*
D24*
X158349427Y-135461951D03*
D23*
X160450000Y-146900000D03*
D24*
X158200000Y-138500000D03*
D23*
X140928230Y-143750000D03*
D24*
X159522674Y-137200000D03*
D23*
X153732418Y-121000000D03*
X154000000Y-116250000D03*
X157700020Y-146594988D03*
D24*
X150500000Y-145750000D03*
X133750000Y-137000000D03*
X132250000Y-138750000D03*
X125500000Y-99250000D03*
D23*
X140624936Y-120500000D03*
X140782091Y-117859385D03*
D24*
X166883333Y-132145243D03*
X168120283Y-129376466D03*
D23*
X168510319Y-123262980D03*
X149828939Y-126534987D03*
X160275217Y-144973681D03*
X149900000Y-134200000D03*
X149900000Y-129775000D03*
X141310913Y-126700000D03*
X144800000Y-129800000D03*
X138875000Y-143750000D03*
X152325000Y-146775000D03*
D24*
X158500000Y-134200000D03*
D23*
X182200000Y-95100000D03*
D24*
X163829212Y-140613597D03*
X168094128Y-134228022D03*
X163090228Y-135026311D03*
X128219656Y-147719656D03*
X164402687Y-148874831D03*
X171500000Y-90500000D03*
D23*
X136726811Y-151447388D03*
D24*
X140795382Y-151424969D03*
X158144081Y-151605864D03*
D23*
X147700000Y-153400000D03*
X160849875Y-139498373D03*
X160400000Y-133800000D03*
X143071307Y-154047590D03*
X117150000Y-152050000D03*
X143760245Y-154171612D03*
X127100000Y-156125020D03*
X166277498Y-138488897D03*
X178750000Y-155725000D03*
X166793030Y-140110951D03*
X182825000Y-155050000D03*
X151794062Y-121974887D03*
X164158716Y-107074946D03*
X114500000Y-100000000D03*
X132000000Y-109174989D03*
X143150011Y-110250000D03*
X143604168Y-121442632D03*
D24*
X134500000Y-81249990D03*
D23*
X159073267Y-118483346D03*
X159885029Y-131385029D03*
X159300051Y-119159860D03*
X160380012Y-131880012D03*
D24*
X160493933Y-121067472D03*
X161200000Y-121100000D03*
X167800000Y-121400000D03*
X167800000Y-120600000D03*
D23*
X168898615Y-123845425D03*
X167750000Y-119000000D03*
X159390046Y-130890046D03*
X158500000Y-118000000D03*
X139639813Y-130070987D03*
X138616609Y-117162877D03*
X137852352Y-117325008D03*
X138660236Y-130596550D03*
D24*
X129500000Y-121500000D03*
X129500000Y-120500000D03*
X137100000Y-121200000D03*
X136000000Y-121200000D03*
D23*
X145408186Y-119050021D03*
X145375010Y-129000000D03*
X143650637Y-152124989D03*
X144849477Y-152124989D03*
X148804511Y-120343821D03*
X148887241Y-123427179D03*
X150322627Y-119674980D03*
X150110561Y-122845656D03*
X146174980Y-122884602D03*
X146089621Y-115562723D03*
X147400000Y-123100000D03*
X145800000Y-116200000D03*
D24*
X154496266Y-112165482D03*
D23*
X152608568Y-135984328D03*
X154276374Y-114082732D03*
X153250000Y-136750000D03*
X140174925Y-119500032D03*
X147086122Y-125163295D03*
X139946308Y-116557117D03*
X131889292Y-116654897D03*
X146750000Y-120500000D03*
X142674980Y-116534440D03*
X143436945Y-122126110D03*
X148127058Y-122075020D03*
X132612859Y-117730469D03*
X148242553Y-125823337D03*
X155310318Y-140467599D03*
X155758822Y-128639112D03*
X155325000Y-143700000D03*
X142375000Y-145525000D03*
X141925000Y-149400000D03*
X137800000Y-149375000D03*
X133000000Y-148000000D03*
X136700000Y-144099989D03*
X138000000Y-133049981D03*
X136700000Y-139700000D03*
X133455482Y-149047357D03*
X132200000Y-143600000D03*
X144900514Y-123923995D03*
X144765262Y-112599428D03*
X152846233Y-112091489D03*
X149201300Y-124588275D03*
X159000000Y-81250000D03*
X155750000Y-127000000D03*
X117250000Y-95394445D03*
X142250000Y-125000000D03*
X152953153Y-124487057D03*
X154265010Y-77250000D03*
X156685251Y-123622200D03*
X157250000Y-127500000D03*
X140500000Y-134349968D03*
X159600000Y-146500000D03*
X157400000Y-152500000D03*
X134922336Y-135075020D03*
X132883350Y-139229086D03*
X134347326Y-136000000D03*
X141712050Y-133712050D03*
X142462487Y-126694566D03*
X144100000Y-128400000D03*
X144325000Y-139775000D03*
X144766184Y-135466184D03*
X128500000Y-89500000D03*
X143268249Y-125015709D03*
X143702736Y-129352601D03*
X141300000Y-127600000D03*
X157159307Y-149846106D03*
D25*
X157521252Y-124766139D03*
X166799930Y-107644303D03*
D23*
X196750000Y-148750000D03*
X196750000Y-147250000D03*
X196825020Y-145742000D03*
X197275031Y-143642171D03*
X193653170Y-124916142D03*
X194424980Y-125500000D03*
X150772638Y-121064134D03*
X137605021Y-81155001D03*
X194033976Y-126256562D03*
D25*
X175000000Y-91500000D03*
X157500000Y-69250000D03*
D24*
X156000000Y-73250000D03*
D23*
X164136059Y-93265120D03*
X144282174Y-124252129D03*
X143750000Y-112500000D03*
X150629545Y-126549813D03*
X149100000Y-135900000D03*
X143583691Y-124205890D03*
X196825020Y-139750000D03*
X194000000Y-134750000D03*
X194803160Y-138050000D03*
X194750000Y-136750000D03*
X197043011Y-142456990D03*
X193750000Y-133250000D03*
X194608996Y-128000000D03*
X196886657Y-141073456D03*
X197500000Y-137500000D03*
X188500000Y-130750000D03*
X196750000Y-118000000D03*
X193980511Y-131805803D03*
X196750000Y-121000000D03*
D26*
X193850000Y-130500000D02*
X192100000Y-130500000D01*
D27*
X165756501Y-130565685D02*
X165756501Y-130000000D01*
X166000000Y-141986889D02*
X165079232Y-141066121D01*
X165079232Y-139358958D02*
X164449917Y-138729643D01*
X164449917Y-138729643D02*
X164449917Y-135432106D01*
X165549989Y-134332034D02*
X165549989Y-130772197D01*
X166000000Y-152000000D02*
X166000000Y-141986889D01*
X165079232Y-141066121D02*
X165079232Y-139358958D01*
X165549989Y-130772197D02*
X165756501Y-130565685D01*
X164449917Y-135432106D02*
X165549989Y-134332034D01*
D28*
X155954613Y-112798878D02*
X155954613Y-110795385D01*
X155735250Y-113018241D02*
X155954613Y-112798878D01*
X155735250Y-125631697D02*
X155735250Y-113018241D01*
X155954613Y-110795385D02*
X155704614Y-110545386D01*
X155750000Y-126000000D02*
X155750000Y-125646447D01*
X155750000Y-125646447D02*
X155735250Y-125631697D01*
X155704614Y-110045386D02*
X156000000Y-109750000D01*
X155704614Y-110545386D02*
X155704614Y-110045386D01*
D27*
X159634371Y-148137999D02*
X157000000Y-148137999D01*
X157000000Y-148137999D02*
X136664930Y-148137999D01*
X136664930Y-148137999D02*
X134555552Y-150247377D01*
X134555552Y-150247377D02*
X132444447Y-150247377D01*
X129049988Y-125459549D02*
X129700000Y-124809537D01*
X129049988Y-139804168D02*
X129049988Y-125459549D01*
X132444447Y-150247377D02*
X129400001Y-147202931D01*
X129400001Y-147202931D02*
X129400001Y-140154181D01*
X129400001Y-140154181D02*
X129049988Y-139804168D01*
X131979508Y-121070492D02*
X132700000Y-120350000D01*
D29*
X132700000Y-120350000D02*
X133300684Y-120350000D01*
D27*
X131979508Y-122530029D02*
X131979508Y-121070492D01*
D29*
X133300684Y-120350000D02*
X133445875Y-120204809D01*
D27*
X129700000Y-124809537D02*
X131979508Y-122530029D01*
X159634371Y-148137999D02*
X161815853Y-148137999D01*
X161815853Y-148137999D02*
X165677854Y-152000000D01*
X165677854Y-152000000D02*
X166000000Y-152000000D01*
X167200010Y-123899386D02*
X167200010Y-127990806D01*
X166099990Y-122799366D02*
X167200010Y-123899386D01*
X166099990Y-121599990D02*
X166099990Y-122799366D01*
X165756501Y-129434315D02*
X165756501Y-130000000D01*
X167200010Y-127990806D02*
X165756501Y-129434315D01*
X164850000Y-120350000D02*
X166099990Y-121599990D01*
X164850000Y-120350000D02*
X164050000Y-120350000D01*
X159000000Y-149850000D02*
X159000000Y-148772370D01*
X159000000Y-148772370D02*
X159634371Y-148137999D01*
X162500000Y-133842677D02*
X162500000Y-128500000D01*
X161840209Y-137699133D02*
X161840209Y-134502468D01*
X161840209Y-134502468D02*
X162500000Y-133842677D01*
X162049895Y-140799895D02*
X162049895Y-137908820D01*
X162049895Y-137908820D02*
X161840209Y-137699133D01*
X162500000Y-141250000D02*
X162049895Y-140799895D01*
D30*
X133250000Y-126000000D02*
X133250000Y-127750000D01*
X133250000Y-127750000D02*
X136750000Y-131250000D01*
D28*
X167800000Y-92200000D02*
X169350001Y-93750001D01*
X169350001Y-93750001D02*
X169350001Y-105399999D01*
X168025023Y-106724977D02*
X168025023Y-115275023D01*
X169350001Y-105399999D02*
X168025023Y-106724977D01*
X168025023Y-115275023D02*
X170100019Y-117350019D01*
X170100019Y-117350019D02*
X170100019Y-124149981D01*
X170100019Y-124149981D02*
X169700020Y-124549980D01*
D27*
X162749999Y-122942860D02*
X162249980Y-122442841D01*
X162500000Y-128500000D02*
X162500000Y-128118045D01*
X162749999Y-127868046D02*
X162749999Y-122942860D01*
X162500000Y-128118045D02*
X162749999Y-127868046D01*
X133849998Y-142200000D02*
X130749999Y-139100001D01*
X156800000Y-142200000D02*
X133849998Y-142200000D01*
X130749999Y-126200001D02*
X131405325Y-125544675D01*
X130749999Y-139100001D02*
X130749999Y-126200001D01*
X134140627Y-122809373D02*
X134140627Y-122176564D01*
X131405325Y-125544675D02*
X134140627Y-122809373D01*
X134163120Y-122154071D02*
X134140627Y-122176564D01*
X134163120Y-121411800D02*
X134163120Y-122154071D01*
D28*
X164750000Y-123500000D02*
X165750000Y-124500000D01*
X165750000Y-124500000D02*
X165750000Y-126500000D01*
X164522738Y-123500000D02*
X164750000Y-123500000D01*
X163872221Y-122425219D02*
X163872221Y-122849483D01*
X163872221Y-122849483D02*
X164522738Y-123500000D01*
X166000000Y-92750000D02*
X166550000Y-92200000D01*
X166550000Y-92200000D02*
X167800000Y-92200000D01*
X166000000Y-102000000D02*
X166000000Y-92750000D01*
D27*
X162267602Y-122425219D02*
X162249980Y-122442841D01*
X163872221Y-122425219D02*
X162267602Y-122425219D01*
D30*
X131405325Y-125544675D02*
X132794675Y-125544675D01*
X132794675Y-125544675D02*
X133250000Y-126000000D01*
D29*
X155252033Y-83252033D02*
X155252033Y-79191007D01*
X162500000Y-90500000D02*
X155252033Y-83252033D01*
D28*
X167000000Y-133500000D02*
X169197070Y-131302930D01*
X169197070Y-131302930D02*
X169197070Y-126750000D01*
X167000000Y-135250000D02*
X167000000Y-133500000D01*
X166250000Y-136000000D02*
X167000000Y-135250000D01*
X166250000Y-137000000D02*
X166250000Y-136000000D01*
X164000000Y-133750000D02*
X164000000Y-129577107D01*
X164000000Y-129577107D02*
X164143971Y-129433136D01*
D29*
X170500000Y-105709101D02*
X169177462Y-107031639D01*
X170905344Y-89094656D02*
X170500000Y-89500000D01*
X170500000Y-89500000D02*
X170500000Y-105709101D01*
X164819705Y-87520000D02*
X166394361Y-89094656D01*
X166394361Y-89094656D02*
X170905344Y-89094656D01*
D26*
X162727914Y-114227914D02*
X162500000Y-114000000D01*
X154307428Y-121500000D02*
X154307428Y-119724974D01*
X166901038Y-111779769D02*
X166901038Y-112669852D01*
X165645903Y-110524634D02*
X166901038Y-111779769D01*
X151750000Y-127250000D02*
X151750000Y-133000000D01*
D29*
X137250000Y-129000000D02*
X137250000Y-124275000D01*
X137250000Y-124275000D02*
X137050000Y-124075000D01*
X162419047Y-152405285D02*
X162419047Y-150438278D01*
X162600000Y-152586238D02*
X162419047Y-152405285D01*
D26*
X141750001Y-113840605D02*
X142000000Y-114090604D01*
X141750000Y-111500000D02*
X141750001Y-113840605D01*
X165250000Y-115500000D02*
X162746168Y-118003832D01*
X162746168Y-118003832D02*
X162727914Y-118003832D01*
D29*
X161500000Y-124500000D02*
X161250000Y-124750000D01*
X161250000Y-124750000D02*
X161250000Y-132250000D01*
X161250000Y-132250000D02*
X160500000Y-133000000D01*
X160500000Y-133000000D02*
X158250000Y-133000000D01*
X157500000Y-133750000D02*
X157500000Y-134612524D01*
X158250000Y-133000000D02*
X157500000Y-133750000D01*
X157500000Y-134612524D02*
X158349427Y-135461951D01*
X163000000Y-121025020D02*
X163000000Y-120997070D01*
X163000000Y-120997070D02*
X162849990Y-120847060D01*
X162849990Y-120847060D02*
X162849990Y-118125908D01*
X162849990Y-118125908D02*
X162727914Y-118003832D01*
X160450000Y-146900000D02*
X160450000Y-146138443D01*
X160450000Y-146138443D02*
X159462291Y-145150734D01*
X159462291Y-145150734D02*
X159462291Y-140628062D01*
D26*
X155925000Y-137250000D02*
X157713049Y-135461951D01*
X157713049Y-135461951D02*
X158349427Y-135461951D01*
D30*
X158200000Y-135611378D02*
X158349427Y-135461951D01*
X158200000Y-138500000D02*
X158200000Y-135611378D01*
D28*
X161325763Y-151312001D02*
X162600000Y-152586238D01*
X162600000Y-152586238D02*
X164251761Y-154237999D01*
X158750000Y-152736238D02*
X160174237Y-151312001D01*
X164251761Y-154237999D02*
X167315629Y-154237999D01*
X160174237Y-151312001D02*
X161325763Y-151312001D01*
X167315629Y-154237999D02*
X167700000Y-154622370D01*
X167700000Y-154622370D02*
X167700000Y-155700000D01*
X159000000Y-153150000D02*
X159000000Y-152986238D01*
X159000000Y-152986238D02*
X158750000Y-152736238D01*
D29*
X141250000Y-146500000D02*
X140928230Y-146178230D01*
X150500000Y-145750000D02*
X149750000Y-146500000D01*
X140928230Y-146178230D02*
X140928230Y-143750000D01*
X138875000Y-143750000D02*
X140928230Y-143750000D01*
X149750000Y-146500000D02*
X141250000Y-146500000D01*
D26*
X159522674Y-138984360D02*
X159522674Y-137200000D01*
X160275217Y-139736903D02*
X159522674Y-138984360D01*
X160275217Y-144973681D02*
X160275217Y-139736903D01*
D30*
X159790187Y-136690187D02*
X159522674Y-136957700D01*
X158924264Y-134200000D02*
X159790187Y-135065923D01*
X159790187Y-135065923D02*
X159790187Y-136690187D01*
X158500000Y-134200000D02*
X158924264Y-134200000D01*
X159522674Y-136957700D02*
X159522674Y-137200000D01*
D26*
X154000000Y-116250000D02*
X153732418Y-116517582D01*
X153732418Y-116517582D02*
X153732418Y-121000000D01*
X157520008Y-146775000D02*
X157700020Y-146594988D01*
X152325000Y-146775000D02*
X157520008Y-146775000D01*
D29*
X132250000Y-138750000D02*
X132250000Y-138500000D01*
X132250000Y-138500000D02*
X133750000Y-137000000D01*
X125500000Y-94500000D02*
X125148934Y-94148934D01*
X125148934Y-94148934D02*
X123241412Y-94148934D01*
X125500000Y-99250000D02*
X125500000Y-94500000D01*
D26*
X140624936Y-120500000D02*
X140624936Y-120146447D01*
X140749945Y-120021438D02*
X140749945Y-117891531D01*
X140749945Y-117891531D02*
X140782091Y-117859385D01*
X140624936Y-120146447D02*
X140749945Y-120021438D01*
D29*
X168120283Y-130908293D02*
X166883333Y-132145243D01*
X168120283Y-129376466D02*
X168120283Y-130908293D01*
D26*
X168510319Y-123262980D02*
X168277742Y-123495557D01*
X168277742Y-128794743D02*
X168120283Y-128952202D01*
X168120283Y-128952202D02*
X168120283Y-129376466D01*
X168277742Y-123495557D02*
X168277742Y-128794743D01*
D29*
X138405143Y-70844857D02*
X132500000Y-76750000D01*
X133099705Y-82847919D02*
X132500000Y-82248214D01*
X132500000Y-76750000D02*
X123241412Y-86008588D01*
X133099705Y-84050000D02*
X133099705Y-82847919D01*
X132500000Y-82248214D02*
X132500000Y-76750000D01*
X173758588Y-85508588D02*
X163750000Y-75500000D01*
X163750000Y-75500000D02*
X159084857Y-70834857D01*
X163900295Y-84050000D02*
X163900295Y-75650295D01*
X163900295Y-75650295D02*
X163750000Y-75500000D01*
X173758588Y-94148934D02*
X173758588Y-85508588D01*
X159084857Y-70834857D02*
X153415682Y-70834857D01*
X143574318Y-70844857D02*
X138405143Y-70844857D01*
X123241412Y-86008588D02*
X123241412Y-94148934D01*
X152500000Y-68250000D02*
X153415682Y-69165682D01*
X153415682Y-69165682D02*
X153415682Y-70834857D01*
X144250000Y-68250000D02*
X152500000Y-68250000D01*
X143574318Y-68925682D02*
X144250000Y-68250000D01*
X143574318Y-70844857D02*
X143574318Y-68925682D01*
D26*
X149900000Y-126606048D02*
X149828939Y-126534987D01*
X149900000Y-129775000D02*
X149900000Y-126606048D01*
X149900000Y-129775000D02*
X149900000Y-134200000D01*
X144800000Y-129800000D02*
X144800000Y-128181077D01*
X144800000Y-128181077D02*
X142738488Y-126119565D01*
X142738488Y-126119565D02*
X141891348Y-126119565D01*
X141891348Y-126119565D02*
X141310913Y-126700000D01*
X181800000Y-95500000D02*
X182200000Y-95100000D01*
X180400000Y-95500000D02*
X181800000Y-95500000D01*
X178900000Y-97000000D02*
X180400000Y-95500000D01*
X178900000Y-98000000D02*
X178900000Y-97000000D01*
X176900000Y-100000000D02*
X178900000Y-98000000D01*
D29*
X171500000Y-100000000D02*
X171500000Y-130822150D01*
X171500000Y-90500000D02*
X171500000Y-100000000D01*
D26*
X171500000Y-100000000D02*
X176900000Y-100000000D01*
D29*
X163090228Y-135450575D02*
X163249906Y-135610253D01*
X163249906Y-140034291D02*
X163829212Y-140613597D01*
X163090228Y-135026311D02*
X163090228Y-135450575D01*
X164402687Y-148874831D02*
X163829212Y-148301356D01*
X163249906Y-135610253D02*
X163249906Y-140034291D01*
X163829212Y-148301356D02*
X163829212Y-140613597D01*
X171500000Y-130822150D02*
X168094128Y-134228022D01*
X131947388Y-151447388D02*
X128219656Y-147719656D01*
X136726811Y-151447388D02*
X131947388Y-151447388D01*
X147700000Y-153400000D02*
X145724969Y-151424969D01*
X145724969Y-151424969D02*
X140795382Y-151424969D01*
X140795382Y-151424969D02*
X136749230Y-151424969D01*
X136749230Y-151424969D02*
X136726811Y-151447388D01*
X147700000Y-153400000D02*
X149517939Y-151582061D01*
X149517939Y-151582061D02*
X157696014Y-151582061D01*
X157696014Y-151582061D02*
X157719817Y-151605864D01*
X157719817Y-151605864D02*
X158144081Y-151605864D01*
X160849875Y-139144820D02*
X160849875Y-139498373D01*
X160400000Y-134153553D02*
X160640197Y-134393750D01*
X160640197Y-138935142D02*
X160849875Y-139144820D01*
X160640197Y-134393750D02*
X160640197Y-138935142D01*
X160400000Y-133800000D02*
X160400000Y-134153553D01*
D26*
X143071307Y-154608862D02*
X143071307Y-154047590D01*
X142330169Y-155350000D02*
X143071307Y-154608862D01*
X117150000Y-152050000D02*
X120450000Y-155350000D01*
X120450000Y-155350000D02*
X142330169Y-155350000D01*
X142197382Y-156125020D02*
X143760245Y-154562157D01*
X127100000Y-156125020D02*
X142197382Y-156125020D01*
X143760245Y-154562157D02*
X143760245Y-154171612D01*
X166277498Y-138488897D02*
X166277498Y-138842450D01*
X166154243Y-140620840D02*
X167075010Y-141541606D01*
X166277498Y-138842450D02*
X166154243Y-138965705D01*
X171662799Y-152000000D02*
X177533406Y-152000000D01*
X166154243Y-138965705D02*
X166154243Y-140620840D01*
X167075010Y-149075010D02*
X167750000Y-149750000D01*
X178750000Y-153216594D02*
X178750000Y-155725000D01*
X167075010Y-141541606D02*
X167075010Y-149075010D01*
X167750000Y-149750000D02*
X169412799Y-149750000D01*
X169412799Y-149750000D02*
X171662799Y-152000000D01*
X177533406Y-152000000D02*
X178750000Y-153216594D01*
X167886410Y-149250000D02*
X167525020Y-148888610D01*
X178182079Y-151500000D02*
X171886410Y-151500000D01*
X181732079Y-155050000D02*
X178182079Y-151500000D01*
X171886410Y-151500000D02*
X169636410Y-149250000D01*
X169636410Y-149250000D02*
X167886410Y-149250000D01*
X182825000Y-155050000D02*
X181732079Y-155050000D01*
X167525020Y-140842941D02*
X166793030Y-140110951D01*
X167525020Y-148888610D02*
X167525020Y-140842941D01*
X151797669Y-121971280D02*
X151794062Y-121974887D01*
X158404855Y-107199955D02*
X157631831Y-107972980D01*
X164033707Y-107199955D02*
X158404855Y-107199955D01*
X157631831Y-107972980D02*
X155337457Y-107972980D01*
X155337457Y-107972980D02*
X153421235Y-109889202D01*
X153421235Y-112814045D02*
X151797669Y-114437611D01*
X164158716Y-107074946D02*
X164033707Y-107199955D01*
X153421235Y-109889202D02*
X153421235Y-112814045D01*
X151797669Y-114437611D02*
X151797669Y-121971280D01*
X127095508Y-100450010D02*
X114950010Y-100450010D01*
X114950010Y-100450010D02*
X114500000Y-100000000D01*
X132000000Y-105354502D02*
X127095508Y-100450010D01*
X132000000Y-109174989D02*
X132000000Y-105354502D01*
X143250000Y-113250000D02*
X143174999Y-113174999D01*
X143174999Y-113174999D02*
X143174999Y-110274988D01*
X143174999Y-110274988D02*
X143150011Y-110250000D01*
X143250000Y-120734911D02*
X143250000Y-113250000D01*
X143604168Y-121442632D02*
X143604168Y-121089079D01*
X143604168Y-121089079D02*
X143250000Y-120734911D01*
D29*
X134500000Y-81249990D02*
X134500000Y-86100000D01*
D26*
X134500000Y-86100000D02*
X134360000Y-86240000D01*
X158725031Y-121488526D02*
X158725031Y-118831582D01*
X158725031Y-118831582D02*
X159073267Y-118483346D01*
X159885029Y-131385029D02*
X160135028Y-131135030D01*
X160135028Y-131135030D02*
X160135028Y-122898523D01*
X160135028Y-122898523D02*
X158725031Y-121488526D01*
X160630011Y-131630013D02*
X160630011Y-122757095D01*
X160630011Y-122757095D02*
X159300051Y-121427135D01*
X159300051Y-121427135D02*
X159300051Y-119159860D01*
X160380012Y-131880012D02*
X160630011Y-131630013D01*
D27*
X160793932Y-120767473D02*
X160793932Y-116698934D01*
X163280001Y-110374999D02*
X164500000Y-111594998D01*
X159719999Y-110374999D02*
X163280001Y-110374999D01*
X158750000Y-111344998D02*
X159719999Y-110374999D01*
X158750000Y-114655002D02*
X158750000Y-111344998D01*
X160793932Y-116698934D02*
X158750000Y-114655002D01*
X160493933Y-121067472D02*
X160793932Y-120767473D01*
X164500000Y-111594998D02*
X164500000Y-112000000D01*
X160526461Y-121100000D02*
X160493933Y-121067472D01*
X161200000Y-121100000D02*
X160526461Y-121100000D01*
X166549998Y-114299998D02*
X166250000Y-114000000D01*
X166250000Y-114000000D02*
X164500000Y-114000000D01*
X166549998Y-119576002D02*
X166549998Y-114299998D01*
X167500001Y-120300001D02*
X167800000Y-120600000D01*
X166549998Y-119576002D02*
X167273997Y-120300001D01*
X167273997Y-120300001D02*
X167500001Y-120300001D01*
X167800000Y-120600000D02*
X167800000Y-121400000D01*
D26*
X169101093Y-120351093D02*
X169101093Y-123642947D01*
X169101093Y-123642947D02*
X168898615Y-123845425D01*
X167750000Y-119000000D02*
X169101093Y-120351093D01*
X158275020Y-122700493D02*
X159390046Y-123815519D01*
X158500000Y-118000000D02*
X158500000Y-118353553D01*
X158500000Y-118353553D02*
X158275020Y-118578533D01*
X159390046Y-123815519D02*
X159390046Y-130890046D01*
X158275020Y-118578533D02*
X158275020Y-122700493D01*
X139639813Y-119815922D02*
X139639813Y-130070987D01*
X138616609Y-117162877D02*
X138616609Y-118792718D01*
X138616609Y-118792718D02*
X139639813Y-119815922D01*
X138660236Y-130242997D02*
X139188253Y-129714980D01*
X138660236Y-130596550D02*
X138660236Y-130242997D01*
X137852352Y-118664872D02*
X137852352Y-117325008D01*
X139188253Y-129714980D02*
X139188253Y-120000773D01*
X139188253Y-120000773D02*
X137852352Y-118664872D01*
D27*
X129500000Y-112594998D02*
X129500000Y-120500000D01*
X135280001Y-110374999D02*
X131719999Y-110374999D01*
X136500000Y-111594998D02*
X135280001Y-110374999D01*
X136500000Y-112000000D02*
X136500000Y-111594998D01*
X131719999Y-110374999D02*
X129500000Y-112594998D01*
X129500000Y-120500000D02*
X129500000Y-121500000D01*
X136000000Y-121200000D02*
X137100000Y-121200000D01*
X136500000Y-114000000D02*
X136500000Y-120700000D01*
X136500000Y-120700000D02*
X136000000Y-121200000D01*
D26*
X145408186Y-123618019D02*
X145408186Y-119050021D01*
X145625009Y-128750001D02*
X145625009Y-123834842D01*
X145375010Y-129000000D02*
X145625009Y-128750001D01*
X145625009Y-123834842D02*
X145408186Y-123618019D01*
X135755011Y-152124989D02*
X143650637Y-152124989D01*
X133880000Y-154000000D02*
X135755011Y-152124989D01*
X144149467Y-152824999D02*
X144849477Y-152124989D01*
X137595001Y-152824999D02*
X144149467Y-152824999D01*
X136420000Y-154000000D02*
X137595001Y-152824999D01*
X148887241Y-120426551D02*
X148804511Y-120343821D01*
X148887241Y-123427179D02*
X148887241Y-120426551D01*
X150110561Y-122845656D02*
X150110561Y-119887046D01*
X150110561Y-119887046D02*
X150322627Y-119674980D01*
X146174980Y-117474980D02*
X146174980Y-122884602D01*
X145224999Y-115923999D02*
X145224999Y-116524999D01*
X145586275Y-115562723D02*
X145224999Y-115923999D01*
X146089621Y-115562723D02*
X145586275Y-115562723D01*
X145224999Y-116524999D02*
X146174980Y-117474980D01*
X145800000Y-116200000D02*
X147400000Y-117800000D01*
X147400000Y-117800000D02*
X147400000Y-123100000D01*
X153528155Y-135064741D02*
X153528155Y-122265570D01*
X152608568Y-135984328D02*
X153528155Y-135064741D01*
X152697691Y-114810411D02*
X154418635Y-113089467D01*
X152697691Y-121435106D02*
X152697691Y-114810411D01*
X154418635Y-112243113D02*
X154496266Y-112165482D01*
X154418635Y-113089467D02*
X154418635Y-112243113D01*
X153528155Y-122265570D02*
X152697691Y-121435106D01*
X153250000Y-136750000D02*
X153989602Y-136010398D01*
X153989602Y-136010398D02*
X153989602Y-122090606D01*
X153989602Y-122090606D02*
X153147702Y-121248706D01*
X153147702Y-121248706D02*
X153147702Y-115211404D01*
X153147702Y-115211404D02*
X154276374Y-114082732D01*
X139946308Y-116557117D02*
X139946308Y-119271415D01*
X139946308Y-119271415D02*
X140174925Y-119500032D01*
X146750000Y-124827173D02*
X147086122Y-125163295D01*
X146750000Y-120500000D02*
X146750000Y-124827173D01*
X131499999Y-116265604D02*
X131889292Y-116654897D01*
X132500000Y-112000000D02*
X131499999Y-113000001D01*
X131499999Y-113000001D02*
X131499999Y-116265604D01*
X142799989Y-116659449D02*
X142674980Y-116534440D01*
X142799989Y-121489154D02*
X142799989Y-116659449D01*
X143436945Y-122126110D02*
X142799989Y-121489154D01*
X148242553Y-122190515D02*
X148127058Y-122075020D01*
X148242553Y-125823337D02*
X148242553Y-122190515D01*
X132612859Y-115067453D02*
X132612859Y-117730469D01*
X132500000Y-114954594D02*
X132612859Y-115067453D01*
X132500000Y-114000000D02*
X132500000Y-114954594D01*
X155310318Y-135326093D02*
X155310318Y-140467599D01*
X155758822Y-134877589D02*
X155310318Y-135326093D01*
X155758822Y-128639112D02*
X155758822Y-134877589D01*
X142375000Y-145525000D02*
X144200000Y-143700000D01*
X144200000Y-143700000D02*
X155325000Y-143700000D01*
X137800000Y-149375000D02*
X137825000Y-149400000D01*
X137825000Y-149400000D02*
X141925000Y-149400000D01*
D29*
X134300000Y-145200000D02*
X134300000Y-146700000D01*
X134300000Y-146700000D02*
X133000000Y-148000000D01*
X135400011Y-144099989D02*
X134300000Y-145200000D01*
X136700000Y-144099989D02*
X135400011Y-144099989D01*
X138000000Y-138400000D02*
X138000000Y-133049981D01*
X136700000Y-139700000D02*
X138000000Y-138400000D01*
X133054838Y-149047357D02*
X133455482Y-149047357D01*
X132200000Y-143600000D02*
X132200000Y-148192519D01*
X132200000Y-148192519D02*
X133054838Y-149047357D01*
D26*
X144900514Y-120913101D02*
X144900514Y-123923995D01*
X144765262Y-112599428D02*
X144765262Y-120777849D01*
X144765262Y-120777849D02*
X144900514Y-120913101D01*
X151347658Y-113590064D02*
X152846233Y-112091489D01*
X151219060Y-122570515D02*
X151219060Y-121698885D01*
X149201300Y-124588275D02*
X151219060Y-122570515D01*
X151219060Y-121698885D02*
X151347658Y-121570287D01*
X151347658Y-121570287D02*
X151347658Y-113590064D01*
X164644038Y-108099977D02*
X165183747Y-107560268D01*
X165174329Y-92080372D02*
X159000000Y-85906043D01*
X165183747Y-107560268D02*
X165183747Y-106635466D01*
X165183747Y-106635466D02*
X165174329Y-106626048D01*
X155658268Y-108924992D02*
X157952642Y-108924991D01*
X158777656Y-108099977D02*
X164644038Y-108099977D01*
X159000000Y-85906043D02*
X159000000Y-81250000D01*
X157952642Y-108924991D02*
X158777656Y-108099977D01*
X154879603Y-109703656D02*
X155658268Y-108924992D01*
X154879603Y-111623817D02*
X154879603Y-109703656D01*
X155121267Y-111865481D02*
X154879603Y-111623817D01*
X155121267Y-112465483D02*
X155121267Y-111865481D01*
X165174329Y-106626048D02*
X165174329Y-92080372D01*
X154882430Y-112704320D02*
X155121267Y-112465483D01*
X154882430Y-126485983D02*
X154882430Y-112704320D01*
X155750000Y-127000000D02*
X155396447Y-127000000D01*
X155396447Y-127000000D02*
X154882430Y-126485983D01*
X141449956Y-124199956D02*
X141449956Y-117433242D01*
X127281908Y-100000000D02*
X120000000Y-100000000D01*
X142250000Y-125000000D02*
X141449956Y-124199956D01*
X141449956Y-117433242D02*
X140549989Y-116533275D01*
X120000000Y-100000000D02*
X119000000Y-99000000D01*
X140549989Y-116533275D02*
X140549989Y-113268081D01*
X140549989Y-113268081D02*
X127281908Y-100000000D01*
X119000000Y-99000000D02*
X119000000Y-97144445D01*
X119000000Y-97144445D02*
X117250000Y-95394445D01*
X152247680Y-114624011D02*
X152247680Y-121621506D01*
X164408745Y-107649966D02*
X158591255Y-107649966D01*
X153871246Y-113000445D02*
X152247680Y-114624011D01*
X153871246Y-110075602D02*
X153871246Y-113000445D01*
X164724318Y-106812448D02*
X164733736Y-106821866D01*
X155471868Y-108474981D02*
X153871246Y-110075602D01*
X157766240Y-108474981D02*
X155471868Y-108474981D01*
X158591255Y-107649966D02*
X157766240Y-108474981D01*
X152247680Y-121621506D02*
X152953153Y-122326979D01*
X164733736Y-106821866D02*
X164733736Y-107324975D01*
X162199998Y-91125002D02*
X162875002Y-91125002D01*
X162875002Y-91125002D02*
X164724318Y-92974318D01*
X154265010Y-83190014D02*
X162199998Y-91125002D01*
X152953153Y-122326979D02*
X152953153Y-124487057D01*
X164733736Y-107324975D02*
X164408745Y-107649966D01*
X164724318Y-92974318D02*
X164724318Y-106812448D01*
X154265010Y-77250000D02*
X154265010Y-83190014D01*
X156685251Y-126935251D02*
X156685251Y-123622200D01*
X157250000Y-127500000D02*
X156685251Y-126935251D01*
X139500000Y-141100000D02*
X138800000Y-140400000D01*
X138800000Y-136049968D02*
X140500000Y-134349968D01*
X158100000Y-141100000D02*
X139500000Y-141100000D01*
X158325001Y-145225001D02*
X158325001Y-141325001D01*
X159600000Y-146500000D02*
X158325001Y-145225001D01*
X138800000Y-140400000D02*
X138800000Y-136049968D01*
X158325001Y-141325001D02*
X158100000Y-141100000D01*
X157400000Y-152500000D02*
X157400000Y-152853553D01*
X157400000Y-152853553D02*
X157103553Y-153150000D01*
X157103553Y-153150000D02*
X155000000Y-153150000D01*
X134922336Y-137190100D02*
X134922336Y-135075020D01*
X132883350Y-139229086D02*
X134922336Y-137190100D01*
X135525029Y-132474971D02*
X134347326Y-133652674D01*
X134347326Y-133652674D02*
X134347326Y-136000000D01*
X141712050Y-133712050D02*
X140474971Y-132474971D01*
X140474971Y-132474971D02*
X135525029Y-132474971D01*
X144100000Y-128400000D02*
X144100000Y-128332079D01*
X144100000Y-128332079D02*
X142462487Y-126694566D01*
X144875000Y-139000000D02*
X144325000Y-139550000D01*
X144325000Y-139550000D02*
X144325000Y-139775000D01*
X144875000Y-135928553D02*
X144875000Y-139000000D01*
X144766184Y-135466184D02*
X144766184Y-135819737D01*
X144766184Y-135819737D02*
X144875000Y-135928553D01*
X128500000Y-89500000D02*
X128500000Y-87720000D01*
X128500000Y-87720000D02*
X130900000Y-85320000D01*
X141899967Y-123647427D02*
X143268249Y-125015709D01*
X130900000Y-85320000D02*
X130900000Y-102981681D01*
X141000000Y-116346875D02*
X141899967Y-117246842D01*
X141899967Y-117246842D02*
X141899967Y-123647427D01*
X130900000Y-102981681D02*
X141000000Y-113081681D01*
X141000000Y-113081681D02*
X141000000Y-116346875D01*
X141950135Y-127600000D02*
X143702736Y-129352601D01*
X141300000Y-127600000D02*
X141950135Y-127600000D01*
X155000000Y-149850000D02*
X157155413Y-149850000D01*
X157155413Y-149850000D02*
X157159307Y-149846106D01*
D28*
X157921251Y-123513465D02*
X157921251Y-124366140D01*
X157921251Y-124366140D02*
X157521252Y-124766139D01*
X157281454Y-122873668D02*
X157921251Y-123513465D01*
X157281454Y-110762919D02*
X157281454Y-122873668D01*
X159119385Y-108924988D02*
X157281454Y-110762919D01*
X166799930Y-107644303D02*
X165519245Y-108924988D01*
X165519245Y-108924988D02*
X159119385Y-108924988D01*
X166799930Y-106003000D02*
X166799930Y-107644303D01*
X167800000Y-94740000D02*
X167800000Y-105002930D01*
X167800000Y-105002930D02*
X166799930Y-106003000D01*
D26*
X197500000Y-148750000D02*
X196750000Y-148750000D01*
X197500000Y-147250000D02*
X196750000Y-147250000D01*
X197500000Y-145750000D02*
X196833020Y-145750000D01*
X196833020Y-145750000D02*
X196825020Y-145742000D01*
X197275031Y-144025031D02*
X197275031Y-143995724D01*
X197500000Y-144250000D02*
X197275031Y-144025031D01*
X197275031Y-143995724D02*
X197275031Y-143642171D01*
X196319312Y-122250000D02*
X193653170Y-124916142D01*
X197500000Y-122250000D02*
X196319312Y-122250000D01*
X194674979Y-125250001D02*
X194424980Y-125500000D01*
X197500000Y-125250000D02*
X194674979Y-125250001D01*
X150772638Y-120710581D02*
X150772638Y-121064134D01*
X150897647Y-117179442D02*
X150897647Y-120585572D01*
X142153722Y-108435517D02*
X150897647Y-117179442D01*
X132250000Y-94750000D02*
X132250000Y-103000000D01*
X137605021Y-81155001D02*
X137605021Y-89394979D01*
X132250000Y-103000000D02*
X137685517Y-108435517D01*
X137605021Y-89394979D02*
X132250000Y-94750000D01*
X150897647Y-120585572D02*
X150772638Y-120710581D01*
X137685517Y-108435517D02*
X142153722Y-108435517D01*
X197500000Y-128950000D02*
X194279823Y-128950000D01*
X194033976Y-128704153D02*
X194033976Y-126256562D01*
X194279823Y-128950000D02*
X194033976Y-128704153D01*
D29*
X159899999Y-69649999D02*
X175000000Y-84750000D01*
X175000000Y-84750000D02*
X175000000Y-91500000D01*
X157500000Y-69250000D02*
X157899999Y-69649999D01*
X157899999Y-69649999D02*
X159899999Y-69649999D01*
X156000000Y-73250000D02*
X153800000Y-73250000D01*
X153800000Y-73250000D02*
X153690000Y-73360000D01*
D26*
X144282174Y-123898576D02*
X144282174Y-124252129D01*
X143750000Y-112500000D02*
X143750000Y-120363589D01*
X144325001Y-120938590D02*
X144325001Y-123855749D01*
X143750000Y-120363589D02*
X144325001Y-120938590D01*
X144325001Y-123855749D02*
X144282174Y-123898576D01*
X163703705Y-93265120D02*
X153690000Y-83251415D01*
X164136059Y-93265120D02*
X163703705Y-93265120D01*
X153690000Y-83251415D02*
X153690000Y-73360000D01*
X150629545Y-134370455D02*
X150629545Y-126549813D01*
X149100000Y-135900000D02*
X150629545Y-134370455D01*
X137030020Y-79639980D02*
X137030020Y-89333570D01*
X131799989Y-103186400D02*
X137520183Y-108906593D01*
X142349978Y-117060442D02*
X142349978Y-122972177D01*
X142575001Y-115783415D02*
X142099978Y-116258438D01*
X142099978Y-116810442D02*
X142349978Y-117060442D01*
X142349978Y-122972177D02*
X143583691Y-124205890D01*
X141988388Y-108906593D02*
X142575001Y-109493206D01*
X137520183Y-108906593D02*
X141988388Y-108906593D01*
X137030020Y-89333570D02*
X131799989Y-94563600D01*
X142099978Y-116258438D02*
X142099978Y-116810442D01*
X131799989Y-94563600D02*
X131799989Y-103186400D01*
X143300000Y-73370000D02*
X137030020Y-79639980D01*
X142575001Y-109493206D02*
X142575001Y-115783415D01*
D29*
X145825682Y-73635143D02*
X151165143Y-73635143D01*
X151165143Y-73635143D02*
X151170000Y-73640000D01*
X121170000Y-97090000D02*
X120090000Y-97090000D01*
X120090000Y-97090000D02*
X118250000Y-95250000D01*
X118250000Y-95250000D02*
X118250000Y-85250000D01*
X156750000Y-64250000D02*
X178500000Y-86000000D01*
X118250000Y-85250000D02*
X139250000Y-64250000D01*
X139250000Y-64250000D02*
X156750000Y-64250000D01*
X178500000Y-86000000D02*
X178500000Y-94660586D01*
X178500000Y-94660586D02*
X176969519Y-96191067D01*
X176969519Y-96191067D02*
X176721411Y-96191067D01*
X176721411Y-96191067D02*
X175821412Y-97091066D01*
D26*
X190000000Y-134500000D02*
X188750000Y-134500000D01*
X190614998Y-138050000D02*
X194803160Y-138050000D01*
X188750000Y-134500000D02*
X188491545Y-134758455D01*
X188491545Y-134758455D02*
X188491545Y-135926547D01*
X188491545Y-135926547D02*
X190614998Y-138050000D01*
X197500000Y-139750000D02*
X196825020Y-139750000D01*
X197500000Y-139750000D02*
X198125000Y-139750000D01*
X198125000Y-139750000D02*
X198500000Y-140125000D01*
X198500000Y-140125000D02*
X198500000Y-142375000D01*
X198500000Y-142375000D02*
X198125000Y-142750000D01*
X198125000Y-142750000D02*
X197500000Y-142750000D01*
X194750000Y-134750000D02*
X194000000Y-134750000D01*
X194750000Y-136750000D02*
X194750000Y-134750000D01*
X194750000Y-136750000D02*
X194750000Y-137996840D01*
X194750000Y-137996840D02*
X194803160Y-138050000D01*
X197293010Y-142706989D02*
X197043011Y-142456990D01*
X197500000Y-142750000D02*
X197336021Y-142750000D01*
X197336021Y-142750000D02*
X197293010Y-142706989D01*
X191500000Y-135500000D02*
X193750000Y-133250000D01*
X190000000Y-135500000D02*
X191500000Y-135500000D01*
X196250000Y-138875000D02*
X196250000Y-140625000D01*
X196250000Y-140625000D02*
X196875000Y-141250000D01*
X196875000Y-141250000D02*
X197500000Y-141250000D01*
X197500000Y-138250000D02*
X196875000Y-138250000D01*
X196875000Y-138250000D02*
X196250000Y-138875000D01*
X198750000Y-129200000D02*
X198750000Y-136250000D01*
X198750000Y-136250000D02*
X197500000Y-137500000D01*
X197500000Y-128050000D02*
X197600000Y-128050000D01*
X197600000Y-128050000D02*
X198750000Y-129200000D01*
X194658996Y-128050000D02*
X194608996Y-128000000D01*
X197500000Y-128050000D02*
X194658996Y-128050000D01*
X197500000Y-141250000D02*
X197323456Y-141073456D01*
X197240210Y-141073456D02*
X196886657Y-141073456D01*
X197323456Y-141073456D02*
X197240210Y-141073456D01*
X197500000Y-138250000D02*
X197500000Y-137500000D01*
X197500000Y-128050000D02*
X197500000Y-126750000D01*
X198500000Y-126500000D02*
X198250000Y-126750000D01*
X198250000Y-126750000D02*
X197500000Y-126750000D01*
X198500000Y-124000000D02*
X198500000Y-126500000D01*
X198250000Y-123750000D02*
X198500000Y-124000000D01*
X197500000Y-123750000D02*
X198250000Y-123750000D01*
X188500000Y-133250000D02*
X188500000Y-130750000D01*
X190000000Y-133500000D02*
X188750000Y-133500000D01*
X188750000Y-133500000D02*
X188500000Y-133250000D01*
X197500000Y-118050000D02*
X196800000Y-118050000D01*
X196800000Y-118050000D02*
X196750000Y-118000000D01*
X193286314Y-132500000D02*
X193980511Y-131805803D01*
X190000000Y-132500000D02*
X193286314Y-132500000D01*
X197500000Y-120950000D02*
X196800000Y-120950000D01*
X196800000Y-120950000D02*
X196750000Y-121000000D01*
X189075002Y-131131083D02*
X189075002Y-127824998D01*
X189075002Y-127824998D02*
X197500000Y-119400000D01*
X197500000Y-119400000D02*
X197500000Y-118950000D01*
X197500000Y-118950000D02*
X197500000Y-120050000D01*
D31*
G36*
X131453000Y-105581076D02*
X131453000Y-108771513D01*
X131430639Y-108793835D01*
X131328117Y-109040734D01*
X131327908Y-109280991D01*
X131271494Y-109292212D01*
X130891270Y-109546270D01*
X128671271Y-111766269D01*
X128417213Y-112146493D01*
X128415142Y-112156904D01*
X128333754Y-112035099D01*
X128180627Y-111932782D01*
X128000000Y-111896853D01*
X126000000Y-111896853D01*
X125819373Y-111932782D01*
X125666246Y-112035099D01*
X125563929Y-112188226D01*
X125528000Y-112368853D01*
X125528000Y-114468853D01*
X125563929Y-114649480D01*
X125666246Y-114802607D01*
X125819373Y-114904924D01*
X126000000Y-114940853D01*
X128000000Y-114940853D01*
X128180627Y-114904924D01*
X128328000Y-114806452D01*
X128328000Y-121500000D01*
X128417213Y-121948505D01*
X128671271Y-122328729D01*
X129051495Y-122582787D01*
X129500000Y-122672000D01*
X129948505Y-122582787D01*
X130328729Y-122328729D01*
X130582787Y-121948505D01*
X130672000Y-121500000D01*
X130672000Y-113080456D01*
X131060795Y-112691661D01*
X130994637Y-112790673D01*
X130952999Y-113000001D01*
X130952999Y-116265604D01*
X130988796Y-116445569D01*
X130994637Y-116474932D01*
X131113212Y-116652391D01*
X131217204Y-116756383D01*
X131217176Y-116787980D01*
X131319266Y-117035057D01*
X131508138Y-117224258D01*
X131755037Y-117326780D01*
X132022375Y-117327013D01*
X132065859Y-117309046D01*
X132065859Y-117326993D01*
X132043498Y-117349315D01*
X131940976Y-117596214D01*
X131940743Y-117863552D01*
X132042833Y-118110629D01*
X132231705Y-118299830D01*
X132478604Y-118402352D01*
X132745942Y-118402585D01*
X132993019Y-118300495D01*
X133182220Y-118111623D01*
X133284742Y-117864724D01*
X133284975Y-117597386D01*
X133182885Y-117350309D01*
X133159859Y-117327243D01*
X133159859Y-115067453D01*
X133125996Y-114897214D01*
X133275696Y-114797188D01*
X133500000Y-114461494D01*
X133724304Y-114797188D01*
X134080196Y-115034988D01*
X134500000Y-115118492D01*
X134919804Y-115034988D01*
X135275696Y-114797188D01*
X135328000Y-114718910D01*
X135328000Y-120214542D01*
X135171271Y-120371271D01*
X135010800Y-120611433D01*
X134991849Y-120583071D01*
X134611625Y-120329013D01*
X134167844Y-120240740D01*
X134168000Y-120061824D01*
X134058314Y-119796363D01*
X133855389Y-119593084D01*
X133590120Y-119482934D01*
X133471199Y-119482830D01*
X133148505Y-119267213D01*
X132700000Y-119178000D01*
X132251495Y-119267213D01*
X131871271Y-119521271D01*
X131150779Y-120241763D01*
X130896721Y-120621987D01*
X130807508Y-121070492D01*
X130807508Y-122044571D01*
X128221259Y-124630820D01*
X127967201Y-125011044D01*
X127877988Y-125459549D01*
X127877988Y-135696853D01*
X126000000Y-135696853D01*
X125819373Y-135732782D01*
X125666246Y-135835099D01*
X125563929Y-135988226D01*
X125528000Y-136168853D01*
X125528000Y-138268853D01*
X125563929Y-138449480D01*
X125666246Y-138602607D01*
X125819373Y-138704924D01*
X126000000Y-138740853D01*
X127877988Y-138740853D01*
X127877988Y-139804168D01*
X127948188Y-140157090D01*
X127582444Y-139912708D01*
X127000000Y-139796853D01*
X126417556Y-139912708D01*
X125923783Y-140242636D01*
X125593855Y-140736409D01*
X125478000Y-141318853D01*
X125593855Y-141901297D01*
X125923783Y-142395070D01*
X126417556Y-142724998D01*
X127000000Y-142840853D01*
X127582444Y-142724998D01*
X128076217Y-142395070D01*
X128228001Y-142167909D01*
X128228001Y-146997663D01*
X128076671Y-146997531D01*
X127811210Y-147107217D01*
X127607931Y-147310142D01*
X127497781Y-147575411D01*
X127497531Y-147862641D01*
X127607217Y-148128102D01*
X127810142Y-148331381D01*
X127931366Y-148381718D01*
X131472212Y-151922564D01*
X131690224Y-152068235D01*
X131947388Y-152119388D01*
X134987038Y-152119388D01*
X134316517Y-152789909D01*
X133880000Y-152703080D01*
X133393227Y-152799905D01*
X132980560Y-153075640D01*
X132704825Y-153488307D01*
X132608000Y-153975080D01*
X132608000Y-154024920D01*
X132704825Y-154511693D01*
X132899470Y-154803000D01*
X120676575Y-154803000D01*
X117822088Y-151948514D01*
X117822116Y-151916917D01*
X117720026Y-151669840D01*
X117531154Y-151480639D01*
X117284255Y-151378117D01*
X117016917Y-151377884D01*
X116769840Y-151479974D01*
X116580639Y-151668846D01*
X116478117Y-151915745D01*
X116477884Y-152183083D01*
X116579974Y-152430160D01*
X116768846Y-152619361D01*
X117015745Y-152721883D01*
X117048337Y-152721911D01*
X120063213Y-155736788D01*
X120169592Y-155807868D01*
X120240672Y-155855362D01*
X120450000Y-155897000D01*
X126467052Y-155897000D01*
X126428117Y-155990765D01*
X126427884Y-156258103D01*
X126529974Y-156505180D01*
X126718846Y-156694381D01*
X126965745Y-156796903D01*
X127233083Y-156797136D01*
X127480160Y-156695046D01*
X127503226Y-156672020D01*
X142197382Y-156672020D01*
X142406710Y-156630382D01*
X142584169Y-156511807D01*
X144147032Y-154948944D01*
X144265607Y-154771485D01*
X144275890Y-154719787D01*
X144304036Y-154578292D01*
X144329606Y-154552766D01*
X144432128Y-154305867D01*
X144432361Y-154038529D01*
X144330271Y-153791452D01*
X144141399Y-153602251D01*
X143894500Y-153499729D01*
X143627162Y-153499496D01*
X143518508Y-153544391D01*
X143452461Y-153478229D01*
X143205562Y-153375707D01*
X142938224Y-153375474D01*
X142780267Y-153440740D01*
X142780267Y-153371999D01*
X143875305Y-153371999D01*
X143900000Y-153377000D01*
X146726649Y-153377000D01*
X147224697Y-153875048D01*
X147224822Y-153875174D01*
X147224826Y-153875178D01*
X147318846Y-153969361D01*
X147565745Y-154071883D01*
X147699995Y-154072000D01*
X147700000Y-154072001D01*
X147700005Y-154072000D01*
X147833083Y-154072116D01*
X148080160Y-153970026D01*
X148175174Y-153875178D01*
X148175623Y-153874729D01*
X148269361Y-153781154D01*
X148269477Y-153780875D01*
X149796291Y-152254061D01*
X152221612Y-152254061D01*
X151996839Y-152478442D01*
X151816206Y-152913455D01*
X151815795Y-153384479D01*
X151995668Y-153819806D01*
X152328442Y-154153161D01*
X152763455Y-154333794D01*
X153234479Y-154334205D01*
X153669806Y-154154332D01*
X154000284Y-153824430D01*
X154328442Y-154153161D01*
X154763455Y-154333794D01*
X155234479Y-154334205D01*
X155669806Y-154154332D01*
X156003161Y-153821558D01*
X156054882Y-153697000D01*
X157103553Y-153697000D01*
X157312881Y-153655362D01*
X157490340Y-153536787D01*
X157614402Y-153412726D01*
X157618638Y-153497368D01*
X157777603Y-153881143D01*
X158019787Y-153950608D01*
X158820395Y-153150000D01*
X159179605Y-153150000D01*
X159980213Y-153950608D01*
X160093737Y-153918046D01*
X160328442Y-154153161D01*
X160763455Y-154333794D01*
X161234479Y-154334205D01*
X161669806Y-154154332D01*
X162003161Y-153821558D01*
X162183794Y-153386545D01*
X162184205Y-152915521D01*
X162004332Y-152480194D01*
X161671558Y-152146839D01*
X161236545Y-151966206D01*
X160765521Y-151965795D01*
X160330194Y-152145668D01*
X160093550Y-152381900D01*
X159980213Y-152349392D01*
X159179605Y-153150000D01*
X158820395Y-153150000D01*
X158806253Y-153135858D01*
X158985858Y-152956253D01*
X159000000Y-152970395D01*
X159800608Y-152169787D01*
X159731143Y-151927603D01*
X159207698Y-151740856D01*
X159077000Y-151747398D01*
X159077000Y-151034068D01*
X159234479Y-151034205D01*
X159669806Y-150854332D01*
X160000284Y-150524430D01*
X160328442Y-150853161D01*
X160763455Y-151033794D01*
X161234479Y-151034205D01*
X161669806Y-150854332D01*
X162003161Y-150521558D01*
X162161245Y-150140849D01*
X164827947Y-152807551D01*
X164914340Y-153241876D01*
X165169072Y-153623109D01*
X165550305Y-153877841D01*
X166000000Y-153967291D01*
X166449695Y-153877841D01*
X166830928Y-153623109D01*
X167000000Y-153370075D01*
X167169072Y-153623109D01*
X167550305Y-153877841D01*
X168000000Y-153967291D01*
X168449695Y-153877841D01*
X168830928Y-153623109D01*
X169085660Y-153241876D01*
X169175110Y-152792181D01*
X169175110Y-151207819D01*
X169085660Y-150758124D01*
X168830928Y-150376891D01*
X168711363Y-150297000D01*
X169186225Y-150297000D01*
X171276012Y-152386788D01*
X171368379Y-152448505D01*
X171453471Y-152505362D01*
X171662799Y-152547000D01*
X177306832Y-152547000D01*
X178203000Y-153443169D01*
X178203000Y-155321524D01*
X178180639Y-155343846D01*
X178078117Y-155590745D01*
X178077884Y-155858083D01*
X178179974Y-156105160D01*
X178368846Y-156294361D01*
X178615745Y-156396883D01*
X178883083Y-156397116D01*
X179130160Y-156295026D01*
X179319361Y-156106154D01*
X179421883Y-155859255D01*
X179422116Y-155591917D01*
X179320026Y-155344840D01*
X179297000Y-155321774D01*
X179297000Y-153388495D01*
X181345291Y-155436787D01*
X181470419Y-155520395D01*
X181522751Y-155555362D01*
X181732079Y-155597000D01*
X182421524Y-155597000D01*
X182443846Y-155619361D01*
X182690745Y-155721883D01*
X182958083Y-155722116D01*
X183205160Y-155620026D01*
X183394361Y-155431154D01*
X183496883Y-155184255D01*
X183497116Y-154916917D01*
X183395026Y-154669840D01*
X183206154Y-154480639D01*
X182959255Y-154378117D01*
X182691917Y-154377884D01*
X182444840Y-154479974D01*
X182421774Y-154503000D01*
X181958654Y-154503000D01*
X178568866Y-151113213D01*
X178391407Y-150994638D01*
X178385309Y-150993425D01*
X178182079Y-150953000D01*
X172112985Y-150953000D01*
X170023197Y-148863213D01*
X169845738Y-148744638D01*
X169636410Y-148703000D01*
X168112985Y-148703000D01*
X168072020Y-148662036D01*
X168072020Y-147727000D01*
X171777582Y-147727000D01*
X171819373Y-147754924D01*
X172000000Y-147790853D01*
X180329113Y-147790853D01*
X186028000Y-152539926D01*
X186028000Y-154000000D01*
X186063929Y-154180627D01*
X186110283Y-154250000D01*
X186063929Y-154319373D01*
X186028000Y-154500000D01*
X186028000Y-156846853D01*
X168452811Y-156846853D01*
X168500608Y-156680213D01*
X167700000Y-155879605D01*
X167685858Y-155893748D01*
X167506253Y-155714143D01*
X167520395Y-155700000D01*
X167879605Y-155700000D01*
X168680213Y-156500608D01*
X168922397Y-156431143D01*
X169109144Y-155907698D01*
X169081362Y-155352632D01*
X168922397Y-154968857D01*
X168680213Y-154899392D01*
X167879605Y-155700000D01*
X167520395Y-155700000D01*
X167506253Y-155685858D01*
X167685858Y-155506253D01*
X167700000Y-155520395D01*
X168500608Y-154719787D01*
X168431143Y-154477603D01*
X167907698Y-154290856D01*
X167352632Y-154318638D01*
X166968857Y-154477603D01*
X166899393Y-154719785D01*
X166784382Y-154604774D01*
X166715567Y-154673589D01*
X166336545Y-154516206D01*
X165865521Y-154515795D01*
X165430194Y-154695668D01*
X165096839Y-155028442D01*
X164916206Y-155463455D01*
X164915795Y-155934479D01*
X165095668Y-156369806D01*
X165428442Y-156703161D01*
X165774491Y-156846853D01*
X162726855Y-156846853D01*
X160868570Y-154523997D01*
X160848400Y-154507019D01*
X160833754Y-154485099D01*
X160778508Y-154448184D01*
X160727677Y-154405396D01*
X160702548Y-154397429D01*
X160680627Y-154382782D01*
X160615459Y-154369819D01*
X160552124Y-154349740D01*
X160525857Y-154351996D01*
X160500000Y-154346853D01*
X159738470Y-154346853D01*
X159800608Y-154130213D01*
X159000000Y-153329605D01*
X158199392Y-154130213D01*
X158261530Y-154346853D01*
X153500000Y-154346853D01*
X153319373Y-154382782D01*
X153173916Y-154479974D01*
X153166246Y-154485099D01*
X150804492Y-156846853D01*
X110972000Y-156846853D01*
X110972000Y-152539926D01*
X116670887Y-147790853D01*
X125000000Y-147790853D01*
X125180627Y-147754924D01*
X125333754Y-147652607D01*
X125436071Y-147499480D01*
X125472000Y-147318853D01*
X125472000Y-109318853D01*
X125478000Y-109318853D01*
X125593855Y-109901297D01*
X125923783Y-110395070D01*
X126417556Y-110724998D01*
X127000000Y-110840853D01*
X127582444Y-110724998D01*
X128076217Y-110395070D01*
X128406145Y-109901297D01*
X128522000Y-109318853D01*
X128406145Y-108736409D01*
X128076217Y-108242636D01*
X127582444Y-107912708D01*
X127000000Y-107796853D01*
X126417556Y-107912708D01*
X125923783Y-108242636D01*
X125593855Y-108736409D01*
X125478000Y-109318853D01*
X125472000Y-109318853D01*
X125472000Y-102127000D01*
X127998924Y-102127000D01*
X131453000Y-105581076D01*
X131453000Y-105581076D01*
G37*
X131453000Y-105581076D02*
X131453000Y-108771513D01*
X131430639Y-108793835D01*
X131328117Y-109040734D01*
X131327908Y-109280991D01*
X131271494Y-109292212D01*
X130891270Y-109546270D01*
X128671271Y-111766269D01*
X128417213Y-112146493D01*
X128415142Y-112156904D01*
X128333754Y-112035099D01*
X128180627Y-111932782D01*
X128000000Y-111896853D01*
X126000000Y-111896853D01*
X125819373Y-111932782D01*
X125666246Y-112035099D01*
X125563929Y-112188226D01*
X125528000Y-112368853D01*
X125528000Y-114468853D01*
X125563929Y-114649480D01*
X125666246Y-114802607D01*
X125819373Y-114904924D01*
X126000000Y-114940853D01*
X128000000Y-114940853D01*
X128180627Y-114904924D01*
X128328000Y-114806452D01*
X128328000Y-121500000D01*
X128417213Y-121948505D01*
X128671271Y-122328729D01*
X129051495Y-122582787D01*
X129500000Y-122672000D01*
X129948505Y-122582787D01*
X130328729Y-122328729D01*
X130582787Y-121948505D01*
X130672000Y-121500000D01*
X130672000Y-113080456D01*
X131060795Y-112691661D01*
X130994637Y-112790673D01*
X130952999Y-113000001D01*
X130952999Y-116265604D01*
X130988796Y-116445569D01*
X130994637Y-116474932D01*
X131113212Y-116652391D01*
X131217204Y-116756383D01*
X131217176Y-116787980D01*
X131319266Y-117035057D01*
X131508138Y-117224258D01*
X131755037Y-117326780D01*
X132022375Y-117327013D01*
X132065859Y-117309046D01*
X132065859Y-117326993D01*
X132043498Y-117349315D01*
X131940976Y-117596214D01*
X131940743Y-117863552D01*
X132042833Y-118110629D01*
X132231705Y-118299830D01*
X132478604Y-118402352D01*
X132745942Y-118402585D01*
X132993019Y-118300495D01*
X133182220Y-118111623D01*
X133284742Y-117864724D01*
X133284975Y-117597386D01*
X133182885Y-117350309D01*
X133159859Y-117327243D01*
X133159859Y-115067453D01*
X133125996Y-114897214D01*
X133275696Y-114797188D01*
X133500000Y-114461494D01*
X133724304Y-114797188D01*
X134080196Y-115034988D01*
X134500000Y-115118492D01*
X134919804Y-115034988D01*
X135275696Y-114797188D01*
X135328000Y-114718910D01*
X135328000Y-120214542D01*
X135171271Y-120371271D01*
X135010800Y-120611433D01*
X134991849Y-120583071D01*
X134611625Y-120329013D01*
X134167844Y-120240740D01*
X134168000Y-120061824D01*
X134058314Y-119796363D01*
X133855389Y-119593084D01*
X133590120Y-119482934D01*
X133471199Y-119482830D01*
X133148505Y-119267213D01*
X132700000Y-119178000D01*
X132251495Y-119267213D01*
X131871271Y-119521271D01*
X131150779Y-120241763D01*
X130896721Y-120621987D01*
X130807508Y-121070492D01*
X130807508Y-122044571D01*
X128221259Y-124630820D01*
X127967201Y-125011044D01*
X127877988Y-125459549D01*
X127877988Y-135696853D01*
X126000000Y-135696853D01*
X125819373Y-135732782D01*
X125666246Y-135835099D01*
X125563929Y-135988226D01*
X125528000Y-136168853D01*
X125528000Y-138268853D01*
X125563929Y-138449480D01*
X125666246Y-138602607D01*
X125819373Y-138704924D01*
X126000000Y-138740853D01*
X127877988Y-138740853D01*
X127877988Y-139804168D01*
X127948188Y-140157090D01*
X127582444Y-139912708D01*
X127000000Y-139796853D01*
X126417556Y-139912708D01*
X125923783Y-140242636D01*
X125593855Y-140736409D01*
X125478000Y-141318853D01*
X125593855Y-141901297D01*
X125923783Y-142395070D01*
X126417556Y-142724998D01*
X127000000Y-142840853D01*
X127582444Y-142724998D01*
X128076217Y-142395070D01*
X128228001Y-142167909D01*
X128228001Y-146997663D01*
X128076671Y-146997531D01*
X127811210Y-147107217D01*
X127607931Y-147310142D01*
X127497781Y-147575411D01*
X127497531Y-147862641D01*
X127607217Y-148128102D01*
X127810142Y-148331381D01*
X127931366Y-148381718D01*
X131472212Y-151922564D01*
X131690224Y-152068235D01*
X131947388Y-152119388D01*
X134987038Y-152119388D01*
X134316517Y-152789909D01*
X133880000Y-152703080D01*
X133393227Y-152799905D01*
X132980560Y-153075640D01*
X132704825Y-153488307D01*
X132608000Y-153975080D01*
X132608000Y-154024920D01*
X132704825Y-154511693D01*
X132899470Y-154803000D01*
X120676575Y-154803000D01*
X117822088Y-151948514D01*
X117822116Y-151916917D01*
X117720026Y-151669840D01*
X117531154Y-151480639D01*
X117284255Y-151378117D01*
X117016917Y-151377884D01*
X116769840Y-151479974D01*
X116580639Y-151668846D01*
X116478117Y-151915745D01*
X116477884Y-152183083D01*
X116579974Y-152430160D01*
X116768846Y-152619361D01*
X117015745Y-152721883D01*
X117048337Y-152721911D01*
X120063213Y-155736788D01*
X120169592Y-155807868D01*
X120240672Y-155855362D01*
X120450000Y-155897000D01*
X126467052Y-155897000D01*
X126428117Y-155990765D01*
X126427884Y-156258103D01*
X126529974Y-156505180D01*
X126718846Y-156694381D01*
X126965745Y-156796903D01*
X127233083Y-156797136D01*
X127480160Y-156695046D01*
X127503226Y-156672020D01*
X142197382Y-156672020D01*
X142406710Y-156630382D01*
X142584169Y-156511807D01*
X144147032Y-154948944D01*
X144265607Y-154771485D01*
X144275890Y-154719787D01*
X144304036Y-154578292D01*
X144329606Y-154552766D01*
X144432128Y-154305867D01*
X144432361Y-154038529D01*
X144330271Y-153791452D01*
X144141399Y-153602251D01*
X143894500Y-153499729D01*
X143627162Y-153499496D01*
X143518508Y-153544391D01*
X143452461Y-153478229D01*
X143205562Y-153375707D01*
X142938224Y-153375474D01*
X142780267Y-153440740D01*
X142780267Y-153371999D01*
X143875305Y-153371999D01*
X143900000Y-153377000D01*
X146726649Y-153377000D01*
X147224697Y-153875048D01*
X147224822Y-153875174D01*
X147224826Y-153875178D01*
X147318846Y-153969361D01*
X147565745Y-154071883D01*
X147699995Y-154072000D01*
X147700000Y-154072001D01*
X147700005Y-154072000D01*
X147833083Y-154072116D01*
X148080160Y-153970026D01*
X148175174Y-153875178D01*
X148175623Y-153874729D01*
X148269361Y-153781154D01*
X148269477Y-153780875D01*
X149796291Y-152254061D01*
X152221612Y-152254061D01*
X151996839Y-152478442D01*
X151816206Y-152913455D01*
X151815795Y-153384479D01*
X151995668Y-153819806D01*
X152328442Y-154153161D01*
X152763455Y-154333794D01*
X153234479Y-154334205D01*
X153669806Y-154154332D01*
X154000284Y-153824430D01*
X154328442Y-154153161D01*
X154763455Y-154333794D01*
X155234479Y-154334205D01*
X155669806Y-154154332D01*
X156003161Y-153821558D01*
X156054882Y-153697000D01*
X157103553Y-153697000D01*
X157312881Y-153655362D01*
X157490340Y-153536787D01*
X157614402Y-153412726D01*
X157618638Y-153497368D01*
X157777603Y-153881143D01*
X158019787Y-153950608D01*
X158820395Y-153150000D01*
X159179605Y-153150000D01*
X159980213Y-153950608D01*
X160093737Y-153918046D01*
X160328442Y-154153161D01*
X160763455Y-154333794D01*
X161234479Y-154334205D01*
X161669806Y-154154332D01*
X162003161Y-153821558D01*
X162183794Y-153386545D01*
X162184205Y-152915521D01*
X162004332Y-152480194D01*
X161671558Y-152146839D01*
X161236545Y-151966206D01*
X160765521Y-151965795D01*
X160330194Y-152145668D01*
X160093550Y-152381900D01*
X159980213Y-152349392D01*
X159179605Y-153150000D01*
X158820395Y-153150000D01*
X158806253Y-153135858D01*
X158985858Y-152956253D01*
X159000000Y-152970395D01*
X159800608Y-152169787D01*
X159731143Y-151927603D01*
X159207698Y-151740856D01*
X159077000Y-151747398D01*
X159077000Y-151034068D01*
X159234479Y-151034205D01*
X159669806Y-150854332D01*
X160000284Y-150524430D01*
X160328442Y-150853161D01*
X160763455Y-151033794D01*
X161234479Y-151034205D01*
X161669806Y-150854332D01*
X162003161Y-150521558D01*
X162161245Y-150140849D01*
X164827947Y-152807551D01*
X164914340Y-153241876D01*
X165169072Y-153623109D01*
X165550305Y-153877841D01*
X166000000Y-153967291D01*
X166449695Y-153877841D01*
X166830928Y-153623109D01*
X167000000Y-153370075D01*
X167169072Y-153623109D01*
X167550305Y-153877841D01*
X168000000Y-153967291D01*
X168449695Y-153877841D01*
X168830928Y-153623109D01*
X169085660Y-153241876D01*
X169175110Y-152792181D01*
X169175110Y-151207819D01*
X169085660Y-150758124D01*
X168830928Y-150376891D01*
X168711363Y-150297000D01*
X169186225Y-150297000D01*
X171276012Y-152386788D01*
X171368379Y-152448505D01*
X171453471Y-152505362D01*
X171662799Y-152547000D01*
X177306832Y-152547000D01*
X178203000Y-153443169D01*
X178203000Y-155321524D01*
X178180639Y-155343846D01*
X178078117Y-155590745D01*
X178077884Y-155858083D01*
X178179974Y-156105160D01*
X178368846Y-156294361D01*
X178615745Y-156396883D01*
X178883083Y-156397116D01*
X179130160Y-156295026D01*
X179319361Y-156106154D01*
X179421883Y-155859255D01*
X179422116Y-155591917D01*
X179320026Y-155344840D01*
X179297000Y-155321774D01*
X179297000Y-153388495D01*
X181345291Y-155436787D01*
X181470419Y-155520395D01*
X181522751Y-155555362D01*
X181732079Y-155597000D01*
X182421524Y-155597000D01*
X182443846Y-155619361D01*
X182690745Y-155721883D01*
X182958083Y-155722116D01*
X183205160Y-155620026D01*
X183394361Y-155431154D01*
X183496883Y-155184255D01*
X183497116Y-154916917D01*
X183395026Y-154669840D01*
X183206154Y-154480639D01*
X182959255Y-154378117D01*
X182691917Y-154377884D01*
X182444840Y-154479974D01*
X182421774Y-154503000D01*
X181958654Y-154503000D01*
X178568866Y-151113213D01*
X178391407Y-150994638D01*
X178385309Y-150993425D01*
X178182079Y-150953000D01*
X172112985Y-150953000D01*
X170023197Y-148863213D01*
X169845738Y-148744638D01*
X169636410Y-148703000D01*
X168112985Y-148703000D01*
X168072020Y-148662036D01*
X168072020Y-147727000D01*
X171777582Y-147727000D01*
X171819373Y-147754924D01*
X172000000Y-147790853D01*
X180329113Y-147790853D01*
X186028000Y-152539926D01*
X186028000Y-154000000D01*
X186063929Y-154180627D01*
X186110283Y-154250000D01*
X186063929Y-154319373D01*
X186028000Y-154500000D01*
X186028000Y-156846853D01*
X168452811Y-156846853D01*
X168500608Y-156680213D01*
X167700000Y-155879605D01*
X167685858Y-155893748D01*
X167506253Y-155714143D01*
X167520395Y-155700000D01*
X167879605Y-155700000D01*
X168680213Y-156500608D01*
X168922397Y-156431143D01*
X169109144Y-155907698D01*
X169081362Y-155352632D01*
X168922397Y-154968857D01*
X168680213Y-154899392D01*
X167879605Y-155700000D01*
X167520395Y-155700000D01*
X167506253Y-155685858D01*
X167685858Y-155506253D01*
X167700000Y-155520395D01*
X168500608Y-154719787D01*
X168431143Y-154477603D01*
X167907698Y-154290856D01*
X167352632Y-154318638D01*
X166968857Y-154477603D01*
X166899393Y-154719785D01*
X166784382Y-154604774D01*
X166715567Y-154673589D01*
X166336545Y-154516206D01*
X165865521Y-154515795D01*
X165430194Y-154695668D01*
X165096839Y-155028442D01*
X164916206Y-155463455D01*
X164915795Y-155934479D01*
X165095668Y-156369806D01*
X165428442Y-156703161D01*
X165774491Y-156846853D01*
X162726855Y-156846853D01*
X160868570Y-154523997D01*
X160848400Y-154507019D01*
X160833754Y-154485099D01*
X160778508Y-154448184D01*
X160727677Y-154405396D01*
X160702548Y-154397429D01*
X160680627Y-154382782D01*
X160615459Y-154369819D01*
X160552124Y-154349740D01*
X160525857Y-154351996D01*
X160500000Y-154346853D01*
X159738470Y-154346853D01*
X159800608Y-154130213D01*
X159000000Y-153329605D01*
X158199392Y-154130213D01*
X158261530Y-154346853D01*
X153500000Y-154346853D01*
X153319373Y-154382782D01*
X153173916Y-154479974D01*
X153166246Y-154485099D01*
X150804492Y-156846853D01*
X110972000Y-156846853D01*
X110972000Y-152539926D01*
X116670887Y-147790853D01*
X125000000Y-147790853D01*
X125180627Y-147754924D01*
X125333754Y-147652607D01*
X125436071Y-147499480D01*
X125472000Y-147318853D01*
X125472000Y-109318853D01*
X125478000Y-109318853D01*
X125593855Y-109901297D01*
X125923783Y-110395070D01*
X126417556Y-110724998D01*
X127000000Y-110840853D01*
X127582444Y-110724998D01*
X128076217Y-110395070D01*
X128406145Y-109901297D01*
X128522000Y-109318853D01*
X128406145Y-108736409D01*
X128076217Y-108242636D01*
X127582444Y-107912708D01*
X127000000Y-107796853D01*
X126417556Y-107912708D01*
X125923783Y-108242636D01*
X125593855Y-108736409D01*
X125478000Y-109318853D01*
X125472000Y-109318853D01*
X125472000Y-102127000D01*
X127998924Y-102127000D01*
X131453000Y-105581076D01*
G36*
X139087000Y-153873000D02*
X139107000Y-153873000D01*
X139107000Y-154127000D01*
X139087000Y-154127000D01*
X139087000Y-154147000D01*
X138833000Y-154147000D01*
X138833000Y-154127000D01*
X138813000Y-154127000D01*
X138813000Y-153873000D01*
X138833000Y-153873000D01*
X138833000Y-153853000D01*
X139087000Y-153853000D01*
X139087000Y-153873000D01*
X139087000Y-153873000D01*
G37*
X139087000Y-153873000D02*
X139107000Y-153873000D01*
X139107000Y-154127000D01*
X139087000Y-154127000D01*
X139087000Y-154147000D01*
X138833000Y-154147000D01*
X138833000Y-154127000D01*
X138813000Y-154127000D01*
X138813000Y-153873000D01*
X138833000Y-153873000D01*
X138833000Y-153853000D01*
X139087000Y-153853000D01*
X139087000Y-153873000D01*
G36*
X138641253Y-129488405D02*
X138273449Y-129856210D01*
X138154874Y-130033669D01*
X138125627Y-130180705D01*
X138090875Y-130215396D01*
X137988353Y-130462295D01*
X137988120Y-130729633D01*
X138090210Y-130976710D01*
X138279082Y-131165911D01*
X138525981Y-131268433D01*
X138793319Y-131268666D01*
X139040396Y-131166576D01*
X139073000Y-131134029D01*
X139073000Y-131927971D01*
X137186475Y-131927971D01*
X137331241Y-131831241D01*
X137509429Y-131564565D01*
X137572000Y-131250000D01*
X137509429Y-130935434D01*
X137331241Y-130668758D01*
X134072000Y-127409516D01*
X134072000Y-126000000D01*
X134009429Y-125685434D01*
X133831242Y-125418758D01*
X133509971Y-125097487D01*
X134969356Y-123638102D01*
X135223414Y-123257878D01*
X135312627Y-122809373D01*
X135312627Y-122627000D01*
X138641253Y-122627000D01*
X138641253Y-129488405D01*
X138641253Y-129488405D01*
G37*
X138641253Y-129488405D02*
X138273449Y-129856210D01*
X138154874Y-130033669D01*
X138125627Y-130180705D01*
X138090875Y-130215396D01*
X137988353Y-130462295D01*
X137988120Y-130729633D01*
X138090210Y-130976710D01*
X138279082Y-131165911D01*
X138525981Y-131268433D01*
X138793319Y-131268666D01*
X139040396Y-131166576D01*
X139073000Y-131134029D01*
X139073000Y-131927971D01*
X137186475Y-131927971D01*
X137331241Y-131831241D01*
X137509429Y-131564565D01*
X137572000Y-131250000D01*
X137509429Y-130935434D01*
X137331241Y-130668758D01*
X134072000Y-127409516D01*
X134072000Y-126000000D01*
X134009429Y-125685434D01*
X133831242Y-125418758D01*
X133509971Y-125097487D01*
X134969356Y-123638102D01*
X135223414Y-123257878D01*
X135312627Y-122809373D01*
X135312627Y-122627000D01*
X138641253Y-122627000D01*
X138641253Y-129488405D01*
G36*
X134627000Y-111873000D02*
X134647000Y-111873000D01*
X134647000Y-112127000D01*
X134627000Y-112127000D01*
X134627000Y-112147000D01*
X134373000Y-112147000D01*
X134373000Y-112127000D01*
X134353000Y-112127000D01*
X134353000Y-111873000D01*
X134373000Y-111873000D01*
X134373000Y-111853000D01*
X134627000Y-111853000D01*
X134627000Y-111873000D01*
X134627000Y-111873000D01*
G37*
X134627000Y-111873000D02*
X134647000Y-111873000D01*
X134647000Y-112127000D01*
X134627000Y-112127000D01*
X134627000Y-112147000D01*
X134373000Y-112147000D01*
X134373000Y-112127000D01*
X134353000Y-112127000D01*
X134353000Y-111873000D01*
X134373000Y-111873000D01*
X134373000Y-111853000D01*
X134627000Y-111853000D01*
X134627000Y-111873000D01*
G36*
X165352998Y-116247091D02*
X165352998Y-119576002D01*
X165444114Y-120034074D01*
X165703591Y-120422409D01*
X166427590Y-121146408D01*
X166603000Y-121263613D01*
X166603000Y-121400000D01*
X166694116Y-121858072D01*
X166953593Y-122246407D01*
X167341928Y-122505884D01*
X167800000Y-122597000D01*
X168258072Y-122505884D01*
X168529093Y-122324794D01*
X168529093Y-122565996D01*
X168372285Y-122565859D01*
X168116016Y-122671748D01*
X167919776Y-122867646D01*
X167813440Y-123123730D01*
X167813390Y-123180719D01*
X167749283Y-123276662D01*
X167705742Y-123495557D01*
X167705742Y-128562817D01*
X167591824Y-128733307D01*
X167563232Y-128877048D01*
X167487376Y-128952772D01*
X167373413Y-129227227D01*
X167373153Y-129524402D01*
X167423283Y-129645725D01*
X167423283Y-130619586D01*
X166580933Y-131461936D01*
X166460744Y-131511598D01*
X166250426Y-131721549D01*
X166136463Y-131996004D01*
X166136203Y-132293179D01*
X166249688Y-132567832D01*
X166421148Y-132739592D01*
X166330370Y-132830370D01*
X166125086Y-133137599D01*
X166053000Y-133500000D01*
X166053000Y-134857740D01*
X165580370Y-135330370D01*
X165375086Y-135637599D01*
X165303000Y-136000000D01*
X165303000Y-137000000D01*
X165375086Y-137362401D01*
X165580370Y-137669630D01*
X165887599Y-137874914D01*
X165921794Y-137881716D01*
X165883195Y-137897665D01*
X165686955Y-138093563D01*
X165580619Y-138349647D01*
X165580377Y-138626931D01*
X165628334Y-138742994D01*
X165625784Y-138746810D01*
X165582243Y-138965705D01*
X165582243Y-140620840D01*
X165625784Y-140839735D01*
X165749778Y-141025305D01*
X166503010Y-141778536D01*
X166503010Y-146773000D01*
X164526212Y-146773000D01*
X164526212Y-140882937D01*
X164576082Y-140762836D01*
X164576342Y-140465661D01*
X164462857Y-140191008D01*
X164252906Y-139980690D01*
X164131671Y-139930349D01*
X163946906Y-139745585D01*
X163946906Y-135610253D01*
X163893850Y-135343523D01*
X163815833Y-135226762D01*
X163837098Y-135175550D01*
X163837358Y-134878375D01*
X163741139Y-134645509D01*
X164000000Y-134697000D01*
X164362401Y-134624914D01*
X164669630Y-134419630D01*
X164874914Y-134112401D01*
X164947000Y-133750000D01*
X164947000Y-129903120D01*
X165018885Y-129795537D01*
X165090971Y-129433136D01*
X165018885Y-129070734D01*
X164813601Y-128763506D01*
X164506373Y-128558222D01*
X164143971Y-128486136D01*
X163781570Y-128558222D01*
X163697000Y-128614730D01*
X163697000Y-128563903D01*
X163855883Y-128326118D01*
X163946999Y-127868046D01*
X163946999Y-124232366D01*
X164160337Y-124374914D01*
X164316771Y-124406031D01*
X164803000Y-124892260D01*
X164803000Y-126500000D01*
X164875086Y-126862401D01*
X165080370Y-127169630D01*
X165387599Y-127374914D01*
X165750000Y-127447000D01*
X166112401Y-127374914D01*
X166419630Y-127169630D01*
X166624914Y-126862401D01*
X166697000Y-126500000D01*
X166697000Y-124500000D01*
X166624914Y-124137599D01*
X166419630Y-123830370D01*
X165419630Y-122830370D01*
X165112401Y-122625086D01*
X165032622Y-122609217D01*
X165069221Y-122425219D01*
X164978105Y-121967147D01*
X164718628Y-121578812D01*
X164330293Y-121319335D01*
X163872221Y-121228219D01*
X163670325Y-121228219D01*
X163696879Y-121164270D01*
X163697121Y-120886986D01*
X163654664Y-120784233D01*
X163651108Y-120766355D01*
X163643944Y-120730339D01*
X163613681Y-120685047D01*
X163591232Y-120630717D01*
X163549335Y-120588746D01*
X163546990Y-120585238D01*
X163546990Y-118125908D01*
X163528081Y-118030849D01*
X165311875Y-116247055D01*
X165352998Y-116247091D01*
X165352998Y-116247091D01*
G37*
X165352998Y-116247091D02*
X165352998Y-119576002D01*
X165444114Y-120034074D01*
X165703591Y-120422409D01*
X166427590Y-121146408D01*
X166603000Y-121263613D01*
X166603000Y-121400000D01*
X166694116Y-121858072D01*
X166953593Y-122246407D01*
X167341928Y-122505884D01*
X167800000Y-122597000D01*
X168258072Y-122505884D01*
X168529093Y-122324794D01*
X168529093Y-122565996D01*
X168372285Y-122565859D01*
X168116016Y-122671748D01*
X167919776Y-122867646D01*
X167813440Y-123123730D01*
X167813390Y-123180719D01*
X167749283Y-123276662D01*
X167705742Y-123495557D01*
X167705742Y-128562817D01*
X167591824Y-128733307D01*
X167563232Y-128877048D01*
X167487376Y-128952772D01*
X167373413Y-129227227D01*
X167373153Y-129524402D01*
X167423283Y-129645725D01*
X167423283Y-130619586D01*
X166580933Y-131461936D01*
X166460744Y-131511598D01*
X166250426Y-131721549D01*
X166136463Y-131996004D01*
X166136203Y-132293179D01*
X166249688Y-132567832D01*
X166421148Y-132739592D01*
X166330370Y-132830370D01*
X166125086Y-133137599D01*
X166053000Y-133500000D01*
X166053000Y-134857740D01*
X165580370Y-135330370D01*
X165375086Y-135637599D01*
X165303000Y-136000000D01*
X165303000Y-137000000D01*
X165375086Y-137362401D01*
X165580370Y-137669630D01*
X165887599Y-137874914D01*
X165921794Y-137881716D01*
X165883195Y-137897665D01*
X165686955Y-138093563D01*
X165580619Y-138349647D01*
X165580377Y-138626931D01*
X165628334Y-138742994D01*
X165625784Y-138746810D01*
X165582243Y-138965705D01*
X165582243Y-140620840D01*
X165625784Y-140839735D01*
X165749778Y-141025305D01*
X166503010Y-141778536D01*
X166503010Y-146773000D01*
X164526212Y-146773000D01*
X164526212Y-140882937D01*
X164576082Y-140762836D01*
X164576342Y-140465661D01*
X164462857Y-140191008D01*
X164252906Y-139980690D01*
X164131671Y-139930349D01*
X163946906Y-139745585D01*
X163946906Y-135610253D01*
X163893850Y-135343523D01*
X163815833Y-135226762D01*
X163837098Y-135175550D01*
X163837358Y-134878375D01*
X163741139Y-134645509D01*
X164000000Y-134697000D01*
X164362401Y-134624914D01*
X164669630Y-134419630D01*
X164874914Y-134112401D01*
X164947000Y-133750000D01*
X164947000Y-129903120D01*
X165018885Y-129795537D01*
X165090971Y-129433136D01*
X165018885Y-129070734D01*
X164813601Y-128763506D01*
X164506373Y-128558222D01*
X164143971Y-128486136D01*
X163781570Y-128558222D01*
X163697000Y-128614730D01*
X163697000Y-128563903D01*
X163855883Y-128326118D01*
X163946999Y-127868046D01*
X163946999Y-124232366D01*
X164160337Y-124374914D01*
X164316771Y-124406031D01*
X164803000Y-124892260D01*
X164803000Y-126500000D01*
X164875086Y-126862401D01*
X165080370Y-127169630D01*
X165387599Y-127374914D01*
X165750000Y-127447000D01*
X166112401Y-127374914D01*
X166419630Y-127169630D01*
X166624914Y-126862401D01*
X166697000Y-126500000D01*
X166697000Y-124500000D01*
X166624914Y-124137599D01*
X166419630Y-123830370D01*
X165419630Y-122830370D01*
X165112401Y-122625086D01*
X165032622Y-122609217D01*
X165069221Y-122425219D01*
X164978105Y-121967147D01*
X164718628Y-121578812D01*
X164330293Y-121319335D01*
X163872221Y-121228219D01*
X163670325Y-121228219D01*
X163696879Y-121164270D01*
X163697121Y-120886986D01*
X163654664Y-120784233D01*
X163651108Y-120766355D01*
X163643944Y-120730339D01*
X163613681Y-120685047D01*
X163591232Y-120630717D01*
X163549335Y-120588746D01*
X163546990Y-120585238D01*
X163546990Y-118125908D01*
X163528081Y-118030849D01*
X165311875Y-116247055D01*
X165352998Y-116247091D01*
G36*
X157673000Y-146772296D02*
X139827000Y-146673700D01*
X139827000Y-143397000D01*
X143694070Y-143397000D01*
X142263168Y-144827902D01*
X142236966Y-144827879D01*
X141980697Y-144933768D01*
X141784457Y-145129666D01*
X141678121Y-145385750D01*
X141677879Y-145663034D01*
X141783768Y-145919303D01*
X141979666Y-146115543D01*
X142235750Y-146221879D01*
X142513034Y-146222121D01*
X142769303Y-146116232D01*
X142965543Y-145920334D01*
X143071879Y-145664250D01*
X143071903Y-145637027D01*
X144436930Y-144272000D01*
X154911155Y-144272000D01*
X154929666Y-144290543D01*
X155185750Y-144396879D01*
X155463034Y-144397121D01*
X155719303Y-144291232D01*
X155915543Y-144095334D01*
X156021879Y-143839250D01*
X156022121Y-143561966D01*
X155953958Y-143397000D01*
X156800000Y-143397000D01*
X157258072Y-143305884D01*
X157646407Y-143046407D01*
X157673000Y-143006608D01*
X157673000Y-146772296D01*
X157673000Y-146772296D01*
G37*
X157673000Y-146772296D02*
X139827000Y-146673700D01*
X139827000Y-143397000D01*
X143694070Y-143397000D01*
X142263168Y-144827902D01*
X142236966Y-144827879D01*
X141980697Y-144933768D01*
X141784457Y-145129666D01*
X141678121Y-145385750D01*
X141677879Y-145663034D01*
X141783768Y-145919303D01*
X141979666Y-146115543D01*
X142235750Y-146221879D01*
X142513034Y-146222121D01*
X142769303Y-146116232D01*
X142965543Y-145920334D01*
X143071879Y-145664250D01*
X143071903Y-145637027D01*
X144436930Y-144272000D01*
X154911155Y-144272000D01*
X154929666Y-144290543D01*
X155185750Y-144396879D01*
X155463034Y-144397121D01*
X155719303Y-144291232D01*
X155915543Y-144095334D01*
X156021879Y-143839250D01*
X156022121Y-143561966D01*
X155953958Y-143397000D01*
X156800000Y-143397000D01*
X157258072Y-143305884D01*
X157646407Y-143046407D01*
X157673000Y-143006608D01*
X157673000Y-146772296D01*
G36*
X152256032Y-124625091D02*
X152323000Y-124787165D01*
X152323000Y-126000000D01*
X152331685Y-126046159D01*
X152358965Y-126088553D01*
X152400590Y-126116994D01*
X152450000Y-126127000D01*
X152956155Y-126127000D01*
X152956155Y-134827811D01*
X152496736Y-135287230D01*
X152470534Y-135287207D01*
X152214265Y-135393096D01*
X152018025Y-135588994D01*
X151911689Y-135845078D01*
X151911447Y-136122362D01*
X152017336Y-136378631D01*
X152213234Y-136574871D01*
X152469318Y-136681207D01*
X152553059Y-136681280D01*
X152552879Y-136888034D01*
X152658768Y-137144303D01*
X152854666Y-137340543D01*
X153110750Y-137446879D01*
X153388034Y-137447121D01*
X153644303Y-137341232D01*
X153840543Y-137145334D01*
X153946879Y-136889250D01*
X153946903Y-136862027D01*
X154394067Y-136414863D01*
X154518061Y-136229293D01*
X154561602Y-136010398D01*
X154561602Y-126974085D01*
X154991982Y-127404465D01*
X155177552Y-127528459D01*
X155321217Y-127557036D01*
X155354666Y-127590543D01*
X155610750Y-127696879D01*
X155888034Y-127697121D01*
X156144303Y-127591232D01*
X156338472Y-127397402D01*
X156552902Y-127611832D01*
X156552879Y-127638034D01*
X156658768Y-127894303D01*
X156854666Y-128090543D01*
X157110750Y-128196879D01*
X157388034Y-128197121D01*
X157644303Y-128091232D01*
X157673000Y-128062585D01*
X157673000Y-132591293D01*
X157007147Y-133257147D01*
X156856056Y-133483269D01*
X156854090Y-133493155D01*
X156803000Y-133750000D01*
X156803000Y-134612524D01*
X156839821Y-134797634D01*
X156856056Y-134879255D01*
X157007147Y-135105377D01*
X157133920Y-135232150D01*
X155882318Y-136483752D01*
X155882318Y-135563023D01*
X156163287Y-135282054D01*
X156287281Y-135096484D01*
X156330822Y-134877589D01*
X156330822Y-129052957D01*
X156349365Y-129034446D01*
X156455701Y-128778362D01*
X156455943Y-128501078D01*
X156350054Y-128244809D01*
X156154156Y-128048569D01*
X155898072Y-127942233D01*
X155620788Y-127941991D01*
X155364519Y-128047880D01*
X155168279Y-128243778D01*
X155061943Y-128499862D01*
X155061701Y-128777146D01*
X155167590Y-129033415D01*
X155186822Y-129052681D01*
X155186822Y-134640659D01*
X154905853Y-134921628D01*
X154781859Y-135107198D01*
X154738318Y-135326093D01*
X154738318Y-140053754D01*
X154719775Y-140072265D01*
X154613439Y-140328349D01*
X154613265Y-140528000D01*
X139827000Y-140528000D01*
X139827000Y-139913034D01*
X143627879Y-139913034D01*
X143733768Y-140169303D01*
X143929666Y-140365543D01*
X144185750Y-140471879D01*
X144463034Y-140472121D01*
X144719303Y-140366232D01*
X144915543Y-140170334D01*
X145021879Y-139914250D01*
X145022099Y-139661831D01*
X145279465Y-139404465D01*
X145403459Y-139218895D01*
X145447000Y-139000000D01*
X145447000Y-136038034D01*
X148402879Y-136038034D01*
X148508768Y-136294303D01*
X148704666Y-136490543D01*
X148960750Y-136596879D01*
X149238034Y-136597121D01*
X149494303Y-136491232D01*
X149690543Y-136295334D01*
X149796879Y-136039250D01*
X149796903Y-136012027D01*
X151034010Y-134774920D01*
X151158004Y-134589350D01*
X151201545Y-134370455D01*
X151201545Y-133437155D01*
X151354666Y-133590543D01*
X151610750Y-133696879D01*
X151888034Y-133697121D01*
X152144303Y-133591232D01*
X152340543Y-133395334D01*
X152446879Y-133139250D01*
X152447121Y-132861966D01*
X152341232Y-132605697D01*
X152322000Y-132586431D01*
X152322000Y-127663845D01*
X152340543Y-127645334D01*
X152446879Y-127389250D01*
X152447121Y-127111966D01*
X152341232Y-126855697D01*
X152145334Y-126659457D01*
X151889250Y-126553121D01*
X151611966Y-126552879D01*
X151355697Y-126658768D01*
X151326425Y-126687989D01*
X151326666Y-126411779D01*
X151220777Y-126155510D01*
X151024879Y-125959270D01*
X150768795Y-125852934D01*
X150491511Y-125852692D01*
X150235242Y-125958581D01*
X150039002Y-126154479D01*
X149932666Y-126410563D01*
X149932424Y-126687847D01*
X150038313Y-126944116D01*
X150057545Y-126963382D01*
X150057545Y-134133525D01*
X148988168Y-135202902D01*
X148961966Y-135202879D01*
X148705697Y-135308768D01*
X148509457Y-135504666D01*
X148403121Y-135760750D01*
X148402879Y-136038034D01*
X145447000Y-136038034D01*
X145447000Y-135928553D01*
X145408747Y-135736241D01*
X145463063Y-135605434D01*
X145463305Y-135328150D01*
X145357416Y-135071881D01*
X145161518Y-134875641D01*
X144905434Y-134769305D01*
X144628150Y-134769063D01*
X144371881Y-134874952D01*
X144175641Y-135070850D01*
X144069305Y-135326934D01*
X144069063Y-135604218D01*
X144174952Y-135860487D01*
X144209093Y-135894687D01*
X144237725Y-136038632D01*
X144303000Y-136136323D01*
X144303000Y-138763070D01*
X143920535Y-139145535D01*
X143823460Y-139290819D01*
X143734457Y-139379666D01*
X143628121Y-139635750D01*
X143627879Y-139913034D01*
X139827000Y-139913034D01*
X139827000Y-139727000D01*
X142900000Y-139727000D01*
X142946159Y-139718315D01*
X142988553Y-139691035D01*
X143016994Y-139649410D01*
X143027000Y-139600000D01*
X143027000Y-135400000D01*
X143018315Y-135353841D01*
X142991035Y-135311447D01*
X142949410Y-135283006D01*
X142900000Y-135273000D01*
X142022571Y-135273000D01*
X142026995Y-135248926D01*
X142019304Y-134339250D01*
X142106353Y-134303282D01*
X142302593Y-134107384D01*
X142408929Y-133851300D01*
X142409171Y-133574016D01*
X142303282Y-133317747D01*
X142107384Y-133121507D01*
X141851300Y-133015171D01*
X141824077Y-133015147D01*
X140879436Y-132070506D01*
X140693866Y-131946512D01*
X140474971Y-131902971D01*
X139827000Y-131902971D01*
X139827000Y-130747798D01*
X140034116Y-130662219D01*
X140230356Y-130466321D01*
X140336692Y-130210237D01*
X140336934Y-129932953D01*
X140231045Y-129676684D01*
X140211813Y-129657418D01*
X140211813Y-127738034D01*
X140602879Y-127738034D01*
X140708768Y-127994303D01*
X140904666Y-128190543D01*
X141160750Y-128296879D01*
X141438034Y-128297121D01*
X141694303Y-128191232D01*
X141713387Y-128172182D01*
X143005638Y-129464433D01*
X143005615Y-129490635D01*
X143111504Y-129746904D01*
X143307402Y-129943144D01*
X143563486Y-130049480D01*
X143840770Y-130049722D01*
X144097039Y-129943833D01*
X144293279Y-129747935D01*
X144399615Y-129491851D01*
X144399857Y-129214567D01*
X144334807Y-129057135D01*
X144494303Y-128991232D01*
X144690543Y-128795334D01*
X144796879Y-128539250D01*
X144797121Y-128261966D01*
X144691232Y-128005697D01*
X144495334Y-127809457D01*
X144308889Y-127732038D01*
X143159585Y-126582734D01*
X143159608Y-126556532D01*
X143053719Y-126300263D01*
X142857821Y-126104023D01*
X142601737Y-125997687D01*
X142324453Y-125997445D01*
X142068184Y-126103334D01*
X141871944Y-126299232D01*
X141765608Y-126555316D01*
X141765366Y-126832600D01*
X141846104Y-127028000D01*
X141713845Y-127028000D01*
X141695334Y-127009457D01*
X141439250Y-126903121D01*
X141161966Y-126902879D01*
X140905697Y-127008768D01*
X140709457Y-127204666D01*
X140603121Y-127460750D01*
X140602879Y-127738034D01*
X140211813Y-127738034D01*
X140211813Y-125869267D01*
X140250000Y-125877000D01*
X145053009Y-125877000D01*
X145053009Y-128378893D01*
X144980707Y-128408768D01*
X144784467Y-128604666D01*
X144678131Y-128860750D01*
X144677889Y-129138034D01*
X144783778Y-129394303D01*
X144979676Y-129590543D01*
X145235760Y-129696879D01*
X145513044Y-129697121D01*
X145769313Y-129591232D01*
X145965553Y-129395334D01*
X146071889Y-129139250D01*
X146071931Y-129090924D01*
X146153468Y-128968896D01*
X146197009Y-128750001D01*
X146197009Y-125877000D01*
X147545506Y-125877000D01*
X147545432Y-125961371D01*
X147651321Y-126217640D01*
X147847219Y-126413880D01*
X148103303Y-126520216D01*
X148380587Y-126520458D01*
X148636856Y-126414569D01*
X148833096Y-126218671D01*
X148939432Y-125962587D01*
X148939515Y-125867808D01*
X148956051Y-125863962D01*
X148995973Y-125833176D01*
X149544011Y-125200825D01*
X149595603Y-125179507D01*
X149791843Y-124983609D01*
X149846646Y-124851631D01*
X150257992Y-124377000D01*
X152256249Y-124377000D01*
X152256032Y-124625091D01*
X152256032Y-124625091D01*
G37*
X152256032Y-124625091D02*
X152323000Y-124787165D01*
X152323000Y-126000000D01*
X152331685Y-126046159D01*
X152358965Y-126088553D01*
X152400590Y-126116994D01*
X152450000Y-126127000D01*
X152956155Y-126127000D01*
X152956155Y-134827811D01*
X152496736Y-135287230D01*
X152470534Y-135287207D01*
X152214265Y-135393096D01*
X152018025Y-135588994D01*
X151911689Y-135845078D01*
X151911447Y-136122362D01*
X152017336Y-136378631D01*
X152213234Y-136574871D01*
X152469318Y-136681207D01*
X152553059Y-136681280D01*
X152552879Y-136888034D01*
X152658768Y-137144303D01*
X152854666Y-137340543D01*
X153110750Y-137446879D01*
X153388034Y-137447121D01*
X153644303Y-137341232D01*
X153840543Y-137145334D01*
X153946879Y-136889250D01*
X153946903Y-136862027D01*
X154394067Y-136414863D01*
X154518061Y-136229293D01*
X154561602Y-136010398D01*
X154561602Y-126974085D01*
X154991982Y-127404465D01*
X155177552Y-127528459D01*
X155321217Y-127557036D01*
X155354666Y-127590543D01*
X155610750Y-127696879D01*
X155888034Y-127697121D01*
X156144303Y-127591232D01*
X156338472Y-127397402D01*
X156552902Y-127611832D01*
X156552879Y-127638034D01*
X156658768Y-127894303D01*
X156854666Y-128090543D01*
X157110750Y-128196879D01*
X157388034Y-128197121D01*
X157644303Y-128091232D01*
X157673000Y-128062585D01*
X157673000Y-132591293D01*
X157007147Y-133257147D01*
X156856056Y-133483269D01*
X156854090Y-133493155D01*
X156803000Y-133750000D01*
X156803000Y-134612524D01*
X156839821Y-134797634D01*
X156856056Y-134879255D01*
X157007147Y-135105377D01*
X157133920Y-135232150D01*
X155882318Y-136483752D01*
X155882318Y-135563023D01*
X156163287Y-135282054D01*
X156287281Y-135096484D01*
X156330822Y-134877589D01*
X156330822Y-129052957D01*
X156349365Y-129034446D01*
X156455701Y-128778362D01*
X156455943Y-128501078D01*
X156350054Y-128244809D01*
X156154156Y-128048569D01*
X155898072Y-127942233D01*
X155620788Y-127941991D01*
X155364519Y-128047880D01*
X155168279Y-128243778D01*
X155061943Y-128499862D01*
X155061701Y-128777146D01*
X155167590Y-129033415D01*
X155186822Y-129052681D01*
X155186822Y-134640659D01*
X154905853Y-134921628D01*
X154781859Y-135107198D01*
X154738318Y-135326093D01*
X154738318Y-140053754D01*
X154719775Y-140072265D01*
X154613439Y-140328349D01*
X154613265Y-140528000D01*
X139827000Y-140528000D01*
X139827000Y-139913034D01*
X143627879Y-139913034D01*
X143733768Y-140169303D01*
X143929666Y-140365543D01*
X144185750Y-140471879D01*
X144463034Y-140472121D01*
X144719303Y-140366232D01*
X144915543Y-140170334D01*
X145021879Y-139914250D01*
X145022099Y-139661831D01*
X145279465Y-139404465D01*
X145403459Y-139218895D01*
X145447000Y-139000000D01*
X145447000Y-136038034D01*
X148402879Y-136038034D01*
X148508768Y-136294303D01*
X148704666Y-136490543D01*
X148960750Y-136596879D01*
X149238034Y-136597121D01*
X149494303Y-136491232D01*
X149690543Y-136295334D01*
X149796879Y-136039250D01*
X149796903Y-136012027D01*
X151034010Y-134774920D01*
X151158004Y-134589350D01*
X151201545Y-134370455D01*
X151201545Y-133437155D01*
X151354666Y-133590543D01*
X151610750Y-133696879D01*
X151888034Y-133697121D01*
X152144303Y-133591232D01*
X152340543Y-133395334D01*
X152446879Y-133139250D01*
X152447121Y-132861966D01*
X152341232Y-132605697D01*
X152322000Y-132586431D01*
X152322000Y-127663845D01*
X152340543Y-127645334D01*
X152446879Y-127389250D01*
X152447121Y-127111966D01*
X152341232Y-126855697D01*
X152145334Y-126659457D01*
X151889250Y-126553121D01*
X151611966Y-126552879D01*
X151355697Y-126658768D01*
X151326425Y-126687989D01*
X151326666Y-126411779D01*
X151220777Y-126155510D01*
X151024879Y-125959270D01*
X150768795Y-125852934D01*
X150491511Y-125852692D01*
X150235242Y-125958581D01*
X150039002Y-126154479D01*
X149932666Y-126410563D01*
X149932424Y-126687847D01*
X150038313Y-126944116D01*
X150057545Y-126963382D01*
X150057545Y-134133525D01*
X148988168Y-135202902D01*
X148961966Y-135202879D01*
X148705697Y-135308768D01*
X148509457Y-135504666D01*
X148403121Y-135760750D01*
X148402879Y-136038034D01*
X145447000Y-136038034D01*
X145447000Y-135928553D01*
X145408747Y-135736241D01*
X145463063Y-135605434D01*
X145463305Y-135328150D01*
X145357416Y-135071881D01*
X145161518Y-134875641D01*
X144905434Y-134769305D01*
X144628150Y-134769063D01*
X144371881Y-134874952D01*
X144175641Y-135070850D01*
X144069305Y-135326934D01*
X144069063Y-135604218D01*
X144174952Y-135860487D01*
X144209093Y-135894687D01*
X144237725Y-136038632D01*
X144303000Y-136136323D01*
X144303000Y-138763070D01*
X143920535Y-139145535D01*
X143823460Y-139290819D01*
X143734457Y-139379666D01*
X143628121Y-139635750D01*
X143627879Y-139913034D01*
X139827000Y-139913034D01*
X139827000Y-139727000D01*
X142900000Y-139727000D01*
X142946159Y-139718315D01*
X142988553Y-139691035D01*
X143016994Y-139649410D01*
X143027000Y-139600000D01*
X143027000Y-135400000D01*
X143018315Y-135353841D01*
X142991035Y-135311447D01*
X142949410Y-135283006D01*
X142900000Y-135273000D01*
X142022571Y-135273000D01*
X142026995Y-135248926D01*
X142019304Y-134339250D01*
X142106353Y-134303282D01*
X142302593Y-134107384D01*
X142408929Y-133851300D01*
X142409171Y-133574016D01*
X142303282Y-133317747D01*
X142107384Y-133121507D01*
X141851300Y-133015171D01*
X141824077Y-133015147D01*
X140879436Y-132070506D01*
X140693866Y-131946512D01*
X140474971Y-131902971D01*
X139827000Y-131902971D01*
X139827000Y-130747798D01*
X140034116Y-130662219D01*
X140230356Y-130466321D01*
X140336692Y-130210237D01*
X140336934Y-129932953D01*
X140231045Y-129676684D01*
X140211813Y-129657418D01*
X140211813Y-127738034D01*
X140602879Y-127738034D01*
X140708768Y-127994303D01*
X140904666Y-128190543D01*
X141160750Y-128296879D01*
X141438034Y-128297121D01*
X141694303Y-128191232D01*
X141713387Y-128172182D01*
X143005638Y-129464433D01*
X143005615Y-129490635D01*
X143111504Y-129746904D01*
X143307402Y-129943144D01*
X143563486Y-130049480D01*
X143840770Y-130049722D01*
X144097039Y-129943833D01*
X144293279Y-129747935D01*
X144399615Y-129491851D01*
X144399857Y-129214567D01*
X144334807Y-129057135D01*
X144494303Y-128991232D01*
X144690543Y-128795334D01*
X144796879Y-128539250D01*
X144797121Y-128261966D01*
X144691232Y-128005697D01*
X144495334Y-127809457D01*
X144308889Y-127732038D01*
X143159585Y-126582734D01*
X143159608Y-126556532D01*
X143053719Y-126300263D01*
X142857821Y-126104023D01*
X142601737Y-125997687D01*
X142324453Y-125997445D01*
X142068184Y-126103334D01*
X141871944Y-126299232D01*
X141765608Y-126555316D01*
X141765366Y-126832600D01*
X141846104Y-127028000D01*
X141713845Y-127028000D01*
X141695334Y-127009457D01*
X141439250Y-126903121D01*
X141161966Y-126902879D01*
X140905697Y-127008768D01*
X140709457Y-127204666D01*
X140603121Y-127460750D01*
X140602879Y-127738034D01*
X140211813Y-127738034D01*
X140211813Y-125869267D01*
X140250000Y-125877000D01*
X145053009Y-125877000D01*
X145053009Y-128378893D01*
X144980707Y-128408768D01*
X144784467Y-128604666D01*
X144678131Y-128860750D01*
X144677889Y-129138034D01*
X144783778Y-129394303D01*
X144979676Y-129590543D01*
X145235760Y-129696879D01*
X145513044Y-129697121D01*
X145769313Y-129591232D01*
X145965553Y-129395334D01*
X146071889Y-129139250D01*
X146071931Y-129090924D01*
X146153468Y-128968896D01*
X146197009Y-128750001D01*
X146197009Y-125877000D01*
X147545506Y-125877000D01*
X147545432Y-125961371D01*
X147651321Y-126217640D01*
X147847219Y-126413880D01*
X148103303Y-126520216D01*
X148380587Y-126520458D01*
X148636856Y-126414569D01*
X148833096Y-126218671D01*
X148939432Y-125962587D01*
X148939515Y-125867808D01*
X148956051Y-125863962D01*
X148995973Y-125833176D01*
X149544011Y-125200825D01*
X149595603Y-125179507D01*
X149791843Y-124983609D01*
X149846646Y-124851631D01*
X150257992Y-124377000D01*
X152256249Y-124377000D01*
X152256032Y-124625091D01*
G36*
X177803000Y-86288706D02*
X177803000Y-92573000D01*
X172197000Y-92573000D01*
X172197000Y-90769340D01*
X172246870Y-90649239D01*
X172247130Y-90352064D01*
X172133645Y-90077411D01*
X171923694Y-89867093D01*
X171649239Y-89753130D01*
X171352064Y-89752870D01*
X171197000Y-89816942D01*
X171197000Y-89788706D01*
X171207743Y-89777963D01*
X171327933Y-89728301D01*
X171538251Y-89518350D01*
X171652214Y-89243895D01*
X171652474Y-88946720D01*
X171538989Y-88672067D01*
X171329038Y-88461749D01*
X171054583Y-88347786D01*
X170757408Y-88347526D01*
X170636085Y-88397656D01*
X166683068Y-88397656D01*
X166139492Y-87854080D01*
X166166470Y-87789110D01*
X166166938Y-87253241D01*
X165962302Y-86757983D01*
X165939387Y-86735028D01*
X166183244Y-86875819D01*
X166342284Y-86931650D01*
X166522988Y-86922937D01*
X166686065Y-86844606D01*
X166805819Y-86709000D01*
X167655819Y-85236756D01*
X167711650Y-85077716D01*
X167702937Y-84897012D01*
X167624606Y-84733935D01*
X167489000Y-84614181D01*
X166016756Y-83764181D01*
X165857716Y-83708350D01*
X165677012Y-83717063D01*
X165513935Y-83795394D01*
X165394181Y-83931000D01*
X165368274Y-83975873D01*
X165376033Y-83884313D01*
X165200293Y-83332185D01*
X164930109Y-82980090D01*
X164670358Y-82970212D01*
X164073780Y-84003515D01*
X164091101Y-84013515D01*
X163964101Y-84233485D01*
X163946780Y-84223485D01*
X163936780Y-84240806D01*
X163716810Y-84113806D01*
X163726810Y-84096485D01*
X162692932Y-83499576D01*
X162473486Y-83638335D01*
X162424557Y-84215687D01*
X162563374Y-84651814D01*
X162518455Y-84625880D01*
X162359415Y-84570049D01*
X162178711Y-84578762D01*
X162015634Y-84657093D01*
X161895880Y-84792699D01*
X160995880Y-86351545D01*
X160940049Y-86510585D01*
X160948762Y-86691289D01*
X161027093Y-86854366D01*
X161162699Y-86974120D01*
X162721545Y-87874120D01*
X162880585Y-87929951D01*
X163061289Y-87921238D01*
X163224366Y-87842907D01*
X163344120Y-87707301D01*
X163472736Y-87484532D01*
X163472472Y-87786759D01*
X163677108Y-88282017D01*
X164055695Y-88661265D01*
X164550595Y-88866765D01*
X165086464Y-88867233D01*
X165153523Y-88839525D01*
X165901508Y-89587510D01*
X166113023Y-89728839D01*
X166127631Y-89738600D01*
X166394361Y-89791656D01*
X169803000Y-89791656D01*
X169803000Y-92863740D01*
X169105757Y-92166497D01*
X169105757Y-91350000D01*
X169074588Y-91184352D01*
X168976690Y-91032214D01*
X168827315Y-90930150D01*
X168650000Y-90894243D01*
X166950000Y-90894243D01*
X166784352Y-90925412D01*
X166632214Y-91023310D01*
X166530150Y-91172685D01*
X166512370Y-91260485D01*
X166187598Y-91325086D01*
X165880370Y-91530370D01*
X165641294Y-91769446D01*
X165578794Y-91675907D01*
X159572000Y-85669113D01*
X159572000Y-83279605D01*
X162819932Y-83279605D01*
X163853810Y-83876515D01*
X164450387Y-82843212D01*
X164311957Y-82623200D01*
X163871942Y-82565261D01*
X163305915Y-82689130D01*
X162830378Y-83020179D01*
X162819932Y-83279605D01*
X159572000Y-83279605D01*
X159572000Y-81663845D01*
X159590543Y-81645334D01*
X159696879Y-81389250D01*
X159697121Y-81111966D01*
X159591232Y-80855697D01*
X159395334Y-80659457D01*
X159139250Y-80553121D01*
X158861966Y-80552879D01*
X158605697Y-80658768D01*
X158409457Y-80854666D01*
X158303121Y-81110750D01*
X158302879Y-81388034D01*
X158408768Y-81644303D01*
X158428000Y-81663569D01*
X158428000Y-85442294D01*
X155949033Y-82963327D01*
X155949033Y-79460347D01*
X155998903Y-79340246D01*
X155999163Y-79043071D01*
X155885678Y-78768418D01*
X155675727Y-78558100D01*
X155401272Y-78444137D01*
X155104097Y-78443877D01*
X154837010Y-78554236D01*
X154837010Y-77663845D01*
X154855553Y-77645334D01*
X154961889Y-77389250D01*
X154962131Y-77111966D01*
X154856242Y-76855697D01*
X154660344Y-76659457D01*
X154404260Y-76553121D01*
X154262000Y-76552997D01*
X154262000Y-74611300D01*
X154676049Y-74566320D01*
X154837363Y-74517444D01*
X154978038Y-74403688D01*
X155063372Y-74244163D01*
X155079919Y-74064008D01*
X155067208Y-73947000D01*
X155730660Y-73947000D01*
X155850761Y-73996870D01*
X156147936Y-73997130D01*
X156422589Y-73883645D01*
X156632907Y-73673694D01*
X156746870Y-73399239D01*
X156747130Y-73102064D01*
X156633645Y-72827411D01*
X156423694Y-72617093D01*
X156149239Y-72503130D01*
X155852064Y-72502870D01*
X155730741Y-72553000D01*
X154915771Y-72553000D01*
X154896320Y-72373951D01*
X154847444Y-72212637D01*
X154733688Y-72071962D01*
X154574163Y-71986628D01*
X154394008Y-71970081D01*
X154342497Y-71975677D01*
X154420964Y-71927863D01*
X154762716Y-71459958D01*
X154887271Y-71033981D01*
X154741831Y-70818538D01*
X154374243Y-70858471D01*
X154418320Y-70636881D01*
X154410786Y-70599007D01*
X154714399Y-70566024D01*
X154810183Y-70324376D01*
X154597062Y-69935082D01*
X154162806Y-69551479D01*
X153773430Y-69417740D01*
X156652853Y-69417740D01*
X156781529Y-69729160D01*
X157019586Y-69967633D01*
X157330782Y-70096853D01*
X157361174Y-70096880D01*
X157407146Y-70142852D01*
X157633268Y-70293943D01*
X157677522Y-70302745D01*
X157899999Y-70346999D01*
X159611293Y-70346999D01*
X174303000Y-85038707D01*
X174303000Y-90998989D01*
X174282367Y-91019586D01*
X174153147Y-91330782D01*
X174152853Y-91667740D01*
X174281529Y-91979160D01*
X174519586Y-92217633D01*
X174830782Y-92346853D01*
X175167740Y-92347147D01*
X175479160Y-92218471D01*
X175717633Y-91980414D01*
X175846853Y-91669218D01*
X175847147Y-91332260D01*
X175718471Y-91020840D01*
X175697000Y-90999331D01*
X175697000Y-84750000D01*
X175646546Y-84496350D01*
X175643944Y-84483269D01*
X175492853Y-84257146D01*
X160392852Y-69157146D01*
X160166730Y-69006055D01*
X160122476Y-68997253D01*
X159899999Y-68952999D01*
X158293737Y-68952999D01*
X158218471Y-68770840D01*
X157980414Y-68532367D01*
X157669218Y-68403147D01*
X157332260Y-68402853D01*
X157020840Y-68531529D01*
X156782367Y-68769586D01*
X156653147Y-69080782D01*
X156652853Y-69417740D01*
X153773430Y-69417740D01*
X153614807Y-69363258D01*
X153399292Y-69508048D01*
X153413777Y-69641381D01*
X153163686Y-69691128D01*
X153146777Y-69535479D01*
X152905198Y-69440346D01*
X152410400Y-69741851D01*
X152068648Y-70209756D01*
X152029409Y-70343954D01*
X151659692Y-69973592D01*
X151164792Y-69768092D01*
X150628923Y-69767624D01*
X150133665Y-69972260D01*
X149754417Y-70350847D01*
X149548917Y-70845747D01*
X149548449Y-71381616D01*
X149753085Y-71876874D01*
X150131672Y-72256122D01*
X150385444Y-72361497D01*
X150128843Y-72389373D01*
X149967530Y-72438249D01*
X149826855Y-72552005D01*
X149741521Y-72711530D01*
X149724974Y-72891686D01*
X149730021Y-72938143D01*
X146995143Y-72938143D01*
X146968279Y-72873126D01*
X146626700Y-72530951D01*
X146848314Y-72555026D01*
X147016360Y-72541930D01*
X147178181Y-72461035D01*
X147295780Y-72323556D01*
X147350627Y-72151157D01*
X147545026Y-70361686D01*
X147531930Y-70193640D01*
X147451035Y-70031819D01*
X147313556Y-69914220D01*
X147141157Y-69859373D01*
X145351686Y-69664974D01*
X145183640Y-69678070D01*
X145021819Y-69758965D01*
X144904220Y-69896444D01*
X144849373Y-70068843D01*
X144844421Y-70114427D01*
X144579600Y-69751851D01*
X144084802Y-69450346D01*
X143843223Y-69545479D01*
X143827589Y-69689392D01*
X143578680Y-69639881D01*
X143577446Y-69640126D01*
X143590708Y-69518048D01*
X143375193Y-69373258D01*
X142827194Y-69561479D01*
X142392938Y-69945082D01*
X142179817Y-70334376D01*
X142275601Y-70576024D01*
X142587055Y-70609859D01*
X142581680Y-70636881D01*
X142628011Y-70869802D01*
X142248169Y-70828538D01*
X142102729Y-71043981D01*
X142227284Y-71469958D01*
X142569036Y-71937863D01*
X142647503Y-71985677D01*
X142595992Y-71980081D01*
X142427947Y-71993177D01*
X142266126Y-72074072D01*
X142148527Y-72211551D01*
X142093680Y-72383951D01*
X141925074Y-73935996D01*
X136625555Y-79235515D01*
X136501561Y-79421085D01*
X136458020Y-79639980D01*
X136458020Y-89096640D01*
X131472000Y-94082659D01*
X131472000Y-88682705D01*
X131891185Y-88856765D01*
X132427054Y-88857233D01*
X132922312Y-88652597D01*
X133301560Y-88274010D01*
X133507060Y-87779110D01*
X133507326Y-87474639D01*
X133635880Y-87697301D01*
X133745697Y-87825173D01*
X133906548Y-87907979D01*
X134086943Y-87921681D01*
X134258455Y-87864120D01*
X135817301Y-86964120D01*
X135945173Y-86854303D01*
X136027979Y-86693452D01*
X136041681Y-86513057D01*
X135984120Y-86341545D01*
X135197000Y-84978213D01*
X135197000Y-81519330D01*
X135246870Y-81399229D01*
X135247130Y-81102054D01*
X135133645Y-80827401D01*
X134923694Y-80617083D01*
X134649239Y-80503120D01*
X134352064Y-80502860D01*
X134077411Y-80616345D01*
X133867093Y-80826296D01*
X133753130Y-81100751D01*
X133752870Y-81397926D01*
X133803000Y-81519249D01*
X133803000Y-82764952D01*
X133694085Y-82689130D01*
X133128058Y-82565261D01*
X132688043Y-82623200D01*
X132549613Y-82843212D01*
X133146190Y-83876515D01*
X133163511Y-83866515D01*
X133290511Y-84086485D01*
X133273190Y-84096485D01*
X133283190Y-84113806D01*
X133063220Y-84240806D01*
X133053220Y-84223485D01*
X133035899Y-84233485D01*
X132908899Y-84013515D01*
X132926220Y-84003515D01*
X132329642Y-82970212D01*
X132069891Y-82980090D01*
X131799707Y-83332185D01*
X131623967Y-83884313D01*
X131631726Y-83975873D01*
X131605819Y-83931000D01*
X131496002Y-83803128D01*
X131335151Y-83720322D01*
X131154757Y-83706620D01*
X130983244Y-83764181D01*
X129511000Y-84614181D01*
X129383128Y-84723998D01*
X129300322Y-84884849D01*
X129286620Y-85065243D01*
X129344181Y-85236756D01*
X129648031Y-85763039D01*
X128095535Y-87315535D01*
X127971541Y-87501105D01*
X127928000Y-87720000D01*
X127928000Y-89086155D01*
X127909457Y-89104666D01*
X127803121Y-89360750D01*
X127802879Y-89638034D01*
X127908768Y-89894303D01*
X128104666Y-90090543D01*
X128360750Y-90196879D01*
X128638034Y-90197121D01*
X128894303Y-90091232D01*
X129090543Y-89895334D01*
X129196879Y-89639250D01*
X129197121Y-89361966D01*
X129091232Y-89105697D01*
X129072000Y-89086431D01*
X129072000Y-87956930D01*
X130252280Y-86776650D01*
X130303998Y-86836872D01*
X130328000Y-86849228D01*
X130328000Y-100873000D01*
X128963838Y-100873000D01*
X127686373Y-99595535D01*
X127500803Y-99471541D01*
X127281908Y-99428000D01*
X120236930Y-99428000D01*
X119572000Y-98763070D01*
X119572000Y-97557706D01*
X119597147Y-97582853D01*
X119823269Y-97733944D01*
X119858255Y-97740903D01*
X119909912Y-97751178D01*
X119991123Y-98211751D01*
X120050583Y-98369470D01*
X120173412Y-98502297D01*
X120338241Y-98576872D01*
X120519097Y-98581443D01*
X122291751Y-98268877D01*
X122449470Y-98209417D01*
X122582297Y-98086588D01*
X122656872Y-97921759D01*
X122661443Y-97740903D01*
X122619235Y-97501529D01*
X122907402Y-97790199D01*
X123402302Y-97995699D01*
X123938171Y-97996167D01*
X124433429Y-97791531D01*
X124812677Y-97412944D01*
X125018177Y-96918044D01*
X125018645Y-96382175D01*
X124814009Y-95886917D01*
X124435422Y-95507669D01*
X124075814Y-95358347D01*
X124217504Y-95268085D01*
X124571484Y-94809361D01*
X124722972Y-94250093D01*
X124564218Y-94044647D01*
X124201938Y-94108527D01*
X124234188Y-93946397D01*
X124214687Y-93848360D01*
X124520111Y-93794506D01*
X124599025Y-93547153D01*
X124265391Y-93073424D01*
X123775866Y-92763433D01*
X123342570Y-92667384D01*
X123137240Y-92826782D01*
X123161514Y-92964449D01*
X122912336Y-93014014D01*
X122887099Y-92870888D01*
X122639634Y-92791331D01*
X122265320Y-93029783D01*
X121911340Y-93488507D01*
X121887316Y-93577198D01*
X121878319Y-93526171D01*
X121818859Y-93368451D01*
X121696030Y-93235625D01*
X121531201Y-93161050D01*
X121350345Y-93156479D01*
X119676171Y-93451681D01*
X119518451Y-93511141D01*
X119385625Y-93633970D01*
X119311050Y-93798799D01*
X119306479Y-93979655D01*
X119593577Y-95607871D01*
X118947000Y-94961294D01*
X118947000Y-85538706D01*
X139538707Y-64947000D01*
X156461294Y-64947000D01*
X177803000Y-86288706D01*
X177803000Y-86288706D01*
G37*
X177803000Y-86288706D02*
X177803000Y-92573000D01*
X172197000Y-92573000D01*
X172197000Y-90769340D01*
X172246870Y-90649239D01*
X172247130Y-90352064D01*
X172133645Y-90077411D01*
X171923694Y-89867093D01*
X171649239Y-89753130D01*
X171352064Y-89752870D01*
X171197000Y-89816942D01*
X171197000Y-89788706D01*
X171207743Y-89777963D01*
X171327933Y-89728301D01*
X171538251Y-89518350D01*
X171652214Y-89243895D01*
X171652474Y-88946720D01*
X171538989Y-88672067D01*
X171329038Y-88461749D01*
X171054583Y-88347786D01*
X170757408Y-88347526D01*
X170636085Y-88397656D01*
X166683068Y-88397656D01*
X166139492Y-87854080D01*
X166166470Y-87789110D01*
X166166938Y-87253241D01*
X165962302Y-86757983D01*
X165939387Y-86735028D01*
X166183244Y-86875819D01*
X166342284Y-86931650D01*
X166522988Y-86922937D01*
X166686065Y-86844606D01*
X166805819Y-86709000D01*
X167655819Y-85236756D01*
X167711650Y-85077716D01*
X167702937Y-84897012D01*
X167624606Y-84733935D01*
X167489000Y-84614181D01*
X166016756Y-83764181D01*
X165857716Y-83708350D01*
X165677012Y-83717063D01*
X165513935Y-83795394D01*
X165394181Y-83931000D01*
X165368274Y-83975873D01*
X165376033Y-83884313D01*
X165200293Y-83332185D01*
X164930109Y-82980090D01*
X164670358Y-82970212D01*
X164073780Y-84003515D01*
X164091101Y-84013515D01*
X163964101Y-84233485D01*
X163946780Y-84223485D01*
X163936780Y-84240806D01*
X163716810Y-84113806D01*
X163726810Y-84096485D01*
X162692932Y-83499576D01*
X162473486Y-83638335D01*
X162424557Y-84215687D01*
X162563374Y-84651814D01*
X162518455Y-84625880D01*
X162359415Y-84570049D01*
X162178711Y-84578762D01*
X162015634Y-84657093D01*
X161895880Y-84792699D01*
X160995880Y-86351545D01*
X160940049Y-86510585D01*
X160948762Y-86691289D01*
X161027093Y-86854366D01*
X161162699Y-86974120D01*
X162721545Y-87874120D01*
X162880585Y-87929951D01*
X163061289Y-87921238D01*
X163224366Y-87842907D01*
X163344120Y-87707301D01*
X163472736Y-87484532D01*
X163472472Y-87786759D01*
X163677108Y-88282017D01*
X164055695Y-88661265D01*
X164550595Y-88866765D01*
X165086464Y-88867233D01*
X165153523Y-88839525D01*
X165901508Y-89587510D01*
X166113023Y-89728839D01*
X166127631Y-89738600D01*
X166394361Y-89791656D01*
X169803000Y-89791656D01*
X169803000Y-92863740D01*
X169105757Y-92166497D01*
X169105757Y-91350000D01*
X169074588Y-91184352D01*
X168976690Y-91032214D01*
X168827315Y-90930150D01*
X168650000Y-90894243D01*
X166950000Y-90894243D01*
X166784352Y-90925412D01*
X166632214Y-91023310D01*
X166530150Y-91172685D01*
X166512370Y-91260485D01*
X166187598Y-91325086D01*
X165880370Y-91530370D01*
X165641294Y-91769446D01*
X165578794Y-91675907D01*
X159572000Y-85669113D01*
X159572000Y-83279605D01*
X162819932Y-83279605D01*
X163853810Y-83876515D01*
X164450387Y-82843212D01*
X164311957Y-82623200D01*
X163871942Y-82565261D01*
X163305915Y-82689130D01*
X162830378Y-83020179D01*
X162819932Y-83279605D01*
X159572000Y-83279605D01*
X159572000Y-81663845D01*
X159590543Y-81645334D01*
X159696879Y-81389250D01*
X159697121Y-81111966D01*
X159591232Y-80855697D01*
X159395334Y-80659457D01*
X159139250Y-80553121D01*
X158861966Y-80552879D01*
X158605697Y-80658768D01*
X158409457Y-80854666D01*
X158303121Y-81110750D01*
X158302879Y-81388034D01*
X158408768Y-81644303D01*
X158428000Y-81663569D01*
X158428000Y-85442294D01*
X155949033Y-82963327D01*
X155949033Y-79460347D01*
X155998903Y-79340246D01*
X155999163Y-79043071D01*
X155885678Y-78768418D01*
X155675727Y-78558100D01*
X155401272Y-78444137D01*
X155104097Y-78443877D01*
X154837010Y-78554236D01*
X154837010Y-77663845D01*
X154855553Y-77645334D01*
X154961889Y-77389250D01*
X154962131Y-77111966D01*
X154856242Y-76855697D01*
X154660344Y-76659457D01*
X154404260Y-76553121D01*
X154262000Y-76552997D01*
X154262000Y-74611300D01*
X154676049Y-74566320D01*
X154837363Y-74517444D01*
X154978038Y-74403688D01*
X155063372Y-74244163D01*
X155079919Y-74064008D01*
X155067208Y-73947000D01*
X155730660Y-73947000D01*
X155850761Y-73996870D01*
X156147936Y-73997130D01*
X156422589Y-73883645D01*
X156632907Y-73673694D01*
X156746870Y-73399239D01*
X156747130Y-73102064D01*
X156633645Y-72827411D01*
X156423694Y-72617093D01*
X156149239Y-72503130D01*
X155852064Y-72502870D01*
X155730741Y-72553000D01*
X154915771Y-72553000D01*
X154896320Y-72373951D01*
X154847444Y-72212637D01*
X154733688Y-72071962D01*
X154574163Y-71986628D01*
X154394008Y-71970081D01*
X154342497Y-71975677D01*
X154420964Y-71927863D01*
X154762716Y-71459958D01*
X154887271Y-71033981D01*
X154741831Y-70818538D01*
X154374243Y-70858471D01*
X154418320Y-70636881D01*
X154410786Y-70599007D01*
X154714399Y-70566024D01*
X154810183Y-70324376D01*
X154597062Y-69935082D01*
X154162806Y-69551479D01*
X153773430Y-69417740D01*
X156652853Y-69417740D01*
X156781529Y-69729160D01*
X157019586Y-69967633D01*
X157330782Y-70096853D01*
X157361174Y-70096880D01*
X157407146Y-70142852D01*
X157633268Y-70293943D01*
X157677522Y-70302745D01*
X157899999Y-70346999D01*
X159611293Y-70346999D01*
X174303000Y-85038707D01*
X174303000Y-90998989D01*
X174282367Y-91019586D01*
X174153147Y-91330782D01*
X174152853Y-91667740D01*
X174281529Y-91979160D01*
X174519586Y-92217633D01*
X174830782Y-92346853D01*
X175167740Y-92347147D01*
X175479160Y-92218471D01*
X175717633Y-91980414D01*
X175846853Y-91669218D01*
X175847147Y-91332260D01*
X175718471Y-91020840D01*
X175697000Y-90999331D01*
X175697000Y-84750000D01*
X175646546Y-84496350D01*
X175643944Y-84483269D01*
X175492853Y-84257146D01*
X160392852Y-69157146D01*
X160166730Y-69006055D01*
X160122476Y-68997253D01*
X159899999Y-68952999D01*
X158293737Y-68952999D01*
X158218471Y-68770840D01*
X157980414Y-68532367D01*
X157669218Y-68403147D01*
X157332260Y-68402853D01*
X157020840Y-68531529D01*
X156782367Y-68769586D01*
X156653147Y-69080782D01*
X156652853Y-69417740D01*
X153773430Y-69417740D01*
X153614807Y-69363258D01*
X153399292Y-69508048D01*
X153413777Y-69641381D01*
X153163686Y-69691128D01*
X153146777Y-69535479D01*
X152905198Y-69440346D01*
X152410400Y-69741851D01*
X152068648Y-70209756D01*
X152029409Y-70343954D01*
X151659692Y-69973592D01*
X151164792Y-69768092D01*
X150628923Y-69767624D01*
X150133665Y-69972260D01*
X149754417Y-70350847D01*
X149548917Y-70845747D01*
X149548449Y-71381616D01*
X149753085Y-71876874D01*
X150131672Y-72256122D01*
X150385444Y-72361497D01*
X150128843Y-72389373D01*
X149967530Y-72438249D01*
X149826855Y-72552005D01*
X149741521Y-72711530D01*
X149724974Y-72891686D01*
X149730021Y-72938143D01*
X146995143Y-72938143D01*
X146968279Y-72873126D01*
X146626700Y-72530951D01*
X146848314Y-72555026D01*
X147016360Y-72541930D01*
X147178181Y-72461035D01*
X147295780Y-72323556D01*
X147350627Y-72151157D01*
X147545026Y-70361686D01*
X147531930Y-70193640D01*
X147451035Y-70031819D01*
X147313556Y-69914220D01*
X147141157Y-69859373D01*
X145351686Y-69664974D01*
X145183640Y-69678070D01*
X145021819Y-69758965D01*
X144904220Y-69896444D01*
X144849373Y-70068843D01*
X144844421Y-70114427D01*
X144579600Y-69751851D01*
X144084802Y-69450346D01*
X143843223Y-69545479D01*
X143827589Y-69689392D01*
X143578680Y-69639881D01*
X143577446Y-69640126D01*
X143590708Y-69518048D01*
X143375193Y-69373258D01*
X142827194Y-69561479D01*
X142392938Y-69945082D01*
X142179817Y-70334376D01*
X142275601Y-70576024D01*
X142587055Y-70609859D01*
X142581680Y-70636881D01*
X142628011Y-70869802D01*
X142248169Y-70828538D01*
X142102729Y-71043981D01*
X142227284Y-71469958D01*
X142569036Y-71937863D01*
X142647503Y-71985677D01*
X142595992Y-71980081D01*
X142427947Y-71993177D01*
X142266126Y-72074072D01*
X142148527Y-72211551D01*
X142093680Y-72383951D01*
X141925074Y-73935996D01*
X136625555Y-79235515D01*
X136501561Y-79421085D01*
X136458020Y-79639980D01*
X136458020Y-89096640D01*
X131472000Y-94082659D01*
X131472000Y-88682705D01*
X131891185Y-88856765D01*
X132427054Y-88857233D01*
X132922312Y-88652597D01*
X133301560Y-88274010D01*
X133507060Y-87779110D01*
X133507326Y-87474639D01*
X133635880Y-87697301D01*
X133745697Y-87825173D01*
X133906548Y-87907979D01*
X134086943Y-87921681D01*
X134258455Y-87864120D01*
X135817301Y-86964120D01*
X135945173Y-86854303D01*
X136027979Y-86693452D01*
X136041681Y-86513057D01*
X135984120Y-86341545D01*
X135197000Y-84978213D01*
X135197000Y-81519330D01*
X135246870Y-81399229D01*
X135247130Y-81102054D01*
X135133645Y-80827401D01*
X134923694Y-80617083D01*
X134649239Y-80503120D01*
X134352064Y-80502860D01*
X134077411Y-80616345D01*
X133867093Y-80826296D01*
X133753130Y-81100751D01*
X133752870Y-81397926D01*
X133803000Y-81519249D01*
X133803000Y-82764952D01*
X133694085Y-82689130D01*
X133128058Y-82565261D01*
X132688043Y-82623200D01*
X132549613Y-82843212D01*
X133146190Y-83876515D01*
X133163511Y-83866515D01*
X133290511Y-84086485D01*
X133273190Y-84096485D01*
X133283190Y-84113806D01*
X133063220Y-84240806D01*
X133053220Y-84223485D01*
X133035899Y-84233485D01*
X132908899Y-84013515D01*
X132926220Y-84003515D01*
X132329642Y-82970212D01*
X132069891Y-82980090D01*
X131799707Y-83332185D01*
X131623967Y-83884313D01*
X131631726Y-83975873D01*
X131605819Y-83931000D01*
X131496002Y-83803128D01*
X131335151Y-83720322D01*
X131154757Y-83706620D01*
X130983244Y-83764181D01*
X129511000Y-84614181D01*
X129383128Y-84723998D01*
X129300322Y-84884849D01*
X129286620Y-85065243D01*
X129344181Y-85236756D01*
X129648031Y-85763039D01*
X128095535Y-87315535D01*
X127971541Y-87501105D01*
X127928000Y-87720000D01*
X127928000Y-89086155D01*
X127909457Y-89104666D01*
X127803121Y-89360750D01*
X127802879Y-89638034D01*
X127908768Y-89894303D01*
X128104666Y-90090543D01*
X128360750Y-90196879D01*
X128638034Y-90197121D01*
X128894303Y-90091232D01*
X129090543Y-89895334D01*
X129196879Y-89639250D01*
X129197121Y-89361966D01*
X129091232Y-89105697D01*
X129072000Y-89086431D01*
X129072000Y-87956930D01*
X130252280Y-86776650D01*
X130303998Y-86836872D01*
X130328000Y-86849228D01*
X130328000Y-100873000D01*
X128963838Y-100873000D01*
X127686373Y-99595535D01*
X127500803Y-99471541D01*
X127281908Y-99428000D01*
X120236930Y-99428000D01*
X119572000Y-98763070D01*
X119572000Y-97557706D01*
X119597147Y-97582853D01*
X119823269Y-97733944D01*
X119858255Y-97740903D01*
X119909912Y-97751178D01*
X119991123Y-98211751D01*
X120050583Y-98369470D01*
X120173412Y-98502297D01*
X120338241Y-98576872D01*
X120519097Y-98581443D01*
X122291751Y-98268877D01*
X122449470Y-98209417D01*
X122582297Y-98086588D01*
X122656872Y-97921759D01*
X122661443Y-97740903D01*
X122619235Y-97501529D01*
X122907402Y-97790199D01*
X123402302Y-97995699D01*
X123938171Y-97996167D01*
X124433429Y-97791531D01*
X124812677Y-97412944D01*
X125018177Y-96918044D01*
X125018645Y-96382175D01*
X124814009Y-95886917D01*
X124435422Y-95507669D01*
X124075814Y-95358347D01*
X124217504Y-95268085D01*
X124571484Y-94809361D01*
X124722972Y-94250093D01*
X124564218Y-94044647D01*
X124201938Y-94108527D01*
X124234188Y-93946397D01*
X124214687Y-93848360D01*
X124520111Y-93794506D01*
X124599025Y-93547153D01*
X124265391Y-93073424D01*
X123775866Y-92763433D01*
X123342570Y-92667384D01*
X123137240Y-92826782D01*
X123161514Y-92964449D01*
X122912336Y-93014014D01*
X122887099Y-92870888D01*
X122639634Y-92791331D01*
X122265320Y-93029783D01*
X121911340Y-93488507D01*
X121887316Y-93577198D01*
X121878319Y-93526171D01*
X121818859Y-93368451D01*
X121696030Y-93235625D01*
X121531201Y-93161050D01*
X121350345Y-93156479D01*
X119676171Y-93451681D01*
X119518451Y-93511141D01*
X119385625Y-93633970D01*
X119311050Y-93798799D01*
X119306479Y-93979655D01*
X119593577Y-95607871D01*
X118947000Y-94961294D01*
X118947000Y-85538706D01*
X139538707Y-64947000D01*
X156461294Y-64947000D01*
X177803000Y-86288706D01*
G36*
X200503000Y-156503000D02*
X188497000Y-156503000D01*
X188497000Y-155000000D01*
X197503000Y-155000000D01*
X197616952Y-155572877D01*
X197941461Y-156058539D01*
X198427123Y-156383048D01*
X199000000Y-156497000D01*
X199572877Y-156383048D01*
X200058539Y-156058539D01*
X200383048Y-155572877D01*
X200497000Y-155000000D01*
X200383048Y-154427123D01*
X200058539Y-153941461D01*
X199572877Y-153616952D01*
X199000000Y-153503000D01*
X198427123Y-153616952D01*
X197941461Y-153941461D01*
X197616952Y-154427123D01*
X197503000Y-155000000D01*
X188497000Y-155000000D01*
X188497000Y-154500000D01*
X188477000Y-154399453D01*
X188477000Y-154100547D01*
X188497000Y-154000000D01*
X188497000Y-147388034D01*
X196052879Y-147388034D01*
X196158768Y-147644303D01*
X196354666Y-147840543D01*
X196610750Y-147946879D01*
X196784955Y-147947031D01*
X196798310Y-147967786D01*
X196844478Y-147999331D01*
X196807214Y-148023310D01*
X196786906Y-148053032D01*
X196611966Y-148052879D01*
X196355697Y-148158768D01*
X196159457Y-148354666D01*
X196053121Y-148610750D01*
X196052879Y-148888034D01*
X196158768Y-149144303D01*
X196354666Y-149340543D01*
X196610750Y-149446879D01*
X196784955Y-149447031D01*
X196798310Y-149467786D01*
X196947685Y-149569850D01*
X197125000Y-149605757D01*
X197875000Y-149605757D01*
X198040648Y-149574588D01*
X198192786Y-149476690D01*
X198294850Y-149327315D01*
X198330757Y-149150000D01*
X198330757Y-148350000D01*
X198299588Y-148184352D01*
X198201690Y-148032214D01*
X198155522Y-148000669D01*
X198192786Y-147976690D01*
X198294850Y-147827315D01*
X198330757Y-147650000D01*
X198330757Y-146850000D01*
X198299588Y-146684352D01*
X198201690Y-146532214D01*
X198155522Y-146500669D01*
X198192786Y-146476690D01*
X198294850Y-146327315D01*
X198330757Y-146150000D01*
X198330757Y-145350000D01*
X198299588Y-145184352D01*
X198201690Y-145032214D01*
X198155522Y-145000669D01*
X198192786Y-144976690D01*
X198294850Y-144827315D01*
X198330757Y-144650000D01*
X198330757Y-143850000D01*
X198299588Y-143684352D01*
X198275738Y-143647288D01*
X198413327Y-143509698D01*
X198510000Y-143276309D01*
X198510000Y-143035750D01*
X198351250Y-142877000D01*
X197627000Y-142877000D01*
X197627000Y-142897000D01*
X197373000Y-142897000D01*
X197373000Y-142877000D01*
X196648750Y-142877000D01*
X196490000Y-143035750D01*
X196490000Y-143276309D01*
X196581012Y-143496032D01*
X196578152Y-143502921D01*
X196577910Y-143780205D01*
X196669243Y-144001246D01*
X196669243Y-144650000D01*
X196700412Y-144815648D01*
X196798310Y-144967786D01*
X196844478Y-144999331D01*
X196807214Y-145023310D01*
X196792414Y-145044971D01*
X196686986Y-145044879D01*
X196430717Y-145150768D01*
X196234477Y-145346666D01*
X196128141Y-145602750D01*
X196127899Y-145880034D01*
X196233788Y-146136303D01*
X196429686Y-146332543D01*
X196685770Y-146438879D01*
X196779762Y-146438961D01*
X196798310Y-146467786D01*
X196844478Y-146499331D01*
X196807214Y-146523310D01*
X196786906Y-146553032D01*
X196611966Y-146552879D01*
X196355697Y-146658768D01*
X196159457Y-146854666D01*
X196053121Y-147110750D01*
X196052879Y-147388034D01*
X188497000Y-147388034D01*
X188497000Y-135195025D01*
X188544243Y-135242268D01*
X188544243Y-135800000D01*
X188575412Y-135965648D01*
X188673310Y-136117786D01*
X188822685Y-136219850D01*
X189000000Y-136255757D01*
X189544243Y-136255757D01*
X189544243Y-136850000D01*
X189575412Y-137015648D01*
X189673310Y-137167786D01*
X189822685Y-137269850D01*
X190000000Y-137305757D01*
X194200000Y-137305757D01*
X194365648Y-137274588D01*
X194517786Y-137176690D01*
X194619850Y-137027315D01*
X194655757Y-136850000D01*
X194655757Y-136150000D01*
X194624588Y-135984352D01*
X194526690Y-135832214D01*
X194377315Y-135730150D01*
X194200000Y-135694243D01*
X192114687Y-135694243D01*
X193861832Y-133947098D01*
X193888034Y-133947121D01*
X194144303Y-133841232D01*
X194340543Y-133645334D01*
X194446879Y-133389250D01*
X194447121Y-133111966D01*
X194341232Y-132855697D01*
X194145334Y-132659457D01*
X193997269Y-132597975D01*
X194092343Y-132502901D01*
X194118545Y-132502924D01*
X194374814Y-132397035D01*
X194571054Y-132201137D01*
X194677390Y-131945053D01*
X194677632Y-131667769D01*
X194571743Y-131411500D01*
X194407917Y-131247388D01*
X194517786Y-131176690D01*
X194619850Y-131027315D01*
X194655757Y-130850000D01*
X194655757Y-130150000D01*
X194624588Y-129984352D01*
X194526690Y-129832214D01*
X194377315Y-129730150D01*
X194200000Y-129694243D01*
X190000000Y-129694243D01*
X189834352Y-129725412D01*
X189682214Y-129823310D01*
X189647002Y-129874844D01*
X189647002Y-128061928D01*
X192973513Y-124735417D01*
X192956291Y-124776892D01*
X192956049Y-125054176D01*
X193061938Y-125310445D01*
X193257836Y-125506685D01*
X193513920Y-125613021D01*
X193727881Y-125613208D01*
X193727867Y-125628889D01*
X193639673Y-125665330D01*
X193443433Y-125861228D01*
X193337097Y-126117312D01*
X193336855Y-126394596D01*
X193442744Y-126650865D01*
X193461976Y-126670131D01*
X193461976Y-128704153D01*
X193505517Y-128923048D01*
X193629511Y-129108618D01*
X193875358Y-129354465D01*
X194060928Y-129478459D01*
X194279823Y-129522000D01*
X196952654Y-129522000D01*
X197022685Y-129569850D01*
X197200000Y-129605757D01*
X197800000Y-129605757D01*
X197965648Y-129574588D01*
X198117786Y-129476690D01*
X198158367Y-129417297D01*
X198178000Y-129436930D01*
X198178000Y-136013070D01*
X197388168Y-136802902D01*
X197361966Y-136802879D01*
X197105697Y-136908768D01*
X196909457Y-137104666D01*
X196803121Y-137360750D01*
X196802974Y-137529516D01*
X196705150Y-137672685D01*
X196696900Y-137713426D01*
X196656105Y-137721541D01*
X196470535Y-137845535D01*
X195845535Y-138470535D01*
X195721541Y-138656105D01*
X195678000Y-138875000D01*
X195678000Y-140625000D01*
X195721541Y-140843895D01*
X195845535Y-141029465D01*
X196470535Y-141654465D01*
X196656105Y-141778459D01*
X196694865Y-141786169D01*
X196700412Y-141815648D01*
X196724262Y-141852712D01*
X196586673Y-141990302D01*
X196490000Y-142223691D01*
X196490000Y-142464250D01*
X196648750Y-142623000D01*
X197373000Y-142623000D01*
X197373000Y-142603000D01*
X197627000Y-142603000D01*
X197627000Y-142623000D01*
X198351250Y-142623000D01*
X198510000Y-142464250D01*
X198510000Y-142223691D01*
X198413327Y-141990302D01*
X198276783Y-141853757D01*
X198294850Y-141827315D01*
X198330757Y-141650000D01*
X198330757Y-140850000D01*
X198299588Y-140684352D01*
X198275738Y-140647288D01*
X198413327Y-140509698D01*
X198510000Y-140276309D01*
X198510000Y-140035750D01*
X198351250Y-139877000D01*
X197627000Y-139877000D01*
X197627000Y-139897000D01*
X197373000Y-139897000D01*
X197373000Y-139877000D01*
X197353000Y-139877000D01*
X197353000Y-139623000D01*
X197373000Y-139623000D01*
X197373000Y-139603000D01*
X197627000Y-139603000D01*
X197627000Y-139623000D01*
X198351250Y-139623000D01*
X198510000Y-139464250D01*
X198510000Y-139223691D01*
X198413327Y-138990302D01*
X198276783Y-138853757D01*
X198294850Y-138827315D01*
X198330757Y-138650000D01*
X198330757Y-137850000D01*
X198299588Y-137684352D01*
X198231065Y-137577865D01*
X199154465Y-136654465D01*
X199278459Y-136468895D01*
X199322000Y-136250000D01*
X199322000Y-129200000D01*
X199278459Y-128981105D01*
X199154465Y-128795535D01*
X198255757Y-127896827D01*
X198255757Y-127850000D01*
X198224588Y-127684352D01*
X198126690Y-127532214D01*
X198116897Y-127525523D01*
X198192786Y-127476690D01*
X198294850Y-127327315D01*
X198297854Y-127312481D01*
X198468895Y-127278459D01*
X198654465Y-127154465D01*
X198904465Y-126904465D01*
X199028459Y-126718895D01*
X199072000Y-126500000D01*
X199072000Y-124000000D01*
X199028459Y-123781105D01*
X198904465Y-123595535D01*
X198654465Y-123345535D01*
X198468895Y-123221541D01*
X198300274Y-123188000D01*
X198299588Y-123184352D01*
X198201690Y-123032214D01*
X198155522Y-123000669D01*
X198192786Y-122976690D01*
X198294850Y-122827315D01*
X198330757Y-122650000D01*
X198330757Y-121850000D01*
X198299588Y-121684352D01*
X198201690Y-121532214D01*
X198118627Y-121475459D01*
X198219850Y-121327315D01*
X198255757Y-121150000D01*
X198255757Y-120750000D01*
X198224588Y-120584352D01*
X198170249Y-120499907D01*
X198219850Y-120427315D01*
X198255757Y-120250000D01*
X198255757Y-119850000D01*
X198224588Y-119684352D01*
X198126690Y-119532214D01*
X198080522Y-119500669D01*
X198117786Y-119476690D01*
X198219850Y-119327315D01*
X198255757Y-119150000D01*
X198255757Y-118750000D01*
X198224588Y-118584352D01*
X198170249Y-118499907D01*
X198219850Y-118427315D01*
X198255757Y-118250000D01*
X198255757Y-117850000D01*
X198224588Y-117684352D01*
X198126690Y-117532214D01*
X197977315Y-117430150D01*
X197800000Y-117394243D01*
X197200000Y-117394243D01*
X197137167Y-117406066D01*
X196889250Y-117303121D01*
X196611966Y-117302879D01*
X196355697Y-117408768D01*
X196159457Y-117604666D01*
X196053121Y-117860750D01*
X196052879Y-118138034D01*
X196158768Y-118394303D01*
X196354666Y-118590543D01*
X196610750Y-118696879D01*
X196754975Y-118697005D01*
X196744243Y-118750000D01*
X196744243Y-119150000D01*
X196775412Y-119315648D01*
X196775416Y-119315654D01*
X188670537Y-127420533D01*
X188546543Y-127606103D01*
X188503002Y-127824998D01*
X188503002Y-130053002D01*
X188497000Y-130052997D01*
X188497000Y-113000000D01*
X188477000Y-112899453D01*
X188477000Y-112100547D01*
X188497000Y-112000000D01*
X197503000Y-112000000D01*
X197616952Y-112572877D01*
X197941461Y-113058539D01*
X198427123Y-113383048D01*
X199000000Y-113497000D01*
X199572877Y-113383048D01*
X200058539Y-113058539D01*
X200383048Y-112572877D01*
X200497000Y-112000000D01*
X200383048Y-111427123D01*
X200058539Y-110941461D01*
X199572877Y-110616952D01*
X199000000Y-110503000D01*
X198427123Y-110616952D01*
X197941461Y-110941461D01*
X197616952Y-111427123D01*
X197503000Y-112000000D01*
X188497000Y-112000000D01*
X188497000Y-110497000D01*
X200503000Y-110497000D01*
X200503000Y-156503000D01*
X200503000Y-156503000D01*
G37*
X200503000Y-156503000D02*
X188497000Y-156503000D01*
X188497000Y-155000000D01*
X197503000Y-155000000D01*
X197616952Y-155572877D01*
X197941461Y-156058539D01*
X198427123Y-156383048D01*
X199000000Y-156497000D01*
X199572877Y-156383048D01*
X200058539Y-156058539D01*
X200383048Y-155572877D01*
X200497000Y-155000000D01*
X200383048Y-154427123D01*
X200058539Y-153941461D01*
X199572877Y-153616952D01*
X199000000Y-153503000D01*
X198427123Y-153616952D01*
X197941461Y-153941461D01*
X197616952Y-154427123D01*
X197503000Y-155000000D01*
X188497000Y-155000000D01*
X188497000Y-154500000D01*
X188477000Y-154399453D01*
X188477000Y-154100547D01*
X188497000Y-154000000D01*
X188497000Y-147388034D01*
X196052879Y-147388034D01*
X196158768Y-147644303D01*
X196354666Y-147840543D01*
X196610750Y-147946879D01*
X196784955Y-147947031D01*
X196798310Y-147967786D01*
X196844478Y-147999331D01*
X196807214Y-148023310D01*
X196786906Y-148053032D01*
X196611966Y-148052879D01*
X196355697Y-148158768D01*
X196159457Y-148354666D01*
X196053121Y-148610750D01*
X196052879Y-148888034D01*
X196158768Y-149144303D01*
X196354666Y-149340543D01*
X196610750Y-149446879D01*
X196784955Y-149447031D01*
X196798310Y-149467786D01*
X196947685Y-149569850D01*
X197125000Y-149605757D01*
X197875000Y-149605757D01*
X198040648Y-149574588D01*
X198192786Y-149476690D01*
X198294850Y-149327315D01*
X198330757Y-149150000D01*
X198330757Y-148350000D01*
X198299588Y-148184352D01*
X198201690Y-148032214D01*
X198155522Y-148000669D01*
X198192786Y-147976690D01*
X198294850Y-147827315D01*
X198330757Y-147650000D01*
X198330757Y-146850000D01*
X198299588Y-146684352D01*
X198201690Y-146532214D01*
X198155522Y-146500669D01*
X198192786Y-146476690D01*
X198294850Y-146327315D01*
X198330757Y-146150000D01*
X198330757Y-145350000D01*
X198299588Y-145184352D01*
X198201690Y-145032214D01*
X198155522Y-145000669D01*
X198192786Y-144976690D01*
X198294850Y-144827315D01*
X198330757Y-144650000D01*
X198330757Y-143850000D01*
X198299588Y-143684352D01*
X198275738Y-143647288D01*
X198413327Y-143509698D01*
X198510000Y-143276309D01*
X198510000Y-143035750D01*
X198351250Y-142877000D01*
X197627000Y-142877000D01*
X197627000Y-142897000D01*
X197373000Y-142897000D01*
X197373000Y-142877000D01*
X196648750Y-142877000D01*
X196490000Y-143035750D01*
X196490000Y-143276309D01*
X196581012Y-143496032D01*
X196578152Y-143502921D01*
X196577910Y-143780205D01*
X196669243Y-144001246D01*
X196669243Y-144650000D01*
X196700412Y-144815648D01*
X196798310Y-144967786D01*
X196844478Y-144999331D01*
X196807214Y-145023310D01*
X196792414Y-145044971D01*
X196686986Y-145044879D01*
X196430717Y-145150768D01*
X196234477Y-145346666D01*
X196128141Y-145602750D01*
X196127899Y-145880034D01*
X196233788Y-146136303D01*
X196429686Y-146332543D01*
X196685770Y-146438879D01*
X196779762Y-146438961D01*
X196798310Y-146467786D01*
X196844478Y-146499331D01*
X196807214Y-146523310D01*
X196786906Y-146553032D01*
X196611966Y-146552879D01*
X196355697Y-146658768D01*
X196159457Y-146854666D01*
X196053121Y-147110750D01*
X196052879Y-147388034D01*
X188497000Y-147388034D01*
X188497000Y-135195025D01*
X188544243Y-135242268D01*
X188544243Y-135800000D01*
X188575412Y-135965648D01*
X188673310Y-136117786D01*
X188822685Y-136219850D01*
X189000000Y-136255757D01*
X189544243Y-136255757D01*
X189544243Y-136850000D01*
X189575412Y-137015648D01*
X189673310Y-137167786D01*
X189822685Y-137269850D01*
X190000000Y-137305757D01*
X194200000Y-137305757D01*
X194365648Y-137274588D01*
X194517786Y-137176690D01*
X194619850Y-137027315D01*
X194655757Y-136850000D01*
X194655757Y-136150000D01*
X194624588Y-135984352D01*
X194526690Y-135832214D01*
X194377315Y-135730150D01*
X194200000Y-135694243D01*
X192114687Y-135694243D01*
X193861832Y-133947098D01*
X193888034Y-133947121D01*
X194144303Y-133841232D01*
X194340543Y-133645334D01*
X194446879Y-133389250D01*
X194447121Y-133111966D01*
X194341232Y-132855697D01*
X194145334Y-132659457D01*
X193997269Y-132597975D01*
X194092343Y-132502901D01*
X194118545Y-132502924D01*
X194374814Y-132397035D01*
X194571054Y-132201137D01*
X194677390Y-131945053D01*
X194677632Y-131667769D01*
X194571743Y-131411500D01*
X194407917Y-131247388D01*
X194517786Y-131176690D01*
X194619850Y-131027315D01*
X194655757Y-130850000D01*
X194655757Y-130150000D01*
X194624588Y-129984352D01*
X194526690Y-129832214D01*
X194377315Y-129730150D01*
X194200000Y-129694243D01*
X190000000Y-129694243D01*
X189834352Y-129725412D01*
X189682214Y-129823310D01*
X189647002Y-129874844D01*
X189647002Y-128061928D01*
X192973513Y-124735417D01*
X192956291Y-124776892D01*
X192956049Y-125054176D01*
X193061938Y-125310445D01*
X193257836Y-125506685D01*
X193513920Y-125613021D01*
X193727881Y-125613208D01*
X193727867Y-125628889D01*
X193639673Y-125665330D01*
X193443433Y-125861228D01*
X193337097Y-126117312D01*
X193336855Y-126394596D01*
X193442744Y-126650865D01*
X193461976Y-126670131D01*
X193461976Y-128704153D01*
X193505517Y-128923048D01*
X193629511Y-129108618D01*
X193875358Y-129354465D01*
X194060928Y-129478459D01*
X194279823Y-129522000D01*
X196952654Y-129522000D01*
X197022685Y-129569850D01*
X197200000Y-129605757D01*
X197800000Y-129605757D01*
X197965648Y-129574588D01*
X198117786Y-129476690D01*
X198158367Y-129417297D01*
X198178000Y-129436930D01*
X198178000Y-136013070D01*
X197388168Y-136802902D01*
X197361966Y-136802879D01*
X197105697Y-136908768D01*
X196909457Y-137104666D01*
X196803121Y-137360750D01*
X196802974Y-137529516D01*
X196705150Y-137672685D01*
X196696900Y-137713426D01*
X196656105Y-137721541D01*
X196470535Y-137845535D01*
X195845535Y-138470535D01*
X195721541Y-138656105D01*
X195678000Y-138875000D01*
X195678000Y-140625000D01*
X195721541Y-140843895D01*
X195845535Y-141029465D01*
X196470535Y-141654465D01*
X196656105Y-141778459D01*
X196694865Y-141786169D01*
X196700412Y-141815648D01*
X196724262Y-141852712D01*
X196586673Y-141990302D01*
X196490000Y-142223691D01*
X196490000Y-142464250D01*
X196648750Y-142623000D01*
X197373000Y-142623000D01*
X197373000Y-142603000D01*
X197627000Y-142603000D01*
X197627000Y-142623000D01*
X198351250Y-142623000D01*
X198510000Y-142464250D01*
X198510000Y-142223691D01*
X198413327Y-141990302D01*
X198276783Y-141853757D01*
X198294850Y-141827315D01*
X198330757Y-141650000D01*
X198330757Y-140850000D01*
X198299588Y-140684352D01*
X198275738Y-140647288D01*
X198413327Y-140509698D01*
X198510000Y-140276309D01*
X198510000Y-140035750D01*
X198351250Y-139877000D01*
X197627000Y-139877000D01*
X197627000Y-139897000D01*
X197373000Y-139897000D01*
X197373000Y-139877000D01*
X197353000Y-139877000D01*
X197353000Y-139623000D01*
X197373000Y-139623000D01*
X197373000Y-139603000D01*
X197627000Y-139603000D01*
X197627000Y-139623000D01*
X198351250Y-139623000D01*
X198510000Y-139464250D01*
X198510000Y-139223691D01*
X198413327Y-138990302D01*
X198276783Y-138853757D01*
X198294850Y-138827315D01*
X198330757Y-138650000D01*
X198330757Y-137850000D01*
X198299588Y-137684352D01*
X198231065Y-137577865D01*
X199154465Y-136654465D01*
X199278459Y-136468895D01*
X199322000Y-136250000D01*
X199322000Y-129200000D01*
X199278459Y-128981105D01*
X199154465Y-128795535D01*
X198255757Y-127896827D01*
X198255757Y-127850000D01*
X198224588Y-127684352D01*
X198126690Y-127532214D01*
X198116897Y-127525523D01*
X198192786Y-127476690D01*
X198294850Y-127327315D01*
X198297854Y-127312481D01*
X198468895Y-127278459D01*
X198654465Y-127154465D01*
X198904465Y-126904465D01*
X199028459Y-126718895D01*
X199072000Y-126500000D01*
X199072000Y-124000000D01*
X199028459Y-123781105D01*
X198904465Y-123595535D01*
X198654465Y-123345535D01*
X198468895Y-123221541D01*
X198300274Y-123188000D01*
X198299588Y-123184352D01*
X198201690Y-123032214D01*
X198155522Y-123000669D01*
X198192786Y-122976690D01*
X198294850Y-122827315D01*
X198330757Y-122650000D01*
X198330757Y-121850000D01*
X198299588Y-121684352D01*
X198201690Y-121532214D01*
X198118627Y-121475459D01*
X198219850Y-121327315D01*
X198255757Y-121150000D01*
X198255757Y-120750000D01*
X198224588Y-120584352D01*
X198170249Y-120499907D01*
X198219850Y-120427315D01*
X198255757Y-120250000D01*
X198255757Y-119850000D01*
X198224588Y-119684352D01*
X198126690Y-119532214D01*
X198080522Y-119500669D01*
X198117786Y-119476690D01*
X198219850Y-119327315D01*
X198255757Y-119150000D01*
X198255757Y-118750000D01*
X198224588Y-118584352D01*
X198170249Y-118499907D01*
X198219850Y-118427315D01*
X198255757Y-118250000D01*
X198255757Y-117850000D01*
X198224588Y-117684352D01*
X198126690Y-117532214D01*
X197977315Y-117430150D01*
X197800000Y-117394243D01*
X197200000Y-117394243D01*
X197137167Y-117406066D01*
X196889250Y-117303121D01*
X196611966Y-117302879D01*
X196355697Y-117408768D01*
X196159457Y-117604666D01*
X196053121Y-117860750D01*
X196052879Y-118138034D01*
X196158768Y-118394303D01*
X196354666Y-118590543D01*
X196610750Y-118696879D01*
X196754975Y-118697005D01*
X196744243Y-118750000D01*
X196744243Y-119150000D01*
X196775412Y-119315648D01*
X196775416Y-119315654D01*
X188670537Y-127420533D01*
X188546543Y-127606103D01*
X188503002Y-127824998D01*
X188503002Y-130053002D01*
X188497000Y-130052997D01*
X188497000Y-113000000D01*
X188477000Y-112899453D01*
X188477000Y-112100547D01*
X188497000Y-112000000D01*
X197503000Y-112000000D01*
X197616952Y-112572877D01*
X197941461Y-113058539D01*
X198427123Y-113383048D01*
X199000000Y-113497000D01*
X199572877Y-113383048D01*
X200058539Y-113058539D01*
X200383048Y-112572877D01*
X200497000Y-112000000D01*
X200383048Y-111427123D01*
X200058539Y-110941461D01*
X199572877Y-110616952D01*
X199000000Y-110503000D01*
X198427123Y-110616952D01*
X197941461Y-110941461D01*
X197616952Y-111427123D01*
X197503000Y-112000000D01*
X188497000Y-112000000D01*
X188497000Y-110497000D01*
X200503000Y-110497000D01*
X200503000Y-156503000D01*
G36*
X193053121Y-133110750D02*
X193053097Y-133137973D01*
X191520160Y-134670910D01*
X191476250Y-134627000D01*
X190127000Y-134627000D01*
X190127000Y-134647000D01*
X189873000Y-134647000D01*
X189873000Y-134627000D01*
X189853000Y-134627000D01*
X189853000Y-134373000D01*
X189873000Y-134373000D01*
X189873000Y-134353000D01*
X190127000Y-134353000D01*
X190127000Y-134373000D01*
X191476250Y-134373000D01*
X191635000Y-134214250D01*
X191635000Y-134073691D01*
X191538327Y-133840302D01*
X191455757Y-133757732D01*
X191455757Y-133200000D01*
X191431672Y-133072000D01*
X193069212Y-133072000D01*
X193053121Y-133110750D01*
X193053121Y-133110750D01*
G37*
X193053121Y-133110750D02*
X193053097Y-133137973D01*
X191520160Y-134670910D01*
X191476250Y-134627000D01*
X190127000Y-134627000D01*
X190127000Y-134647000D01*
X189873000Y-134647000D01*
X189873000Y-134627000D01*
X189853000Y-134627000D01*
X189853000Y-134373000D01*
X189873000Y-134373000D01*
X189873000Y-134353000D01*
X190127000Y-134353000D01*
X190127000Y-134373000D01*
X191476250Y-134373000D01*
X191635000Y-134214250D01*
X191635000Y-134073691D01*
X191538327Y-133840302D01*
X191455757Y-133757732D01*
X191455757Y-133200000D01*
X191431672Y-133072000D01*
X193069212Y-133072000D01*
X193053121Y-133110750D01*
G36*
X149812154Y-59857491D02*
X150180067Y-59906948D01*
X150547202Y-59960963D01*
X150913056Y-60019465D01*
X151277931Y-60082593D01*
X151641846Y-60150258D01*
X152004776Y-60222453D01*
X152366505Y-60299137D01*
X152727222Y-60380443D01*
X153087074Y-60466309D01*
X153445750Y-60556662D01*
X153803493Y-60651659D01*
X154160253Y-60751191D01*
X154515944Y-60855233D01*
X154870686Y-60963821D01*
X155224301Y-61077002D01*
X155577056Y-61194758D01*
X155928714Y-61317013D01*
X156279449Y-61443931D01*
X156629194Y-61575285D01*
X156977769Y-61711210D01*
X157325578Y-61851861D01*
X157672273Y-61996900D01*
X158018021Y-62146601D01*
X158362789Y-62300839D01*
X158706511Y-62459707D01*
X159049345Y-62623149D01*
X159391152Y-62791148D01*
X159732050Y-62963715D01*
X160071779Y-63140768D01*
X160410662Y-63322524D01*
X160748617Y-63508842D01*
X161085494Y-63699796D01*
X161421520Y-63895261D01*
X161756510Y-64095328D01*
X162090526Y-64300096D01*
X162423460Y-64509302D01*
X162755561Y-64723238D01*
X163086748Y-64941760D01*
X163416851Y-65164754D01*
X163746040Y-65392503D01*
X164074170Y-65624809D01*
X164401423Y-65861734D01*
X164727669Y-66103284D01*
X165053016Y-66349343D01*
X165377311Y-66600068D01*
X165700681Y-66855563D01*
X166023084Y-67115521D01*
X166344520Y-67380140D01*
X166664944Y-67649368D01*
X166984351Y-67923216D01*
X167303029Y-68201738D01*
X167620465Y-68484771D01*
X167937015Y-68772544D01*
X168252594Y-69064873D01*
X168567195Y-69361864D01*
X168880875Y-69663567D01*
X169193604Y-69969764D01*
X169505164Y-70280631D01*
X169815949Y-70596269D01*
X170125667Y-70916383D01*
X170434509Y-71241271D01*
X170742314Y-71570673D01*
X171049109Y-71904710D01*
X171354934Y-72243536D01*
X171659759Y-72586810D01*
X171963572Y-72934833D01*
X172266405Y-73287428D01*
X172568426Y-73644894D01*
X172869262Y-74006709D01*
X173169172Y-74373266D01*
X173468106Y-74744626D01*
X173766083Y-75120495D01*
X174063053Y-75501011D01*
X174358982Y-75886155D01*
X174653939Y-76275990D01*
X174947914Y-76670439D01*
X175240889Y-77069544D01*
X175532930Y-77473435D01*
X175823930Y-77881789D01*
X176113819Y-78294824D01*
X176403017Y-78712721D01*
X176690956Y-79134945D01*
X176977842Y-79561897D01*
X177263908Y-79993580D01*
X177548902Y-80429914D01*
X177832900Y-80870871D01*
X178115913Y-81316515D01*
X178397952Y-81766764D01*
X178678959Y-82221684D01*
X178958912Y-82681345D01*
X179237997Y-83145525D01*
X179515970Y-83614351D01*
X179792810Y-84087783D01*
X180049898Y-84533284D01*
X185728190Y-99384202D01*
X184772348Y-100773000D01*
X172127000Y-100773000D01*
X172127000Y-97800886D01*
X172198249Y-97828877D01*
X173970903Y-98141443D01*
X174139447Y-98139512D01*
X174306273Y-98069520D01*
X174432725Y-97940137D01*
X174498877Y-97771751D01*
X174542645Y-97523527D01*
X174678815Y-97853083D01*
X175057402Y-98232331D01*
X175552302Y-98437831D01*
X176088171Y-98438299D01*
X176583429Y-98233663D01*
X176962677Y-97855076D01*
X177168177Y-97360176D01*
X177168624Y-96848462D01*
X177191996Y-96843813D01*
X177236250Y-96835011D01*
X177462372Y-96683920D01*
X178219292Y-95927000D01*
X179300000Y-95927000D01*
X179349410Y-95916994D01*
X179391035Y-95888553D01*
X179418315Y-95846159D01*
X179427000Y-95800000D01*
X179427000Y-85600000D01*
X179416994Y-85550590D01*
X179389803Y-85510197D01*
X157189803Y-63310197D01*
X157147789Y-63282334D01*
X157100000Y-63273000D01*
X138900000Y-63273000D01*
X138850590Y-63283006D01*
X138809366Y-63311037D01*
X117834670Y-84679624D01*
X117757147Y-84757147D01*
X117754100Y-84761707D01*
X117509366Y-85011037D01*
X117481895Y-85053307D01*
X117473000Y-85100000D01*
X117473000Y-94732342D01*
X117389250Y-94697566D01*
X117111966Y-94697324D01*
X116855697Y-94803213D01*
X116659457Y-94999111D01*
X116553121Y-95255195D01*
X116552879Y-95532479D01*
X116658768Y-95788748D01*
X116854666Y-95984988D01*
X117110750Y-96091324D01*
X117137973Y-96091348D01*
X117473000Y-96426375D01*
X117473000Y-99878010D01*
X115197107Y-99878010D01*
X115197121Y-99861966D01*
X115091232Y-99605697D01*
X114895334Y-99409457D01*
X114639250Y-99303121D01*
X114361966Y-99302879D01*
X114105697Y-99408768D01*
X113909457Y-99604666D01*
X113803121Y-99860750D01*
X113802879Y-100138034D01*
X113908768Y-100394303D01*
X114104666Y-100590543D01*
X114360750Y-100696879D01*
X114387973Y-100696903D01*
X114512923Y-100821853D01*
X112261275Y-100821853D01*
X111271810Y-99384202D01*
X116950103Y-84533282D01*
X117207190Y-84087784D01*
X117484102Y-83614228D01*
X117762003Y-83145525D01*
X118041088Y-82681344D01*
X118320998Y-82221755D01*
X118602003Y-81766835D01*
X118884087Y-81316515D01*
X119167100Y-80870872D01*
X119451074Y-80429952D01*
X119736092Y-79993580D01*
X120022086Y-79562004D01*
X120309090Y-79134877D01*
X120597051Y-78712622D01*
X120886131Y-78294895D01*
X121176117Y-77881723D01*
X121467139Y-77473339D01*
X121759045Y-77069634D01*
X122052020Y-76670528D01*
X122346061Y-76275990D01*
X122641067Y-75886091D01*
X122936947Y-75501011D01*
X123233982Y-75120414D01*
X123531842Y-74744690D01*
X123830828Y-74373266D01*
X124130738Y-74006709D01*
X124431574Y-73644894D01*
X124733535Y-73287499D01*
X125036429Y-72934832D01*
X125340241Y-72586810D01*
X125645066Y-72243536D01*
X125950891Y-71904710D01*
X126257687Y-71570673D01*
X126565433Y-71241333D01*
X126874332Y-70916384D01*
X127184108Y-70596211D01*
X127494780Y-70280687D01*
X127806396Y-69969764D01*
X128119125Y-69663567D01*
X128432752Y-69361915D01*
X128747355Y-69064922D01*
X129062985Y-68772544D01*
X129379587Y-68484725D01*
X129696971Y-68201738D01*
X130015649Y-67923216D01*
X130335056Y-67649368D01*
X130655529Y-67380100D01*
X130976927Y-67115512D01*
X131299319Y-66855563D01*
X131622644Y-66600103D01*
X131946866Y-66349433D01*
X132272331Y-66103284D01*
X132598622Y-65861701D01*
X132925812Y-65624822D01*
X133253960Y-65392503D01*
X133583149Y-65164755D01*
X133913315Y-64941718D01*
X134244376Y-64723279D01*
X134576500Y-64509327D01*
X134909514Y-64300071D01*
X135243490Y-64095328D01*
X135578480Y-63895261D01*
X135914544Y-63699774D01*
X136251383Y-63508843D01*
X136589338Y-63322524D01*
X136928255Y-63140750D01*
X137267950Y-62963715D01*
X137608881Y-62791131D01*
X137950655Y-62623149D01*
X138293489Y-62459707D01*
X138637248Y-62300823D01*
X138981911Y-62146630D01*
X139327737Y-61996896D01*
X139674451Y-61851849D01*
X140022231Y-61711210D01*
X140370849Y-61575268D01*
X140720577Y-61443921D01*
X141071285Y-61317013D01*
X141422993Y-61194741D01*
X141775699Y-61077002D01*
X142129292Y-60963828D01*
X142484056Y-60855233D01*
X142839747Y-60751190D01*
X143196506Y-60651659D01*
X143554250Y-60556662D01*
X143912926Y-60466309D01*
X144272760Y-60380447D01*
X144633495Y-60299137D01*
X144995300Y-60222437D01*
X145358168Y-60150255D01*
X145722069Y-60082593D01*
X146086944Y-60019465D01*
X146452798Y-59960963D01*
X146819922Y-59906950D01*
X147187846Y-59857491D01*
X147530473Y-59815853D01*
X149469527Y-59815853D01*
X149812154Y-59857491D01*
X149812154Y-59857491D01*
G37*
X149812154Y-59857491D02*
X150180067Y-59906948D01*
X150547202Y-59960963D01*
X150913056Y-60019465D01*
X151277931Y-60082593D01*
X151641846Y-60150258D01*
X152004776Y-60222453D01*
X152366505Y-60299137D01*
X152727222Y-60380443D01*
X153087074Y-60466309D01*
X153445750Y-60556662D01*
X153803493Y-60651659D01*
X154160253Y-60751191D01*
X154515944Y-60855233D01*
X154870686Y-60963821D01*
X155224301Y-61077002D01*
X155577056Y-61194758D01*
X155928714Y-61317013D01*
X156279449Y-61443931D01*
X156629194Y-61575285D01*
X156977769Y-61711210D01*
X157325578Y-61851861D01*
X157672273Y-61996900D01*
X158018021Y-62146601D01*
X158362789Y-62300839D01*
X158706511Y-62459707D01*
X159049345Y-62623149D01*
X159391152Y-62791148D01*
X159732050Y-62963715D01*
X160071779Y-63140768D01*
X160410662Y-63322524D01*
X160748617Y-63508842D01*
X161085494Y-63699796D01*
X161421520Y-63895261D01*
X161756510Y-64095328D01*
X162090526Y-64300096D01*
X162423460Y-64509302D01*
X162755561Y-64723238D01*
X163086748Y-64941760D01*
X163416851Y-65164754D01*
X163746040Y-65392503D01*
X164074170Y-65624809D01*
X164401423Y-65861734D01*
X164727669Y-66103284D01*
X165053016Y-66349343D01*
X165377311Y-66600068D01*
X165700681Y-66855563D01*
X166023084Y-67115521D01*
X166344520Y-67380140D01*
X166664944Y-67649368D01*
X166984351Y-67923216D01*
X167303029Y-68201738D01*
X167620465Y-68484771D01*
X167937015Y-68772544D01*
X168252594Y-69064873D01*
X168567195Y-69361864D01*
X168880875Y-69663567D01*
X169193604Y-69969764D01*
X169505164Y-70280631D01*
X169815949Y-70596269D01*
X170125667Y-70916383D01*
X170434509Y-71241271D01*
X170742314Y-71570673D01*
X171049109Y-71904710D01*
X171354934Y-72243536D01*
X171659759Y-72586810D01*
X171963572Y-72934833D01*
X172266405Y-73287428D01*
X172568426Y-73644894D01*
X172869262Y-74006709D01*
X173169172Y-74373266D01*
X173468106Y-74744626D01*
X173766083Y-75120495D01*
X174063053Y-75501011D01*
X174358982Y-75886155D01*
X174653939Y-76275990D01*
X174947914Y-76670439D01*
X175240889Y-77069544D01*
X175532930Y-77473435D01*
X175823930Y-77881789D01*
X176113819Y-78294824D01*
X176403017Y-78712721D01*
X176690956Y-79134945D01*
X176977842Y-79561897D01*
X177263908Y-79993580D01*
X177548902Y-80429914D01*
X177832900Y-80870871D01*
X178115913Y-81316515D01*
X178397952Y-81766764D01*
X178678959Y-82221684D01*
X178958912Y-82681345D01*
X179237997Y-83145525D01*
X179515970Y-83614351D01*
X179792810Y-84087783D01*
X180049898Y-84533284D01*
X185728190Y-99384202D01*
X184772348Y-100773000D01*
X172127000Y-100773000D01*
X172127000Y-97800886D01*
X172198249Y-97828877D01*
X173970903Y-98141443D01*
X174139447Y-98139512D01*
X174306273Y-98069520D01*
X174432725Y-97940137D01*
X174498877Y-97771751D01*
X174542645Y-97523527D01*
X174678815Y-97853083D01*
X175057402Y-98232331D01*
X175552302Y-98437831D01*
X176088171Y-98438299D01*
X176583429Y-98233663D01*
X176962677Y-97855076D01*
X177168177Y-97360176D01*
X177168624Y-96848462D01*
X177191996Y-96843813D01*
X177236250Y-96835011D01*
X177462372Y-96683920D01*
X178219292Y-95927000D01*
X179300000Y-95927000D01*
X179349410Y-95916994D01*
X179391035Y-95888553D01*
X179418315Y-95846159D01*
X179427000Y-95800000D01*
X179427000Y-85600000D01*
X179416994Y-85550590D01*
X179389803Y-85510197D01*
X157189803Y-63310197D01*
X157147789Y-63282334D01*
X157100000Y-63273000D01*
X138900000Y-63273000D01*
X138850590Y-63283006D01*
X138809366Y-63311037D01*
X117834670Y-84679624D01*
X117757147Y-84757147D01*
X117754100Y-84761707D01*
X117509366Y-85011037D01*
X117481895Y-85053307D01*
X117473000Y-85100000D01*
X117473000Y-94732342D01*
X117389250Y-94697566D01*
X117111966Y-94697324D01*
X116855697Y-94803213D01*
X116659457Y-94999111D01*
X116553121Y-95255195D01*
X116552879Y-95532479D01*
X116658768Y-95788748D01*
X116854666Y-95984988D01*
X117110750Y-96091324D01*
X117137973Y-96091348D01*
X117473000Y-96426375D01*
X117473000Y-99878010D01*
X115197107Y-99878010D01*
X115197121Y-99861966D01*
X115091232Y-99605697D01*
X114895334Y-99409457D01*
X114639250Y-99303121D01*
X114361966Y-99302879D01*
X114105697Y-99408768D01*
X113909457Y-99604666D01*
X113803121Y-99860750D01*
X113802879Y-100138034D01*
X113908768Y-100394303D01*
X114104666Y-100590543D01*
X114360750Y-100696879D01*
X114387973Y-100696903D01*
X114512923Y-100821853D01*
X112261275Y-100821853D01*
X111271810Y-99384202D01*
X116950103Y-84533282D01*
X117207190Y-84087784D01*
X117484102Y-83614228D01*
X117762003Y-83145525D01*
X118041088Y-82681344D01*
X118320998Y-82221755D01*
X118602003Y-81766835D01*
X118884087Y-81316515D01*
X119167100Y-80870872D01*
X119451074Y-80429952D01*
X119736092Y-79993580D01*
X120022086Y-79562004D01*
X120309090Y-79134877D01*
X120597051Y-78712622D01*
X120886131Y-78294895D01*
X121176117Y-77881723D01*
X121467139Y-77473339D01*
X121759045Y-77069634D01*
X122052020Y-76670528D01*
X122346061Y-76275990D01*
X122641067Y-75886091D01*
X122936947Y-75501011D01*
X123233982Y-75120414D01*
X123531842Y-74744690D01*
X123830828Y-74373266D01*
X124130738Y-74006709D01*
X124431574Y-73644894D01*
X124733535Y-73287499D01*
X125036429Y-72934832D01*
X125340241Y-72586810D01*
X125645066Y-72243536D01*
X125950891Y-71904710D01*
X126257687Y-71570673D01*
X126565433Y-71241333D01*
X126874332Y-70916384D01*
X127184108Y-70596211D01*
X127494780Y-70280687D01*
X127806396Y-69969764D01*
X128119125Y-69663567D01*
X128432752Y-69361915D01*
X128747355Y-69064922D01*
X129062985Y-68772544D01*
X129379587Y-68484725D01*
X129696971Y-68201738D01*
X130015649Y-67923216D01*
X130335056Y-67649368D01*
X130655529Y-67380100D01*
X130976927Y-67115512D01*
X131299319Y-66855563D01*
X131622644Y-66600103D01*
X131946866Y-66349433D01*
X132272331Y-66103284D01*
X132598622Y-65861701D01*
X132925812Y-65624822D01*
X133253960Y-65392503D01*
X133583149Y-65164755D01*
X133913315Y-64941718D01*
X134244376Y-64723279D01*
X134576500Y-64509327D01*
X134909514Y-64300071D01*
X135243490Y-64095328D01*
X135578480Y-63895261D01*
X135914544Y-63699774D01*
X136251383Y-63508843D01*
X136589338Y-63322524D01*
X136928255Y-63140750D01*
X137267950Y-62963715D01*
X137608881Y-62791131D01*
X137950655Y-62623149D01*
X138293489Y-62459707D01*
X138637248Y-62300823D01*
X138981911Y-62146630D01*
X139327737Y-61996896D01*
X139674451Y-61851849D01*
X140022231Y-61711210D01*
X140370849Y-61575268D01*
X140720577Y-61443921D01*
X141071285Y-61317013D01*
X141422993Y-61194741D01*
X141775699Y-61077002D01*
X142129292Y-60963828D01*
X142484056Y-60855233D01*
X142839747Y-60751190D01*
X143196506Y-60651659D01*
X143554250Y-60556662D01*
X143912926Y-60466309D01*
X144272760Y-60380447D01*
X144633495Y-60299137D01*
X144995300Y-60222437D01*
X145358168Y-60150255D01*
X145722069Y-60082593D01*
X146086944Y-60019465D01*
X146452798Y-59960963D01*
X146819922Y-59906950D01*
X147187846Y-59857491D01*
X147530473Y-59815853D01*
X149469527Y-59815853D01*
X149812154Y-59857491D01*
M02*
