G04 #@! TF.FileFunction,Soldermask,Bot*
%FSLAX46Y46*%
G04 Gerber Fmt 4.6, Leading zero omitted, Abs format (unit mm)*
G04 Created by KiCad (PCBNEW 4.0.1-stable) date 2017/06/23 15:44:35*
%MOMM*%
G01*
G04 APERTURE LIST*
%ADD10C,0.100000*%
G04 APERTURE END LIST*
D10*
G36*
X167790539Y-154838572D02*
X167956136Y-154872564D01*
X168111971Y-154938072D01*
X168252119Y-155032602D01*
X168371237Y-155152555D01*
X168464788Y-155293359D01*
X168529203Y-155449645D01*
X168561971Y-155615133D01*
X168561971Y-155615143D01*
X168562037Y-155615477D01*
X168559341Y-155808560D01*
X168559265Y-155808894D01*
X168559265Y-155808905D01*
X168521891Y-155973406D01*
X168453133Y-156127839D01*
X168355690Y-156265974D01*
X168233266Y-156382556D01*
X168090539Y-156473134D01*
X167932931Y-156534267D01*
X167766454Y-156563620D01*
X167597444Y-156560081D01*
X167432336Y-156523779D01*
X167277431Y-156456103D01*
X167138613Y-156359622D01*
X167021184Y-156238020D01*
X166942877Y-156116511D01*
X166933668Y-156105874D01*
X166921859Y-156098225D01*
X166908387Y-156094168D01*
X166894318Y-156094024D01*
X166880767Y-156097806D01*
X166868805Y-156105214D01*
X166859381Y-156115661D01*
X166855171Y-156123261D01*
X166853133Y-156127840D01*
X166755690Y-156265974D01*
X166633266Y-156382556D01*
X166490539Y-156473134D01*
X166332931Y-156534267D01*
X166166454Y-156563620D01*
X165997444Y-156560081D01*
X165832336Y-156523779D01*
X165677431Y-156456103D01*
X165538613Y-156359622D01*
X165421184Y-156238020D01*
X165329612Y-156095928D01*
X165267381Y-155938752D01*
X165236864Y-155772476D01*
X165239225Y-155603447D01*
X165274371Y-155438097D01*
X165340967Y-155282718D01*
X165436473Y-155143235D01*
X165557254Y-155024957D01*
X165698705Y-154932394D01*
X165855444Y-154869067D01*
X166021493Y-154837392D01*
X166190539Y-154838572D01*
X166356136Y-154872564D01*
X166511971Y-154938072D01*
X166652119Y-155032602D01*
X166771237Y-155152555D01*
X166857694Y-155282682D01*
X166867051Y-155293189D01*
X166878966Y-155300672D01*
X166892493Y-155304541D01*
X166906562Y-155304488D01*
X166920060Y-155300517D01*
X166931917Y-155292943D01*
X166940596Y-155283260D01*
X167036473Y-155143235D01*
X167157254Y-155024957D01*
X167298705Y-154932394D01*
X167455444Y-154869067D01*
X167621493Y-154837392D01*
X167790539Y-154838572D01*
X167790539Y-154838572D01*
G37*
G36*
X134070976Y-153064800D02*
X134070986Y-153064803D01*
X134071024Y-153064807D01*
X134248140Y-153119633D01*
X134411233Y-153207817D01*
X134554092Y-153326001D01*
X134671275Y-153469681D01*
X134758319Y-153633386D01*
X134811907Y-153810880D01*
X134830000Y-153995403D01*
X134830000Y-154004636D01*
X134829922Y-154015839D01*
X134829921Y-154015847D01*
X134829907Y-154017861D01*
X134809240Y-154202113D01*
X134753179Y-154378842D01*
X134663858Y-154541316D01*
X134544680Y-154683346D01*
X134400185Y-154799523D01*
X134235876Y-154885422D01*
X134058012Y-154937770D01*
X134057978Y-154937773D01*
X134057965Y-154937777D01*
X133873371Y-154954577D01*
X133689024Y-154935200D01*
X133689014Y-154935197D01*
X133688976Y-154935193D01*
X133511860Y-154880367D01*
X133348767Y-154792183D01*
X133205908Y-154673999D01*
X133088725Y-154530319D01*
X133001681Y-154366614D01*
X132948093Y-154189120D01*
X132930000Y-154004597D01*
X132930000Y-153995364D01*
X132930078Y-153984161D01*
X132930079Y-153984153D01*
X132930093Y-153982139D01*
X132950760Y-153797887D01*
X133006821Y-153621158D01*
X133096142Y-153458684D01*
X133215320Y-153316654D01*
X133359815Y-153200477D01*
X133524124Y-153114578D01*
X133701988Y-153062230D01*
X133702022Y-153062227D01*
X133702035Y-153062223D01*
X133886629Y-153045423D01*
X134070976Y-153064800D01*
X134070976Y-153064800D01*
G37*
G36*
X136610976Y-153064800D02*
X136610986Y-153064803D01*
X136611024Y-153064807D01*
X136788140Y-153119633D01*
X136951233Y-153207817D01*
X137094092Y-153326001D01*
X137211275Y-153469681D01*
X137298319Y-153633386D01*
X137351907Y-153810880D01*
X137370000Y-153995403D01*
X137370000Y-154004636D01*
X137369922Y-154015839D01*
X137369921Y-154015847D01*
X137369907Y-154017861D01*
X137349240Y-154202113D01*
X137293179Y-154378842D01*
X137203858Y-154541316D01*
X137084680Y-154683346D01*
X136940185Y-154799523D01*
X136775876Y-154885422D01*
X136598012Y-154937770D01*
X136597978Y-154937773D01*
X136597965Y-154937777D01*
X136413371Y-154954577D01*
X136229024Y-154935200D01*
X136229014Y-154935197D01*
X136228976Y-154935193D01*
X136051860Y-154880367D01*
X135888767Y-154792183D01*
X135745908Y-154673999D01*
X135628725Y-154530319D01*
X135541681Y-154366614D01*
X135488093Y-154189120D01*
X135470000Y-154004597D01*
X135470000Y-153995364D01*
X135470078Y-153984161D01*
X135470079Y-153984153D01*
X135470093Y-153982139D01*
X135490760Y-153797887D01*
X135546821Y-153621158D01*
X135636142Y-153458684D01*
X135755320Y-153316654D01*
X135899815Y-153200477D01*
X136064124Y-153114578D01*
X136241988Y-153062230D01*
X136242022Y-153062227D01*
X136242035Y-153062223D01*
X136426629Y-153045423D01*
X136610976Y-153064800D01*
X136610976Y-153064800D01*
G37*
G36*
X139150976Y-153064800D02*
X139150986Y-153064803D01*
X139151024Y-153064807D01*
X139328140Y-153119633D01*
X139491233Y-153207817D01*
X139634092Y-153326001D01*
X139751275Y-153469681D01*
X139838319Y-153633386D01*
X139891907Y-153810880D01*
X139910000Y-153995403D01*
X139910000Y-154004636D01*
X139909922Y-154015839D01*
X139909921Y-154015847D01*
X139909907Y-154017861D01*
X139889240Y-154202113D01*
X139833179Y-154378842D01*
X139743858Y-154541316D01*
X139624680Y-154683346D01*
X139480185Y-154799523D01*
X139315876Y-154885422D01*
X139138012Y-154937770D01*
X139137978Y-154937773D01*
X139137965Y-154937777D01*
X138953371Y-154954577D01*
X138769024Y-154935200D01*
X138769014Y-154935197D01*
X138768976Y-154935193D01*
X138591860Y-154880367D01*
X138428767Y-154792183D01*
X138285908Y-154673999D01*
X138168725Y-154530319D01*
X138081681Y-154366614D01*
X138028093Y-154189120D01*
X138010000Y-154004597D01*
X138010000Y-153995364D01*
X138010078Y-153984161D01*
X138010079Y-153984153D01*
X138010093Y-153982139D01*
X138030760Y-153797887D01*
X138086821Y-153621158D01*
X138176142Y-153458684D01*
X138295320Y-153316654D01*
X138439815Y-153200477D01*
X138604124Y-153114578D01*
X138781988Y-153062230D01*
X138782022Y-153062227D01*
X138782035Y-153062223D01*
X138966629Y-153045423D01*
X139150976Y-153064800D01*
X139150976Y-153064800D01*
G37*
G36*
X142450000Y-154950000D02*
X140550000Y-154950000D01*
X140550000Y-153050000D01*
X142450000Y-153050000D01*
X142450000Y-154950000D01*
X142450000Y-154950000D01*
G37*
G36*
X153090539Y-152288572D02*
X153256136Y-152322564D01*
X153411971Y-152388072D01*
X153552119Y-152482602D01*
X153671237Y-152602555D01*
X153764788Y-152743359D01*
X153829203Y-152899645D01*
X153861971Y-153065133D01*
X153861971Y-153065143D01*
X153862037Y-153065477D01*
X153859341Y-153258560D01*
X153859265Y-153258894D01*
X153859265Y-153258905D01*
X153821891Y-153423406D01*
X153753133Y-153577839D01*
X153655690Y-153715974D01*
X153533266Y-153832556D01*
X153390539Y-153923134D01*
X153232931Y-153984267D01*
X153066454Y-154013620D01*
X152897444Y-154010081D01*
X152732336Y-153973779D01*
X152577431Y-153906103D01*
X152438613Y-153809622D01*
X152321184Y-153688020D01*
X152229612Y-153545928D01*
X152167381Y-153388752D01*
X152136864Y-153222476D01*
X152139225Y-153053447D01*
X152174371Y-152888097D01*
X152240967Y-152732718D01*
X152336473Y-152593235D01*
X152457254Y-152474957D01*
X152598705Y-152382394D01*
X152755444Y-152319067D01*
X152921493Y-152287392D01*
X153090539Y-152288572D01*
X153090539Y-152288572D01*
G37*
G36*
X161090539Y-152288572D02*
X161256136Y-152322564D01*
X161411971Y-152388072D01*
X161552119Y-152482602D01*
X161671237Y-152602555D01*
X161764788Y-152743359D01*
X161829203Y-152899645D01*
X161861971Y-153065133D01*
X161861971Y-153065143D01*
X161862037Y-153065477D01*
X161859341Y-153258560D01*
X161859265Y-153258894D01*
X161859265Y-153258905D01*
X161821891Y-153423406D01*
X161753133Y-153577839D01*
X161655690Y-153715974D01*
X161533266Y-153832556D01*
X161390539Y-153923134D01*
X161232931Y-153984267D01*
X161066454Y-154013620D01*
X160897444Y-154010081D01*
X160732336Y-153973779D01*
X160577431Y-153906103D01*
X160438613Y-153809622D01*
X160321184Y-153688020D01*
X160229612Y-153545928D01*
X160167381Y-153388752D01*
X160136864Y-153222476D01*
X160139225Y-153053447D01*
X160174371Y-152888097D01*
X160240967Y-152732718D01*
X160336473Y-152593235D01*
X160457254Y-152474957D01*
X160598705Y-152382394D01*
X160755444Y-152319067D01*
X160921493Y-152287392D01*
X161090539Y-152288572D01*
X161090539Y-152288572D01*
G37*
G36*
X159090539Y-152288572D02*
X159256136Y-152322564D01*
X159411971Y-152388072D01*
X159552119Y-152482602D01*
X159671237Y-152602555D01*
X159764788Y-152743359D01*
X159829203Y-152899645D01*
X159861971Y-153065133D01*
X159861971Y-153065143D01*
X159862037Y-153065477D01*
X159859341Y-153258560D01*
X159859265Y-153258894D01*
X159859265Y-153258905D01*
X159821891Y-153423406D01*
X159753133Y-153577839D01*
X159655690Y-153715974D01*
X159533266Y-153832556D01*
X159390539Y-153923134D01*
X159232931Y-153984267D01*
X159066454Y-154013620D01*
X158897444Y-154010081D01*
X158732336Y-153973779D01*
X158577431Y-153906103D01*
X158438613Y-153809622D01*
X158321184Y-153688020D01*
X158229612Y-153545928D01*
X158167381Y-153388752D01*
X158136864Y-153222476D01*
X158139225Y-153053447D01*
X158174371Y-152888097D01*
X158240967Y-152732718D01*
X158336473Y-152593235D01*
X158457254Y-152474957D01*
X158598705Y-152382394D01*
X158755444Y-152319067D01*
X158921493Y-152287392D01*
X159090539Y-152288572D01*
X159090539Y-152288572D01*
G37*
G36*
X155090539Y-152288572D02*
X155256136Y-152322564D01*
X155411971Y-152388072D01*
X155552119Y-152482602D01*
X155671237Y-152602555D01*
X155764788Y-152743359D01*
X155829203Y-152899645D01*
X155861971Y-153065133D01*
X155861971Y-153065143D01*
X155862037Y-153065477D01*
X155859341Y-153258560D01*
X155859265Y-153258894D01*
X155859265Y-153258905D01*
X155821891Y-153423406D01*
X155753133Y-153577839D01*
X155655690Y-153715974D01*
X155533266Y-153832556D01*
X155390539Y-153923134D01*
X155232931Y-153984267D01*
X155066454Y-154013620D01*
X154897444Y-154010081D01*
X154732336Y-153973779D01*
X154577431Y-153906103D01*
X154438613Y-153809622D01*
X154321184Y-153688020D01*
X154229612Y-153545928D01*
X154167381Y-153388752D01*
X154136864Y-153222476D01*
X154139225Y-153053447D01*
X154174371Y-152888097D01*
X154240967Y-152732718D01*
X154336473Y-152593235D01*
X154457254Y-152474957D01*
X154598705Y-152382394D01*
X154755444Y-152319067D01*
X154921493Y-152287392D01*
X155090539Y-152288572D01*
X155090539Y-152288572D01*
G37*
G36*
X166171493Y-150402150D02*
X166171502Y-150402153D01*
X166171542Y-150402157D01*
X166330593Y-150451391D01*
X166477053Y-150530582D01*
X166605342Y-150636712D01*
X166710573Y-150765738D01*
X166788739Y-150912747D01*
X166836863Y-151072139D01*
X166853110Y-151237842D01*
X166853110Y-152762158D01*
X166853027Y-152774069D01*
X166834467Y-152939530D01*
X166784124Y-153098234D01*
X166703913Y-153244137D01*
X166596890Y-153371682D01*
X166467132Y-153476010D01*
X166319581Y-153553148D01*
X166159857Y-153600157D01*
X166159823Y-153600160D01*
X166159810Y-153600164D01*
X165994046Y-153615250D01*
X165828507Y-153597850D01*
X165828498Y-153597847D01*
X165828458Y-153597843D01*
X165669407Y-153548609D01*
X165522947Y-153469418D01*
X165394658Y-153363288D01*
X165289427Y-153234262D01*
X165211261Y-153087253D01*
X165163137Y-152927861D01*
X165146890Y-152762158D01*
X165146890Y-151237842D01*
X165146973Y-151225931D01*
X165165533Y-151060470D01*
X165215876Y-150901766D01*
X165296087Y-150755863D01*
X165403110Y-150628318D01*
X165532868Y-150523990D01*
X165680419Y-150446852D01*
X165840143Y-150399843D01*
X165840177Y-150399840D01*
X165840190Y-150399836D01*
X166005954Y-150384750D01*
X166171493Y-150402150D01*
X166171493Y-150402150D01*
G37*
G36*
X168171493Y-150402150D02*
X168171502Y-150402153D01*
X168171542Y-150402157D01*
X168330593Y-150451391D01*
X168477053Y-150530582D01*
X168605342Y-150636712D01*
X168710573Y-150765738D01*
X168788739Y-150912747D01*
X168836863Y-151072139D01*
X168853110Y-151237842D01*
X168853110Y-152762158D01*
X168853027Y-152774069D01*
X168834467Y-152939530D01*
X168784124Y-153098234D01*
X168703913Y-153244137D01*
X168596890Y-153371682D01*
X168467132Y-153476010D01*
X168319581Y-153553148D01*
X168159857Y-153600157D01*
X168159823Y-153600160D01*
X168159810Y-153600164D01*
X167994046Y-153615250D01*
X167828507Y-153597850D01*
X167828498Y-153597847D01*
X167828458Y-153597843D01*
X167669407Y-153548609D01*
X167522947Y-153469418D01*
X167394658Y-153363288D01*
X167289427Y-153234262D01*
X167211261Y-153087253D01*
X167163137Y-152927861D01*
X167146890Y-152762158D01*
X167146890Y-151237842D01*
X167146973Y-151225931D01*
X167165533Y-151060470D01*
X167215876Y-150901766D01*
X167296087Y-150755863D01*
X167403110Y-150628318D01*
X167532868Y-150523990D01*
X167680419Y-150446852D01*
X167840143Y-150399843D01*
X167840177Y-150399840D01*
X167840190Y-150399836D01*
X168005954Y-150384750D01*
X168171493Y-150402150D01*
X168171493Y-150402150D01*
G37*
G36*
X153090539Y-148988572D02*
X153256136Y-149022564D01*
X153411971Y-149088072D01*
X153552119Y-149182602D01*
X153671237Y-149302555D01*
X153764788Y-149443359D01*
X153829203Y-149599645D01*
X153861971Y-149765133D01*
X153861971Y-149765143D01*
X153862037Y-149765477D01*
X153859341Y-149958560D01*
X153859265Y-149958894D01*
X153859265Y-149958905D01*
X153821891Y-150123406D01*
X153753133Y-150277839D01*
X153655690Y-150415974D01*
X153533266Y-150532556D01*
X153390539Y-150623134D01*
X153232931Y-150684267D01*
X153066454Y-150713620D01*
X152897444Y-150710081D01*
X152732336Y-150673779D01*
X152577431Y-150606103D01*
X152438613Y-150509622D01*
X152321184Y-150388020D01*
X152229612Y-150245928D01*
X152167381Y-150088752D01*
X152136864Y-149922476D01*
X152139225Y-149753447D01*
X152174371Y-149588097D01*
X152240967Y-149432718D01*
X152336473Y-149293235D01*
X152457254Y-149174957D01*
X152598705Y-149082394D01*
X152755444Y-149019067D01*
X152921493Y-148987392D01*
X153090539Y-148988572D01*
X153090539Y-148988572D01*
G37*
G36*
X155090539Y-148988572D02*
X155256136Y-149022564D01*
X155411971Y-149088072D01*
X155552119Y-149182602D01*
X155671237Y-149302555D01*
X155764788Y-149443359D01*
X155829203Y-149599645D01*
X155861971Y-149765133D01*
X155861971Y-149765143D01*
X155862037Y-149765477D01*
X155859341Y-149958560D01*
X155859265Y-149958894D01*
X155859265Y-149958905D01*
X155821891Y-150123406D01*
X155753133Y-150277839D01*
X155655690Y-150415974D01*
X155533266Y-150532556D01*
X155390539Y-150623134D01*
X155232931Y-150684267D01*
X155066454Y-150713620D01*
X154897444Y-150710081D01*
X154732336Y-150673779D01*
X154577431Y-150606103D01*
X154438613Y-150509622D01*
X154321184Y-150388020D01*
X154229612Y-150245928D01*
X154167381Y-150088752D01*
X154136864Y-149922476D01*
X154139225Y-149753447D01*
X154174371Y-149588097D01*
X154240967Y-149432718D01*
X154336473Y-149293235D01*
X154457254Y-149174957D01*
X154598705Y-149082394D01*
X154755444Y-149019067D01*
X154921493Y-148987392D01*
X155090539Y-148988572D01*
X155090539Y-148988572D01*
G37*
G36*
X159090539Y-148988572D02*
X159256136Y-149022564D01*
X159411971Y-149088072D01*
X159552119Y-149182602D01*
X159671237Y-149302555D01*
X159764788Y-149443359D01*
X159829203Y-149599645D01*
X159861971Y-149765133D01*
X159861971Y-149765143D01*
X159862037Y-149765477D01*
X159859341Y-149958560D01*
X159859265Y-149958894D01*
X159859265Y-149958905D01*
X159821891Y-150123406D01*
X159753133Y-150277839D01*
X159655690Y-150415974D01*
X159533266Y-150532556D01*
X159390539Y-150623134D01*
X159232931Y-150684267D01*
X159066454Y-150713620D01*
X158897444Y-150710081D01*
X158732336Y-150673779D01*
X158577431Y-150606103D01*
X158438613Y-150509622D01*
X158321184Y-150388020D01*
X158229612Y-150245928D01*
X158167381Y-150088752D01*
X158136864Y-149922476D01*
X158139225Y-149753447D01*
X158174371Y-149588097D01*
X158240967Y-149432718D01*
X158336473Y-149293235D01*
X158457254Y-149174957D01*
X158598705Y-149082394D01*
X158755444Y-149019067D01*
X158921493Y-148987392D01*
X159090539Y-148988572D01*
X159090539Y-148988572D01*
G37*
G36*
X161090539Y-148988572D02*
X161256136Y-149022564D01*
X161411971Y-149088072D01*
X161552119Y-149182602D01*
X161671237Y-149302555D01*
X161764788Y-149443359D01*
X161829203Y-149599645D01*
X161861971Y-149765133D01*
X161861971Y-149765143D01*
X161862037Y-149765477D01*
X161859341Y-149958560D01*
X161859265Y-149958894D01*
X161859265Y-149958905D01*
X161821891Y-150123406D01*
X161753133Y-150277839D01*
X161655690Y-150415974D01*
X161533266Y-150532556D01*
X161390539Y-150623134D01*
X161232931Y-150684267D01*
X161066454Y-150713620D01*
X160897444Y-150710081D01*
X160732336Y-150673779D01*
X160577431Y-150606103D01*
X160438613Y-150509622D01*
X160321184Y-150388020D01*
X160229612Y-150245928D01*
X160167381Y-150088752D01*
X160136864Y-149922476D01*
X160139225Y-149753447D01*
X160174371Y-149588097D01*
X160240967Y-149432718D01*
X160336473Y-149293235D01*
X160457254Y-149174957D01*
X160598705Y-149082394D01*
X160755444Y-149019067D01*
X160921493Y-148987392D01*
X161090539Y-148988572D01*
X161090539Y-148988572D01*
G37*
G36*
X197975000Y-149250000D02*
X197025000Y-149250000D01*
X197025000Y-148250000D01*
X197975000Y-148250000D01*
X197975000Y-149250000D01*
X197975000Y-149250000D01*
G37*
G36*
X197975000Y-147750000D02*
X197025000Y-147750000D01*
X197025000Y-146750000D01*
X197975000Y-146750000D01*
X197975000Y-147750000D01*
X197975000Y-147750000D01*
G37*
G36*
X197975000Y-146250000D02*
X197025000Y-146250000D01*
X197025000Y-145250000D01*
X197975000Y-145250000D01*
X197975000Y-146250000D01*
X197975000Y-146250000D01*
G37*
G36*
X197975000Y-144750000D02*
X197025000Y-144750000D01*
X197025000Y-143750000D01*
X197975000Y-143750000D01*
X197975000Y-144750000D01*
X197975000Y-144750000D01*
G37*
G36*
X197975000Y-143250000D02*
X197025000Y-143250000D01*
X197025000Y-142250000D01*
X197975000Y-142250000D01*
X197975000Y-143250000D01*
X197975000Y-143250000D01*
G37*
G36*
X197975000Y-141750000D02*
X197025000Y-141750000D01*
X197025000Y-140750000D01*
X197975000Y-140750000D01*
X197975000Y-141750000D01*
X197975000Y-141750000D01*
G37*
G36*
X197975000Y-140250000D02*
X197025000Y-140250000D01*
X197025000Y-139250000D01*
X197975000Y-139250000D01*
X197975000Y-140250000D01*
X197975000Y-140250000D01*
G37*
G36*
X197975000Y-138750000D02*
X197025000Y-138750000D01*
X197025000Y-137750000D01*
X197975000Y-137750000D01*
X197975000Y-138750000D01*
X197975000Y-138750000D01*
G37*
G36*
X194300000Y-136950000D02*
X189900000Y-136950000D01*
X189900000Y-136050000D01*
X194300000Y-136050000D01*
X194300000Y-136950000D01*
X194300000Y-136950000D01*
G37*
G36*
X191100000Y-135900000D02*
X188900000Y-135900000D01*
X188900000Y-135100000D01*
X191100000Y-135100000D01*
X191100000Y-135900000D01*
X191100000Y-135900000D01*
G37*
G36*
X191100000Y-134900000D02*
X188900000Y-134900000D01*
X188900000Y-134100000D01*
X191100000Y-134100000D01*
X191100000Y-134900000D01*
X191100000Y-134900000D01*
G37*
G36*
X191100000Y-133900000D02*
X188900000Y-133900000D01*
X188900000Y-133100000D01*
X191100000Y-133100000D01*
X191100000Y-133900000D01*
X191100000Y-133900000D01*
G37*
G36*
X191100000Y-132900000D02*
X188900000Y-132900000D01*
X188900000Y-132100000D01*
X191100000Y-132100000D01*
X191100000Y-132900000D01*
X191100000Y-132900000D01*
G37*
G36*
X191100000Y-131900000D02*
X188900000Y-131900000D01*
X188900000Y-131100000D01*
X191100000Y-131100000D01*
X191100000Y-131900000D01*
X191100000Y-131900000D01*
G37*
G36*
X194300000Y-130950000D02*
X189900000Y-130950000D01*
X189900000Y-130050000D01*
X194300000Y-130050000D01*
X194300000Y-130950000D01*
X194300000Y-130950000D01*
G37*
G36*
X197900000Y-129250000D02*
X197100000Y-129250000D01*
X197100000Y-128650000D01*
X197900000Y-128650000D01*
X197900000Y-129250000D01*
X197900000Y-129250000D01*
G37*
G36*
X197900000Y-128350000D02*
X197100000Y-128350000D01*
X197100000Y-127750000D01*
X197900000Y-127750000D01*
X197900000Y-128350000D01*
X197900000Y-128350000D01*
G37*
G36*
X197975000Y-127250000D02*
X197025000Y-127250000D01*
X197025000Y-126250000D01*
X197975000Y-126250000D01*
X197975000Y-127250000D01*
X197975000Y-127250000D01*
G37*
G36*
X197975000Y-125750000D02*
X197025000Y-125750000D01*
X197025000Y-124750000D01*
X197975000Y-124750000D01*
X197975000Y-125750000D01*
X197975000Y-125750000D01*
G37*
G36*
X197975000Y-124250000D02*
X197025000Y-124250000D01*
X197025000Y-123250000D01*
X197975000Y-123250000D01*
X197975000Y-124250000D01*
X197975000Y-124250000D01*
G37*
G36*
X197975000Y-122750000D02*
X197025000Y-122750000D01*
X197025000Y-121750000D01*
X197975000Y-121750000D01*
X197975000Y-122750000D01*
X197975000Y-122750000D01*
G37*
G36*
X197900000Y-121250000D02*
X197100000Y-121250000D01*
X197100000Y-120650000D01*
X197900000Y-120650000D01*
X197900000Y-121250000D01*
X197900000Y-121250000D01*
G37*
G36*
X197900000Y-120350000D02*
X197100000Y-120350000D01*
X197100000Y-119750000D01*
X197900000Y-119750000D01*
X197900000Y-120350000D01*
X197900000Y-120350000D01*
G37*
G36*
X197900000Y-119250000D02*
X197100000Y-119250000D01*
X197100000Y-118650000D01*
X197900000Y-118650000D01*
X197900000Y-119250000D01*
X197900000Y-119250000D01*
G37*
G36*
X197900000Y-118350000D02*
X197100000Y-118350000D01*
X197100000Y-117750000D01*
X197900000Y-117750000D01*
X197900000Y-118350000D01*
X197900000Y-118350000D01*
G37*
G36*
X164655785Y-113237071D02*
X164655798Y-113237075D01*
X164655835Y-113237079D01*
X164800325Y-113281806D01*
X164933375Y-113353746D01*
X165049917Y-113450158D01*
X165145514Y-113567372D01*
X165216523Y-113700920D01*
X165260240Y-113845718D01*
X165275000Y-113996250D01*
X165275000Y-114003789D01*
X165274939Y-114012548D01*
X165274938Y-114012556D01*
X165274924Y-114014571D01*
X165258064Y-114164882D01*
X165212330Y-114309055D01*
X165139463Y-114441599D01*
X165042239Y-114557466D01*
X164924361Y-114652242D01*
X164790320Y-114722317D01*
X164645221Y-114765023D01*
X164645187Y-114765026D01*
X164645174Y-114765030D01*
X164494591Y-114778734D01*
X164344215Y-114762929D01*
X164344202Y-114762925D01*
X164344165Y-114762921D01*
X164199675Y-114718194D01*
X164066625Y-114646254D01*
X163950083Y-114549842D01*
X163854486Y-114432628D01*
X163783477Y-114299080D01*
X163739760Y-114154282D01*
X163725000Y-114003750D01*
X163725000Y-113996211D01*
X163725061Y-113987452D01*
X163725062Y-113987444D01*
X163725076Y-113985429D01*
X163741936Y-113835118D01*
X163787670Y-113690945D01*
X163860537Y-113558401D01*
X163957761Y-113442534D01*
X164075639Y-113347758D01*
X164209680Y-113277683D01*
X164354779Y-113234977D01*
X164354813Y-113234974D01*
X164354826Y-113234970D01*
X164505409Y-113221266D01*
X164655785Y-113237071D01*
X164655785Y-113237071D01*
G37*
G36*
X132655785Y-113237071D02*
X132655798Y-113237075D01*
X132655835Y-113237079D01*
X132800325Y-113281806D01*
X132933375Y-113353746D01*
X133049917Y-113450158D01*
X133145514Y-113567372D01*
X133216523Y-113700920D01*
X133260240Y-113845718D01*
X133275000Y-113996250D01*
X133275000Y-114003789D01*
X133274939Y-114012548D01*
X133274938Y-114012556D01*
X133274924Y-114014571D01*
X133258064Y-114164882D01*
X133212330Y-114309055D01*
X133139463Y-114441599D01*
X133042239Y-114557466D01*
X132924361Y-114652242D01*
X132790320Y-114722317D01*
X132645221Y-114765023D01*
X132645187Y-114765026D01*
X132645174Y-114765030D01*
X132494591Y-114778734D01*
X132344215Y-114762929D01*
X132344202Y-114762925D01*
X132344165Y-114762921D01*
X132199675Y-114718194D01*
X132066625Y-114646254D01*
X131950083Y-114549842D01*
X131854486Y-114432628D01*
X131783477Y-114299080D01*
X131739760Y-114154282D01*
X131725000Y-114003750D01*
X131725000Y-113996211D01*
X131725061Y-113987452D01*
X131725062Y-113987444D01*
X131725076Y-113985429D01*
X131741936Y-113835118D01*
X131787670Y-113690945D01*
X131860537Y-113558401D01*
X131957761Y-113442534D01*
X132075639Y-113347758D01*
X132209680Y-113277683D01*
X132354779Y-113234977D01*
X132354813Y-113234974D01*
X132354826Y-113234970D01*
X132505409Y-113221266D01*
X132655785Y-113237071D01*
X132655785Y-113237071D01*
G37*
G36*
X162655785Y-113237071D02*
X162655798Y-113237075D01*
X162655835Y-113237079D01*
X162800325Y-113281806D01*
X162933375Y-113353746D01*
X163049917Y-113450158D01*
X163145514Y-113567372D01*
X163216523Y-113700920D01*
X163260240Y-113845718D01*
X163275000Y-113996250D01*
X163275000Y-114003789D01*
X163274939Y-114012548D01*
X163274938Y-114012556D01*
X163274924Y-114014571D01*
X163258064Y-114164882D01*
X163212330Y-114309055D01*
X163139463Y-114441599D01*
X163042239Y-114557466D01*
X162924361Y-114652242D01*
X162790320Y-114722317D01*
X162645221Y-114765023D01*
X162645187Y-114765026D01*
X162645174Y-114765030D01*
X162494591Y-114778734D01*
X162344215Y-114762929D01*
X162344202Y-114762925D01*
X162344165Y-114762921D01*
X162199675Y-114718194D01*
X162066625Y-114646254D01*
X161950083Y-114549842D01*
X161854486Y-114432628D01*
X161783477Y-114299080D01*
X161739760Y-114154282D01*
X161725000Y-114003750D01*
X161725000Y-113996211D01*
X161725061Y-113987452D01*
X161725062Y-113987444D01*
X161725076Y-113985429D01*
X161741936Y-113835118D01*
X161787670Y-113690945D01*
X161860537Y-113558401D01*
X161957761Y-113442534D01*
X162075639Y-113347758D01*
X162209680Y-113277683D01*
X162354779Y-113234977D01*
X162354813Y-113234974D01*
X162354826Y-113234970D01*
X162505409Y-113221266D01*
X162655785Y-113237071D01*
X162655785Y-113237071D01*
G37*
G36*
X136655785Y-113237071D02*
X136655798Y-113237075D01*
X136655835Y-113237079D01*
X136800325Y-113281806D01*
X136933375Y-113353746D01*
X137049917Y-113450158D01*
X137145514Y-113567372D01*
X137216523Y-113700920D01*
X137260240Y-113845718D01*
X137275000Y-113996250D01*
X137275000Y-114003789D01*
X137274939Y-114012548D01*
X137274938Y-114012556D01*
X137274924Y-114014571D01*
X137258064Y-114164882D01*
X137212330Y-114309055D01*
X137139463Y-114441599D01*
X137042239Y-114557466D01*
X136924361Y-114652242D01*
X136790320Y-114722317D01*
X136645221Y-114765023D01*
X136645187Y-114765026D01*
X136645174Y-114765030D01*
X136494591Y-114778734D01*
X136344215Y-114762929D01*
X136344202Y-114762925D01*
X136344165Y-114762921D01*
X136199675Y-114718194D01*
X136066625Y-114646254D01*
X135950083Y-114549842D01*
X135854486Y-114432628D01*
X135783477Y-114299080D01*
X135739760Y-114154282D01*
X135725000Y-114003750D01*
X135725000Y-113996211D01*
X135725061Y-113987452D01*
X135725062Y-113987444D01*
X135725076Y-113985429D01*
X135741936Y-113835118D01*
X135787670Y-113690945D01*
X135860537Y-113558401D01*
X135957761Y-113442534D01*
X136075639Y-113347758D01*
X136209680Y-113277683D01*
X136354779Y-113234977D01*
X136354813Y-113234974D01*
X136354826Y-113234970D01*
X136505409Y-113221266D01*
X136655785Y-113237071D01*
X136655785Y-113237071D01*
G37*
G36*
X160655785Y-113237071D02*
X160655798Y-113237075D01*
X160655835Y-113237079D01*
X160800325Y-113281806D01*
X160933375Y-113353746D01*
X161049917Y-113450158D01*
X161145514Y-113567372D01*
X161216523Y-113700920D01*
X161260240Y-113845718D01*
X161275000Y-113996250D01*
X161275000Y-114003789D01*
X161274939Y-114012548D01*
X161274938Y-114012556D01*
X161274924Y-114014571D01*
X161258064Y-114164882D01*
X161212330Y-114309055D01*
X161139463Y-114441599D01*
X161042239Y-114557466D01*
X160924361Y-114652242D01*
X160790320Y-114722317D01*
X160645221Y-114765023D01*
X160645187Y-114765026D01*
X160645174Y-114765030D01*
X160494591Y-114778734D01*
X160344215Y-114762929D01*
X160344202Y-114762925D01*
X160344165Y-114762921D01*
X160199675Y-114718194D01*
X160066625Y-114646254D01*
X159950083Y-114549842D01*
X159854486Y-114432628D01*
X159783477Y-114299080D01*
X159739760Y-114154282D01*
X159725000Y-114003750D01*
X159725000Y-113996211D01*
X159725061Y-113987452D01*
X159725062Y-113987444D01*
X159725076Y-113985429D01*
X159741936Y-113835118D01*
X159787670Y-113690945D01*
X159860537Y-113558401D01*
X159957761Y-113442534D01*
X160075639Y-113347758D01*
X160209680Y-113277683D01*
X160354779Y-113234977D01*
X160354813Y-113234974D01*
X160354826Y-113234970D01*
X160505409Y-113221266D01*
X160655785Y-113237071D01*
X160655785Y-113237071D01*
G37*
G36*
X134655785Y-113237071D02*
X134655798Y-113237075D01*
X134655835Y-113237079D01*
X134800325Y-113281806D01*
X134933375Y-113353746D01*
X135049917Y-113450158D01*
X135145514Y-113567372D01*
X135216523Y-113700920D01*
X135260240Y-113845718D01*
X135275000Y-113996250D01*
X135275000Y-114003789D01*
X135274939Y-114012548D01*
X135274938Y-114012556D01*
X135274924Y-114014571D01*
X135258064Y-114164882D01*
X135212330Y-114309055D01*
X135139463Y-114441599D01*
X135042239Y-114557466D01*
X134924361Y-114652242D01*
X134790320Y-114722317D01*
X134645221Y-114765023D01*
X134645187Y-114765026D01*
X134645174Y-114765030D01*
X134494591Y-114778734D01*
X134344215Y-114762929D01*
X134344202Y-114762925D01*
X134344165Y-114762921D01*
X134199675Y-114718194D01*
X134066625Y-114646254D01*
X133950083Y-114549842D01*
X133854486Y-114432628D01*
X133783477Y-114299080D01*
X133739760Y-114154282D01*
X133725000Y-114003750D01*
X133725000Y-113996211D01*
X133725061Y-113987452D01*
X133725062Y-113987444D01*
X133725076Y-113985429D01*
X133741936Y-113835118D01*
X133787670Y-113690945D01*
X133860537Y-113558401D01*
X133957761Y-113442534D01*
X134075639Y-113347758D01*
X134209680Y-113277683D01*
X134354779Y-113234977D01*
X134354813Y-113234974D01*
X134354826Y-113234970D01*
X134505409Y-113221266D01*
X134655785Y-113237071D01*
X134655785Y-113237071D01*
G37*
G36*
X132655785Y-111237071D02*
X132655798Y-111237075D01*
X132655835Y-111237079D01*
X132800325Y-111281806D01*
X132933375Y-111353746D01*
X133049917Y-111450158D01*
X133145514Y-111567372D01*
X133216523Y-111700920D01*
X133260240Y-111845718D01*
X133275000Y-111996250D01*
X133275000Y-112003789D01*
X133274939Y-112012548D01*
X133274938Y-112012556D01*
X133274924Y-112014571D01*
X133258064Y-112164882D01*
X133212330Y-112309055D01*
X133139463Y-112441599D01*
X133042239Y-112557466D01*
X132924361Y-112652242D01*
X132790320Y-112722317D01*
X132645221Y-112765023D01*
X132645187Y-112765026D01*
X132645174Y-112765030D01*
X132494591Y-112778734D01*
X132344215Y-112762929D01*
X132344202Y-112762925D01*
X132344165Y-112762921D01*
X132199675Y-112718194D01*
X132066625Y-112646254D01*
X131950083Y-112549842D01*
X131854486Y-112432628D01*
X131783477Y-112299080D01*
X131739760Y-112154282D01*
X131725000Y-112003750D01*
X131725000Y-111996211D01*
X131725061Y-111987452D01*
X131725062Y-111987444D01*
X131725076Y-111985429D01*
X131741936Y-111835118D01*
X131787670Y-111690945D01*
X131860537Y-111558401D01*
X131957761Y-111442534D01*
X132075639Y-111347758D01*
X132209680Y-111277683D01*
X132354779Y-111234977D01*
X132354813Y-111234974D01*
X132354826Y-111234970D01*
X132505409Y-111221266D01*
X132655785Y-111237071D01*
X132655785Y-111237071D01*
G37*
G36*
X134655785Y-111237071D02*
X134655798Y-111237075D01*
X134655835Y-111237079D01*
X134800325Y-111281806D01*
X134933375Y-111353746D01*
X135049917Y-111450158D01*
X135145514Y-111567372D01*
X135216523Y-111700920D01*
X135260240Y-111845718D01*
X135275000Y-111996250D01*
X135275000Y-112003789D01*
X135274939Y-112012548D01*
X135274938Y-112012556D01*
X135274924Y-112014571D01*
X135258064Y-112164882D01*
X135212330Y-112309055D01*
X135139463Y-112441599D01*
X135042239Y-112557466D01*
X134924361Y-112652242D01*
X134790320Y-112722317D01*
X134645221Y-112765023D01*
X134645187Y-112765026D01*
X134645174Y-112765030D01*
X134494591Y-112778734D01*
X134344215Y-112762929D01*
X134344202Y-112762925D01*
X134344165Y-112762921D01*
X134199675Y-112718194D01*
X134066625Y-112646254D01*
X133950083Y-112549842D01*
X133854486Y-112432628D01*
X133783477Y-112299080D01*
X133739760Y-112154282D01*
X133725000Y-112003750D01*
X133725000Y-111996211D01*
X133725061Y-111987452D01*
X133725062Y-111987444D01*
X133725076Y-111985429D01*
X133741936Y-111835118D01*
X133787670Y-111690945D01*
X133860537Y-111558401D01*
X133957761Y-111442534D01*
X134075639Y-111347758D01*
X134209680Y-111277683D01*
X134354779Y-111234977D01*
X134354813Y-111234974D01*
X134354826Y-111234970D01*
X134505409Y-111221266D01*
X134655785Y-111237071D01*
X134655785Y-111237071D01*
G37*
G36*
X160655785Y-111237071D02*
X160655798Y-111237075D01*
X160655835Y-111237079D01*
X160800325Y-111281806D01*
X160933375Y-111353746D01*
X161049917Y-111450158D01*
X161145514Y-111567372D01*
X161216523Y-111700920D01*
X161260240Y-111845718D01*
X161275000Y-111996250D01*
X161275000Y-112003789D01*
X161274939Y-112012548D01*
X161274938Y-112012556D01*
X161274924Y-112014571D01*
X161258064Y-112164882D01*
X161212330Y-112309055D01*
X161139463Y-112441599D01*
X161042239Y-112557466D01*
X160924361Y-112652242D01*
X160790320Y-112722317D01*
X160645221Y-112765023D01*
X160645187Y-112765026D01*
X160645174Y-112765030D01*
X160494591Y-112778734D01*
X160344215Y-112762929D01*
X160344202Y-112762925D01*
X160344165Y-112762921D01*
X160199675Y-112718194D01*
X160066625Y-112646254D01*
X159950083Y-112549842D01*
X159854486Y-112432628D01*
X159783477Y-112299080D01*
X159739760Y-112154282D01*
X159725000Y-112003750D01*
X159725000Y-111996211D01*
X159725061Y-111987452D01*
X159725062Y-111987444D01*
X159725076Y-111985429D01*
X159741936Y-111835118D01*
X159787670Y-111690945D01*
X159860537Y-111558401D01*
X159957761Y-111442534D01*
X160075639Y-111347758D01*
X160209680Y-111277683D01*
X160354779Y-111234977D01*
X160354813Y-111234974D01*
X160354826Y-111234970D01*
X160505409Y-111221266D01*
X160655785Y-111237071D01*
X160655785Y-111237071D01*
G37*
G36*
X162655785Y-111237071D02*
X162655798Y-111237075D01*
X162655835Y-111237079D01*
X162800325Y-111281806D01*
X162933375Y-111353746D01*
X163049917Y-111450158D01*
X163145514Y-111567372D01*
X163216523Y-111700920D01*
X163260240Y-111845718D01*
X163275000Y-111996250D01*
X163275000Y-112003789D01*
X163274939Y-112012548D01*
X163274938Y-112012556D01*
X163274924Y-112014571D01*
X163258064Y-112164882D01*
X163212330Y-112309055D01*
X163139463Y-112441599D01*
X163042239Y-112557466D01*
X162924361Y-112652242D01*
X162790320Y-112722317D01*
X162645221Y-112765023D01*
X162645187Y-112765026D01*
X162645174Y-112765030D01*
X162494591Y-112778734D01*
X162344215Y-112762929D01*
X162344202Y-112762925D01*
X162344165Y-112762921D01*
X162199675Y-112718194D01*
X162066625Y-112646254D01*
X161950083Y-112549842D01*
X161854486Y-112432628D01*
X161783477Y-112299080D01*
X161739760Y-112154282D01*
X161725000Y-112003750D01*
X161725000Y-111996211D01*
X161725061Y-111987452D01*
X161725062Y-111987444D01*
X161725076Y-111985429D01*
X161741936Y-111835118D01*
X161787670Y-111690945D01*
X161860537Y-111558401D01*
X161957761Y-111442534D01*
X162075639Y-111347758D01*
X162209680Y-111277683D01*
X162354779Y-111234977D01*
X162354813Y-111234974D01*
X162354826Y-111234970D01*
X162505409Y-111221266D01*
X162655785Y-111237071D01*
X162655785Y-111237071D01*
G37*
G36*
X137275000Y-112775000D02*
X135725000Y-112775000D01*
X135725000Y-111225000D01*
X137275000Y-111225000D01*
X137275000Y-112775000D01*
X137275000Y-112775000D01*
G37*
G36*
X165275000Y-112775000D02*
X163725000Y-112775000D01*
X163725000Y-111225000D01*
X165275000Y-111225000D01*
X165275000Y-112775000D01*
X165275000Y-112775000D01*
G37*
G36*
X122328457Y-97901160D02*
X120358840Y-98248457D01*
X120011543Y-96278840D01*
X121981160Y-95931543D01*
X122328457Y-97901160D01*
X122328457Y-97901160D01*
G37*
G36*
X175926446Y-96091730D02*
X176118553Y-96131164D01*
X176299337Y-96207159D01*
X176461921Y-96316822D01*
X176600109Y-96455979D01*
X176708635Y-96619322D01*
X176783366Y-96800633D01*
X176821390Y-96992667D01*
X176821390Y-96992682D01*
X176821455Y-96993011D01*
X176818328Y-97217006D01*
X176818251Y-97217344D01*
X176818251Y-97217352D01*
X176774883Y-97408241D01*
X176695117Y-97587399D01*
X176582073Y-97747649D01*
X176440051Y-97882894D01*
X176274473Y-97987972D01*
X176091633Y-98058893D01*
X175898505Y-98092945D01*
X175702437Y-98088839D01*
X175510897Y-98046726D01*
X175331191Y-97968213D01*
X175170154Y-97856291D01*
X175033923Y-97715219D01*
X174927691Y-97550379D01*
X174855497Y-97368040D01*
X174820094Y-97175146D01*
X174822833Y-96979056D01*
X174863606Y-96787234D01*
X174940863Y-96606980D01*
X175051659Y-96445167D01*
X175191776Y-96307953D01*
X175355873Y-96200571D01*
X175537704Y-96127107D01*
X175730337Y-96090360D01*
X175926446Y-96091730D01*
X175926446Y-96091730D01*
G37*
G36*
X174478457Y-95838840D02*
X174131160Y-97808457D01*
X172161543Y-97461160D01*
X172508840Y-95491543D01*
X174478457Y-95838840D01*
X174478457Y-95838840D01*
G37*
G36*
X123776446Y-95649598D02*
X123968553Y-95689032D01*
X124149337Y-95765027D01*
X124311921Y-95874690D01*
X124450109Y-96013847D01*
X124558635Y-96177190D01*
X124633366Y-96358501D01*
X124671390Y-96550535D01*
X124671390Y-96550550D01*
X124671455Y-96550879D01*
X124668328Y-96774874D01*
X124668251Y-96775212D01*
X124668251Y-96775220D01*
X124624883Y-96966109D01*
X124545117Y-97145267D01*
X124432073Y-97305517D01*
X124290051Y-97440762D01*
X124124473Y-97545840D01*
X123941633Y-97616761D01*
X123748505Y-97650813D01*
X123552437Y-97646707D01*
X123360897Y-97604594D01*
X123181191Y-97526081D01*
X123020154Y-97414159D01*
X122883923Y-97273087D01*
X122777691Y-97108247D01*
X122705497Y-96925908D01*
X122670094Y-96733014D01*
X122672833Y-96536924D01*
X122713606Y-96345102D01*
X122790863Y-96164848D01*
X122901659Y-96003035D01*
X123041776Y-95865821D01*
X123205873Y-95758439D01*
X123387704Y-95684975D01*
X123580337Y-95648228D01*
X123776446Y-95649598D01*
X123776446Y-95649598D01*
G37*
G36*
X121840534Y-95360602D02*
X119969398Y-95690534D01*
X119639466Y-93819398D01*
X121510602Y-93489466D01*
X121840534Y-95360602D01*
X121840534Y-95360602D01*
G37*
G36*
X177360534Y-93819398D02*
X177030602Y-95690534D01*
X175159466Y-95360602D01*
X175489398Y-93489466D01*
X177360534Y-93819398D01*
X177360534Y-93819398D01*
G37*
G36*
X167815839Y-93790078D02*
X167815847Y-93790079D01*
X167817861Y-93790093D01*
X168002113Y-93810760D01*
X168178842Y-93866821D01*
X168341316Y-93956142D01*
X168483346Y-94075320D01*
X168599523Y-94219815D01*
X168685422Y-94384124D01*
X168737770Y-94561988D01*
X168737773Y-94562022D01*
X168737777Y-94562035D01*
X168754577Y-94746629D01*
X168735200Y-94930976D01*
X168735197Y-94930986D01*
X168735193Y-94931024D01*
X168680367Y-95108140D01*
X168592183Y-95271233D01*
X168473999Y-95414092D01*
X168330319Y-95531275D01*
X168166614Y-95618319D01*
X167989120Y-95671907D01*
X167804597Y-95690000D01*
X167795364Y-95690000D01*
X167784161Y-95689922D01*
X167784153Y-95689921D01*
X167782139Y-95689907D01*
X167597887Y-95669240D01*
X167421158Y-95613179D01*
X167258684Y-95523858D01*
X167116654Y-95404680D01*
X167000477Y-95260185D01*
X166914578Y-95095876D01*
X166862230Y-94918012D01*
X166862227Y-94917978D01*
X166862223Y-94917965D01*
X166845423Y-94733371D01*
X166864800Y-94549024D01*
X166864803Y-94549014D01*
X166864807Y-94548976D01*
X166919633Y-94371860D01*
X167007817Y-94208767D01*
X167126001Y-94065908D01*
X167269681Y-93948725D01*
X167433386Y-93861681D01*
X167610880Y-93808093D01*
X167795403Y-93790000D01*
X167804636Y-93790000D01*
X167815839Y-93790078D01*
X167815839Y-93790078D01*
G37*
G36*
X173746116Y-93194503D02*
X173746128Y-93194502D01*
X173930839Y-93210005D01*
X174109023Y-93261091D01*
X174109025Y-93261092D01*
X174109060Y-93261102D01*
X174273969Y-93345843D01*
X174419277Y-93461001D01*
X174539451Y-93602190D01*
X174629912Y-93764032D01*
X174687215Y-93940362D01*
X174709176Y-94124464D01*
X174694962Y-94309326D01*
X174693366Y-94318380D01*
X174693349Y-94318472D01*
X174691336Y-94329443D01*
X174691334Y-94329450D01*
X174690971Y-94331427D01*
X174638632Y-94509293D01*
X174552742Y-94673607D01*
X174436572Y-94818108D01*
X174294547Y-94937292D01*
X174132078Y-95026621D01*
X173955352Y-95082692D01*
X173771101Y-95103368D01*
X173771060Y-95103365D01*
X173771048Y-95103366D01*
X173586337Y-95087863D01*
X173408153Y-95036777D01*
X173408151Y-95036776D01*
X173408116Y-95036766D01*
X173243207Y-94952025D01*
X173097899Y-94836867D01*
X172977726Y-94695677D01*
X172887265Y-94533836D01*
X172829961Y-94357506D01*
X172808000Y-94173404D01*
X172822214Y-93988542D01*
X172823810Y-93979487D01*
X172824078Y-93978026D01*
X172825840Y-93968425D01*
X172825842Y-93968418D01*
X172826205Y-93966441D01*
X172878544Y-93788574D01*
X172964434Y-93624261D01*
X173080604Y-93479760D01*
X173222629Y-93360576D01*
X173385098Y-93271247D01*
X173561824Y-93215176D01*
X173746075Y-93194500D01*
X173746116Y-93194503D01*
X173746116Y-93194503D01*
G37*
G36*
X123451131Y-93218026D02*
X123627057Y-93276558D01*
X123788263Y-93368147D01*
X123928610Y-93489303D01*
X124042751Y-93635411D01*
X124126338Y-93800907D01*
X124176190Y-93979488D01*
X124176571Y-93981651D01*
X124177802Y-93988632D01*
X124179659Y-93999614D01*
X124179660Y-93999626D01*
X124179997Y-94001621D01*
X124191629Y-94186663D01*
X124167100Y-94370441D01*
X124107340Y-94545954D01*
X124014628Y-94706517D01*
X123892495Y-94846014D01*
X123745593Y-94959133D01*
X123579517Y-95041563D01*
X123579482Y-95041573D01*
X123579479Y-95041574D01*
X123400604Y-95090166D01*
X123215694Y-95103088D01*
X123215679Y-95103086D01*
X123215637Y-95103089D01*
X123031693Y-95079843D01*
X122855767Y-95021311D01*
X122694561Y-94929721D01*
X122554214Y-94808566D01*
X122440073Y-94662457D01*
X122356486Y-94496961D01*
X122306634Y-94318381D01*
X122305038Y-94309326D01*
X122304757Y-94307663D01*
X122303165Y-94298254D01*
X122303164Y-94298242D01*
X122302827Y-94296247D01*
X122291195Y-94111205D01*
X122315724Y-93927428D01*
X122375484Y-93751914D01*
X122468196Y-93591352D01*
X122590329Y-93451855D01*
X122737231Y-93338736D01*
X122903307Y-93256306D01*
X122903338Y-93256298D01*
X122903345Y-93256294D01*
X123082220Y-93207702D01*
X123267130Y-93194780D01*
X123267145Y-93194782D01*
X123267187Y-93194779D01*
X123451131Y-93218026D01*
X123451131Y-93218026D01*
G37*
G36*
X168750000Y-93150000D02*
X166850000Y-93150000D01*
X166850000Y-91250000D01*
X168750000Y-91250000D01*
X168750000Y-93150000D01*
X168750000Y-93150000D01*
G37*
G36*
X164924739Y-86520664D02*
X165116846Y-86560098D01*
X165297630Y-86636093D01*
X165460214Y-86745756D01*
X165598402Y-86884913D01*
X165706928Y-87048256D01*
X165781659Y-87229567D01*
X165819683Y-87421601D01*
X165819683Y-87421616D01*
X165819748Y-87421945D01*
X165816621Y-87645940D01*
X165816544Y-87646278D01*
X165816544Y-87646286D01*
X165773176Y-87837175D01*
X165693410Y-88016333D01*
X165580366Y-88176583D01*
X165438344Y-88311828D01*
X165272766Y-88416906D01*
X165089926Y-88487827D01*
X164896798Y-88521879D01*
X164700730Y-88517773D01*
X164509190Y-88475660D01*
X164329484Y-88397147D01*
X164168447Y-88285225D01*
X164032216Y-88144153D01*
X163925984Y-87979313D01*
X163853790Y-87796974D01*
X163818387Y-87604080D01*
X163821126Y-87407990D01*
X163861899Y-87216168D01*
X163939156Y-87035914D01*
X164049952Y-86874101D01*
X164190069Y-86736887D01*
X164354166Y-86629505D01*
X164535997Y-86556041D01*
X164728630Y-86519294D01*
X164924739Y-86520664D01*
X164924739Y-86520664D01*
G37*
G36*
X132265329Y-86510664D02*
X132457436Y-86550098D01*
X132638220Y-86626093D01*
X132800804Y-86735756D01*
X132938992Y-86874913D01*
X133047518Y-87038256D01*
X133122249Y-87219567D01*
X133160273Y-87411601D01*
X133160273Y-87411616D01*
X133160338Y-87411945D01*
X133157211Y-87635940D01*
X133157134Y-87636278D01*
X133157134Y-87636286D01*
X133113766Y-87827175D01*
X133034000Y-88006333D01*
X132920956Y-88166583D01*
X132778934Y-88301828D01*
X132613356Y-88406906D01*
X132430516Y-88477827D01*
X132237388Y-88511879D01*
X132041320Y-88507773D01*
X131849780Y-88465660D01*
X131670074Y-88387147D01*
X131509037Y-88275225D01*
X131372806Y-88134153D01*
X131266574Y-87969313D01*
X131194380Y-87786974D01*
X131158977Y-87594080D01*
X131161716Y-87397990D01*
X131202489Y-87206168D01*
X131279746Y-87025914D01*
X131390542Y-86864101D01*
X131530659Y-86726887D01*
X131694756Y-86619505D01*
X131876587Y-86546041D01*
X132069220Y-86509294D01*
X132265329Y-86510664D01*
X132265329Y-86510664D01*
G37*
G36*
X163986026Y-85883974D02*
X162986026Y-87616026D01*
X161253974Y-86616026D01*
X162253974Y-84883974D01*
X163986026Y-85883974D01*
X163986026Y-85883974D01*
G37*
G36*
X135726026Y-86606026D02*
X133993974Y-87606026D01*
X132993974Y-85873974D01*
X134726026Y-84873974D01*
X135726026Y-86606026D01*
X135726026Y-86606026D01*
G37*
G36*
X132197724Y-85667724D02*
X130552276Y-86617724D01*
X129602276Y-84972276D01*
X131247724Y-84022276D01*
X132197724Y-85667724D01*
X132197724Y-85667724D01*
G37*
G36*
X167397724Y-84972276D02*
X166447724Y-86617724D01*
X164802276Y-85667724D01*
X165752276Y-84022276D01*
X167397724Y-84972276D01*
X167397724Y-84972276D01*
G37*
G36*
X164034909Y-83105279D02*
X164215114Y-83148895D01*
X164242492Y-83161549D01*
X164383374Y-83226655D01*
X164383410Y-83226681D01*
X164383414Y-83226683D01*
X164398939Y-83237965D01*
X164533326Y-83335616D01*
X164533352Y-83335644D01*
X164533400Y-83335679D01*
X164659359Y-83471731D01*
X164756493Y-83629658D01*
X164821102Y-83803444D01*
X164850725Y-83986470D01*
X164844235Y-84171764D01*
X164801878Y-84352267D01*
X164725267Y-84521107D01*
X164720669Y-84529069D01*
X164720656Y-84529091D01*
X164715004Y-84538725D01*
X164714994Y-84538738D01*
X164713955Y-84540509D01*
X164603915Y-84689730D01*
X164466987Y-84814737D01*
X164308386Y-84910766D01*
X164134153Y-84974160D01*
X163950925Y-85002505D01*
X163765680Y-84994722D01*
X163585476Y-84951105D01*
X163555456Y-84937230D01*
X163417216Y-84873345D01*
X163417184Y-84873322D01*
X163417176Y-84873318D01*
X163389746Y-84853384D01*
X163267264Y-84764384D01*
X163267238Y-84764356D01*
X163267190Y-84764321D01*
X163141231Y-84628269D01*
X163044097Y-84470343D01*
X162979488Y-84296556D01*
X162949864Y-84113531D01*
X162956354Y-83928237D01*
X162998712Y-83747733D01*
X163075323Y-83578893D01*
X163079921Y-83570931D01*
X163081562Y-83568135D01*
X163085586Y-83561275D01*
X163085592Y-83561267D01*
X163086634Y-83559491D01*
X163196674Y-83410270D01*
X163333603Y-83285263D01*
X163492204Y-83189234D01*
X163666437Y-83125840D01*
X163849665Y-83097495D01*
X164034909Y-83105279D01*
X164034909Y-83105279D01*
G37*
G36*
X133346561Y-83129274D02*
X133519879Y-83195127D01*
X133677106Y-83293391D01*
X133812251Y-83420322D01*
X133920170Y-83571086D01*
X133921292Y-83573030D01*
X133924814Y-83579131D01*
X133930331Y-83588846D01*
X133930334Y-83588852D01*
X133931316Y-83590582D01*
X134005530Y-83760488D01*
X134045330Y-83941574D01*
X134049197Y-84126941D01*
X134016986Y-84309529D01*
X133949924Y-84482383D01*
X133850565Y-84638920D01*
X133722694Y-84773177D01*
X133722656Y-84773204D01*
X133722634Y-84773227D01*
X133596849Y-84861935D01*
X133571181Y-84880039D01*
X133571175Y-84880042D01*
X133571149Y-84880060D01*
X133433387Y-84941375D01*
X133401796Y-84955437D01*
X133220993Y-84996499D01*
X133035658Y-85001661D01*
X132852849Y-84970726D01*
X132679530Y-84904873D01*
X132522304Y-84806609D01*
X132387158Y-84679678D01*
X132279240Y-84528914D01*
X132274644Y-84520952D01*
X132274589Y-84520856D01*
X132269079Y-84511154D01*
X132269076Y-84511148D01*
X132268094Y-84509418D01*
X132193880Y-84339512D01*
X132154080Y-84158426D01*
X132150212Y-83973059D01*
X132182424Y-83790471D01*
X132249485Y-83617616D01*
X132348844Y-83461079D01*
X132476716Y-83326823D01*
X132476754Y-83326796D01*
X132476776Y-83326773D01*
X132602561Y-83238065D01*
X132628229Y-83219961D01*
X132628235Y-83219958D01*
X132628261Y-83219940D01*
X132766023Y-83158625D01*
X132797614Y-83144563D01*
X132978417Y-83103500D01*
X133163752Y-83098338D01*
X133346561Y-83129274D01*
X133346561Y-83129274D01*
G37*
G36*
X152272150Y-74526152D02*
X150478681Y-74720984D01*
X150283849Y-74742150D01*
X150283848Y-74742150D01*
X150067850Y-72753848D01*
X151861319Y-72559016D01*
X152056151Y-72537850D01*
X152056152Y-72537850D01*
X152272150Y-74526152D01*
X152272150Y-74526152D01*
G37*
G36*
X145930716Y-72635807D02*
X146122823Y-72675241D01*
X146303607Y-72751236D01*
X146466191Y-72860899D01*
X146604379Y-73000056D01*
X146712905Y-73163399D01*
X146787636Y-73344710D01*
X146825660Y-73536744D01*
X146825660Y-73536759D01*
X146825725Y-73537088D01*
X146822598Y-73761083D01*
X146822521Y-73761421D01*
X146822521Y-73761429D01*
X146779153Y-73952318D01*
X146699387Y-74131476D01*
X146586343Y-74291726D01*
X146444321Y-74426971D01*
X146278743Y-74532049D01*
X146095903Y-74602970D01*
X145902775Y-74637022D01*
X145706707Y-74632916D01*
X145515167Y-74590803D01*
X145335461Y-74512290D01*
X145174424Y-74400368D01*
X145038193Y-74259296D01*
X144931961Y-74094456D01*
X144859767Y-73912117D01*
X144824364Y-73719223D01*
X144827103Y-73523133D01*
X144867876Y-73331311D01*
X144945133Y-73151057D01*
X145055929Y-72989244D01*
X145196046Y-72852030D01*
X145360143Y-72744648D01*
X145541974Y-72671184D01*
X145734607Y-72634437D01*
X145930716Y-72635807D01*
X145930716Y-72635807D01*
G37*
G36*
X144347043Y-72528156D02*
X144141844Y-74417043D01*
X142252957Y-74211844D01*
X142458156Y-72322957D01*
X144347043Y-72528156D01*
X144347043Y-72528156D01*
G37*
G36*
X154737043Y-74201844D02*
X152848156Y-74407043D01*
X152642957Y-72518156D01*
X154531844Y-72312957D01*
X154737043Y-74201844D01*
X154737043Y-74201844D01*
G37*
G36*
X145408681Y-70029016D02*
X147202150Y-70223848D01*
X147202150Y-70223849D01*
X147201378Y-70230952D01*
X146986152Y-72212150D01*
X146986151Y-72212150D01*
X146791319Y-72190984D01*
X144997850Y-71996152D01*
X145213849Y-70007850D01*
X145408681Y-70029016D01*
X145408681Y-70029016D01*
G37*
G36*
X151000716Y-70115521D02*
X151192823Y-70154955D01*
X151373607Y-70230950D01*
X151536191Y-70340613D01*
X151674379Y-70479770D01*
X151782905Y-70643113D01*
X151857636Y-70824424D01*
X151895660Y-71016458D01*
X151895660Y-71016473D01*
X151895725Y-71016802D01*
X151892598Y-71240797D01*
X151892521Y-71241135D01*
X151892521Y-71241143D01*
X151849153Y-71432032D01*
X151769387Y-71611190D01*
X151656343Y-71771440D01*
X151514321Y-71906685D01*
X151348743Y-72011763D01*
X151165903Y-72082684D01*
X150972775Y-72116736D01*
X150776707Y-72112630D01*
X150585167Y-72070517D01*
X150405461Y-71992004D01*
X150244424Y-71880082D01*
X150108193Y-71739010D01*
X150001961Y-71574170D01*
X149929767Y-71391831D01*
X149894364Y-71198937D01*
X149897103Y-71002847D01*
X149937876Y-70811025D01*
X150015133Y-70630771D01*
X150125929Y-70468958D01*
X150266046Y-70331744D01*
X150430143Y-70224362D01*
X150611974Y-70150898D01*
X150804607Y-70114151D01*
X151000716Y-70115521D01*
X151000716Y-70115521D01*
G37*
G36*
X143672253Y-69899907D02*
X143674602Y-69900162D01*
X143674607Y-69900162D01*
X143677169Y-69900440D01*
X143681394Y-69900899D01*
X143681503Y-69900912D01*
X143681525Y-69900914D01*
X143684070Y-69901208D01*
X143694570Y-69902423D01*
X143875516Y-69942850D01*
X144045165Y-70017653D01*
X144197052Y-70123984D01*
X144325394Y-70257791D01*
X144425301Y-70413978D01*
X144492970Y-70586596D01*
X144493007Y-70586800D01*
X144493026Y-70586849D01*
X144503145Y-70643113D01*
X144525821Y-70769070D01*
X144525819Y-70769185D01*
X144525836Y-70769279D01*
X144523935Y-70877725D01*
X144522604Y-70954449D01*
X144522590Y-70954515D01*
X144522588Y-70954610D01*
X144500139Y-71058400D01*
X144483440Y-71135673D01*
X144483412Y-71135738D01*
X144483402Y-71135784D01*
X144462378Y-71184358D01*
X144409823Y-71305840D01*
X144304556Y-71458465D01*
X144171647Y-71587738D01*
X144016162Y-71688734D01*
X143844021Y-71757606D01*
X143661781Y-71791729D01*
X143476383Y-71789807D01*
X143474034Y-71789552D01*
X143474031Y-71789552D01*
X143472709Y-71789408D01*
X143467243Y-71788815D01*
X143454066Y-71787291D01*
X143273120Y-71746864D01*
X143103472Y-71672061D01*
X142951584Y-71565730D01*
X142823243Y-71431923D01*
X142723335Y-71275736D01*
X142655666Y-71103118D01*
X142655629Y-71102913D01*
X142655611Y-71102867D01*
X142645685Y-71047677D01*
X142622816Y-70920644D01*
X142622818Y-70920529D01*
X142622801Y-70920435D01*
X142624763Y-70808472D01*
X142626033Y-70735265D01*
X142626046Y-70735204D01*
X142626048Y-70735104D01*
X142649691Y-70625791D01*
X142665197Y-70554041D01*
X142665223Y-70553981D01*
X142665234Y-70553930D01*
X142687714Y-70501991D01*
X142738813Y-70383874D01*
X142844080Y-70231249D01*
X142976989Y-70101976D01*
X143132474Y-70000980D01*
X143304615Y-69932108D01*
X143486855Y-69897985D01*
X143672253Y-69899907D01*
X143672253Y-69899907D01*
G37*
G36*
X153516350Y-69889234D02*
X153698096Y-69925899D01*
X153869259Y-69997167D01*
X154023319Y-70100324D01*
X154154409Y-70231440D01*
X154257536Y-70385521D01*
X154306425Y-70503003D01*
X154328732Y-70556582D01*
X154328742Y-70556632D01*
X154328770Y-70556699D01*
X154344809Y-70636286D01*
X154365384Y-70738285D01*
X154365384Y-70738378D01*
X154365399Y-70738451D01*
X154365672Y-70819001D01*
X154366045Y-70923646D01*
X154366027Y-70923741D01*
X154366027Y-70923858D01*
X154340086Y-71057247D01*
X154330690Y-71105601D01*
X154330674Y-71105640D01*
X154330632Y-71105856D01*
X154260560Y-71277512D01*
X154158481Y-71432289D01*
X154028284Y-71564291D01*
X153874927Y-71668490D01*
X153704251Y-71740917D01*
X153522758Y-71778815D01*
X153517302Y-71779407D01*
X153513799Y-71779788D01*
X153513690Y-71779799D01*
X153513617Y-71779807D01*
X153511523Y-71780019D01*
X153502602Y-71780926D01*
X153502582Y-71780926D01*
X153500421Y-71781145D01*
X153315014Y-71780480D01*
X153133268Y-71743815D01*
X152962105Y-71672547D01*
X152808045Y-71569390D01*
X152676955Y-71438274D01*
X152573829Y-71284193D01*
X152527026Y-71171724D01*
X152502632Y-71113132D01*
X152502621Y-71113077D01*
X152502595Y-71113015D01*
X152487760Y-71039406D01*
X152465980Y-70931429D01*
X152465980Y-70931330D01*
X152465966Y-70931262D01*
X152465712Y-70856315D01*
X152465319Y-70746068D01*
X152465338Y-70745968D01*
X152465338Y-70745856D01*
X152490651Y-70615699D01*
X152500675Y-70564111D01*
X152500692Y-70564070D01*
X152500733Y-70563858D01*
X152570804Y-70392202D01*
X152672883Y-70237425D01*
X152803081Y-70105423D01*
X152956438Y-70001224D01*
X153127113Y-69928797D01*
X153308607Y-69890899D01*
X153315751Y-69890124D01*
X153317681Y-69889914D01*
X153317705Y-69889912D01*
X153317747Y-69889907D01*
X153318548Y-69889826D01*
X153328793Y-69888787D01*
X153330944Y-69888569D01*
X153516350Y-69889234D01*
X153516350Y-69889234D01*
G37*
M02*
