G04 #@! TF.FileFunction,Legend,Bot*
%FSLAX46Y46*%
G04 Gerber Fmt 4.6, Leading zero omitted, Abs format (unit mm)*
G04 Created by KiCad (PCBNEW 4.0.1-stable) date 2016/10/17 21:23:02*
%MOMM*%
G01*
G04 APERTURE LIST*
%ADD10C,0.100000*%
%ADD11C,0.010000*%
%ADD12R,1.750000X1.750000*%
%ADD13C,1.750000*%
%ADD14O,1.906220X3.414980*%
%ADD15C,2.400000*%
%ADD16R,2.127200X2.432000*%
%ADD17O,2.127200X2.432000*%
%ADD18R,2.432000X2.432000*%
%ADD19O,2.432000X2.432000*%
%ADD20R,2.127200X2.127200*%
%ADD21O,2.127200X2.127200*%
%ADD22C,2.432000*%
%ADD23C,1.924000*%
G04 APERTURE END LIST*
D10*
D11*
G36*
X150923559Y-102423934D02*
X150570575Y-102540951D01*
X150228033Y-102713288D01*
X149924523Y-102922376D01*
X149688635Y-103149649D01*
X149548957Y-103376541D01*
X149523210Y-103507687D01*
X149515393Y-103646774D01*
X149471599Y-103659952D01*
X149390115Y-103592942D01*
X149196448Y-103497295D01*
X148954635Y-103476941D01*
X148730403Y-103530793D01*
X148624747Y-103605587D01*
X148516138Y-103823191D01*
X148510393Y-104078823D01*
X148602419Y-104312882D01*
X148693630Y-104411429D01*
X149004811Y-104580439D01*
X149318694Y-104611143D01*
X149614885Y-104504150D01*
X149770510Y-104379265D01*
X149870209Y-104311374D01*
X150002688Y-104309197D01*
X150165739Y-104350703D01*
X150393717Y-104398021D01*
X150560234Y-104371853D01*
X150610401Y-104348253D01*
X150739444Y-104291145D01*
X150793270Y-104285364D01*
X150824935Y-104362098D01*
X150885842Y-104535743D01*
X150943533Y-104709742D01*
X151097369Y-105052447D01*
X151301362Y-105326163D01*
X151317518Y-105341934D01*
X151561583Y-105573840D01*
X151402600Y-105851390D01*
X151301135Y-106026548D01*
X151233155Y-106140253D01*
X151221395Y-106158245D01*
X151167358Y-106127882D01*
X151063841Y-106015108D01*
X151045716Y-105992461D01*
X150893784Y-105844482D01*
X150693229Y-105704449D01*
X150486915Y-105595978D01*
X150317704Y-105542685D01*
X150244246Y-105550881D01*
X150203606Y-105653539D01*
X150225679Y-105840468D01*
X150295717Y-106072702D01*
X150398968Y-106311278D01*
X150520685Y-106517229D01*
X150646117Y-106651593D01*
X150665551Y-106663848D01*
X150731548Y-106716903D01*
X150730413Y-106792554D01*
X150653829Y-106928026D01*
X150583385Y-107031647D01*
X150462244Y-107202417D01*
X150380338Y-107310294D01*
X150361350Y-107329799D01*
X150348652Y-107266471D01*
X150339818Y-107114689D01*
X150306011Y-106958418D01*
X150225657Y-106750902D01*
X150120423Y-106534927D01*
X150011978Y-106353280D01*
X149921990Y-106248746D01*
X149895883Y-106238109D01*
X149806304Y-106303859D01*
X149710905Y-106476059D01*
X149624938Y-106717133D01*
X149563653Y-106989506D01*
X149550445Y-107089175D01*
X149532508Y-107348510D01*
X149550139Y-107505596D01*
X149608952Y-107600630D01*
X149623695Y-107613710D01*
X149720604Y-107732895D01*
X149741548Y-107801099D01*
X149686214Y-107869343D01*
X149542750Y-107992392D01*
X149344960Y-108145562D01*
X149126648Y-108304163D01*
X148921620Y-108443511D01*
X148763680Y-108538918D01*
X148692697Y-108567049D01*
X148700843Y-108510343D01*
X148761062Y-108370051D01*
X148780606Y-108330516D01*
X148856076Y-108102421D01*
X148896959Y-107809808D01*
X148906050Y-107484239D01*
X148886146Y-107157276D01*
X148840042Y-106860483D01*
X148770536Y-106625420D01*
X148680424Y-106483652D01*
X148614577Y-106456447D01*
X148541003Y-106517846D01*
X148434149Y-106679011D01*
X148316837Y-106905396D01*
X148314094Y-106911318D01*
X148214598Y-107142607D01*
X148152362Y-107344609D01*
X148118899Y-107565211D01*
X148105720Y-107852300D01*
X148104012Y-108096567D01*
X148104012Y-108826946D01*
X147194270Y-109278870D01*
X147194270Y-109082808D01*
X147163587Y-108910313D01*
X147085102Y-108689215D01*
X146979165Y-108460918D01*
X146866122Y-108266829D01*
X146766322Y-108148353D01*
X146726214Y-108130372D01*
X146646476Y-108196810D01*
X146574981Y-108370831D01*
X146516728Y-108614493D01*
X146476715Y-108889857D01*
X146459940Y-109158983D01*
X146471401Y-109383931D01*
X146516096Y-109526759D01*
X146539255Y-109549570D01*
X146607799Y-109639407D01*
X146534404Y-109741589D01*
X146484671Y-109775523D01*
X146434689Y-109797316D01*
X146399506Y-109776863D01*
X146376285Y-109693971D01*
X146362190Y-109528448D01*
X146354382Y-109260102D01*
X146350027Y-108868742D01*
X146349614Y-108814233D01*
X146336290Y-108313102D01*
X146305866Y-107876024D01*
X146260967Y-107521062D01*
X146204219Y-107266281D01*
X146138247Y-107129745D01*
X146102133Y-107111461D01*
X146066738Y-107177174D01*
X146032976Y-107346441D01*
X146015172Y-107505210D01*
X145929015Y-107916606D01*
X145743976Y-108364038D01*
X145741924Y-108368047D01*
X145612846Y-108636349D01*
X145544827Y-108842130D01*
X145523855Y-109047580D01*
X145534114Y-109290392D01*
X145566899Y-109743649D01*
X145331314Y-109464661D01*
X145095728Y-109185673D01*
X145026191Y-109367622D01*
X144901458Y-109812205D01*
X144897565Y-110189792D01*
X145015738Y-110516327D01*
X145126364Y-110671872D01*
X145302287Y-110880944D01*
X144775205Y-111660172D01*
X144817994Y-112278796D01*
X144860782Y-112897421D01*
X144444575Y-112909888D01*
X144175962Y-112929855D01*
X143938587Y-112967520D01*
X143836325Y-112995981D01*
X143687484Y-113030050D01*
X143567720Y-112976566D01*
X143472428Y-112883160D01*
X143276321Y-112718001D01*
X143066378Y-112596924D01*
X142870897Y-112539332D01*
X142640446Y-112506640D01*
X142418408Y-112499926D01*
X142248165Y-112520269D01*
X142173099Y-112568748D01*
X142172493Y-112574699D01*
X142219541Y-112738587D01*
X142338685Y-112941059D01*
X142496923Y-113141065D01*
X142661254Y-113297557D01*
X142798677Y-113369486D01*
X142812274Y-113370487D01*
X142839918Y-113415521D01*
X142758452Y-113545852D01*
X142697193Y-113618972D01*
X142459588Y-113962234D01*
X142355673Y-114314953D01*
X142375926Y-114712616D01*
X142387765Y-114772200D01*
X142563746Y-115267338D01*
X142861251Y-115683650D01*
X143128621Y-115916639D01*
X143486913Y-116122866D01*
X143801376Y-116190420D01*
X144072545Y-116119258D01*
X144300959Y-115909341D01*
X144359497Y-115822146D01*
X144487987Y-115497247D01*
X144486008Y-115179304D01*
X144355585Y-114896981D01*
X144288693Y-114820476D01*
X144043258Y-114648178D01*
X143796169Y-114621257D01*
X143571495Y-114721032D01*
X143452019Y-114872012D01*
X143406641Y-115074909D01*
X143426714Y-115289621D01*
X143503590Y-115476046D01*
X143628622Y-115594080D01*
X143763443Y-115611252D01*
X143866435Y-115546217D01*
X143907312Y-115440747D01*
X143874934Y-115353993D01*
X143815366Y-115335530D01*
X143722330Y-115272857D01*
X143700860Y-115148747D01*
X143721836Y-115015668D01*
X143814929Y-114978964D01*
X143901003Y-114984994D01*
X144043794Y-115026212D01*
X144107666Y-115136818D01*
X144124307Y-115249310D01*
X144103886Y-115505186D01*
X143995452Y-115658238D01*
X143816488Y-115705931D01*
X143584482Y-115645726D01*
X143316917Y-115475087D01*
X143210726Y-115381867D01*
X143023697Y-115194886D01*
X142918916Y-115044105D01*
X142867942Y-114871200D01*
X142843055Y-114627868D01*
X142838713Y-114363742D01*
X142860975Y-114142738D01*
X142891017Y-114042822D01*
X143029626Y-113896300D01*
X143265455Y-113749181D01*
X143551834Y-113622845D01*
X143842092Y-113538674D01*
X144040856Y-113516046D01*
X144233483Y-113520968D01*
X144311504Y-113552226D01*
X144305863Y-113634559D01*
X144279681Y-113706975D01*
X144242604Y-113896692D01*
X144250320Y-114105517D01*
X144294556Y-114284008D01*
X144367036Y-114382724D01*
X144393894Y-114389398D01*
X144513709Y-114330419D01*
X144659906Y-114182420D01*
X144798451Y-113988810D01*
X144895307Y-113792996D01*
X144914404Y-113725549D01*
X144966686Y-113590573D01*
X145052989Y-113576178D01*
X145183922Y-113686009D01*
X145329755Y-113868230D01*
X145505983Y-114107094D01*
X145110172Y-114703117D01*
X144624657Y-115505517D01*
X144221521Y-116319425D01*
X143918789Y-117107134D01*
X143846284Y-117346729D01*
X143644556Y-118064756D01*
X143299715Y-118039650D01*
X142803875Y-118064733D01*
X142364712Y-118221171D01*
X141965566Y-118515038D01*
X141946766Y-118533053D01*
X141684991Y-118839747D01*
X141527223Y-119165530D01*
X141469451Y-119534896D01*
X141507664Y-119972337D01*
X141629086Y-120472823D01*
X141673818Y-120624728D01*
X141096507Y-120476407D01*
X140785424Y-120402597D01*
X140566473Y-120370425D01*
X140393335Y-120376604D01*
X140229508Y-120414879D01*
X139781992Y-120617640D01*
X139428640Y-120917324D01*
X139178263Y-121292949D01*
X139039666Y-121723534D01*
X139021659Y-122188097D01*
X139133050Y-122665656D01*
X139209907Y-122843660D01*
X139500997Y-123290776D01*
X139909858Y-123707058D01*
X140409026Y-124071376D01*
X140971037Y-124362597D01*
X141371920Y-124507151D01*
X141623430Y-124565290D01*
X141979549Y-124625862D01*
X142399515Y-124683927D01*
X142842567Y-124734547D01*
X143267942Y-124772781D01*
X143634878Y-124793690D01*
X143756360Y-124796097D01*
X143834785Y-124801958D01*
X143866608Y-124836184D01*
X143846870Y-124925108D01*
X143770613Y-125095064D01*
X143656854Y-125324498D01*
X143533433Y-125570159D01*
X143438141Y-125758214D01*
X143387020Y-125857066D01*
X143382700Y-125864595D01*
X143312806Y-125854162D01*
X143135446Y-125815513D01*
X142884268Y-125756115D01*
X142790802Y-125733206D01*
X142151820Y-125622752D01*
X141477549Y-125589202D01*
X140828256Y-125633436D01*
X140469166Y-125699238D01*
X140120459Y-125793792D01*
X139804506Y-125900337D01*
X139549536Y-126007235D01*
X139383777Y-126102845D01*
X139334098Y-126167300D01*
X139399033Y-126217208D01*
X139564063Y-126266653D01*
X139674767Y-126286995D01*
X139936493Y-126336971D01*
X140223882Y-126408429D01*
X140502067Y-126490412D01*
X140736181Y-126571959D01*
X140891357Y-126642112D01*
X140935244Y-126683185D01*
X140881716Y-126755221D01*
X140741395Y-126885396D01*
X140544939Y-127045308D01*
X140255383Y-127284550D01*
X139974106Y-127544752D01*
X139721897Y-127803343D01*
X139519548Y-128037753D01*
X139387846Y-128225409D01*
X139347584Y-128343742D01*
X139347806Y-128345002D01*
X139398983Y-128424001D01*
X139535405Y-128477136D01*
X139786227Y-128515347D01*
X139807983Y-128517658D01*
X140058837Y-128566532D01*
X140414626Y-128666919D01*
X140848408Y-128808720D01*
X141333243Y-128981834D01*
X141842191Y-129176162D01*
X142348308Y-129381605D01*
X142824656Y-129588063D01*
X143244292Y-129785436D01*
X143396830Y-129863028D01*
X144075321Y-130218208D01*
X144904718Y-130244537D01*
X145539444Y-130238079D01*
X146063561Y-130170026D01*
X146501207Y-130033834D01*
X146876521Y-129822961D01*
X147087280Y-129652949D01*
X147431196Y-129341582D01*
X147436698Y-129236390D01*
X146663005Y-129236390D01*
X146658492Y-129416067D01*
X146646744Y-129483408D01*
X146632686Y-129436533D01*
X146620503Y-129201448D01*
X146622091Y-129179913D01*
X146337771Y-129179913D01*
X146332376Y-129345459D01*
X146309455Y-129608073D01*
X146285316Y-129725881D01*
X146264319Y-129698876D01*
X146250825Y-129527055D01*
X146248498Y-129369818D01*
X146029800Y-129369818D01*
X146018525Y-129581360D01*
X145989609Y-129717760D01*
X145965162Y-129745845D01*
X145931001Y-129681009D01*
X145918155Y-129516645D01*
X145919125Y-129486213D01*
X145738682Y-129486213D01*
X145738682Y-129818625D01*
X145348329Y-129818625D01*
X145028548Y-129803393D01*
X144689018Y-129765131D01*
X144578529Y-129746664D01*
X144358765Y-129687662D01*
X144050288Y-129582139D01*
X143696034Y-129445669D01*
X143378266Y-129311344D01*
X142925615Y-129118852D01*
X142428433Y-128920782D01*
X141913919Y-128726709D01*
X141409271Y-128546210D01*
X140941688Y-128388861D01*
X140538368Y-128264238D01*
X140226509Y-128181917D01*
X140102313Y-128157918D01*
X139734384Y-128103631D01*
X140134671Y-127716447D01*
X140406383Y-127470079D01*
X140713382Y-127215955D01*
X140953439Y-127035032D01*
X141160563Y-126882369D01*
X141310207Y-126758653D01*
X141371703Y-126689353D01*
X141371920Y-126687478D01*
X141312943Y-126585702D01*
X141130636Y-126481014D01*
X140816937Y-126369617D01*
X140522598Y-126287617D01*
X140226304Y-126209834D01*
X140054446Y-126157967D01*
X139990527Y-126121544D01*
X140018046Y-126090089D01*
X140120505Y-126053130D01*
X140142247Y-126046166D01*
X140659492Y-125921574D01*
X141236362Y-125850282D01*
X141827630Y-125833020D01*
X142388070Y-125870515D01*
X142872455Y-125963497D01*
X142990330Y-126000280D01*
X143193429Y-126080163D01*
X143280752Y-126147691D01*
X143277875Y-126225259D01*
X143268672Y-126244048D01*
X143224442Y-126384719D01*
X143183482Y-126609840D01*
X143165033Y-126765175D01*
X143108789Y-127080019D01*
X143010525Y-127409358D01*
X142963399Y-127526074D01*
X142848448Y-127881778D01*
X142802908Y-128256734D01*
X142827028Y-128605795D01*
X142921058Y-128883815D01*
X142955602Y-128937043D01*
X143187192Y-129135321D01*
X143528818Y-129276700D01*
X143955545Y-129358783D01*
X144442440Y-129379170D01*
X144964569Y-129335466D01*
X145496997Y-129225273D01*
X145611318Y-129192391D01*
X145689871Y-129189579D01*
X145727755Y-129264703D01*
X145738558Y-129449107D01*
X145738682Y-129486213D01*
X145919125Y-129486213D01*
X145921442Y-129413539D01*
X145946911Y-129168067D01*
X145978632Y-129054309D01*
X146008150Y-129075677D01*
X146027009Y-129235583D01*
X146029800Y-129369818D01*
X146248498Y-129369818D01*
X146248138Y-129345559D01*
X146257115Y-129126293D01*
X146280270Y-128980857D01*
X146302722Y-128945173D01*
X146328483Y-129010705D01*
X146337771Y-129179913D01*
X146622091Y-129179913D01*
X146632686Y-129036246D01*
X146648552Y-128991095D01*
X146659526Y-129073751D01*
X146663005Y-129236390D01*
X147436698Y-129236390D01*
X147468626Y-128625983D01*
X147484415Y-128324120D01*
X147328824Y-128324120D01*
X147311669Y-128465326D01*
X147264940Y-128578542D01*
X147171434Y-128617152D01*
X146994467Y-128604040D01*
X146746982Y-128608756D01*
X146395118Y-128669386D01*
X146066190Y-128752622D01*
X145755512Y-128838127D01*
X145479537Y-128910128D01*
X145281246Y-128957571D01*
X145229227Y-128967894D01*
X144797448Y-129005506D01*
X144325134Y-128992034D01*
X143889231Y-128931017D01*
X143764821Y-128900583D01*
X143485920Y-128797605D01*
X143319579Y-128681852D01*
X143278248Y-128564449D01*
X143316466Y-128499982D01*
X143409047Y-128447532D01*
X143598694Y-128363428D01*
X143845510Y-128265290D01*
X143861685Y-128259183D01*
X144271050Y-128140748D01*
X144797024Y-128045029D01*
X145411948Y-127975396D01*
X146088165Y-127935219D01*
X146592453Y-127926422D01*
X146908033Y-127928134D01*
X147107644Y-127938340D01*
X147220874Y-127964540D01*
X147277311Y-128014236D01*
X147306541Y-128094926D01*
X147309942Y-128108309D01*
X147328824Y-128324120D01*
X147484415Y-128324120D01*
X147506057Y-127910383D01*
X148272485Y-127962622D01*
X148641291Y-127998330D01*
X149073709Y-128060822D01*
X149585699Y-128153150D01*
X150193219Y-128278365D01*
X150912229Y-128439517D01*
X151542837Y-128587852D01*
X151758367Y-128655176D01*
X151895991Y-128729118D01*
X151924929Y-128772009D01*
X151877096Y-128862850D01*
X151749165Y-129027149D01*
X151564488Y-129235965D01*
X151470058Y-129335745D01*
X151258507Y-129549116D01*
X151086311Y-129698111D01*
X150912030Y-129807059D01*
X150694222Y-129900286D01*
X150391447Y-130002121D01*
X150269198Y-130040702D01*
X149939332Y-130146305D01*
X149724391Y-130224463D01*
X149599865Y-130289496D01*
X149541240Y-130355725D01*
X149524005Y-130437470D01*
X149523210Y-130476531D01*
X149523210Y-130678285D01*
X150815043Y-130649361D01*
X151166203Y-130642509D01*
X151640239Y-130634781D01*
X152214474Y-130626472D01*
X152866231Y-130617872D01*
X153572833Y-130609275D01*
X154311603Y-130600973D01*
X155059862Y-130593258D01*
X155470370Y-130589341D01*
X156294049Y-130582479D01*
X156985126Y-130578593D01*
X157556532Y-130577931D01*
X158021198Y-130580743D01*
X158392056Y-130587276D01*
X158682037Y-130597778D01*
X158904072Y-130612499D01*
X159071092Y-130631686D01*
X159196028Y-130655588D01*
X159218507Y-130661331D01*
X159728947Y-130780620D01*
X160313031Y-130887636D01*
X160947735Y-130980724D01*
X161610037Y-131058230D01*
X162276913Y-131118499D01*
X162925340Y-131159876D01*
X163532295Y-131180705D01*
X164074754Y-131179333D01*
X164529695Y-131154103D01*
X164874094Y-131103362D01*
X164976710Y-131075230D01*
X165265371Y-130937439D01*
X165572037Y-130724878D01*
X165855261Y-130473011D01*
X166073596Y-130217301D01*
X166163757Y-130059539D01*
X166230404Y-129822563D01*
X166262054Y-129557619D01*
X166262465Y-129529845D01*
X166274481Y-129346864D01*
X166304526Y-129244873D01*
X166317049Y-129237219D01*
X166405439Y-129257630D01*
X166601151Y-129312105D01*
X166872475Y-129391611D01*
X167099427Y-129460073D01*
X167753123Y-129621346D01*
X168412748Y-129714289D01*
X169035350Y-129735028D01*
X169564107Y-129682337D01*
X169843865Y-129613824D01*
X170120994Y-129519582D01*
X170362865Y-129414256D01*
X170536849Y-129312489D01*
X170610317Y-129228923D01*
X170609386Y-129213256D01*
X170533430Y-129156821D01*
X170357168Y-129076251D01*
X170132517Y-128993768D01*
X169851287Y-128881821D01*
X169591265Y-128747565D01*
X169446343Y-128649054D01*
X169214169Y-128455227D01*
X169539606Y-128290824D01*
X169864647Y-128105778D01*
X170175786Y-127891688D01*
X170453487Y-127666855D01*
X170678214Y-127449578D01*
X170830432Y-127258157D01*
X170853212Y-127202404D01*
X170410889Y-127202404D01*
X170353822Y-127300267D01*
X170202552Y-127450533D01*
X169986971Y-127629532D01*
X169736972Y-127813594D01*
X169482448Y-127979047D01*
X169307111Y-128076415D01*
X169075318Y-128194286D01*
X168899972Y-128286582D01*
X168816891Y-128334423D01*
X168815521Y-128335560D01*
X168829083Y-128408973D01*
X168941993Y-128531185D01*
X169126719Y-128679659D01*
X169355730Y-128831859D01*
X169560039Y-128945027D01*
X169991510Y-129160636D01*
X169782718Y-129241880D01*
X169310214Y-129367978D01*
X168743649Y-129423895D01*
X168116426Y-129409736D01*
X167461950Y-129325605D01*
X167037086Y-129233279D01*
X166392510Y-129069067D01*
X166438292Y-128807026D01*
X166466135Y-128605881D01*
X166497247Y-128317558D01*
X166525440Y-128000128D01*
X166528535Y-127960183D01*
X166533726Y-127507394D01*
X166531104Y-127485384D01*
X166334733Y-127485384D01*
X166325036Y-127827741D01*
X166296986Y-128190000D01*
X166252319Y-128530914D01*
X166222131Y-128690544D01*
X166153320Y-129012543D01*
X166085542Y-129337779D01*
X166040688Y-129559634D01*
X165977949Y-129805325D01*
X165900744Y-130013134D01*
X165866584Y-130076842D01*
X165685807Y-130247951D01*
X165390096Y-130409381D01*
X165010078Y-130551128D01*
X164576376Y-130663193D01*
X164119616Y-130735574D01*
X163781461Y-130757778D01*
X163592188Y-130753434D01*
X163292588Y-130736830D01*
X162917163Y-130710294D01*
X162500412Y-130676151D01*
X162289484Y-130657155D01*
X161817525Y-130613024D01*
X161400994Y-130572423D01*
X161025190Y-130532381D01*
X160675411Y-130489926D01*
X160336956Y-130442087D01*
X159995124Y-130385893D01*
X159635213Y-130318373D01*
X159242524Y-130236555D01*
X158802354Y-130137469D01*
X158300002Y-130018142D01*
X157720767Y-129875605D01*
X157049948Y-129706884D01*
X156272844Y-129509010D01*
X155374754Y-129279012D01*
X155018052Y-129187534D01*
X154008569Y-128928746D01*
X153127481Y-128703651D01*
X152362178Y-128509811D01*
X151700053Y-128344788D01*
X151128495Y-128206146D01*
X150634898Y-128091445D01*
X150206651Y-127998250D01*
X149831146Y-127924122D01*
X149495774Y-127866623D01*
X149187927Y-127823317D01*
X148894996Y-127791765D01*
X148604371Y-127769530D01*
X148303445Y-127754175D01*
X147979608Y-127743261D01*
X147620251Y-127734351D01*
X147485387Y-127731292D01*
X146896164Y-127722327D01*
X146335304Y-127721976D01*
X145831937Y-127729781D01*
X145415194Y-127745288D01*
X145114205Y-127768039D01*
X145110094Y-127768505D01*
X144686605Y-127838262D01*
X144249220Y-127946960D01*
X143834493Y-128082166D01*
X143478977Y-128231451D01*
X143219225Y-128382383D01*
X143159070Y-128432007D01*
X142998961Y-128582422D01*
X143056775Y-128102193D01*
X143106203Y-127811893D01*
X143175791Y-127546065D01*
X143236510Y-127392071D01*
X143314242Y-127176751D01*
X143366517Y-126905094D01*
X143375731Y-126798281D01*
X143416605Y-126554247D01*
X143511568Y-126220997D01*
X143645722Y-125837490D01*
X143804169Y-125442682D01*
X143972011Y-125075530D01*
X144134350Y-124774992D01*
X144172709Y-124714253D01*
X144393893Y-124486918D01*
X144723775Y-124319806D01*
X145173127Y-124208554D01*
X145530539Y-124164465D01*
X145750390Y-124156786D01*
X146084270Y-124159503D01*
X146501135Y-124171108D01*
X146969943Y-124190094D01*
X147459651Y-124214954D01*
X147939217Y-124244179D01*
X148377596Y-124276263D01*
X148743747Y-124309699D01*
X148904585Y-124328310D01*
X149195702Y-124365945D01*
X148940975Y-124136275D01*
X148733046Y-123979616D01*
X148458682Y-123811954D01*
X148245676Y-123702472D01*
X147931060Y-123536366D01*
X147601148Y-123318244D01*
X147566149Y-123290897D01*
X145408469Y-123290897D01*
X145404377Y-123585090D01*
X145386795Y-123784534D01*
X145358325Y-123861211D01*
X145301319Y-123876834D01*
X145254799Y-123834595D01*
X145215759Y-123718768D01*
X145181194Y-123513627D01*
X145148096Y-123203447D01*
X145113458Y-122772502D01*
X145091950Y-122467908D01*
X145030042Y-121790403D01*
X144940590Y-121233646D01*
X144814841Y-120774045D01*
X144644042Y-120388007D01*
X144419441Y-120051941D01*
X144132286Y-119742254D01*
X144053958Y-119670015D01*
X143669143Y-119385384D01*
X143307450Y-119243946D01*
X142969434Y-119245755D01*
X142655651Y-119390866D01*
X142507071Y-119518125D01*
X142266635Y-119856352D01*
X142132036Y-120264477D01*
X142112309Y-120703692D01*
X142165149Y-120986712D01*
X142230584Y-121214870D01*
X141967627Y-121142264D01*
X141540720Y-121084179D01*
X141129556Y-121136847D01*
X140763624Y-121288655D01*
X140472415Y-121527988D01*
X140303005Y-121797863D01*
X140232502Y-122092869D01*
X140273871Y-122399969D01*
X140432316Y-122747652D01*
X140495655Y-122851880D01*
X140830141Y-123264396D01*
X141259219Y-123590042D01*
X141791367Y-123832890D01*
X142435064Y-123997015D01*
X143040897Y-124074782D01*
X143514151Y-124115664D01*
X143859441Y-124149594D01*
X144093982Y-124180165D01*
X144234985Y-124210969D01*
X144299664Y-124245601D01*
X144305233Y-124287651D01*
X144275811Y-124332558D01*
X144153935Y-124386186D01*
X143901517Y-124408336D01*
X143515731Y-124398931D01*
X142993750Y-124357896D01*
X142332747Y-124285154D01*
X142281662Y-124278930D01*
X141679742Y-124148781D01*
X141091421Y-123917995D01*
X140567506Y-123608547D01*
X140368694Y-123451579D01*
X140045947Y-123096092D01*
X139830610Y-122700774D01*
X139721913Y-122288294D01*
X139719091Y-121881322D01*
X139821374Y-121502529D01*
X140027996Y-121174585D01*
X140338190Y-120920161D01*
X140456458Y-120859217D01*
X140754672Y-120755866D01*
X141045687Y-120735276D01*
X141379611Y-120797650D01*
X141589481Y-120863851D01*
X141806303Y-120935245D01*
X141957935Y-120978661D01*
X142005293Y-120985443D01*
X141995548Y-120912996D01*
X141952802Y-120745431D01*
X141915096Y-120615266D01*
X141819843Y-120159897D01*
X141835438Y-119770421D01*
X141963807Y-119416181D01*
X141993685Y-119362862D01*
X142258309Y-119043439D01*
X142608144Y-118841738D01*
X143041755Y-118758519D01*
X143137826Y-118756160D01*
X143614212Y-118825838D01*
X144049818Y-119030882D01*
X144438619Y-119365310D01*
X144774588Y-119823140D01*
X145051699Y-120398391D01*
X145184413Y-120787962D01*
X145233077Y-121008936D01*
X145278670Y-121319276D01*
X145319704Y-121692681D01*
X145354689Y-122102847D01*
X145382137Y-122523473D01*
X145400560Y-122928257D01*
X145408469Y-123290897D01*
X147566149Y-123290897D01*
X147234533Y-123031791D01*
X146809809Y-122660693D01*
X146491652Y-122365618D01*
X146085028Y-121937560D01*
X145814447Y-121549612D01*
X145680972Y-121203461D01*
X145665903Y-121056759D01*
X145642875Y-120892725D01*
X145581948Y-120641302D01*
X145495357Y-120351756D01*
X145477303Y-120297359D01*
X145378266Y-119978380D01*
X145328623Y-119728082D01*
X145319859Y-119481601D01*
X145337567Y-119233058D01*
X145398418Y-118809184D01*
X145502283Y-118298513D01*
X145636813Y-117748866D01*
X145789660Y-117208066D01*
X145948477Y-116723935D01*
X146059236Y-116438128D01*
X146401074Y-115753412D01*
X146872140Y-115002810D01*
X147472095Y-114186770D01*
X148200604Y-113305740D01*
X149057328Y-112360168D01*
X149377651Y-112024166D01*
X149935762Y-111432622D01*
X150527291Y-110782117D01*
X151137976Y-110089985D01*
X151250560Y-109958955D01*
X149165296Y-109958955D01*
X148209041Y-111009707D01*
X147871383Y-111377915D01*
X147613901Y-111650261D01*
X147421098Y-111840578D01*
X147277475Y-111962702D01*
X147167535Y-112030468D01*
X147075779Y-112057710D01*
X147031978Y-112060458D01*
X146830540Y-112107175D01*
X146623654Y-112261801D01*
X146566044Y-112320368D01*
X146394068Y-112533029D01*
X146326634Y-112689183D01*
X146367468Y-112775445D01*
X146435730Y-112788252D01*
X146461427Y-112834838D01*
X146376980Y-112974950D01*
X146217392Y-113169094D01*
X146050405Y-113369515D01*
X145929892Y-113532297D01*
X145881354Y-113622925D01*
X145881283Y-113623965D01*
X145847056Y-113649545D01*
X145764372Y-113575408D01*
X145653036Y-113430401D01*
X145532851Y-113243368D01*
X145423621Y-113043153D01*
X145345150Y-112858602D01*
X145335925Y-112829627D01*
X145239722Y-112353514D01*
X145252601Y-111905200D01*
X145273439Y-111784815D01*
X145317650Y-111563756D01*
X145518347Y-111793912D01*
X145659996Y-111981331D01*
X145758203Y-112155821D01*
X145770157Y-112187822D01*
X145843725Y-112325614D01*
X145926459Y-112341387D01*
X146004330Y-112256823D01*
X146063309Y-112093603D01*
X146089365Y-111873406D01*
X146081613Y-111706501D01*
X146016243Y-111429244D01*
X145878016Y-111232462D01*
X145845713Y-111203195D01*
X145647306Y-111032533D01*
X145856748Y-110812052D01*
X146049096Y-110627135D01*
X146246369Y-110462537D01*
X146271014Y-110444373D01*
X146475838Y-110297176D01*
X146634911Y-110443166D01*
X146915704Y-110602722D01*
X147302269Y-110664000D01*
X147674890Y-110643466D01*
X147927848Y-110596503D01*
X148050429Y-110532428D01*
X148067622Y-110486990D01*
X148007044Y-110348867D01*
X147847923Y-110181104D01*
X147624178Y-110014404D01*
X147422217Y-109902799D01*
X147157880Y-109779179D01*
X147838835Y-109427841D01*
X148174874Y-109256620D01*
X148403217Y-109148152D01*
X148544330Y-109096185D01*
X148618680Y-109094468D01*
X148646733Y-109136747D01*
X148649857Y-109180099D01*
X148691624Y-109291180D01*
X148799510Y-109470144D01*
X148907577Y-109621324D01*
X149165296Y-109958955D01*
X151250560Y-109958955D01*
X151753551Y-109373557D01*
X152050940Y-109018676D01*
X149991537Y-109018676D01*
X149959141Y-109108011D01*
X149915650Y-109168679D01*
X149793651Y-109331232D01*
X149494677Y-109040115D01*
X149329366Y-108869994D01*
X149259795Y-108764573D01*
X149271043Y-108693992D01*
X149304871Y-108660337D01*
X149426707Y-108586727D01*
X149543988Y-108596304D01*
X149697033Y-108699552D01*
X149798624Y-108788721D01*
X149942850Y-108927893D01*
X149991537Y-109018676D01*
X152050940Y-109018676D01*
X152359753Y-108650164D01*
X152914444Y-107971255D01*
X150820917Y-107971255D01*
X150783647Y-108086953D01*
X150746565Y-108168193D01*
X150651933Y-108304121D01*
X150527369Y-108319958D01*
X150510032Y-108315424D01*
X150320220Y-108265942D01*
X150164253Y-108229537D01*
X149968333Y-108186646D01*
X150164253Y-108022476D01*
X150374249Y-107901388D01*
X150596705Y-107893430D01*
X150767251Y-107922603D01*
X150820917Y-107971255D01*
X152914444Y-107971255D01*
X152942318Y-107937140D01*
X153486982Y-107251816D01*
X153979481Y-106611523D01*
X154122136Y-106418022D01*
X152197933Y-106418022D01*
X152167280Y-106477748D01*
X152069059Y-106617150D01*
X151965107Y-106753711D01*
X151806447Y-106941508D01*
X151674358Y-107039028D01*
X151514589Y-107077049D01*
X151382790Y-107084111D01*
X151186183Y-107083752D01*
X151067487Y-107072492D01*
X151051576Y-107064026D01*
X151091617Y-106995024D01*
X151195681Y-106845081D01*
X151315726Y-106681084D01*
X151467854Y-106485745D01*
X151579786Y-106384146D01*
X151695818Y-106351499D01*
X151860247Y-106363018D01*
X151879766Y-106365480D01*
X152069876Y-106392314D01*
X152184915Y-106413504D01*
X152197933Y-106418022D01*
X154122136Y-106418022D01*
X154405550Y-106033595D01*
X154750926Y-105535363D01*
X154873125Y-105346692D01*
X154997756Y-105158686D01*
X155092128Y-105034256D01*
X155127221Y-105003700D01*
X155180231Y-105060943D01*
X155298522Y-105215291D01*
X155465064Y-105443802D01*
X155662821Y-105723535D01*
X155680956Y-105749559D01*
X155942783Y-106118732D01*
X156226052Y-106506218D01*
X156516209Y-106893361D01*
X156798701Y-107261505D01*
X157058973Y-107591995D01*
X157282472Y-107866175D01*
X157454645Y-108065387D01*
X157560936Y-108170977D01*
X157578438Y-108181863D01*
X157675788Y-108156310D01*
X157850678Y-108056481D01*
X158069590Y-107902197D01*
X158128081Y-107856798D01*
X158402883Y-107654118D01*
X158622889Y-107533402D01*
X158834263Y-107471756D01*
X158932578Y-107457863D01*
X159144254Y-107440687D01*
X159261435Y-107465128D01*
X159334086Y-107554955D01*
X159387143Y-107674107D01*
X159469044Y-107839075D01*
X159560415Y-107898848D01*
X159716284Y-107886475D01*
X159734986Y-107883021D01*
X159934945Y-107873805D01*
X160084828Y-107956541D01*
X160134384Y-108005648D01*
X160292168Y-108173601D01*
X159958855Y-108262749D01*
X159625542Y-108351896D01*
X159676353Y-109532968D01*
X159703544Y-110033982D01*
X159736926Y-110430230D01*
X159775067Y-110708391D01*
X159816532Y-110855147D01*
X159819168Y-110859599D01*
X159895539Y-110954038D01*
X160056769Y-111135358D01*
X160286521Y-111385812D01*
X160568460Y-111687655D01*
X160886250Y-112023139D01*
X160995301Y-112137264D01*
X161797168Y-112999034D01*
X162484253Y-113791572D01*
X163063745Y-114525080D01*
X163542837Y-115209758D01*
X163928719Y-115855809D01*
X164228583Y-116473434D01*
X164429579Y-117009455D01*
X164606016Y-117577562D01*
X164734550Y-118050554D01*
X164822277Y-118468084D01*
X164876289Y-118869807D01*
X164903681Y-119295376D01*
X164911318Y-119702292D01*
X164911766Y-120102519D01*
X164905126Y-120391880D01*
X164886165Y-120605055D01*
X164849650Y-120776725D01*
X164790347Y-120941571D01*
X164703025Y-121134273D01*
X164691615Y-121158384D01*
X164519510Y-121475066D01*
X164301440Y-121814625D01*
X164126031Y-122050799D01*
X163784878Y-122469644D01*
X164044867Y-122697918D01*
X164322964Y-123007258D01*
X164481511Y-123331291D01*
X164515598Y-123649692D01*
X164420316Y-123942133D01*
X164364919Y-124022850D01*
X164161750Y-124179930D01*
X163919019Y-124205249D01*
X163661806Y-124097467D01*
X163614828Y-124062981D01*
X163493654Y-123986389D01*
X163343744Y-123939965D01*
X163126841Y-123916605D01*
X162804691Y-123909206D01*
X162786245Y-123909131D01*
X162467263Y-123917934D01*
X162179036Y-123943298D01*
X161971400Y-123980325D01*
X161932092Y-123993048D01*
X161600615Y-124172852D01*
X161236916Y-124452691D01*
X160875052Y-124803006D01*
X160550996Y-125191649D01*
X160339121Y-125469667D01*
X160124405Y-125737479D01*
X159945181Y-125947617D01*
X159906497Y-125989742D01*
X159748579Y-126145839D01*
X159638873Y-126208933D01*
X159532443Y-126197873D01*
X159470883Y-126172469D01*
X159286734Y-126088565D01*
X159469714Y-125897578D01*
X159588418Y-125761396D01*
X159767379Y-125541369D01*
X159980122Y-125270548D01*
X160153733Y-125043651D01*
X160645699Y-124460596D01*
X161143178Y-124010320D01*
X161660521Y-123680315D01*
X161790272Y-123617143D01*
X161981957Y-123539698D01*
X162177188Y-123490350D01*
X162416709Y-123463217D01*
X162741266Y-123452421D01*
X162939423Y-123451315D01*
X163291121Y-123453352D01*
X163527424Y-123463476D01*
X163678467Y-123487022D01*
X163774388Y-123529324D01*
X163845323Y-123595718D01*
X163860831Y-123614411D01*
X163987536Y-123748967D01*
X164055783Y-123756354D01*
X164078734Y-123636118D01*
X164079084Y-123606908D01*
X164037419Y-123449297D01*
X163931522Y-123241538D01*
X163860289Y-123133842D01*
X163711954Y-122949552D01*
X163579333Y-122857771D01*
X163405582Y-122824822D01*
X163332638Y-122821225D01*
X162944395Y-122819112D01*
X162639635Y-122851588D01*
X162358054Y-122930623D01*
X162039345Y-123068187D01*
X162004871Y-123084771D01*
X161495416Y-123331339D01*
X161822923Y-123045590D01*
X162087295Y-122842081D01*
X162390326Y-122646714D01*
X162533346Y-122568542D01*
X162800991Y-122452156D01*
X163032977Y-122404764D01*
X163311583Y-122410049D01*
X163326467Y-122411258D01*
X163551668Y-122426686D01*
X163653506Y-122420547D01*
X163653288Y-122387346D01*
X163598565Y-122341076D01*
X163441948Y-122277052D01*
X163191575Y-122263506D01*
X163037127Y-122273151D01*
X162804332Y-122304896D01*
X162593033Y-122366960D01*
X162376260Y-122474506D01*
X162127041Y-122642698D01*
X161818406Y-122886697D01*
X161562657Y-123102099D01*
X161118601Y-123434268D01*
X160648177Y-123705909D01*
X160512894Y-123768493D01*
X160229710Y-123884781D01*
X160006823Y-123953037D01*
X159785832Y-123983747D01*
X159508337Y-123987398D01*
X159323269Y-123982117D01*
X158679489Y-123959885D01*
X158584200Y-123682145D01*
X158485832Y-123449131D01*
X158354184Y-123268442D01*
X158156317Y-123106954D01*
X157859293Y-122931544D01*
X157813147Y-122906773D01*
X157649510Y-122795415D01*
X152143267Y-122795415D01*
X152106877Y-122831805D01*
X152070488Y-122795415D01*
X152106877Y-122759026D01*
X152143267Y-122795415D01*
X157649510Y-122795415D01*
X157312249Y-122565903D01*
X156831539Y-122091836D01*
X156382987Y-121496703D01*
X156311210Y-121385027D01*
X156260790Y-121303438D01*
X151762485Y-121303438D01*
X151754897Y-121435847D01*
X151736005Y-121451452D01*
X151729201Y-121430802D01*
X151717883Y-121246217D01*
X151729201Y-121176074D01*
X151750296Y-121153424D01*
X151761781Y-121254059D01*
X151762485Y-121303438D01*
X156260790Y-121303438D01*
X156150980Y-121125750D01*
X156060872Y-120960141D01*
X156031889Y-120859687D01*
X156055036Y-120795877D01*
X156110270Y-120748208D01*
X156282446Y-120664603D01*
X156485120Y-120664437D01*
X156760984Y-120748216D01*
X156781479Y-120756192D01*
X156980155Y-120822922D01*
X157259892Y-120902906D01*
X157579736Y-120986086D01*
X157898732Y-121062402D01*
X158175926Y-121121798D01*
X158370362Y-121154213D01*
X158414904Y-121157370D01*
X158602696Y-121096523D01*
X158789924Y-120943731D01*
X158931995Y-120745787D01*
X158984528Y-120559574D01*
X159030117Y-120359877D01*
X159181665Y-120155067D01*
X159246627Y-120090912D01*
X159412943Y-119909936D01*
X159474323Y-119767612D01*
X159467403Y-119679075D01*
X159465853Y-119554670D01*
X159555103Y-119453082D01*
X159681290Y-119376989D01*
X159846680Y-119270750D01*
X159905515Y-119167682D01*
X159895272Y-119051841D01*
X159906458Y-118834695D01*
X160009299Y-118541305D01*
X160028210Y-118500834D01*
X160187792Y-118129686D01*
X160257672Y-117856973D01*
X160237146Y-117665952D01*
X160125513Y-117539879D01*
X159985321Y-117479003D01*
X159821345Y-117403225D01*
X159621497Y-117278203D01*
X159576461Y-117245552D01*
X159423907Y-117117363D01*
X159362132Y-116999053D01*
X159364601Y-116824952D01*
X159374699Y-116746197D01*
X159428018Y-116503941D01*
X159520815Y-116206156D01*
X159602880Y-115991192D01*
X159713787Y-115711013D01*
X159809847Y-115439636D01*
X159858097Y-115279940D01*
X159893157Y-115157988D01*
X159909776Y-115147260D01*
X159909912Y-115259090D01*
X159895917Y-115498881D01*
X159867851Y-115773420D01*
X159826646Y-116005775D01*
X159785316Y-116135701D01*
X159755770Y-116251190D01*
X159810651Y-116286611D01*
X159914337Y-116244212D01*
X160031206Y-116126240D01*
X160035702Y-116119909D01*
X160112510Y-116018698D01*
X160140082Y-116009471D01*
X160115913Y-116102988D01*
X160037504Y-116310008D01*
X159930040Y-116574280D01*
X159831905Y-116827835D01*
X159767100Y-117026314D01*
X159746643Y-117134901D01*
X159749769Y-117143942D01*
X159826765Y-117127662D01*
X159964085Y-117016905D01*
X160139530Y-116837099D01*
X160330903Y-116613674D01*
X160516006Y-116372058D01*
X160672641Y-116137682D01*
X160750545Y-115997487D01*
X160859650Y-115763301D01*
X160927861Y-115566153D01*
X160964822Y-115357266D01*
X160980174Y-115087864D01*
X160983296Y-114820078D01*
X160987057Y-114498547D01*
X160997349Y-114304729D01*
X161017081Y-114220821D01*
X161049163Y-114229020D01*
X161073653Y-114267290D01*
X161140535Y-114429564D01*
X161213552Y-114667057D01*
X161248988Y-114807880D01*
X161321694Y-115063819D01*
X161384077Y-115178349D01*
X161428252Y-115155597D01*
X161446334Y-114999691D01*
X161430440Y-114714759D01*
X161430257Y-114712970D01*
X161339490Y-114165987D01*
X161291207Y-113989112D01*
X160949571Y-113989112D01*
X160913181Y-114025501D01*
X160876791Y-113989112D01*
X160913181Y-113952722D01*
X160949571Y-113989112D01*
X161291207Y-113989112D01*
X161184500Y-113598220D01*
X160980352Y-113048904D01*
X160742108Y-112557276D01*
X160484831Y-112162573D01*
X160422056Y-112086774D01*
X160185494Y-111855748D01*
X159913533Y-111649253D01*
X159645648Y-111492677D01*
X159421311Y-111411410D01*
X159362779Y-111405444D01*
X159237589Y-111381619D01*
X159229349Y-111296286D01*
X159232780Y-111286904D01*
X159278194Y-111144948D01*
X159337527Y-110931136D01*
X159358558Y-110849505D01*
X159391307Y-110616087D01*
X159399663Y-110297913D01*
X159386813Y-109919950D01*
X159355947Y-109507163D01*
X159310253Y-109084517D01*
X159252920Y-108676980D01*
X159187138Y-108309516D01*
X159116094Y-108007092D01*
X159042977Y-107794674D01*
X158970976Y-107697226D01*
X158955484Y-107693696D01*
X158795240Y-107751030D01*
X158554151Y-107919796D01*
X158238924Y-108195139D01*
X158161476Y-108268401D01*
X157816360Y-108638757D01*
X157578393Y-108996757D01*
X157419718Y-109384455D01*
X157417645Y-109391215D01*
X157324895Y-109695129D01*
X157203775Y-109404011D01*
X157023747Y-108996146D01*
X156819338Y-108573310D01*
X156607197Y-108166452D01*
X156403973Y-107806520D01*
X156226316Y-107524463D01*
X156110742Y-107372266D01*
X155855029Y-107087226D01*
X155559789Y-107407029D01*
X155352489Y-107647404D01*
X155151138Y-107905882D01*
X155062969Y-108031162D01*
X154926431Y-108286050D01*
X154778556Y-108641000D01*
X154633518Y-109052765D01*
X154505491Y-109478103D01*
X154408651Y-109873768D01*
X154358761Y-110179601D01*
X154328366Y-110416983D01*
X154283941Y-110548386D01*
X154205182Y-110613252D01*
X154122116Y-110639369D01*
X153784539Y-110756854D01*
X153390405Y-110946960D01*
X152988657Y-111182025D01*
X152628236Y-111434386D01*
X152450446Y-111584203D01*
X152228267Y-111776661D01*
X152011297Y-111927820D01*
X151757835Y-112061294D01*
X151426179Y-112200697D01*
X151228906Y-112275925D01*
X150905322Y-112404163D01*
X150628260Y-112527371D01*
X150429026Y-112630762D01*
X150341977Y-112694851D01*
X150256875Y-112920144D01*
X150258156Y-113233522D01*
X150342621Y-113608341D01*
X150498768Y-114000761D01*
X150624322Y-114250578D01*
X150733569Y-114446295D01*
X150806535Y-114552633D01*
X150815656Y-114560480D01*
X150812966Y-114639018D01*
X150763204Y-114832837D01*
X150672697Y-115121810D01*
X150547774Y-115485809D01*
X150394765Y-115904707D01*
X150383872Y-115933692D01*
X150185671Y-116468413D01*
X149966881Y-117072366D01*
X149748025Y-117688049D01*
X149549627Y-118257963D01*
X149454392Y-118537822D01*
X149025818Y-119811461D01*
X148516898Y-120357306D01*
X148122904Y-120790163D01*
X147824659Y-121145881D01*
X147610004Y-121445015D01*
X147466779Y-121708115D01*
X147382826Y-121955734D01*
X147345985Y-122208424D01*
X147341427Y-122344159D01*
X147391686Y-122729414D01*
X147553128Y-123053346D01*
X147835977Y-123328718D01*
X148250461Y-123568291D01*
X148362481Y-123618384D01*
X148642159Y-123771660D01*
X148958348Y-123996656D01*
X149274515Y-124261632D01*
X149554124Y-124534853D01*
X149760641Y-124784580D01*
X149823457Y-124887523D01*
X149908753Y-125114657D01*
X149965474Y-125380865D01*
X149988809Y-125639526D01*
X149973949Y-125844021D01*
X149931727Y-125936916D01*
X149858298Y-125936165D01*
X149829515Y-125888539D01*
X149728949Y-125727825D01*
X149681707Y-125677500D01*
X149364992Y-125677500D01*
X149260163Y-125712195D01*
X149213897Y-125712369D01*
X149089578Y-125739823D01*
X149066132Y-125858797D01*
X149066984Y-125867540D01*
X149044148Y-125977531D01*
X148967795Y-125986777D01*
X148877646Y-125906309D01*
X148827096Y-125800920D01*
X148827844Y-125621490D01*
X148932706Y-125505310D01*
X149104126Y-125482222D01*
X149193014Y-125510174D01*
X149341917Y-125603455D01*
X149364992Y-125677500D01*
X149681707Y-125677500D01*
X149548723Y-125535839D01*
X149335214Y-125354115D01*
X149134801Y-125224189D01*
X149050275Y-125190664D01*
X148790527Y-125182713D01*
X148590820Y-125280710D01*
X148473674Y-125454905D01*
X148461610Y-125675544D01*
X148541213Y-125863164D01*
X148678005Y-126000481D01*
X148884882Y-126135267D01*
X149113285Y-126243541D01*
X149314656Y-126301321D01*
X149419344Y-126296861D01*
X149505077Y-126314365D01*
X149523210Y-126404574D01*
X149493411Y-126506357D01*
X149439185Y-126500213D01*
X149389879Y-126491105D01*
X149412120Y-126540445D01*
X149412146Y-126653257D01*
X149368780Y-126696134D01*
X149214907Y-126756988D01*
X149135054Y-126693109D01*
X149120054Y-126565793D01*
X149067730Y-126376891D01*
X148927753Y-126258895D01*
X148779388Y-126190047D01*
X148675397Y-126209404D01*
X148582051Y-126284324D01*
X148454825Y-126445594D01*
X148459250Y-126600157D01*
X148597220Y-126776563D01*
X148615834Y-126794100D01*
X148905729Y-126969456D01*
X149240128Y-127020747D01*
X149550105Y-126952497D01*
X149754169Y-126828908D01*
X149919700Y-126662223D01*
X150013547Y-126492477D01*
X150017305Y-126388304D01*
X150049549Y-126292198D01*
X150164247Y-126146121D01*
X150246996Y-126064039D01*
X150408216Y-125897762D01*
X150480918Y-125748557D01*
X150494850Y-125548639D01*
X150493429Y-125502477D01*
X150440862Y-125172345D01*
X150299611Y-124850398D01*
X150055383Y-124511631D01*
X149728972Y-124165092D01*
X149268003Y-123777318D01*
X148719657Y-123438130D01*
X148591564Y-123371284D01*
X148190936Y-123153232D01*
X147911840Y-122962729D01*
X147737129Y-122783112D01*
X147649652Y-122597717D01*
X147630946Y-122437897D01*
X147647849Y-122273599D01*
X147710153Y-122117669D01*
X147835248Y-121946828D01*
X148040525Y-121737798D01*
X148343376Y-121467302D01*
X148379060Y-121436524D01*
X148900071Y-120988103D01*
X148994430Y-121596171D01*
X149074577Y-121988136D01*
X149179609Y-122322423D01*
X149262752Y-122499827D01*
X149451566Y-122760240D01*
X149734310Y-123073811D01*
X150082878Y-123414354D01*
X150469168Y-123755682D01*
X150865077Y-124071611D01*
X151212559Y-124316611D01*
X151533855Y-124516851D01*
X151853824Y-124700577D01*
X152148959Y-124856155D01*
X152395756Y-124971950D01*
X152570708Y-125036330D01*
X152650312Y-125037661D01*
X152652722Y-125029396D01*
X152603143Y-124961794D01*
X152466230Y-124811949D01*
X152259716Y-124598351D01*
X152001336Y-124339491D01*
X151826442Y-124167855D01*
X151427174Y-123766222D01*
X151130790Y-123437559D01*
X150924372Y-123166647D01*
X150809837Y-122970063D01*
X150630788Y-122444349D01*
X150565429Y-121862255D01*
X150617426Y-121262705D01*
X150639093Y-121157880D01*
X150745843Y-120684814D01*
X150753151Y-121018874D01*
X150793183Y-121395398D01*
X150889075Y-121843195D01*
X151025673Y-122306474D01*
X151187821Y-122729448D01*
X151258359Y-122878641D01*
X151552899Y-123389094D01*
X151937027Y-123948383D01*
X152383512Y-124518508D01*
X152675374Y-124855948D01*
X152970953Y-125177357D01*
X153206248Y-125409696D01*
X153412918Y-125576739D01*
X153622623Y-125702258D01*
X153867024Y-125810027D01*
X154024988Y-125869362D01*
X154506193Y-126044030D01*
X154070021Y-125620582D01*
X153620497Y-125169456D01*
X153261969Y-124772258D01*
X152968455Y-124396293D01*
X152713973Y-124008864D01*
X152525359Y-123676748D01*
X152330239Y-123308635D01*
X152207606Y-123063754D01*
X152156568Y-122939626D01*
X152176236Y-122933771D01*
X152265720Y-123043711D01*
X152329743Y-123132009D01*
X152476866Y-123305250D01*
X152696212Y-123524825D01*
X152944777Y-123748137D01*
X152989960Y-123785986D01*
X153230011Y-123997423D01*
X153439894Y-124205123D01*
X153581408Y-124370744D01*
X153599900Y-124398253D01*
X153710349Y-124543026D01*
X153896926Y-124753606D01*
X154129249Y-124996592D01*
X154280373Y-125146382D01*
X154658650Y-125481670D01*
X155041339Y-125746805D01*
X155471670Y-125966583D01*
X155992876Y-126165799D01*
X156146132Y-126216488D01*
X156599709Y-126407093D01*
X156918058Y-126644320D01*
X157105166Y-126932283D01*
X157165043Y-127267732D01*
X157185808Y-127422590D01*
X157235952Y-127489612D01*
X157237823Y-127489685D01*
X157283078Y-127425450D01*
X157305735Y-127263428D01*
X157305687Y-127049643D01*
X157282830Y-126830116D01*
X157239725Y-126657726D01*
X157158485Y-126501729D01*
X157018692Y-126284000D01*
X156878329Y-126088947D01*
X156702626Y-125857752D01*
X156541939Y-125646400D01*
X156449313Y-125524642D01*
X156310816Y-125342693D01*
X156764819Y-125345007D01*
X157032475Y-125355071D01*
X157211815Y-125394007D01*
X157359687Y-125479992D01*
X157464855Y-125568816D01*
X157619519Y-125725251D01*
X157718967Y-125858061D01*
X157734282Y-125894010D01*
X157786728Y-126020083D01*
X157807061Y-126045922D01*
X157896634Y-126075804D01*
X158123482Y-126127929D01*
X158481222Y-126201100D01*
X158963471Y-126294118D01*
X159563845Y-126405786D01*
X160275960Y-126534906D01*
X161093433Y-126680280D01*
X162009881Y-126840711D01*
X162441548Y-126915540D01*
X163323678Y-127058839D01*
X164073102Y-127160251D01*
X164696427Y-127220067D01*
X165200260Y-127238578D01*
X165591209Y-127216078D01*
X165875880Y-127152856D01*
X166030408Y-127073991D01*
X166117220Y-127016619D01*
X165316333Y-127016619D01*
X165279943Y-127053008D01*
X165243553Y-127016619D01*
X165279943Y-126980229D01*
X165316333Y-127016619D01*
X166117220Y-127016619D01*
X166178243Y-126976291D01*
X166254636Y-126967446D01*
X166292137Y-127025359D01*
X166324345Y-127204174D01*
X166334733Y-127485384D01*
X166531104Y-127485384D01*
X166484029Y-127090289D01*
X166432876Y-126907450D01*
X165668738Y-126907450D01*
X165657301Y-127010770D01*
X165632029Y-126998424D01*
X165622417Y-126849419D01*
X165632029Y-126816476D01*
X165658593Y-126807333D01*
X165668738Y-126907450D01*
X166432876Y-126907450D01*
X166386411Y-126741374D01*
X166347078Y-126670917D01*
X165089552Y-126670917D01*
X165084282Y-126884326D01*
X165061696Y-127023013D01*
X165039829Y-127053008D01*
X165008632Y-126989218D01*
X165003818Y-126830888D01*
X165007635Y-126780086D01*
X165021469Y-126655532D01*
X164806877Y-126655532D01*
X164806877Y-127062231D01*
X164333811Y-127016619D01*
X164353910Y-126584103D01*
X164368385Y-126350010D01*
X164385460Y-126183338D01*
X164398401Y-126127196D01*
X164475854Y-126132287D01*
X164614835Y-126175818D01*
X164725224Y-126231252D01*
X164782671Y-126317453D01*
X164804151Y-126476826D01*
X164806877Y-126655532D01*
X165021469Y-126655532D01*
X165036455Y-126520610D01*
X165059643Y-126405215D01*
X165076891Y-126434310D01*
X165087892Y-126608306D01*
X165089552Y-126670917D01*
X166347078Y-126670917D01*
X166296291Y-126579943D01*
X165753009Y-126579943D01*
X165716619Y-126616332D01*
X165680230Y-126579943D01*
X165716619Y-126543553D01*
X165753009Y-126579943D01*
X166296291Y-126579943D01*
X166247840Y-126493155D01*
X166204329Y-126447636D01*
X166077161Y-126371098D01*
X165850556Y-126269143D01*
X165564261Y-126158959D01*
X165426076Y-126111113D01*
X165123678Y-125999886D01*
X164861320Y-125884833D01*
X164679747Y-125784579D01*
X164635916Y-125749924D01*
X164489713Y-125603721D01*
X164702880Y-125522002D01*
X164845020Y-125482548D01*
X165007209Y-125473332D01*
X165207594Y-125499175D01*
X165464321Y-125564900D01*
X165795536Y-125675329D01*
X166219386Y-125835282D01*
X166754018Y-126049583D01*
X166875830Y-126099387D01*
X167472347Y-126343156D01*
X167954077Y-126537490D01*
X168340590Y-126688950D01*
X168651455Y-126804097D01*
X168906242Y-126889494D01*
X169124520Y-126951702D01*
X169325859Y-126997282D01*
X169529828Y-127032797D01*
X169754618Y-127064623D01*
X170042520Y-127108095D01*
X170266167Y-127151651D01*
X170393435Y-127188545D01*
X170410889Y-127202404D01*
X170853212Y-127202404D01*
X170890605Y-127110891D01*
X170869111Y-127045443D01*
X170770632Y-127004141D01*
X170564797Y-126951247D01*
X170288365Y-126895633D01*
X170151112Y-126872145D01*
X169869721Y-126823358D01*
X169612845Y-126769374D01*
X169359053Y-126702612D01*
X169086918Y-126615493D01*
X168775009Y-126500437D01*
X168401899Y-126349864D01*
X167946157Y-126156193D01*
X167386355Y-125911845D01*
X167182812Y-125822186D01*
X166618284Y-125577020D01*
X166166041Y-125391555D01*
X165807697Y-125261362D01*
X165524867Y-125182012D01*
X165299165Y-125149074D01*
X165112207Y-125158119D01*
X164945607Y-125204718D01*
X164833474Y-125256160D01*
X164649142Y-125371715D01*
X164514405Y-125489885D01*
X164397733Y-125690176D01*
X164287220Y-125978543D01*
X164200413Y-126297952D01*
X164154862Y-126591365D01*
X164151863Y-126668123D01*
X164131833Y-126886956D01*
X164073977Y-126977623D01*
X164060889Y-126979468D01*
X163950140Y-126966323D01*
X163725551Y-126930577D01*
X163410603Y-126876610D01*
X163028775Y-126808798D01*
X162603550Y-126731523D01*
X162158407Y-126649162D01*
X161716826Y-126566094D01*
X161302289Y-126486699D01*
X160938277Y-126415354D01*
X160648269Y-126356440D01*
X160455746Y-126314334D01*
X160384506Y-126293865D01*
X160401118Y-126256619D01*
X160438675Y-126252435D01*
X160567861Y-126220262D01*
X160804962Y-126130467D01*
X161129040Y-125993141D01*
X161519159Y-125818371D01*
X161954382Y-125616247D01*
X162413772Y-125396858D01*
X162876392Y-125170293D01*
X163321305Y-124946641D01*
X163727574Y-124735991D01*
X164074263Y-124548432D01*
X164340434Y-124394052D01*
X164468304Y-124310654D01*
X164658952Y-124180999D01*
X164796412Y-124099321D01*
X164845151Y-124083068D01*
X164843556Y-124160969D01*
X164815977Y-124337764D01*
X164771116Y-124570980D01*
X164717674Y-124818145D01*
X164664352Y-125036788D01*
X164619851Y-125184436D01*
X164619141Y-125186295D01*
X164594461Y-125270976D01*
X164635332Y-125279668D01*
X164771365Y-125215476D01*
X164792660Y-125204487D01*
X165044423Y-125099287D01*
X165372931Y-125007870D01*
X165793444Y-124927574D01*
X166321223Y-124855734D01*
X166971528Y-124789687D01*
X167354155Y-124757466D01*
X167826973Y-124716053D01*
X168280350Y-124669478D01*
X168682535Y-124621515D01*
X169001777Y-124575940D01*
X169200979Y-124537880D01*
X169774204Y-124342455D01*
X170319276Y-124058194D01*
X170808290Y-123705852D01*
X171213341Y-123306183D01*
X171506525Y-122879941D01*
X171550694Y-122790254D01*
X171691272Y-122339601D01*
X171701314Y-122180849D01*
X171027393Y-122180849D01*
X170927089Y-122622233D01*
X170699105Y-123041774D01*
X170352301Y-123425182D01*
X169895540Y-123758167D01*
X169653294Y-123889321D01*
X169392496Y-124009179D01*
X169139747Y-124103357D01*
X168867974Y-124177204D01*
X168550104Y-124236074D01*
X168159063Y-124285318D01*
X167667777Y-124330287D01*
X167268426Y-124360735D01*
X166627613Y-124419205D01*
X166081886Y-124493754D01*
X165646135Y-124581725D01*
X165335251Y-124680463D01*
X165253358Y-124720029D01*
X165148472Y-124764175D01*
X165111146Y-124724817D01*
X165134547Y-124580890D01*
X165168378Y-124457971D01*
X165197873Y-124301024D01*
X165233126Y-124025608D01*
X165271385Y-123658563D01*
X165309899Y-123226731D01*
X165345917Y-122756950D01*
X165352581Y-122660779D01*
X165392744Y-122137868D01*
X165438513Y-121655291D01*
X165486791Y-121239970D01*
X165534480Y-120918828D01*
X165574466Y-120732126D01*
X165768287Y-120207070D01*
X166026797Y-119722510D01*
X166325061Y-119322238D01*
X166449037Y-119196344D01*
X166760965Y-118970907D01*
X167122549Y-118805579D01*
X167485990Y-118716977D01*
X167803488Y-118721718D01*
X167810238Y-118723136D01*
X168260505Y-118879352D01*
X168597773Y-119125131D01*
X168817885Y-119453383D01*
X168916684Y-119857024D01*
X168890012Y-120328966D01*
X168852587Y-120499974D01*
X168793063Y-120735096D01*
X168751326Y-120905262D01*
X168736963Y-120970626D01*
X168799033Y-120959710D01*
X168959330Y-120911353D01*
X169119055Y-120857954D01*
X169610500Y-120744394D01*
X170046395Y-120757040D01*
X170416736Y-120891225D01*
X170711522Y-121142279D01*
X170920753Y-121505533D01*
X170991155Y-121731910D01*
X171027393Y-122180849D01*
X171701314Y-122180849D01*
X171720763Y-121873397D01*
X171640784Y-121431570D01*
X171481958Y-121095873D01*
X171161769Y-120728348D01*
X170775810Y-120489314D01*
X170329986Y-120380575D01*
X169830205Y-120403934D01*
X169489603Y-120487507D01*
X169041384Y-120629020D01*
X169150324Y-120329410D01*
X169229217Y-120010188D01*
X169262012Y-119648656D01*
X169248491Y-119298510D01*
X169188440Y-119013447D01*
X169155926Y-118938109D01*
X168963687Y-118668395D01*
X168691142Y-118399683D01*
X168393973Y-118184889D01*
X168322096Y-118145684D01*
X168048156Y-118062795D01*
X167700556Y-118032332D01*
X167341575Y-118054683D01*
X167033492Y-118130236D01*
X167015422Y-118137536D01*
X166836323Y-118207710D01*
X166719651Y-118244909D01*
X166706802Y-118246705D01*
X166666029Y-118182154D01*
X166610071Y-118015422D01*
X166566909Y-117848624D01*
X166331800Y-117021382D01*
X166012188Y-116219914D01*
X165592545Y-115409255D01*
X165199438Y-114768986D01*
X165032438Y-114506015D01*
X164900763Y-114286348D01*
X164821776Y-114139646D01*
X164806877Y-114098309D01*
X164851317Y-114008364D01*
X164960058Y-113862155D01*
X165096237Y-113702714D01*
X165222987Y-113573071D01*
X165303442Y-113516255D01*
X165305677Y-113516097D01*
X165344074Y-113578904D01*
X165363811Y-113707560D01*
X165432934Y-113940780D01*
X165587868Y-114177779D01*
X165776928Y-114347380D01*
X165897845Y-114384074D01*
X165972304Y-114316619D01*
X166027134Y-114147992D01*
X166040042Y-113926395D01*
X166012496Y-113719278D01*
X165956791Y-113603381D01*
X165941450Y-113540920D01*
X166035367Y-113512592D01*
X166207022Y-113515539D01*
X166424894Y-113546907D01*
X166657460Y-113603839D01*
X166873198Y-113683479D01*
X166881089Y-113687123D01*
X167161236Y-113834235D01*
X167329877Y-113979938D01*
X167415196Y-114163738D01*
X167445378Y-114425137D01*
X167447059Y-114480378D01*
X167392661Y-114902719D01*
X167212494Y-115257872D01*
X166912844Y-115533830D01*
X166887025Y-115550200D01*
X166605599Y-115676731D01*
X166371242Y-115691128D01*
X166203451Y-115598967D01*
X166121726Y-115405827D01*
X166116906Y-115329886D01*
X166168605Y-115123898D01*
X166301899Y-114999926D01*
X166453081Y-114983818D01*
X166584022Y-115054134D01*
X166586980Y-115178030D01*
X166470555Y-115329457D01*
X166367716Y-115477525D01*
X166387855Y-115582150D01*
X166509046Y-115613679D01*
X166650424Y-115572727D01*
X166809816Y-115428649D01*
X166882636Y-115212381D01*
X166859694Y-114975016D01*
X166784487Y-114827335D01*
X166582453Y-114656337D01*
X166345158Y-114618495D01*
X166096294Y-114713881D01*
X165961355Y-114824870D01*
X165820483Y-114984420D01*
X165763610Y-115128843D01*
X165766570Y-115329576D01*
X165772322Y-115383709D01*
X165865499Y-115756381D01*
X166038835Y-116014643D01*
X166277983Y-116154791D01*
X166568596Y-116173122D01*
X166896325Y-116065930D01*
X167246824Y-115829512D01*
X167304307Y-115779221D01*
X167619763Y-115419469D01*
X167825980Y-115022747D01*
X167919083Y-114613327D01*
X167895199Y-114215482D01*
X167750454Y-113853485D01*
X167636323Y-113698921D01*
X167416215Y-113448231D01*
X167680020Y-113216607D01*
X167870447Y-113023594D01*
X168019339Y-112825468D01*
X168105579Y-112655850D01*
X168108045Y-112548360D01*
X168103306Y-112542752D01*
X167982458Y-112502816D01*
X167772727Y-112499223D01*
X167525118Y-112528079D01*
X167290633Y-112585489D01*
X167225447Y-112609777D01*
X167003485Y-112724135D01*
X166814483Y-112856039D01*
X166795792Y-112872792D01*
X166699059Y-112951390D01*
X166596208Y-112986979D01*
X166443844Y-112984023D01*
X166198571Y-112946986D01*
X166152335Y-112938984D01*
X165887062Y-112901315D01*
X165667373Y-112885335D01*
X165547222Y-112893438D01*
X165491235Y-112896538D01*
X165455463Y-112846719D01*
X165435519Y-112719625D01*
X165427015Y-112490899D01*
X165425502Y-112217676D01*
X165423711Y-111994017D01*
X165023699Y-111994017D01*
X165010431Y-112325118D01*
X164963965Y-112669673D01*
X164891352Y-112965580D01*
X164844068Y-113082658D01*
X164718345Y-113300665D01*
X164589099Y-113478558D01*
X164485013Y-113578842D01*
X164456877Y-113588825D01*
X164393341Y-113538316D01*
X164267969Y-113408169D01*
X164158844Y-113285199D01*
X163937835Y-113024283D01*
X163807116Y-112856862D01*
X163758104Y-112769607D01*
X163782211Y-112749192D01*
X163820900Y-112760607D01*
X163916984Y-112762033D01*
X163927994Y-112674679D01*
X163860205Y-112523091D01*
X163719894Y-112331814D01*
X163707647Y-112317719D01*
X163516203Y-112138787D01*
X163332780Y-112066034D01*
X163251553Y-112060458D01*
X163161815Y-112049886D01*
X163065054Y-112008912D01*
X162945543Y-111923650D01*
X162787554Y-111780214D01*
X162575360Y-111564720D01*
X162293233Y-111263280D01*
X162055798Y-111004728D01*
X161090260Y-109948997D01*
X161243076Y-109785673D01*
X161384526Y-109611153D01*
X161530999Y-109397386D01*
X161549267Y-109367622D01*
X161648951Y-109202974D01*
X161711305Y-109101687D01*
X161718788Y-109090173D01*
X161786023Y-109111476D01*
X161955803Y-109186666D01*
X162201094Y-109303324D01*
X162443419Y-109423121D01*
X163151902Y-109778789D01*
X162909845Y-109879052D01*
X162698953Y-109991708D01*
X162485732Y-110145016D01*
X162307415Y-110307187D01*
X162201235Y-110446429D01*
X162186820Y-110496412D01*
X162252917Y-110563417D01*
X162424834Y-110617548D01*
X162663006Y-110653085D01*
X162927870Y-110664307D01*
X163179863Y-110645493D01*
X163197839Y-110642594D01*
X163417489Y-110575984D01*
X163590191Y-110474157D01*
X163610816Y-110454010D01*
X163729698Y-110347937D01*
X163803603Y-110313753D01*
X163884842Y-110360551D01*
X164038900Y-110484162D01*
X164234741Y-110659414D01*
X164266030Y-110688814D01*
X164465362Y-110880445D01*
X164571128Y-110998502D01*
X164596448Y-111068436D01*
X164554442Y-111115695D01*
X164500930Y-111144477D01*
X164333619Y-111300211D01*
X164218371Y-111546517D01*
X164172404Y-111832640D01*
X164194769Y-112047000D01*
X164271487Y-112229812D01*
X164369081Y-112312108D01*
X164458645Y-112282472D01*
X164505259Y-112169627D01*
X164569551Y-112024679D01*
X164695793Y-111841261D01*
X164741216Y-111786794D01*
X164949291Y-111549520D01*
X164996715Y-111738472D01*
X165023699Y-111994017D01*
X165423711Y-111994017D01*
X165422829Y-111883879D01*
X165409359Y-111657266D01*
X165376915Y-111499485D01*
X165317318Y-111372185D01*
X165222391Y-111237015D01*
X165214066Y-111226075D01*
X165089446Y-111048807D01*
X165048558Y-110932781D01*
X165078711Y-110830200D01*
X165099610Y-110795064D01*
X165274134Y-110491006D01*
X165365245Y-110255316D01*
X165388664Y-110073059D01*
X165374603Y-109909953D01*
X165338785Y-109696922D01*
X165291560Y-109480534D01*
X165243280Y-109307359D01*
X165204295Y-109223964D01*
X165199503Y-109222063D01*
X165139299Y-109270822D01*
X165016051Y-109394926D01*
X164935221Y-109481549D01*
X164697708Y-109741034D01*
X164722181Y-109261667D01*
X164725714Y-108958781D01*
X164692612Y-108742631D01*
X164613230Y-108556917D01*
X164596441Y-108527708D01*
X164456297Y-108239551D01*
X164344686Y-107916170D01*
X164274401Y-107605763D01*
X164258234Y-107356527D01*
X164268166Y-107290895D01*
X164287790Y-107151393D01*
X164240172Y-107119640D01*
X164216719Y-107125634D01*
X164117326Y-107205980D01*
X164041809Y-107381383D01*
X163988225Y-107663379D01*
X163954630Y-108063505D01*
X163939082Y-108593300D01*
X163937633Y-108782787D01*
X163934931Y-109208455D01*
X163928984Y-109507134D01*
X163917601Y-109697393D01*
X163898595Y-109797798D01*
X163869777Y-109826916D01*
X163828957Y-109803315D01*
X163818512Y-109793256D01*
X163750738Y-109698147D01*
X163744160Y-109575520D01*
X163793678Y-109377257D01*
X163844182Y-109130501D01*
X163833351Y-108879649D01*
X163797723Y-108694295D01*
X163720941Y-108391436D01*
X163650933Y-108216411D01*
X163576345Y-108152629D01*
X163485823Y-108183498D01*
X163461207Y-108202531D01*
X163272463Y-108442161D01*
X163150131Y-108772315D01*
X163117117Y-108995429D01*
X163096714Y-109174920D01*
X163070006Y-109268794D01*
X163060172Y-109273039D01*
X162980307Y-109232380D01*
X162808537Y-109147963D01*
X162611676Y-109052403D01*
X162199570Y-108853333D01*
X162195538Y-108731409D01*
X161084302Y-108731409D01*
X160816793Y-109002231D01*
X160657964Y-109157220D01*
X160541425Y-109260326D01*
X160505979Y-109283947D01*
X160430937Y-109244343D01*
X160330542Y-109148837D01*
X160243845Y-109036824D01*
X160228652Y-108985084D01*
X160296435Y-108929620D01*
X160431147Y-108811120D01*
X160494180Y-108754421D01*
X160651211Y-108624833D01*
X160760712Y-108585203D01*
X160875810Y-108620347D01*
X160906885Y-108636458D01*
X161084302Y-108731409D01*
X162195538Y-108731409D01*
X162173773Y-108073371D01*
X162156711Y-107699668D01*
X162128908Y-107427425D01*
X162081866Y-107212560D01*
X162007086Y-107010991D01*
X161942016Y-106871211D01*
X161824638Y-106658901D01*
X161719221Y-106516787D01*
X161652126Y-106476299D01*
X161533412Y-106585196D01*
X161442557Y-106803880D01*
X161382656Y-107098699D01*
X161356806Y-107436005D01*
X161368101Y-107782145D01*
X161419638Y-108103470D01*
X161484137Y-108302301D01*
X161603989Y-108583399D01*
X161404144Y-108452091D01*
X161224904Y-108336519D01*
X160989872Y-108187692D01*
X160858596Y-108105530D01*
X160670067Y-107980755D01*
X160545479Y-107884116D01*
X160515209Y-107846571D01*
X160556241Y-107760907D01*
X160624378Y-107661591D01*
X160690032Y-107503016D01*
X160726733Y-107274524D01*
X160729634Y-107188525D01*
X160705170Y-106965138D01*
X160643718Y-106717228D01*
X160560332Y-106486012D01*
X160470070Y-106312707D01*
X160387985Y-106238527D01*
X160382461Y-106238109D01*
X160304099Y-106299941D01*
X160199637Y-106457261D01*
X160090006Y-106667806D01*
X159996134Y-106889312D01*
X159938952Y-107079516D01*
X159930659Y-107150425D01*
X159926364Y-107262896D01*
X159899008Y-107284619D01*
X159826883Y-107205900D01*
X159730563Y-107075072D01*
X159253316Y-107075072D01*
X158882389Y-107049865D01*
X158656992Y-107024307D01*
X158507173Y-106963883D01*
X158374256Y-106835327D01*
X158272622Y-106704163D01*
X158033783Y-106383668D01*
X158248475Y-106383668D01*
X158440934Y-106370635D01*
X158566951Y-106343842D01*
X158673257Y-106378155D01*
X158834514Y-106531991D01*
X158962025Y-106689544D01*
X159253316Y-107075072D01*
X159730563Y-107075072D01*
X159715205Y-107054212D01*
X159499750Y-106756785D01*
X159704775Y-106537305D01*
X159836579Y-106353498D01*
X159949672Y-106122548D01*
X160029226Y-105887697D01*
X160060412Y-105692188D01*
X160032123Y-105582667D01*
X159920701Y-105563268D01*
X159742206Y-105618021D01*
X159538677Y-105724740D01*
X159352158Y-105861239D01*
X159224691Y-106005332D01*
X159221788Y-106010288D01*
X159098766Y-106224642D01*
X158907855Y-105891313D01*
X158716944Y-105557985D01*
X158761468Y-105518892D01*
X158215635Y-105518892D01*
X158193096Y-105585752D01*
X158120200Y-105616620D01*
X157966899Y-105703276D01*
X157854766Y-105803291D01*
X157743593Y-105909235D01*
X157681414Y-105944153D01*
X157618027Y-105888989D01*
X157498380Y-105749037D01*
X157383382Y-105600821D01*
X157200567Y-105356628D01*
X157017550Y-105112437D01*
X156935607Y-105003229D01*
X156802766Y-104826314D01*
X153464914Y-104826314D01*
X153401033Y-104917429D01*
X153271488Y-105092191D01*
X153099716Y-105319144D01*
X153022696Y-105419757D01*
X152628487Y-105933018D01*
X152347159Y-105746844D01*
X152187256Y-105621155D01*
X152102841Y-105514916D01*
X152099254Y-105480908D01*
X152136835Y-105371858D01*
X152199758Y-105171553D01*
X152256948Y-104981892D01*
X152331923Y-104751624D01*
X152390929Y-104640611D01*
X152449641Y-104626031D01*
X152485460Y-104649151D01*
X152609966Y-104695488D01*
X152828762Y-104728882D01*
X153051312Y-104740897D01*
X153321831Y-104754143D01*
X153453878Y-104786947D01*
X153464914Y-104826314D01*
X156802766Y-104826314D01*
X156742559Y-104746132D01*
X157203650Y-104740897D01*
X157464705Y-104724279D01*
X157675023Y-104686341D01*
X157774535Y-104644542D01*
X157847659Y-104607914D01*
X157902241Y-104662549D01*
X157959313Y-104832630D01*
X157968991Y-104868115D01*
X158046418Y-105114239D01*
X158133576Y-105334667D01*
X158154621Y-105378229D01*
X158215635Y-105518892D01*
X158761468Y-105518892D01*
X158958049Y-105346292D01*
X159185929Y-105058023D01*
X159324608Y-104722027D01*
X159393456Y-104498772D01*
X159444018Y-104340684D01*
X159462618Y-104288536D01*
X159529255Y-104299908D01*
X159667220Y-104355118D01*
X159859446Y-104405567D01*
X160082934Y-104373324D01*
X160128946Y-104359854D01*
X160319870Y-104314807D01*
X160444087Y-104337296D01*
X160550233Y-104419516D01*
X160817923Y-104580892D01*
X161125362Y-104604182D01*
X161448299Y-104496877D01*
X161641881Y-104371823D01*
X161743628Y-104250607D01*
X161751137Y-104217002D01*
X161770868Y-104041652D01*
X161781474Y-103992873D01*
X161447978Y-103992873D01*
X161385848Y-104139763D01*
X161343861Y-104177281D01*
X161220404Y-104253749D01*
X161108304Y-104263253D01*
X160938354Y-104209822D01*
X160917919Y-104202088D01*
X160772536Y-104113093D01*
X160730600Y-104020705D01*
X160792856Y-103962287D01*
X160913181Y-103964136D01*
X161052993Y-103965264D01*
X161095046Y-103882801D01*
X161095129Y-103876202D01*
X161143090Y-103783555D01*
X161258139Y-103776743D01*
X161401457Y-103853402D01*
X161447978Y-103992873D01*
X161781474Y-103992873D01*
X161794256Y-103934093D01*
X161780708Y-103753268D01*
X161660859Y-103607032D01*
X161472177Y-103507215D01*
X161252130Y-103465646D01*
X161038185Y-103494155D01*
X160867810Y-103604570D01*
X160844528Y-103634245D01*
X160769033Y-103733635D01*
X160737800Y-103723587D01*
X160732808Y-103619506D01*
X160295223Y-103619506D01*
X160259552Y-103803115D01*
X160118611Y-103929797D01*
X159879681Y-103973774D01*
X159800319Y-103968240D01*
X159639299Y-103897903D01*
X159568886Y-103765470D01*
X159611312Y-103619727D01*
X159631246Y-103597236D01*
X159742373Y-103561515D01*
X159897532Y-103619798D01*
X160039965Y-103681528D01*
X160117795Y-103659561D01*
X160150049Y-103616350D01*
X160163655Y-103481895D01*
X160066149Y-103357807D01*
X159890714Y-103273591D01*
X159742713Y-103254155D01*
X159490928Y-103317484D01*
X159312160Y-103488468D01*
X159227969Y-103738606D01*
X159233690Y-103927153D01*
X159252017Y-104107091D01*
X159220421Y-104185102D01*
X159143072Y-104200286D01*
X159013141Y-104245799D01*
X158830700Y-104361883D01*
X158723731Y-104447383D01*
X158556069Y-104587929D01*
X158463733Y-104640620D01*
X158413609Y-104614701D01*
X158381413Y-104542956D01*
X158350649Y-104396022D01*
X158324603Y-104155104D01*
X158308818Y-103871777D01*
X158308634Y-103865669D01*
X158305836Y-103581105D01*
X158324799Y-103397115D01*
X158375607Y-103269178D01*
X158468347Y-103152779D01*
X158470714Y-103150247D01*
X158765593Y-102931454D01*
X159105485Y-102842817D01*
X159471097Y-102883910D01*
X159843140Y-103054306D01*
X160021634Y-103184617D01*
X160218344Y-103404747D01*
X160295223Y-103619506D01*
X160732808Y-103619506D01*
X160731288Y-103587820D01*
X160731233Y-103539847D01*
X160702906Y-103346253D01*
X160599055Y-103170609D01*
X160458310Y-103021914D01*
X160048573Y-102699910D01*
X159620652Y-102491789D01*
X159194473Y-102400634D01*
X158789961Y-102429525D01*
X158427043Y-102581543D01*
X158287850Y-102686313D01*
X158021362Y-102971072D01*
X157873451Y-103273712D01*
X157821107Y-103645084D01*
X157820058Y-103720177D01*
X157820058Y-104120649D01*
X157461941Y-104078235D01*
X157199267Y-104066215D01*
X156983446Y-104116517D01*
X156782370Y-104215487D01*
X156460914Y-104395151D01*
X155812263Y-103497381D01*
X155585405Y-103186781D01*
X155388292Y-102923291D01*
X155236456Y-102727176D01*
X155145428Y-102618699D01*
X155127221Y-102603658D01*
X155074469Y-102661121D01*
X154953157Y-102816822D01*
X154778788Y-103050169D01*
X154566866Y-103340571D01*
X154448600Y-103505017D01*
X153806368Y-104402328D01*
X153478493Y-104219075D01*
X153231551Y-104102671D01*
X153012475Y-104063955D01*
X152810696Y-104076057D01*
X152470774Y-104116292D01*
X152453200Y-103715726D01*
X152447220Y-103665308D01*
X151975929Y-103665308D01*
X151966408Y-104070448D01*
X151959138Y-104165167D01*
X151906732Y-104794293D01*
X151642908Y-104538013D01*
X151448503Y-104371215D01*
X151260442Y-104244315D01*
X151192732Y-104211665D01*
X151069808Y-104144751D01*
X151028161Y-104036910D01*
X151037463Y-103875352D01*
X151008913Y-103602323D01*
X150874451Y-103395656D01*
X150665570Y-103277075D01*
X150413760Y-103268305D01*
X150246219Y-103329495D01*
X150128301Y-103445411D01*
X150116178Y-103578458D01*
X150181412Y-103656412D01*
X150293816Y-103655690D01*
X150362434Y-103616175D01*
X150512607Y-103558904D01*
X150633795Y-103615818D01*
X150676704Y-103760931D01*
X150674589Y-103780736D01*
X150596426Y-103919961D01*
X150443563Y-103981266D01*
X150261618Y-103968655D01*
X150177880Y-103926876D01*
X149595989Y-103926876D01*
X149537388Y-104054356D01*
X149400167Y-104183345D01*
X149242200Y-104264785D01*
X149187571Y-104273066D01*
X149072137Y-104230623D01*
X148944584Y-104145065D01*
X148830327Y-103993984D01*
X148835139Y-103890337D01*
X148922475Y-103794130D01*
X149044429Y-103766714D01*
X149140001Y-103811392D01*
X149159313Y-103872779D01*
X149214331Y-103959823D01*
X149340572Y-103976659D01*
X149479811Y-103919649D01*
X149508654Y-103894613D01*
X149579423Y-103851113D01*
X149595989Y-103926876D01*
X150177880Y-103926876D01*
X150096210Y-103886129D01*
X149992956Y-103737691D01*
X149988087Y-103720507D01*
X149980387Y-103586455D01*
X150044439Y-103449620D01*
X150200681Y-103268558D01*
X150221640Y-103246959D01*
X150556351Y-102989614D01*
X150921124Y-102858342D01*
X151291630Y-102857053D01*
X151643542Y-102989658D01*
X151679968Y-103012519D01*
X151838591Y-103160628D01*
X151935284Y-103370129D01*
X151975929Y-103665308D01*
X152447220Y-103665308D01*
X152419567Y-103432174D01*
X152353879Y-103162857D01*
X152312886Y-103056504D01*
X152127845Y-102804181D01*
X151852260Y-102585180D01*
X151538409Y-102432999D01*
X151258396Y-102380802D01*
X150923559Y-102423934D01*
X150923559Y-102423934D01*
G37*
X150923559Y-102423934D02*
X150570575Y-102540951D01*
X150228033Y-102713288D01*
X149924523Y-102922376D01*
X149688635Y-103149649D01*
X149548957Y-103376541D01*
X149523210Y-103507687D01*
X149515393Y-103646774D01*
X149471599Y-103659952D01*
X149390115Y-103592942D01*
X149196448Y-103497295D01*
X148954635Y-103476941D01*
X148730403Y-103530793D01*
X148624747Y-103605587D01*
X148516138Y-103823191D01*
X148510393Y-104078823D01*
X148602419Y-104312882D01*
X148693630Y-104411429D01*
X149004811Y-104580439D01*
X149318694Y-104611143D01*
X149614885Y-104504150D01*
X149770510Y-104379265D01*
X149870209Y-104311374D01*
X150002688Y-104309197D01*
X150165739Y-104350703D01*
X150393717Y-104398021D01*
X150560234Y-104371853D01*
X150610401Y-104348253D01*
X150739444Y-104291145D01*
X150793270Y-104285364D01*
X150824935Y-104362098D01*
X150885842Y-104535743D01*
X150943533Y-104709742D01*
X151097369Y-105052447D01*
X151301362Y-105326163D01*
X151317518Y-105341934D01*
X151561583Y-105573840D01*
X151402600Y-105851390D01*
X151301135Y-106026548D01*
X151233155Y-106140253D01*
X151221395Y-106158245D01*
X151167358Y-106127882D01*
X151063841Y-106015108D01*
X151045716Y-105992461D01*
X150893784Y-105844482D01*
X150693229Y-105704449D01*
X150486915Y-105595978D01*
X150317704Y-105542685D01*
X150244246Y-105550881D01*
X150203606Y-105653539D01*
X150225679Y-105840468D01*
X150295717Y-106072702D01*
X150398968Y-106311278D01*
X150520685Y-106517229D01*
X150646117Y-106651593D01*
X150665551Y-106663848D01*
X150731548Y-106716903D01*
X150730413Y-106792554D01*
X150653829Y-106928026D01*
X150583385Y-107031647D01*
X150462244Y-107202417D01*
X150380338Y-107310294D01*
X150361350Y-107329799D01*
X150348652Y-107266471D01*
X150339818Y-107114689D01*
X150306011Y-106958418D01*
X150225657Y-106750902D01*
X150120423Y-106534927D01*
X150011978Y-106353280D01*
X149921990Y-106248746D01*
X149895883Y-106238109D01*
X149806304Y-106303859D01*
X149710905Y-106476059D01*
X149624938Y-106717133D01*
X149563653Y-106989506D01*
X149550445Y-107089175D01*
X149532508Y-107348510D01*
X149550139Y-107505596D01*
X149608952Y-107600630D01*
X149623695Y-107613710D01*
X149720604Y-107732895D01*
X149741548Y-107801099D01*
X149686214Y-107869343D01*
X149542750Y-107992392D01*
X149344960Y-108145562D01*
X149126648Y-108304163D01*
X148921620Y-108443511D01*
X148763680Y-108538918D01*
X148692697Y-108567049D01*
X148700843Y-108510343D01*
X148761062Y-108370051D01*
X148780606Y-108330516D01*
X148856076Y-108102421D01*
X148896959Y-107809808D01*
X148906050Y-107484239D01*
X148886146Y-107157276D01*
X148840042Y-106860483D01*
X148770536Y-106625420D01*
X148680424Y-106483652D01*
X148614577Y-106456447D01*
X148541003Y-106517846D01*
X148434149Y-106679011D01*
X148316837Y-106905396D01*
X148314094Y-106911318D01*
X148214598Y-107142607D01*
X148152362Y-107344609D01*
X148118899Y-107565211D01*
X148105720Y-107852300D01*
X148104012Y-108096567D01*
X148104012Y-108826946D01*
X147194270Y-109278870D01*
X147194270Y-109082808D01*
X147163587Y-108910313D01*
X147085102Y-108689215D01*
X146979165Y-108460918D01*
X146866122Y-108266829D01*
X146766322Y-108148353D01*
X146726214Y-108130372D01*
X146646476Y-108196810D01*
X146574981Y-108370831D01*
X146516728Y-108614493D01*
X146476715Y-108889857D01*
X146459940Y-109158983D01*
X146471401Y-109383931D01*
X146516096Y-109526759D01*
X146539255Y-109549570D01*
X146607799Y-109639407D01*
X146534404Y-109741589D01*
X146484671Y-109775523D01*
X146434689Y-109797316D01*
X146399506Y-109776863D01*
X146376285Y-109693971D01*
X146362190Y-109528448D01*
X146354382Y-109260102D01*
X146350027Y-108868742D01*
X146349614Y-108814233D01*
X146336290Y-108313102D01*
X146305866Y-107876024D01*
X146260967Y-107521062D01*
X146204219Y-107266281D01*
X146138247Y-107129745D01*
X146102133Y-107111461D01*
X146066738Y-107177174D01*
X146032976Y-107346441D01*
X146015172Y-107505210D01*
X145929015Y-107916606D01*
X145743976Y-108364038D01*
X145741924Y-108368047D01*
X145612846Y-108636349D01*
X145544827Y-108842130D01*
X145523855Y-109047580D01*
X145534114Y-109290392D01*
X145566899Y-109743649D01*
X145331314Y-109464661D01*
X145095728Y-109185673D01*
X145026191Y-109367622D01*
X144901458Y-109812205D01*
X144897565Y-110189792D01*
X145015738Y-110516327D01*
X145126364Y-110671872D01*
X145302287Y-110880944D01*
X144775205Y-111660172D01*
X144817994Y-112278796D01*
X144860782Y-112897421D01*
X144444575Y-112909888D01*
X144175962Y-112929855D01*
X143938587Y-112967520D01*
X143836325Y-112995981D01*
X143687484Y-113030050D01*
X143567720Y-112976566D01*
X143472428Y-112883160D01*
X143276321Y-112718001D01*
X143066378Y-112596924D01*
X142870897Y-112539332D01*
X142640446Y-112506640D01*
X142418408Y-112499926D01*
X142248165Y-112520269D01*
X142173099Y-112568748D01*
X142172493Y-112574699D01*
X142219541Y-112738587D01*
X142338685Y-112941059D01*
X142496923Y-113141065D01*
X142661254Y-113297557D01*
X142798677Y-113369486D01*
X142812274Y-113370487D01*
X142839918Y-113415521D01*
X142758452Y-113545852D01*
X142697193Y-113618972D01*
X142459588Y-113962234D01*
X142355673Y-114314953D01*
X142375926Y-114712616D01*
X142387765Y-114772200D01*
X142563746Y-115267338D01*
X142861251Y-115683650D01*
X143128621Y-115916639D01*
X143486913Y-116122866D01*
X143801376Y-116190420D01*
X144072545Y-116119258D01*
X144300959Y-115909341D01*
X144359497Y-115822146D01*
X144487987Y-115497247D01*
X144486008Y-115179304D01*
X144355585Y-114896981D01*
X144288693Y-114820476D01*
X144043258Y-114648178D01*
X143796169Y-114621257D01*
X143571495Y-114721032D01*
X143452019Y-114872012D01*
X143406641Y-115074909D01*
X143426714Y-115289621D01*
X143503590Y-115476046D01*
X143628622Y-115594080D01*
X143763443Y-115611252D01*
X143866435Y-115546217D01*
X143907312Y-115440747D01*
X143874934Y-115353993D01*
X143815366Y-115335530D01*
X143722330Y-115272857D01*
X143700860Y-115148747D01*
X143721836Y-115015668D01*
X143814929Y-114978964D01*
X143901003Y-114984994D01*
X144043794Y-115026212D01*
X144107666Y-115136818D01*
X144124307Y-115249310D01*
X144103886Y-115505186D01*
X143995452Y-115658238D01*
X143816488Y-115705931D01*
X143584482Y-115645726D01*
X143316917Y-115475087D01*
X143210726Y-115381867D01*
X143023697Y-115194886D01*
X142918916Y-115044105D01*
X142867942Y-114871200D01*
X142843055Y-114627868D01*
X142838713Y-114363742D01*
X142860975Y-114142738D01*
X142891017Y-114042822D01*
X143029626Y-113896300D01*
X143265455Y-113749181D01*
X143551834Y-113622845D01*
X143842092Y-113538674D01*
X144040856Y-113516046D01*
X144233483Y-113520968D01*
X144311504Y-113552226D01*
X144305863Y-113634559D01*
X144279681Y-113706975D01*
X144242604Y-113896692D01*
X144250320Y-114105517D01*
X144294556Y-114284008D01*
X144367036Y-114382724D01*
X144393894Y-114389398D01*
X144513709Y-114330419D01*
X144659906Y-114182420D01*
X144798451Y-113988810D01*
X144895307Y-113792996D01*
X144914404Y-113725549D01*
X144966686Y-113590573D01*
X145052989Y-113576178D01*
X145183922Y-113686009D01*
X145329755Y-113868230D01*
X145505983Y-114107094D01*
X145110172Y-114703117D01*
X144624657Y-115505517D01*
X144221521Y-116319425D01*
X143918789Y-117107134D01*
X143846284Y-117346729D01*
X143644556Y-118064756D01*
X143299715Y-118039650D01*
X142803875Y-118064733D01*
X142364712Y-118221171D01*
X141965566Y-118515038D01*
X141946766Y-118533053D01*
X141684991Y-118839747D01*
X141527223Y-119165530D01*
X141469451Y-119534896D01*
X141507664Y-119972337D01*
X141629086Y-120472823D01*
X141673818Y-120624728D01*
X141096507Y-120476407D01*
X140785424Y-120402597D01*
X140566473Y-120370425D01*
X140393335Y-120376604D01*
X140229508Y-120414879D01*
X139781992Y-120617640D01*
X139428640Y-120917324D01*
X139178263Y-121292949D01*
X139039666Y-121723534D01*
X139021659Y-122188097D01*
X139133050Y-122665656D01*
X139209907Y-122843660D01*
X139500997Y-123290776D01*
X139909858Y-123707058D01*
X140409026Y-124071376D01*
X140971037Y-124362597D01*
X141371920Y-124507151D01*
X141623430Y-124565290D01*
X141979549Y-124625862D01*
X142399515Y-124683927D01*
X142842567Y-124734547D01*
X143267942Y-124772781D01*
X143634878Y-124793690D01*
X143756360Y-124796097D01*
X143834785Y-124801958D01*
X143866608Y-124836184D01*
X143846870Y-124925108D01*
X143770613Y-125095064D01*
X143656854Y-125324498D01*
X143533433Y-125570159D01*
X143438141Y-125758214D01*
X143387020Y-125857066D01*
X143382700Y-125864595D01*
X143312806Y-125854162D01*
X143135446Y-125815513D01*
X142884268Y-125756115D01*
X142790802Y-125733206D01*
X142151820Y-125622752D01*
X141477549Y-125589202D01*
X140828256Y-125633436D01*
X140469166Y-125699238D01*
X140120459Y-125793792D01*
X139804506Y-125900337D01*
X139549536Y-126007235D01*
X139383777Y-126102845D01*
X139334098Y-126167300D01*
X139399033Y-126217208D01*
X139564063Y-126266653D01*
X139674767Y-126286995D01*
X139936493Y-126336971D01*
X140223882Y-126408429D01*
X140502067Y-126490412D01*
X140736181Y-126571959D01*
X140891357Y-126642112D01*
X140935244Y-126683185D01*
X140881716Y-126755221D01*
X140741395Y-126885396D01*
X140544939Y-127045308D01*
X140255383Y-127284550D01*
X139974106Y-127544752D01*
X139721897Y-127803343D01*
X139519548Y-128037753D01*
X139387846Y-128225409D01*
X139347584Y-128343742D01*
X139347806Y-128345002D01*
X139398983Y-128424001D01*
X139535405Y-128477136D01*
X139786227Y-128515347D01*
X139807983Y-128517658D01*
X140058837Y-128566532D01*
X140414626Y-128666919D01*
X140848408Y-128808720D01*
X141333243Y-128981834D01*
X141842191Y-129176162D01*
X142348308Y-129381605D01*
X142824656Y-129588063D01*
X143244292Y-129785436D01*
X143396830Y-129863028D01*
X144075321Y-130218208D01*
X144904718Y-130244537D01*
X145539444Y-130238079D01*
X146063561Y-130170026D01*
X146501207Y-130033834D01*
X146876521Y-129822961D01*
X147087280Y-129652949D01*
X147431196Y-129341582D01*
X147436698Y-129236390D01*
X146663005Y-129236390D01*
X146658492Y-129416067D01*
X146646744Y-129483408D01*
X146632686Y-129436533D01*
X146620503Y-129201448D01*
X146622091Y-129179913D01*
X146337771Y-129179913D01*
X146332376Y-129345459D01*
X146309455Y-129608073D01*
X146285316Y-129725881D01*
X146264319Y-129698876D01*
X146250825Y-129527055D01*
X146248498Y-129369818D01*
X146029800Y-129369818D01*
X146018525Y-129581360D01*
X145989609Y-129717760D01*
X145965162Y-129745845D01*
X145931001Y-129681009D01*
X145918155Y-129516645D01*
X145919125Y-129486213D01*
X145738682Y-129486213D01*
X145738682Y-129818625D01*
X145348329Y-129818625D01*
X145028548Y-129803393D01*
X144689018Y-129765131D01*
X144578529Y-129746664D01*
X144358765Y-129687662D01*
X144050288Y-129582139D01*
X143696034Y-129445669D01*
X143378266Y-129311344D01*
X142925615Y-129118852D01*
X142428433Y-128920782D01*
X141913919Y-128726709D01*
X141409271Y-128546210D01*
X140941688Y-128388861D01*
X140538368Y-128264238D01*
X140226509Y-128181917D01*
X140102313Y-128157918D01*
X139734384Y-128103631D01*
X140134671Y-127716447D01*
X140406383Y-127470079D01*
X140713382Y-127215955D01*
X140953439Y-127035032D01*
X141160563Y-126882369D01*
X141310207Y-126758653D01*
X141371703Y-126689353D01*
X141371920Y-126687478D01*
X141312943Y-126585702D01*
X141130636Y-126481014D01*
X140816937Y-126369617D01*
X140522598Y-126287617D01*
X140226304Y-126209834D01*
X140054446Y-126157967D01*
X139990527Y-126121544D01*
X140018046Y-126090089D01*
X140120505Y-126053130D01*
X140142247Y-126046166D01*
X140659492Y-125921574D01*
X141236362Y-125850282D01*
X141827630Y-125833020D01*
X142388070Y-125870515D01*
X142872455Y-125963497D01*
X142990330Y-126000280D01*
X143193429Y-126080163D01*
X143280752Y-126147691D01*
X143277875Y-126225259D01*
X143268672Y-126244048D01*
X143224442Y-126384719D01*
X143183482Y-126609840D01*
X143165033Y-126765175D01*
X143108789Y-127080019D01*
X143010525Y-127409358D01*
X142963399Y-127526074D01*
X142848448Y-127881778D01*
X142802908Y-128256734D01*
X142827028Y-128605795D01*
X142921058Y-128883815D01*
X142955602Y-128937043D01*
X143187192Y-129135321D01*
X143528818Y-129276700D01*
X143955545Y-129358783D01*
X144442440Y-129379170D01*
X144964569Y-129335466D01*
X145496997Y-129225273D01*
X145611318Y-129192391D01*
X145689871Y-129189579D01*
X145727755Y-129264703D01*
X145738558Y-129449107D01*
X145738682Y-129486213D01*
X145919125Y-129486213D01*
X145921442Y-129413539D01*
X145946911Y-129168067D01*
X145978632Y-129054309D01*
X146008150Y-129075677D01*
X146027009Y-129235583D01*
X146029800Y-129369818D01*
X146248498Y-129369818D01*
X146248138Y-129345559D01*
X146257115Y-129126293D01*
X146280270Y-128980857D01*
X146302722Y-128945173D01*
X146328483Y-129010705D01*
X146337771Y-129179913D01*
X146622091Y-129179913D01*
X146632686Y-129036246D01*
X146648552Y-128991095D01*
X146659526Y-129073751D01*
X146663005Y-129236390D01*
X147436698Y-129236390D01*
X147468626Y-128625983D01*
X147484415Y-128324120D01*
X147328824Y-128324120D01*
X147311669Y-128465326D01*
X147264940Y-128578542D01*
X147171434Y-128617152D01*
X146994467Y-128604040D01*
X146746982Y-128608756D01*
X146395118Y-128669386D01*
X146066190Y-128752622D01*
X145755512Y-128838127D01*
X145479537Y-128910128D01*
X145281246Y-128957571D01*
X145229227Y-128967894D01*
X144797448Y-129005506D01*
X144325134Y-128992034D01*
X143889231Y-128931017D01*
X143764821Y-128900583D01*
X143485920Y-128797605D01*
X143319579Y-128681852D01*
X143278248Y-128564449D01*
X143316466Y-128499982D01*
X143409047Y-128447532D01*
X143598694Y-128363428D01*
X143845510Y-128265290D01*
X143861685Y-128259183D01*
X144271050Y-128140748D01*
X144797024Y-128045029D01*
X145411948Y-127975396D01*
X146088165Y-127935219D01*
X146592453Y-127926422D01*
X146908033Y-127928134D01*
X147107644Y-127938340D01*
X147220874Y-127964540D01*
X147277311Y-128014236D01*
X147306541Y-128094926D01*
X147309942Y-128108309D01*
X147328824Y-128324120D01*
X147484415Y-128324120D01*
X147506057Y-127910383D01*
X148272485Y-127962622D01*
X148641291Y-127998330D01*
X149073709Y-128060822D01*
X149585699Y-128153150D01*
X150193219Y-128278365D01*
X150912229Y-128439517D01*
X151542837Y-128587852D01*
X151758367Y-128655176D01*
X151895991Y-128729118D01*
X151924929Y-128772009D01*
X151877096Y-128862850D01*
X151749165Y-129027149D01*
X151564488Y-129235965D01*
X151470058Y-129335745D01*
X151258507Y-129549116D01*
X151086311Y-129698111D01*
X150912030Y-129807059D01*
X150694222Y-129900286D01*
X150391447Y-130002121D01*
X150269198Y-130040702D01*
X149939332Y-130146305D01*
X149724391Y-130224463D01*
X149599865Y-130289496D01*
X149541240Y-130355725D01*
X149524005Y-130437470D01*
X149523210Y-130476531D01*
X149523210Y-130678285D01*
X150815043Y-130649361D01*
X151166203Y-130642509D01*
X151640239Y-130634781D01*
X152214474Y-130626472D01*
X152866231Y-130617872D01*
X153572833Y-130609275D01*
X154311603Y-130600973D01*
X155059862Y-130593258D01*
X155470370Y-130589341D01*
X156294049Y-130582479D01*
X156985126Y-130578593D01*
X157556532Y-130577931D01*
X158021198Y-130580743D01*
X158392056Y-130587276D01*
X158682037Y-130597778D01*
X158904072Y-130612499D01*
X159071092Y-130631686D01*
X159196028Y-130655588D01*
X159218507Y-130661331D01*
X159728947Y-130780620D01*
X160313031Y-130887636D01*
X160947735Y-130980724D01*
X161610037Y-131058230D01*
X162276913Y-131118499D01*
X162925340Y-131159876D01*
X163532295Y-131180705D01*
X164074754Y-131179333D01*
X164529695Y-131154103D01*
X164874094Y-131103362D01*
X164976710Y-131075230D01*
X165265371Y-130937439D01*
X165572037Y-130724878D01*
X165855261Y-130473011D01*
X166073596Y-130217301D01*
X166163757Y-130059539D01*
X166230404Y-129822563D01*
X166262054Y-129557619D01*
X166262465Y-129529845D01*
X166274481Y-129346864D01*
X166304526Y-129244873D01*
X166317049Y-129237219D01*
X166405439Y-129257630D01*
X166601151Y-129312105D01*
X166872475Y-129391611D01*
X167099427Y-129460073D01*
X167753123Y-129621346D01*
X168412748Y-129714289D01*
X169035350Y-129735028D01*
X169564107Y-129682337D01*
X169843865Y-129613824D01*
X170120994Y-129519582D01*
X170362865Y-129414256D01*
X170536849Y-129312489D01*
X170610317Y-129228923D01*
X170609386Y-129213256D01*
X170533430Y-129156821D01*
X170357168Y-129076251D01*
X170132517Y-128993768D01*
X169851287Y-128881821D01*
X169591265Y-128747565D01*
X169446343Y-128649054D01*
X169214169Y-128455227D01*
X169539606Y-128290824D01*
X169864647Y-128105778D01*
X170175786Y-127891688D01*
X170453487Y-127666855D01*
X170678214Y-127449578D01*
X170830432Y-127258157D01*
X170853212Y-127202404D01*
X170410889Y-127202404D01*
X170353822Y-127300267D01*
X170202552Y-127450533D01*
X169986971Y-127629532D01*
X169736972Y-127813594D01*
X169482448Y-127979047D01*
X169307111Y-128076415D01*
X169075318Y-128194286D01*
X168899972Y-128286582D01*
X168816891Y-128334423D01*
X168815521Y-128335560D01*
X168829083Y-128408973D01*
X168941993Y-128531185D01*
X169126719Y-128679659D01*
X169355730Y-128831859D01*
X169560039Y-128945027D01*
X169991510Y-129160636D01*
X169782718Y-129241880D01*
X169310214Y-129367978D01*
X168743649Y-129423895D01*
X168116426Y-129409736D01*
X167461950Y-129325605D01*
X167037086Y-129233279D01*
X166392510Y-129069067D01*
X166438292Y-128807026D01*
X166466135Y-128605881D01*
X166497247Y-128317558D01*
X166525440Y-128000128D01*
X166528535Y-127960183D01*
X166533726Y-127507394D01*
X166531104Y-127485384D01*
X166334733Y-127485384D01*
X166325036Y-127827741D01*
X166296986Y-128190000D01*
X166252319Y-128530914D01*
X166222131Y-128690544D01*
X166153320Y-129012543D01*
X166085542Y-129337779D01*
X166040688Y-129559634D01*
X165977949Y-129805325D01*
X165900744Y-130013134D01*
X165866584Y-130076842D01*
X165685807Y-130247951D01*
X165390096Y-130409381D01*
X165010078Y-130551128D01*
X164576376Y-130663193D01*
X164119616Y-130735574D01*
X163781461Y-130757778D01*
X163592188Y-130753434D01*
X163292588Y-130736830D01*
X162917163Y-130710294D01*
X162500412Y-130676151D01*
X162289484Y-130657155D01*
X161817525Y-130613024D01*
X161400994Y-130572423D01*
X161025190Y-130532381D01*
X160675411Y-130489926D01*
X160336956Y-130442087D01*
X159995124Y-130385893D01*
X159635213Y-130318373D01*
X159242524Y-130236555D01*
X158802354Y-130137469D01*
X158300002Y-130018142D01*
X157720767Y-129875605D01*
X157049948Y-129706884D01*
X156272844Y-129509010D01*
X155374754Y-129279012D01*
X155018052Y-129187534D01*
X154008569Y-128928746D01*
X153127481Y-128703651D01*
X152362178Y-128509811D01*
X151700053Y-128344788D01*
X151128495Y-128206146D01*
X150634898Y-128091445D01*
X150206651Y-127998250D01*
X149831146Y-127924122D01*
X149495774Y-127866623D01*
X149187927Y-127823317D01*
X148894996Y-127791765D01*
X148604371Y-127769530D01*
X148303445Y-127754175D01*
X147979608Y-127743261D01*
X147620251Y-127734351D01*
X147485387Y-127731292D01*
X146896164Y-127722327D01*
X146335304Y-127721976D01*
X145831937Y-127729781D01*
X145415194Y-127745288D01*
X145114205Y-127768039D01*
X145110094Y-127768505D01*
X144686605Y-127838262D01*
X144249220Y-127946960D01*
X143834493Y-128082166D01*
X143478977Y-128231451D01*
X143219225Y-128382383D01*
X143159070Y-128432007D01*
X142998961Y-128582422D01*
X143056775Y-128102193D01*
X143106203Y-127811893D01*
X143175791Y-127546065D01*
X143236510Y-127392071D01*
X143314242Y-127176751D01*
X143366517Y-126905094D01*
X143375731Y-126798281D01*
X143416605Y-126554247D01*
X143511568Y-126220997D01*
X143645722Y-125837490D01*
X143804169Y-125442682D01*
X143972011Y-125075530D01*
X144134350Y-124774992D01*
X144172709Y-124714253D01*
X144393893Y-124486918D01*
X144723775Y-124319806D01*
X145173127Y-124208554D01*
X145530539Y-124164465D01*
X145750390Y-124156786D01*
X146084270Y-124159503D01*
X146501135Y-124171108D01*
X146969943Y-124190094D01*
X147459651Y-124214954D01*
X147939217Y-124244179D01*
X148377596Y-124276263D01*
X148743747Y-124309699D01*
X148904585Y-124328310D01*
X149195702Y-124365945D01*
X148940975Y-124136275D01*
X148733046Y-123979616D01*
X148458682Y-123811954D01*
X148245676Y-123702472D01*
X147931060Y-123536366D01*
X147601148Y-123318244D01*
X147566149Y-123290897D01*
X145408469Y-123290897D01*
X145404377Y-123585090D01*
X145386795Y-123784534D01*
X145358325Y-123861211D01*
X145301319Y-123876834D01*
X145254799Y-123834595D01*
X145215759Y-123718768D01*
X145181194Y-123513627D01*
X145148096Y-123203447D01*
X145113458Y-122772502D01*
X145091950Y-122467908D01*
X145030042Y-121790403D01*
X144940590Y-121233646D01*
X144814841Y-120774045D01*
X144644042Y-120388007D01*
X144419441Y-120051941D01*
X144132286Y-119742254D01*
X144053958Y-119670015D01*
X143669143Y-119385384D01*
X143307450Y-119243946D01*
X142969434Y-119245755D01*
X142655651Y-119390866D01*
X142507071Y-119518125D01*
X142266635Y-119856352D01*
X142132036Y-120264477D01*
X142112309Y-120703692D01*
X142165149Y-120986712D01*
X142230584Y-121214870D01*
X141967627Y-121142264D01*
X141540720Y-121084179D01*
X141129556Y-121136847D01*
X140763624Y-121288655D01*
X140472415Y-121527988D01*
X140303005Y-121797863D01*
X140232502Y-122092869D01*
X140273871Y-122399969D01*
X140432316Y-122747652D01*
X140495655Y-122851880D01*
X140830141Y-123264396D01*
X141259219Y-123590042D01*
X141791367Y-123832890D01*
X142435064Y-123997015D01*
X143040897Y-124074782D01*
X143514151Y-124115664D01*
X143859441Y-124149594D01*
X144093982Y-124180165D01*
X144234985Y-124210969D01*
X144299664Y-124245601D01*
X144305233Y-124287651D01*
X144275811Y-124332558D01*
X144153935Y-124386186D01*
X143901517Y-124408336D01*
X143515731Y-124398931D01*
X142993750Y-124357896D01*
X142332747Y-124285154D01*
X142281662Y-124278930D01*
X141679742Y-124148781D01*
X141091421Y-123917995D01*
X140567506Y-123608547D01*
X140368694Y-123451579D01*
X140045947Y-123096092D01*
X139830610Y-122700774D01*
X139721913Y-122288294D01*
X139719091Y-121881322D01*
X139821374Y-121502529D01*
X140027996Y-121174585D01*
X140338190Y-120920161D01*
X140456458Y-120859217D01*
X140754672Y-120755866D01*
X141045687Y-120735276D01*
X141379611Y-120797650D01*
X141589481Y-120863851D01*
X141806303Y-120935245D01*
X141957935Y-120978661D01*
X142005293Y-120985443D01*
X141995548Y-120912996D01*
X141952802Y-120745431D01*
X141915096Y-120615266D01*
X141819843Y-120159897D01*
X141835438Y-119770421D01*
X141963807Y-119416181D01*
X141993685Y-119362862D01*
X142258309Y-119043439D01*
X142608144Y-118841738D01*
X143041755Y-118758519D01*
X143137826Y-118756160D01*
X143614212Y-118825838D01*
X144049818Y-119030882D01*
X144438619Y-119365310D01*
X144774588Y-119823140D01*
X145051699Y-120398391D01*
X145184413Y-120787962D01*
X145233077Y-121008936D01*
X145278670Y-121319276D01*
X145319704Y-121692681D01*
X145354689Y-122102847D01*
X145382137Y-122523473D01*
X145400560Y-122928257D01*
X145408469Y-123290897D01*
X147566149Y-123290897D01*
X147234533Y-123031791D01*
X146809809Y-122660693D01*
X146491652Y-122365618D01*
X146085028Y-121937560D01*
X145814447Y-121549612D01*
X145680972Y-121203461D01*
X145665903Y-121056759D01*
X145642875Y-120892725D01*
X145581948Y-120641302D01*
X145495357Y-120351756D01*
X145477303Y-120297359D01*
X145378266Y-119978380D01*
X145328623Y-119728082D01*
X145319859Y-119481601D01*
X145337567Y-119233058D01*
X145398418Y-118809184D01*
X145502283Y-118298513D01*
X145636813Y-117748866D01*
X145789660Y-117208066D01*
X145948477Y-116723935D01*
X146059236Y-116438128D01*
X146401074Y-115753412D01*
X146872140Y-115002810D01*
X147472095Y-114186770D01*
X148200604Y-113305740D01*
X149057328Y-112360168D01*
X149377651Y-112024166D01*
X149935762Y-111432622D01*
X150527291Y-110782117D01*
X151137976Y-110089985D01*
X151250560Y-109958955D01*
X149165296Y-109958955D01*
X148209041Y-111009707D01*
X147871383Y-111377915D01*
X147613901Y-111650261D01*
X147421098Y-111840578D01*
X147277475Y-111962702D01*
X147167535Y-112030468D01*
X147075779Y-112057710D01*
X147031978Y-112060458D01*
X146830540Y-112107175D01*
X146623654Y-112261801D01*
X146566044Y-112320368D01*
X146394068Y-112533029D01*
X146326634Y-112689183D01*
X146367468Y-112775445D01*
X146435730Y-112788252D01*
X146461427Y-112834838D01*
X146376980Y-112974950D01*
X146217392Y-113169094D01*
X146050405Y-113369515D01*
X145929892Y-113532297D01*
X145881354Y-113622925D01*
X145881283Y-113623965D01*
X145847056Y-113649545D01*
X145764372Y-113575408D01*
X145653036Y-113430401D01*
X145532851Y-113243368D01*
X145423621Y-113043153D01*
X145345150Y-112858602D01*
X145335925Y-112829627D01*
X145239722Y-112353514D01*
X145252601Y-111905200D01*
X145273439Y-111784815D01*
X145317650Y-111563756D01*
X145518347Y-111793912D01*
X145659996Y-111981331D01*
X145758203Y-112155821D01*
X145770157Y-112187822D01*
X145843725Y-112325614D01*
X145926459Y-112341387D01*
X146004330Y-112256823D01*
X146063309Y-112093603D01*
X146089365Y-111873406D01*
X146081613Y-111706501D01*
X146016243Y-111429244D01*
X145878016Y-111232462D01*
X145845713Y-111203195D01*
X145647306Y-111032533D01*
X145856748Y-110812052D01*
X146049096Y-110627135D01*
X146246369Y-110462537D01*
X146271014Y-110444373D01*
X146475838Y-110297176D01*
X146634911Y-110443166D01*
X146915704Y-110602722D01*
X147302269Y-110664000D01*
X147674890Y-110643466D01*
X147927848Y-110596503D01*
X148050429Y-110532428D01*
X148067622Y-110486990D01*
X148007044Y-110348867D01*
X147847923Y-110181104D01*
X147624178Y-110014404D01*
X147422217Y-109902799D01*
X147157880Y-109779179D01*
X147838835Y-109427841D01*
X148174874Y-109256620D01*
X148403217Y-109148152D01*
X148544330Y-109096185D01*
X148618680Y-109094468D01*
X148646733Y-109136747D01*
X148649857Y-109180099D01*
X148691624Y-109291180D01*
X148799510Y-109470144D01*
X148907577Y-109621324D01*
X149165296Y-109958955D01*
X151250560Y-109958955D01*
X151753551Y-109373557D01*
X152050940Y-109018676D01*
X149991537Y-109018676D01*
X149959141Y-109108011D01*
X149915650Y-109168679D01*
X149793651Y-109331232D01*
X149494677Y-109040115D01*
X149329366Y-108869994D01*
X149259795Y-108764573D01*
X149271043Y-108693992D01*
X149304871Y-108660337D01*
X149426707Y-108586727D01*
X149543988Y-108596304D01*
X149697033Y-108699552D01*
X149798624Y-108788721D01*
X149942850Y-108927893D01*
X149991537Y-109018676D01*
X152050940Y-109018676D01*
X152359753Y-108650164D01*
X152914444Y-107971255D01*
X150820917Y-107971255D01*
X150783647Y-108086953D01*
X150746565Y-108168193D01*
X150651933Y-108304121D01*
X150527369Y-108319958D01*
X150510032Y-108315424D01*
X150320220Y-108265942D01*
X150164253Y-108229537D01*
X149968333Y-108186646D01*
X150164253Y-108022476D01*
X150374249Y-107901388D01*
X150596705Y-107893430D01*
X150767251Y-107922603D01*
X150820917Y-107971255D01*
X152914444Y-107971255D01*
X152942318Y-107937140D01*
X153486982Y-107251816D01*
X153979481Y-106611523D01*
X154122136Y-106418022D01*
X152197933Y-106418022D01*
X152167280Y-106477748D01*
X152069059Y-106617150D01*
X151965107Y-106753711D01*
X151806447Y-106941508D01*
X151674358Y-107039028D01*
X151514589Y-107077049D01*
X151382790Y-107084111D01*
X151186183Y-107083752D01*
X151067487Y-107072492D01*
X151051576Y-107064026D01*
X151091617Y-106995024D01*
X151195681Y-106845081D01*
X151315726Y-106681084D01*
X151467854Y-106485745D01*
X151579786Y-106384146D01*
X151695818Y-106351499D01*
X151860247Y-106363018D01*
X151879766Y-106365480D01*
X152069876Y-106392314D01*
X152184915Y-106413504D01*
X152197933Y-106418022D01*
X154122136Y-106418022D01*
X154405550Y-106033595D01*
X154750926Y-105535363D01*
X154873125Y-105346692D01*
X154997756Y-105158686D01*
X155092128Y-105034256D01*
X155127221Y-105003700D01*
X155180231Y-105060943D01*
X155298522Y-105215291D01*
X155465064Y-105443802D01*
X155662821Y-105723535D01*
X155680956Y-105749559D01*
X155942783Y-106118732D01*
X156226052Y-106506218D01*
X156516209Y-106893361D01*
X156798701Y-107261505D01*
X157058973Y-107591995D01*
X157282472Y-107866175D01*
X157454645Y-108065387D01*
X157560936Y-108170977D01*
X157578438Y-108181863D01*
X157675788Y-108156310D01*
X157850678Y-108056481D01*
X158069590Y-107902197D01*
X158128081Y-107856798D01*
X158402883Y-107654118D01*
X158622889Y-107533402D01*
X158834263Y-107471756D01*
X158932578Y-107457863D01*
X159144254Y-107440687D01*
X159261435Y-107465128D01*
X159334086Y-107554955D01*
X159387143Y-107674107D01*
X159469044Y-107839075D01*
X159560415Y-107898848D01*
X159716284Y-107886475D01*
X159734986Y-107883021D01*
X159934945Y-107873805D01*
X160084828Y-107956541D01*
X160134384Y-108005648D01*
X160292168Y-108173601D01*
X159958855Y-108262749D01*
X159625542Y-108351896D01*
X159676353Y-109532968D01*
X159703544Y-110033982D01*
X159736926Y-110430230D01*
X159775067Y-110708391D01*
X159816532Y-110855147D01*
X159819168Y-110859599D01*
X159895539Y-110954038D01*
X160056769Y-111135358D01*
X160286521Y-111385812D01*
X160568460Y-111687655D01*
X160886250Y-112023139D01*
X160995301Y-112137264D01*
X161797168Y-112999034D01*
X162484253Y-113791572D01*
X163063745Y-114525080D01*
X163542837Y-115209758D01*
X163928719Y-115855809D01*
X164228583Y-116473434D01*
X164429579Y-117009455D01*
X164606016Y-117577562D01*
X164734550Y-118050554D01*
X164822277Y-118468084D01*
X164876289Y-118869807D01*
X164903681Y-119295376D01*
X164911318Y-119702292D01*
X164911766Y-120102519D01*
X164905126Y-120391880D01*
X164886165Y-120605055D01*
X164849650Y-120776725D01*
X164790347Y-120941571D01*
X164703025Y-121134273D01*
X164691615Y-121158384D01*
X164519510Y-121475066D01*
X164301440Y-121814625D01*
X164126031Y-122050799D01*
X163784878Y-122469644D01*
X164044867Y-122697918D01*
X164322964Y-123007258D01*
X164481511Y-123331291D01*
X164515598Y-123649692D01*
X164420316Y-123942133D01*
X164364919Y-124022850D01*
X164161750Y-124179930D01*
X163919019Y-124205249D01*
X163661806Y-124097467D01*
X163614828Y-124062981D01*
X163493654Y-123986389D01*
X163343744Y-123939965D01*
X163126841Y-123916605D01*
X162804691Y-123909206D01*
X162786245Y-123909131D01*
X162467263Y-123917934D01*
X162179036Y-123943298D01*
X161971400Y-123980325D01*
X161932092Y-123993048D01*
X161600615Y-124172852D01*
X161236916Y-124452691D01*
X160875052Y-124803006D01*
X160550996Y-125191649D01*
X160339121Y-125469667D01*
X160124405Y-125737479D01*
X159945181Y-125947617D01*
X159906497Y-125989742D01*
X159748579Y-126145839D01*
X159638873Y-126208933D01*
X159532443Y-126197873D01*
X159470883Y-126172469D01*
X159286734Y-126088565D01*
X159469714Y-125897578D01*
X159588418Y-125761396D01*
X159767379Y-125541369D01*
X159980122Y-125270548D01*
X160153733Y-125043651D01*
X160645699Y-124460596D01*
X161143178Y-124010320D01*
X161660521Y-123680315D01*
X161790272Y-123617143D01*
X161981957Y-123539698D01*
X162177188Y-123490350D01*
X162416709Y-123463217D01*
X162741266Y-123452421D01*
X162939423Y-123451315D01*
X163291121Y-123453352D01*
X163527424Y-123463476D01*
X163678467Y-123487022D01*
X163774388Y-123529324D01*
X163845323Y-123595718D01*
X163860831Y-123614411D01*
X163987536Y-123748967D01*
X164055783Y-123756354D01*
X164078734Y-123636118D01*
X164079084Y-123606908D01*
X164037419Y-123449297D01*
X163931522Y-123241538D01*
X163860289Y-123133842D01*
X163711954Y-122949552D01*
X163579333Y-122857771D01*
X163405582Y-122824822D01*
X163332638Y-122821225D01*
X162944395Y-122819112D01*
X162639635Y-122851588D01*
X162358054Y-122930623D01*
X162039345Y-123068187D01*
X162004871Y-123084771D01*
X161495416Y-123331339D01*
X161822923Y-123045590D01*
X162087295Y-122842081D01*
X162390326Y-122646714D01*
X162533346Y-122568542D01*
X162800991Y-122452156D01*
X163032977Y-122404764D01*
X163311583Y-122410049D01*
X163326467Y-122411258D01*
X163551668Y-122426686D01*
X163653506Y-122420547D01*
X163653288Y-122387346D01*
X163598565Y-122341076D01*
X163441948Y-122277052D01*
X163191575Y-122263506D01*
X163037127Y-122273151D01*
X162804332Y-122304896D01*
X162593033Y-122366960D01*
X162376260Y-122474506D01*
X162127041Y-122642698D01*
X161818406Y-122886697D01*
X161562657Y-123102099D01*
X161118601Y-123434268D01*
X160648177Y-123705909D01*
X160512894Y-123768493D01*
X160229710Y-123884781D01*
X160006823Y-123953037D01*
X159785832Y-123983747D01*
X159508337Y-123987398D01*
X159323269Y-123982117D01*
X158679489Y-123959885D01*
X158584200Y-123682145D01*
X158485832Y-123449131D01*
X158354184Y-123268442D01*
X158156317Y-123106954D01*
X157859293Y-122931544D01*
X157813147Y-122906773D01*
X157649510Y-122795415D01*
X152143267Y-122795415D01*
X152106877Y-122831805D01*
X152070488Y-122795415D01*
X152106877Y-122759026D01*
X152143267Y-122795415D01*
X157649510Y-122795415D01*
X157312249Y-122565903D01*
X156831539Y-122091836D01*
X156382987Y-121496703D01*
X156311210Y-121385027D01*
X156260790Y-121303438D01*
X151762485Y-121303438D01*
X151754897Y-121435847D01*
X151736005Y-121451452D01*
X151729201Y-121430802D01*
X151717883Y-121246217D01*
X151729201Y-121176074D01*
X151750296Y-121153424D01*
X151761781Y-121254059D01*
X151762485Y-121303438D01*
X156260790Y-121303438D01*
X156150980Y-121125750D01*
X156060872Y-120960141D01*
X156031889Y-120859687D01*
X156055036Y-120795877D01*
X156110270Y-120748208D01*
X156282446Y-120664603D01*
X156485120Y-120664437D01*
X156760984Y-120748216D01*
X156781479Y-120756192D01*
X156980155Y-120822922D01*
X157259892Y-120902906D01*
X157579736Y-120986086D01*
X157898732Y-121062402D01*
X158175926Y-121121798D01*
X158370362Y-121154213D01*
X158414904Y-121157370D01*
X158602696Y-121096523D01*
X158789924Y-120943731D01*
X158931995Y-120745787D01*
X158984528Y-120559574D01*
X159030117Y-120359877D01*
X159181665Y-120155067D01*
X159246627Y-120090912D01*
X159412943Y-119909936D01*
X159474323Y-119767612D01*
X159467403Y-119679075D01*
X159465853Y-119554670D01*
X159555103Y-119453082D01*
X159681290Y-119376989D01*
X159846680Y-119270750D01*
X159905515Y-119167682D01*
X159895272Y-119051841D01*
X159906458Y-118834695D01*
X160009299Y-118541305D01*
X160028210Y-118500834D01*
X160187792Y-118129686D01*
X160257672Y-117856973D01*
X160237146Y-117665952D01*
X160125513Y-117539879D01*
X159985321Y-117479003D01*
X159821345Y-117403225D01*
X159621497Y-117278203D01*
X159576461Y-117245552D01*
X159423907Y-117117363D01*
X159362132Y-116999053D01*
X159364601Y-116824952D01*
X159374699Y-116746197D01*
X159428018Y-116503941D01*
X159520815Y-116206156D01*
X159602880Y-115991192D01*
X159713787Y-115711013D01*
X159809847Y-115439636D01*
X159858097Y-115279940D01*
X159893157Y-115157988D01*
X159909776Y-115147260D01*
X159909912Y-115259090D01*
X159895917Y-115498881D01*
X159867851Y-115773420D01*
X159826646Y-116005775D01*
X159785316Y-116135701D01*
X159755770Y-116251190D01*
X159810651Y-116286611D01*
X159914337Y-116244212D01*
X160031206Y-116126240D01*
X160035702Y-116119909D01*
X160112510Y-116018698D01*
X160140082Y-116009471D01*
X160115913Y-116102988D01*
X160037504Y-116310008D01*
X159930040Y-116574280D01*
X159831905Y-116827835D01*
X159767100Y-117026314D01*
X159746643Y-117134901D01*
X159749769Y-117143942D01*
X159826765Y-117127662D01*
X159964085Y-117016905D01*
X160139530Y-116837099D01*
X160330903Y-116613674D01*
X160516006Y-116372058D01*
X160672641Y-116137682D01*
X160750545Y-115997487D01*
X160859650Y-115763301D01*
X160927861Y-115566153D01*
X160964822Y-115357266D01*
X160980174Y-115087864D01*
X160983296Y-114820078D01*
X160987057Y-114498547D01*
X160997349Y-114304729D01*
X161017081Y-114220821D01*
X161049163Y-114229020D01*
X161073653Y-114267290D01*
X161140535Y-114429564D01*
X161213552Y-114667057D01*
X161248988Y-114807880D01*
X161321694Y-115063819D01*
X161384077Y-115178349D01*
X161428252Y-115155597D01*
X161446334Y-114999691D01*
X161430440Y-114714759D01*
X161430257Y-114712970D01*
X161339490Y-114165987D01*
X161291207Y-113989112D01*
X160949571Y-113989112D01*
X160913181Y-114025501D01*
X160876791Y-113989112D01*
X160913181Y-113952722D01*
X160949571Y-113989112D01*
X161291207Y-113989112D01*
X161184500Y-113598220D01*
X160980352Y-113048904D01*
X160742108Y-112557276D01*
X160484831Y-112162573D01*
X160422056Y-112086774D01*
X160185494Y-111855748D01*
X159913533Y-111649253D01*
X159645648Y-111492677D01*
X159421311Y-111411410D01*
X159362779Y-111405444D01*
X159237589Y-111381619D01*
X159229349Y-111296286D01*
X159232780Y-111286904D01*
X159278194Y-111144948D01*
X159337527Y-110931136D01*
X159358558Y-110849505D01*
X159391307Y-110616087D01*
X159399663Y-110297913D01*
X159386813Y-109919950D01*
X159355947Y-109507163D01*
X159310253Y-109084517D01*
X159252920Y-108676980D01*
X159187138Y-108309516D01*
X159116094Y-108007092D01*
X159042977Y-107794674D01*
X158970976Y-107697226D01*
X158955484Y-107693696D01*
X158795240Y-107751030D01*
X158554151Y-107919796D01*
X158238924Y-108195139D01*
X158161476Y-108268401D01*
X157816360Y-108638757D01*
X157578393Y-108996757D01*
X157419718Y-109384455D01*
X157417645Y-109391215D01*
X157324895Y-109695129D01*
X157203775Y-109404011D01*
X157023747Y-108996146D01*
X156819338Y-108573310D01*
X156607197Y-108166452D01*
X156403973Y-107806520D01*
X156226316Y-107524463D01*
X156110742Y-107372266D01*
X155855029Y-107087226D01*
X155559789Y-107407029D01*
X155352489Y-107647404D01*
X155151138Y-107905882D01*
X155062969Y-108031162D01*
X154926431Y-108286050D01*
X154778556Y-108641000D01*
X154633518Y-109052765D01*
X154505491Y-109478103D01*
X154408651Y-109873768D01*
X154358761Y-110179601D01*
X154328366Y-110416983D01*
X154283941Y-110548386D01*
X154205182Y-110613252D01*
X154122116Y-110639369D01*
X153784539Y-110756854D01*
X153390405Y-110946960D01*
X152988657Y-111182025D01*
X152628236Y-111434386D01*
X152450446Y-111584203D01*
X152228267Y-111776661D01*
X152011297Y-111927820D01*
X151757835Y-112061294D01*
X151426179Y-112200697D01*
X151228906Y-112275925D01*
X150905322Y-112404163D01*
X150628260Y-112527371D01*
X150429026Y-112630762D01*
X150341977Y-112694851D01*
X150256875Y-112920144D01*
X150258156Y-113233522D01*
X150342621Y-113608341D01*
X150498768Y-114000761D01*
X150624322Y-114250578D01*
X150733569Y-114446295D01*
X150806535Y-114552633D01*
X150815656Y-114560480D01*
X150812966Y-114639018D01*
X150763204Y-114832837D01*
X150672697Y-115121810D01*
X150547774Y-115485809D01*
X150394765Y-115904707D01*
X150383872Y-115933692D01*
X150185671Y-116468413D01*
X149966881Y-117072366D01*
X149748025Y-117688049D01*
X149549627Y-118257963D01*
X149454392Y-118537822D01*
X149025818Y-119811461D01*
X148516898Y-120357306D01*
X148122904Y-120790163D01*
X147824659Y-121145881D01*
X147610004Y-121445015D01*
X147466779Y-121708115D01*
X147382826Y-121955734D01*
X147345985Y-122208424D01*
X147341427Y-122344159D01*
X147391686Y-122729414D01*
X147553128Y-123053346D01*
X147835977Y-123328718D01*
X148250461Y-123568291D01*
X148362481Y-123618384D01*
X148642159Y-123771660D01*
X148958348Y-123996656D01*
X149274515Y-124261632D01*
X149554124Y-124534853D01*
X149760641Y-124784580D01*
X149823457Y-124887523D01*
X149908753Y-125114657D01*
X149965474Y-125380865D01*
X149988809Y-125639526D01*
X149973949Y-125844021D01*
X149931727Y-125936916D01*
X149858298Y-125936165D01*
X149829515Y-125888539D01*
X149728949Y-125727825D01*
X149681707Y-125677500D01*
X149364992Y-125677500D01*
X149260163Y-125712195D01*
X149213897Y-125712369D01*
X149089578Y-125739823D01*
X149066132Y-125858797D01*
X149066984Y-125867540D01*
X149044148Y-125977531D01*
X148967795Y-125986777D01*
X148877646Y-125906309D01*
X148827096Y-125800920D01*
X148827844Y-125621490D01*
X148932706Y-125505310D01*
X149104126Y-125482222D01*
X149193014Y-125510174D01*
X149341917Y-125603455D01*
X149364992Y-125677500D01*
X149681707Y-125677500D01*
X149548723Y-125535839D01*
X149335214Y-125354115D01*
X149134801Y-125224189D01*
X149050275Y-125190664D01*
X148790527Y-125182713D01*
X148590820Y-125280710D01*
X148473674Y-125454905D01*
X148461610Y-125675544D01*
X148541213Y-125863164D01*
X148678005Y-126000481D01*
X148884882Y-126135267D01*
X149113285Y-126243541D01*
X149314656Y-126301321D01*
X149419344Y-126296861D01*
X149505077Y-126314365D01*
X149523210Y-126404574D01*
X149493411Y-126506357D01*
X149439185Y-126500213D01*
X149389879Y-126491105D01*
X149412120Y-126540445D01*
X149412146Y-126653257D01*
X149368780Y-126696134D01*
X149214907Y-126756988D01*
X149135054Y-126693109D01*
X149120054Y-126565793D01*
X149067730Y-126376891D01*
X148927753Y-126258895D01*
X148779388Y-126190047D01*
X148675397Y-126209404D01*
X148582051Y-126284324D01*
X148454825Y-126445594D01*
X148459250Y-126600157D01*
X148597220Y-126776563D01*
X148615834Y-126794100D01*
X148905729Y-126969456D01*
X149240128Y-127020747D01*
X149550105Y-126952497D01*
X149754169Y-126828908D01*
X149919700Y-126662223D01*
X150013547Y-126492477D01*
X150017305Y-126388304D01*
X150049549Y-126292198D01*
X150164247Y-126146121D01*
X150246996Y-126064039D01*
X150408216Y-125897762D01*
X150480918Y-125748557D01*
X150494850Y-125548639D01*
X150493429Y-125502477D01*
X150440862Y-125172345D01*
X150299611Y-124850398D01*
X150055383Y-124511631D01*
X149728972Y-124165092D01*
X149268003Y-123777318D01*
X148719657Y-123438130D01*
X148591564Y-123371284D01*
X148190936Y-123153232D01*
X147911840Y-122962729D01*
X147737129Y-122783112D01*
X147649652Y-122597717D01*
X147630946Y-122437897D01*
X147647849Y-122273599D01*
X147710153Y-122117669D01*
X147835248Y-121946828D01*
X148040525Y-121737798D01*
X148343376Y-121467302D01*
X148379060Y-121436524D01*
X148900071Y-120988103D01*
X148994430Y-121596171D01*
X149074577Y-121988136D01*
X149179609Y-122322423D01*
X149262752Y-122499827D01*
X149451566Y-122760240D01*
X149734310Y-123073811D01*
X150082878Y-123414354D01*
X150469168Y-123755682D01*
X150865077Y-124071611D01*
X151212559Y-124316611D01*
X151533855Y-124516851D01*
X151853824Y-124700577D01*
X152148959Y-124856155D01*
X152395756Y-124971950D01*
X152570708Y-125036330D01*
X152650312Y-125037661D01*
X152652722Y-125029396D01*
X152603143Y-124961794D01*
X152466230Y-124811949D01*
X152259716Y-124598351D01*
X152001336Y-124339491D01*
X151826442Y-124167855D01*
X151427174Y-123766222D01*
X151130790Y-123437559D01*
X150924372Y-123166647D01*
X150809837Y-122970063D01*
X150630788Y-122444349D01*
X150565429Y-121862255D01*
X150617426Y-121262705D01*
X150639093Y-121157880D01*
X150745843Y-120684814D01*
X150753151Y-121018874D01*
X150793183Y-121395398D01*
X150889075Y-121843195D01*
X151025673Y-122306474D01*
X151187821Y-122729448D01*
X151258359Y-122878641D01*
X151552899Y-123389094D01*
X151937027Y-123948383D01*
X152383512Y-124518508D01*
X152675374Y-124855948D01*
X152970953Y-125177357D01*
X153206248Y-125409696D01*
X153412918Y-125576739D01*
X153622623Y-125702258D01*
X153867024Y-125810027D01*
X154024988Y-125869362D01*
X154506193Y-126044030D01*
X154070021Y-125620582D01*
X153620497Y-125169456D01*
X153261969Y-124772258D01*
X152968455Y-124396293D01*
X152713973Y-124008864D01*
X152525359Y-123676748D01*
X152330239Y-123308635D01*
X152207606Y-123063754D01*
X152156568Y-122939626D01*
X152176236Y-122933771D01*
X152265720Y-123043711D01*
X152329743Y-123132009D01*
X152476866Y-123305250D01*
X152696212Y-123524825D01*
X152944777Y-123748137D01*
X152989960Y-123785986D01*
X153230011Y-123997423D01*
X153439894Y-124205123D01*
X153581408Y-124370744D01*
X153599900Y-124398253D01*
X153710349Y-124543026D01*
X153896926Y-124753606D01*
X154129249Y-124996592D01*
X154280373Y-125146382D01*
X154658650Y-125481670D01*
X155041339Y-125746805D01*
X155471670Y-125966583D01*
X155992876Y-126165799D01*
X156146132Y-126216488D01*
X156599709Y-126407093D01*
X156918058Y-126644320D01*
X157105166Y-126932283D01*
X157165043Y-127267732D01*
X157185808Y-127422590D01*
X157235952Y-127489612D01*
X157237823Y-127489685D01*
X157283078Y-127425450D01*
X157305735Y-127263428D01*
X157305687Y-127049643D01*
X157282830Y-126830116D01*
X157239725Y-126657726D01*
X157158485Y-126501729D01*
X157018692Y-126284000D01*
X156878329Y-126088947D01*
X156702626Y-125857752D01*
X156541939Y-125646400D01*
X156449313Y-125524642D01*
X156310816Y-125342693D01*
X156764819Y-125345007D01*
X157032475Y-125355071D01*
X157211815Y-125394007D01*
X157359687Y-125479992D01*
X157464855Y-125568816D01*
X157619519Y-125725251D01*
X157718967Y-125858061D01*
X157734282Y-125894010D01*
X157786728Y-126020083D01*
X157807061Y-126045922D01*
X157896634Y-126075804D01*
X158123482Y-126127929D01*
X158481222Y-126201100D01*
X158963471Y-126294118D01*
X159563845Y-126405786D01*
X160275960Y-126534906D01*
X161093433Y-126680280D01*
X162009881Y-126840711D01*
X162441548Y-126915540D01*
X163323678Y-127058839D01*
X164073102Y-127160251D01*
X164696427Y-127220067D01*
X165200260Y-127238578D01*
X165591209Y-127216078D01*
X165875880Y-127152856D01*
X166030408Y-127073991D01*
X166117220Y-127016619D01*
X165316333Y-127016619D01*
X165279943Y-127053008D01*
X165243553Y-127016619D01*
X165279943Y-126980229D01*
X165316333Y-127016619D01*
X166117220Y-127016619D01*
X166178243Y-126976291D01*
X166254636Y-126967446D01*
X166292137Y-127025359D01*
X166324345Y-127204174D01*
X166334733Y-127485384D01*
X166531104Y-127485384D01*
X166484029Y-127090289D01*
X166432876Y-126907450D01*
X165668738Y-126907450D01*
X165657301Y-127010770D01*
X165632029Y-126998424D01*
X165622417Y-126849419D01*
X165632029Y-126816476D01*
X165658593Y-126807333D01*
X165668738Y-126907450D01*
X166432876Y-126907450D01*
X166386411Y-126741374D01*
X166347078Y-126670917D01*
X165089552Y-126670917D01*
X165084282Y-126884326D01*
X165061696Y-127023013D01*
X165039829Y-127053008D01*
X165008632Y-126989218D01*
X165003818Y-126830888D01*
X165007635Y-126780086D01*
X165021469Y-126655532D01*
X164806877Y-126655532D01*
X164806877Y-127062231D01*
X164333811Y-127016619D01*
X164353910Y-126584103D01*
X164368385Y-126350010D01*
X164385460Y-126183338D01*
X164398401Y-126127196D01*
X164475854Y-126132287D01*
X164614835Y-126175818D01*
X164725224Y-126231252D01*
X164782671Y-126317453D01*
X164804151Y-126476826D01*
X164806877Y-126655532D01*
X165021469Y-126655532D01*
X165036455Y-126520610D01*
X165059643Y-126405215D01*
X165076891Y-126434310D01*
X165087892Y-126608306D01*
X165089552Y-126670917D01*
X166347078Y-126670917D01*
X166296291Y-126579943D01*
X165753009Y-126579943D01*
X165716619Y-126616332D01*
X165680230Y-126579943D01*
X165716619Y-126543553D01*
X165753009Y-126579943D01*
X166296291Y-126579943D01*
X166247840Y-126493155D01*
X166204329Y-126447636D01*
X166077161Y-126371098D01*
X165850556Y-126269143D01*
X165564261Y-126158959D01*
X165426076Y-126111113D01*
X165123678Y-125999886D01*
X164861320Y-125884833D01*
X164679747Y-125784579D01*
X164635916Y-125749924D01*
X164489713Y-125603721D01*
X164702880Y-125522002D01*
X164845020Y-125482548D01*
X165007209Y-125473332D01*
X165207594Y-125499175D01*
X165464321Y-125564900D01*
X165795536Y-125675329D01*
X166219386Y-125835282D01*
X166754018Y-126049583D01*
X166875830Y-126099387D01*
X167472347Y-126343156D01*
X167954077Y-126537490D01*
X168340590Y-126688950D01*
X168651455Y-126804097D01*
X168906242Y-126889494D01*
X169124520Y-126951702D01*
X169325859Y-126997282D01*
X169529828Y-127032797D01*
X169754618Y-127064623D01*
X170042520Y-127108095D01*
X170266167Y-127151651D01*
X170393435Y-127188545D01*
X170410889Y-127202404D01*
X170853212Y-127202404D01*
X170890605Y-127110891D01*
X170869111Y-127045443D01*
X170770632Y-127004141D01*
X170564797Y-126951247D01*
X170288365Y-126895633D01*
X170151112Y-126872145D01*
X169869721Y-126823358D01*
X169612845Y-126769374D01*
X169359053Y-126702612D01*
X169086918Y-126615493D01*
X168775009Y-126500437D01*
X168401899Y-126349864D01*
X167946157Y-126156193D01*
X167386355Y-125911845D01*
X167182812Y-125822186D01*
X166618284Y-125577020D01*
X166166041Y-125391555D01*
X165807697Y-125261362D01*
X165524867Y-125182012D01*
X165299165Y-125149074D01*
X165112207Y-125158119D01*
X164945607Y-125204718D01*
X164833474Y-125256160D01*
X164649142Y-125371715D01*
X164514405Y-125489885D01*
X164397733Y-125690176D01*
X164287220Y-125978543D01*
X164200413Y-126297952D01*
X164154862Y-126591365D01*
X164151863Y-126668123D01*
X164131833Y-126886956D01*
X164073977Y-126977623D01*
X164060889Y-126979468D01*
X163950140Y-126966323D01*
X163725551Y-126930577D01*
X163410603Y-126876610D01*
X163028775Y-126808798D01*
X162603550Y-126731523D01*
X162158407Y-126649162D01*
X161716826Y-126566094D01*
X161302289Y-126486699D01*
X160938277Y-126415354D01*
X160648269Y-126356440D01*
X160455746Y-126314334D01*
X160384506Y-126293865D01*
X160401118Y-126256619D01*
X160438675Y-126252435D01*
X160567861Y-126220262D01*
X160804962Y-126130467D01*
X161129040Y-125993141D01*
X161519159Y-125818371D01*
X161954382Y-125616247D01*
X162413772Y-125396858D01*
X162876392Y-125170293D01*
X163321305Y-124946641D01*
X163727574Y-124735991D01*
X164074263Y-124548432D01*
X164340434Y-124394052D01*
X164468304Y-124310654D01*
X164658952Y-124180999D01*
X164796412Y-124099321D01*
X164845151Y-124083068D01*
X164843556Y-124160969D01*
X164815977Y-124337764D01*
X164771116Y-124570980D01*
X164717674Y-124818145D01*
X164664352Y-125036788D01*
X164619851Y-125184436D01*
X164619141Y-125186295D01*
X164594461Y-125270976D01*
X164635332Y-125279668D01*
X164771365Y-125215476D01*
X164792660Y-125204487D01*
X165044423Y-125099287D01*
X165372931Y-125007870D01*
X165793444Y-124927574D01*
X166321223Y-124855734D01*
X166971528Y-124789687D01*
X167354155Y-124757466D01*
X167826973Y-124716053D01*
X168280350Y-124669478D01*
X168682535Y-124621515D01*
X169001777Y-124575940D01*
X169200979Y-124537880D01*
X169774204Y-124342455D01*
X170319276Y-124058194D01*
X170808290Y-123705852D01*
X171213341Y-123306183D01*
X171506525Y-122879941D01*
X171550694Y-122790254D01*
X171691272Y-122339601D01*
X171701314Y-122180849D01*
X171027393Y-122180849D01*
X170927089Y-122622233D01*
X170699105Y-123041774D01*
X170352301Y-123425182D01*
X169895540Y-123758167D01*
X169653294Y-123889321D01*
X169392496Y-124009179D01*
X169139747Y-124103357D01*
X168867974Y-124177204D01*
X168550104Y-124236074D01*
X168159063Y-124285318D01*
X167667777Y-124330287D01*
X167268426Y-124360735D01*
X166627613Y-124419205D01*
X166081886Y-124493754D01*
X165646135Y-124581725D01*
X165335251Y-124680463D01*
X165253358Y-124720029D01*
X165148472Y-124764175D01*
X165111146Y-124724817D01*
X165134547Y-124580890D01*
X165168378Y-124457971D01*
X165197873Y-124301024D01*
X165233126Y-124025608D01*
X165271385Y-123658563D01*
X165309899Y-123226731D01*
X165345917Y-122756950D01*
X165352581Y-122660779D01*
X165392744Y-122137868D01*
X165438513Y-121655291D01*
X165486791Y-121239970D01*
X165534480Y-120918828D01*
X165574466Y-120732126D01*
X165768287Y-120207070D01*
X166026797Y-119722510D01*
X166325061Y-119322238D01*
X166449037Y-119196344D01*
X166760965Y-118970907D01*
X167122549Y-118805579D01*
X167485990Y-118716977D01*
X167803488Y-118721718D01*
X167810238Y-118723136D01*
X168260505Y-118879352D01*
X168597773Y-119125131D01*
X168817885Y-119453383D01*
X168916684Y-119857024D01*
X168890012Y-120328966D01*
X168852587Y-120499974D01*
X168793063Y-120735096D01*
X168751326Y-120905262D01*
X168736963Y-120970626D01*
X168799033Y-120959710D01*
X168959330Y-120911353D01*
X169119055Y-120857954D01*
X169610500Y-120744394D01*
X170046395Y-120757040D01*
X170416736Y-120891225D01*
X170711522Y-121142279D01*
X170920753Y-121505533D01*
X170991155Y-121731910D01*
X171027393Y-122180849D01*
X171701314Y-122180849D01*
X171720763Y-121873397D01*
X171640784Y-121431570D01*
X171481958Y-121095873D01*
X171161769Y-120728348D01*
X170775810Y-120489314D01*
X170329986Y-120380575D01*
X169830205Y-120403934D01*
X169489603Y-120487507D01*
X169041384Y-120629020D01*
X169150324Y-120329410D01*
X169229217Y-120010188D01*
X169262012Y-119648656D01*
X169248491Y-119298510D01*
X169188440Y-119013447D01*
X169155926Y-118938109D01*
X168963687Y-118668395D01*
X168691142Y-118399683D01*
X168393973Y-118184889D01*
X168322096Y-118145684D01*
X168048156Y-118062795D01*
X167700556Y-118032332D01*
X167341575Y-118054683D01*
X167033492Y-118130236D01*
X167015422Y-118137536D01*
X166836323Y-118207710D01*
X166719651Y-118244909D01*
X166706802Y-118246705D01*
X166666029Y-118182154D01*
X166610071Y-118015422D01*
X166566909Y-117848624D01*
X166331800Y-117021382D01*
X166012188Y-116219914D01*
X165592545Y-115409255D01*
X165199438Y-114768986D01*
X165032438Y-114506015D01*
X164900763Y-114286348D01*
X164821776Y-114139646D01*
X164806877Y-114098309D01*
X164851317Y-114008364D01*
X164960058Y-113862155D01*
X165096237Y-113702714D01*
X165222987Y-113573071D01*
X165303442Y-113516255D01*
X165305677Y-113516097D01*
X165344074Y-113578904D01*
X165363811Y-113707560D01*
X165432934Y-113940780D01*
X165587868Y-114177779D01*
X165776928Y-114347380D01*
X165897845Y-114384074D01*
X165972304Y-114316619D01*
X166027134Y-114147992D01*
X166040042Y-113926395D01*
X166012496Y-113719278D01*
X165956791Y-113603381D01*
X165941450Y-113540920D01*
X166035367Y-113512592D01*
X166207022Y-113515539D01*
X166424894Y-113546907D01*
X166657460Y-113603839D01*
X166873198Y-113683479D01*
X166881089Y-113687123D01*
X167161236Y-113834235D01*
X167329877Y-113979938D01*
X167415196Y-114163738D01*
X167445378Y-114425137D01*
X167447059Y-114480378D01*
X167392661Y-114902719D01*
X167212494Y-115257872D01*
X166912844Y-115533830D01*
X166887025Y-115550200D01*
X166605599Y-115676731D01*
X166371242Y-115691128D01*
X166203451Y-115598967D01*
X166121726Y-115405827D01*
X166116906Y-115329886D01*
X166168605Y-115123898D01*
X166301899Y-114999926D01*
X166453081Y-114983818D01*
X166584022Y-115054134D01*
X166586980Y-115178030D01*
X166470555Y-115329457D01*
X166367716Y-115477525D01*
X166387855Y-115582150D01*
X166509046Y-115613679D01*
X166650424Y-115572727D01*
X166809816Y-115428649D01*
X166882636Y-115212381D01*
X166859694Y-114975016D01*
X166784487Y-114827335D01*
X166582453Y-114656337D01*
X166345158Y-114618495D01*
X166096294Y-114713881D01*
X165961355Y-114824870D01*
X165820483Y-114984420D01*
X165763610Y-115128843D01*
X165766570Y-115329576D01*
X165772322Y-115383709D01*
X165865499Y-115756381D01*
X166038835Y-116014643D01*
X166277983Y-116154791D01*
X166568596Y-116173122D01*
X166896325Y-116065930D01*
X167246824Y-115829512D01*
X167304307Y-115779221D01*
X167619763Y-115419469D01*
X167825980Y-115022747D01*
X167919083Y-114613327D01*
X167895199Y-114215482D01*
X167750454Y-113853485D01*
X167636323Y-113698921D01*
X167416215Y-113448231D01*
X167680020Y-113216607D01*
X167870447Y-113023594D01*
X168019339Y-112825468D01*
X168105579Y-112655850D01*
X168108045Y-112548360D01*
X168103306Y-112542752D01*
X167982458Y-112502816D01*
X167772727Y-112499223D01*
X167525118Y-112528079D01*
X167290633Y-112585489D01*
X167225447Y-112609777D01*
X167003485Y-112724135D01*
X166814483Y-112856039D01*
X166795792Y-112872792D01*
X166699059Y-112951390D01*
X166596208Y-112986979D01*
X166443844Y-112984023D01*
X166198571Y-112946986D01*
X166152335Y-112938984D01*
X165887062Y-112901315D01*
X165667373Y-112885335D01*
X165547222Y-112893438D01*
X165491235Y-112896538D01*
X165455463Y-112846719D01*
X165435519Y-112719625D01*
X165427015Y-112490899D01*
X165425502Y-112217676D01*
X165423711Y-111994017D01*
X165023699Y-111994017D01*
X165010431Y-112325118D01*
X164963965Y-112669673D01*
X164891352Y-112965580D01*
X164844068Y-113082658D01*
X164718345Y-113300665D01*
X164589099Y-113478558D01*
X164485013Y-113578842D01*
X164456877Y-113588825D01*
X164393341Y-113538316D01*
X164267969Y-113408169D01*
X164158844Y-113285199D01*
X163937835Y-113024283D01*
X163807116Y-112856862D01*
X163758104Y-112769607D01*
X163782211Y-112749192D01*
X163820900Y-112760607D01*
X163916984Y-112762033D01*
X163927994Y-112674679D01*
X163860205Y-112523091D01*
X163719894Y-112331814D01*
X163707647Y-112317719D01*
X163516203Y-112138787D01*
X163332780Y-112066034D01*
X163251553Y-112060458D01*
X163161815Y-112049886D01*
X163065054Y-112008912D01*
X162945543Y-111923650D01*
X162787554Y-111780214D01*
X162575360Y-111564720D01*
X162293233Y-111263280D01*
X162055798Y-111004728D01*
X161090260Y-109948997D01*
X161243076Y-109785673D01*
X161384526Y-109611153D01*
X161530999Y-109397386D01*
X161549267Y-109367622D01*
X161648951Y-109202974D01*
X161711305Y-109101687D01*
X161718788Y-109090173D01*
X161786023Y-109111476D01*
X161955803Y-109186666D01*
X162201094Y-109303324D01*
X162443419Y-109423121D01*
X163151902Y-109778789D01*
X162909845Y-109879052D01*
X162698953Y-109991708D01*
X162485732Y-110145016D01*
X162307415Y-110307187D01*
X162201235Y-110446429D01*
X162186820Y-110496412D01*
X162252917Y-110563417D01*
X162424834Y-110617548D01*
X162663006Y-110653085D01*
X162927870Y-110664307D01*
X163179863Y-110645493D01*
X163197839Y-110642594D01*
X163417489Y-110575984D01*
X163590191Y-110474157D01*
X163610816Y-110454010D01*
X163729698Y-110347937D01*
X163803603Y-110313753D01*
X163884842Y-110360551D01*
X164038900Y-110484162D01*
X164234741Y-110659414D01*
X164266030Y-110688814D01*
X164465362Y-110880445D01*
X164571128Y-110998502D01*
X164596448Y-111068436D01*
X164554442Y-111115695D01*
X164500930Y-111144477D01*
X164333619Y-111300211D01*
X164218371Y-111546517D01*
X164172404Y-111832640D01*
X164194769Y-112047000D01*
X164271487Y-112229812D01*
X164369081Y-112312108D01*
X164458645Y-112282472D01*
X164505259Y-112169627D01*
X164569551Y-112024679D01*
X164695793Y-111841261D01*
X164741216Y-111786794D01*
X164949291Y-111549520D01*
X164996715Y-111738472D01*
X165023699Y-111994017D01*
X165423711Y-111994017D01*
X165422829Y-111883879D01*
X165409359Y-111657266D01*
X165376915Y-111499485D01*
X165317318Y-111372185D01*
X165222391Y-111237015D01*
X165214066Y-111226075D01*
X165089446Y-111048807D01*
X165048558Y-110932781D01*
X165078711Y-110830200D01*
X165099610Y-110795064D01*
X165274134Y-110491006D01*
X165365245Y-110255316D01*
X165388664Y-110073059D01*
X165374603Y-109909953D01*
X165338785Y-109696922D01*
X165291560Y-109480534D01*
X165243280Y-109307359D01*
X165204295Y-109223964D01*
X165199503Y-109222063D01*
X165139299Y-109270822D01*
X165016051Y-109394926D01*
X164935221Y-109481549D01*
X164697708Y-109741034D01*
X164722181Y-109261667D01*
X164725714Y-108958781D01*
X164692612Y-108742631D01*
X164613230Y-108556917D01*
X164596441Y-108527708D01*
X164456297Y-108239551D01*
X164344686Y-107916170D01*
X164274401Y-107605763D01*
X164258234Y-107356527D01*
X164268166Y-107290895D01*
X164287790Y-107151393D01*
X164240172Y-107119640D01*
X164216719Y-107125634D01*
X164117326Y-107205980D01*
X164041809Y-107381383D01*
X163988225Y-107663379D01*
X163954630Y-108063505D01*
X163939082Y-108593300D01*
X163937633Y-108782787D01*
X163934931Y-109208455D01*
X163928984Y-109507134D01*
X163917601Y-109697393D01*
X163898595Y-109797798D01*
X163869777Y-109826916D01*
X163828957Y-109803315D01*
X163818512Y-109793256D01*
X163750738Y-109698147D01*
X163744160Y-109575520D01*
X163793678Y-109377257D01*
X163844182Y-109130501D01*
X163833351Y-108879649D01*
X163797723Y-108694295D01*
X163720941Y-108391436D01*
X163650933Y-108216411D01*
X163576345Y-108152629D01*
X163485823Y-108183498D01*
X163461207Y-108202531D01*
X163272463Y-108442161D01*
X163150131Y-108772315D01*
X163117117Y-108995429D01*
X163096714Y-109174920D01*
X163070006Y-109268794D01*
X163060172Y-109273039D01*
X162980307Y-109232380D01*
X162808537Y-109147963D01*
X162611676Y-109052403D01*
X162199570Y-108853333D01*
X162195538Y-108731409D01*
X161084302Y-108731409D01*
X160816793Y-109002231D01*
X160657964Y-109157220D01*
X160541425Y-109260326D01*
X160505979Y-109283947D01*
X160430937Y-109244343D01*
X160330542Y-109148837D01*
X160243845Y-109036824D01*
X160228652Y-108985084D01*
X160296435Y-108929620D01*
X160431147Y-108811120D01*
X160494180Y-108754421D01*
X160651211Y-108624833D01*
X160760712Y-108585203D01*
X160875810Y-108620347D01*
X160906885Y-108636458D01*
X161084302Y-108731409D01*
X162195538Y-108731409D01*
X162173773Y-108073371D01*
X162156711Y-107699668D01*
X162128908Y-107427425D01*
X162081866Y-107212560D01*
X162007086Y-107010991D01*
X161942016Y-106871211D01*
X161824638Y-106658901D01*
X161719221Y-106516787D01*
X161652126Y-106476299D01*
X161533412Y-106585196D01*
X161442557Y-106803880D01*
X161382656Y-107098699D01*
X161356806Y-107436005D01*
X161368101Y-107782145D01*
X161419638Y-108103470D01*
X161484137Y-108302301D01*
X161603989Y-108583399D01*
X161404144Y-108452091D01*
X161224904Y-108336519D01*
X160989872Y-108187692D01*
X160858596Y-108105530D01*
X160670067Y-107980755D01*
X160545479Y-107884116D01*
X160515209Y-107846571D01*
X160556241Y-107760907D01*
X160624378Y-107661591D01*
X160690032Y-107503016D01*
X160726733Y-107274524D01*
X160729634Y-107188525D01*
X160705170Y-106965138D01*
X160643718Y-106717228D01*
X160560332Y-106486012D01*
X160470070Y-106312707D01*
X160387985Y-106238527D01*
X160382461Y-106238109D01*
X160304099Y-106299941D01*
X160199637Y-106457261D01*
X160090006Y-106667806D01*
X159996134Y-106889312D01*
X159938952Y-107079516D01*
X159930659Y-107150425D01*
X159926364Y-107262896D01*
X159899008Y-107284619D01*
X159826883Y-107205900D01*
X159730563Y-107075072D01*
X159253316Y-107075072D01*
X158882389Y-107049865D01*
X158656992Y-107024307D01*
X158507173Y-106963883D01*
X158374256Y-106835327D01*
X158272622Y-106704163D01*
X158033783Y-106383668D01*
X158248475Y-106383668D01*
X158440934Y-106370635D01*
X158566951Y-106343842D01*
X158673257Y-106378155D01*
X158834514Y-106531991D01*
X158962025Y-106689544D01*
X159253316Y-107075072D01*
X159730563Y-107075072D01*
X159715205Y-107054212D01*
X159499750Y-106756785D01*
X159704775Y-106537305D01*
X159836579Y-106353498D01*
X159949672Y-106122548D01*
X160029226Y-105887697D01*
X160060412Y-105692188D01*
X160032123Y-105582667D01*
X159920701Y-105563268D01*
X159742206Y-105618021D01*
X159538677Y-105724740D01*
X159352158Y-105861239D01*
X159224691Y-106005332D01*
X159221788Y-106010288D01*
X159098766Y-106224642D01*
X158907855Y-105891313D01*
X158716944Y-105557985D01*
X158761468Y-105518892D01*
X158215635Y-105518892D01*
X158193096Y-105585752D01*
X158120200Y-105616620D01*
X157966899Y-105703276D01*
X157854766Y-105803291D01*
X157743593Y-105909235D01*
X157681414Y-105944153D01*
X157618027Y-105888989D01*
X157498380Y-105749037D01*
X157383382Y-105600821D01*
X157200567Y-105356628D01*
X157017550Y-105112437D01*
X156935607Y-105003229D01*
X156802766Y-104826314D01*
X153464914Y-104826314D01*
X153401033Y-104917429D01*
X153271488Y-105092191D01*
X153099716Y-105319144D01*
X153022696Y-105419757D01*
X152628487Y-105933018D01*
X152347159Y-105746844D01*
X152187256Y-105621155D01*
X152102841Y-105514916D01*
X152099254Y-105480908D01*
X152136835Y-105371858D01*
X152199758Y-105171553D01*
X152256948Y-104981892D01*
X152331923Y-104751624D01*
X152390929Y-104640611D01*
X152449641Y-104626031D01*
X152485460Y-104649151D01*
X152609966Y-104695488D01*
X152828762Y-104728882D01*
X153051312Y-104740897D01*
X153321831Y-104754143D01*
X153453878Y-104786947D01*
X153464914Y-104826314D01*
X156802766Y-104826314D01*
X156742559Y-104746132D01*
X157203650Y-104740897D01*
X157464705Y-104724279D01*
X157675023Y-104686341D01*
X157774535Y-104644542D01*
X157847659Y-104607914D01*
X157902241Y-104662549D01*
X157959313Y-104832630D01*
X157968991Y-104868115D01*
X158046418Y-105114239D01*
X158133576Y-105334667D01*
X158154621Y-105378229D01*
X158215635Y-105518892D01*
X158761468Y-105518892D01*
X158958049Y-105346292D01*
X159185929Y-105058023D01*
X159324608Y-104722027D01*
X159393456Y-104498772D01*
X159444018Y-104340684D01*
X159462618Y-104288536D01*
X159529255Y-104299908D01*
X159667220Y-104355118D01*
X159859446Y-104405567D01*
X160082934Y-104373324D01*
X160128946Y-104359854D01*
X160319870Y-104314807D01*
X160444087Y-104337296D01*
X160550233Y-104419516D01*
X160817923Y-104580892D01*
X161125362Y-104604182D01*
X161448299Y-104496877D01*
X161641881Y-104371823D01*
X161743628Y-104250607D01*
X161751137Y-104217002D01*
X161770868Y-104041652D01*
X161781474Y-103992873D01*
X161447978Y-103992873D01*
X161385848Y-104139763D01*
X161343861Y-104177281D01*
X161220404Y-104253749D01*
X161108304Y-104263253D01*
X160938354Y-104209822D01*
X160917919Y-104202088D01*
X160772536Y-104113093D01*
X160730600Y-104020705D01*
X160792856Y-103962287D01*
X160913181Y-103964136D01*
X161052993Y-103965264D01*
X161095046Y-103882801D01*
X161095129Y-103876202D01*
X161143090Y-103783555D01*
X161258139Y-103776743D01*
X161401457Y-103853402D01*
X161447978Y-103992873D01*
X161781474Y-103992873D01*
X161794256Y-103934093D01*
X161780708Y-103753268D01*
X161660859Y-103607032D01*
X161472177Y-103507215D01*
X161252130Y-103465646D01*
X161038185Y-103494155D01*
X160867810Y-103604570D01*
X160844528Y-103634245D01*
X160769033Y-103733635D01*
X160737800Y-103723587D01*
X160732808Y-103619506D01*
X160295223Y-103619506D01*
X160259552Y-103803115D01*
X160118611Y-103929797D01*
X159879681Y-103973774D01*
X159800319Y-103968240D01*
X159639299Y-103897903D01*
X159568886Y-103765470D01*
X159611312Y-103619727D01*
X159631246Y-103597236D01*
X159742373Y-103561515D01*
X159897532Y-103619798D01*
X160039965Y-103681528D01*
X160117795Y-103659561D01*
X160150049Y-103616350D01*
X160163655Y-103481895D01*
X160066149Y-103357807D01*
X159890714Y-103273591D01*
X159742713Y-103254155D01*
X159490928Y-103317484D01*
X159312160Y-103488468D01*
X159227969Y-103738606D01*
X159233690Y-103927153D01*
X159252017Y-104107091D01*
X159220421Y-104185102D01*
X159143072Y-104200286D01*
X159013141Y-104245799D01*
X158830700Y-104361883D01*
X158723731Y-104447383D01*
X158556069Y-104587929D01*
X158463733Y-104640620D01*
X158413609Y-104614701D01*
X158381413Y-104542956D01*
X158350649Y-104396022D01*
X158324603Y-104155104D01*
X158308818Y-103871777D01*
X158308634Y-103865669D01*
X158305836Y-103581105D01*
X158324799Y-103397115D01*
X158375607Y-103269178D01*
X158468347Y-103152779D01*
X158470714Y-103150247D01*
X158765593Y-102931454D01*
X159105485Y-102842817D01*
X159471097Y-102883910D01*
X159843140Y-103054306D01*
X160021634Y-103184617D01*
X160218344Y-103404747D01*
X160295223Y-103619506D01*
X160732808Y-103619506D01*
X160731288Y-103587820D01*
X160731233Y-103539847D01*
X160702906Y-103346253D01*
X160599055Y-103170609D01*
X160458310Y-103021914D01*
X160048573Y-102699910D01*
X159620652Y-102491789D01*
X159194473Y-102400634D01*
X158789961Y-102429525D01*
X158427043Y-102581543D01*
X158287850Y-102686313D01*
X158021362Y-102971072D01*
X157873451Y-103273712D01*
X157821107Y-103645084D01*
X157820058Y-103720177D01*
X157820058Y-104120649D01*
X157461941Y-104078235D01*
X157199267Y-104066215D01*
X156983446Y-104116517D01*
X156782370Y-104215487D01*
X156460914Y-104395151D01*
X155812263Y-103497381D01*
X155585405Y-103186781D01*
X155388292Y-102923291D01*
X155236456Y-102727176D01*
X155145428Y-102618699D01*
X155127221Y-102603658D01*
X155074469Y-102661121D01*
X154953157Y-102816822D01*
X154778788Y-103050169D01*
X154566866Y-103340571D01*
X154448600Y-103505017D01*
X153806368Y-104402328D01*
X153478493Y-104219075D01*
X153231551Y-104102671D01*
X153012475Y-104063955D01*
X152810696Y-104076057D01*
X152470774Y-104116292D01*
X152453200Y-103715726D01*
X152447220Y-103665308D01*
X151975929Y-103665308D01*
X151966408Y-104070448D01*
X151959138Y-104165167D01*
X151906732Y-104794293D01*
X151642908Y-104538013D01*
X151448503Y-104371215D01*
X151260442Y-104244315D01*
X151192732Y-104211665D01*
X151069808Y-104144751D01*
X151028161Y-104036910D01*
X151037463Y-103875352D01*
X151008913Y-103602323D01*
X150874451Y-103395656D01*
X150665570Y-103277075D01*
X150413760Y-103268305D01*
X150246219Y-103329495D01*
X150128301Y-103445411D01*
X150116178Y-103578458D01*
X150181412Y-103656412D01*
X150293816Y-103655690D01*
X150362434Y-103616175D01*
X150512607Y-103558904D01*
X150633795Y-103615818D01*
X150676704Y-103760931D01*
X150674589Y-103780736D01*
X150596426Y-103919961D01*
X150443563Y-103981266D01*
X150261618Y-103968655D01*
X150177880Y-103926876D01*
X149595989Y-103926876D01*
X149537388Y-104054356D01*
X149400167Y-104183345D01*
X149242200Y-104264785D01*
X149187571Y-104273066D01*
X149072137Y-104230623D01*
X148944584Y-104145065D01*
X148830327Y-103993984D01*
X148835139Y-103890337D01*
X148922475Y-103794130D01*
X149044429Y-103766714D01*
X149140001Y-103811392D01*
X149159313Y-103872779D01*
X149214331Y-103959823D01*
X149340572Y-103976659D01*
X149479811Y-103919649D01*
X149508654Y-103894613D01*
X149579423Y-103851113D01*
X149595989Y-103926876D01*
X150177880Y-103926876D01*
X150096210Y-103886129D01*
X149992956Y-103737691D01*
X149988087Y-103720507D01*
X149980387Y-103586455D01*
X150044439Y-103449620D01*
X150200681Y-103268558D01*
X150221640Y-103246959D01*
X150556351Y-102989614D01*
X150921124Y-102858342D01*
X151291630Y-102857053D01*
X151643542Y-102989658D01*
X151679968Y-103012519D01*
X151838591Y-103160628D01*
X151935284Y-103370129D01*
X151975929Y-103665308D01*
X152447220Y-103665308D01*
X152419567Y-103432174D01*
X152353879Y-103162857D01*
X152312886Y-103056504D01*
X152127845Y-102804181D01*
X151852260Y-102585180D01*
X151538409Y-102432999D01*
X151258396Y-102380802D01*
X150923559Y-102423934D01*
G36*
X166828660Y-107597061D02*
X166725194Y-107728727D01*
X166594383Y-107930157D01*
X166454533Y-108170853D01*
X166323949Y-108420322D01*
X166220938Y-108648065D01*
X166193985Y-108719274D01*
X166035476Y-109313118D01*
X166003030Y-109851909D01*
X166098665Y-110356758D01*
X166324400Y-110848774D01*
X166410822Y-110986551D01*
X166674387Y-111291226D01*
X167049281Y-111595735D01*
X167502901Y-111878200D01*
X168002645Y-112116745D01*
X168215502Y-112197543D01*
X168792620Y-112432443D01*
X169289261Y-112700971D01*
X169688978Y-112991323D01*
X169975323Y-113291697D01*
X170124831Y-113567766D01*
X170190709Y-113981562D01*
X170145784Y-114464737D01*
X169995598Y-114999193D01*
X169745689Y-115566833D01*
X169401598Y-116149562D01*
X169280823Y-116324634D01*
X169090588Y-116600511D01*
X168985064Y-116780446D01*
X168968668Y-116864545D01*
X169045815Y-116852913D01*
X169220921Y-116745655D01*
X169498401Y-116542879D01*
X169766035Y-116336246D01*
X170062737Y-116093047D01*
X170340849Y-115845346D01*
X170564954Y-115625769D01*
X170679909Y-115494448D01*
X170932354Y-115056988D01*
X171081414Y-114564765D01*
X171122951Y-114055057D01*
X171052828Y-113565140D01*
X170929721Y-113243309D01*
X170777392Y-112944719D01*
X171012141Y-113012044D01*
X171344267Y-113063079D01*
X171689266Y-113042632D01*
X172016804Y-112961898D01*
X172296549Y-112832072D01*
X172498167Y-112664348D01*
X172591323Y-112469920D01*
X172594270Y-112428175D01*
X172530979Y-112405940D01*
X172371377Y-112416520D01*
X172284957Y-112430958D01*
X171804573Y-112495280D01*
X171397752Y-112477523D01*
X171013872Y-112371535D01*
X170733339Y-112242407D01*
X170473663Y-112117912D01*
X170244672Y-112027167D01*
X170092074Y-111988061D01*
X170082433Y-111987679D01*
X169909112Y-111964043D01*
X169635671Y-111900449D01*
X169298350Y-111807868D01*
X168933389Y-111697271D01*
X168577026Y-111579629D01*
X168265501Y-111465913D01*
X168039092Y-111369078D01*
X167686871Y-111146807D01*
X167343691Y-110843144D01*
X167044000Y-110496050D01*
X166822242Y-110143488D01*
X166737868Y-109935023D01*
X166638270Y-109366169D01*
X166661225Y-108736387D01*
X166772020Y-108166374D01*
X166836045Y-107898416D01*
X166877436Y-107689751D01*
X166889433Y-107575861D01*
X166886476Y-107565654D01*
X166828660Y-107597061D01*
X166828660Y-107597061D01*
G37*
X166828660Y-107597061D02*
X166725194Y-107728727D01*
X166594383Y-107930157D01*
X166454533Y-108170853D01*
X166323949Y-108420322D01*
X166220938Y-108648065D01*
X166193985Y-108719274D01*
X166035476Y-109313118D01*
X166003030Y-109851909D01*
X166098665Y-110356758D01*
X166324400Y-110848774D01*
X166410822Y-110986551D01*
X166674387Y-111291226D01*
X167049281Y-111595735D01*
X167502901Y-111878200D01*
X168002645Y-112116745D01*
X168215502Y-112197543D01*
X168792620Y-112432443D01*
X169289261Y-112700971D01*
X169688978Y-112991323D01*
X169975323Y-113291697D01*
X170124831Y-113567766D01*
X170190709Y-113981562D01*
X170145784Y-114464737D01*
X169995598Y-114999193D01*
X169745689Y-115566833D01*
X169401598Y-116149562D01*
X169280823Y-116324634D01*
X169090588Y-116600511D01*
X168985064Y-116780446D01*
X168968668Y-116864545D01*
X169045815Y-116852913D01*
X169220921Y-116745655D01*
X169498401Y-116542879D01*
X169766035Y-116336246D01*
X170062737Y-116093047D01*
X170340849Y-115845346D01*
X170564954Y-115625769D01*
X170679909Y-115494448D01*
X170932354Y-115056988D01*
X171081414Y-114564765D01*
X171122951Y-114055057D01*
X171052828Y-113565140D01*
X170929721Y-113243309D01*
X170777392Y-112944719D01*
X171012141Y-113012044D01*
X171344267Y-113063079D01*
X171689266Y-113042632D01*
X172016804Y-112961898D01*
X172296549Y-112832072D01*
X172498167Y-112664348D01*
X172591323Y-112469920D01*
X172594270Y-112428175D01*
X172530979Y-112405940D01*
X172371377Y-112416520D01*
X172284957Y-112430958D01*
X171804573Y-112495280D01*
X171397752Y-112477523D01*
X171013872Y-112371535D01*
X170733339Y-112242407D01*
X170473663Y-112117912D01*
X170244672Y-112027167D01*
X170092074Y-111988061D01*
X170082433Y-111987679D01*
X169909112Y-111964043D01*
X169635671Y-111900449D01*
X169298350Y-111807868D01*
X168933389Y-111697271D01*
X168577026Y-111579629D01*
X168265501Y-111465913D01*
X168039092Y-111369078D01*
X167686871Y-111146807D01*
X167343691Y-110843144D01*
X167044000Y-110496050D01*
X166822242Y-110143488D01*
X166737868Y-109935023D01*
X166638270Y-109366169D01*
X166661225Y-108736387D01*
X166772020Y-108166374D01*
X166836045Y-107898416D01*
X166877436Y-107689751D01*
X166889433Y-107575861D01*
X166886476Y-107565654D01*
X166828660Y-107597061D01*
G36*
X143381438Y-107635064D02*
X143417431Y-107817554D01*
X143479524Y-108064302D01*
X143487540Y-108093455D01*
X143599352Y-108651273D01*
X143631083Y-109202339D01*
X143583442Y-109708521D01*
X143457141Y-110131689D01*
X143449224Y-110149019D01*
X143186836Y-110568396D01*
X142818956Y-110957493D01*
X142385433Y-111278045D01*
X142136104Y-111410062D01*
X141877758Y-111514622D01*
X141548230Y-111629710D01*
X141184543Y-111744490D01*
X140823718Y-111848122D01*
X140502778Y-111929769D01*
X140258744Y-111978593D01*
X140163211Y-111987627D01*
X140025782Y-112020262D01*
X139806237Y-112106242D01*
X139549447Y-112227765D01*
X139521104Y-112242407D01*
X139187773Y-112394061D01*
X138879357Y-112475535D01*
X138546605Y-112492976D01*
X138140266Y-112452533D01*
X138005874Y-112431555D01*
X137781514Y-112401695D01*
X137682335Y-112418516D01*
X137691422Y-112497139D01*
X137778985Y-112634375D01*
X138009433Y-112847444D01*
X138333307Y-112993918D01*
X138709698Y-113063261D01*
X139097699Y-113044934D01*
X139243604Y-113011671D01*
X139401768Y-112970883D01*
X139478332Y-112960122D01*
X139479657Y-112961611D01*
X139450109Y-113030874D01*
X139374696Y-113188144D01*
X139318237Y-113302232D01*
X139171262Y-113752098D01*
X139146744Y-114240497D01*
X139237457Y-114739859D01*
X139436174Y-115222615D01*
X139735669Y-115661195D01*
X140007666Y-115932465D01*
X140331861Y-116199558D01*
X140641781Y-116442053D01*
X140915126Y-116643686D01*
X141129600Y-116788190D01*
X141262905Y-116859298D01*
X141284487Y-116863897D01*
X141278950Y-116808335D01*
X141202738Y-116657377D01*
X141069018Y-116434614D01*
X140905946Y-116185681D01*
X140517439Y-115544749D01*
X140249968Y-114949268D01*
X140104583Y-114404929D01*
X140082339Y-113917424D01*
X140184287Y-113492445D01*
X140354405Y-113203294D01*
X140567842Y-112994256D01*
X140878357Y-112768028D01*
X141243960Y-112550413D01*
X141622666Y-112367213D01*
X141862000Y-112276837D01*
X142586667Y-111989189D01*
X143184415Y-111641283D01*
X143653116Y-111237326D01*
X143990642Y-110781525D01*
X144194865Y-110278087D01*
X144263657Y-109731219D01*
X144194890Y-109145128D01*
X143986436Y-108524022D01*
X143877066Y-108293210D01*
X143682513Y-107929200D01*
X143530389Y-107682997D01*
X143424943Y-107560904D01*
X143379123Y-107554497D01*
X143381438Y-107635064D01*
X143381438Y-107635064D01*
G37*
X143381438Y-107635064D02*
X143417431Y-107817554D01*
X143479524Y-108064302D01*
X143487540Y-108093455D01*
X143599352Y-108651273D01*
X143631083Y-109202339D01*
X143583442Y-109708521D01*
X143457141Y-110131689D01*
X143449224Y-110149019D01*
X143186836Y-110568396D01*
X142818956Y-110957493D01*
X142385433Y-111278045D01*
X142136104Y-111410062D01*
X141877758Y-111514622D01*
X141548230Y-111629710D01*
X141184543Y-111744490D01*
X140823718Y-111848122D01*
X140502778Y-111929769D01*
X140258744Y-111978593D01*
X140163211Y-111987627D01*
X140025782Y-112020262D01*
X139806237Y-112106242D01*
X139549447Y-112227765D01*
X139521104Y-112242407D01*
X139187773Y-112394061D01*
X138879357Y-112475535D01*
X138546605Y-112492976D01*
X138140266Y-112452533D01*
X138005874Y-112431555D01*
X137781514Y-112401695D01*
X137682335Y-112418516D01*
X137691422Y-112497139D01*
X137778985Y-112634375D01*
X138009433Y-112847444D01*
X138333307Y-112993918D01*
X138709698Y-113063261D01*
X139097699Y-113044934D01*
X139243604Y-113011671D01*
X139401768Y-112970883D01*
X139478332Y-112960122D01*
X139479657Y-112961611D01*
X139450109Y-113030874D01*
X139374696Y-113188144D01*
X139318237Y-113302232D01*
X139171262Y-113752098D01*
X139146744Y-114240497D01*
X139237457Y-114739859D01*
X139436174Y-115222615D01*
X139735669Y-115661195D01*
X140007666Y-115932465D01*
X140331861Y-116199558D01*
X140641781Y-116442053D01*
X140915126Y-116643686D01*
X141129600Y-116788190D01*
X141262905Y-116859298D01*
X141284487Y-116863897D01*
X141278950Y-116808335D01*
X141202738Y-116657377D01*
X141069018Y-116434614D01*
X140905946Y-116185681D01*
X140517439Y-115544749D01*
X140249968Y-114949268D01*
X140104583Y-114404929D01*
X140082339Y-113917424D01*
X140184287Y-113492445D01*
X140354405Y-113203294D01*
X140567842Y-112994256D01*
X140878357Y-112768028D01*
X141243960Y-112550413D01*
X141622666Y-112367213D01*
X141862000Y-112276837D01*
X142586667Y-111989189D01*
X143184415Y-111641283D01*
X143653116Y-111237326D01*
X143990642Y-110781525D01*
X144194865Y-110278087D01*
X144263657Y-109731219D01*
X144194890Y-109145128D01*
X143986436Y-108524022D01*
X143877066Y-108293210D01*
X143682513Y-107929200D01*
X143530389Y-107682997D01*
X143424943Y-107560904D01*
X143379123Y-107554497D01*
X143381438Y-107635064D01*
G36*
X160452602Y-127246770D02*
X160450894Y-127354303D01*
X160510405Y-127485033D01*
X160566628Y-127640093D01*
X160616320Y-127860218D01*
X160653132Y-128099426D01*
X160670715Y-128311736D01*
X160662721Y-128451166D01*
X160647637Y-128478891D01*
X160617382Y-128568815D01*
X160621692Y-128742180D01*
X160627695Y-128785911D01*
X160638212Y-129040334D01*
X160595032Y-129253375D01*
X160510947Y-129391810D01*
X160398750Y-129422417D01*
X160384519Y-129417479D01*
X160167044Y-129337994D01*
X160050273Y-129328723D01*
X160006613Y-129391123D01*
X160003439Y-129437599D01*
X160039292Y-129540160D01*
X160167245Y-129616124D01*
X160338215Y-129667304D01*
X160571384Y-129711062D01*
X160729996Y-129686314D01*
X160846323Y-129571454D01*
X160952640Y-129344873D01*
X160996574Y-129226529D01*
X161078728Y-129015560D01*
X161148631Y-128912929D01*
X161238366Y-128888334D01*
X161339029Y-128903078D01*
X161559944Y-128935120D01*
X161722851Y-128945272D01*
X161858343Y-128980745D01*
X161895974Y-129109026D01*
X161958430Y-129355759D01*
X162120421Y-129609361D01*
X162345039Y-129832266D01*
X162595371Y-129986907D01*
X162807446Y-130036691D01*
X162979491Y-129995853D01*
X163116758Y-129923667D01*
X163250368Y-129753510D01*
X163260443Y-129600286D01*
X162987393Y-129600286D01*
X162960764Y-129660192D01*
X162938873Y-129648806D01*
X162930163Y-129562434D01*
X162938873Y-129551767D01*
X162982141Y-129561757D01*
X162987393Y-129600286D01*
X163260443Y-129600286D01*
X163264229Y-129542716D01*
X163157189Y-129335042D01*
X163132952Y-129309169D01*
X162935739Y-129183634D01*
X162743677Y-129186698D01*
X162618591Y-129278689D01*
X162560430Y-129403358D01*
X162610297Y-129533417D01*
X162655231Y-129647789D01*
X162595897Y-129664440D01*
X162500685Y-129615886D01*
X162411430Y-129505220D01*
X162323479Y-129320776D01*
X162266858Y-129131471D01*
X162259599Y-129062535D01*
X162323084Y-128989976D01*
X162484763Y-128907520D01*
X162599303Y-128867129D01*
X162883751Y-128750659D01*
X163024671Y-128617981D01*
X163023384Y-128467236D01*
X162954859Y-128367297D01*
X162798539Y-128241268D01*
X162681813Y-128235920D01*
X162625645Y-128349715D01*
X162623496Y-128391640D01*
X162580557Y-128543539D01*
X162508375Y-128609978D01*
X162347855Y-128651818D01*
X162282016Y-128625762D01*
X162294951Y-128583055D01*
X162295355Y-128578706D01*
X161807469Y-128578706D01*
X161767197Y-128642908D01*
X161664952Y-128653161D01*
X161448334Y-128632337D01*
X161331662Y-128608283D01*
X161226415Y-128556219D01*
X161178619Y-128445823D01*
X161167909Y-128250118D01*
X161151181Y-128004027D01*
X161109706Y-127787887D01*
X161096931Y-127749150D01*
X161062927Y-127610975D01*
X161114208Y-127567464D01*
X161266585Y-127611943D01*
X161342925Y-127645328D01*
X161529460Y-127803536D01*
X161683880Y-128081242D01*
X161784639Y-128417622D01*
X161807469Y-128578706D01*
X162295355Y-128578706D01*
X162305193Y-128473069D01*
X162276735Y-128286330D01*
X162261482Y-128224471D01*
X162113026Y-127930156D01*
X161849319Y-127660806D01*
X161500610Y-127437183D01*
X161097147Y-127280043D01*
X160799034Y-127220801D01*
X160563494Y-127206989D01*
X160452602Y-127246770D01*
X160452602Y-127246770D01*
G37*
X160452602Y-127246770D02*
X160450894Y-127354303D01*
X160510405Y-127485033D01*
X160566628Y-127640093D01*
X160616320Y-127860218D01*
X160653132Y-128099426D01*
X160670715Y-128311736D01*
X160662721Y-128451166D01*
X160647637Y-128478891D01*
X160617382Y-128568815D01*
X160621692Y-128742180D01*
X160627695Y-128785911D01*
X160638212Y-129040334D01*
X160595032Y-129253375D01*
X160510947Y-129391810D01*
X160398750Y-129422417D01*
X160384519Y-129417479D01*
X160167044Y-129337994D01*
X160050273Y-129328723D01*
X160006613Y-129391123D01*
X160003439Y-129437599D01*
X160039292Y-129540160D01*
X160167245Y-129616124D01*
X160338215Y-129667304D01*
X160571384Y-129711062D01*
X160729996Y-129686314D01*
X160846323Y-129571454D01*
X160952640Y-129344873D01*
X160996574Y-129226529D01*
X161078728Y-129015560D01*
X161148631Y-128912929D01*
X161238366Y-128888334D01*
X161339029Y-128903078D01*
X161559944Y-128935120D01*
X161722851Y-128945272D01*
X161858343Y-128980745D01*
X161895974Y-129109026D01*
X161958430Y-129355759D01*
X162120421Y-129609361D01*
X162345039Y-129832266D01*
X162595371Y-129986907D01*
X162807446Y-130036691D01*
X162979491Y-129995853D01*
X163116758Y-129923667D01*
X163250368Y-129753510D01*
X163260443Y-129600286D01*
X162987393Y-129600286D01*
X162960764Y-129660192D01*
X162938873Y-129648806D01*
X162930163Y-129562434D01*
X162938873Y-129551767D01*
X162982141Y-129561757D01*
X162987393Y-129600286D01*
X163260443Y-129600286D01*
X163264229Y-129542716D01*
X163157189Y-129335042D01*
X163132952Y-129309169D01*
X162935739Y-129183634D01*
X162743677Y-129186698D01*
X162618591Y-129278689D01*
X162560430Y-129403358D01*
X162610297Y-129533417D01*
X162655231Y-129647789D01*
X162595897Y-129664440D01*
X162500685Y-129615886D01*
X162411430Y-129505220D01*
X162323479Y-129320776D01*
X162266858Y-129131471D01*
X162259599Y-129062535D01*
X162323084Y-128989976D01*
X162484763Y-128907520D01*
X162599303Y-128867129D01*
X162883751Y-128750659D01*
X163024671Y-128617981D01*
X163023384Y-128467236D01*
X162954859Y-128367297D01*
X162798539Y-128241268D01*
X162681813Y-128235920D01*
X162625645Y-128349715D01*
X162623496Y-128391640D01*
X162580557Y-128543539D01*
X162508375Y-128609978D01*
X162347855Y-128651818D01*
X162282016Y-128625762D01*
X162294951Y-128583055D01*
X162295355Y-128578706D01*
X161807469Y-128578706D01*
X161767197Y-128642908D01*
X161664952Y-128653161D01*
X161448334Y-128632337D01*
X161331662Y-128608283D01*
X161226415Y-128556219D01*
X161178619Y-128445823D01*
X161167909Y-128250118D01*
X161151181Y-128004027D01*
X161109706Y-127787887D01*
X161096931Y-127749150D01*
X161062927Y-127610975D01*
X161114208Y-127567464D01*
X161266585Y-127611943D01*
X161342925Y-127645328D01*
X161529460Y-127803536D01*
X161683880Y-128081242D01*
X161784639Y-128417622D01*
X161807469Y-128578706D01*
X162295355Y-128578706D01*
X162305193Y-128473069D01*
X162276735Y-128286330D01*
X162261482Y-128224471D01*
X162113026Y-127930156D01*
X161849319Y-127660806D01*
X161500610Y-127437183D01*
X161097147Y-127280043D01*
X160799034Y-127220801D01*
X160563494Y-127206989D01*
X160452602Y-127246770D01*
G36*
X157672915Y-126519914D02*
X157681436Y-126627675D01*
X157739513Y-126735353D01*
X157805147Y-126779080D01*
X157893906Y-126870548D01*
X157998880Y-127097199D01*
X158117174Y-127449914D01*
X158245895Y-127919575D01*
X158382150Y-128497067D01*
X158448887Y-128807536D01*
X158432835Y-128978922D01*
X158321946Y-129062832D01*
X158152102Y-129035823D01*
X158123115Y-129020381D01*
X158060546Y-128970063D01*
X158121859Y-128950141D01*
X158202149Y-128947485D01*
X158360163Y-128907134D01*
X158396601Y-128808075D01*
X158308425Y-128676079D01*
X158240540Y-128621892D01*
X158013278Y-128527786D01*
X157764865Y-128519784D01*
X157555652Y-128596315D01*
X157504389Y-128641073D01*
X157434979Y-128736245D01*
X157448836Y-128818920D01*
X157558338Y-128939260D01*
X157584083Y-128963950D01*
X157867015Y-129168412D01*
X158175107Y-129284692D01*
X158470312Y-129304563D01*
X158714579Y-129219797D01*
X158726949Y-129211084D01*
X158784484Y-129156368D01*
X158819813Y-129075306D01*
X158835451Y-128940125D01*
X158833916Y-128723049D01*
X158817724Y-128396302D01*
X158811013Y-128283147D01*
X158786981Y-127924720D01*
X158760720Y-127597367D01*
X158735750Y-127341907D01*
X158719074Y-127216762D01*
X158702766Y-127054661D01*
X158747573Y-126990121D01*
X158836934Y-126980229D01*
X158969180Y-126960201D01*
X158976256Y-126906719D01*
X158871946Y-126829684D01*
X158670030Y-126738998D01*
X158384292Y-126644563D01*
X158360159Y-126637688D01*
X158087190Y-126562242D01*
X157869318Y-126504827D01*
X157743415Y-126475068D01*
X157729084Y-126472971D01*
X157672915Y-126519914D01*
X157672915Y-126519914D01*
G37*
X157672915Y-126519914D02*
X157681436Y-126627675D01*
X157739513Y-126735353D01*
X157805147Y-126779080D01*
X157893906Y-126870548D01*
X157998880Y-127097199D01*
X158117174Y-127449914D01*
X158245895Y-127919575D01*
X158382150Y-128497067D01*
X158448887Y-128807536D01*
X158432835Y-128978922D01*
X158321946Y-129062832D01*
X158152102Y-129035823D01*
X158123115Y-129020381D01*
X158060546Y-128970063D01*
X158121859Y-128950141D01*
X158202149Y-128947485D01*
X158360163Y-128907134D01*
X158396601Y-128808075D01*
X158308425Y-128676079D01*
X158240540Y-128621892D01*
X158013278Y-128527786D01*
X157764865Y-128519784D01*
X157555652Y-128596315D01*
X157504389Y-128641073D01*
X157434979Y-128736245D01*
X157448836Y-128818920D01*
X157558338Y-128939260D01*
X157584083Y-128963950D01*
X157867015Y-129168412D01*
X158175107Y-129284692D01*
X158470312Y-129304563D01*
X158714579Y-129219797D01*
X158726949Y-129211084D01*
X158784484Y-129156368D01*
X158819813Y-129075306D01*
X158835451Y-128940125D01*
X158833916Y-128723049D01*
X158817724Y-128396302D01*
X158811013Y-128283147D01*
X158786981Y-127924720D01*
X158760720Y-127597367D01*
X158735750Y-127341907D01*
X158719074Y-127216762D01*
X158702766Y-127054661D01*
X158747573Y-126990121D01*
X158836934Y-126980229D01*
X158969180Y-126960201D01*
X158976256Y-126906719D01*
X158871946Y-126829684D01*
X158670030Y-126738998D01*
X158384292Y-126644563D01*
X158360159Y-126637688D01*
X158087190Y-126562242D01*
X157869318Y-126504827D01*
X157743415Y-126475068D01*
X157729084Y-126472971D01*
X157672915Y-126519914D01*
G36*
X155276869Y-126523856D02*
X155173411Y-126630526D01*
X155162645Y-126782717D01*
X155265389Y-126964423D01*
X155374305Y-127068296D01*
X155527508Y-127192753D01*
X155363754Y-127150782D01*
X155234572Y-127146108D01*
X155200000Y-127226469D01*
X155256474Y-127328255D01*
X155312956Y-127344126D01*
X155369442Y-127367002D01*
X155401752Y-127453597D01*
X155414398Y-127630860D01*
X155411891Y-127925739D01*
X155411694Y-127933995D01*
X155397477Y-128523864D01*
X155121183Y-128479682D01*
X154916030Y-128468365D01*
X154801580Y-128506895D01*
X154796819Y-128513280D01*
X154772435Y-128586836D01*
X154821846Y-128644170D01*
X154968775Y-128699359D01*
X155214840Y-128761360D01*
X155463021Y-128821421D01*
X155672427Y-128876087D01*
X155751110Y-128898945D01*
X155892183Y-128917422D01*
X155951253Y-128897553D01*
X156001853Y-128775426D01*
X155944783Y-128676062D01*
X155865266Y-128654155D01*
X155797978Y-128646424D01*
X155767363Y-128603302D01*
X155772527Y-128494890D01*
X155812572Y-128291291D01*
X155849459Y-128126504D01*
X155918793Y-127848307D01*
X155980790Y-127683629D01*
X156050872Y-127602217D01*
X156130326Y-127575597D01*
X156267282Y-127524614D01*
X156268684Y-127441837D01*
X156136300Y-127343745D01*
X156103800Y-127328176D01*
X155976726Y-127264408D01*
X155975213Y-127225578D01*
X156072531Y-127184628D01*
X156192829Y-127084218D01*
X156195582Y-126935198D01*
X156087578Y-126764643D01*
X155935226Y-126637028D01*
X155678594Y-126511101D01*
X155452203Y-126478712D01*
X155276869Y-126523856D01*
X155276869Y-126523856D01*
G37*
X155276869Y-126523856D02*
X155173411Y-126630526D01*
X155162645Y-126782717D01*
X155265389Y-126964423D01*
X155374305Y-127068296D01*
X155527508Y-127192753D01*
X155363754Y-127150782D01*
X155234572Y-127146108D01*
X155200000Y-127226469D01*
X155256474Y-127328255D01*
X155312956Y-127344126D01*
X155369442Y-127367002D01*
X155401752Y-127453597D01*
X155414398Y-127630860D01*
X155411891Y-127925739D01*
X155411694Y-127933995D01*
X155397477Y-128523864D01*
X155121183Y-128479682D01*
X154916030Y-128468365D01*
X154801580Y-128506895D01*
X154796819Y-128513280D01*
X154772435Y-128586836D01*
X154821846Y-128644170D01*
X154968775Y-128699359D01*
X155214840Y-128761360D01*
X155463021Y-128821421D01*
X155672427Y-128876087D01*
X155751110Y-128898945D01*
X155892183Y-128917422D01*
X155951253Y-128897553D01*
X156001853Y-128775426D01*
X155944783Y-128676062D01*
X155865266Y-128654155D01*
X155797978Y-128646424D01*
X155767363Y-128603302D01*
X155772527Y-128494890D01*
X155812572Y-128291291D01*
X155849459Y-128126504D01*
X155918793Y-127848307D01*
X155980790Y-127683629D01*
X156050872Y-127602217D01*
X156130326Y-127575597D01*
X156267282Y-127524614D01*
X156268684Y-127441837D01*
X156136300Y-127343745D01*
X156103800Y-127328176D01*
X155976726Y-127264408D01*
X155975213Y-127225578D01*
X156072531Y-127184628D01*
X156192829Y-127084218D01*
X156195582Y-126935198D01*
X156087578Y-126764643D01*
X155935226Y-126637028D01*
X155678594Y-126511101D01*
X155452203Y-126478712D01*
X155276869Y-126523856D01*
G36*
X162477937Y-128472206D02*
X162514327Y-128508596D01*
X162550717Y-128472206D01*
X162514327Y-128435817D01*
X162477937Y-128472206D01*
X162477937Y-128472206D01*
G37*
X162477937Y-128472206D02*
X162514327Y-128508596D01*
X162550717Y-128472206D01*
X162514327Y-128435817D01*
X162477937Y-128472206D01*
G36*
X151799865Y-125479234D02*
X151644250Y-125499857D01*
X151599932Y-125528704D01*
X151585361Y-125613842D01*
X151562219Y-125633077D01*
X151489298Y-125753784D01*
X151499623Y-125937944D01*
X151583516Y-126136973D01*
X151688396Y-126266316D01*
X151975682Y-126484888D01*
X152249065Y-126602190D01*
X152484641Y-126611611D01*
X152638167Y-126528997D01*
X152711165Y-126372919D01*
X152672925Y-126200545D01*
X152549595Y-126043662D01*
X152367322Y-125934056D01*
X152152257Y-125903515D01*
X152126145Y-125906576D01*
X151970507Y-125906383D01*
X151929121Y-125861857D01*
X152015534Y-125798769D01*
X152060875Y-125782421D01*
X152267479Y-125784373D01*
X152517019Y-125883863D01*
X152772438Y-126056820D01*
X152996679Y-126279173D01*
X153128402Y-126475829D01*
X153221349Y-126770694D01*
X153230406Y-127091682D01*
X153158723Y-127382018D01*
X153070053Y-127527722D01*
X152862914Y-127691550D01*
X152611056Y-127780602D01*
X152344696Y-127800561D01*
X152094047Y-127757113D01*
X151889324Y-127655940D01*
X151760742Y-127502728D01*
X151738517Y-127303160D01*
X151743955Y-127278250D01*
X151736913Y-127102565D01*
X151607476Y-127004513D01*
X151427885Y-126981344D01*
X151315688Y-126995919D01*
X151285865Y-127070180D01*
X151310066Y-127215695D01*
X151426889Y-127537519D01*
X151631937Y-127771915D01*
X151881156Y-127922787D01*
X152231675Y-128033816D01*
X152630436Y-128069865D01*
X153017970Y-128030603D01*
X153307813Y-127930701D01*
X153614542Y-127725711D01*
X153787620Y-127499731D01*
X153838858Y-127237199D01*
X153838707Y-127230963D01*
X153781641Y-126985625D01*
X153638133Y-126687030D01*
X153432291Y-126376609D01*
X153188224Y-126095795D01*
X153164985Y-126073177D01*
X153029905Y-125923590D01*
X153005772Y-125831879D01*
X153034634Y-125798936D01*
X153080234Y-125753369D01*
X153016619Y-125757014D01*
X152886864Y-125746984D01*
X152719617Y-125696258D01*
X152565209Y-125625945D01*
X152473965Y-125557154D01*
X152469089Y-125527369D01*
X152420368Y-125500088D01*
X152260982Y-125480195D01*
X152032811Y-125472127D01*
X151799865Y-125479234D01*
X151799865Y-125479234D01*
G37*
X151799865Y-125479234D02*
X151644250Y-125499857D01*
X151599932Y-125528704D01*
X151585361Y-125613842D01*
X151562219Y-125633077D01*
X151489298Y-125753784D01*
X151499623Y-125937944D01*
X151583516Y-126136973D01*
X151688396Y-126266316D01*
X151975682Y-126484888D01*
X152249065Y-126602190D01*
X152484641Y-126611611D01*
X152638167Y-126528997D01*
X152711165Y-126372919D01*
X152672925Y-126200545D01*
X152549595Y-126043662D01*
X152367322Y-125934056D01*
X152152257Y-125903515D01*
X152126145Y-125906576D01*
X151970507Y-125906383D01*
X151929121Y-125861857D01*
X152015534Y-125798769D01*
X152060875Y-125782421D01*
X152267479Y-125784373D01*
X152517019Y-125883863D01*
X152772438Y-126056820D01*
X152996679Y-126279173D01*
X153128402Y-126475829D01*
X153221349Y-126770694D01*
X153230406Y-127091682D01*
X153158723Y-127382018D01*
X153070053Y-127527722D01*
X152862914Y-127691550D01*
X152611056Y-127780602D01*
X152344696Y-127800561D01*
X152094047Y-127757113D01*
X151889324Y-127655940D01*
X151760742Y-127502728D01*
X151738517Y-127303160D01*
X151743955Y-127278250D01*
X151736913Y-127102565D01*
X151607476Y-127004513D01*
X151427885Y-126981344D01*
X151315688Y-126995919D01*
X151285865Y-127070180D01*
X151310066Y-127215695D01*
X151426889Y-127537519D01*
X151631937Y-127771915D01*
X151881156Y-127922787D01*
X152231675Y-128033816D01*
X152630436Y-128069865D01*
X153017970Y-128030603D01*
X153307813Y-127930701D01*
X153614542Y-127725711D01*
X153787620Y-127499731D01*
X153838858Y-127237199D01*
X153838707Y-127230963D01*
X153781641Y-126985625D01*
X153638133Y-126687030D01*
X153432291Y-126376609D01*
X153188224Y-126095795D01*
X153164985Y-126073177D01*
X153029905Y-125923590D01*
X153005772Y-125831879D01*
X153034634Y-125798936D01*
X153080234Y-125753369D01*
X153016619Y-125757014D01*
X152886864Y-125746984D01*
X152719617Y-125696258D01*
X152565209Y-125625945D01*
X152473965Y-125557154D01*
X152469089Y-125527369D01*
X152420368Y-125500088D01*
X152260982Y-125480195D01*
X152032811Y-125472127D01*
X151799865Y-125479234D01*
G36*
X157456161Y-126943839D02*
X157492551Y-126980229D01*
X157528940Y-126943839D01*
X157492551Y-126907450D01*
X157456161Y-126943839D01*
X157456161Y-126943839D01*
G37*
X157456161Y-126943839D02*
X157492551Y-126980229D01*
X157528940Y-126943839D01*
X157492551Y-126907450D01*
X157456161Y-126943839D01*
G36*
X155211245Y-126354655D02*
X155133727Y-126422309D01*
X155127221Y-126438679D01*
X155161760Y-126468592D01*
X155233671Y-126401564D01*
X155243340Y-126386749D01*
X155251918Y-126336947D01*
X155211245Y-126354655D01*
X155211245Y-126354655D01*
G37*
X155211245Y-126354655D02*
X155133727Y-126422309D01*
X155127221Y-126438679D01*
X155161760Y-126468592D01*
X155233671Y-126401564D01*
X155243340Y-126386749D01*
X155251918Y-126336947D01*
X155211245Y-126354655D01*
G36*
X156000573Y-126361604D02*
X156036963Y-126397994D01*
X156073353Y-126361604D01*
X156036963Y-126325215D01*
X156000573Y-126361604D01*
X156000573Y-126361604D01*
G37*
X156000573Y-126361604D02*
X156036963Y-126397994D01*
X156073353Y-126361604D01*
X156036963Y-126325215D01*
X156000573Y-126361604D01*
G36*
X151924929Y-125269914D02*
X151961318Y-125306304D01*
X151997708Y-125269914D01*
X151961318Y-125233524D01*
X151924929Y-125269914D01*
X151924929Y-125269914D01*
G37*
X151924929Y-125269914D02*
X151961318Y-125306304D01*
X151997708Y-125269914D01*
X151961318Y-125233524D01*
X151924929Y-125269914D01*
G36*
X150361572Y-124424405D02*
X150662494Y-124618474D01*
X150887823Y-124679993D01*
X151075725Y-124701521D01*
X151185472Y-124701924D01*
X151197135Y-124695398D01*
X151137296Y-124623441D01*
X150985869Y-124517381D01*
X150784992Y-124400604D01*
X150576801Y-124296496D01*
X150403432Y-124228445D01*
X150330899Y-124214613D01*
X150144633Y-124214613D01*
X150361572Y-124424405D01*
X150361572Y-124424405D01*
G37*
X150361572Y-124424405D02*
X150662494Y-124618474D01*
X150887823Y-124679993D01*
X151075725Y-124701521D01*
X151185472Y-124701924D01*
X151197135Y-124695398D01*
X151137296Y-124623441D01*
X150985869Y-124517381D01*
X150784992Y-124400604D01*
X150576801Y-124296496D01*
X150403432Y-124228445D01*
X150330899Y-124214613D01*
X150144633Y-124214613D01*
X150361572Y-124424405D01*
G36*
X167268002Y-119261328D02*
X166910667Y-119453233D01*
X166567611Y-119748194D01*
X166257350Y-120125855D01*
X165998400Y-120565858D01*
X165809276Y-121047849D01*
X165759090Y-121239912D01*
X165728885Y-121425938D01*
X165694058Y-121722326D01*
X165658163Y-122094108D01*
X165624753Y-122506318D01*
X165612048Y-122687107D01*
X165580499Y-123105842D01*
X165544417Y-123499059D01*
X165507464Y-123831824D01*
X165473304Y-124069204D01*
X165460388Y-124133244D01*
X165418921Y-124326060D01*
X165402084Y-124445865D01*
X165404782Y-124463651D01*
X165479000Y-124448530D01*
X165649311Y-124397510D01*
X165816789Y-124342476D01*
X166061234Y-124278025D01*
X166397253Y-124213609D01*
X166771172Y-124158773D01*
X166981259Y-124135407D01*
X167546635Y-124078859D01*
X167990653Y-124028198D01*
X168337139Y-123978863D01*
X168609918Y-123926293D01*
X168832815Y-123865928D01*
X169029658Y-123793206D01*
X169216060Y-123707619D01*
X169559756Y-123498121D01*
X169890828Y-123225560D01*
X170177627Y-122922489D01*
X170388504Y-122621465D01*
X170480454Y-122407066D01*
X170506675Y-122050314D01*
X170404662Y-121710830D01*
X170191449Y-121415025D01*
X169884073Y-121189306D01*
X169630500Y-121089476D01*
X169335397Y-121026759D01*
X169088719Y-121032701D01*
X168809211Y-121109858D01*
X168792386Y-121115820D01*
X168520301Y-121212930D01*
X168569927Y-121021651D01*
X168621119Y-120647419D01*
X168600926Y-120252235D01*
X168514629Y-119902337D01*
X168473305Y-119809569D01*
X168270220Y-119526151D01*
X168007274Y-119314114D01*
X167724880Y-119202704D01*
X167621098Y-119192837D01*
X167268002Y-119261328D01*
X167268002Y-119261328D01*
G37*
X167268002Y-119261328D02*
X166910667Y-119453233D01*
X166567611Y-119748194D01*
X166257350Y-120125855D01*
X165998400Y-120565858D01*
X165809276Y-121047849D01*
X165759090Y-121239912D01*
X165728885Y-121425938D01*
X165694058Y-121722326D01*
X165658163Y-122094108D01*
X165624753Y-122506318D01*
X165612048Y-122687107D01*
X165580499Y-123105842D01*
X165544417Y-123499059D01*
X165507464Y-123831824D01*
X165473304Y-124069204D01*
X165460388Y-124133244D01*
X165418921Y-124326060D01*
X165402084Y-124445865D01*
X165404782Y-124463651D01*
X165479000Y-124448530D01*
X165649311Y-124397510D01*
X165816789Y-124342476D01*
X166061234Y-124278025D01*
X166397253Y-124213609D01*
X166771172Y-124158773D01*
X166981259Y-124135407D01*
X167546635Y-124078859D01*
X167990653Y-124028198D01*
X168337139Y-123978863D01*
X168609918Y-123926293D01*
X168832815Y-123865928D01*
X169029658Y-123793206D01*
X169216060Y-123707619D01*
X169559756Y-123498121D01*
X169890828Y-123225560D01*
X170177627Y-122922489D01*
X170388504Y-122621465D01*
X170480454Y-122407066D01*
X170506675Y-122050314D01*
X170404662Y-121710830D01*
X170191449Y-121415025D01*
X169884073Y-121189306D01*
X169630500Y-121089476D01*
X169335397Y-121026759D01*
X169088719Y-121032701D01*
X168809211Y-121109858D01*
X168792386Y-121115820D01*
X168520301Y-121212930D01*
X168569927Y-121021651D01*
X168621119Y-120647419D01*
X168600926Y-120252235D01*
X168514629Y-119902337D01*
X168473305Y-119809569D01*
X168270220Y-119526151D01*
X168007274Y-119314114D01*
X167724880Y-119202704D01*
X167621098Y-119192837D01*
X167268002Y-119261328D01*
%LPC*%
D12*
X136000000Y-123500000D03*
D13*
X136000000Y-125500000D03*
X136000000Y-127500000D03*
X136000000Y-129500000D03*
X136000000Y-131500000D03*
X136000000Y-133500000D03*
X136000000Y-135500000D03*
X138000000Y-123500000D03*
X138000000Y-125500000D03*
X138000000Y-127500000D03*
X138000000Y-129500000D03*
X138000000Y-131500000D03*
X138000000Y-133500000D03*
X138000000Y-135500000D03*
D14*
X165750000Y-141250000D03*
X163750000Y-141250000D03*
D10*
G36*
X125908852Y-79542610D02*
X128307390Y-79458852D01*
X128391148Y-81857390D01*
X125992610Y-81941148D01*
X125908852Y-79542610D01*
X125908852Y-79542610D01*
G37*
D15*
X124611547Y-80788645D03*
D10*
G36*
X143444671Y-60171314D02*
X143778686Y-57794671D01*
X146155329Y-58128686D01*
X145821314Y-60505329D01*
X143444671Y-60171314D01*
X143444671Y-60171314D01*
G37*
D15*
X144446500Y-61665281D03*
D10*
G36*
X164832008Y-60618860D02*
X164581140Y-58232008D01*
X166967992Y-57981140D01*
X167218860Y-60367992D01*
X164832008Y-60618860D01*
X164832008Y-60618860D01*
G37*
D15*
X166165502Y-61826086D03*
D10*
G36*
X184307390Y-81941148D02*
X181908852Y-81857390D01*
X181992610Y-79458852D01*
X184391148Y-79542610D01*
X184307390Y-81941148D01*
X184307390Y-81941148D01*
G37*
D15*
X185688453Y-80788645D03*
D16*
X149110000Y-142220000D03*
D17*
X146570000Y-142220000D03*
X144030000Y-142220000D03*
X141490000Y-142220000D03*
D18*
X177000000Y-82000000D03*
D19*
X174460000Y-82000000D03*
D20*
X172750000Y-96250000D03*
D21*
X172750000Y-98790000D03*
X170210000Y-96250000D03*
X170210000Y-98790000D03*
X167670000Y-96250000D03*
X167670000Y-98790000D03*
D20*
X142500000Y-96250000D03*
D21*
X142500000Y-98790000D03*
X139960000Y-96250000D03*
X139960000Y-98790000D03*
X137420000Y-96250000D03*
X137420000Y-98790000D03*
D10*
G36*
X184322821Y-84957697D02*
X181892303Y-84872821D01*
X181977179Y-82442303D01*
X184407697Y-82527179D01*
X184322821Y-84957697D01*
X184322821Y-84957697D01*
G37*
D22*
X185688453Y-83788645D02*
X185688453Y-83788645D01*
D10*
G36*
X162192768Y-60886445D02*
X161938555Y-58467768D01*
X164357232Y-58213555D01*
X164611445Y-60632232D01*
X162192768Y-60886445D01*
X162192768Y-60886445D01*
G37*
D22*
X163540502Y-62076086D02*
X163540502Y-62076086D01*
D10*
G36*
X125892303Y-82527179D02*
X128322821Y-82442303D01*
X128407697Y-84872821D01*
X125977179Y-84957697D01*
X125892303Y-82527179D01*
X125892303Y-82527179D01*
G37*
D22*
X124611547Y-83788645D02*
X124611547Y-83788645D01*
D10*
G36*
X146026600Y-60534931D02*
X146365069Y-58126600D01*
X148773400Y-58465069D01*
X148434931Y-60873400D01*
X146026600Y-60534931D01*
X146026600Y-60534931D01*
G37*
D22*
X147046500Y-62015281D02*
X147046500Y-62015281D01*
D23*
X159000000Y-141300000D03*
X159000000Y-139700000D03*
X160750000Y-139700000D03*
X160750000Y-141300000D03*
D12*
X134650000Y-139200000D03*
D13*
X136650000Y-139200000D03*
D12*
X173650000Y-139200000D03*
D13*
X175650000Y-139200000D03*
M02*
