G04 #@! TF.FileFunction,Copper,L1,Top,Signal*
%FSLAX46Y46*%
G04 Gerber Fmt 4.6, Leading zero omitted, Abs format (unit mm)*
G04 Created by KiCad (PCBNEW 4.0.1-stable) date 2016/10/17 21:23:02*
%MOMM*%
G01*
G04 APERTURE LIST*
%ADD10C,0.100000*%
%ADD11R,0.300000X0.850000*%
%ADD12R,0.850000X0.300000*%
%ADD13R,1.000000X0.250000*%
%ADD14R,0.250000X1.000000*%
%ADD15R,1.350000X1.350000*%
%ADD16C,1.350000*%
%ADD17R,0.750000X1.200000*%
%ADD18R,1.600200X2.600960*%
%ADD19O,1.506220X3.014980*%
%ADD20R,1.200000X0.750000*%
%ADD21R,0.797560X0.797560*%
%ADD22C,2.000000*%
%ADD23R,0.400000X1.000000*%
%ADD24R,1.727200X2.032000*%
%ADD25O,1.727200X2.032000*%
%ADD26R,1.060000X0.650000*%
%ADD27R,2.032000X2.032000*%
%ADD28O,2.032000X2.032000*%
%ADD29R,1.727200X1.727200*%
%ADD30O,1.727200X1.727200*%
%ADD31R,0.304800X0.508000*%
%ADD32R,0.800100X0.800100*%
%ADD33C,2.032000*%
%ADD34R,0.320000X0.300000*%
%ADD35R,0.320000X0.220000*%
%ADD36R,1.000000X0.600000*%
%ADD37R,0.600000X1.000000*%
%ADD38C,1.524000*%
%ADD39R,4.000000X3.000000*%
%ADD40R,1.050000X0.750000*%
%ADD41R,1.200000X1.400000*%
%ADD42R,1.500000X1.750000*%
%ADD43C,1.000000*%
%ADD44C,1.500000*%
%ADD45C,0.600000*%
%ADD46C,0.500000*%
%ADD47C,0.400000*%
%ADD48C,0.800000*%
%ADD49C,1.500000*%
%ADD50C,1.000000*%
%ADD51C,0.500000*%
%ADD52C,2.000000*%
%ADD53C,0.250000*%
%ADD54C,0.800000*%
%ADD55C,0.254000*%
G04 APERTURE END LIST*
D10*
D11*
X152800000Y-141300000D03*
X153300000Y-141300000D03*
X153800000Y-141300000D03*
X154300000Y-141300000D03*
X154800000Y-141300000D03*
X155300000Y-141300000D03*
D12*
X156000000Y-140600000D03*
X156000000Y-140100000D03*
X156000000Y-139600000D03*
X156000000Y-139100000D03*
X156000000Y-138600000D03*
X156000000Y-138100000D03*
D11*
X155300000Y-137400000D03*
X154800000Y-137400000D03*
X154300000Y-137400000D03*
X153800000Y-137400000D03*
X153300000Y-137400000D03*
X152800000Y-137400000D03*
D12*
X152100000Y-138100000D03*
X152100000Y-138600000D03*
X152100000Y-139100000D03*
X152100000Y-139600000D03*
X152100000Y-140100000D03*
X152100000Y-140600000D03*
D13*
X148050000Y-125500000D03*
X148050000Y-126000000D03*
X148050000Y-126500000D03*
X148050000Y-127000000D03*
X148050000Y-127500000D03*
X148050000Y-128000000D03*
X148050000Y-128500000D03*
X148050000Y-129000000D03*
X148050000Y-129500000D03*
X148050000Y-130000000D03*
X148050000Y-130500000D03*
X148050000Y-131000000D03*
X148050000Y-131500000D03*
X148050000Y-132000000D03*
X148050000Y-132500000D03*
X148050000Y-133000000D03*
D14*
X150000000Y-134950000D03*
X150500000Y-134950000D03*
X151000000Y-134950000D03*
X151500000Y-134950000D03*
X152000000Y-134950000D03*
X152500000Y-134950000D03*
X153000000Y-134950000D03*
X153500000Y-134950000D03*
X154000000Y-134950000D03*
X154500000Y-134950000D03*
X155000000Y-134950000D03*
X155500000Y-134950000D03*
X156000000Y-134950000D03*
X156500000Y-134950000D03*
X157000000Y-134950000D03*
X157500000Y-134950000D03*
D13*
X159450000Y-133000000D03*
X159450000Y-132500000D03*
X159450000Y-132000000D03*
X159450000Y-131500000D03*
X159450000Y-131000000D03*
X159450000Y-130500000D03*
X159450000Y-130000000D03*
X159450000Y-129500000D03*
X159450000Y-129000000D03*
X159450000Y-128500000D03*
X159450000Y-128000000D03*
X159450000Y-127500000D03*
X159450000Y-127000000D03*
X159450000Y-126500000D03*
X159450000Y-126000000D03*
X159450000Y-125500000D03*
D14*
X157500000Y-123550000D03*
X157000000Y-123550000D03*
X156500000Y-123550000D03*
X156000000Y-123550000D03*
X155500000Y-123550000D03*
X155000000Y-123550000D03*
X154500000Y-123550000D03*
X154000000Y-123550000D03*
X153500000Y-123550000D03*
X153000000Y-123550000D03*
X152500000Y-123550000D03*
X152000000Y-123550000D03*
X151500000Y-123550000D03*
X151000000Y-123550000D03*
X150500000Y-123550000D03*
X150000000Y-123550000D03*
D15*
X136000000Y-123500000D03*
D16*
X136000000Y-125500000D03*
X136000000Y-127500000D03*
X136000000Y-129500000D03*
X136000000Y-131500000D03*
X136000000Y-133500000D03*
X136000000Y-135500000D03*
X138000000Y-123500000D03*
X138000000Y-125500000D03*
X138000000Y-127500000D03*
X138000000Y-129500000D03*
X138000000Y-131500000D03*
X138000000Y-133500000D03*
X138000000Y-135500000D03*
D17*
X148250000Y-137050000D03*
X148250000Y-138950000D03*
D18*
X168500000Y-120699140D03*
X168500000Y-124300860D03*
D19*
X165750000Y-141250000D03*
X163750000Y-141250000D03*
D20*
X168050000Y-93000000D03*
X169950000Y-93000000D03*
X143450000Y-103750000D03*
X141550000Y-103750000D03*
X140450000Y-92750000D03*
X138550000Y-92750000D03*
X176950000Y-86000000D03*
X175050000Y-86000000D03*
D17*
X152000000Y-120650000D03*
X152000000Y-118750000D03*
X155200000Y-118750000D03*
X155200000Y-120650000D03*
X147775000Y-120650000D03*
X147775000Y-118750000D03*
X146000000Y-120675000D03*
X146000000Y-118775000D03*
X144700000Y-131450000D03*
X144700000Y-129550000D03*
D20*
X140800000Y-123250000D03*
X142700000Y-123250000D03*
D17*
X162500000Y-130950000D03*
X162500000Y-129050000D03*
D20*
X173050000Y-127500000D03*
X174950000Y-127500000D03*
D17*
X164000000Y-129050000D03*
X164000000Y-130950000D03*
D18*
X174000000Y-120699140D03*
X174000000Y-124300860D03*
D20*
X136300000Y-64750000D03*
X138200000Y-64750000D03*
D17*
X146750000Y-138950000D03*
X146750000Y-137050000D03*
X150400000Y-120650000D03*
X150400000Y-118750000D03*
D20*
X171800000Y-64750000D03*
X173700000Y-64750000D03*
D17*
X153600000Y-120650000D03*
X153600000Y-118750000D03*
D20*
X176950000Y-84500000D03*
X175050000Y-84500000D03*
D21*
X120899300Y-141700000D03*
X119400700Y-141700000D03*
X125399300Y-141700000D03*
X123900700Y-141700000D03*
X184900700Y-141700000D03*
X186399300Y-141700000D03*
X189400700Y-141700000D03*
X190899300Y-141700000D03*
X144725000Y-137450700D03*
X144725000Y-138949300D03*
X131000000Y-133750700D03*
X131000000Y-135249300D03*
D10*
G36*
X126115710Y-79735509D02*
X128114491Y-79665710D01*
X128184290Y-81664491D01*
X126185509Y-81734290D01*
X126115710Y-79735509D01*
X126115710Y-79735509D01*
G37*
D22*
X124611547Y-80788645D03*
D10*
G36*
X143670559Y-60001095D02*
X143948905Y-58020559D01*
X145929441Y-58298905D01*
X145651095Y-60279441D01*
X143670559Y-60001095D01*
X143670559Y-60001095D01*
G37*
D22*
X144446500Y-61665281D03*
D10*
G36*
X165010007Y-60399050D02*
X164800950Y-58410007D01*
X166789993Y-58200950D01*
X166999050Y-60189993D01*
X165010007Y-60399050D01*
X165010007Y-60399050D01*
G37*
D22*
X166165502Y-61826086D03*
D10*
G36*
X184114491Y-81734290D02*
X182115710Y-81664491D01*
X182185509Y-79665710D01*
X184184290Y-79735509D01*
X184114491Y-81734290D01*
X184114491Y-81734290D01*
G37*
D22*
X185688453Y-80788645D03*
D21*
X170249300Y-140900000D03*
X168750700Y-140900000D03*
D23*
X155725000Y-104150000D03*
X156375000Y-104150000D03*
X157025000Y-104150000D03*
X157675000Y-104150000D03*
X158325000Y-104150000D03*
X158975000Y-104150000D03*
X159625000Y-104150000D03*
X160275000Y-104150000D03*
X160275000Y-98350000D03*
X159625000Y-98350000D03*
X158975000Y-98350000D03*
X158325000Y-98350000D03*
X157675000Y-98350000D03*
X157025000Y-98350000D03*
X156375000Y-98350000D03*
X155725000Y-98350000D03*
X149725000Y-104150000D03*
X150375000Y-104150000D03*
X151025000Y-104150000D03*
X151675000Y-104150000D03*
X152325000Y-104150000D03*
X152975000Y-104150000D03*
X153625000Y-104150000D03*
X154275000Y-104150000D03*
X154275000Y-98350000D03*
X153625000Y-98350000D03*
X152975000Y-98350000D03*
X152325000Y-98350000D03*
X151675000Y-98350000D03*
X151025000Y-98350000D03*
X150375000Y-98350000D03*
X149725000Y-98350000D03*
D24*
X149110000Y-142220000D03*
D25*
X146570000Y-142220000D03*
X144030000Y-142220000D03*
X141490000Y-142220000D03*
D26*
X172900000Y-129550000D03*
X172900000Y-130500000D03*
X172900000Y-131450000D03*
X175100000Y-131450000D03*
X175100000Y-129550000D03*
X167400000Y-129550000D03*
X167400000Y-130500000D03*
X167400000Y-131450000D03*
X169600000Y-131450000D03*
X169600000Y-129550000D03*
D27*
X177000000Y-82000000D03*
D28*
X174460000Y-82000000D03*
D29*
X172750000Y-96250000D03*
D30*
X172750000Y-98790000D03*
X170210000Y-96250000D03*
X170210000Y-98790000D03*
X167670000Y-96250000D03*
X167670000Y-98790000D03*
D29*
X142500000Y-96250000D03*
D30*
X142500000Y-98790000D03*
X139960000Y-96250000D03*
X139960000Y-98790000D03*
X137420000Y-96250000D03*
X137420000Y-98790000D03*
D31*
X163150000Y-53216000D03*
X163785000Y-51184000D03*
X162515000Y-51184000D03*
X163785000Y-53216000D03*
X163150000Y-51184000D03*
X162515000Y-53216000D03*
D32*
X168799240Y-134950000D03*
X168799240Y-136850000D03*
X170798220Y-135900000D03*
D10*
G36*
X184129923Y-84750839D02*
X182099161Y-84679923D01*
X182170077Y-82649161D01*
X184200839Y-82720077D01*
X184129923Y-84750839D01*
X184129923Y-84750839D01*
G37*
D33*
X185688453Y-83788645D02*
X185688453Y-83788645D01*
D10*
G36*
X162370767Y-60666635D02*
X162158365Y-58645767D01*
X164179233Y-58433365D01*
X164391635Y-60454233D01*
X162370767Y-60666635D01*
X162370767Y-60666635D01*
G37*
D33*
X163540502Y-62076086D02*
X163540502Y-62076086D01*
D34*
X129500000Y-75475000D03*
D35*
X129100000Y-76525000D03*
X129900000Y-76525000D03*
D10*
G36*
X126099161Y-82720077D02*
X128129923Y-82649161D01*
X128200839Y-84679923D01*
X126170077Y-84750839D01*
X126099161Y-82720077D01*
X126099161Y-82720077D01*
G37*
D33*
X124611547Y-83788645D02*
X124611547Y-83788645D01*
D10*
G36*
X146252488Y-60364712D02*
X146535288Y-58352488D01*
X148547512Y-58635288D01*
X148264712Y-60647512D01*
X146252488Y-60364712D01*
X146252488Y-60364712D01*
G37*
D33*
X147046500Y-62015281D02*
X147046500Y-62015281D01*
D34*
X180500000Y-75475000D03*
D35*
X180100000Y-76525000D03*
X180900000Y-76525000D03*
D36*
X119750000Y-140000000D03*
X121250000Y-140000000D03*
X123750000Y-140000000D03*
X125250000Y-140000000D03*
X186000000Y-139200000D03*
X184500000Y-139200000D03*
X187450000Y-139200000D03*
X188950000Y-139200000D03*
X142750000Y-137500000D03*
X141250000Y-137500000D03*
D37*
X132500000Y-135250000D03*
X132500000Y-133750000D03*
D36*
X144250000Y-124750000D03*
X145750000Y-124750000D03*
X141250000Y-127250000D03*
X142750000Y-127250000D03*
D37*
X167400000Y-136750000D03*
X167400000Y-135250000D03*
D36*
X146000000Y-123250000D03*
X144500000Y-123250000D03*
X145750000Y-126250000D03*
X144250000Y-126250000D03*
D37*
X164000000Y-126250000D03*
X164000000Y-124750000D03*
X162500000Y-124750000D03*
X162500000Y-126250000D03*
D36*
X142750000Y-133000000D03*
X141250000Y-133000000D03*
D37*
X149750000Y-138500000D03*
X149750000Y-137000000D03*
X180500000Y-82500000D03*
X180500000Y-81000000D03*
D36*
X136500000Y-66250000D03*
X138000000Y-66250000D03*
X172000000Y-67500000D03*
X173500000Y-67500000D03*
D37*
X121150000Y-79450000D03*
X121150000Y-80950000D03*
D36*
X136500000Y-67500000D03*
X138000000Y-67500000D03*
D37*
X130150000Y-82450000D03*
X130150000Y-80950000D03*
D36*
X172000000Y-66000000D03*
X173500000Y-66000000D03*
D37*
X188650000Y-80950000D03*
X188650000Y-79450000D03*
D38*
X159000000Y-141300000D03*
X159000000Y-139700000D03*
X160750000Y-139700000D03*
X160750000Y-141300000D03*
D36*
X165500000Y-53500000D03*
X167000000Y-53500000D03*
X140750000Y-121250000D03*
X139250000Y-121250000D03*
X174570000Y-72380000D03*
X176070000Y-72380000D03*
X158750000Y-61000000D03*
X160250000Y-61000000D03*
X178150000Y-134800000D03*
X179650000Y-134800000D03*
X175850000Y-134800000D03*
X174350000Y-134800000D03*
D39*
X159125000Y-57025000D03*
X159125000Y-52525000D03*
X151625000Y-57025000D03*
X151625000Y-52525000D03*
D15*
X134650000Y-139200000D03*
D16*
X136650000Y-139200000D03*
D40*
X127575000Y-138675000D03*
X131725000Y-138675000D03*
X127575000Y-140725000D03*
X131725000Y-140725000D03*
D15*
X173650000Y-139200000D03*
D16*
X175650000Y-139200000D03*
D40*
X178575000Y-138675000D03*
X182725000Y-138675000D03*
X178575000Y-140725000D03*
X182725000Y-140725000D03*
D41*
X142650000Y-129100000D03*
X140950000Y-129100000D03*
X140950000Y-131300000D03*
X142650000Y-131300000D03*
D20*
X167050000Y-102250000D03*
X168950000Y-102250000D03*
X170050000Y-91500000D03*
X171950000Y-91500000D03*
X138450000Y-91250000D03*
X136550000Y-91250000D03*
X143450000Y-102250000D03*
X141550000Y-102250000D03*
X167050000Y-103750000D03*
X168950000Y-103750000D03*
D42*
X177960000Y-77870000D03*
X173260000Y-77870000D03*
D32*
X174420000Y-75910000D03*
X176320000Y-75910000D03*
X175370000Y-73911020D03*
D43*
X165750000Y-137250000D03*
X165700000Y-135800000D03*
D44*
X165350000Y-92824990D03*
D43*
X149550000Y-96699995D03*
X158400000Y-97200020D03*
X158400000Y-101800000D03*
X152300000Y-101800000D03*
X163750001Y-102849999D03*
X163750001Y-103700000D03*
D22*
X170800000Y-137280000D03*
D43*
X143460000Y-101299997D03*
X143464688Y-103949990D03*
D45*
X175840000Y-133980000D03*
X173970000Y-132330000D03*
D46*
X167412500Y-129012499D03*
D44*
X173647856Y-91459589D03*
X173650224Y-88639354D03*
D43*
X172825544Y-74780180D03*
X143400000Y-114490000D03*
X166700000Y-103400012D03*
X154500000Y-105000000D03*
X154400000Y-97400000D03*
X160300000Y-105175000D03*
X160300000Y-97200000D03*
X166800000Y-108100000D03*
X168200000Y-108100000D03*
X143400000Y-113400000D03*
X143450000Y-107000000D03*
X166700000Y-102600000D03*
X167700000Y-114200000D03*
X166700000Y-114200000D03*
D47*
X167015748Y-126792914D03*
D46*
X170798220Y-131450000D03*
D43*
X171200000Y-128900000D03*
X171200000Y-128900000D03*
D46*
X169770000Y-66870000D03*
X172800000Y-118800000D03*
X171950000Y-91500000D03*
D48*
X176766467Y-120650000D03*
X175772992Y-131398326D03*
D46*
X135400000Y-78450000D03*
X135400000Y-100350000D03*
D45*
X162791754Y-126225911D03*
D46*
X147674998Y-94599945D03*
X153030000Y-103020000D03*
X176500000Y-122500000D03*
X177000000Y-137000000D03*
X149200000Y-103100000D03*
X152704329Y-133660926D03*
X162225041Y-130945143D03*
D45*
X153501563Y-136400002D03*
D46*
X162500000Y-123600000D03*
X142956998Y-123604982D03*
X142746838Y-126087002D03*
X134500000Y-127500000D03*
X138000000Y-119000000D03*
X143000000Y-119000000D03*
X141250000Y-137500000D03*
X131725000Y-140725000D03*
X127575000Y-140725000D03*
X149000000Y-119000000D03*
X168259767Y-93203434D03*
X163080000Y-127860000D03*
X155499994Y-137400000D03*
X151574903Y-130500000D03*
D48*
X163075061Y-132234053D03*
D45*
X151125016Y-123939980D03*
D46*
X146959981Y-95299955D03*
X146975000Y-92775000D03*
X146959981Y-117006579D03*
X146959981Y-98350000D03*
X165500000Y-95500000D03*
D43*
X169000000Y-132050000D03*
X168500000Y-120699140D03*
D46*
X140324980Y-123250000D03*
X140324980Y-127250000D03*
X140694942Y-121171148D03*
D45*
X152000000Y-135780721D03*
D46*
X141000000Y-117500000D03*
X131100000Y-80960000D03*
X179187809Y-81262829D03*
X168750700Y-140900000D03*
X138150000Y-57000000D03*
X174000000Y-124300860D03*
X138200000Y-64750000D03*
X129900000Y-76525000D03*
D45*
X165500000Y-126000000D03*
D48*
X157750000Y-143250000D03*
D45*
X173000000Y-126299999D03*
X172900000Y-130500000D03*
X165500000Y-121000000D03*
D46*
X148990000Y-124720000D03*
X149000000Y-120500000D03*
X141934286Y-120864478D03*
X140950000Y-129100000D03*
D45*
X169580000Y-127024989D03*
X169580000Y-129994988D03*
D46*
X151068401Y-138668401D03*
X148850000Y-138950000D03*
D45*
X155125000Y-139150000D03*
X149350000Y-139725000D03*
D46*
X146022799Y-131600517D03*
X142000025Y-139374980D03*
X142625020Y-135150043D03*
X145165270Y-134773381D03*
X143190714Y-135715737D03*
X143000000Y-139000000D03*
X146959115Y-132849956D03*
X147000000Y-135499975D03*
X161025064Y-131379700D03*
X168650000Y-143550000D03*
X161800000Y-137300000D03*
X159900000Y-136800000D03*
X161222657Y-129940381D03*
X161400000Y-133600000D03*
X161400000Y-135800000D03*
X161950000Y-144250000D03*
X145510000Y-137370000D03*
X149014171Y-126762366D03*
X152785010Y-125200010D03*
X152090000Y-122180000D03*
D45*
X171173051Y-140543051D03*
X174360656Y-135649324D03*
D46*
X156736061Y-103000020D03*
X155938253Y-133072498D03*
X156823392Y-133042216D03*
X157595357Y-103029562D03*
D45*
X174000000Y-106900000D03*
D46*
X156000000Y-111600000D03*
X161800000Y-99600000D03*
X161000000Y-111600000D03*
X154049200Y-133297821D03*
X156938537Y-132351739D03*
X156800000Y-99700000D03*
X150300000Y-107700000D03*
X155361609Y-107788415D03*
X154533786Y-132734783D03*
X150351894Y-103401621D03*
X155944121Y-133827150D03*
X151000000Y-107100000D03*
X155648782Y-107150020D03*
X151050000Y-103350000D03*
D45*
X146100000Y-105800000D03*
D46*
X148425000Y-108300000D03*
X148450000Y-97525000D03*
X154947793Y-108353015D03*
X153396224Y-133550088D03*
X146900000Y-132080000D03*
X148050602Y-133330568D03*
X158850000Y-138300000D03*
X160925108Y-126104505D03*
X161106557Y-125428418D03*
X159604329Y-138393437D03*
X160739670Y-127114820D03*
X155124988Y-139963188D03*
X151100000Y-139449989D03*
X160525009Y-123540000D03*
X151280000Y-109760000D03*
X165300000Y-110900000D03*
D47*
X152600267Y-133019298D03*
X164850000Y-98800002D03*
D46*
X154400000Y-109300000D03*
X164500000Y-110300000D03*
D47*
X152717319Y-132430814D03*
D46*
X150500684Y-109499916D03*
X136000000Y-109500000D03*
D47*
X151500000Y-133500000D03*
D46*
X149654389Y-108941234D03*
X137400000Y-108900000D03*
D45*
X151000000Y-135780721D03*
D46*
X179800000Y-68900000D03*
X166400016Y-116600000D03*
X166396853Y-133400231D03*
X180500000Y-116600000D03*
X162515000Y-51585000D03*
X159125000Y-57025000D03*
X175100000Y-89500000D03*
D47*
X152760000Y-122130000D03*
D46*
X175249980Y-112800000D03*
X152800000Y-113200000D03*
X171919996Y-69170000D03*
D47*
X153401976Y-122478621D03*
D46*
X152900000Y-112300000D03*
X174500000Y-112200000D03*
X129490000Y-74770000D03*
X122090000Y-80940000D03*
X156845053Y-131250000D03*
X130175020Y-110400000D03*
X159333868Y-110938611D03*
X129100000Y-76525000D03*
X149470000Y-65010000D03*
D47*
X154599534Y-122429342D03*
D46*
X133300000Y-111100000D03*
X153800000Y-111200000D03*
D47*
X133350000Y-82450000D03*
D45*
X182290346Y-76730346D03*
X181240000Y-75490000D03*
D46*
X157520859Y-131067509D03*
X177800000Y-90900000D03*
X170610000Y-66820000D03*
X179774990Y-88948357D03*
X177500000Y-109700000D03*
X159700000Y-108900000D03*
X178500000Y-76500000D03*
X170680000Y-72380000D03*
X162600000Y-93899996D03*
X166750000Y-93900000D03*
X160575053Y-132000000D03*
X142317957Y-121449980D03*
X146054876Y-121749980D03*
X145750000Y-124750000D03*
X139699960Y-125896983D03*
X139520709Y-137020709D03*
D47*
X150985020Y-122555020D03*
D46*
X151760006Y-126970000D03*
X150366850Y-136874379D03*
X154775024Y-133391903D03*
D47*
X154001969Y-122483470D03*
X134075019Y-67477959D03*
D46*
X134100000Y-111700000D03*
X153300000Y-111700000D03*
X139512371Y-121449980D03*
X177500000Y-117349996D03*
X156150000Y-117350000D03*
X156150000Y-121650000D03*
X179650000Y-134800000D03*
X133900004Y-136600000D03*
X133924980Y-131500000D03*
X150424404Y-128915461D03*
X150128561Y-131353720D03*
D47*
X149240440Y-128314548D03*
X149160276Y-132002137D03*
D46*
X139811338Y-134394919D03*
X139000000Y-130000000D03*
X149388400Y-127681600D03*
X149939644Y-132027758D03*
D45*
X158200000Y-136600000D03*
D46*
X160600561Y-127890338D03*
X133000000Y-137350000D03*
X133000000Y-129500000D03*
X149690000Y-126580000D03*
X143371840Y-125377119D03*
X173260000Y-77870000D03*
D49*
X168280000Y-136850000D02*
X167500000Y-136850000D01*
X167500000Y-136850000D02*
X167400000Y-136750000D01*
D50*
X168799240Y-136850000D02*
X168280000Y-136850000D01*
D49*
X167400000Y-136750000D02*
X166650000Y-136750000D01*
X166650000Y-136750000D02*
X165700000Y-135800000D01*
X173650000Y-139200000D02*
X173560000Y-139290000D01*
X173560000Y-139290000D02*
X167170000Y-139290000D01*
X167170000Y-139290000D02*
X166670000Y-138790000D01*
X166670000Y-138790000D02*
X164480000Y-138790000D01*
X164480000Y-138790000D02*
X163750000Y-139520000D01*
X163750000Y-139520000D02*
X163750000Y-141250000D01*
X163407108Y-101800000D02*
X164749990Y-103142882D01*
X164749990Y-103142882D02*
X164749990Y-104207732D01*
X164749990Y-104207732D02*
X165892280Y-105350022D01*
X168134980Y-105350022D02*
X168950000Y-104535002D01*
X165892280Y-105350022D02*
X168134980Y-105350022D01*
X168950000Y-104535002D02*
X168950000Y-103750000D01*
X172870000Y-85330000D02*
X165375010Y-92824990D01*
X174999990Y-85330000D02*
X172870000Y-85330000D01*
X165375010Y-92824990D02*
X165350000Y-92824990D01*
D50*
X176320000Y-75910000D02*
X176320000Y-76950293D01*
X176320000Y-76950293D02*
X176009991Y-77260302D01*
D49*
X176009991Y-78640009D02*
X176009991Y-77260302D01*
X173750318Y-79800000D02*
X174850000Y-79800000D01*
X174850000Y-79800000D02*
X176009991Y-78640009D01*
X174999990Y-85330000D02*
X172493999Y-82824009D01*
X172493999Y-82824009D02*
X172493999Y-81056319D01*
X172493999Y-81056319D02*
X173750318Y-79800000D01*
X174999990Y-85330000D02*
X174999990Y-86000000D01*
X174999990Y-85330000D02*
X174999990Y-84500000D01*
X178070000Y-73190000D02*
X177260000Y-72380000D01*
X177260000Y-72380000D02*
X176070000Y-72380000D01*
X177280000Y-75470000D02*
X178070000Y-74680000D01*
X178070000Y-74680000D02*
X178070000Y-73190000D01*
D50*
X176840000Y-75910000D02*
X177280000Y-75470000D01*
X176320000Y-75910000D02*
X176840000Y-75910000D01*
D49*
X147149996Y-101800000D02*
X146090000Y-102859996D01*
X146090000Y-102859996D02*
X146090000Y-103750000D01*
X146090000Y-103750000D02*
X144440000Y-105400000D01*
X144440000Y-105400000D02*
X142000000Y-105400000D01*
X142000000Y-105400000D02*
X141550000Y-104950000D01*
X141550000Y-104950000D02*
X141550000Y-103750000D01*
D50*
X152300000Y-101800000D02*
X158400000Y-101800000D01*
X147149996Y-101800000D02*
X152300000Y-101800000D01*
D51*
X152325000Y-97663188D02*
X152011832Y-97350020D01*
X150903654Y-96699995D02*
X149550000Y-96699995D01*
X151553679Y-97350020D02*
X150903654Y-96699995D01*
X152325000Y-98350000D02*
X152325000Y-97663188D01*
X152011832Y-97350020D02*
X151553679Y-97350020D01*
X158325000Y-97275020D02*
X158400000Y-97200020D01*
X158325000Y-98350000D02*
X158325000Y-97275020D01*
X152325000Y-104150000D02*
X152325000Y-101825000D01*
X152325000Y-101825000D02*
X152300000Y-101800000D01*
X158400000Y-101800000D02*
X158325000Y-101875000D01*
X158325000Y-101875000D02*
X158325000Y-104150000D01*
D49*
X163407108Y-101800000D02*
X158400000Y-101800000D01*
X168950000Y-103750000D02*
X168950000Y-102250000D01*
X141550000Y-103750000D02*
X141550000Y-102250000D01*
X163750001Y-102849999D02*
X163750001Y-102142893D01*
X163750001Y-102142893D02*
X163407108Y-101800000D01*
X163750001Y-103700000D02*
X163750001Y-102849999D01*
D50*
X159000000Y-141300000D02*
X160750000Y-141300000D01*
X160750000Y-141300000D02*
X162053762Y-141300000D01*
X162053762Y-141300000D02*
X162103762Y-141250000D01*
D52*
X163750000Y-141250000D02*
X162103762Y-141250000D01*
D50*
X158750000Y-61000000D02*
X158750000Y-63060000D01*
X158750000Y-63060000D02*
X170470180Y-74780180D01*
X170470180Y-74780180D02*
X172825544Y-74780180D01*
X169990000Y-136270000D02*
X169990000Y-136470000D01*
X169990000Y-136470000D02*
X170800000Y-137280000D01*
X170360000Y-135900000D02*
X169990000Y-136270000D01*
X170798220Y-135900000D02*
X170360000Y-135900000D01*
X143450000Y-102250000D02*
X143450000Y-101309997D01*
X143450000Y-101309997D02*
X143460000Y-101299997D01*
X143464688Y-103949990D02*
X143464688Y-102264688D01*
X143464688Y-102264688D02*
X143450000Y-102250000D01*
X143464688Y-103949990D02*
X143464688Y-103764688D01*
X143464688Y-103764688D02*
X143450000Y-103750000D01*
D53*
X175840000Y-133980000D02*
X175840000Y-134790000D01*
X175840000Y-134790000D02*
X175850000Y-134800000D01*
X172900000Y-131450000D02*
X173090000Y-131450000D01*
X173090000Y-131450000D02*
X173970000Y-132330000D01*
D54*
X167400000Y-129550000D02*
X167412500Y-129012499D01*
D49*
X171200000Y-128900000D02*
X171080001Y-128780001D01*
X171080001Y-128464999D02*
X170890001Y-128274999D01*
X171080001Y-128780001D02*
X171080001Y-128464999D01*
X170890001Y-128274999D02*
X168150000Y-128274999D01*
X168150000Y-128274999D02*
X167412500Y-129012499D01*
D54*
X172900000Y-129550000D02*
X172250000Y-128900000D01*
D49*
X173647856Y-91459589D02*
X177149981Y-94961714D01*
X177149981Y-94961714D02*
X177149981Y-106750019D01*
X175300001Y-108599999D02*
X168699999Y-108599999D01*
X177149981Y-106750019D02*
X175300001Y-108599999D01*
X168699999Y-108599999D02*
X168200000Y-108100000D01*
X176950000Y-86454167D02*
X175229176Y-88174991D01*
X175229176Y-88174991D02*
X174114587Y-88174991D01*
X174114587Y-88174991D02*
X173650224Y-88639354D01*
X176950000Y-86000000D02*
X176950000Y-86454167D01*
D52*
X177000000Y-82000000D02*
X177000000Y-81400000D01*
X177000000Y-81400000D02*
X178450000Y-79950000D01*
X178450000Y-78360000D02*
X177960000Y-77870000D01*
X178450000Y-79950000D02*
X178450000Y-78360000D01*
X143609999Y-114699999D02*
X143400000Y-114490000D01*
X167200001Y-114699999D02*
X143609999Y-114699999D01*
X167700000Y-114200000D02*
X167200001Y-114699999D01*
X143400000Y-113400000D02*
X143400000Y-114490000D01*
D50*
X154490000Y-105717106D02*
X154882894Y-106110000D01*
X160130788Y-106110000D02*
X160140788Y-106100000D01*
X154882894Y-106110000D02*
X160130788Y-106110000D01*
X160140788Y-106100000D02*
X160200000Y-106100000D01*
X154490000Y-105717106D02*
X154490000Y-106080000D01*
X154470000Y-106100000D02*
X148180004Y-106100000D01*
X146780005Y-107499999D02*
X143949999Y-107499999D01*
X154490000Y-106080000D02*
X154470000Y-106100000D01*
X148180004Y-106100000D02*
X146780005Y-107499999D01*
X143949999Y-107499999D02*
X143450000Y-107000000D01*
X154500000Y-105000000D02*
X154500000Y-105707106D01*
X154500000Y-105707106D02*
X154490000Y-105717106D01*
D53*
X160200000Y-106100000D02*
X160300000Y-106200000D01*
D52*
X166700000Y-102600000D02*
X166700000Y-103400012D01*
X176950000Y-84500000D02*
X176950000Y-86000000D01*
X177000000Y-82000000D02*
X177000000Y-84450000D01*
X177000000Y-84450000D02*
X176950000Y-84500000D01*
D51*
X154275000Y-98350000D02*
X154275000Y-97525000D01*
X154275000Y-97525000D02*
X154400000Y-97400000D01*
X160275000Y-98350000D02*
X160275000Y-97225000D01*
X160275000Y-97225000D02*
X160300000Y-97200000D01*
D52*
X166800000Y-108100000D02*
X162000000Y-108100000D01*
X160300000Y-106400000D02*
X160300000Y-106200000D01*
X162000000Y-108100000D02*
X160300000Y-106400000D01*
D50*
X160300000Y-105175000D02*
X160300000Y-106200000D01*
D51*
X154500000Y-105000000D02*
X154500000Y-104375000D01*
X154500000Y-104375000D02*
X154275000Y-104150000D01*
X160300000Y-105175000D02*
X160275000Y-105150000D01*
X160275000Y-104150000D02*
X160275000Y-105150000D01*
X160275000Y-104150000D02*
X160275000Y-104475000D01*
D52*
X166700000Y-114200000D02*
X167700000Y-114200000D01*
D53*
X172900000Y-131450000D02*
X173105000Y-131450000D01*
X164550000Y-126250000D02*
X165092914Y-126792914D01*
X165092914Y-126792914D02*
X167015748Y-126792914D01*
X164000000Y-126250000D02*
X164550000Y-126250000D01*
X167400000Y-131450000D02*
X168180000Y-131450000D01*
X168180000Y-131450000D02*
X169010002Y-130619998D01*
X170321771Y-130619998D02*
X170798220Y-131096447D01*
X169010002Y-130619998D02*
X170321771Y-130619998D01*
X170798220Y-131096447D02*
X170798220Y-131450000D01*
X172900000Y-131450000D02*
X170798220Y-131450000D01*
D49*
X171200000Y-128900000D02*
X172250000Y-128900000D01*
D51*
X171800000Y-64750000D02*
X171350000Y-64750000D01*
X171350000Y-64750000D02*
X169770000Y-66330000D01*
X169770000Y-66330000D02*
X169770000Y-66870000D01*
D54*
X172800000Y-118800000D02*
X172800000Y-119499140D01*
X172800000Y-119499140D02*
X174000000Y-120699140D01*
D51*
X170210000Y-98790000D02*
X170210000Y-99100000D01*
X170210000Y-99100000D02*
X171910000Y-100800000D01*
X174350000Y-94775000D02*
X171950000Y-92375000D01*
X171910000Y-100800000D02*
X173750000Y-100800000D01*
X173750000Y-100800000D02*
X174350000Y-100200000D01*
X174350000Y-100200000D02*
X174350000Y-94775000D01*
X171950000Y-92375000D02*
X171950000Y-91500000D01*
X136550000Y-91250000D02*
X136325000Y-91250000D01*
X136325000Y-91250000D02*
X135400000Y-92175000D01*
X135400000Y-92175000D02*
X135400000Y-100350000D01*
X168500000Y-100500000D02*
X170210000Y-98790000D01*
X139900000Y-100500000D02*
X140050013Y-100349987D01*
X140050013Y-100349987D02*
X148097062Y-100349987D01*
X148247075Y-100500000D02*
X168500000Y-100500000D01*
X148097062Y-100349987D02*
X148247075Y-100500000D01*
X166165502Y-61826086D02*
X169751086Y-61826086D01*
X169751086Y-61826086D02*
X171800000Y-63875000D01*
X171800000Y-63875000D02*
X171800000Y-64750000D01*
X176717327Y-120699140D02*
X176766467Y-120650000D01*
X174000000Y-120699140D02*
X176717327Y-120699140D01*
X135400000Y-78450000D02*
X128000000Y-78450000D01*
X128000000Y-78450000D02*
X125250000Y-78450000D01*
X136300000Y-64750000D02*
X130050000Y-64750000D01*
X130050000Y-64750000D02*
X128000000Y-66800000D01*
X128000000Y-66800000D02*
X128000000Y-78450000D01*
X139900000Y-100500000D02*
X135550000Y-100500000D01*
X139960000Y-98790000D02*
X139960000Y-100440000D01*
X139960000Y-100440000D02*
X139900000Y-100500000D01*
X135550000Y-100500000D02*
X135400000Y-100350000D01*
X140000000Y-98830000D02*
X139960000Y-98790000D01*
X175207307Y-131398326D02*
X175772992Y-131398326D01*
X175151674Y-131398326D02*
X175207307Y-131398326D01*
X175100000Y-131450000D02*
X175151674Y-131398326D01*
X124611547Y-79088453D02*
X124611547Y-80788645D01*
X125250000Y-78450000D02*
X124611547Y-79088453D01*
D53*
X157062587Y-138600000D02*
X158387599Y-137274988D01*
X156862585Y-138600000D02*
X157062587Y-138600000D01*
X158387599Y-137274988D02*
X159402618Y-137274988D01*
X160750000Y-138622370D02*
X160750000Y-139700000D01*
X159402618Y-137274988D02*
X160750000Y-138622370D01*
D51*
X159000000Y-94750000D02*
X158250013Y-95499987D01*
X158250013Y-95499987D02*
X152319987Y-95499987D01*
X152319987Y-95499987D02*
X151320000Y-94500000D01*
X169725000Y-93000000D02*
X167975000Y-94750000D01*
X151320000Y-94500000D02*
X147630000Y-94500000D01*
X169950000Y-93000000D02*
X169725000Y-93000000D01*
X167975000Y-94750000D02*
X159000000Y-94750000D01*
D53*
X142159250Y-136790750D02*
X143677116Y-136790750D01*
X146125000Y-137050000D02*
X146750000Y-137050000D01*
X141250000Y-137500000D02*
X141450000Y-137500000D01*
X145465000Y-136390000D02*
X146125000Y-137050000D01*
X141450000Y-137500000D02*
X142159250Y-136790750D01*
X144077866Y-136390000D02*
X145465000Y-136390000D01*
X143677116Y-136790750D02*
X144077866Y-136390000D01*
X161062041Y-128856193D02*
X162791754Y-127126480D01*
X162791754Y-127126480D02*
X162791754Y-126650175D01*
X162791754Y-126650175D02*
X162791754Y-126225911D01*
X161799999Y-130520101D02*
X162225041Y-130945143D01*
X161799999Y-129594151D02*
X161799999Y-130520101D01*
X161062041Y-128856193D02*
X161799999Y-129594151D01*
X147674998Y-94521445D02*
X147674998Y-94599945D01*
X147630000Y-94500000D02*
X147653553Y-94500000D01*
X147653553Y-94500000D02*
X147674998Y-94521445D01*
X150700000Y-141300000D02*
X152800000Y-141300000D01*
X150300000Y-140900000D02*
X150700000Y-141300000D01*
X150300000Y-139250000D02*
X150300000Y-140900000D01*
X149750000Y-138700000D02*
X150300000Y-139250000D01*
X149750000Y-138500000D02*
X149750000Y-138700000D01*
D51*
X147630000Y-94500000D02*
X140350000Y-94500000D01*
D53*
X155725000Y-103335000D02*
X155410000Y-103020000D01*
X155410000Y-103020000D02*
X153030000Y-103020000D01*
X155725000Y-104150000D02*
X155725000Y-103335000D01*
D51*
X149920000Y-129620000D02*
X158220000Y-129620000D01*
D53*
X159450000Y-129500000D02*
X158340000Y-129500000D01*
X158340000Y-129500000D02*
X158220000Y-129620000D01*
D51*
X149318318Y-129018318D02*
X149920000Y-129620000D01*
X148824371Y-129018318D02*
X149318318Y-129018318D01*
D53*
X176500000Y-122500000D02*
X169500000Y-122500000D01*
X169500000Y-122500000D02*
X168500000Y-123500000D01*
X168500000Y-123500000D02*
X168500000Y-124300860D01*
X177000000Y-137000000D02*
X177000000Y-139370000D01*
X177000000Y-139370000D02*
X178355000Y-140725000D01*
X178355000Y-140725000D02*
X178575000Y-140725000D01*
X178575000Y-140725000D02*
X178575000Y-140505000D01*
X156430002Y-136400002D02*
X156862585Y-136832585D01*
X156862585Y-136832585D02*
X156862585Y-138600000D01*
X153501563Y-136400002D02*
X156430002Y-136400002D01*
X136000000Y-135500000D02*
X135150000Y-135500000D01*
X135150000Y-135500000D02*
X133400000Y-133750000D01*
X133400000Y-133750000D02*
X132500000Y-133750000D01*
X153500000Y-134950000D02*
X153500000Y-134239998D01*
X153500000Y-134239998D02*
X153385001Y-134124999D01*
X153385001Y-134124999D02*
X152814849Y-134124999D01*
X152814849Y-134124999D02*
X152704329Y-134014479D01*
X152704329Y-134014479D02*
X152704329Y-133660926D01*
X160251080Y-129500000D02*
X160894887Y-128856193D01*
X160894887Y-128856193D02*
X161062041Y-128856193D01*
X159450000Y-129500000D02*
X160251080Y-129500000D01*
X149200000Y-103100000D02*
X149600000Y-103100000D01*
X149600000Y-103100000D02*
X149725000Y-103225000D01*
X149725000Y-103225000D02*
X149725000Y-104150000D01*
X148824371Y-129018318D02*
X148068318Y-129018318D01*
X148068318Y-129018318D02*
X148050000Y-129000000D01*
X156000000Y-138600000D02*
X156862585Y-138600000D01*
D51*
X162229898Y-130950000D02*
X162225041Y-130945143D01*
X162500000Y-130950000D02*
X162229898Y-130950000D01*
D53*
X144250000Y-126250000D02*
X144450000Y-126250000D01*
X145950000Y-129550000D02*
X144700000Y-129550000D01*
X153124998Y-136400002D02*
X153501563Y-136400002D01*
X152800000Y-136725000D02*
X153124998Y-136400002D01*
X152800000Y-137400000D02*
X152800000Y-136725000D01*
D51*
X184500000Y-139200000D02*
X184500000Y-138400000D01*
D53*
X184700000Y-138200000D02*
X188750000Y-138200000D01*
D51*
X184500000Y-138400000D02*
X184700000Y-138200000D01*
X188750000Y-138200000D02*
X188950000Y-138400000D01*
X188950000Y-138400000D02*
X188950000Y-139200000D01*
X182725000Y-140725000D02*
X182975000Y-140725000D01*
D53*
X182975000Y-140725000D02*
X184500000Y-139200000D01*
X178575000Y-140725000D02*
X182725000Y-140725000D01*
D51*
X169950000Y-93000000D02*
X169950000Y-95990000D01*
X169950000Y-95990000D02*
X170210000Y-96250000D01*
X169950000Y-93000000D02*
X169950000Y-91600000D01*
X169950000Y-91600000D02*
X170050000Y-91500000D01*
X140350000Y-94500000D02*
X139960000Y-94890000D01*
X139960000Y-94890000D02*
X139960000Y-96250000D01*
X138775000Y-92750000D02*
X138550000Y-92750000D01*
X140350000Y-94500000D02*
X140250000Y-94600000D01*
X140250000Y-94600000D02*
X138775000Y-92750000D01*
X138550000Y-92750000D02*
X138550000Y-91350000D01*
X138550000Y-91350000D02*
X138450000Y-91250000D01*
X162500000Y-130950000D02*
X162500000Y-131175000D01*
X162500000Y-130950000D02*
X164000000Y-130950000D01*
X164000000Y-130950000D02*
X164450000Y-130500000D01*
X164450000Y-130500000D02*
X167400000Y-130500000D01*
D53*
X162500000Y-123600000D02*
X167799140Y-123600000D01*
X167799140Y-123600000D02*
X168500000Y-124300860D01*
X143256997Y-123304983D02*
X142956998Y-123604982D01*
X143311980Y-123250000D02*
X143256997Y-123304983D01*
X144500000Y-123250000D02*
X143311980Y-123250000D01*
X144250000Y-126250000D02*
X142909836Y-126250000D01*
X142909836Y-126250000D02*
X142746838Y-126087002D01*
X149750000Y-138500000D02*
X149750000Y-138300000D01*
X150600000Y-137450000D02*
X150600000Y-137400000D01*
X149750000Y-138300000D02*
X150600000Y-137450000D01*
X149750000Y-138500000D02*
X149700000Y-138500000D01*
X149700000Y-138500000D02*
X148250000Y-137050000D01*
X136000000Y-127500000D02*
X134500000Y-127500000D01*
X143000000Y-119000000D02*
X138000000Y-119000000D01*
X146000000Y-118775000D02*
X143225000Y-118775000D01*
X143225000Y-118775000D02*
X143000000Y-119000000D01*
X150400000Y-120650000D02*
X150400000Y-120400000D01*
X150400000Y-120400000D02*
X149000000Y-119000000D01*
X152800000Y-137400000D02*
X150600000Y-137400000D01*
X148250000Y-137050000D02*
X148550000Y-137050000D01*
X146750000Y-137050000D02*
X148250000Y-137050000D01*
X138000000Y-123500000D02*
X136000000Y-125500000D01*
X127475000Y-140000000D02*
X125250000Y-140000000D01*
X127575000Y-140725000D02*
X127575000Y-140100000D01*
X127575000Y-140100000D02*
X127475000Y-140000000D01*
X146500000Y-129000000D02*
X148050000Y-129000000D01*
X145950000Y-129550000D02*
X146500000Y-129000000D01*
X121250000Y-140000000D02*
X121250000Y-139250000D01*
X125250000Y-139250000D02*
X125250000Y-140000000D01*
X124500000Y-138500000D02*
X125250000Y-139250000D01*
X122000000Y-138500000D02*
X124500000Y-138500000D01*
X121250000Y-139250000D02*
X122000000Y-138500000D01*
X147775000Y-118750000D02*
X146025000Y-118750000D01*
X146025000Y-118750000D02*
X146000000Y-118775000D01*
X149000000Y-119000000D02*
X148025000Y-119000000D01*
X148025000Y-119000000D02*
X147775000Y-118750000D01*
D51*
X185688453Y-83788645D02*
X185688453Y-85225485D01*
X168259767Y-91637303D02*
X168259767Y-92849881D01*
X185688453Y-85225485D02*
X185513938Y-85400000D01*
X176913186Y-90200002D02*
X169697068Y-90200002D01*
X169697068Y-90200002D02*
X168259767Y-91637303D01*
X185513938Y-85400000D02*
X181713188Y-85400000D01*
X181713188Y-85400000D02*
X176913186Y-90200002D01*
X168259767Y-92849881D02*
X168259767Y-93203434D01*
X163080000Y-127860000D02*
X162500000Y-128440000D01*
X162500000Y-128440000D02*
X162500000Y-129050000D01*
D53*
X155499994Y-137400000D02*
X155300000Y-137400000D01*
X158692508Y-130492508D02*
X158700000Y-130500000D01*
X158700000Y-130500000D02*
X159450000Y-130500000D01*
X163075061Y-132234053D02*
X162309412Y-132234053D01*
X162309412Y-132234053D02*
X161650000Y-131574641D01*
X161650000Y-131574641D02*
X161650000Y-131153632D01*
X161650000Y-131153632D02*
X160996368Y-130500000D01*
X160996368Y-130500000D02*
X159450000Y-130500000D01*
X140450000Y-92750000D02*
X140450000Y-91689998D01*
X140450000Y-91689998D02*
X140150000Y-91389998D01*
X140150000Y-91389998D02*
X140150000Y-88000000D01*
X140150000Y-88000000D02*
X137600000Y-85450000D01*
X137600000Y-85450000D02*
X124836062Y-85450000D01*
X124611547Y-85225485D02*
X124611547Y-83788645D01*
X124836062Y-85450000D02*
X124611547Y-85225485D01*
D51*
X156400000Y-96250000D02*
X156349998Y-96199998D01*
X151129991Y-95299955D02*
X146959981Y-95299955D01*
X156349998Y-96199998D02*
X152030033Y-96199998D01*
X152030033Y-96199998D02*
X151129991Y-95299955D01*
D53*
X146959981Y-117006579D02*
X148868421Y-117006579D01*
X148868421Y-117006579D02*
X148875000Y-117000000D01*
X141250000Y-127250000D02*
X140324980Y-127250000D01*
X157244858Y-130492508D02*
X158692508Y-130492508D01*
X157237366Y-130500000D02*
X157244858Y-130492508D01*
X151574903Y-130500000D02*
X157237366Y-130500000D01*
D54*
X163640746Y-132234053D02*
X163075061Y-132234053D01*
X163781694Y-132375001D02*
X163640746Y-132234053D01*
X168550000Y-132375001D02*
X163781694Y-132375001D01*
D53*
X151124286Y-123550000D02*
X151125016Y-123550730D01*
X151500000Y-123550000D02*
X151500000Y-123564996D01*
X151425015Y-123639981D02*
X151125016Y-123939980D01*
X151500000Y-123564996D02*
X151425015Y-123639981D01*
X151125016Y-123550730D02*
X151125016Y-123939980D01*
X151000000Y-123550000D02*
X151124286Y-123550000D01*
X155000000Y-123550000D02*
X155000000Y-122850362D01*
X155124536Y-122177340D02*
X154522197Y-121575001D01*
X155124536Y-122725826D02*
X155124536Y-122177340D01*
X154522197Y-121575001D02*
X151486412Y-121575001D01*
X151486412Y-121575001D02*
X151200000Y-121288589D01*
X151200000Y-121288589D02*
X151200000Y-118750000D01*
X155000000Y-122850362D02*
X155124536Y-122725826D01*
D50*
X152000000Y-118750000D02*
X151200000Y-118750000D01*
X151200000Y-118750000D02*
X150400000Y-118750000D01*
D51*
X147046500Y-62015281D02*
X147440281Y-62015281D01*
X163023914Y-62076086D02*
X163540502Y-62076086D01*
X146950000Y-92750000D02*
X146975000Y-92775000D01*
X140450000Y-92750000D02*
X146950000Y-92750000D01*
X149725000Y-98350000D02*
X146959981Y-98350000D01*
D53*
X141250000Y-133000000D02*
X139750000Y-133000000D01*
X139750000Y-133000000D02*
X139500000Y-133000000D01*
X140324980Y-127250000D02*
X139750000Y-127824980D01*
X139750000Y-127824980D02*
X139750000Y-133000000D01*
D51*
X159250000Y-95500000D02*
X165500000Y-95500000D01*
X155725000Y-98350000D02*
X155725000Y-96925000D01*
X155725000Y-96925000D02*
X156400000Y-96250000D01*
X156400000Y-96250000D02*
X158500000Y-96250000D01*
X158500000Y-96250000D02*
X159250000Y-95500000D01*
D50*
X148875000Y-117000000D02*
X141500000Y-117000000D01*
X141500000Y-117000000D02*
X141000000Y-117500000D01*
X150400000Y-118750000D02*
X150400000Y-118525000D01*
X150400000Y-118525000D02*
X148875000Y-117000000D01*
X153600000Y-118750000D02*
X152000000Y-118750000D01*
X155200000Y-118750000D02*
X153600000Y-118750000D01*
X168500000Y-119600000D02*
X167650000Y-118750000D01*
X167650000Y-118750000D02*
X155200000Y-118750000D01*
X168500000Y-120699140D02*
X168500000Y-119600000D01*
X169000000Y-132050000D02*
X169600000Y-131450000D01*
D53*
X149000000Y-130500000D02*
X151574903Y-130500000D01*
X178150000Y-134800000D02*
X178150000Y-134300000D01*
X172625001Y-132375001D02*
X168674999Y-132375001D01*
X173550000Y-133300000D02*
X172625001Y-132375001D01*
X177150000Y-133300000D02*
X173550000Y-133300000D01*
X178150000Y-134300000D02*
X177150000Y-133300000D01*
X168674999Y-132375001D02*
X168599998Y-132300000D01*
X168599998Y-132300000D02*
X168550000Y-132300000D01*
X168550000Y-132300000D02*
X168550000Y-132375001D01*
D54*
X168674999Y-132375001D02*
X168550000Y-132375001D01*
X169600000Y-131450000D02*
X168674999Y-132375001D01*
D53*
X143500000Y-124750000D02*
X142979983Y-124229983D01*
X142979983Y-124229983D02*
X141304963Y-124229983D01*
X141304963Y-124229983D02*
X140624979Y-123549999D01*
X140624979Y-123549999D02*
X140324980Y-123250000D01*
X144250000Y-124750000D02*
X143500000Y-124750000D01*
X152000000Y-135780721D02*
X152000000Y-134950000D01*
X149000000Y-130500000D02*
X149000000Y-130200000D01*
X149000000Y-130800000D02*
X149000000Y-130500000D01*
X148050000Y-131000000D02*
X148800000Y-131000000D01*
X148800000Y-131000000D02*
X149000000Y-130800000D01*
X149000000Y-130200000D02*
X148800000Y-130000000D01*
X148800000Y-130000000D02*
X148050000Y-130000000D01*
X139500000Y-133000000D02*
X138000000Y-131500000D01*
X136000000Y-133500000D02*
X138000000Y-131500000D01*
D51*
X167000000Y-53500000D02*
X167200000Y-53500000D01*
X167200000Y-53500000D02*
X182040000Y-68340000D01*
X182040000Y-68340000D02*
X182040000Y-74860000D01*
X182040000Y-74860000D02*
X181950000Y-74950000D01*
X182050002Y-75050002D02*
X182050002Y-75900002D01*
X181950000Y-74950000D02*
X182050002Y-75050002D01*
X182050002Y-75900002D02*
X181425004Y-76525000D01*
X181425004Y-76525000D02*
X180900000Y-76525000D01*
D53*
X131100000Y-80960000D02*
X130160000Y-80960000D01*
X130160000Y-80960000D02*
X130150000Y-80950000D01*
D51*
X179450638Y-81000000D02*
X179187809Y-81262829D01*
X180500000Y-81000000D02*
X179450638Y-81000000D01*
D53*
X155840000Y-124500000D02*
X156000000Y-124340000D01*
X156000000Y-124340000D02*
X156000000Y-123550000D01*
D51*
X151390000Y-124690000D02*
X151390000Y-124689981D01*
X151390000Y-124689981D02*
X151485017Y-124689981D01*
X151485017Y-124689981D02*
X151674998Y-124500000D01*
X151674998Y-124500000D02*
X155840000Y-124500000D01*
D53*
X152500000Y-123550000D02*
X152500000Y-124360000D01*
X152500000Y-124360000D02*
X152400000Y-124460000D01*
X152400000Y-124460000D02*
X151620000Y-124460000D01*
X151620000Y-124460000D02*
X151390000Y-124690000D01*
D51*
X150190000Y-124690000D02*
X151390000Y-124690000D01*
X150000000Y-124500000D02*
X150190000Y-124690000D01*
D53*
X156150001Y-122599999D02*
X156024558Y-122725442D01*
X156024558Y-122725442D02*
X156024558Y-123525442D01*
X156024558Y-123525442D02*
X156000000Y-123550000D01*
D51*
X144650000Y-50500000D02*
X138150000Y-57000000D01*
X147420001Y-50479999D02*
X147400000Y-50500000D01*
X147400000Y-50500000D02*
X144650000Y-50500000D01*
X163029999Y-50479999D02*
X147420001Y-50479999D01*
X163150000Y-50600000D02*
X163029999Y-50479999D01*
X156236005Y-122599999D02*
X156850002Y-121986002D01*
X156150001Y-122599999D02*
X156236005Y-122599999D01*
X156850002Y-120650002D02*
X156850000Y-120650000D01*
X156850002Y-121986002D02*
X156850002Y-120650002D01*
X156850000Y-120650000D02*
X165150000Y-120650000D01*
X165150000Y-120650000D02*
X165500000Y-121000000D01*
X156850000Y-120650000D02*
X155200000Y-120650000D01*
X180900000Y-76525000D02*
X180900000Y-80600000D01*
X180900000Y-80600000D02*
X180500000Y-81000000D01*
X173500000Y-67500000D02*
X174500000Y-67500000D01*
X174500000Y-67500000D02*
X181950000Y-74950000D01*
X173500000Y-66250000D02*
X173500000Y-67500000D01*
X173700000Y-64750000D02*
X173700000Y-66050000D01*
X173700000Y-66050000D02*
X173500000Y-66250000D01*
X165579999Y-50479999D02*
X167000000Y-51900000D01*
X167000000Y-51900000D02*
X167000000Y-53500000D01*
X163150000Y-50600000D02*
X163270001Y-50479999D01*
X163270001Y-50479999D02*
X165579999Y-50479999D01*
X163150000Y-51184000D02*
X163150000Y-50600000D01*
X129900000Y-76525000D02*
X130560000Y-76525000D01*
X138000000Y-69085000D02*
X138000000Y-67500000D01*
X130560000Y-76525000D02*
X138000000Y-69085000D01*
X138200000Y-64750000D02*
X138200000Y-66050000D01*
X138200000Y-66050000D02*
X138000000Y-66250000D01*
X138000000Y-67500000D02*
X138000000Y-66250000D01*
X167299480Y-143250000D02*
X157750000Y-143250000D01*
X168750700Y-140900000D02*
X168750700Y-141798780D01*
X168750700Y-141798780D02*
X167299480Y-143250000D01*
X165500000Y-126000000D02*
X167184838Y-126000000D01*
X167184838Y-126000000D02*
X167384837Y-126199999D01*
X167384837Y-126199999D02*
X172475736Y-126199999D01*
X172475736Y-126199999D02*
X172575736Y-126299999D01*
X172575736Y-126299999D02*
X173000000Y-126299999D01*
X173000000Y-126299999D02*
X173801341Y-126299999D01*
X174950000Y-127500000D02*
X174950000Y-126625000D01*
X174950000Y-126625000D02*
X174624999Y-126299999D01*
X174624999Y-126299999D02*
X173801341Y-126299999D01*
X173801341Y-126299999D02*
X174000000Y-126101340D01*
X174000000Y-126101340D02*
X174000000Y-124300860D01*
D53*
X150000000Y-123550000D02*
X150000000Y-124500000D01*
D51*
X153600000Y-120650000D02*
X152000000Y-120650000D01*
X155200000Y-120650000D02*
X153600000Y-120650000D01*
D53*
X148990000Y-125715000D02*
X148990000Y-124720000D01*
X148050000Y-126000000D02*
X148705000Y-126000000D01*
X148705000Y-126000000D02*
X148990000Y-125715000D01*
X149000000Y-120500000D02*
X147925000Y-120500000D01*
X147925000Y-120500000D02*
X147775000Y-120650000D01*
X142123764Y-120675000D02*
X141934286Y-120864478D01*
X146000000Y-120675000D02*
X142123764Y-120675000D01*
X141950000Y-128000000D02*
X140950000Y-129000000D01*
X144927178Y-128000000D02*
X141950000Y-128000000D01*
X140950000Y-129000000D02*
X140950000Y-129100000D01*
X148050000Y-128500000D02*
X145427178Y-128500000D01*
X145427178Y-128500000D02*
X144927178Y-128000000D01*
X145325000Y-130600000D02*
X145550000Y-130600000D01*
X146650000Y-129500000D02*
X148050000Y-129500000D01*
X145550000Y-130600000D02*
X146650000Y-129500000D01*
X144700000Y-131450000D02*
X144700000Y-131225000D01*
X144700000Y-131225000D02*
X145325000Y-130600000D01*
X142650000Y-131300000D02*
X144550000Y-131300000D01*
X144550000Y-131300000D02*
X144700000Y-131450000D01*
D51*
X175100000Y-129550000D02*
X173050000Y-127500000D01*
X169580000Y-127024989D02*
X167702940Y-127024989D01*
X167702940Y-127024989D02*
X165677929Y-129050000D01*
X165677929Y-129050000D02*
X164000000Y-129050000D01*
D53*
X169600000Y-129550000D02*
X169600000Y-129974988D01*
X169600000Y-129974988D02*
X169580000Y-129994988D01*
X151068401Y-138668401D02*
X151136802Y-138600000D01*
X151136802Y-138600000D02*
X152100000Y-138600000D01*
X148250000Y-138950000D02*
X148850000Y-138950000D01*
X155125000Y-139150000D02*
X155175000Y-139100000D01*
X155175000Y-139100000D02*
X156000000Y-139100000D01*
X147450000Y-139875000D02*
X149200000Y-139875000D01*
X146750000Y-139175000D02*
X147450000Y-139875000D01*
X149200000Y-139875000D02*
X149350000Y-139725000D01*
X146750000Y-138950000D02*
X146750000Y-139175000D01*
X148050000Y-131500000D02*
X146123316Y-131500000D01*
X146123316Y-131500000D02*
X146022799Y-131600517D01*
X121548080Y-141700000D02*
X122348080Y-142500000D01*
X133000000Y-141000000D02*
X137250040Y-141000000D01*
X120899300Y-141700000D02*
X121548080Y-141700000D01*
X141700026Y-139674979D02*
X142000025Y-139374980D01*
X131500000Y-142500000D02*
X133000000Y-141000000D01*
X122348080Y-142500000D02*
X131500000Y-142500000D01*
X138575061Y-139674979D02*
X141700026Y-139674979D01*
X137250040Y-141000000D02*
X138575061Y-139674979D01*
X144963617Y-134975034D02*
X142800029Y-134975034D01*
X145165270Y-134773381D02*
X144963617Y-134975034D01*
X142800029Y-134975034D02*
X142625020Y-135150043D01*
X119400700Y-141700000D02*
X119400700Y-140349300D01*
X119400700Y-140349300D02*
X119750000Y-140000000D01*
X146646447Y-135499975D02*
X146612210Y-135465738D01*
X147000000Y-135499975D02*
X146646447Y-135499975D01*
X143440713Y-135465738D02*
X143190714Y-135715737D01*
X146612210Y-135465738D02*
X143440713Y-135465738D01*
X129300000Y-141700000D02*
X125399300Y-141700000D01*
X131000000Y-140000000D02*
X129300000Y-141700000D01*
X133000000Y-140000000D02*
X131000000Y-140000000D01*
X136863590Y-140500000D02*
X133500000Y-140500000D01*
X133500000Y-140500000D02*
X133000000Y-140000000D01*
X138363590Y-139000000D02*
X136863590Y-140500000D01*
X141450001Y-139000000D02*
X138363590Y-139000000D01*
X142700001Y-138700001D02*
X141750000Y-138700001D01*
X143000000Y-139000000D02*
X142700001Y-138700001D01*
X141750000Y-138700001D02*
X141450001Y-139000000D01*
X146959115Y-132840885D02*
X146959115Y-132849956D01*
X148050000Y-132500000D02*
X147300000Y-132500000D01*
X147300000Y-132500000D02*
X146959115Y-132840885D01*
X123750000Y-140000000D02*
X123750000Y-141549300D01*
X123750000Y-141549300D02*
X123900700Y-141700000D01*
X159450000Y-131000000D02*
X160645364Y-131000000D01*
X160645364Y-131000000D02*
X161025064Y-131379700D01*
X169050000Y-143550000D02*
X168650000Y-143550000D01*
X178186411Y-141700000D02*
X177136400Y-140649989D01*
X171950011Y-140649989D02*
X169050000Y-143550000D01*
X184900700Y-141700000D02*
X178186411Y-141700000D01*
X177136400Y-140649989D02*
X171950011Y-140649989D01*
X159900000Y-136800000D02*
X161700000Y-136800000D01*
X161800000Y-136900000D02*
X161700000Y-136800000D01*
X161800000Y-137300000D02*
X161800000Y-136900000D01*
X186000000Y-139200000D02*
X186000000Y-141300700D01*
D51*
X186000000Y-141300700D02*
X186399300Y-141700000D01*
D53*
X161163038Y-130000000D02*
X161222657Y-129940381D01*
X159450000Y-130000000D02*
X161163038Y-130000000D01*
X161400000Y-135800000D02*
X161400000Y-133600000D01*
X178578587Y-142850000D02*
X187601920Y-142850000D01*
X176878587Y-141150000D02*
X178578587Y-142850000D01*
X188751920Y-141700000D02*
X189400700Y-141700000D01*
X172100000Y-141150000D02*
X176878587Y-141150000D01*
X170050000Y-143200000D02*
X172100000Y-141150000D01*
X170050000Y-144050000D02*
X170050000Y-143200000D01*
X169850000Y-144250000D02*
X170050000Y-144050000D01*
X161950000Y-144250000D02*
X169850000Y-144250000D01*
X187601920Y-142850000D02*
X188751920Y-141700000D01*
X187450000Y-139200000D02*
X187450000Y-140000000D01*
X187450000Y-140000000D02*
X187850000Y-140400000D01*
X187850000Y-140400000D02*
X190498080Y-140400000D01*
X190498080Y-140400000D02*
X190899300Y-140801220D01*
X190899300Y-140801220D02*
X190899300Y-141700000D01*
X145510000Y-137370000D02*
X144805700Y-137370000D01*
X144805700Y-137370000D02*
X144725000Y-137450700D01*
X156590000Y-125930000D02*
X149488998Y-125930000D01*
X149488998Y-125930000D02*
X149014171Y-126404827D01*
X149014171Y-126404827D02*
X149014171Y-126762366D01*
X157000000Y-125520000D02*
X156590000Y-125930000D01*
X157000000Y-123550000D02*
X157000000Y-125520000D01*
X143625000Y-138175000D02*
X143625000Y-138498080D01*
X143625000Y-138498080D02*
X144076220Y-138949300D01*
X144076220Y-138949300D02*
X144725000Y-138949300D01*
X142750000Y-137500000D02*
X142950000Y-137500000D01*
X142950000Y-137500000D02*
X143625000Y-138175000D01*
X152090000Y-122180000D02*
X151940000Y-122030000D01*
X145153587Y-122025000D02*
X129900000Y-122025000D01*
X129625000Y-122300000D02*
X129625000Y-131726920D01*
X131000000Y-133101920D02*
X131000000Y-133750700D01*
X145478587Y-122350000D02*
X145153587Y-122025000D01*
X148460000Y-122350000D02*
X145478587Y-122350000D01*
X151940000Y-122030000D02*
X148780000Y-122030000D01*
X148780000Y-122030000D02*
X148460000Y-122350000D01*
X129900000Y-122025000D02*
X129625000Y-122300000D01*
X129625000Y-131726920D02*
X131000000Y-133101920D01*
X152785010Y-125200010D02*
X152795020Y-125190000D01*
X152795020Y-125190000D02*
X156250000Y-125190000D01*
X156500000Y-124940000D02*
X156500000Y-123550000D01*
X156250000Y-125190000D02*
X156500000Y-124940000D01*
X132500000Y-135250000D02*
X131000700Y-135250000D01*
X131000700Y-135250000D02*
X131000000Y-135249300D01*
D51*
X127150000Y-80700000D02*
X128187556Y-79662444D01*
X128187556Y-79662444D02*
X136587556Y-79662444D01*
X136587556Y-79662444D02*
X137850000Y-78400000D01*
X137850000Y-78400000D02*
X137850000Y-74180000D01*
X137850000Y-74180000D02*
X144446500Y-67583500D01*
X144446500Y-67583500D02*
X144446500Y-61665281D01*
X121150000Y-79450000D02*
X121150000Y-78450000D01*
X121150000Y-78450000D02*
X122300000Y-77300000D01*
X127250000Y-76650000D02*
X127250000Y-66550000D01*
X122300000Y-77300000D02*
X126600000Y-77300000D01*
X127250000Y-66550000D02*
X134650000Y-59150000D01*
X126600000Y-77300000D02*
X127250000Y-76650000D01*
X134650000Y-59150000D02*
X144800000Y-59150000D01*
D53*
X187550000Y-80550000D02*
X187950000Y-80950000D01*
X187950000Y-80950000D02*
X188650000Y-80950000D01*
X187550000Y-79600000D02*
X187550000Y-80550000D01*
X186550000Y-78600000D02*
X187550000Y-79600000D01*
X184149391Y-78600000D02*
X186550000Y-78600000D01*
X183150000Y-80700000D02*
X183150000Y-79599391D01*
X183150000Y-79599391D02*
X184149391Y-78600000D01*
X171173051Y-140543051D02*
X170606249Y-140543051D01*
X170606249Y-140543051D02*
X170249300Y-140900000D01*
X174350000Y-134800000D02*
X174350000Y-135638668D01*
X174350000Y-135638668D02*
X174360656Y-135649324D01*
X156500000Y-134200000D02*
X156521519Y-134178481D01*
X156500000Y-134950000D02*
X156500000Y-134200000D01*
X156002670Y-133072498D02*
X155938253Y-133072498D01*
X156521519Y-134178481D02*
X156521519Y-133591347D01*
X156521519Y-133591347D02*
X156002670Y-133072498D01*
X156375000Y-103361081D02*
X156736061Y-103000020D01*
X156375000Y-104150000D02*
X156375000Y-103361081D01*
X156542427Y-134271164D02*
X156500000Y-134950000D01*
X156500000Y-134950000D02*
X156500000Y-134313591D01*
X156500000Y-134313591D02*
X156542427Y-134271164D01*
X157000000Y-134950000D02*
X157000000Y-133218824D01*
X157000000Y-133218824D02*
X156823392Y-133042216D01*
X157025000Y-103599919D02*
X157595357Y-103029562D01*
X157025000Y-104150000D02*
X157025000Y-103599919D01*
X159600000Y-103000000D02*
X159200000Y-103000000D01*
X159600000Y-103000000D02*
X159625000Y-103025000D01*
X162300000Y-103000000D02*
X159600000Y-103000000D01*
X159625000Y-103025000D02*
X159625000Y-104150000D01*
X174000000Y-106900000D02*
X173575736Y-106900000D01*
X162674991Y-103374991D02*
X162300000Y-103000000D01*
X173575736Y-106900000D02*
X173275736Y-106600000D01*
X173275736Y-106600000D02*
X165129707Y-106599999D01*
X165129707Y-106599999D02*
X162674991Y-104145283D01*
X158975000Y-103225000D02*
X158975000Y-104150000D01*
X162674991Y-104145283D02*
X162674991Y-103374991D01*
X159200000Y-103000000D02*
X158975000Y-103225000D01*
X166700000Y-97600000D02*
X171560000Y-97600000D01*
X171560000Y-97600000D02*
X172750000Y-98790000D01*
X165400000Y-96300000D02*
X166700000Y-97600000D01*
X159600000Y-96300000D02*
X165400000Y-96300000D01*
X159625000Y-98350000D02*
X159625000Y-97825000D01*
X159625000Y-97825000D02*
X159300000Y-97500000D01*
X159300000Y-97500000D02*
X159300000Y-96600000D01*
X159300000Y-96600000D02*
X159600000Y-96300000D01*
X158975000Y-98350000D02*
X159625000Y-98350000D01*
X156000000Y-111600000D02*
X161000000Y-111600000D01*
X157600000Y-99600000D02*
X157025000Y-99025000D01*
X157025000Y-99025000D02*
X157025000Y-98350000D01*
X161800000Y-99600000D02*
X157600000Y-99600000D01*
X154049200Y-133516376D02*
X154049200Y-133297821D01*
X154450011Y-134900011D02*
X154450011Y-133917187D01*
X154500000Y-134950000D02*
X154450011Y-134900011D01*
X154450011Y-133917187D02*
X154049200Y-133516376D01*
X156400000Y-99700000D02*
X156400000Y-98375000D01*
X156400000Y-98375000D02*
X156375000Y-98350000D01*
X156400000Y-99700000D02*
X150750000Y-99700000D01*
X150750000Y-99700000D02*
X150375000Y-99325000D01*
X150375000Y-99325000D02*
X150375000Y-98350000D01*
X156800000Y-99700000D02*
X156400000Y-99700000D01*
X156988539Y-132351739D02*
X156938537Y-132351739D01*
X157500000Y-134950000D02*
X157500000Y-132863200D01*
X157500000Y-132863200D02*
X156988539Y-132351739D01*
X154931703Y-132734783D02*
X154533786Y-132734783D01*
X155350030Y-134050030D02*
X155350030Y-133153110D01*
X155500000Y-134950000D02*
X155500000Y-134200000D01*
X155500000Y-134200000D02*
X155350030Y-134050030D01*
X155350030Y-133153110D02*
X154931703Y-132734783D01*
X150300000Y-107700000D02*
X155273194Y-107700000D01*
X155273194Y-107700000D02*
X155361609Y-107788415D01*
X150351894Y-104126894D02*
X150351894Y-103755174D01*
X150375000Y-104150000D02*
X150351894Y-104126894D01*
X150351894Y-103755174D02*
X150351894Y-103401621D01*
X156000000Y-134950000D02*
X156000000Y-133883029D01*
X156000000Y-133883029D02*
X155944121Y-133827150D01*
X151050020Y-107150020D02*
X155648782Y-107150020D01*
X151000000Y-107100000D02*
X151050020Y-107150020D01*
X151050000Y-103350000D02*
X151050000Y-104125000D01*
X151050000Y-104125000D02*
X151025000Y-104150000D01*
X152975000Y-104150000D02*
X152975000Y-105025000D01*
X152975000Y-105025000D02*
X152800000Y-105200000D01*
X152800000Y-105200000D02*
X147800000Y-105200000D01*
X147800000Y-105200000D02*
X147200000Y-105800000D01*
X147200000Y-105800000D02*
X146100000Y-105800000D01*
X152975000Y-104150000D02*
X153625000Y-104150000D01*
X145415025Y-95874975D02*
X142500000Y-98790000D01*
X152975000Y-97500000D02*
X152250009Y-96775009D01*
X150891824Y-95874975D02*
X145415025Y-95874975D01*
X152975000Y-98350000D02*
X152975000Y-97500000D01*
X151791856Y-96775009D02*
X150891824Y-95874975D01*
X152250009Y-96775009D02*
X151791856Y-96775009D01*
X153625000Y-98350000D02*
X152975000Y-98350000D01*
X150915472Y-97525000D02*
X148450000Y-97525000D01*
X151025000Y-97634529D02*
X150915472Y-97525000D01*
X151025000Y-98350000D02*
X151025000Y-97634529D01*
X148478015Y-108353015D02*
X148425000Y-108300000D01*
X154947793Y-108353015D02*
X148478015Y-108353015D01*
X154000000Y-134950000D02*
X154000000Y-134103587D01*
X154000000Y-134103587D02*
X153446501Y-133550088D01*
X153446501Y-133550088D02*
X153396224Y-133550088D01*
X148050000Y-132000000D02*
X146980000Y-132000000D01*
X146980000Y-132000000D02*
X146900000Y-132080000D01*
X148050602Y-133330568D02*
X148050602Y-133000602D01*
X148050602Y-133000602D02*
X148050000Y-133000000D01*
X157050000Y-140100000D02*
X158850000Y-138300000D01*
X156000000Y-140100000D02*
X157050000Y-140100000D01*
X159450000Y-126000000D02*
X160820603Y-126000000D01*
X160820603Y-126000000D02*
X160925108Y-126104505D01*
X159604329Y-138153327D02*
X159604329Y-138393437D01*
X156000000Y-139600000D02*
X156698998Y-139600000D01*
X158573999Y-137724999D02*
X159176001Y-137724999D01*
X159176001Y-137724999D02*
X159604329Y-138153327D01*
X156698998Y-139600000D02*
X158573999Y-137724999D01*
X161034975Y-125500000D02*
X161106557Y-125428418D01*
X159450000Y-125500000D02*
X161034975Y-125500000D01*
X160739670Y-127039670D02*
X160739670Y-127114820D01*
X160200000Y-126500000D02*
X160739670Y-127039670D01*
X159450000Y-126500000D02*
X160200000Y-126500000D01*
X154988176Y-140100000D02*
X155124988Y-139963188D01*
X152100000Y-140100000D02*
X154988176Y-140100000D01*
X151100000Y-139449989D02*
X151100000Y-140400000D01*
X151100000Y-140400000D02*
X151300000Y-140600000D01*
X151300000Y-140600000D02*
X152100000Y-140600000D01*
X157500000Y-123550000D02*
X160515009Y-123550000D01*
X160515009Y-123550000D02*
X160525009Y-123540000D01*
X151280000Y-109760000D02*
X151320000Y-109800000D01*
X151320000Y-109800000D02*
X154100000Y-109800000D01*
X154100000Y-109800000D02*
X154663609Y-110363609D01*
X154663609Y-110363609D02*
X159609870Y-110363609D01*
X159609870Y-110363609D02*
X160146261Y-110900000D01*
X160146261Y-110900000D02*
X165300000Y-110900000D01*
X150500000Y-134950000D02*
X150549999Y-134900001D01*
X150900002Y-133199998D02*
X151171965Y-132928035D01*
X152317425Y-133019298D02*
X152600267Y-133019298D01*
X152226162Y-132928035D02*
X152317425Y-133019298D01*
X150900002Y-133839996D02*
X150900002Y-133199998D01*
X150549999Y-134900001D02*
X150549999Y-134189999D01*
X151171965Y-132928035D02*
X152226162Y-132928035D01*
X150549999Y-134189999D02*
X150900002Y-133839996D01*
X150000000Y-134950000D02*
X150000000Y-134103587D01*
X150000000Y-134103587D02*
X150424987Y-133678600D01*
X150424987Y-133678600D02*
X150424987Y-133013598D01*
X150424987Y-133013598D02*
X151007771Y-132430814D01*
X151007771Y-132430814D02*
X152717319Y-132430814D01*
X164860002Y-98790000D02*
X164850000Y-98800002D01*
X167670000Y-98790000D02*
X164860002Y-98790000D01*
X154400000Y-109300000D02*
X159200000Y-109300000D01*
X159200000Y-109300000D02*
X160200000Y-110300000D01*
X160200000Y-110300000D02*
X164500000Y-110300000D01*
X150250601Y-109749999D02*
X150500684Y-109499916D01*
X136000000Y-109500000D02*
X136249999Y-109749999D01*
X136249999Y-109749999D02*
X150250601Y-109749999D01*
X151500000Y-134950000D02*
X151500000Y-133500000D01*
X137400000Y-108900000D02*
X149613155Y-108900000D01*
X149613155Y-108900000D02*
X149654389Y-108941234D01*
X151000000Y-134950000D02*
X151000000Y-135780721D01*
X175075012Y-63928599D02*
X175075012Y-64175012D01*
X175075012Y-64175012D02*
X179800000Y-68900000D01*
X165500000Y-53500000D02*
X165500000Y-54353587D01*
X165500000Y-54353587D02*
X175075012Y-63928599D01*
X180500000Y-116600000D02*
X166400016Y-116600000D01*
X159450000Y-133000000D02*
X162300000Y-133000000D01*
X162700231Y-133400231D02*
X166396853Y-133400231D01*
X162300000Y-133000000D02*
X162700231Y-133400231D01*
X165000000Y-51200000D02*
X165500000Y-51700000D01*
X165500000Y-51700000D02*
X165500000Y-53500000D01*
X164203400Y-51200000D02*
X165000000Y-51200000D01*
X163785000Y-51184000D02*
X164187400Y-51184000D01*
X164187400Y-51184000D02*
X164203400Y-51200000D01*
D51*
X162515000Y-51585000D02*
X162515000Y-51538963D01*
X162515000Y-51538963D02*
X162449990Y-51473953D01*
X162449990Y-51473953D02*
X162449990Y-51184000D01*
X160250000Y-61000000D02*
X160250000Y-58150000D01*
X160250000Y-58150000D02*
X159125000Y-57025000D01*
X159125000Y-52525000D02*
X162624598Y-52525000D01*
X162624598Y-52525000D02*
X162637599Y-52511999D01*
X163785000Y-53216000D02*
X163785000Y-52634598D01*
X163785000Y-52634598D02*
X163662401Y-52511999D01*
X163662401Y-52511999D02*
X162637599Y-52511999D01*
X162637599Y-52511999D02*
X162515000Y-52634598D01*
X162515000Y-52634598D02*
X162515000Y-53216000D01*
D53*
X177049999Y-89250001D02*
X175349999Y-89250001D01*
X175349999Y-89250001D02*
X175100000Y-89500000D01*
X183150000Y-83700000D02*
X182600000Y-83700000D01*
X182600000Y-83700000D02*
X177049999Y-89250001D01*
X152760000Y-122130000D02*
X152760000Y-122717842D01*
X152760000Y-122717842D02*
X153000000Y-122957842D01*
X153000000Y-122957842D02*
X153000000Y-123550000D01*
X180500000Y-82500000D02*
X181950000Y-82500000D01*
X181950000Y-82500000D02*
X183150000Y-83700000D01*
X153200000Y-112800000D02*
X175249980Y-112800000D01*
X152800000Y-113200000D02*
X153200000Y-112800000D01*
X164386741Y-67530001D02*
X171626446Y-67530001D01*
X171626446Y-67530001D02*
X171979999Y-67530001D01*
X161700000Y-64843260D02*
X164386741Y-67530001D01*
X161700000Y-61125000D02*
X161700000Y-64843260D01*
X163275000Y-59550000D02*
X161700000Y-61125000D01*
X172000000Y-67500000D02*
X172000000Y-69089996D01*
X172000000Y-69089996D02*
X171919996Y-69170000D01*
X153447197Y-122523842D02*
X153401976Y-122478621D01*
X153447197Y-122730953D02*
X153447197Y-122523842D01*
X153500000Y-122783756D02*
X153447197Y-122730953D01*
X153500000Y-123550000D02*
X153500000Y-122783756D01*
X152900000Y-112300000D02*
X152949999Y-112349999D01*
X152949999Y-112349999D02*
X173996448Y-112349999D01*
X173996448Y-112349999D02*
X174146447Y-112200000D01*
X174146447Y-112200000D02*
X174500000Y-112200000D01*
X129490000Y-74770000D02*
X129490000Y-75465000D01*
X129490000Y-75465000D02*
X129500000Y-75475000D01*
X121150000Y-80950000D02*
X122080000Y-80950000D01*
X122080000Y-80950000D02*
X122090000Y-80940000D01*
X158095053Y-132500000D02*
X156845053Y-131250000D01*
X159450000Y-132500000D02*
X158095053Y-132500000D01*
X154000000Y-110400000D02*
X130175020Y-110400000D01*
X159333868Y-110938611D02*
X154538611Y-110938611D01*
X154538611Y-110938611D02*
X154000000Y-110400000D01*
X128750000Y-67350000D02*
X129850000Y-66250000D01*
X129850000Y-66250000D02*
X136500000Y-66250000D01*
X128750000Y-75815000D02*
X128750000Y-67350000D01*
X129100000Y-76525000D02*
X129100000Y-76165000D01*
X129100000Y-76165000D02*
X128750000Y-75815000D01*
X149470000Y-61570000D02*
X149470000Y-65010000D01*
X147400000Y-59500000D02*
X149470000Y-61570000D01*
X154558188Y-122470688D02*
X154599534Y-122429342D01*
X154558188Y-122730430D02*
X154558188Y-122470688D01*
X154500000Y-122788618D02*
X154558188Y-122730430D01*
X154500000Y-123550000D02*
X154500000Y-122788618D01*
X153700000Y-111100000D02*
X153800000Y-111200000D01*
X133300000Y-111100000D02*
X153700000Y-111100000D01*
X133350000Y-82450000D02*
X130150000Y-82450000D01*
X180500000Y-75475000D02*
X181225000Y-75475000D01*
X181225000Y-75475000D02*
X181240000Y-75490000D01*
X188650000Y-79450000D02*
X188100000Y-79450000D01*
X185380346Y-76730346D02*
X182290346Y-76730346D01*
X188100000Y-79450000D02*
X185380346Y-76730346D01*
X188650000Y-79250000D02*
X188650000Y-79450000D01*
X177823347Y-90900000D02*
X177800000Y-90900000D01*
X179774990Y-88948357D02*
X177823347Y-90900000D01*
X171180000Y-66250000D02*
X170610000Y-66820000D01*
X172000000Y-66250000D02*
X171180000Y-66250000D01*
X158453350Y-132000000D02*
X157520859Y-131067509D01*
X159450000Y-132000000D02*
X158453350Y-132000000D01*
X177500000Y-109700000D02*
X160500000Y-109700000D01*
X160500000Y-109700000D02*
X159700000Y-108900000D01*
X178500000Y-76500000D02*
X180075000Y-76500000D01*
X180075000Y-76500000D02*
X180100000Y-76525000D01*
X174610000Y-72380000D02*
X170680000Y-72380000D01*
X174620000Y-72370000D02*
X174610000Y-72380000D01*
X162600004Y-93900000D02*
X162600000Y-93899996D01*
X166750000Y-93900000D02*
X162600004Y-93900000D01*
X174010000Y-74700000D02*
X174420000Y-75110000D01*
X174420000Y-75110000D02*
X174420000Y-75910000D01*
X174010000Y-73490000D02*
X174010000Y-74700000D01*
X174570000Y-72380000D02*
X174570000Y-72930000D01*
X174570000Y-72930000D02*
X174010000Y-73490000D01*
X160200000Y-131500000D02*
X160575053Y-131875053D01*
X159450000Y-131500000D02*
X160200000Y-131500000D01*
X160575053Y-131875053D02*
X160575053Y-132000000D01*
X145214978Y-121449980D02*
X142317957Y-121449980D01*
X146054876Y-121749980D02*
X145514978Y-121749980D01*
X145514978Y-121749980D02*
X145214978Y-121449980D01*
X148000001Y-126450001D02*
X148050000Y-126500000D01*
X147289999Y-126450001D02*
X148000001Y-126450001D01*
X145750000Y-124750000D02*
X145950000Y-124750000D01*
X146500000Y-125300000D02*
X146500000Y-125660002D01*
X145950000Y-124750000D02*
X146500000Y-125300000D01*
X146500000Y-125660002D02*
X147289999Y-126450001D01*
X127575000Y-138675000D02*
X131725000Y-138675000D01*
X147292425Y-128007575D02*
X145571164Y-128007575D01*
X144813589Y-127250000D02*
X142750000Y-127250000D01*
X148050000Y-128000000D02*
X147300000Y-128000000D01*
X145571164Y-128007575D02*
X144813589Y-127250000D01*
X147300000Y-128000000D02*
X147292425Y-128007575D01*
X142750000Y-127250000D02*
X142550000Y-127250000D01*
X142550000Y-127250000D02*
X141196983Y-125896983D01*
X141196983Y-125896983D02*
X139699960Y-125896983D01*
X131875000Y-138675000D02*
X132500000Y-138050000D01*
X138491418Y-138050000D02*
X139520709Y-137020709D01*
X132500000Y-138050000D02*
X138491418Y-138050000D01*
X131725000Y-138675000D02*
X131875000Y-138675000D01*
X148050000Y-125500000D02*
X148050000Y-124050000D01*
X147250000Y-123250000D02*
X146000000Y-123250000D01*
X148050000Y-124050000D02*
X147250000Y-123250000D01*
X145750000Y-126250000D02*
X145950000Y-126250000D01*
X145950000Y-126250000D02*
X146690000Y-126990000D01*
X147300000Y-127000000D02*
X148050000Y-127000000D01*
X146690000Y-126990000D02*
X147290000Y-126990000D01*
X147290000Y-126990000D02*
X147300000Y-127000000D01*
X151605020Y-122555020D02*
X150985020Y-122555020D01*
X152000000Y-122950000D02*
X151605020Y-122555020D01*
X152000000Y-123550000D02*
X152000000Y-122950000D01*
X158770000Y-124750000D02*
X156550000Y-126970000D01*
X162500000Y-124750000D02*
X158770000Y-124750000D01*
X156550000Y-126970000D02*
X151760006Y-126970000D01*
X164000000Y-124750000D02*
X162500000Y-124750000D01*
X143500000Y-132450000D02*
X142950000Y-133000000D01*
X148050000Y-130500000D02*
X146286410Y-130500000D01*
X145400001Y-132310001D02*
X145260002Y-132450000D01*
X142950000Y-133000000D02*
X142750000Y-133000000D01*
X146286410Y-130500000D02*
X145400001Y-131386409D01*
X145400001Y-131386409D02*
X145400001Y-132310001D01*
X145260002Y-132450000D02*
X143500000Y-132450000D01*
X150366850Y-136874379D02*
X149875621Y-136874379D01*
X149875621Y-136874379D02*
X149750000Y-137000000D01*
X155000000Y-134950000D02*
X155000000Y-134336410D01*
X155000000Y-134336410D02*
X154900021Y-134236431D01*
X154900021Y-134236431D02*
X154900021Y-133516900D01*
X154900021Y-133516900D02*
X154775024Y-133391903D01*
X154000000Y-122485439D02*
X154001969Y-122483470D01*
X154000000Y-123550000D02*
X154000000Y-122485439D01*
X134097060Y-67500000D02*
X134075019Y-67477959D01*
X136500000Y-67500000D02*
X134097060Y-67500000D01*
X134100000Y-111700000D02*
X153300000Y-111700000D01*
X139250000Y-121250000D02*
X139449980Y-121449980D01*
X139449980Y-121449980D02*
X139512371Y-121449980D01*
X155574547Y-122225453D02*
X156150000Y-121650000D01*
X155574547Y-122867744D02*
X155574547Y-122225453D01*
X155549999Y-122892292D02*
X155574547Y-122867744D01*
X155549999Y-123500001D02*
X155549999Y-122892292D01*
X155500000Y-123550000D02*
X155549999Y-123500001D01*
X177499996Y-117350000D02*
X177500000Y-117349996D01*
X156150000Y-117350000D02*
X177499996Y-117350000D01*
X155480113Y-123569887D02*
X155500000Y-123550000D01*
X179650000Y-134800000D02*
X179650000Y-135000000D01*
X179650000Y-135000000D02*
X178575000Y-136075000D01*
X178575000Y-136075000D02*
X178575000Y-138675000D01*
X178575000Y-138675000D02*
X182725000Y-138675000D01*
X150541719Y-131766878D02*
X150541719Y-132260455D01*
X150541719Y-132260455D02*
X149974976Y-132827198D01*
X139917892Y-135945696D02*
X139034307Y-135945696D01*
X149974976Y-132827198D02*
X149974976Y-133492200D01*
X148592177Y-134874999D02*
X146191890Y-134874999D01*
X145465271Y-134148380D02*
X144865269Y-134148380D01*
X149974976Y-133492200D02*
X148592177Y-134874999D01*
X150128561Y-131353720D02*
X150541719Y-131766878D01*
X144865269Y-134148380D02*
X144488626Y-134525023D01*
X141338567Y-134525023D02*
X139917892Y-135945696D01*
X146191890Y-134874999D02*
X145465271Y-134148380D01*
X144488626Y-134525023D02*
X141338567Y-134525023D01*
X139034307Y-135945696D02*
X138430003Y-136550000D01*
X138430003Y-136550000D02*
X133950004Y-136550000D01*
X133950004Y-136550000D02*
X133900004Y-136600000D01*
X136000000Y-131500000D02*
X133924980Y-131500000D01*
X159441478Y-129008522D02*
X150517465Y-129008522D01*
X159450000Y-129000000D02*
X159441478Y-129008522D01*
X150517465Y-129008522D02*
X150424404Y-128915461D01*
X150790691Y-128314548D02*
X149240440Y-128314548D01*
X158824473Y-128500000D02*
X158765962Y-128558511D01*
X158765962Y-128558511D02*
X151034654Y-128558511D01*
X159450000Y-128500000D02*
X158824473Y-128500000D01*
X151034654Y-128558511D02*
X150790691Y-128314548D01*
X146564689Y-133974976D02*
X148219380Y-133974976D01*
X148899988Y-132262425D02*
X149160276Y-132002137D01*
X148899988Y-133294366D02*
X148899988Y-132262425D01*
X148219380Y-133974976D02*
X148899988Y-133294366D01*
X140581256Y-133625001D02*
X143510001Y-133625001D01*
X143886644Y-133248358D02*
X145838071Y-133248358D01*
X143510001Y-133625001D02*
X143886644Y-133248358D01*
X139811338Y-134394919D02*
X140581256Y-133625001D01*
X145838071Y-133248358D02*
X146564689Y-133974976D01*
X138000000Y-129500000D02*
X138500000Y-129500000D01*
X138500000Y-129500000D02*
X139000000Y-130000000D01*
X150832185Y-127681600D02*
X149388400Y-127681600D01*
X151259085Y-128108500D02*
X150832185Y-127681600D01*
X158688062Y-128000000D02*
X158579562Y-128108500D01*
X159450000Y-128000000D02*
X158688062Y-128000000D01*
X158579562Y-128108500D02*
X151259085Y-128108500D01*
X149524965Y-132442437D02*
X149939644Y-132027758D01*
X148405779Y-134424987D02*
X149524965Y-133305801D01*
X138000000Y-133500000D02*
X139863588Y-135363590D01*
X149524965Y-133305801D02*
X149524965Y-132442437D01*
X139863588Y-135363590D02*
X141152167Y-134075012D01*
X145651671Y-133698369D02*
X146378289Y-134424987D01*
X141152167Y-134075012D02*
X143696401Y-134075012D01*
X144073044Y-133698369D02*
X145651671Y-133698369D01*
X143696401Y-134075012D02*
X144073044Y-133698369D01*
X146378289Y-134424987D02*
X148405779Y-134424987D01*
X157375000Y-135775000D02*
X158200000Y-136600000D01*
X152930723Y-135775000D02*
X157375000Y-135775000D01*
X150699999Y-136405722D02*
X152300001Y-136405722D01*
X152300001Y-136405722D02*
X152930723Y-135775000D01*
X140159261Y-136340739D02*
X143490716Y-136340739D01*
X150419276Y-136124999D02*
X150699999Y-136405722D01*
X145836410Y-136124999D02*
X150419276Y-136124999D01*
X145651400Y-135939989D02*
X145836410Y-136124999D01*
X143891466Y-135939989D02*
X145651400Y-135939989D01*
X143490716Y-136340739D02*
X143891466Y-135939989D01*
X140104293Y-136395707D02*
X140159261Y-136340739D01*
X139220707Y-136395707D02*
X140104293Y-136395707D01*
X133000000Y-137350000D02*
X138266414Y-137350000D01*
X138266414Y-137350000D02*
X139220707Y-136395707D01*
X160210223Y-127500000D02*
X160600561Y-127890338D01*
X159450000Y-127500000D02*
X160210223Y-127500000D01*
X136000000Y-129500000D02*
X133000000Y-129500000D01*
X150366996Y-126580000D02*
X149690000Y-126580000D01*
X159450000Y-127000000D02*
X158700000Y-127000000D01*
X158100000Y-127600000D02*
X151386996Y-127600000D01*
X151386996Y-127600000D02*
X150366996Y-126580000D01*
X158700000Y-127000000D02*
X158100000Y-127600000D01*
X138000000Y-127500000D02*
X139074958Y-126425042D01*
X139074958Y-126425042D02*
X139074958Y-125596981D01*
X139594819Y-125077120D02*
X143071841Y-125077120D01*
X139074958Y-125596981D02*
X139594819Y-125077120D01*
X143071841Y-125077120D02*
X143371840Y-125377119D01*
D52*
X167924988Y-133975012D02*
X171975012Y-133975012D01*
X175650000Y-137689998D02*
X175650000Y-139200000D01*
X171975012Y-133975012D02*
X172649999Y-134649999D01*
X172649999Y-134649999D02*
X172649999Y-136060001D01*
X173839988Y-137249990D02*
X175209992Y-137249990D01*
X172649999Y-136060001D02*
X173839988Y-137249990D01*
X175209992Y-137249990D02*
X175650000Y-137689998D01*
D53*
X168799240Y-134950000D02*
X168799240Y-134299950D01*
X168799240Y-134299950D02*
X168474302Y-133975012D01*
X168474302Y-133975012D02*
X167924988Y-133975012D01*
D52*
X167400000Y-134500000D02*
X167924988Y-133975012D01*
D50*
X167400000Y-135250000D02*
X167400000Y-134500000D01*
D53*
X175370000Y-73911020D02*
X175370000Y-74561070D01*
X175370000Y-74561070D02*
X175300000Y-74631070D01*
X175300000Y-76300000D02*
X173730000Y-77870000D01*
X175300000Y-74631070D02*
X175300000Y-76300000D01*
X173730000Y-77870000D02*
X173260000Y-77870000D01*
D55*
G36*
X192466100Y-140126954D02*
X192466100Y-144018600D01*
X179517701Y-144018600D01*
X179245301Y-143610000D01*
X187601920Y-143610000D01*
X187892759Y-143552148D01*
X188139321Y-143387401D01*
X188817789Y-142708933D01*
X189001920Y-142746220D01*
X189799480Y-142746220D01*
X190034797Y-142701942D01*
X190149993Y-142627815D01*
X190248630Y-142695211D01*
X190500520Y-142746220D01*
X191298080Y-142746220D01*
X191533397Y-142701942D01*
X191749521Y-142562870D01*
X191894511Y-142350670D01*
X191945520Y-142098780D01*
X191945520Y-141301220D01*
X191901242Y-141065903D01*
X191762170Y-140849779D01*
X191654298Y-140776073D01*
X191601448Y-140510381D01*
X191436701Y-140263819D01*
X191035481Y-139862599D01*
X190788919Y-139697852D01*
X190498080Y-139640000D01*
X190079329Y-139640000D01*
X190085000Y-139626310D01*
X190085000Y-139485750D01*
X189926250Y-139327000D01*
X189077000Y-139327000D01*
X189077000Y-139347000D01*
X188823000Y-139347000D01*
X188823000Y-139327000D01*
X188803000Y-139327000D01*
X188803000Y-139073000D01*
X188823000Y-139073000D01*
X188823000Y-139053000D01*
X189077000Y-139053000D01*
X189077000Y-139073000D01*
X189926250Y-139073000D01*
X190070231Y-138929019D01*
X192466100Y-140126954D01*
X192466100Y-140126954D01*
G37*
X192466100Y-140126954D02*
X192466100Y-144018600D01*
X179517701Y-144018600D01*
X179245301Y-143610000D01*
X187601920Y-143610000D01*
X187892759Y-143552148D01*
X188139321Y-143387401D01*
X188817789Y-142708933D01*
X189001920Y-142746220D01*
X189799480Y-142746220D01*
X190034797Y-142701942D01*
X190149993Y-142627815D01*
X190248630Y-142695211D01*
X190500520Y-142746220D01*
X191298080Y-142746220D01*
X191533397Y-142701942D01*
X191749521Y-142562870D01*
X191894511Y-142350670D01*
X191945520Y-142098780D01*
X191945520Y-141301220D01*
X191901242Y-141065903D01*
X191762170Y-140849779D01*
X191654298Y-140776073D01*
X191601448Y-140510381D01*
X191436701Y-140263819D01*
X191035481Y-139862599D01*
X190788919Y-139697852D01*
X190498080Y-139640000D01*
X190079329Y-139640000D01*
X190085000Y-139626310D01*
X190085000Y-139485750D01*
X189926250Y-139327000D01*
X189077000Y-139327000D01*
X189077000Y-139347000D01*
X188823000Y-139347000D01*
X188823000Y-139327000D01*
X188803000Y-139327000D01*
X188803000Y-139073000D01*
X188823000Y-139073000D01*
X188823000Y-139053000D01*
X189077000Y-139053000D01*
X189077000Y-139073000D01*
X189926250Y-139073000D01*
X190070231Y-138929019D01*
X192466100Y-140126954D01*
G36*
X145771838Y-139785317D02*
X145910910Y-140001441D01*
X146123110Y-140146431D01*
X146375000Y-140197440D01*
X146697637Y-140197440D01*
X146912598Y-140412401D01*
X147044582Y-140500589D01*
X147159161Y-140577148D01*
X147450000Y-140635000D01*
X147957994Y-140635000D01*
X147794959Y-140739910D01*
X147649969Y-140952110D01*
X147630768Y-141046927D01*
X147472036Y-140869268D01*
X146944791Y-140615291D01*
X146929026Y-140612642D01*
X146697000Y-140733783D01*
X146697000Y-142093000D01*
X146717000Y-142093000D01*
X146717000Y-142347000D01*
X146697000Y-142347000D01*
X146697000Y-143706217D01*
X146929026Y-143827358D01*
X146944791Y-143824709D01*
X147472036Y-143570732D01*
X147628907Y-143395155D01*
X147643238Y-143471317D01*
X147782310Y-143687441D01*
X147994510Y-143832431D01*
X148246400Y-143883440D01*
X149973600Y-143883440D01*
X150208917Y-143839162D01*
X150425041Y-143700090D01*
X150570031Y-143487890D01*
X150621040Y-143236000D01*
X150621040Y-141204000D01*
X150576762Y-140968683D01*
X150437690Y-140752559D01*
X150225490Y-140607569D01*
X149973600Y-140556560D01*
X149785904Y-140556560D01*
X149878943Y-140518117D01*
X150142192Y-140255327D01*
X150284838Y-139911799D01*
X150284940Y-139794892D01*
X150340000Y-139928148D01*
X150340000Y-140400000D01*
X150397852Y-140690839D01*
X150562599Y-140937401D01*
X150762599Y-141137401D01*
X151009161Y-141302148D01*
X151300000Y-141360000D01*
X151490116Y-141360000D01*
X151675000Y-141397440D01*
X152015000Y-141397440D01*
X152015000Y-141427002D01*
X152173748Y-141427002D01*
X152015000Y-141585750D01*
X152015000Y-141851309D01*
X152111673Y-142084698D01*
X152290301Y-142263327D01*
X152523690Y-142360000D01*
X152566250Y-142360000D01*
X152723871Y-142202379D01*
X152898110Y-142321431D01*
X153019830Y-142346080D01*
X153033750Y-142360000D01*
X153076310Y-142360000D01*
X153080335Y-142358333D01*
X153150000Y-142372440D01*
X153450000Y-142372440D01*
X153553671Y-142352933D01*
X153650000Y-142372440D01*
X153950000Y-142372440D01*
X154053671Y-142352933D01*
X154150000Y-142372440D01*
X154450000Y-142372440D01*
X154553671Y-142352933D01*
X154570218Y-142356284D01*
X154538417Y-142397259D01*
X153727747Y-144018600D01*
X140517701Y-144018600D01*
X139195471Y-142035255D01*
X139991400Y-142035255D01*
X139991400Y-142404745D01*
X140105474Y-142978234D01*
X140430330Y-143464415D01*
X140916511Y-143789271D01*
X141490000Y-143903345D01*
X142063489Y-143789271D01*
X142549670Y-143464415D01*
X142760000Y-143149634D01*
X142970330Y-143464415D01*
X143456511Y-143789271D01*
X144030000Y-143903345D01*
X144603489Y-143789271D01*
X145089670Y-143464415D01*
X145296461Y-143154931D01*
X145667964Y-143570732D01*
X146195209Y-143824709D01*
X146210974Y-143827358D01*
X146443000Y-143706217D01*
X146443000Y-142347000D01*
X146423000Y-142347000D01*
X146423000Y-142093000D01*
X146443000Y-142093000D01*
X146443000Y-140733783D01*
X146210974Y-140612642D01*
X146195209Y-140615291D01*
X145667964Y-140869268D01*
X145296461Y-141285069D01*
X145089670Y-140975585D01*
X144603489Y-140650729D01*
X144030000Y-140536655D01*
X143456511Y-140650729D01*
X142970330Y-140975585D01*
X142760000Y-141290366D01*
X142549670Y-140975585D01*
X142063489Y-140650729D01*
X141490000Y-140536655D01*
X140916511Y-140650729D01*
X140430330Y-140975585D01*
X140105474Y-141461766D01*
X139991400Y-142035255D01*
X139195471Y-142035255D01*
X138721054Y-141323630D01*
X138673147Y-141275623D01*
X138635468Y-141219232D01*
X138579667Y-141181947D01*
X138532261Y-141134442D01*
X138469628Y-141108422D01*
X138413238Y-141070743D01*
X138347419Y-141057651D01*
X138290739Y-141034103D01*
X138889863Y-140434979D01*
X141700026Y-140434979D01*
X141990865Y-140377127D01*
X142165972Y-140260125D01*
X142175290Y-140260133D01*
X142500682Y-140125684D01*
X142749854Y-139876947D01*
X142757842Y-139857711D01*
X142823190Y-139884846D01*
X143175265Y-139885153D01*
X143500657Y-139750704D01*
X143674383Y-139577282D01*
X143752869Y-139629725D01*
X143862130Y-139799521D01*
X144074330Y-139944511D01*
X144326220Y-139995520D01*
X145123780Y-139995520D01*
X145359097Y-139951242D01*
X145575221Y-139812170D01*
X145720211Y-139599970D01*
X145728894Y-139557091D01*
X145771838Y-139785317D01*
X145771838Y-139785317D01*
G37*
X145771838Y-139785317D02*
X145910910Y-140001441D01*
X146123110Y-140146431D01*
X146375000Y-140197440D01*
X146697637Y-140197440D01*
X146912598Y-140412401D01*
X147044582Y-140500589D01*
X147159161Y-140577148D01*
X147450000Y-140635000D01*
X147957994Y-140635000D01*
X147794959Y-140739910D01*
X147649969Y-140952110D01*
X147630768Y-141046927D01*
X147472036Y-140869268D01*
X146944791Y-140615291D01*
X146929026Y-140612642D01*
X146697000Y-140733783D01*
X146697000Y-142093000D01*
X146717000Y-142093000D01*
X146717000Y-142347000D01*
X146697000Y-142347000D01*
X146697000Y-143706217D01*
X146929026Y-143827358D01*
X146944791Y-143824709D01*
X147472036Y-143570732D01*
X147628907Y-143395155D01*
X147643238Y-143471317D01*
X147782310Y-143687441D01*
X147994510Y-143832431D01*
X148246400Y-143883440D01*
X149973600Y-143883440D01*
X150208917Y-143839162D01*
X150425041Y-143700090D01*
X150570031Y-143487890D01*
X150621040Y-143236000D01*
X150621040Y-141204000D01*
X150576762Y-140968683D01*
X150437690Y-140752559D01*
X150225490Y-140607569D01*
X149973600Y-140556560D01*
X149785904Y-140556560D01*
X149878943Y-140518117D01*
X150142192Y-140255327D01*
X150284838Y-139911799D01*
X150284940Y-139794892D01*
X150340000Y-139928148D01*
X150340000Y-140400000D01*
X150397852Y-140690839D01*
X150562599Y-140937401D01*
X150762599Y-141137401D01*
X151009161Y-141302148D01*
X151300000Y-141360000D01*
X151490116Y-141360000D01*
X151675000Y-141397440D01*
X152015000Y-141397440D01*
X152015000Y-141427002D01*
X152173748Y-141427002D01*
X152015000Y-141585750D01*
X152015000Y-141851309D01*
X152111673Y-142084698D01*
X152290301Y-142263327D01*
X152523690Y-142360000D01*
X152566250Y-142360000D01*
X152723871Y-142202379D01*
X152898110Y-142321431D01*
X153019830Y-142346080D01*
X153033750Y-142360000D01*
X153076310Y-142360000D01*
X153080335Y-142358333D01*
X153150000Y-142372440D01*
X153450000Y-142372440D01*
X153553671Y-142352933D01*
X153650000Y-142372440D01*
X153950000Y-142372440D01*
X154053671Y-142352933D01*
X154150000Y-142372440D01*
X154450000Y-142372440D01*
X154553671Y-142352933D01*
X154570218Y-142356284D01*
X154538417Y-142397259D01*
X153727747Y-144018600D01*
X140517701Y-144018600D01*
X139195471Y-142035255D01*
X139991400Y-142035255D01*
X139991400Y-142404745D01*
X140105474Y-142978234D01*
X140430330Y-143464415D01*
X140916511Y-143789271D01*
X141490000Y-143903345D01*
X142063489Y-143789271D01*
X142549670Y-143464415D01*
X142760000Y-143149634D01*
X142970330Y-143464415D01*
X143456511Y-143789271D01*
X144030000Y-143903345D01*
X144603489Y-143789271D01*
X145089670Y-143464415D01*
X145296461Y-143154931D01*
X145667964Y-143570732D01*
X146195209Y-143824709D01*
X146210974Y-143827358D01*
X146443000Y-143706217D01*
X146443000Y-142347000D01*
X146423000Y-142347000D01*
X146423000Y-142093000D01*
X146443000Y-142093000D01*
X146443000Y-140733783D01*
X146210974Y-140612642D01*
X146195209Y-140615291D01*
X145667964Y-140869268D01*
X145296461Y-141285069D01*
X145089670Y-140975585D01*
X144603489Y-140650729D01*
X144030000Y-140536655D01*
X143456511Y-140650729D01*
X142970330Y-140975585D01*
X142760000Y-141290366D01*
X142549670Y-140975585D01*
X142063489Y-140650729D01*
X141490000Y-140536655D01*
X140916511Y-140650729D01*
X140430330Y-140975585D01*
X140105474Y-141461766D01*
X139991400Y-142035255D01*
X139195471Y-142035255D01*
X138721054Y-141323630D01*
X138673147Y-141275623D01*
X138635468Y-141219232D01*
X138579667Y-141181947D01*
X138532261Y-141134442D01*
X138469628Y-141108422D01*
X138413238Y-141070743D01*
X138347419Y-141057651D01*
X138290739Y-141034103D01*
X138889863Y-140434979D01*
X141700026Y-140434979D01*
X141990865Y-140377127D01*
X142165972Y-140260125D01*
X142175290Y-140260133D01*
X142500682Y-140125684D01*
X142749854Y-139876947D01*
X142757842Y-139857711D01*
X142823190Y-139884846D01*
X143175265Y-139885153D01*
X143500657Y-139750704D01*
X143674383Y-139577282D01*
X143752869Y-139629725D01*
X143862130Y-139799521D01*
X144074330Y-139944511D01*
X144326220Y-139995520D01*
X145123780Y-139995520D01*
X145359097Y-139951242D01*
X145575221Y-139812170D01*
X145720211Y-139599970D01*
X145728894Y-139557091D01*
X145771838Y-139785317D01*
G36*
X129991067Y-133167789D02*
X129953780Y-133351920D01*
X129953780Y-134149480D01*
X129998058Y-134384797D01*
X130072185Y-134499993D01*
X130004789Y-134598630D01*
X129953780Y-134850520D01*
X129953780Y-135648080D01*
X129998058Y-135883397D01*
X130137130Y-136099521D01*
X130349330Y-136244511D01*
X130601220Y-136295520D01*
X131398780Y-136295520D01*
X131634097Y-136251242D01*
X131728759Y-136190328D01*
X131735910Y-136201441D01*
X131948110Y-136346431D01*
X132200000Y-136397440D01*
X132800000Y-136397440D01*
X133035317Y-136353162D01*
X133047488Y-136345330D01*
X133015158Y-136423190D01*
X133015122Y-136465013D01*
X132824735Y-136464847D01*
X132499343Y-136599296D01*
X132250171Y-136848033D01*
X132115154Y-137173190D01*
X132114947Y-137410803D01*
X131962599Y-137512599D01*
X131822638Y-137652560D01*
X131200000Y-137652560D01*
X130964683Y-137696838D01*
X130748559Y-137835910D01*
X130694519Y-137915000D01*
X128606844Y-137915000D01*
X128564090Y-137848559D01*
X128351890Y-137703569D01*
X128100000Y-137652560D01*
X127050000Y-137652560D01*
X126814683Y-137696838D01*
X126598559Y-137835910D01*
X126453569Y-138048110D01*
X126402560Y-138300000D01*
X126402560Y-139050000D01*
X126446838Y-139285317D01*
X126585910Y-139501441D01*
X126798110Y-139646431D01*
X127050000Y-139697440D01*
X128100000Y-139697440D01*
X128335317Y-139653162D01*
X128551441Y-139514090D01*
X128605481Y-139435000D01*
X130503904Y-139435000D01*
X130462599Y-139462599D01*
X128985198Y-140940000D01*
X128664250Y-140940000D01*
X128576250Y-140852000D01*
X127702000Y-140852000D01*
X127702000Y-140872000D01*
X127448000Y-140872000D01*
X127448000Y-140852000D01*
X126573750Y-140852000D01*
X126485750Y-140940000D01*
X126320226Y-140940000D01*
X126262170Y-140849779D01*
X126164786Y-140783239D01*
X126288327Y-140659699D01*
X126385000Y-140426310D01*
X126385000Y-140285750D01*
X126322940Y-140223690D01*
X126415000Y-140223690D01*
X126415000Y-140439250D01*
X126573750Y-140598000D01*
X127448000Y-140598000D01*
X127448000Y-139873750D01*
X127702000Y-139873750D01*
X127702000Y-140598000D01*
X128576250Y-140598000D01*
X128735000Y-140439250D01*
X128735000Y-140223690D01*
X128638327Y-139990301D01*
X128459698Y-139811673D01*
X128226309Y-139715000D01*
X127860750Y-139715000D01*
X127702000Y-139873750D01*
X127448000Y-139873750D01*
X127289250Y-139715000D01*
X126923691Y-139715000D01*
X126690302Y-139811673D01*
X126511673Y-139990301D01*
X126415000Y-140223690D01*
X126322940Y-140223690D01*
X126226250Y-140127000D01*
X125377000Y-140127000D01*
X125377000Y-140147000D01*
X125123000Y-140147000D01*
X125123000Y-140127000D01*
X125103000Y-140127000D01*
X125103000Y-139873000D01*
X125123000Y-139873000D01*
X125123000Y-139223750D01*
X125377000Y-139223750D01*
X125377000Y-139873000D01*
X126226250Y-139873000D01*
X126385000Y-139714250D01*
X126385000Y-139573690D01*
X126288327Y-139340301D01*
X126109698Y-139161673D01*
X125876309Y-139065000D01*
X125535750Y-139065000D01*
X125377000Y-139223750D01*
X125123000Y-139223750D01*
X124964250Y-139065000D01*
X124623691Y-139065000D01*
X124512717Y-139110967D01*
X124501890Y-139103569D01*
X124250000Y-139052560D01*
X123250000Y-139052560D01*
X123014683Y-139096838D01*
X122798559Y-139235910D01*
X122653569Y-139448110D01*
X122602560Y-139700000D01*
X122602560Y-140300000D01*
X122646838Y-140535317D01*
X122785910Y-140751441D01*
X122990000Y-140890890D01*
X122990000Y-140925644D01*
X122905489Y-141049330D01*
X122854480Y-141301220D01*
X122854480Y-141740000D01*
X122662882Y-141740000D01*
X122085481Y-141162599D01*
X121871431Y-141019576D01*
X121817008Y-140935000D01*
X121876309Y-140935000D01*
X122109698Y-140838327D01*
X122288327Y-140659699D01*
X122385000Y-140426310D01*
X122385000Y-140285750D01*
X122226250Y-140127000D01*
X121377000Y-140127000D01*
X121377000Y-140147000D01*
X121123000Y-140147000D01*
X121123000Y-140127000D01*
X121103000Y-140127000D01*
X121103000Y-139873000D01*
X121123000Y-139873000D01*
X121123000Y-139223750D01*
X121377000Y-139223750D01*
X121377000Y-139873000D01*
X122226250Y-139873000D01*
X122385000Y-139714250D01*
X122385000Y-139573690D01*
X122288327Y-139340301D01*
X122109698Y-139161673D01*
X121876309Y-139065000D01*
X121535750Y-139065000D01*
X121377000Y-139223750D01*
X121123000Y-139223750D01*
X120964250Y-139065000D01*
X120623691Y-139065000D01*
X120512717Y-139110967D01*
X120501890Y-139103569D01*
X120250000Y-139052560D01*
X119984887Y-139052560D01*
X123312807Y-137388600D01*
X129151100Y-137388600D01*
X129413238Y-137336457D01*
X129635468Y-137187968D01*
X129783957Y-136965738D01*
X129836100Y-136703600D01*
X129836100Y-133012822D01*
X129991067Y-133167789D01*
X129991067Y-133167789D01*
G37*
X129991067Y-133167789D02*
X129953780Y-133351920D01*
X129953780Y-134149480D01*
X129998058Y-134384797D01*
X130072185Y-134499993D01*
X130004789Y-134598630D01*
X129953780Y-134850520D01*
X129953780Y-135648080D01*
X129998058Y-135883397D01*
X130137130Y-136099521D01*
X130349330Y-136244511D01*
X130601220Y-136295520D01*
X131398780Y-136295520D01*
X131634097Y-136251242D01*
X131728759Y-136190328D01*
X131735910Y-136201441D01*
X131948110Y-136346431D01*
X132200000Y-136397440D01*
X132800000Y-136397440D01*
X133035317Y-136353162D01*
X133047488Y-136345330D01*
X133015158Y-136423190D01*
X133015122Y-136465013D01*
X132824735Y-136464847D01*
X132499343Y-136599296D01*
X132250171Y-136848033D01*
X132115154Y-137173190D01*
X132114947Y-137410803D01*
X131962599Y-137512599D01*
X131822638Y-137652560D01*
X131200000Y-137652560D01*
X130964683Y-137696838D01*
X130748559Y-137835910D01*
X130694519Y-137915000D01*
X128606844Y-137915000D01*
X128564090Y-137848559D01*
X128351890Y-137703569D01*
X128100000Y-137652560D01*
X127050000Y-137652560D01*
X126814683Y-137696838D01*
X126598559Y-137835910D01*
X126453569Y-138048110D01*
X126402560Y-138300000D01*
X126402560Y-139050000D01*
X126446838Y-139285317D01*
X126585910Y-139501441D01*
X126798110Y-139646431D01*
X127050000Y-139697440D01*
X128100000Y-139697440D01*
X128335317Y-139653162D01*
X128551441Y-139514090D01*
X128605481Y-139435000D01*
X130503904Y-139435000D01*
X130462599Y-139462599D01*
X128985198Y-140940000D01*
X128664250Y-140940000D01*
X128576250Y-140852000D01*
X127702000Y-140852000D01*
X127702000Y-140872000D01*
X127448000Y-140872000D01*
X127448000Y-140852000D01*
X126573750Y-140852000D01*
X126485750Y-140940000D01*
X126320226Y-140940000D01*
X126262170Y-140849779D01*
X126164786Y-140783239D01*
X126288327Y-140659699D01*
X126385000Y-140426310D01*
X126385000Y-140285750D01*
X126322940Y-140223690D01*
X126415000Y-140223690D01*
X126415000Y-140439250D01*
X126573750Y-140598000D01*
X127448000Y-140598000D01*
X127448000Y-139873750D01*
X127702000Y-139873750D01*
X127702000Y-140598000D01*
X128576250Y-140598000D01*
X128735000Y-140439250D01*
X128735000Y-140223690D01*
X128638327Y-139990301D01*
X128459698Y-139811673D01*
X128226309Y-139715000D01*
X127860750Y-139715000D01*
X127702000Y-139873750D01*
X127448000Y-139873750D01*
X127289250Y-139715000D01*
X126923691Y-139715000D01*
X126690302Y-139811673D01*
X126511673Y-139990301D01*
X126415000Y-140223690D01*
X126322940Y-140223690D01*
X126226250Y-140127000D01*
X125377000Y-140127000D01*
X125377000Y-140147000D01*
X125123000Y-140147000D01*
X125123000Y-140127000D01*
X125103000Y-140127000D01*
X125103000Y-139873000D01*
X125123000Y-139873000D01*
X125123000Y-139223750D01*
X125377000Y-139223750D01*
X125377000Y-139873000D01*
X126226250Y-139873000D01*
X126385000Y-139714250D01*
X126385000Y-139573690D01*
X126288327Y-139340301D01*
X126109698Y-139161673D01*
X125876309Y-139065000D01*
X125535750Y-139065000D01*
X125377000Y-139223750D01*
X125123000Y-139223750D01*
X124964250Y-139065000D01*
X124623691Y-139065000D01*
X124512717Y-139110967D01*
X124501890Y-139103569D01*
X124250000Y-139052560D01*
X123250000Y-139052560D01*
X123014683Y-139096838D01*
X122798559Y-139235910D01*
X122653569Y-139448110D01*
X122602560Y-139700000D01*
X122602560Y-140300000D01*
X122646838Y-140535317D01*
X122785910Y-140751441D01*
X122990000Y-140890890D01*
X122990000Y-140925644D01*
X122905489Y-141049330D01*
X122854480Y-141301220D01*
X122854480Y-141740000D01*
X122662882Y-141740000D01*
X122085481Y-141162599D01*
X121871431Y-141019576D01*
X121817008Y-140935000D01*
X121876309Y-140935000D01*
X122109698Y-140838327D01*
X122288327Y-140659699D01*
X122385000Y-140426310D01*
X122385000Y-140285750D01*
X122226250Y-140127000D01*
X121377000Y-140127000D01*
X121377000Y-140147000D01*
X121123000Y-140147000D01*
X121123000Y-140127000D01*
X121103000Y-140127000D01*
X121103000Y-139873000D01*
X121123000Y-139873000D01*
X121123000Y-139223750D01*
X121377000Y-139223750D01*
X121377000Y-139873000D01*
X122226250Y-139873000D01*
X122385000Y-139714250D01*
X122385000Y-139573690D01*
X122288327Y-139340301D01*
X122109698Y-139161673D01*
X121876309Y-139065000D01*
X121535750Y-139065000D01*
X121377000Y-139223750D01*
X121123000Y-139223750D01*
X120964250Y-139065000D01*
X120623691Y-139065000D01*
X120512717Y-139110967D01*
X120501890Y-139103569D01*
X120250000Y-139052560D01*
X119984887Y-139052560D01*
X123312807Y-137388600D01*
X129151100Y-137388600D01*
X129413238Y-137336457D01*
X129635468Y-137187968D01*
X129783957Y-136965738D01*
X129836100Y-136703600D01*
X129836100Y-133012822D01*
X129991067Y-133167789D01*
G36*
X177161734Y-135513870D02*
X177185910Y-135551441D01*
X177398110Y-135696431D01*
X177650000Y-135747440D01*
X177897388Y-135747440D01*
X177872852Y-135784161D01*
X177815000Y-136075000D01*
X177815000Y-137696778D01*
X177814683Y-137696838D01*
X177598559Y-137835910D01*
X177453569Y-138048110D01*
X177402560Y-138300000D01*
X177402560Y-139050000D01*
X177446838Y-139285317D01*
X177585910Y-139501441D01*
X177798110Y-139646431D01*
X178050000Y-139697440D01*
X179100000Y-139697440D01*
X179335317Y-139653162D01*
X179551441Y-139514090D01*
X179605481Y-139435000D01*
X181693156Y-139435000D01*
X181735910Y-139501441D01*
X181948110Y-139646431D01*
X182200000Y-139697440D01*
X183250000Y-139697440D01*
X183384018Y-139672223D01*
X183407003Y-139727714D01*
X183376309Y-139715000D01*
X183010750Y-139715000D01*
X182852000Y-139873750D01*
X182852000Y-140598000D01*
X183726250Y-140598000D01*
X183885000Y-140439250D01*
X183885000Y-140223690D01*
X183842997Y-140122286D01*
X183873691Y-140135000D01*
X184214250Y-140135000D01*
X184373000Y-139976250D01*
X184373000Y-139327000D01*
X184353000Y-139327000D01*
X184353000Y-139073000D01*
X184373000Y-139073000D01*
X184373000Y-138423750D01*
X184214250Y-138265000D01*
X183890854Y-138265000D01*
X183853162Y-138064683D01*
X183714090Y-137848559D01*
X183501890Y-137703569D01*
X183250000Y-137652560D01*
X182200000Y-137652560D01*
X181964683Y-137696838D01*
X181748559Y-137835910D01*
X181694519Y-137915000D01*
X179606844Y-137915000D01*
X179564090Y-137848559D01*
X179351890Y-137703569D01*
X179335000Y-137700149D01*
X179335000Y-136389802D01*
X179977362Y-135747440D01*
X180150000Y-135747440D01*
X180385317Y-135703162D01*
X180466100Y-135651180D01*
X180466100Y-136703600D01*
X180518243Y-136965738D01*
X180666732Y-137187968D01*
X180888962Y-137336457D01*
X181151100Y-137388600D01*
X186989393Y-137388600D01*
X188822998Y-138305403D01*
X188822998Y-138423748D01*
X188664250Y-138265000D01*
X188323691Y-138265000D01*
X188212717Y-138310967D01*
X188201890Y-138303569D01*
X187950000Y-138252560D01*
X186950000Y-138252560D01*
X186716740Y-138296451D01*
X186500000Y-138252560D01*
X185500000Y-138252560D01*
X185264683Y-138296838D01*
X185240594Y-138312339D01*
X185126309Y-138265000D01*
X184785750Y-138265000D01*
X184627000Y-138423750D01*
X184627000Y-139073000D01*
X184647000Y-139073000D01*
X184647000Y-139327000D01*
X184627000Y-139327000D01*
X184627000Y-139976250D01*
X184785750Y-140135000D01*
X185126309Y-140135000D01*
X185237283Y-140089033D01*
X185240000Y-140090890D01*
X185240000Y-140653780D01*
X184501920Y-140653780D01*
X184266603Y-140698058D01*
X184050479Y-140837130D01*
X183980191Y-140940000D01*
X183814250Y-140940000D01*
X183726250Y-140852000D01*
X182852000Y-140852000D01*
X182852000Y-140872000D01*
X182598000Y-140872000D01*
X182598000Y-140852000D01*
X181723750Y-140852000D01*
X181635750Y-140940000D01*
X179664250Y-140940000D01*
X179576250Y-140852000D01*
X178702000Y-140852000D01*
X178702000Y-140872000D01*
X178448000Y-140872000D01*
X178448000Y-140852000D01*
X178428000Y-140852000D01*
X178428000Y-140598000D01*
X178448000Y-140598000D01*
X178448000Y-139873750D01*
X178702000Y-139873750D01*
X178702000Y-140598000D01*
X179576250Y-140598000D01*
X179735000Y-140439250D01*
X179735000Y-140223690D01*
X181565000Y-140223690D01*
X181565000Y-140439250D01*
X181723750Y-140598000D01*
X182598000Y-140598000D01*
X182598000Y-139873750D01*
X182439250Y-139715000D01*
X182073691Y-139715000D01*
X181840302Y-139811673D01*
X181661673Y-139990301D01*
X181565000Y-140223690D01*
X179735000Y-140223690D01*
X179638327Y-139990301D01*
X179459698Y-139811673D01*
X179226309Y-139715000D01*
X178860750Y-139715000D01*
X178702000Y-139873750D01*
X178448000Y-139873750D01*
X178289250Y-139715000D01*
X177923691Y-139715000D01*
X177690302Y-139811673D01*
X177511673Y-139990301D01*
X177507145Y-140001232D01*
X177427239Y-139947841D01*
X177136400Y-139889989D01*
X177117578Y-139889989D01*
X177160543Y-139825687D01*
X177285000Y-139200000D01*
X177285000Y-137689998D01*
X177265276Y-137590839D01*
X177160543Y-137064310D01*
X177005718Y-136832599D01*
X176806120Y-136533878D01*
X176806117Y-136533876D01*
X176366112Y-136093870D01*
X175847642Y-135747440D01*
X176350000Y-135747440D01*
X176585317Y-135703162D01*
X176801441Y-135564090D01*
X176836750Y-135512413D01*
X177161734Y-135513870D01*
X177161734Y-135513870D01*
G37*
X177161734Y-135513870D02*
X177185910Y-135551441D01*
X177398110Y-135696431D01*
X177650000Y-135747440D01*
X177897388Y-135747440D01*
X177872852Y-135784161D01*
X177815000Y-136075000D01*
X177815000Y-137696778D01*
X177814683Y-137696838D01*
X177598559Y-137835910D01*
X177453569Y-138048110D01*
X177402560Y-138300000D01*
X177402560Y-139050000D01*
X177446838Y-139285317D01*
X177585910Y-139501441D01*
X177798110Y-139646431D01*
X178050000Y-139697440D01*
X179100000Y-139697440D01*
X179335317Y-139653162D01*
X179551441Y-139514090D01*
X179605481Y-139435000D01*
X181693156Y-139435000D01*
X181735910Y-139501441D01*
X181948110Y-139646431D01*
X182200000Y-139697440D01*
X183250000Y-139697440D01*
X183384018Y-139672223D01*
X183407003Y-139727714D01*
X183376309Y-139715000D01*
X183010750Y-139715000D01*
X182852000Y-139873750D01*
X182852000Y-140598000D01*
X183726250Y-140598000D01*
X183885000Y-140439250D01*
X183885000Y-140223690D01*
X183842997Y-140122286D01*
X183873691Y-140135000D01*
X184214250Y-140135000D01*
X184373000Y-139976250D01*
X184373000Y-139327000D01*
X184353000Y-139327000D01*
X184353000Y-139073000D01*
X184373000Y-139073000D01*
X184373000Y-138423750D01*
X184214250Y-138265000D01*
X183890854Y-138265000D01*
X183853162Y-138064683D01*
X183714090Y-137848559D01*
X183501890Y-137703569D01*
X183250000Y-137652560D01*
X182200000Y-137652560D01*
X181964683Y-137696838D01*
X181748559Y-137835910D01*
X181694519Y-137915000D01*
X179606844Y-137915000D01*
X179564090Y-137848559D01*
X179351890Y-137703569D01*
X179335000Y-137700149D01*
X179335000Y-136389802D01*
X179977362Y-135747440D01*
X180150000Y-135747440D01*
X180385317Y-135703162D01*
X180466100Y-135651180D01*
X180466100Y-136703600D01*
X180518243Y-136965738D01*
X180666732Y-137187968D01*
X180888962Y-137336457D01*
X181151100Y-137388600D01*
X186989393Y-137388600D01*
X188822998Y-138305403D01*
X188822998Y-138423748D01*
X188664250Y-138265000D01*
X188323691Y-138265000D01*
X188212717Y-138310967D01*
X188201890Y-138303569D01*
X187950000Y-138252560D01*
X186950000Y-138252560D01*
X186716740Y-138296451D01*
X186500000Y-138252560D01*
X185500000Y-138252560D01*
X185264683Y-138296838D01*
X185240594Y-138312339D01*
X185126309Y-138265000D01*
X184785750Y-138265000D01*
X184627000Y-138423750D01*
X184627000Y-139073000D01*
X184647000Y-139073000D01*
X184647000Y-139327000D01*
X184627000Y-139327000D01*
X184627000Y-139976250D01*
X184785750Y-140135000D01*
X185126309Y-140135000D01*
X185237283Y-140089033D01*
X185240000Y-140090890D01*
X185240000Y-140653780D01*
X184501920Y-140653780D01*
X184266603Y-140698058D01*
X184050479Y-140837130D01*
X183980191Y-140940000D01*
X183814250Y-140940000D01*
X183726250Y-140852000D01*
X182852000Y-140852000D01*
X182852000Y-140872000D01*
X182598000Y-140872000D01*
X182598000Y-140852000D01*
X181723750Y-140852000D01*
X181635750Y-140940000D01*
X179664250Y-140940000D01*
X179576250Y-140852000D01*
X178702000Y-140852000D01*
X178702000Y-140872000D01*
X178448000Y-140872000D01*
X178448000Y-140852000D01*
X178428000Y-140852000D01*
X178428000Y-140598000D01*
X178448000Y-140598000D01*
X178448000Y-139873750D01*
X178702000Y-139873750D01*
X178702000Y-140598000D01*
X179576250Y-140598000D01*
X179735000Y-140439250D01*
X179735000Y-140223690D01*
X181565000Y-140223690D01*
X181565000Y-140439250D01*
X181723750Y-140598000D01*
X182598000Y-140598000D01*
X182598000Y-139873750D01*
X182439250Y-139715000D01*
X182073691Y-139715000D01*
X181840302Y-139811673D01*
X181661673Y-139990301D01*
X181565000Y-140223690D01*
X179735000Y-140223690D01*
X179638327Y-139990301D01*
X179459698Y-139811673D01*
X179226309Y-139715000D01*
X178860750Y-139715000D01*
X178702000Y-139873750D01*
X178448000Y-139873750D01*
X178289250Y-139715000D01*
X177923691Y-139715000D01*
X177690302Y-139811673D01*
X177511673Y-139990301D01*
X177507145Y-140001232D01*
X177427239Y-139947841D01*
X177136400Y-139889989D01*
X177117578Y-139889989D01*
X177160543Y-139825687D01*
X177285000Y-139200000D01*
X177285000Y-137689998D01*
X177265276Y-137590839D01*
X177160543Y-137064310D01*
X177005718Y-136832599D01*
X176806120Y-136533878D01*
X176806117Y-136533876D01*
X176366112Y-136093870D01*
X175847642Y-135747440D01*
X176350000Y-135747440D01*
X176585317Y-135703162D01*
X176801441Y-135564090D01*
X176836750Y-135512413D01*
X177161734Y-135513870D01*
G36*
X162409392Y-134102379D02*
X162700231Y-134160231D01*
X165832584Y-134160231D01*
X165778789Y-134430672D01*
X165700000Y-134415000D01*
X165169984Y-134520427D01*
X164720657Y-134820657D01*
X164420427Y-135269984D01*
X164315000Y-135800000D01*
X164420427Y-136330016D01*
X164718077Y-136775482D01*
X164615197Y-137023244D01*
X164614864Y-137405000D01*
X164480000Y-137405000D01*
X163949983Y-137510427D01*
X163541218Y-137783555D01*
X163500657Y-137810657D01*
X162770657Y-138540657D01*
X162470427Y-138989983D01*
X162365000Y-139520000D01*
X162365000Y-139615000D01*
X162144494Y-139615000D01*
X162131362Y-139352632D01*
X161972397Y-138968857D01*
X161730213Y-138899392D01*
X160929605Y-139700000D01*
X160943748Y-139714143D01*
X160764143Y-139893748D01*
X160750000Y-139879605D01*
X160735858Y-139893748D01*
X160556253Y-139714143D01*
X160570395Y-139700000D01*
X160556253Y-139685858D01*
X160735858Y-139506253D01*
X160750000Y-139520395D01*
X161550608Y-138719787D01*
X161481143Y-138477603D01*
X160957698Y-138290856D01*
X160489398Y-138314295D01*
X160489482Y-138218172D01*
X160355033Y-137892780D01*
X160269400Y-137806997D01*
X160163598Y-137648654D01*
X160378159Y-137560000D01*
X160949859Y-137560000D01*
X161049296Y-137800657D01*
X161298033Y-138049829D01*
X161623190Y-138184846D01*
X161975265Y-138185153D01*
X162300657Y-138050704D01*
X162549829Y-137801967D01*
X162684846Y-137476810D01*
X162685153Y-137124735D01*
X162550704Y-136799343D01*
X162537309Y-136785924D01*
X162535496Y-136776810D01*
X162502148Y-136609160D01*
X162337401Y-136362599D01*
X162237401Y-136262599D01*
X162181645Y-136225344D01*
X162284846Y-135976810D01*
X162285153Y-135624735D01*
X162160000Y-135321841D01*
X162160000Y-134077473D01*
X162206070Y-133966524D01*
X162409392Y-134102379D01*
X162409392Y-134102379D01*
G37*
X162409392Y-134102379D02*
X162700231Y-134160231D01*
X165832584Y-134160231D01*
X165778789Y-134430672D01*
X165700000Y-134415000D01*
X165169984Y-134520427D01*
X164720657Y-134820657D01*
X164420427Y-135269984D01*
X164315000Y-135800000D01*
X164420427Y-136330016D01*
X164718077Y-136775482D01*
X164615197Y-137023244D01*
X164614864Y-137405000D01*
X164480000Y-137405000D01*
X163949983Y-137510427D01*
X163541218Y-137783555D01*
X163500657Y-137810657D01*
X162770657Y-138540657D01*
X162470427Y-138989983D01*
X162365000Y-139520000D01*
X162365000Y-139615000D01*
X162144494Y-139615000D01*
X162131362Y-139352632D01*
X161972397Y-138968857D01*
X161730213Y-138899392D01*
X160929605Y-139700000D01*
X160943748Y-139714143D01*
X160764143Y-139893748D01*
X160750000Y-139879605D01*
X160735858Y-139893748D01*
X160556253Y-139714143D01*
X160570395Y-139700000D01*
X160556253Y-139685858D01*
X160735858Y-139506253D01*
X160750000Y-139520395D01*
X161550608Y-138719787D01*
X161481143Y-138477603D01*
X160957698Y-138290856D01*
X160489398Y-138314295D01*
X160489482Y-138218172D01*
X160355033Y-137892780D01*
X160269400Y-137806997D01*
X160163598Y-137648654D01*
X160378159Y-137560000D01*
X160949859Y-137560000D01*
X161049296Y-137800657D01*
X161298033Y-138049829D01*
X161623190Y-138184846D01*
X161975265Y-138185153D01*
X162300657Y-138050704D01*
X162549829Y-137801967D01*
X162684846Y-137476810D01*
X162685153Y-137124735D01*
X162550704Y-136799343D01*
X162537309Y-136785924D01*
X162535496Y-136776810D01*
X162502148Y-136609160D01*
X162337401Y-136362599D01*
X162237401Y-136262599D01*
X162181645Y-136225344D01*
X162284846Y-135976810D01*
X162285153Y-135624735D01*
X162160000Y-135321841D01*
X162160000Y-134077473D01*
X162206070Y-133966524D01*
X162409392Y-134102379D01*
G36*
X133340000Y-138914250D02*
X133498750Y-139073000D01*
X134523000Y-139073000D01*
X134523000Y-139053000D01*
X134777000Y-139053000D01*
X134777000Y-139073000D01*
X134797000Y-139073000D01*
X134797000Y-139327000D01*
X134777000Y-139327000D01*
X134777000Y-139347000D01*
X134523000Y-139347000D01*
X134523000Y-139327000D01*
X133498750Y-139327000D01*
X133432946Y-139392804D01*
X133290839Y-139297852D01*
X133000000Y-139240000D01*
X132858964Y-139240000D01*
X132897440Y-139050000D01*
X132897440Y-138810000D01*
X133340000Y-138810000D01*
X133340000Y-138914250D01*
X133340000Y-138914250D01*
G37*
X133340000Y-138914250D02*
X133498750Y-139073000D01*
X134523000Y-139073000D01*
X134523000Y-139053000D01*
X134777000Y-139053000D01*
X134777000Y-139073000D01*
X134797000Y-139073000D01*
X134797000Y-139327000D01*
X134777000Y-139327000D01*
X134777000Y-139347000D01*
X134523000Y-139347000D01*
X134523000Y-139327000D01*
X133498750Y-139327000D01*
X133432946Y-139392804D01*
X133290839Y-139297852D01*
X133000000Y-139240000D01*
X132858964Y-139240000D01*
X132897440Y-139050000D01*
X132897440Y-138810000D01*
X133340000Y-138810000D01*
X133340000Y-138914250D01*
G36*
X149877000Y-138373000D02*
X149897000Y-138373000D01*
X149897000Y-138627000D01*
X149877000Y-138627000D01*
X149877000Y-138647000D01*
X149682374Y-138647000D01*
X149603000Y-138454900D01*
X149603000Y-138373000D01*
X149623000Y-138373000D01*
X149623000Y-138353000D01*
X149877000Y-138353000D01*
X149877000Y-138373000D01*
X149877000Y-138373000D01*
G37*
X149877000Y-138373000D02*
X149897000Y-138373000D01*
X149897000Y-138627000D01*
X149877000Y-138627000D01*
X149877000Y-138647000D01*
X149682374Y-138647000D01*
X149603000Y-138454900D01*
X149603000Y-138373000D01*
X149623000Y-138373000D01*
X149623000Y-138353000D01*
X149877000Y-138353000D01*
X149877000Y-138373000D01*
G36*
X157264878Y-136739680D02*
X157264838Y-136785167D01*
X157406883Y-137128943D01*
X157669673Y-137392192D01*
X157784375Y-137439821D01*
X157072440Y-138151756D01*
X157072440Y-137950000D01*
X157028162Y-137714683D01*
X156889090Y-137498559D01*
X156676890Y-137353569D01*
X156425000Y-137302560D01*
X156385079Y-137302560D01*
X156385147Y-137224735D01*
X156250698Y-136899343D01*
X156001961Y-136650171D01*
X155993230Y-136646545D01*
X155921452Y-136535000D01*
X157060198Y-136535000D01*
X157264878Y-136739680D01*
X157264878Y-136739680D01*
G37*
X157264878Y-136739680D02*
X157264838Y-136785167D01*
X157406883Y-137128943D01*
X157669673Y-137392192D01*
X157784375Y-137439821D01*
X157072440Y-138151756D01*
X157072440Y-137950000D01*
X157028162Y-137714683D01*
X156889090Y-137498559D01*
X156676890Y-137353569D01*
X156425000Y-137302560D01*
X156385079Y-137302560D01*
X156385147Y-137224735D01*
X156250698Y-136899343D01*
X156001961Y-136650171D01*
X155993230Y-136646545D01*
X155921452Y-136535000D01*
X157060198Y-136535000D01*
X157264878Y-136739680D01*
G36*
X141377000Y-137373000D02*
X141397000Y-137373000D01*
X141397000Y-137627000D01*
X141377000Y-137627000D01*
X141377000Y-137647000D01*
X141123000Y-137647000D01*
X141123000Y-137627000D01*
X141103000Y-137627000D01*
X141103000Y-137373000D01*
X141123000Y-137373000D01*
X141123000Y-137353000D01*
X141377000Y-137353000D01*
X141377000Y-137373000D01*
X141377000Y-137373000D01*
G37*
X141377000Y-137373000D02*
X141397000Y-137373000D01*
X141397000Y-137627000D01*
X141377000Y-137627000D01*
X141377000Y-137647000D01*
X141123000Y-137647000D01*
X141123000Y-137627000D01*
X141103000Y-137627000D01*
X141103000Y-137373000D01*
X141123000Y-137373000D01*
X141123000Y-137353000D01*
X141377000Y-137353000D01*
X141377000Y-137373000D01*
G36*
X146877000Y-136923000D02*
X148123000Y-136923000D01*
X148123000Y-136903000D01*
X148377000Y-136903000D01*
X148377000Y-136923000D01*
X148397000Y-136923000D01*
X148397000Y-137177000D01*
X148377000Y-137177000D01*
X148377000Y-137197000D01*
X148123000Y-137197000D01*
X148123000Y-137177000D01*
X146877000Y-137177000D01*
X146877000Y-137197000D01*
X146623000Y-137197000D01*
X146623000Y-137177000D01*
X146603000Y-137177000D01*
X146603000Y-136923000D01*
X146623000Y-136923000D01*
X146623000Y-136903000D01*
X146877000Y-136903000D01*
X146877000Y-136923000D01*
X146877000Y-136923000D01*
G37*
X146877000Y-136923000D02*
X148123000Y-136923000D01*
X148123000Y-136903000D01*
X148377000Y-136903000D01*
X148377000Y-136923000D01*
X148397000Y-136923000D01*
X148397000Y-137177000D01*
X148377000Y-137177000D01*
X148377000Y-137197000D01*
X148123000Y-137197000D01*
X148123000Y-137177000D01*
X146877000Y-137177000D01*
X146877000Y-137197000D01*
X146623000Y-137197000D01*
X146623000Y-137177000D01*
X146603000Y-137177000D01*
X146603000Y-136923000D01*
X146623000Y-136923000D01*
X146623000Y-136903000D01*
X146877000Y-136903000D01*
X146877000Y-136923000D01*
G36*
X132115154Y-129323190D02*
X132114847Y-129675265D01*
X132249296Y-130000657D01*
X132498033Y-130249829D01*
X132823190Y-130384846D01*
X133175265Y-130385153D01*
X133478159Y-130260000D01*
X134907670Y-130260000D01*
X135147380Y-130500129D01*
X134907090Y-130740000D01*
X134402453Y-130740000D01*
X134101790Y-130615154D01*
X133749715Y-130614847D01*
X133424323Y-130749296D01*
X133175151Y-130998033D01*
X133040134Y-131323190D01*
X133039827Y-131675265D01*
X133174276Y-132000657D01*
X133423013Y-132249829D01*
X133748170Y-132384846D01*
X134100245Y-132385153D01*
X134403139Y-132260000D01*
X134907670Y-132260000D01*
X135147380Y-132500129D01*
X134890084Y-132756976D01*
X134690228Y-133238282D01*
X134689774Y-133759432D01*
X134888789Y-134241086D01*
X135256976Y-134609916D01*
X135312631Y-134633026D01*
X136000000Y-135320395D01*
X136686721Y-134633674D01*
X136741086Y-134611211D01*
X137000129Y-134352620D01*
X137147380Y-134500129D01*
X136890084Y-134756976D01*
X136866974Y-134812631D01*
X136179605Y-135500000D01*
X136193748Y-135514143D01*
X136014143Y-135693748D01*
X136000000Y-135679605D01*
X135985858Y-135693748D01*
X135806253Y-135514143D01*
X135820395Y-135500000D01*
X135082853Y-134762458D01*
X134849672Y-134821219D01*
X134677478Y-135313100D01*
X134704192Y-135790000D01*
X134257063Y-135790000D01*
X134076814Y-135715154D01*
X133724739Y-135714847D01*
X133429887Y-135836677D01*
X133447440Y-135750000D01*
X133447440Y-134750000D01*
X133403162Y-134514683D01*
X133387661Y-134490594D01*
X133435000Y-134376309D01*
X133435000Y-134035750D01*
X133276250Y-133877000D01*
X132627000Y-133877000D01*
X132627000Y-133897000D01*
X132373000Y-133897000D01*
X132373000Y-133877000D01*
X132353000Y-133877000D01*
X132353000Y-133623000D01*
X132373000Y-133623000D01*
X132373000Y-132773750D01*
X132627000Y-132773750D01*
X132627000Y-133623000D01*
X133276250Y-133623000D01*
X133435000Y-133464250D01*
X133435000Y-133123691D01*
X133338327Y-132890302D01*
X133159699Y-132711673D01*
X132926310Y-132615000D01*
X132785750Y-132615000D01*
X132627000Y-132773750D01*
X132373000Y-132773750D01*
X132214250Y-132615000D01*
X132073690Y-132615000D01*
X131840301Y-132711673D01*
X131737296Y-132814678D01*
X131677043Y-132773509D01*
X131537401Y-132564519D01*
X130385000Y-131412118D01*
X130385000Y-129238280D01*
X130487144Y-129306531D01*
X131151100Y-129438600D01*
X131815056Y-129306531D01*
X132239963Y-129022617D01*
X132115154Y-129323190D01*
X132115154Y-129323190D01*
G37*
X132115154Y-129323190D02*
X132114847Y-129675265D01*
X132249296Y-130000657D01*
X132498033Y-130249829D01*
X132823190Y-130384846D01*
X133175265Y-130385153D01*
X133478159Y-130260000D01*
X134907670Y-130260000D01*
X135147380Y-130500129D01*
X134907090Y-130740000D01*
X134402453Y-130740000D01*
X134101790Y-130615154D01*
X133749715Y-130614847D01*
X133424323Y-130749296D01*
X133175151Y-130998033D01*
X133040134Y-131323190D01*
X133039827Y-131675265D01*
X133174276Y-132000657D01*
X133423013Y-132249829D01*
X133748170Y-132384846D01*
X134100245Y-132385153D01*
X134403139Y-132260000D01*
X134907670Y-132260000D01*
X135147380Y-132500129D01*
X134890084Y-132756976D01*
X134690228Y-133238282D01*
X134689774Y-133759432D01*
X134888789Y-134241086D01*
X135256976Y-134609916D01*
X135312631Y-134633026D01*
X136000000Y-135320395D01*
X136686721Y-134633674D01*
X136741086Y-134611211D01*
X137000129Y-134352620D01*
X137147380Y-134500129D01*
X136890084Y-134756976D01*
X136866974Y-134812631D01*
X136179605Y-135500000D01*
X136193748Y-135514143D01*
X136014143Y-135693748D01*
X136000000Y-135679605D01*
X135985858Y-135693748D01*
X135806253Y-135514143D01*
X135820395Y-135500000D01*
X135082853Y-134762458D01*
X134849672Y-134821219D01*
X134677478Y-135313100D01*
X134704192Y-135790000D01*
X134257063Y-135790000D01*
X134076814Y-135715154D01*
X133724739Y-135714847D01*
X133429887Y-135836677D01*
X133447440Y-135750000D01*
X133447440Y-134750000D01*
X133403162Y-134514683D01*
X133387661Y-134490594D01*
X133435000Y-134376309D01*
X133435000Y-134035750D01*
X133276250Y-133877000D01*
X132627000Y-133877000D01*
X132627000Y-133897000D01*
X132373000Y-133897000D01*
X132373000Y-133877000D01*
X132353000Y-133877000D01*
X132353000Y-133623000D01*
X132373000Y-133623000D01*
X132373000Y-132773750D01*
X132627000Y-132773750D01*
X132627000Y-133623000D01*
X133276250Y-133623000D01*
X133435000Y-133464250D01*
X133435000Y-133123691D01*
X133338327Y-132890302D01*
X133159699Y-132711673D01*
X132926310Y-132615000D01*
X132785750Y-132615000D01*
X132627000Y-132773750D01*
X132373000Y-132773750D01*
X132214250Y-132615000D01*
X132073690Y-132615000D01*
X131840301Y-132711673D01*
X131737296Y-132814678D01*
X131677043Y-132773509D01*
X131537401Y-132564519D01*
X130385000Y-131412118D01*
X130385000Y-129238280D01*
X130487144Y-129306531D01*
X131151100Y-129438600D01*
X131815056Y-129306531D01*
X132239963Y-129022617D01*
X132115154Y-129323190D01*
G36*
X166222560Y-129875000D02*
X166248919Y-130015086D01*
X166235000Y-130048690D01*
X166235000Y-130214250D01*
X166393750Y-130373000D01*
X166474051Y-130373000D01*
X166618110Y-130471431D01*
X166755120Y-130499176D01*
X166634683Y-130521838D01*
X166471257Y-130627000D01*
X166393750Y-130627000D01*
X166235000Y-130785750D01*
X166235000Y-130951310D01*
X166250268Y-130988171D01*
X166222560Y-131125000D01*
X166222560Y-131340001D01*
X165010000Y-131340001D01*
X165010000Y-131235750D01*
X164851250Y-131077000D01*
X164127000Y-131077000D01*
X164127000Y-131097000D01*
X163873000Y-131097000D01*
X163873000Y-131077000D01*
X162627000Y-131077000D01*
X162627000Y-131097000D01*
X162398735Y-131097000D01*
X162397116Y-131088861D01*
X162353000Y-130867075D01*
X162353000Y-130823000D01*
X162373000Y-130823000D01*
X162373000Y-130803000D01*
X162627000Y-130803000D01*
X162627000Y-130823000D01*
X163873000Y-130823000D01*
X163873000Y-130803000D01*
X164127000Y-130803000D01*
X164127000Y-130823000D01*
X164851250Y-130823000D01*
X165010000Y-130664250D01*
X165010000Y-130223691D01*
X164913327Y-129990302D01*
X164911957Y-129988932D01*
X164948808Y-129935000D01*
X165677924Y-129935000D01*
X165677929Y-129935001D01*
X165970066Y-129876890D01*
X166016604Y-129867633D01*
X166222560Y-129730018D01*
X166222560Y-129875000D01*
X166222560Y-129875000D01*
G37*
X166222560Y-129875000D02*
X166248919Y-130015086D01*
X166235000Y-130048690D01*
X166235000Y-130214250D01*
X166393750Y-130373000D01*
X166474051Y-130373000D01*
X166618110Y-130471431D01*
X166755120Y-130499176D01*
X166634683Y-130521838D01*
X166471257Y-130627000D01*
X166393750Y-130627000D01*
X166235000Y-130785750D01*
X166235000Y-130951310D01*
X166250268Y-130988171D01*
X166222560Y-131125000D01*
X166222560Y-131340001D01*
X165010000Y-131340001D01*
X165010000Y-131235750D01*
X164851250Y-131077000D01*
X164127000Y-131077000D01*
X164127000Y-131097000D01*
X163873000Y-131097000D01*
X163873000Y-131077000D01*
X162627000Y-131077000D01*
X162627000Y-131097000D01*
X162398735Y-131097000D01*
X162397116Y-131088861D01*
X162353000Y-130867075D01*
X162353000Y-130823000D01*
X162373000Y-130823000D01*
X162373000Y-130803000D01*
X162627000Y-130803000D01*
X162627000Y-130823000D01*
X163873000Y-130823000D01*
X163873000Y-130803000D01*
X164127000Y-130803000D01*
X164127000Y-130823000D01*
X164851250Y-130823000D01*
X165010000Y-130664250D01*
X165010000Y-130223691D01*
X164913327Y-129990302D01*
X164911957Y-129988932D01*
X164948808Y-129935000D01*
X165677924Y-129935000D01*
X165677929Y-129935001D01*
X165970066Y-129876890D01*
X166016604Y-129867633D01*
X166222560Y-129730018D01*
X166222560Y-129875000D01*
G36*
X144827000Y-129423000D02*
X144847000Y-129423000D01*
X144847000Y-129677000D01*
X144827000Y-129677000D01*
X144827000Y-129697000D01*
X144573000Y-129697000D01*
X144573000Y-129677000D01*
X144553000Y-129677000D01*
X144553000Y-129423000D01*
X144573000Y-129423000D01*
X144573000Y-129403000D01*
X144827000Y-129403000D01*
X144827000Y-129423000D01*
X144827000Y-129423000D01*
G37*
X144827000Y-129423000D02*
X144847000Y-129423000D01*
X144847000Y-129677000D01*
X144827000Y-129677000D01*
X144827000Y-129697000D01*
X144573000Y-129697000D01*
X144573000Y-129677000D01*
X144553000Y-129677000D01*
X144553000Y-129423000D01*
X144573000Y-129423000D01*
X144573000Y-129403000D01*
X144827000Y-129403000D01*
X144827000Y-129423000D01*
G36*
X161661673Y-127109698D02*
X161840301Y-127288327D01*
X162073690Y-127385000D01*
X162214250Y-127385000D01*
X162372998Y-127226252D01*
X162372998Y-127315281D01*
X162330171Y-127358033D01*
X162330017Y-127358404D01*
X161874210Y-127814210D01*
X161824294Y-127888914D01*
X161673559Y-127985910D01*
X161528569Y-128198110D01*
X161477560Y-128450000D01*
X161477560Y-129087962D01*
X161399467Y-129055535D01*
X161047392Y-129055228D01*
X160722000Y-129189677D01*
X160671589Y-129240000D01*
X160581400Y-129240000D01*
X160576532Y-129228247D01*
X160597440Y-129125000D01*
X160597440Y-128875000D01*
X160578684Y-128775319D01*
X160775826Y-128775491D01*
X161101218Y-128641042D01*
X161350390Y-128392305D01*
X161485407Y-128067148D01*
X161485714Y-127715073D01*
X161458068Y-127648164D01*
X161489499Y-127616787D01*
X161624516Y-127291630D01*
X161624752Y-127020564D01*
X161661673Y-127109698D01*
X161661673Y-127109698D01*
G37*
X161661673Y-127109698D02*
X161840301Y-127288327D01*
X162073690Y-127385000D01*
X162214250Y-127385000D01*
X162372998Y-127226252D01*
X162372998Y-127315281D01*
X162330171Y-127358033D01*
X162330017Y-127358404D01*
X161874210Y-127814210D01*
X161824294Y-127888914D01*
X161673559Y-127985910D01*
X161528569Y-128198110D01*
X161477560Y-128450000D01*
X161477560Y-129087962D01*
X161399467Y-129055535D01*
X161047392Y-129055228D01*
X160722000Y-129189677D01*
X160671589Y-129240000D01*
X160581400Y-129240000D01*
X160576532Y-129228247D01*
X160597440Y-129125000D01*
X160597440Y-128875000D01*
X160578684Y-128775319D01*
X160775826Y-128775491D01*
X161101218Y-128641042D01*
X161350390Y-128392305D01*
X161485407Y-128067148D01*
X161485714Y-127715073D01*
X161458068Y-127648164D01*
X161489499Y-127616787D01*
X161624516Y-127291630D01*
X161624752Y-127020564D01*
X161661673Y-127109698D01*
G36*
X134677560Y-122825000D02*
X134677560Y-124175000D01*
X134721838Y-124410317D01*
X134860910Y-124626441D01*
X135066141Y-124766669D01*
X134849672Y-124821219D01*
X134677478Y-125313100D01*
X134706625Y-125833434D01*
X134849672Y-126178781D01*
X135082853Y-126237542D01*
X135820395Y-125500000D01*
X135806253Y-125485858D01*
X135985858Y-125306253D01*
X136000000Y-125320395D01*
X136014143Y-125306253D01*
X136193748Y-125485858D01*
X136179605Y-125500000D01*
X136866326Y-126186721D01*
X136888789Y-126241086D01*
X137147380Y-126500129D01*
X136890084Y-126756976D01*
X136866974Y-126812631D01*
X136179605Y-127500000D01*
X136866326Y-128186721D01*
X136888789Y-128241086D01*
X137147380Y-128500129D01*
X136999871Y-128647380D01*
X136743024Y-128390084D01*
X136687369Y-128366974D01*
X136000000Y-127679605D01*
X135313279Y-128366326D01*
X135258914Y-128388789D01*
X134907090Y-128740000D01*
X133477473Y-128740000D01*
X133176810Y-128615154D01*
X132824735Y-128614847D01*
X132499343Y-128749296D01*
X132498193Y-128750444D01*
X132754031Y-128367556D01*
X132886100Y-127703600D01*
X132808425Y-127313100D01*
X134677478Y-127313100D01*
X134706625Y-127833434D01*
X134849672Y-128178781D01*
X135082853Y-128237542D01*
X135820395Y-127500000D01*
X135082853Y-126762458D01*
X134849672Y-126821219D01*
X134677478Y-127313100D01*
X132808425Y-127313100D01*
X132754031Y-127039644D01*
X132377930Y-126476770D01*
X132288699Y-126417147D01*
X135262458Y-126417147D01*
X135283337Y-126500000D01*
X135262458Y-126582853D01*
X135318283Y-126638678D01*
X135321219Y-126650328D01*
X135334627Y-126655022D01*
X136000000Y-127320395D01*
X136663905Y-126656490D01*
X136678781Y-126650328D01*
X136681717Y-126638678D01*
X136737542Y-126582853D01*
X136716663Y-126500000D01*
X136737542Y-126417147D01*
X136681717Y-126361322D01*
X136678781Y-126349672D01*
X136665373Y-126344978D01*
X136000000Y-125679605D01*
X135336095Y-126343510D01*
X135321219Y-126349672D01*
X135318283Y-126361322D01*
X135262458Y-126417147D01*
X132288699Y-126417147D01*
X131815056Y-126100669D01*
X131151100Y-125968600D01*
X130487144Y-126100669D01*
X130385000Y-126168920D01*
X130385000Y-125338600D01*
X132151100Y-125338600D01*
X132413238Y-125286457D01*
X132635468Y-125137968D01*
X132783957Y-124915738D01*
X132836100Y-124653600D01*
X132836100Y-122785000D01*
X134685660Y-122785000D01*
X134677560Y-122825000D01*
X134677560Y-122825000D01*
G37*
X134677560Y-122825000D02*
X134677560Y-124175000D01*
X134721838Y-124410317D01*
X134860910Y-124626441D01*
X135066141Y-124766669D01*
X134849672Y-124821219D01*
X134677478Y-125313100D01*
X134706625Y-125833434D01*
X134849672Y-126178781D01*
X135082853Y-126237542D01*
X135820395Y-125500000D01*
X135806253Y-125485858D01*
X135985858Y-125306253D01*
X136000000Y-125320395D01*
X136014143Y-125306253D01*
X136193748Y-125485858D01*
X136179605Y-125500000D01*
X136866326Y-126186721D01*
X136888789Y-126241086D01*
X137147380Y-126500129D01*
X136890084Y-126756976D01*
X136866974Y-126812631D01*
X136179605Y-127500000D01*
X136866326Y-128186721D01*
X136888789Y-128241086D01*
X137147380Y-128500129D01*
X136999871Y-128647380D01*
X136743024Y-128390084D01*
X136687369Y-128366974D01*
X136000000Y-127679605D01*
X135313279Y-128366326D01*
X135258914Y-128388789D01*
X134907090Y-128740000D01*
X133477473Y-128740000D01*
X133176810Y-128615154D01*
X132824735Y-128614847D01*
X132499343Y-128749296D01*
X132498193Y-128750444D01*
X132754031Y-128367556D01*
X132886100Y-127703600D01*
X132808425Y-127313100D01*
X134677478Y-127313100D01*
X134706625Y-127833434D01*
X134849672Y-128178781D01*
X135082853Y-128237542D01*
X135820395Y-127500000D01*
X135082853Y-126762458D01*
X134849672Y-126821219D01*
X134677478Y-127313100D01*
X132808425Y-127313100D01*
X132754031Y-127039644D01*
X132377930Y-126476770D01*
X132288699Y-126417147D01*
X135262458Y-126417147D01*
X135283337Y-126500000D01*
X135262458Y-126582853D01*
X135318283Y-126638678D01*
X135321219Y-126650328D01*
X135334627Y-126655022D01*
X136000000Y-127320395D01*
X136663905Y-126656490D01*
X136678781Y-126650328D01*
X136681717Y-126638678D01*
X136737542Y-126582853D01*
X136716663Y-126500000D01*
X136737542Y-126417147D01*
X136681717Y-126361322D01*
X136678781Y-126349672D01*
X136665373Y-126344978D01*
X136000000Y-125679605D01*
X135336095Y-126343510D01*
X135321219Y-126349672D01*
X135318283Y-126361322D01*
X135262458Y-126417147D01*
X132288699Y-126417147D01*
X131815056Y-126100669D01*
X131151100Y-125968600D01*
X130487144Y-126100669D01*
X130385000Y-126168920D01*
X130385000Y-125338600D01*
X132151100Y-125338600D01*
X132413238Y-125286457D01*
X132635468Y-125137968D01*
X132783957Y-124915738D01*
X132836100Y-124653600D01*
X132836100Y-122785000D01*
X134685660Y-122785000D01*
X134677560Y-122825000D01*
G36*
X162627000Y-126123000D02*
X162647000Y-126123000D01*
X162647000Y-126377000D01*
X162627000Y-126377000D01*
X162627000Y-126397000D01*
X162373000Y-126397000D01*
X162373000Y-126377000D01*
X162353000Y-126377000D01*
X162353000Y-126123000D01*
X162373000Y-126123000D01*
X162373000Y-126103000D01*
X162627000Y-126103000D01*
X162627000Y-126123000D01*
X162627000Y-126123000D01*
G37*
X162627000Y-126123000D02*
X162647000Y-126123000D01*
X162647000Y-126377000D01*
X162627000Y-126377000D01*
X162627000Y-126397000D01*
X162373000Y-126397000D01*
X162373000Y-126377000D01*
X162353000Y-126377000D01*
X162353000Y-126123000D01*
X162373000Y-126123000D01*
X162373000Y-126103000D01*
X162627000Y-126103000D01*
X162627000Y-126123000D01*
G36*
X142621136Y-125877776D02*
X142869873Y-126126948D01*
X143195030Y-126261965D01*
X143547105Y-126262272D01*
X143872497Y-126127823D01*
X143877328Y-126123000D01*
X144123000Y-126123000D01*
X144123000Y-126103000D01*
X144377000Y-126103000D01*
X144377000Y-126123000D01*
X144397000Y-126123000D01*
X144397000Y-126377000D01*
X144377000Y-126377000D01*
X144377000Y-126397000D01*
X144123000Y-126397000D01*
X144123000Y-126377000D01*
X143536182Y-126377000D01*
X143501890Y-126353569D01*
X143250000Y-126302560D01*
X142677362Y-126302560D01*
X142211922Y-125837120D01*
X142604337Y-125837120D01*
X142621136Y-125877776D01*
X142621136Y-125877776D01*
G37*
X142621136Y-125877776D02*
X142869873Y-126126948D01*
X143195030Y-126261965D01*
X143547105Y-126262272D01*
X143872497Y-126127823D01*
X143877328Y-126123000D01*
X144123000Y-126123000D01*
X144123000Y-126103000D01*
X144377000Y-126103000D01*
X144377000Y-126123000D01*
X144397000Y-126123000D01*
X144397000Y-126377000D01*
X144377000Y-126377000D01*
X144377000Y-126397000D01*
X144123000Y-126397000D01*
X144123000Y-126377000D01*
X143536182Y-126377000D01*
X143501890Y-126353569D01*
X143250000Y-126302560D01*
X142677362Y-126302560D01*
X142211922Y-125837120D01*
X142604337Y-125837120D01*
X142621136Y-125877776D01*
G36*
X171843785Y-118403923D02*
X171765000Y-118800000D01*
X171765000Y-119499135D01*
X171764999Y-119499140D01*
X171843785Y-119895217D01*
X172068144Y-120230996D01*
X172552460Y-120715312D01*
X172552460Y-121999620D01*
X172596738Y-122234937D01*
X172735810Y-122451061D01*
X172806184Y-122499145D01*
X172748459Y-122536290D01*
X172603469Y-122748490D01*
X172552460Y-123000380D01*
X172552460Y-125330260D01*
X172475736Y-125314998D01*
X172475731Y-125314999D01*
X169935100Y-125314999D01*
X169935100Y-124586610D01*
X169776350Y-124427860D01*
X168627000Y-124427860D01*
X168627000Y-124447860D01*
X168373000Y-124447860D01*
X168373000Y-124427860D01*
X167223650Y-124427860D01*
X167064900Y-124586610D01*
X167064900Y-125115000D01*
X165806822Y-125115000D01*
X165686799Y-125065162D01*
X165314833Y-125064838D01*
X164971057Y-125206883D01*
X164947440Y-125230459D01*
X164947440Y-124250000D01*
X164903162Y-124014683D01*
X164764090Y-123798559D01*
X164551890Y-123653569D01*
X164300000Y-123602560D01*
X163700000Y-123602560D01*
X163464683Y-123646838D01*
X163248559Y-123785910D01*
X163247610Y-123787299D01*
X163051890Y-123653569D01*
X162800000Y-123602560D01*
X162200000Y-123602560D01*
X161964683Y-123646838D01*
X161748559Y-123785910D01*
X161609110Y-123990000D01*
X161296417Y-123990000D01*
X161409855Y-123716810D01*
X161410162Y-123364735D01*
X161275713Y-123039343D01*
X161026976Y-122790171D01*
X160701819Y-122655154D01*
X160349744Y-122654847D01*
X160024352Y-122789296D01*
X160023647Y-122790000D01*
X158212279Y-122790000D01*
X158089090Y-122598559D01*
X157876890Y-122453569D01*
X157625000Y-122402560D01*
X157615596Y-122402560D01*
X157667635Y-122324677D01*
X157684478Y-122240000D01*
X157735003Y-121986002D01*
X157735002Y-121985997D01*
X157735002Y-121535000D01*
X164712929Y-121535000D01*
X164969673Y-121792192D01*
X165313201Y-121934838D01*
X165685167Y-121935162D01*
X166028943Y-121793117D01*
X166292192Y-121530327D01*
X166434838Y-121186799D01*
X166435162Y-120814833D01*
X166293117Y-120471057D01*
X166030327Y-120207808D01*
X165909014Y-120157434D01*
X165775790Y-120024210D01*
X165736613Y-119998033D01*
X165567446Y-119885000D01*
X167052460Y-119885000D01*
X167052460Y-121999620D01*
X167096738Y-122234937D01*
X167235810Y-122451061D01*
X167304357Y-122497897D01*
X167161573Y-122640682D01*
X167064900Y-122874071D01*
X167064900Y-124015110D01*
X167223650Y-124173860D01*
X168373000Y-124173860D01*
X168373000Y-124153860D01*
X168627000Y-124153860D01*
X168627000Y-124173860D01*
X169776350Y-124173860D01*
X169935100Y-124015110D01*
X169935100Y-122874071D01*
X169838427Y-122640682D01*
X169696727Y-122498982D01*
X169751541Y-122463710D01*
X169896531Y-122251510D01*
X169947540Y-121999620D01*
X169947540Y-119398660D01*
X169903262Y-119163343D01*
X169764190Y-118947219D01*
X169551990Y-118802229D01*
X169300100Y-118751220D01*
X169256353Y-118751220D01*
X168615132Y-118110000D01*
X172040177Y-118110000D01*
X171843785Y-118403923D01*
X171843785Y-118403923D01*
G37*
X171843785Y-118403923D02*
X171765000Y-118800000D01*
X171765000Y-119499135D01*
X171764999Y-119499140D01*
X171843785Y-119895217D01*
X172068144Y-120230996D01*
X172552460Y-120715312D01*
X172552460Y-121999620D01*
X172596738Y-122234937D01*
X172735810Y-122451061D01*
X172806184Y-122499145D01*
X172748459Y-122536290D01*
X172603469Y-122748490D01*
X172552460Y-123000380D01*
X172552460Y-125330260D01*
X172475736Y-125314998D01*
X172475731Y-125314999D01*
X169935100Y-125314999D01*
X169935100Y-124586610D01*
X169776350Y-124427860D01*
X168627000Y-124427860D01*
X168627000Y-124447860D01*
X168373000Y-124447860D01*
X168373000Y-124427860D01*
X167223650Y-124427860D01*
X167064900Y-124586610D01*
X167064900Y-125115000D01*
X165806822Y-125115000D01*
X165686799Y-125065162D01*
X165314833Y-125064838D01*
X164971057Y-125206883D01*
X164947440Y-125230459D01*
X164947440Y-124250000D01*
X164903162Y-124014683D01*
X164764090Y-123798559D01*
X164551890Y-123653569D01*
X164300000Y-123602560D01*
X163700000Y-123602560D01*
X163464683Y-123646838D01*
X163248559Y-123785910D01*
X163247610Y-123787299D01*
X163051890Y-123653569D01*
X162800000Y-123602560D01*
X162200000Y-123602560D01*
X161964683Y-123646838D01*
X161748559Y-123785910D01*
X161609110Y-123990000D01*
X161296417Y-123990000D01*
X161409855Y-123716810D01*
X161410162Y-123364735D01*
X161275713Y-123039343D01*
X161026976Y-122790171D01*
X160701819Y-122655154D01*
X160349744Y-122654847D01*
X160024352Y-122789296D01*
X160023647Y-122790000D01*
X158212279Y-122790000D01*
X158089090Y-122598559D01*
X157876890Y-122453569D01*
X157625000Y-122402560D01*
X157615596Y-122402560D01*
X157667635Y-122324677D01*
X157684478Y-122240000D01*
X157735003Y-121986002D01*
X157735002Y-121985997D01*
X157735002Y-121535000D01*
X164712929Y-121535000D01*
X164969673Y-121792192D01*
X165313201Y-121934838D01*
X165685167Y-121935162D01*
X166028943Y-121793117D01*
X166292192Y-121530327D01*
X166434838Y-121186799D01*
X166435162Y-120814833D01*
X166293117Y-120471057D01*
X166030327Y-120207808D01*
X165909014Y-120157434D01*
X165775790Y-120024210D01*
X165736613Y-119998033D01*
X165567446Y-119885000D01*
X167052460Y-119885000D01*
X167052460Y-121999620D01*
X167096738Y-122234937D01*
X167235810Y-122451061D01*
X167304357Y-122497897D01*
X167161573Y-122640682D01*
X167064900Y-122874071D01*
X167064900Y-124015110D01*
X167223650Y-124173860D01*
X168373000Y-124173860D01*
X168373000Y-124153860D01*
X168627000Y-124153860D01*
X168627000Y-124173860D01*
X169776350Y-124173860D01*
X169935100Y-124015110D01*
X169935100Y-122874071D01*
X169838427Y-122640682D01*
X169696727Y-122498982D01*
X169751541Y-122463710D01*
X169896531Y-122251510D01*
X169947540Y-121999620D01*
X169947540Y-119398660D01*
X169903262Y-119163343D01*
X169764190Y-118947219D01*
X169551990Y-118802229D01*
X169300100Y-118751220D01*
X169256353Y-118751220D01*
X168615132Y-118110000D01*
X172040177Y-118110000D01*
X171843785Y-118403923D01*
G36*
X139440134Y-123073190D02*
X139439827Y-123425265D01*
X139574276Y-123750657D01*
X139576652Y-123753037D01*
X139596838Y-123860317D01*
X139735910Y-124076441D01*
X139948110Y-124221431D01*
X140200000Y-124272440D01*
X140272618Y-124272440D01*
X140317298Y-124317120D01*
X139594819Y-124317120D01*
X139379249Y-124360000D01*
X139303979Y-124374972D01*
X139057418Y-124539719D01*
X138974836Y-124622301D01*
X138743024Y-124390084D01*
X138687369Y-124366974D01*
X138000000Y-123679605D01*
X137985858Y-123693748D01*
X137806253Y-123514143D01*
X137820395Y-123500000D01*
X137806253Y-123485858D01*
X137985858Y-123306253D01*
X138000000Y-123320395D01*
X138014143Y-123306253D01*
X138193748Y-123485858D01*
X138179605Y-123500000D01*
X138917147Y-124237542D01*
X139150328Y-124178781D01*
X139322522Y-123686900D01*
X139293375Y-123166566D01*
X139150328Y-122821219D01*
X139006600Y-122785000D01*
X139559801Y-122785000D01*
X139440134Y-123073190D01*
X139440134Y-123073190D01*
G37*
X139440134Y-123073190D02*
X139439827Y-123425265D01*
X139574276Y-123750657D01*
X139576652Y-123753037D01*
X139596838Y-123860317D01*
X139735910Y-124076441D01*
X139948110Y-124221431D01*
X140200000Y-124272440D01*
X140272618Y-124272440D01*
X140317298Y-124317120D01*
X139594819Y-124317120D01*
X139379249Y-124360000D01*
X139303979Y-124374972D01*
X139057418Y-124539719D01*
X138974836Y-124622301D01*
X138743024Y-124390084D01*
X138687369Y-124366974D01*
X138000000Y-123679605D01*
X137985858Y-123693748D01*
X137806253Y-123514143D01*
X137820395Y-123500000D01*
X137806253Y-123485858D01*
X137985858Y-123306253D01*
X138000000Y-123320395D01*
X138014143Y-123306253D01*
X138193748Y-123485858D01*
X138179605Y-123500000D01*
X138917147Y-124237542D01*
X139150328Y-124178781D01*
X139322522Y-123686900D01*
X139293375Y-123166566D01*
X139150328Y-122821219D01*
X139006600Y-122785000D01*
X139559801Y-122785000D01*
X139440134Y-123073190D01*
G36*
X142827000Y-123123000D02*
X144373000Y-123123000D01*
X144373000Y-123103000D01*
X144627000Y-123103000D01*
X144627000Y-123123000D01*
X144647000Y-123123000D01*
X144647000Y-123377000D01*
X144627000Y-123377000D01*
X144627000Y-123397000D01*
X144373000Y-123397000D01*
X144373000Y-123377000D01*
X142827000Y-123377000D01*
X142827000Y-123397000D01*
X142573000Y-123397000D01*
X142573000Y-123377000D01*
X142553000Y-123377000D01*
X142553000Y-123123000D01*
X142573000Y-123123000D01*
X142573000Y-123103000D01*
X142827000Y-123103000D01*
X142827000Y-123123000D01*
X142827000Y-123123000D01*
G37*
X142827000Y-123123000D02*
X144373000Y-123123000D01*
X144373000Y-123103000D01*
X144627000Y-123103000D01*
X144627000Y-123123000D01*
X144647000Y-123123000D01*
X144647000Y-123377000D01*
X144627000Y-123377000D01*
X144627000Y-123397000D01*
X144373000Y-123397000D01*
X144373000Y-123377000D01*
X142827000Y-123377000D01*
X142827000Y-123397000D01*
X142573000Y-123397000D01*
X142573000Y-123377000D01*
X142553000Y-123377000D01*
X142553000Y-123123000D01*
X142573000Y-123123000D01*
X142573000Y-123103000D01*
X142827000Y-123103000D01*
X142827000Y-123123000D01*
G36*
X140192460Y-116704879D02*
X139951397Y-117065655D01*
X139865000Y-117500000D01*
X139951397Y-117934345D01*
X140197434Y-118302566D01*
X140565655Y-118548603D01*
X141000000Y-118635000D01*
X141434345Y-118548603D01*
X141802566Y-118302566D01*
X141970132Y-118135000D01*
X144990000Y-118135000D01*
X144990000Y-118489250D01*
X145148750Y-118648000D01*
X145873000Y-118648000D01*
X145873000Y-118628000D01*
X146127000Y-118628000D01*
X146127000Y-118648000D01*
X146851250Y-118648000D01*
X146900000Y-118599250D01*
X146923750Y-118623000D01*
X147648000Y-118623000D01*
X147648000Y-118603000D01*
X147902000Y-118603000D01*
X147902000Y-118623000D01*
X148626250Y-118623000D01*
X148759559Y-118489691D01*
X149325867Y-119055999D01*
X149351397Y-119184346D01*
X149377560Y-119223502D01*
X149377560Y-119350000D01*
X149421838Y-119585317D01*
X149488329Y-119688646D01*
X149486673Y-119690302D01*
X149467758Y-119735966D01*
X149176810Y-119615154D01*
X148824735Y-119614847D01*
X148707561Y-119663262D01*
X148785000Y-119476309D01*
X148785000Y-119035750D01*
X148626250Y-118877000D01*
X147902000Y-118877000D01*
X147902000Y-118897000D01*
X147648000Y-118897000D01*
X147648000Y-118877000D01*
X146923750Y-118877000D01*
X146875000Y-118925750D01*
X146851250Y-118902000D01*
X146127000Y-118902000D01*
X146127000Y-118922000D01*
X145873000Y-118922000D01*
X145873000Y-118902000D01*
X145148750Y-118902000D01*
X144990000Y-119060750D01*
X144990000Y-119501309D01*
X145086673Y-119734698D01*
X145088043Y-119736068D01*
X145028569Y-119823110D01*
X145009961Y-119915000D01*
X142123764Y-119915000D01*
X141832924Y-119972852D01*
X141823153Y-119979381D01*
X141759021Y-119979325D01*
X141433629Y-120113774D01*
X141244513Y-120302560D01*
X140910906Y-120302560D01*
X140871752Y-120286302D01*
X140519677Y-120285995D01*
X140479587Y-120302560D01*
X140250000Y-120302560D01*
X140014683Y-120346838D01*
X140003021Y-120354342D01*
X140001890Y-120353569D01*
X139750000Y-120302560D01*
X138750000Y-120302560D01*
X138514683Y-120346838D01*
X138298559Y-120485910D01*
X138153569Y-120698110D01*
X138102560Y-120950000D01*
X138102560Y-121265000D01*
X129900000Y-121265000D01*
X129836100Y-121277711D01*
X129836100Y-116726725D01*
X139399516Y-116697002D01*
X140192460Y-116704879D01*
X140192460Y-116704879D01*
G37*
X140192460Y-116704879D02*
X139951397Y-117065655D01*
X139865000Y-117500000D01*
X139951397Y-117934345D01*
X140197434Y-118302566D01*
X140565655Y-118548603D01*
X141000000Y-118635000D01*
X141434345Y-118548603D01*
X141802566Y-118302566D01*
X141970132Y-118135000D01*
X144990000Y-118135000D01*
X144990000Y-118489250D01*
X145148750Y-118648000D01*
X145873000Y-118648000D01*
X145873000Y-118628000D01*
X146127000Y-118628000D01*
X146127000Y-118648000D01*
X146851250Y-118648000D01*
X146900000Y-118599250D01*
X146923750Y-118623000D01*
X147648000Y-118623000D01*
X147648000Y-118603000D01*
X147902000Y-118603000D01*
X147902000Y-118623000D01*
X148626250Y-118623000D01*
X148759559Y-118489691D01*
X149325867Y-119055999D01*
X149351397Y-119184346D01*
X149377560Y-119223502D01*
X149377560Y-119350000D01*
X149421838Y-119585317D01*
X149488329Y-119688646D01*
X149486673Y-119690302D01*
X149467758Y-119735966D01*
X149176810Y-119615154D01*
X148824735Y-119614847D01*
X148707561Y-119663262D01*
X148785000Y-119476309D01*
X148785000Y-119035750D01*
X148626250Y-118877000D01*
X147902000Y-118877000D01*
X147902000Y-118897000D01*
X147648000Y-118897000D01*
X147648000Y-118877000D01*
X146923750Y-118877000D01*
X146875000Y-118925750D01*
X146851250Y-118902000D01*
X146127000Y-118902000D01*
X146127000Y-118922000D01*
X145873000Y-118922000D01*
X145873000Y-118902000D01*
X145148750Y-118902000D01*
X144990000Y-119060750D01*
X144990000Y-119501309D01*
X145086673Y-119734698D01*
X145088043Y-119736068D01*
X145028569Y-119823110D01*
X145009961Y-119915000D01*
X142123764Y-119915000D01*
X141832924Y-119972852D01*
X141823153Y-119979381D01*
X141759021Y-119979325D01*
X141433629Y-120113774D01*
X141244513Y-120302560D01*
X140910906Y-120302560D01*
X140871752Y-120286302D01*
X140519677Y-120285995D01*
X140479587Y-120302560D01*
X140250000Y-120302560D01*
X140014683Y-120346838D01*
X140003021Y-120354342D01*
X140001890Y-120353569D01*
X139750000Y-120302560D01*
X138750000Y-120302560D01*
X138514683Y-120346838D01*
X138298559Y-120485910D01*
X138153569Y-120698110D01*
X138102560Y-120950000D01*
X138102560Y-121265000D01*
X129900000Y-121265000D01*
X129836100Y-121277711D01*
X129836100Y-116726725D01*
X139399516Y-116697002D01*
X140192460Y-116704879D01*
G36*
X150440000Y-120797000D02*
X150273000Y-120797000D01*
X150273000Y-120777000D01*
X150253000Y-120777000D01*
X150253000Y-120523000D01*
X150273000Y-120523000D01*
X150273000Y-120503000D01*
X150440000Y-120503000D01*
X150440000Y-120797000D01*
X150440000Y-120797000D01*
G37*
X150440000Y-120797000D02*
X150273000Y-120797000D01*
X150273000Y-120777000D01*
X150253000Y-120777000D01*
X150253000Y-120523000D01*
X150273000Y-120523000D01*
X150273000Y-120503000D01*
X150440000Y-120503000D01*
X150440000Y-120797000D01*
G36*
X170177000Y-91373000D02*
X170197000Y-91373000D01*
X170197000Y-91627000D01*
X170177000Y-91627000D01*
X170177000Y-92048750D01*
X170077000Y-92148750D01*
X170077000Y-92873000D01*
X171026250Y-92873000D01*
X171153679Y-92745571D01*
X171291401Y-92951688D01*
X171324210Y-93000790D01*
X173062381Y-94738960D01*
X171886400Y-94738960D01*
X171651083Y-94783238D01*
X171434959Y-94922310D01*
X171289969Y-95134510D01*
X171270961Y-95228375D01*
X170984947Y-94967312D01*
X170569026Y-94795042D01*
X170337000Y-94916183D01*
X170337000Y-96123000D01*
X170357000Y-96123000D01*
X170357000Y-96377000D01*
X170337000Y-96377000D01*
X170337000Y-96397000D01*
X170083000Y-96397000D01*
X170083000Y-96377000D01*
X170063000Y-96377000D01*
X170063000Y-96123000D01*
X170083000Y-96123000D01*
X170083000Y-94916183D01*
X169850974Y-94795042D01*
X169435053Y-94967312D01*
X169003179Y-95361510D01*
X168945664Y-95484228D01*
X168729670Y-95160971D01*
X168243489Y-94836115D01*
X167670000Y-94722041D01*
X167096511Y-94836115D01*
X166610330Y-95160971D01*
X166385002Y-95498198D01*
X166385153Y-95324735D01*
X166250704Y-94999343D01*
X166125791Y-94874212D01*
X166125790Y-94874210D01*
X166125788Y-94874209D01*
X166001967Y-94750171D01*
X165784811Y-94660000D01*
X166272527Y-94660000D01*
X166573190Y-94784846D01*
X166925265Y-94785153D01*
X167250657Y-94650704D01*
X167499829Y-94401967D01*
X167634846Y-94076810D01*
X167634893Y-94022440D01*
X167924397Y-94022440D01*
X168082957Y-94088280D01*
X168435032Y-94088587D01*
X168595120Y-94022440D01*
X168650000Y-94022440D01*
X168885317Y-93978162D01*
X168988646Y-93911671D01*
X168990302Y-93913327D01*
X169223691Y-94010000D01*
X169664250Y-94010000D01*
X169823000Y-93851250D01*
X169823000Y-93127000D01*
X170077000Y-93127000D01*
X170077000Y-93851250D01*
X170235750Y-94010000D01*
X170676309Y-94010000D01*
X170909698Y-93913327D01*
X171088327Y-93734699D01*
X171185000Y-93501310D01*
X171185000Y-93285750D01*
X171026250Y-93127000D01*
X170077000Y-93127000D01*
X169823000Y-93127000D01*
X169803000Y-93127000D01*
X169803000Y-92873000D01*
X169823000Y-92873000D01*
X169823000Y-92451250D01*
X169923000Y-92351250D01*
X169923000Y-91627000D01*
X169903000Y-91627000D01*
X169903000Y-91373000D01*
X169923000Y-91373000D01*
X169923000Y-91353000D01*
X170177000Y-91353000D01*
X170177000Y-91373000D01*
X170177000Y-91373000D01*
G37*
X170177000Y-91373000D02*
X170197000Y-91373000D01*
X170197000Y-91627000D01*
X170177000Y-91627000D01*
X170177000Y-92048750D01*
X170077000Y-92148750D01*
X170077000Y-92873000D01*
X171026250Y-92873000D01*
X171153679Y-92745571D01*
X171291401Y-92951688D01*
X171324210Y-93000790D01*
X173062381Y-94738960D01*
X171886400Y-94738960D01*
X171651083Y-94783238D01*
X171434959Y-94922310D01*
X171289969Y-95134510D01*
X171270961Y-95228375D01*
X170984947Y-94967312D01*
X170569026Y-94795042D01*
X170337000Y-94916183D01*
X170337000Y-96123000D01*
X170357000Y-96123000D01*
X170357000Y-96377000D01*
X170337000Y-96377000D01*
X170337000Y-96397000D01*
X170083000Y-96397000D01*
X170083000Y-96377000D01*
X170063000Y-96377000D01*
X170063000Y-96123000D01*
X170083000Y-96123000D01*
X170083000Y-94916183D01*
X169850974Y-94795042D01*
X169435053Y-94967312D01*
X169003179Y-95361510D01*
X168945664Y-95484228D01*
X168729670Y-95160971D01*
X168243489Y-94836115D01*
X167670000Y-94722041D01*
X167096511Y-94836115D01*
X166610330Y-95160971D01*
X166385002Y-95498198D01*
X166385153Y-95324735D01*
X166250704Y-94999343D01*
X166125791Y-94874212D01*
X166125790Y-94874210D01*
X166125788Y-94874209D01*
X166001967Y-94750171D01*
X165784811Y-94660000D01*
X166272527Y-94660000D01*
X166573190Y-94784846D01*
X166925265Y-94785153D01*
X167250657Y-94650704D01*
X167499829Y-94401967D01*
X167634846Y-94076810D01*
X167634893Y-94022440D01*
X167924397Y-94022440D01*
X168082957Y-94088280D01*
X168435032Y-94088587D01*
X168595120Y-94022440D01*
X168650000Y-94022440D01*
X168885317Y-93978162D01*
X168988646Y-93911671D01*
X168990302Y-93913327D01*
X169223691Y-94010000D01*
X169664250Y-94010000D01*
X169823000Y-93851250D01*
X169823000Y-93127000D01*
X170077000Y-93127000D01*
X170077000Y-93851250D01*
X170235750Y-94010000D01*
X170676309Y-94010000D01*
X170909698Y-93913327D01*
X171088327Y-93734699D01*
X171185000Y-93501310D01*
X171185000Y-93285750D01*
X171026250Y-93127000D01*
X170077000Y-93127000D01*
X169823000Y-93127000D01*
X169803000Y-93127000D01*
X169803000Y-92873000D01*
X169823000Y-92873000D01*
X169823000Y-92451250D01*
X169923000Y-92351250D01*
X169923000Y-91627000D01*
X169903000Y-91627000D01*
X169903000Y-91373000D01*
X169923000Y-91373000D01*
X169923000Y-91353000D01*
X170177000Y-91353000D01*
X170177000Y-91373000D01*
G36*
X152220799Y-94011079D02*
X152205804Y-94043449D01*
X152149360Y-94163949D01*
X152092119Y-94284835D01*
X152033237Y-94407845D01*
X152028615Y-94425939D01*
X152018243Y-94441462D01*
X151995696Y-94554811D01*
X151967089Y-94666804D01*
X151969743Y-94685287D01*
X151966100Y-94703600D01*
X151988648Y-94816954D01*
X152003750Y-94922135D01*
X151755783Y-94674168D01*
X151755781Y-94674165D01*
X151468666Y-94482322D01*
X151129991Y-94414954D01*
X151129986Y-94414955D01*
X146960180Y-94414955D01*
X146784716Y-94414802D01*
X146459324Y-94549251D01*
X146334193Y-94674164D01*
X146334191Y-94674165D01*
X146334190Y-94674167D01*
X146210152Y-94797988D01*
X146078527Y-95114975D01*
X145415025Y-95114975D01*
X145124186Y-95172827D01*
X144877624Y-95337574D01*
X144011040Y-96204158D01*
X144011040Y-95386400D01*
X143966762Y-95151083D01*
X143827690Y-94934959D01*
X143615490Y-94789969D01*
X143363600Y-94738960D01*
X141636400Y-94738960D01*
X141401083Y-94783238D01*
X141184959Y-94922310D01*
X141039969Y-95134510D01*
X141020961Y-95228375D01*
X140734947Y-94967312D01*
X140319026Y-94795042D01*
X140087000Y-94916183D01*
X140087000Y-96123000D01*
X140107000Y-96123000D01*
X140107000Y-96377000D01*
X140087000Y-96377000D01*
X140087000Y-96397000D01*
X139833000Y-96397000D01*
X139833000Y-96377000D01*
X139813000Y-96377000D01*
X139813000Y-96123000D01*
X139833000Y-96123000D01*
X139833000Y-94916183D01*
X139600974Y-94795042D01*
X139185053Y-94967312D01*
X138753179Y-95361510D01*
X138695664Y-95484228D01*
X138479670Y-95160971D01*
X137993489Y-94836115D01*
X137420000Y-94722041D01*
X136846511Y-94836115D01*
X136360330Y-95160971D01*
X136285000Y-95273710D01*
X136285000Y-94055662D01*
X142620602Y-93967004D01*
X152220799Y-94011079D01*
X152220799Y-94011079D01*
G37*
X152220799Y-94011079D02*
X152205804Y-94043449D01*
X152149360Y-94163949D01*
X152092119Y-94284835D01*
X152033237Y-94407845D01*
X152028615Y-94425939D01*
X152018243Y-94441462D01*
X151995696Y-94554811D01*
X151967089Y-94666804D01*
X151969743Y-94685287D01*
X151966100Y-94703600D01*
X151988648Y-94816954D01*
X152003750Y-94922135D01*
X151755783Y-94674168D01*
X151755781Y-94674165D01*
X151468666Y-94482322D01*
X151129991Y-94414954D01*
X151129986Y-94414955D01*
X146960180Y-94414955D01*
X146784716Y-94414802D01*
X146459324Y-94549251D01*
X146334193Y-94674164D01*
X146334191Y-94674165D01*
X146334190Y-94674167D01*
X146210152Y-94797988D01*
X146078527Y-95114975D01*
X145415025Y-95114975D01*
X145124186Y-95172827D01*
X144877624Y-95337574D01*
X144011040Y-96204158D01*
X144011040Y-95386400D01*
X143966762Y-95151083D01*
X143827690Y-94934959D01*
X143615490Y-94789969D01*
X143363600Y-94738960D01*
X141636400Y-94738960D01*
X141401083Y-94783238D01*
X141184959Y-94922310D01*
X141039969Y-95134510D01*
X141020961Y-95228375D01*
X140734947Y-94967312D01*
X140319026Y-94795042D01*
X140087000Y-94916183D01*
X140087000Y-96123000D01*
X140107000Y-96123000D01*
X140107000Y-96377000D01*
X140087000Y-96377000D01*
X140087000Y-96397000D01*
X139833000Y-96397000D01*
X139833000Y-96377000D01*
X139813000Y-96377000D01*
X139813000Y-96123000D01*
X139833000Y-96123000D01*
X139833000Y-94916183D01*
X139600974Y-94795042D01*
X139185053Y-94967312D01*
X138753179Y-95361510D01*
X138695664Y-95484228D01*
X138479670Y-95160971D01*
X137993489Y-94836115D01*
X137420000Y-94722041D01*
X136846511Y-94836115D01*
X136360330Y-95160971D01*
X136285000Y-95273710D01*
X136285000Y-94055662D01*
X142620602Y-93967004D01*
X152220799Y-94011079D01*
G36*
X156746439Y-47502108D02*
X157098164Y-47568618D01*
X157449118Y-47638742D01*
X157799405Y-47712405D01*
X158149055Y-47789712D01*
X158497990Y-47870550D01*
X158846170Y-47954905D01*
X159193709Y-48042902D01*
X159540470Y-48134416D01*
X159886676Y-48229598D01*
X160232094Y-48328286D01*
X160576949Y-48430548D01*
X160921004Y-48536413D01*
X161264460Y-48645843D01*
X161607158Y-48758788D01*
X161949165Y-48875367D01*
X162290550Y-48995506D01*
X162631283Y-49119297D01*
X162971298Y-49246617D01*
X163310637Y-49377479D01*
X163649320Y-49511994D01*
X163987288Y-49650040D01*
X164324622Y-49791745D01*
X164661497Y-49937094D01*
X164997463Y-50085873D01*
X165332772Y-50238349D01*
X165667479Y-50394356D01*
X166001533Y-50553963D01*
X166334812Y-50717163D01*
X166667587Y-50884091D01*
X166999687Y-51054467D01*
X167330956Y-51228457D01*
X167661816Y-51406181D01*
X167991828Y-51587314D01*
X168321274Y-51772253D01*
X168650057Y-51960648D01*
X168978183Y-52152702D01*
X169305669Y-52348327D01*
X169632428Y-52547630D01*
X169958612Y-52750548D01*
X170284247Y-52957135D01*
X170608884Y-53167096D01*
X170933214Y-53380984D01*
X171256810Y-53598291D01*
X171579528Y-53819181D01*
X171901952Y-54043921D01*
X172223462Y-54272121D01*
X172544501Y-54504026D01*
X172864745Y-54739405D01*
X173184310Y-54978512D01*
X173503369Y-55221332D01*
X173821688Y-55467642D01*
X174139316Y-55717601D01*
X174456268Y-55971221D01*
X174772746Y-56228570D01*
X175088518Y-56489458D01*
X175403603Y-56754004D01*
X175717971Y-57022165D01*
X176031724Y-57293946D01*
X176344763Y-57569361D01*
X176657310Y-57848509D01*
X176969099Y-58131254D01*
X177280166Y-58417617D01*
X177590705Y-58707598D01*
X177900517Y-59001298D01*
X178209632Y-59298551D01*
X178518102Y-59599408D01*
X178825943Y-59904083D01*
X179133098Y-60212228D01*
X179439593Y-60524164D01*
X179745540Y-60839709D01*
X180050753Y-61158876D01*
X180355238Y-61481667D01*
X180658917Y-61808006D01*
X180962255Y-62138281D01*
X181264805Y-62472124D01*
X181566795Y-62809574D01*
X181867857Y-63150533D01*
X182168441Y-63495304D01*
X182468189Y-63843689D01*
X182767436Y-64195750D01*
X183065949Y-64551448D01*
X183363890Y-64910741D01*
X183661143Y-65273830D01*
X183957478Y-65640310D01*
X184253471Y-66010797D01*
X184548654Y-66384834D01*
X184843122Y-66762289D01*
X185136899Y-67143545D01*
X185430101Y-67528626D01*
X185722559Y-67917115D01*
X186014331Y-68309386D01*
X186305496Y-68705247D01*
X186563719Y-69060545D01*
X192317619Y-80568345D01*
X186867364Y-86018600D01*
X186146918Y-86018600D01*
X186314240Y-85851277D01*
X186314243Y-85851275D01*
X186506086Y-85564160D01*
X186573453Y-85225485D01*
X186573453Y-85176859D01*
X186813296Y-85028441D01*
X187189666Y-84505637D01*
X187337318Y-83878599D01*
X187339576Y-83813949D01*
X187236031Y-83178137D01*
X186897053Y-82630348D01*
X186392230Y-82266923D01*
X186613396Y-82175539D01*
X187073731Y-81716008D01*
X187240230Y-81315032D01*
X187412599Y-81487401D01*
X187659160Y-81652148D01*
X187684976Y-81657283D01*
X187743763Y-81668977D01*
X187746838Y-81685317D01*
X187885910Y-81901441D01*
X188098110Y-82046431D01*
X188350000Y-82097440D01*
X188950000Y-82097440D01*
X189185317Y-82053162D01*
X189401441Y-81914090D01*
X189546431Y-81701890D01*
X189597440Y-81450000D01*
X189597440Y-80450000D01*
X189553162Y-80214683D01*
X189545658Y-80203021D01*
X189546431Y-80201890D01*
X189597440Y-79950000D01*
X189597440Y-78950000D01*
X189553162Y-78714683D01*
X189414090Y-78498559D01*
X189201890Y-78353569D01*
X188950000Y-78302560D01*
X188350000Y-78302560D01*
X188114683Y-78346838D01*
X188088493Y-78363691D01*
X185917747Y-76192945D01*
X185671185Y-76028198D01*
X185380346Y-75970346D01*
X182852809Y-75970346D01*
X182820673Y-75938154D01*
X182477145Y-75795508D01*
X182187000Y-75795255D01*
X182187000Y-74200000D01*
X182178315Y-74153841D01*
X182151035Y-74111447D01*
X182109410Y-74083006D01*
X182060000Y-74073000D01*
X179455000Y-74073000D01*
X179455000Y-73190000D01*
X179412385Y-72975759D01*
X179396996Y-70929045D01*
X179388429Y-70884134D01*
X179361254Y-70841673D01*
X179319700Y-70813129D01*
X179270315Y-70803000D01*
X171196826Y-70782986D01*
X171190967Y-69692370D01*
X171418029Y-69919829D01*
X171743186Y-70054846D01*
X172095261Y-70055153D01*
X172420653Y-69920704D01*
X172669825Y-69671967D01*
X172804842Y-69346810D01*
X172805149Y-68994735D01*
X172760000Y-68885466D01*
X172760000Y-68387908D01*
X172873691Y-68435000D01*
X173214250Y-68435000D01*
X173373000Y-68276250D01*
X173373000Y-67627000D01*
X173627000Y-67627000D01*
X173627000Y-68276250D01*
X173785750Y-68435000D01*
X174126309Y-68435000D01*
X174359698Y-68338327D01*
X174538327Y-68159699D01*
X174635000Y-67926310D01*
X174635000Y-67785750D01*
X174476250Y-67627000D01*
X173627000Y-67627000D01*
X173373000Y-67627000D01*
X173353000Y-67627000D01*
X173353000Y-67373000D01*
X173373000Y-67373000D01*
X173373000Y-66377000D01*
X173627000Y-66377000D01*
X173627000Y-67373000D01*
X174476250Y-67373000D01*
X174635000Y-67214250D01*
X174635000Y-67073690D01*
X174552700Y-66875000D01*
X174635000Y-66676310D01*
X174635000Y-66535750D01*
X174476250Y-66377000D01*
X173627000Y-66377000D01*
X173373000Y-66377000D01*
X173353000Y-66377000D01*
X173353000Y-66123000D01*
X173373000Y-66123000D01*
X173373000Y-66103000D01*
X173627000Y-66103000D01*
X173627000Y-66123000D01*
X174476250Y-66123000D01*
X174635000Y-65964250D01*
X174635000Y-65823690D01*
X174581920Y-65695544D01*
X174659698Y-65663327D01*
X174838327Y-65484699D01*
X174935000Y-65251310D01*
X174935000Y-65109802D01*
X178924975Y-69099777D01*
X179049296Y-69400657D01*
X179298033Y-69649829D01*
X179623190Y-69784846D01*
X179975265Y-69785153D01*
X180300657Y-69650704D01*
X180549829Y-69401967D01*
X180684846Y-69076810D01*
X180685153Y-68724735D01*
X180550704Y-68399343D01*
X180301967Y-68150171D01*
X179999291Y-68024489D01*
X175818031Y-63843229D01*
X175777160Y-63637760D01*
X175612413Y-63391198D01*
X166656215Y-54435000D01*
X166714250Y-54435000D01*
X166873000Y-54276250D01*
X166873000Y-53627000D01*
X167127000Y-53627000D01*
X167127000Y-54276250D01*
X167285750Y-54435000D01*
X167626309Y-54435000D01*
X167859698Y-54338327D01*
X168038327Y-54159699D01*
X168135000Y-53926310D01*
X168135000Y-53785750D01*
X167976250Y-53627000D01*
X167127000Y-53627000D01*
X166873000Y-53627000D01*
X166853000Y-53627000D01*
X166853000Y-53373000D01*
X166873000Y-53373000D01*
X166873000Y-52723750D01*
X167127000Y-52723750D01*
X167127000Y-53373000D01*
X167976250Y-53373000D01*
X168135000Y-53214250D01*
X168135000Y-53073690D01*
X168038327Y-52840301D01*
X167859698Y-52661673D01*
X167626309Y-52565000D01*
X167285750Y-52565000D01*
X167127000Y-52723750D01*
X166873000Y-52723750D01*
X166714250Y-52565000D01*
X166373691Y-52565000D01*
X166262717Y-52610967D01*
X166260000Y-52609110D01*
X166260000Y-51700000D01*
X166202148Y-51409161D01*
X166037401Y-51162599D01*
X165537401Y-50662599D01*
X165290839Y-50497852D01*
X165000000Y-50440000D01*
X164345057Y-50440000D01*
X164189290Y-50333569D01*
X163937400Y-50282560D01*
X163632600Y-50282560D01*
X163471747Y-50312827D01*
X163428710Y-50295000D01*
X163384950Y-50295000D01*
X163273387Y-50406563D01*
X163181159Y-50465910D01*
X163151388Y-50509481D01*
X163131490Y-50478559D01*
X163027676Y-50407626D01*
X162915050Y-50295000D01*
X162871290Y-50295000D01*
X162824512Y-50314376D01*
X162667400Y-50282560D01*
X162362600Y-50282560D01*
X162127283Y-50326838D01*
X161911159Y-50465910D01*
X161868165Y-50528834D01*
X161824200Y-50558210D01*
X161699401Y-50744987D01*
X161589090Y-50573559D01*
X161376890Y-50428569D01*
X161125000Y-50377560D01*
X157125000Y-50377560D01*
X156889683Y-50421838D01*
X156673559Y-50560910D01*
X156528569Y-50773110D01*
X156477560Y-51025000D01*
X156477560Y-54025000D01*
X156521838Y-54260317D01*
X156660910Y-54476441D01*
X156873110Y-54621431D01*
X157125000Y-54672440D01*
X161125000Y-54672440D01*
X161360317Y-54628162D01*
X161576441Y-54489090D01*
X161721431Y-54276890D01*
X161772440Y-54025000D01*
X161772440Y-53725523D01*
X161898510Y-53921441D01*
X162110710Y-54066431D01*
X162362600Y-54117440D01*
X162667400Y-54117440D01*
X162838561Y-54085234D01*
X162997600Y-54117440D01*
X163302400Y-54117440D01*
X163473561Y-54085234D01*
X163632600Y-54117440D01*
X163937400Y-54117440D01*
X164172717Y-54073162D01*
X164378984Y-53940433D01*
X164396838Y-54035317D01*
X164535910Y-54251441D01*
X164748110Y-54396431D01*
X164748540Y-54396518D01*
X164797852Y-54644426D01*
X164962599Y-54890988D01*
X173898681Y-63827070D01*
X173827000Y-63898750D01*
X173827000Y-64623000D01*
X173847000Y-64623000D01*
X173847000Y-64877000D01*
X173827000Y-64877000D01*
X173827000Y-64897000D01*
X173573000Y-64897000D01*
X173573000Y-64877000D01*
X173553000Y-64877000D01*
X173553000Y-64623000D01*
X173573000Y-64623000D01*
X173573000Y-63898750D01*
X173414250Y-63740000D01*
X172973691Y-63740000D01*
X172740302Y-63836673D01*
X172738932Y-63838043D01*
X172668010Y-63789583D01*
X172617633Y-63536326D01*
X172617633Y-63536325D01*
X172425790Y-63249210D01*
X172425787Y-63249208D01*
X170376876Y-61200296D01*
X170349748Y-61182170D01*
X170089761Y-61008453D01*
X170013753Y-60993334D01*
X169751086Y-60941085D01*
X169751081Y-60941086D01*
X167568900Y-60941086D01*
X167552396Y-60901143D01*
X167363080Y-60711496D01*
X167496529Y-60604352D01*
X167618543Y-60378159D01*
X167642943Y-60122317D01*
X167433886Y-58133274D01*
X167365254Y-57903875D01*
X167204352Y-57703471D01*
X166978159Y-57581457D01*
X166722317Y-57557057D01*
X164733274Y-57766114D01*
X164503875Y-57834746D01*
X164464581Y-57866294D01*
X164367399Y-57813872D01*
X164111557Y-57789472D01*
X162090689Y-58001874D01*
X161861290Y-58070506D01*
X161772440Y-58141843D01*
X161772440Y-55525000D01*
X161728162Y-55289683D01*
X161589090Y-55073559D01*
X161376890Y-54928569D01*
X161125000Y-54877560D01*
X157125000Y-54877560D01*
X156889683Y-54921838D01*
X156673559Y-55060910D01*
X156528569Y-55273110D01*
X156477560Y-55525000D01*
X156477560Y-58525000D01*
X156521838Y-58760317D01*
X156660910Y-58976441D01*
X156873110Y-59121431D01*
X157125000Y-59172440D01*
X157551574Y-59172440D01*
X157544352Y-63289154D01*
X155649240Y-63295641D01*
X155844822Y-63256737D01*
X156391475Y-62891475D01*
X156756737Y-62344822D01*
X156885000Y-61700000D01*
X156756737Y-61055178D01*
X156391475Y-60508525D01*
X155844822Y-60143263D01*
X155200000Y-60015000D01*
X154555178Y-60143263D01*
X154008525Y-60508525D01*
X153643263Y-61055178D01*
X153515000Y-61700000D01*
X153643263Y-62344822D01*
X154008525Y-62891475D01*
X154555178Y-63256737D01*
X154765958Y-63298664D01*
X150230000Y-63314188D01*
X150230000Y-61570000D01*
X150172148Y-61279161D01*
X150007401Y-61032599D01*
X149005239Y-60030437D01*
X149154720Y-58966822D01*
X149160910Y-58976441D01*
X149373110Y-59121431D01*
X149625000Y-59172440D01*
X153625000Y-59172440D01*
X153860317Y-59128162D01*
X154076441Y-58989090D01*
X154221431Y-58776890D01*
X154272440Y-58525000D01*
X154272440Y-55525000D01*
X154228162Y-55289683D01*
X154089090Y-55073559D01*
X153876890Y-54928569D01*
X153625000Y-54877560D01*
X149625000Y-54877560D01*
X149389683Y-54921838D01*
X149173559Y-55060910D01*
X149028569Y-55273110D01*
X148977560Y-55525000D01*
X148977560Y-58168665D01*
X148879958Y-58079718D01*
X148637618Y-57994149D01*
X146625394Y-57711349D01*
X146386205Y-57722446D01*
X146288444Y-57767537D01*
X146261887Y-57743335D01*
X146019547Y-57657766D01*
X144039011Y-57379420D01*
X143799822Y-57390517D01*
X143566446Y-57498157D01*
X143393335Y-57688113D01*
X143307766Y-57930453D01*
X143260749Y-58265000D01*
X134650000Y-58265000D01*
X134311325Y-58332367D01*
X134024210Y-58524210D01*
X134024208Y-58524213D01*
X126624210Y-65924210D01*
X126432367Y-66211325D01*
X126426042Y-66243121D01*
X126364999Y-66550000D01*
X126365000Y-66550005D01*
X126365000Y-76283421D01*
X126233420Y-76415000D01*
X122300005Y-76415000D01*
X122300000Y-76414999D01*
X121961326Y-76482366D01*
X121944980Y-76493288D01*
X121674210Y-76674210D01*
X121674208Y-76674213D01*
X120524210Y-77824210D01*
X120332367Y-78111325D01*
X120332367Y-78111326D01*
X120264999Y-78450000D01*
X120265000Y-78450005D01*
X120265000Y-78681380D01*
X120253569Y-78698110D01*
X120202560Y-78950000D01*
X120202560Y-79950000D01*
X120246838Y-80185317D01*
X120254342Y-80196979D01*
X120253569Y-80198110D01*
X120202560Y-80450000D01*
X120202560Y-81450000D01*
X120246838Y-81685317D01*
X120385910Y-81901441D01*
X120598110Y-82046431D01*
X120850000Y-82097440D01*
X121450000Y-82097440D01*
X121685317Y-82053162D01*
X121901441Y-81914090D01*
X121962389Y-81824889D01*
X122265265Y-81825153D01*
X122590657Y-81690704D01*
X122839829Y-81441967D01*
X122974846Y-81116810D01*
X122975153Y-80764735D01*
X122840704Y-80439343D01*
X122591967Y-80190171D01*
X122266810Y-80055154D01*
X122076179Y-80054988D01*
X122097440Y-79950000D01*
X122097440Y-78950000D01*
X122066423Y-78785157D01*
X122666579Y-78185000D01*
X124263420Y-78185000D01*
X123985757Y-78462663D01*
X123793914Y-78749778D01*
X123788743Y-78775773D01*
X123726546Y-79088453D01*
X123726547Y-79088458D01*
X123726547Y-79385247D01*
X123686604Y-79401751D01*
X123226269Y-79861282D01*
X122976831Y-80461997D01*
X122976263Y-81112440D01*
X123224653Y-81713588D01*
X123684184Y-82173923D01*
X123907910Y-82266822D01*
X123402947Y-82630348D01*
X123063969Y-83178137D01*
X122960424Y-83813949D01*
X122962682Y-83878598D01*
X123110334Y-84505636D01*
X123486704Y-85028441D01*
X123858063Y-85258242D01*
X123909399Y-85516324D01*
X124074146Y-85762886D01*
X124298661Y-85987401D01*
X124345354Y-86018600D01*
X123434836Y-86018600D01*
X117984581Y-80568345D01*
X123738479Y-69060548D01*
X123996682Y-68705277D01*
X124287869Y-68309386D01*
X124579641Y-67917115D01*
X124872099Y-67528626D01*
X125165301Y-67143545D01*
X125459078Y-66762289D01*
X125753700Y-66384639D01*
X126048712Y-66010818D01*
X126344655Y-65640393D01*
X126641123Y-65273750D01*
X126938246Y-64910818D01*
X127236168Y-64551547D01*
X127534765Y-64195750D01*
X127834011Y-63843689D01*
X128133759Y-63495304D01*
X128434275Y-63150611D01*
X128735479Y-62809491D01*
X129037395Y-62472125D01*
X129339871Y-62138362D01*
X129643213Y-61808081D01*
X129946962Y-61481667D01*
X130251447Y-61158876D01*
X130556660Y-60839709D01*
X130862607Y-60524164D01*
X131169033Y-60212296D01*
X131476258Y-59904083D01*
X131784030Y-59599474D01*
X132092496Y-59298620D01*
X132401759Y-59001225D01*
X132711495Y-58707599D01*
X133022034Y-58417617D01*
X133333167Y-58131193D01*
X133644890Y-57848509D01*
X133957362Y-57569426D01*
X134270476Y-57293946D01*
X134584229Y-57022165D01*
X134898670Y-56753942D01*
X135213681Y-56489460D01*
X135529455Y-56228569D01*
X135845855Y-55971283D01*
X136162959Y-55717542D01*
X136480512Y-55467642D01*
X136798831Y-55221332D01*
X137117890Y-54978512D01*
X137437454Y-54739405D01*
X137757779Y-54503968D01*
X138078737Y-54272122D01*
X138400249Y-54043921D01*
X138722672Y-53819181D01*
X139045473Y-53598235D01*
X139368986Y-53380984D01*
X139693316Y-53167096D01*
X140017953Y-52957135D01*
X140343638Y-52750516D01*
X140669740Y-52547650D01*
X140996453Y-52348375D01*
X141323969Y-52152731D01*
X141652097Y-51960675D01*
X141980926Y-51772253D01*
X142310372Y-51587314D01*
X142640431Y-51406156D01*
X142971205Y-51228478D01*
X143302513Y-51054467D01*
X143359950Y-51025000D01*
X148977560Y-51025000D01*
X148977560Y-54025000D01*
X149021838Y-54260317D01*
X149160910Y-54476441D01*
X149373110Y-54621431D01*
X149625000Y-54672440D01*
X153625000Y-54672440D01*
X153860317Y-54628162D01*
X154076441Y-54489090D01*
X154221431Y-54276890D01*
X154272440Y-54025000D01*
X154272440Y-51025000D01*
X154228162Y-50789683D01*
X154089090Y-50573559D01*
X153876890Y-50428569D01*
X153625000Y-50377560D01*
X149625000Y-50377560D01*
X149389683Y-50421838D01*
X149173559Y-50560910D01*
X149028569Y-50773110D01*
X148977560Y-51025000D01*
X143359950Y-51025000D01*
X143634613Y-50884091D01*
X143967387Y-50717164D01*
X144300707Y-50553943D01*
X144634721Y-50394356D01*
X144969468Y-50238331D01*
X145304774Y-50085856D01*
X145640703Y-49937094D01*
X145977504Y-49791777D01*
X146314878Y-49650055D01*
X146652880Y-49511994D01*
X146991563Y-49377479D01*
X147330868Y-49246630D01*
X147670917Y-49119297D01*
X148011682Y-48995495D01*
X148353035Y-48875367D01*
X148695042Y-48758788D01*
X149037740Y-48645843D01*
X149381225Y-48536404D01*
X149725278Y-48430540D01*
X150070106Y-48328286D01*
X150415524Y-48229598D01*
X150761730Y-48134416D01*
X151108444Y-48042915D01*
X151456030Y-47954905D01*
X151804188Y-47870555D01*
X152153145Y-47789712D01*
X152502795Y-47712405D01*
X152853082Y-47638742D01*
X153204036Y-47568618D01*
X153555761Y-47502108D01*
X153765739Y-47464586D01*
X154538417Y-49009941D01*
X154591079Y-49077795D01*
X154633614Y-49152413D01*
X154672279Y-49182421D01*
X154702287Y-49221086D01*
X154776905Y-49263621D01*
X154844759Y-49316283D01*
X154891965Y-49329210D01*
X154934484Y-49353448D01*
X155019701Y-49364190D01*
X155102541Y-49386876D01*
X155151100Y-49380755D01*
X155199659Y-49386876D01*
X155282499Y-49364190D01*
X155367716Y-49353448D01*
X155410235Y-49329210D01*
X155457441Y-49316283D01*
X155525295Y-49263621D01*
X155599913Y-49221086D01*
X155629921Y-49182421D01*
X155668586Y-49152413D01*
X155711121Y-49077795D01*
X155763783Y-49009941D01*
X156536461Y-47464586D01*
X156746439Y-47502108D01*
X156746439Y-47502108D01*
G37*
X156746439Y-47502108D02*
X157098164Y-47568618D01*
X157449118Y-47638742D01*
X157799405Y-47712405D01*
X158149055Y-47789712D01*
X158497990Y-47870550D01*
X158846170Y-47954905D01*
X159193709Y-48042902D01*
X159540470Y-48134416D01*
X159886676Y-48229598D01*
X160232094Y-48328286D01*
X160576949Y-48430548D01*
X160921004Y-48536413D01*
X161264460Y-48645843D01*
X161607158Y-48758788D01*
X161949165Y-48875367D01*
X162290550Y-48995506D01*
X162631283Y-49119297D01*
X162971298Y-49246617D01*
X163310637Y-49377479D01*
X163649320Y-49511994D01*
X163987288Y-49650040D01*
X164324622Y-49791745D01*
X164661497Y-49937094D01*
X164997463Y-50085873D01*
X165332772Y-50238349D01*
X165667479Y-50394356D01*
X166001533Y-50553963D01*
X166334812Y-50717163D01*
X166667587Y-50884091D01*
X166999687Y-51054467D01*
X167330956Y-51228457D01*
X167661816Y-51406181D01*
X167991828Y-51587314D01*
X168321274Y-51772253D01*
X168650057Y-51960648D01*
X168978183Y-52152702D01*
X169305669Y-52348327D01*
X169632428Y-52547630D01*
X169958612Y-52750548D01*
X170284247Y-52957135D01*
X170608884Y-53167096D01*
X170933214Y-53380984D01*
X171256810Y-53598291D01*
X171579528Y-53819181D01*
X171901952Y-54043921D01*
X172223462Y-54272121D01*
X172544501Y-54504026D01*
X172864745Y-54739405D01*
X173184310Y-54978512D01*
X173503369Y-55221332D01*
X173821688Y-55467642D01*
X174139316Y-55717601D01*
X174456268Y-55971221D01*
X174772746Y-56228570D01*
X175088518Y-56489458D01*
X175403603Y-56754004D01*
X175717971Y-57022165D01*
X176031724Y-57293946D01*
X176344763Y-57569361D01*
X176657310Y-57848509D01*
X176969099Y-58131254D01*
X177280166Y-58417617D01*
X177590705Y-58707598D01*
X177900517Y-59001298D01*
X178209632Y-59298551D01*
X178518102Y-59599408D01*
X178825943Y-59904083D01*
X179133098Y-60212228D01*
X179439593Y-60524164D01*
X179745540Y-60839709D01*
X180050753Y-61158876D01*
X180355238Y-61481667D01*
X180658917Y-61808006D01*
X180962255Y-62138281D01*
X181264805Y-62472124D01*
X181566795Y-62809574D01*
X181867857Y-63150533D01*
X182168441Y-63495304D01*
X182468189Y-63843689D01*
X182767436Y-64195750D01*
X183065949Y-64551448D01*
X183363890Y-64910741D01*
X183661143Y-65273830D01*
X183957478Y-65640310D01*
X184253471Y-66010797D01*
X184548654Y-66384834D01*
X184843122Y-66762289D01*
X185136899Y-67143545D01*
X185430101Y-67528626D01*
X185722559Y-67917115D01*
X186014331Y-68309386D01*
X186305496Y-68705247D01*
X186563719Y-69060545D01*
X192317619Y-80568345D01*
X186867364Y-86018600D01*
X186146918Y-86018600D01*
X186314240Y-85851277D01*
X186314243Y-85851275D01*
X186506086Y-85564160D01*
X186573453Y-85225485D01*
X186573453Y-85176859D01*
X186813296Y-85028441D01*
X187189666Y-84505637D01*
X187337318Y-83878599D01*
X187339576Y-83813949D01*
X187236031Y-83178137D01*
X186897053Y-82630348D01*
X186392230Y-82266923D01*
X186613396Y-82175539D01*
X187073731Y-81716008D01*
X187240230Y-81315032D01*
X187412599Y-81487401D01*
X187659160Y-81652148D01*
X187684976Y-81657283D01*
X187743763Y-81668977D01*
X187746838Y-81685317D01*
X187885910Y-81901441D01*
X188098110Y-82046431D01*
X188350000Y-82097440D01*
X188950000Y-82097440D01*
X189185317Y-82053162D01*
X189401441Y-81914090D01*
X189546431Y-81701890D01*
X189597440Y-81450000D01*
X189597440Y-80450000D01*
X189553162Y-80214683D01*
X189545658Y-80203021D01*
X189546431Y-80201890D01*
X189597440Y-79950000D01*
X189597440Y-78950000D01*
X189553162Y-78714683D01*
X189414090Y-78498559D01*
X189201890Y-78353569D01*
X188950000Y-78302560D01*
X188350000Y-78302560D01*
X188114683Y-78346838D01*
X188088493Y-78363691D01*
X185917747Y-76192945D01*
X185671185Y-76028198D01*
X185380346Y-75970346D01*
X182852809Y-75970346D01*
X182820673Y-75938154D01*
X182477145Y-75795508D01*
X182187000Y-75795255D01*
X182187000Y-74200000D01*
X182178315Y-74153841D01*
X182151035Y-74111447D01*
X182109410Y-74083006D01*
X182060000Y-74073000D01*
X179455000Y-74073000D01*
X179455000Y-73190000D01*
X179412385Y-72975759D01*
X179396996Y-70929045D01*
X179388429Y-70884134D01*
X179361254Y-70841673D01*
X179319700Y-70813129D01*
X179270315Y-70803000D01*
X171196826Y-70782986D01*
X171190967Y-69692370D01*
X171418029Y-69919829D01*
X171743186Y-70054846D01*
X172095261Y-70055153D01*
X172420653Y-69920704D01*
X172669825Y-69671967D01*
X172804842Y-69346810D01*
X172805149Y-68994735D01*
X172760000Y-68885466D01*
X172760000Y-68387908D01*
X172873691Y-68435000D01*
X173214250Y-68435000D01*
X173373000Y-68276250D01*
X173373000Y-67627000D01*
X173627000Y-67627000D01*
X173627000Y-68276250D01*
X173785750Y-68435000D01*
X174126309Y-68435000D01*
X174359698Y-68338327D01*
X174538327Y-68159699D01*
X174635000Y-67926310D01*
X174635000Y-67785750D01*
X174476250Y-67627000D01*
X173627000Y-67627000D01*
X173373000Y-67627000D01*
X173353000Y-67627000D01*
X173353000Y-67373000D01*
X173373000Y-67373000D01*
X173373000Y-66377000D01*
X173627000Y-66377000D01*
X173627000Y-67373000D01*
X174476250Y-67373000D01*
X174635000Y-67214250D01*
X174635000Y-67073690D01*
X174552700Y-66875000D01*
X174635000Y-66676310D01*
X174635000Y-66535750D01*
X174476250Y-66377000D01*
X173627000Y-66377000D01*
X173373000Y-66377000D01*
X173353000Y-66377000D01*
X173353000Y-66123000D01*
X173373000Y-66123000D01*
X173373000Y-66103000D01*
X173627000Y-66103000D01*
X173627000Y-66123000D01*
X174476250Y-66123000D01*
X174635000Y-65964250D01*
X174635000Y-65823690D01*
X174581920Y-65695544D01*
X174659698Y-65663327D01*
X174838327Y-65484699D01*
X174935000Y-65251310D01*
X174935000Y-65109802D01*
X178924975Y-69099777D01*
X179049296Y-69400657D01*
X179298033Y-69649829D01*
X179623190Y-69784846D01*
X179975265Y-69785153D01*
X180300657Y-69650704D01*
X180549829Y-69401967D01*
X180684846Y-69076810D01*
X180685153Y-68724735D01*
X180550704Y-68399343D01*
X180301967Y-68150171D01*
X179999291Y-68024489D01*
X175818031Y-63843229D01*
X175777160Y-63637760D01*
X175612413Y-63391198D01*
X166656215Y-54435000D01*
X166714250Y-54435000D01*
X166873000Y-54276250D01*
X166873000Y-53627000D01*
X167127000Y-53627000D01*
X167127000Y-54276250D01*
X167285750Y-54435000D01*
X167626309Y-54435000D01*
X167859698Y-54338327D01*
X168038327Y-54159699D01*
X168135000Y-53926310D01*
X168135000Y-53785750D01*
X167976250Y-53627000D01*
X167127000Y-53627000D01*
X166873000Y-53627000D01*
X166853000Y-53627000D01*
X166853000Y-53373000D01*
X166873000Y-53373000D01*
X166873000Y-52723750D01*
X167127000Y-52723750D01*
X167127000Y-53373000D01*
X167976250Y-53373000D01*
X168135000Y-53214250D01*
X168135000Y-53073690D01*
X168038327Y-52840301D01*
X167859698Y-52661673D01*
X167626309Y-52565000D01*
X167285750Y-52565000D01*
X167127000Y-52723750D01*
X166873000Y-52723750D01*
X166714250Y-52565000D01*
X166373691Y-52565000D01*
X166262717Y-52610967D01*
X166260000Y-52609110D01*
X166260000Y-51700000D01*
X166202148Y-51409161D01*
X166037401Y-51162599D01*
X165537401Y-50662599D01*
X165290839Y-50497852D01*
X165000000Y-50440000D01*
X164345057Y-50440000D01*
X164189290Y-50333569D01*
X163937400Y-50282560D01*
X163632600Y-50282560D01*
X163471747Y-50312827D01*
X163428710Y-50295000D01*
X163384950Y-50295000D01*
X163273387Y-50406563D01*
X163181159Y-50465910D01*
X163151388Y-50509481D01*
X163131490Y-50478559D01*
X163027676Y-50407626D01*
X162915050Y-50295000D01*
X162871290Y-50295000D01*
X162824512Y-50314376D01*
X162667400Y-50282560D01*
X162362600Y-50282560D01*
X162127283Y-50326838D01*
X161911159Y-50465910D01*
X161868165Y-50528834D01*
X161824200Y-50558210D01*
X161699401Y-50744987D01*
X161589090Y-50573559D01*
X161376890Y-50428569D01*
X161125000Y-50377560D01*
X157125000Y-50377560D01*
X156889683Y-50421838D01*
X156673559Y-50560910D01*
X156528569Y-50773110D01*
X156477560Y-51025000D01*
X156477560Y-54025000D01*
X156521838Y-54260317D01*
X156660910Y-54476441D01*
X156873110Y-54621431D01*
X157125000Y-54672440D01*
X161125000Y-54672440D01*
X161360317Y-54628162D01*
X161576441Y-54489090D01*
X161721431Y-54276890D01*
X161772440Y-54025000D01*
X161772440Y-53725523D01*
X161898510Y-53921441D01*
X162110710Y-54066431D01*
X162362600Y-54117440D01*
X162667400Y-54117440D01*
X162838561Y-54085234D01*
X162997600Y-54117440D01*
X163302400Y-54117440D01*
X163473561Y-54085234D01*
X163632600Y-54117440D01*
X163937400Y-54117440D01*
X164172717Y-54073162D01*
X164378984Y-53940433D01*
X164396838Y-54035317D01*
X164535910Y-54251441D01*
X164748110Y-54396431D01*
X164748540Y-54396518D01*
X164797852Y-54644426D01*
X164962599Y-54890988D01*
X173898681Y-63827070D01*
X173827000Y-63898750D01*
X173827000Y-64623000D01*
X173847000Y-64623000D01*
X173847000Y-64877000D01*
X173827000Y-64877000D01*
X173827000Y-64897000D01*
X173573000Y-64897000D01*
X173573000Y-64877000D01*
X173553000Y-64877000D01*
X173553000Y-64623000D01*
X173573000Y-64623000D01*
X173573000Y-63898750D01*
X173414250Y-63740000D01*
X172973691Y-63740000D01*
X172740302Y-63836673D01*
X172738932Y-63838043D01*
X172668010Y-63789583D01*
X172617633Y-63536326D01*
X172617633Y-63536325D01*
X172425790Y-63249210D01*
X172425787Y-63249208D01*
X170376876Y-61200296D01*
X170349748Y-61182170D01*
X170089761Y-61008453D01*
X170013753Y-60993334D01*
X169751086Y-60941085D01*
X169751081Y-60941086D01*
X167568900Y-60941086D01*
X167552396Y-60901143D01*
X167363080Y-60711496D01*
X167496529Y-60604352D01*
X167618543Y-60378159D01*
X167642943Y-60122317D01*
X167433886Y-58133274D01*
X167365254Y-57903875D01*
X167204352Y-57703471D01*
X166978159Y-57581457D01*
X166722317Y-57557057D01*
X164733274Y-57766114D01*
X164503875Y-57834746D01*
X164464581Y-57866294D01*
X164367399Y-57813872D01*
X164111557Y-57789472D01*
X162090689Y-58001874D01*
X161861290Y-58070506D01*
X161772440Y-58141843D01*
X161772440Y-55525000D01*
X161728162Y-55289683D01*
X161589090Y-55073559D01*
X161376890Y-54928569D01*
X161125000Y-54877560D01*
X157125000Y-54877560D01*
X156889683Y-54921838D01*
X156673559Y-55060910D01*
X156528569Y-55273110D01*
X156477560Y-55525000D01*
X156477560Y-58525000D01*
X156521838Y-58760317D01*
X156660910Y-58976441D01*
X156873110Y-59121431D01*
X157125000Y-59172440D01*
X157551574Y-59172440D01*
X157544352Y-63289154D01*
X155649240Y-63295641D01*
X155844822Y-63256737D01*
X156391475Y-62891475D01*
X156756737Y-62344822D01*
X156885000Y-61700000D01*
X156756737Y-61055178D01*
X156391475Y-60508525D01*
X155844822Y-60143263D01*
X155200000Y-60015000D01*
X154555178Y-60143263D01*
X154008525Y-60508525D01*
X153643263Y-61055178D01*
X153515000Y-61700000D01*
X153643263Y-62344822D01*
X154008525Y-62891475D01*
X154555178Y-63256737D01*
X154765958Y-63298664D01*
X150230000Y-63314188D01*
X150230000Y-61570000D01*
X150172148Y-61279161D01*
X150007401Y-61032599D01*
X149005239Y-60030437D01*
X149154720Y-58966822D01*
X149160910Y-58976441D01*
X149373110Y-59121431D01*
X149625000Y-59172440D01*
X153625000Y-59172440D01*
X153860317Y-59128162D01*
X154076441Y-58989090D01*
X154221431Y-58776890D01*
X154272440Y-58525000D01*
X154272440Y-55525000D01*
X154228162Y-55289683D01*
X154089090Y-55073559D01*
X153876890Y-54928569D01*
X153625000Y-54877560D01*
X149625000Y-54877560D01*
X149389683Y-54921838D01*
X149173559Y-55060910D01*
X149028569Y-55273110D01*
X148977560Y-55525000D01*
X148977560Y-58168665D01*
X148879958Y-58079718D01*
X148637618Y-57994149D01*
X146625394Y-57711349D01*
X146386205Y-57722446D01*
X146288444Y-57767537D01*
X146261887Y-57743335D01*
X146019547Y-57657766D01*
X144039011Y-57379420D01*
X143799822Y-57390517D01*
X143566446Y-57498157D01*
X143393335Y-57688113D01*
X143307766Y-57930453D01*
X143260749Y-58265000D01*
X134650000Y-58265000D01*
X134311325Y-58332367D01*
X134024210Y-58524210D01*
X134024208Y-58524213D01*
X126624210Y-65924210D01*
X126432367Y-66211325D01*
X126426042Y-66243121D01*
X126364999Y-66550000D01*
X126365000Y-66550005D01*
X126365000Y-76283421D01*
X126233420Y-76415000D01*
X122300005Y-76415000D01*
X122300000Y-76414999D01*
X121961326Y-76482366D01*
X121944980Y-76493288D01*
X121674210Y-76674210D01*
X121674208Y-76674213D01*
X120524210Y-77824210D01*
X120332367Y-78111325D01*
X120332367Y-78111326D01*
X120264999Y-78450000D01*
X120265000Y-78450005D01*
X120265000Y-78681380D01*
X120253569Y-78698110D01*
X120202560Y-78950000D01*
X120202560Y-79950000D01*
X120246838Y-80185317D01*
X120254342Y-80196979D01*
X120253569Y-80198110D01*
X120202560Y-80450000D01*
X120202560Y-81450000D01*
X120246838Y-81685317D01*
X120385910Y-81901441D01*
X120598110Y-82046431D01*
X120850000Y-82097440D01*
X121450000Y-82097440D01*
X121685317Y-82053162D01*
X121901441Y-81914090D01*
X121962389Y-81824889D01*
X122265265Y-81825153D01*
X122590657Y-81690704D01*
X122839829Y-81441967D01*
X122974846Y-81116810D01*
X122975153Y-80764735D01*
X122840704Y-80439343D01*
X122591967Y-80190171D01*
X122266810Y-80055154D01*
X122076179Y-80054988D01*
X122097440Y-79950000D01*
X122097440Y-78950000D01*
X122066423Y-78785157D01*
X122666579Y-78185000D01*
X124263420Y-78185000D01*
X123985757Y-78462663D01*
X123793914Y-78749778D01*
X123788743Y-78775773D01*
X123726546Y-79088453D01*
X123726547Y-79088458D01*
X123726547Y-79385247D01*
X123686604Y-79401751D01*
X123226269Y-79861282D01*
X122976831Y-80461997D01*
X122976263Y-81112440D01*
X123224653Y-81713588D01*
X123684184Y-82173923D01*
X123907910Y-82266822D01*
X123402947Y-82630348D01*
X123063969Y-83178137D01*
X122960424Y-83813949D01*
X122962682Y-83878598D01*
X123110334Y-84505636D01*
X123486704Y-85028441D01*
X123858063Y-85258242D01*
X123909399Y-85516324D01*
X124074146Y-85762886D01*
X124298661Y-85987401D01*
X124345354Y-86018600D01*
X123434836Y-86018600D01*
X117984581Y-80568345D01*
X123738479Y-69060548D01*
X123996682Y-68705277D01*
X124287869Y-68309386D01*
X124579641Y-67917115D01*
X124872099Y-67528626D01*
X125165301Y-67143545D01*
X125459078Y-66762289D01*
X125753700Y-66384639D01*
X126048712Y-66010818D01*
X126344655Y-65640393D01*
X126641123Y-65273750D01*
X126938246Y-64910818D01*
X127236168Y-64551547D01*
X127534765Y-64195750D01*
X127834011Y-63843689D01*
X128133759Y-63495304D01*
X128434275Y-63150611D01*
X128735479Y-62809491D01*
X129037395Y-62472125D01*
X129339871Y-62138362D01*
X129643213Y-61808081D01*
X129946962Y-61481667D01*
X130251447Y-61158876D01*
X130556660Y-60839709D01*
X130862607Y-60524164D01*
X131169033Y-60212296D01*
X131476258Y-59904083D01*
X131784030Y-59599474D01*
X132092496Y-59298620D01*
X132401759Y-59001225D01*
X132711495Y-58707599D01*
X133022034Y-58417617D01*
X133333167Y-58131193D01*
X133644890Y-57848509D01*
X133957362Y-57569426D01*
X134270476Y-57293946D01*
X134584229Y-57022165D01*
X134898670Y-56753942D01*
X135213681Y-56489460D01*
X135529455Y-56228569D01*
X135845855Y-55971283D01*
X136162959Y-55717542D01*
X136480512Y-55467642D01*
X136798831Y-55221332D01*
X137117890Y-54978512D01*
X137437454Y-54739405D01*
X137757779Y-54503968D01*
X138078737Y-54272122D01*
X138400249Y-54043921D01*
X138722672Y-53819181D01*
X139045473Y-53598235D01*
X139368986Y-53380984D01*
X139693316Y-53167096D01*
X140017953Y-52957135D01*
X140343638Y-52750516D01*
X140669740Y-52547650D01*
X140996453Y-52348375D01*
X141323969Y-52152731D01*
X141652097Y-51960675D01*
X141980926Y-51772253D01*
X142310372Y-51587314D01*
X142640431Y-51406156D01*
X142971205Y-51228478D01*
X143302513Y-51054467D01*
X143359950Y-51025000D01*
X148977560Y-51025000D01*
X148977560Y-54025000D01*
X149021838Y-54260317D01*
X149160910Y-54476441D01*
X149373110Y-54621431D01*
X149625000Y-54672440D01*
X153625000Y-54672440D01*
X153860317Y-54628162D01*
X154076441Y-54489090D01*
X154221431Y-54276890D01*
X154272440Y-54025000D01*
X154272440Y-51025000D01*
X154228162Y-50789683D01*
X154089090Y-50573559D01*
X153876890Y-50428569D01*
X153625000Y-50377560D01*
X149625000Y-50377560D01*
X149389683Y-50421838D01*
X149173559Y-50560910D01*
X149028569Y-50773110D01*
X148977560Y-51025000D01*
X143359950Y-51025000D01*
X143634613Y-50884091D01*
X143967387Y-50717164D01*
X144300707Y-50553943D01*
X144634721Y-50394356D01*
X144969468Y-50238331D01*
X145304774Y-50085856D01*
X145640703Y-49937094D01*
X145977504Y-49791777D01*
X146314878Y-49650055D01*
X146652880Y-49511994D01*
X146991563Y-49377479D01*
X147330868Y-49246630D01*
X147670917Y-49119297D01*
X148011682Y-48995495D01*
X148353035Y-48875367D01*
X148695042Y-48758788D01*
X149037740Y-48645843D01*
X149381225Y-48536404D01*
X149725278Y-48430540D01*
X150070106Y-48328286D01*
X150415524Y-48229598D01*
X150761730Y-48134416D01*
X151108444Y-48042915D01*
X151456030Y-47954905D01*
X151804188Y-47870555D01*
X152153145Y-47789712D01*
X152502795Y-47712405D01*
X152853082Y-47638742D01*
X153204036Y-47568618D01*
X153555761Y-47502108D01*
X153765739Y-47464586D01*
X154538417Y-49009941D01*
X154591079Y-49077795D01*
X154633614Y-49152413D01*
X154672279Y-49182421D01*
X154702287Y-49221086D01*
X154776905Y-49263621D01*
X154844759Y-49316283D01*
X154891965Y-49329210D01*
X154934484Y-49353448D01*
X155019701Y-49364190D01*
X155102541Y-49386876D01*
X155151100Y-49380755D01*
X155199659Y-49386876D01*
X155282499Y-49364190D01*
X155367716Y-49353448D01*
X155410235Y-49329210D01*
X155457441Y-49316283D01*
X155525295Y-49263621D01*
X155599913Y-49221086D01*
X155629921Y-49182421D01*
X155668586Y-49152413D01*
X155711121Y-49077795D01*
X155763783Y-49009941D01*
X156536461Y-47464586D01*
X156746439Y-47502108D01*
G36*
X138794761Y-85569959D02*
X138137401Y-84912599D01*
X137890839Y-84747852D01*
X137600000Y-84690000D01*
X128842448Y-84690000D01*
X128847885Y-84657328D01*
X128776969Y-82626566D01*
X128724505Y-82392937D01*
X128577975Y-82181798D01*
X128564321Y-82173152D01*
X128651653Y-82112543D01*
X128754581Y-81950000D01*
X129202560Y-81950000D01*
X129202560Y-82950000D01*
X129246838Y-83185317D01*
X129385910Y-83401441D01*
X129598110Y-83546431D01*
X129850000Y-83597440D01*
X130450000Y-83597440D01*
X130685317Y-83553162D01*
X130901441Y-83414090D01*
X131040890Y-83210000D01*
X133002909Y-83210000D01*
X133183179Y-83284855D01*
X133515363Y-83285145D01*
X133822372Y-83158292D01*
X134057466Y-82923607D01*
X134184855Y-82616821D01*
X134185145Y-82284637D01*
X134058292Y-81977628D01*
X133823607Y-81742534D01*
X133516821Y-81615145D01*
X133184637Y-81614855D01*
X133002771Y-81690000D01*
X131037908Y-81690000D01*
X131085000Y-81576309D01*
X131085000Y-81235750D01*
X130926250Y-81077000D01*
X130277000Y-81077000D01*
X130277000Y-81097000D01*
X130023000Y-81097000D01*
X130023000Y-81077000D01*
X129373750Y-81077000D01*
X129215000Y-81235750D01*
X129215000Y-81576309D01*
X129260967Y-81687283D01*
X129253569Y-81698110D01*
X129202560Y-81950000D01*
X128754581Y-81950000D01*
X128789148Y-81895413D01*
X128831336Y-81641896D01*
X128793117Y-80547444D01*
X129215000Y-80547444D01*
X129215000Y-80664250D01*
X129373750Y-80823000D01*
X130023000Y-80823000D01*
X130023000Y-80803000D01*
X130277000Y-80803000D01*
X130277000Y-80823000D01*
X130926250Y-80823000D01*
X131085000Y-80664250D01*
X131085000Y-80547444D01*
X136587551Y-80547444D01*
X136587556Y-80547445D01*
X136908263Y-80483651D01*
X136926231Y-80480077D01*
X137213346Y-80288234D01*
X137213347Y-80288233D01*
X138475787Y-79025792D01*
X138475790Y-79025790D01*
X138667633Y-78738675D01*
X138735000Y-78400000D01*
X138735000Y-74546580D01*
X138778848Y-74502732D01*
X138794761Y-85569959D01*
X138794761Y-85569959D01*
G37*
X138794761Y-85569959D02*
X138137401Y-84912599D01*
X137890839Y-84747852D01*
X137600000Y-84690000D01*
X128842448Y-84690000D01*
X128847885Y-84657328D01*
X128776969Y-82626566D01*
X128724505Y-82392937D01*
X128577975Y-82181798D01*
X128564321Y-82173152D01*
X128651653Y-82112543D01*
X128754581Y-81950000D01*
X129202560Y-81950000D01*
X129202560Y-82950000D01*
X129246838Y-83185317D01*
X129385910Y-83401441D01*
X129598110Y-83546431D01*
X129850000Y-83597440D01*
X130450000Y-83597440D01*
X130685317Y-83553162D01*
X130901441Y-83414090D01*
X131040890Y-83210000D01*
X133002909Y-83210000D01*
X133183179Y-83284855D01*
X133515363Y-83285145D01*
X133822372Y-83158292D01*
X134057466Y-82923607D01*
X134184855Y-82616821D01*
X134185145Y-82284637D01*
X134058292Y-81977628D01*
X133823607Y-81742534D01*
X133516821Y-81615145D01*
X133184637Y-81614855D01*
X133002771Y-81690000D01*
X131037908Y-81690000D01*
X131085000Y-81576309D01*
X131085000Y-81235750D01*
X130926250Y-81077000D01*
X130277000Y-81077000D01*
X130277000Y-81097000D01*
X130023000Y-81097000D01*
X130023000Y-81077000D01*
X129373750Y-81077000D01*
X129215000Y-81235750D01*
X129215000Y-81576309D01*
X129260967Y-81687283D01*
X129253569Y-81698110D01*
X129202560Y-81950000D01*
X128754581Y-81950000D01*
X128789148Y-81895413D01*
X128831336Y-81641896D01*
X128793117Y-80547444D01*
X129215000Y-80547444D01*
X129215000Y-80664250D01*
X129373750Y-80823000D01*
X130023000Y-80823000D01*
X130023000Y-80803000D01*
X130277000Y-80803000D01*
X130277000Y-80823000D01*
X130926250Y-80823000D01*
X131085000Y-80664250D01*
X131085000Y-80547444D01*
X136587551Y-80547444D01*
X136587556Y-80547445D01*
X136908263Y-80483651D01*
X136926231Y-80480077D01*
X137213346Y-80288234D01*
X137213347Y-80288233D01*
X138475787Y-79025792D01*
X138475790Y-79025790D01*
X138667633Y-78738675D01*
X138735000Y-78400000D01*
X138735000Y-74546580D01*
X138778848Y-74502732D01*
X138794761Y-85569959D01*
G36*
X185415198Y-77840000D02*
X184149391Y-77840000D01*
X183858551Y-77897852D01*
X183611990Y-78062599D01*
X182640814Y-79033775D01*
X182208104Y-79018664D01*
X181971386Y-79054703D01*
X181750539Y-79186148D01*
X181598232Y-79393158D01*
X181538463Y-79643115D01*
X181468664Y-81641896D01*
X181483600Y-81740000D01*
X181387908Y-81740000D01*
X181435000Y-81626309D01*
X181435000Y-81285750D01*
X181276250Y-81127000D01*
X180627000Y-81127000D01*
X180627000Y-81147000D01*
X180373000Y-81147000D01*
X180373000Y-81127000D01*
X180353000Y-81127000D01*
X180353000Y-80873000D01*
X180373000Y-80873000D01*
X180373000Y-80023750D01*
X180627000Y-80023750D01*
X180627000Y-80873000D01*
X181276250Y-80873000D01*
X181435000Y-80714250D01*
X181435000Y-80373691D01*
X181338327Y-80140302D01*
X181159699Y-79961673D01*
X180926310Y-79865000D01*
X180785750Y-79865000D01*
X180627000Y-80023750D01*
X180373000Y-80023750D01*
X180214250Y-79865000D01*
X180085000Y-79865000D01*
X180085000Y-78360005D01*
X180085001Y-78360000D01*
X179960543Y-77734313D01*
X179884093Y-77619897D01*
X179828703Y-77537000D01*
X181794847Y-77537000D01*
X182103547Y-77665184D01*
X182475513Y-77665508D01*
X182819289Y-77523463D01*
X182852464Y-77490346D01*
X185065544Y-77490346D01*
X185415198Y-77840000D01*
X185415198Y-77840000D01*
G37*
X185415198Y-77840000D02*
X184149391Y-77840000D01*
X183858551Y-77897852D01*
X183611990Y-78062599D01*
X182640814Y-79033775D01*
X182208104Y-79018664D01*
X181971386Y-79054703D01*
X181750539Y-79186148D01*
X181598232Y-79393158D01*
X181538463Y-79643115D01*
X181468664Y-81641896D01*
X181483600Y-81740000D01*
X181387908Y-81740000D01*
X181435000Y-81626309D01*
X181435000Y-81285750D01*
X181276250Y-81127000D01*
X180627000Y-81127000D01*
X180627000Y-81147000D01*
X180373000Y-81147000D01*
X180373000Y-81127000D01*
X180353000Y-81127000D01*
X180353000Y-80873000D01*
X180373000Y-80873000D01*
X180373000Y-80023750D01*
X180627000Y-80023750D01*
X180627000Y-80873000D01*
X181276250Y-80873000D01*
X181435000Y-80714250D01*
X181435000Y-80373691D01*
X181338327Y-80140302D01*
X181159699Y-79961673D01*
X180926310Y-79865000D01*
X180785750Y-79865000D01*
X180627000Y-80023750D01*
X180373000Y-80023750D01*
X180214250Y-79865000D01*
X180085000Y-79865000D01*
X180085000Y-78360005D01*
X180085001Y-78360000D01*
X179960543Y-77734313D01*
X179884093Y-77619897D01*
X179828703Y-77537000D01*
X181794847Y-77537000D01*
X182103547Y-77665184D01*
X182475513Y-77665508D01*
X182819289Y-77523463D01*
X182852464Y-77490346D01*
X185065544Y-77490346D01*
X185415198Y-77840000D01*
G36*
X138127000Y-66123000D02*
X138147000Y-66123000D01*
X138147000Y-66377000D01*
X138127000Y-66377000D01*
X138127000Y-67373000D01*
X138147000Y-67373000D01*
X138147000Y-67627000D01*
X138127000Y-67627000D01*
X138127000Y-68276250D01*
X138285750Y-68435000D01*
X138626309Y-68435000D01*
X138770038Y-68375465D01*
X138775254Y-72003166D01*
X137224210Y-73554210D01*
X137032367Y-73841325D01*
X137032367Y-73841326D01*
X136964999Y-74180000D01*
X136965000Y-74180005D01*
X136965000Y-78033421D01*
X136223235Y-78775185D01*
X136284846Y-78626810D01*
X136285153Y-78274735D01*
X136150704Y-77949343D01*
X136025791Y-77824212D01*
X136025790Y-77824210D01*
X136025788Y-77824209D01*
X135901967Y-77700171D01*
X135576810Y-77565154D01*
X135224735Y-77564847D01*
X135224365Y-77565000D01*
X128885000Y-77565000D01*
X128885000Y-77393988D01*
X128923190Y-77409846D01*
X129275265Y-77410153D01*
X129600657Y-77275704D01*
X129608518Y-77267857D01*
X129613691Y-77270000D01*
X129661250Y-77270000D01*
X129820000Y-77111250D01*
X129820000Y-77056744D01*
X129849829Y-77026967D01*
X129980000Y-76713480D01*
X129980000Y-77111250D01*
X130138750Y-77270000D01*
X130186309Y-77270000D01*
X130419698Y-77173327D01*
X130598327Y-76994699D01*
X130695000Y-76761310D01*
X130695000Y-76738750D01*
X130536250Y-76580000D01*
X129984952Y-76580000D01*
X129985048Y-76470000D01*
X130536250Y-76470000D01*
X130695000Y-76311250D01*
X130695000Y-76288690D01*
X130598327Y-76055301D01*
X130419698Y-75876673D01*
X130269107Y-75814296D01*
X130307440Y-75625000D01*
X130307440Y-75325000D01*
X130279489Y-75176455D01*
X130374846Y-74946810D01*
X130375153Y-74594735D01*
X130240704Y-74269343D01*
X129991967Y-74020171D01*
X129666810Y-73885154D01*
X129510000Y-73885017D01*
X129510000Y-67664802D01*
X130164802Y-67010000D01*
X133365208Y-67010000D01*
X133240164Y-67311138D01*
X133239874Y-67643322D01*
X133366727Y-67950331D01*
X133601412Y-68185425D01*
X133908198Y-68312814D01*
X134240382Y-68313104D01*
X134368904Y-68260000D01*
X135548437Y-68260000D01*
X135748110Y-68396431D01*
X136000000Y-68447440D01*
X137000000Y-68447440D01*
X137235317Y-68403162D01*
X137259406Y-68387661D01*
X137373691Y-68435000D01*
X137714250Y-68435000D01*
X137873000Y-68276250D01*
X137873000Y-67627000D01*
X137853000Y-67627000D01*
X137853000Y-67373000D01*
X137873000Y-67373000D01*
X137873000Y-66377000D01*
X137853000Y-66377000D01*
X137853000Y-66123000D01*
X137873000Y-66123000D01*
X137873000Y-66103000D01*
X138127000Y-66103000D01*
X138127000Y-66123000D01*
X138127000Y-66123000D01*
G37*
X138127000Y-66123000D02*
X138147000Y-66123000D01*
X138147000Y-66377000D01*
X138127000Y-66377000D01*
X138127000Y-67373000D01*
X138147000Y-67373000D01*
X138147000Y-67627000D01*
X138127000Y-67627000D01*
X138127000Y-68276250D01*
X138285750Y-68435000D01*
X138626309Y-68435000D01*
X138770038Y-68375465D01*
X138775254Y-72003166D01*
X137224210Y-73554210D01*
X137032367Y-73841325D01*
X137032367Y-73841326D01*
X136964999Y-74180000D01*
X136965000Y-74180005D01*
X136965000Y-78033421D01*
X136223235Y-78775185D01*
X136284846Y-78626810D01*
X136285153Y-78274735D01*
X136150704Y-77949343D01*
X136025791Y-77824212D01*
X136025790Y-77824210D01*
X136025788Y-77824209D01*
X135901967Y-77700171D01*
X135576810Y-77565154D01*
X135224735Y-77564847D01*
X135224365Y-77565000D01*
X128885000Y-77565000D01*
X128885000Y-77393988D01*
X128923190Y-77409846D01*
X129275265Y-77410153D01*
X129600657Y-77275704D01*
X129608518Y-77267857D01*
X129613691Y-77270000D01*
X129661250Y-77270000D01*
X129820000Y-77111250D01*
X129820000Y-77056744D01*
X129849829Y-77026967D01*
X129980000Y-76713480D01*
X129980000Y-77111250D01*
X130138750Y-77270000D01*
X130186309Y-77270000D01*
X130419698Y-77173327D01*
X130598327Y-76994699D01*
X130695000Y-76761310D01*
X130695000Y-76738750D01*
X130536250Y-76580000D01*
X129984952Y-76580000D01*
X129985048Y-76470000D01*
X130536250Y-76470000D01*
X130695000Y-76311250D01*
X130695000Y-76288690D01*
X130598327Y-76055301D01*
X130419698Y-75876673D01*
X130269107Y-75814296D01*
X130307440Y-75625000D01*
X130307440Y-75325000D01*
X130279489Y-75176455D01*
X130374846Y-74946810D01*
X130375153Y-74594735D01*
X130240704Y-74269343D01*
X129991967Y-74020171D01*
X129666810Y-73885154D01*
X129510000Y-73885017D01*
X129510000Y-67664802D01*
X130164802Y-67010000D01*
X133365208Y-67010000D01*
X133240164Y-67311138D01*
X133239874Y-67643322D01*
X133366727Y-67950331D01*
X133601412Y-68185425D01*
X133908198Y-68312814D01*
X134240382Y-68313104D01*
X134368904Y-68260000D01*
X135548437Y-68260000D01*
X135748110Y-68396431D01*
X136000000Y-68447440D01*
X137000000Y-68447440D01*
X137235317Y-68403162D01*
X137259406Y-68387661D01*
X137373691Y-68435000D01*
X137714250Y-68435000D01*
X137873000Y-68276250D01*
X137873000Y-67627000D01*
X137853000Y-67627000D01*
X137853000Y-67373000D01*
X137873000Y-67373000D01*
X137873000Y-66377000D01*
X137853000Y-66377000D01*
X137853000Y-66123000D01*
X137873000Y-66123000D01*
X137873000Y-66103000D01*
X138127000Y-66103000D01*
X138127000Y-66123000D01*
G36*
X143040517Y-60150178D02*
X143148157Y-60383554D01*
X143288283Y-60511254D01*
X143061222Y-60737918D01*
X142811784Y-61338633D01*
X142811216Y-61989076D01*
X143059606Y-62590224D01*
X143519137Y-63050559D01*
X143561500Y-63068150D01*
X143561500Y-63337011D01*
X138889565Y-63353001D01*
X138840190Y-63363176D01*
X138798663Y-63391759D01*
X138771528Y-63434246D01*
X138763000Y-63480183D01*
X138763374Y-63740000D01*
X138485750Y-63740000D01*
X138327000Y-63898750D01*
X138327000Y-64623000D01*
X138347000Y-64623000D01*
X138347000Y-64877000D01*
X138327000Y-64877000D01*
X138327000Y-64897000D01*
X138073000Y-64897000D01*
X138073000Y-64877000D01*
X138053000Y-64877000D01*
X138053000Y-64623000D01*
X138073000Y-64623000D01*
X138073000Y-63898750D01*
X137914250Y-63740000D01*
X137473691Y-63740000D01*
X137240302Y-63836673D01*
X137238932Y-63838043D01*
X137151890Y-63778569D01*
X136900000Y-63727560D01*
X135700000Y-63727560D01*
X135464683Y-63771838D01*
X135319905Y-63865000D01*
X131186580Y-63865000D01*
X135016579Y-60035000D01*
X143035173Y-60035000D01*
X143040517Y-60150178D01*
X143040517Y-60150178D01*
G37*
X143040517Y-60150178D02*
X143148157Y-60383554D01*
X143288283Y-60511254D01*
X143061222Y-60737918D01*
X142811784Y-61338633D01*
X142811216Y-61989076D01*
X143059606Y-62590224D01*
X143519137Y-63050559D01*
X143561500Y-63068150D01*
X143561500Y-63337011D01*
X138889565Y-63353001D01*
X138840190Y-63363176D01*
X138798663Y-63391759D01*
X138771528Y-63434246D01*
X138763000Y-63480183D01*
X138763374Y-63740000D01*
X138485750Y-63740000D01*
X138327000Y-63898750D01*
X138327000Y-64623000D01*
X138347000Y-64623000D01*
X138347000Y-64877000D01*
X138327000Y-64877000D01*
X138327000Y-64897000D01*
X138073000Y-64897000D01*
X138073000Y-64877000D01*
X138053000Y-64877000D01*
X138053000Y-64623000D01*
X138073000Y-64623000D01*
X138073000Y-63898750D01*
X137914250Y-63740000D01*
X137473691Y-63740000D01*
X137240302Y-63836673D01*
X137238932Y-63838043D01*
X137151890Y-63778569D01*
X136900000Y-63727560D01*
X135700000Y-63727560D01*
X135464683Y-63771838D01*
X135319905Y-63865000D01*
X131186580Y-63865000D01*
X135016579Y-60035000D01*
X143035173Y-60035000D01*
X143040517Y-60150178D01*
M02*
