G04 #@! TF.FileFunction,Soldermask,Top*
%FSLAX46Y46*%
G04 Gerber Fmt 4.6, Leading zero omitted, Abs format (unit mm)*
G04 Created by KiCad (PCBNEW 4.0.1-stable) date 2016/10/17 21:23:02*
%MOMM*%
G01*
G04 APERTURE LIST*
%ADD10C,0.100000*%
%ADD11R,0.700000X1.250000*%
%ADD12R,1.250000X0.700000*%
%ADD13R,1.400000X0.650000*%
%ADD14R,0.650000X1.400000*%
%ADD15R,1.750000X1.750000*%
%ADD16C,1.750000*%
%ADD17R,1.150000X1.600000*%
%ADD18R,2.000200X3.000960*%
%ADD19O,1.906220X3.414980*%
%ADD20R,1.600000X1.150000*%
%ADD21R,1.197560X1.197560*%
%ADD22C,2.400000*%
%ADD23R,0.800000X1.400000*%
%ADD24R,2.127200X2.432000*%
%ADD25O,2.127200X2.432000*%
%ADD26R,1.460000X1.050000*%
%ADD27R,2.432000X2.432000*%
%ADD28O,2.432000X2.432000*%
%ADD29R,2.127200X2.127200*%
%ADD30O,2.127200X2.127200*%
%ADD31R,0.704800X0.908000*%
%ADD32R,1.200100X1.200100*%
%ADD33C,2.432000*%
%ADD34R,0.720000X0.700000*%
%ADD35R,0.720000X0.620000*%
%ADD36R,1.400000X1.000000*%
%ADD37R,1.000000X1.400000*%
%ADD38C,1.924000*%
%ADD39R,4.400000X3.400000*%
%ADD40R,1.450000X1.150000*%
%ADD41R,1.600000X1.800000*%
%ADD42R,1.900000X2.150000*%
G04 APERTURE END LIST*
D10*
D11*
X152800000Y-141300000D03*
X153300000Y-141300000D03*
X153800000Y-141300000D03*
X154300000Y-141300000D03*
X154800000Y-141300000D03*
X155300000Y-141300000D03*
D12*
X156000000Y-140600000D03*
X156000000Y-140100000D03*
X156000000Y-139600000D03*
X156000000Y-139100000D03*
X156000000Y-138600000D03*
X156000000Y-138100000D03*
D11*
X155300000Y-137400000D03*
X154800000Y-137400000D03*
X154300000Y-137400000D03*
X153800000Y-137400000D03*
X153300000Y-137400000D03*
X152800000Y-137400000D03*
D12*
X152100000Y-138100000D03*
X152100000Y-138600000D03*
X152100000Y-139100000D03*
X152100000Y-139600000D03*
X152100000Y-140100000D03*
X152100000Y-140600000D03*
D13*
X148050000Y-125500000D03*
X148050000Y-126000000D03*
X148050000Y-126500000D03*
X148050000Y-127000000D03*
X148050000Y-127500000D03*
X148050000Y-128000000D03*
X148050000Y-128500000D03*
X148050000Y-129000000D03*
X148050000Y-129500000D03*
X148050000Y-130000000D03*
X148050000Y-130500000D03*
X148050000Y-131000000D03*
X148050000Y-131500000D03*
X148050000Y-132000000D03*
X148050000Y-132500000D03*
X148050000Y-133000000D03*
D14*
X150000000Y-134950000D03*
X150500000Y-134950000D03*
X151000000Y-134950000D03*
X151500000Y-134950000D03*
X152000000Y-134950000D03*
X152500000Y-134950000D03*
X153000000Y-134950000D03*
X153500000Y-134950000D03*
X154000000Y-134950000D03*
X154500000Y-134950000D03*
X155000000Y-134950000D03*
X155500000Y-134950000D03*
X156000000Y-134950000D03*
X156500000Y-134950000D03*
X157000000Y-134950000D03*
X157500000Y-134950000D03*
D13*
X159450000Y-133000000D03*
X159450000Y-132500000D03*
X159450000Y-132000000D03*
X159450000Y-131500000D03*
X159450000Y-131000000D03*
X159450000Y-130500000D03*
X159450000Y-130000000D03*
X159450000Y-129500000D03*
X159450000Y-129000000D03*
X159450000Y-128500000D03*
X159450000Y-128000000D03*
X159450000Y-127500000D03*
X159450000Y-127000000D03*
X159450000Y-126500000D03*
X159450000Y-126000000D03*
X159450000Y-125500000D03*
D14*
X157500000Y-123550000D03*
X157000000Y-123550000D03*
X156500000Y-123550000D03*
X156000000Y-123550000D03*
X155500000Y-123550000D03*
X155000000Y-123550000D03*
X154500000Y-123550000D03*
X154000000Y-123550000D03*
X153500000Y-123550000D03*
X153000000Y-123550000D03*
X152500000Y-123550000D03*
X152000000Y-123550000D03*
X151500000Y-123550000D03*
X151000000Y-123550000D03*
X150500000Y-123550000D03*
X150000000Y-123550000D03*
D15*
X136000000Y-123500000D03*
D16*
X136000000Y-125500000D03*
X136000000Y-127500000D03*
X136000000Y-129500000D03*
X136000000Y-131500000D03*
X136000000Y-133500000D03*
X136000000Y-135500000D03*
X138000000Y-123500000D03*
X138000000Y-125500000D03*
X138000000Y-127500000D03*
X138000000Y-129500000D03*
X138000000Y-131500000D03*
X138000000Y-133500000D03*
X138000000Y-135500000D03*
D17*
X148250000Y-137050000D03*
X148250000Y-138950000D03*
D18*
X168500000Y-120699140D03*
X168500000Y-124300860D03*
D19*
X165750000Y-141250000D03*
X163750000Y-141250000D03*
D20*
X168050000Y-93000000D03*
X169950000Y-93000000D03*
X143450000Y-103750000D03*
X141550000Y-103750000D03*
X140450000Y-92750000D03*
X138550000Y-92750000D03*
X176950000Y-86000000D03*
X175050000Y-86000000D03*
D17*
X152000000Y-120650000D03*
X152000000Y-118750000D03*
X155200000Y-118750000D03*
X155200000Y-120650000D03*
X147775000Y-120650000D03*
X147775000Y-118750000D03*
X146000000Y-120675000D03*
X146000000Y-118775000D03*
X144700000Y-131450000D03*
X144700000Y-129550000D03*
D20*
X140800000Y-123250000D03*
X142700000Y-123250000D03*
D17*
X162500000Y-130950000D03*
X162500000Y-129050000D03*
D20*
X173050000Y-127500000D03*
X174950000Y-127500000D03*
D17*
X164000000Y-129050000D03*
X164000000Y-130950000D03*
D18*
X174000000Y-120699140D03*
X174000000Y-124300860D03*
D20*
X136300000Y-64750000D03*
X138200000Y-64750000D03*
D17*
X146750000Y-138950000D03*
X146750000Y-137050000D03*
X150400000Y-120650000D03*
X150400000Y-118750000D03*
D20*
X171800000Y-64750000D03*
X173700000Y-64750000D03*
D17*
X153600000Y-120650000D03*
X153600000Y-118750000D03*
D20*
X176950000Y-84500000D03*
X175050000Y-84500000D03*
D21*
X120899300Y-141700000D03*
X119400700Y-141700000D03*
X125399300Y-141700000D03*
X123900700Y-141700000D03*
X184900700Y-141700000D03*
X186399300Y-141700000D03*
X189400700Y-141700000D03*
X190899300Y-141700000D03*
X144725000Y-137450700D03*
X144725000Y-138949300D03*
X131000000Y-133750700D03*
X131000000Y-135249300D03*
D10*
G36*
X125908852Y-79542610D02*
X128307390Y-79458852D01*
X128391148Y-81857390D01*
X125992610Y-81941148D01*
X125908852Y-79542610D01*
X125908852Y-79542610D01*
G37*
D22*
X124611547Y-80788645D03*
D10*
G36*
X143444671Y-60171314D02*
X143778686Y-57794671D01*
X146155329Y-58128686D01*
X145821314Y-60505329D01*
X143444671Y-60171314D01*
X143444671Y-60171314D01*
G37*
D22*
X144446500Y-61665281D03*
D10*
G36*
X164832008Y-60618860D02*
X164581140Y-58232008D01*
X166967992Y-57981140D01*
X167218860Y-60367992D01*
X164832008Y-60618860D01*
X164832008Y-60618860D01*
G37*
D22*
X166165502Y-61826086D03*
D10*
G36*
X184307390Y-81941148D02*
X181908852Y-81857390D01*
X181992610Y-79458852D01*
X184391148Y-79542610D01*
X184307390Y-81941148D01*
X184307390Y-81941148D01*
G37*
D22*
X185688453Y-80788645D03*
D21*
X170249300Y-140900000D03*
X168750700Y-140900000D03*
D23*
X155725000Y-104150000D03*
X156375000Y-104150000D03*
X157025000Y-104150000D03*
X157675000Y-104150000D03*
X158325000Y-104150000D03*
X158975000Y-104150000D03*
X159625000Y-104150000D03*
X160275000Y-104150000D03*
X160275000Y-98350000D03*
X159625000Y-98350000D03*
X158975000Y-98350000D03*
X158325000Y-98350000D03*
X157675000Y-98350000D03*
X157025000Y-98350000D03*
X156375000Y-98350000D03*
X155725000Y-98350000D03*
X149725000Y-104150000D03*
X150375000Y-104150000D03*
X151025000Y-104150000D03*
X151675000Y-104150000D03*
X152325000Y-104150000D03*
X152975000Y-104150000D03*
X153625000Y-104150000D03*
X154275000Y-104150000D03*
X154275000Y-98350000D03*
X153625000Y-98350000D03*
X152975000Y-98350000D03*
X152325000Y-98350000D03*
X151675000Y-98350000D03*
X151025000Y-98350000D03*
X150375000Y-98350000D03*
X149725000Y-98350000D03*
D24*
X149110000Y-142220000D03*
D25*
X146570000Y-142220000D03*
X144030000Y-142220000D03*
X141490000Y-142220000D03*
D26*
X172900000Y-129550000D03*
X172900000Y-130500000D03*
X172900000Y-131450000D03*
X175100000Y-131450000D03*
X175100000Y-129550000D03*
X167400000Y-129550000D03*
X167400000Y-130500000D03*
X167400000Y-131450000D03*
X169600000Y-131450000D03*
X169600000Y-129550000D03*
D27*
X177000000Y-82000000D03*
D28*
X174460000Y-82000000D03*
D29*
X172750000Y-96250000D03*
D30*
X172750000Y-98790000D03*
X170210000Y-96250000D03*
X170210000Y-98790000D03*
X167670000Y-96250000D03*
X167670000Y-98790000D03*
D29*
X142500000Y-96250000D03*
D30*
X142500000Y-98790000D03*
X139960000Y-96250000D03*
X139960000Y-98790000D03*
X137420000Y-96250000D03*
X137420000Y-98790000D03*
D31*
X163150000Y-53216000D03*
X163785000Y-51184000D03*
X162515000Y-51184000D03*
X163785000Y-53216000D03*
X163150000Y-51184000D03*
X162515000Y-53216000D03*
D32*
X168799240Y-134950000D03*
X168799240Y-136850000D03*
X170798220Y-135900000D03*
D10*
G36*
X184322821Y-84957697D02*
X181892303Y-84872821D01*
X181977179Y-82442303D01*
X184407697Y-82527179D01*
X184322821Y-84957697D01*
X184322821Y-84957697D01*
G37*
D33*
X185688453Y-83788645D02*
X185688453Y-83788645D01*
D10*
G36*
X162192768Y-60886445D02*
X161938555Y-58467768D01*
X164357232Y-58213555D01*
X164611445Y-60632232D01*
X162192768Y-60886445D01*
X162192768Y-60886445D01*
G37*
D33*
X163540502Y-62076086D02*
X163540502Y-62076086D01*
D34*
X129500000Y-75475000D03*
D35*
X129100000Y-76525000D03*
X129900000Y-76525000D03*
D10*
G36*
X125892303Y-82527179D02*
X128322821Y-82442303D01*
X128407697Y-84872821D01*
X125977179Y-84957697D01*
X125892303Y-82527179D01*
X125892303Y-82527179D01*
G37*
D33*
X124611547Y-83788645D02*
X124611547Y-83788645D01*
D10*
G36*
X146026600Y-60534931D02*
X146365069Y-58126600D01*
X148773400Y-58465069D01*
X148434931Y-60873400D01*
X146026600Y-60534931D01*
X146026600Y-60534931D01*
G37*
D33*
X147046500Y-62015281D02*
X147046500Y-62015281D01*
D34*
X180500000Y-75475000D03*
D35*
X180100000Y-76525000D03*
X180900000Y-76525000D03*
D36*
X119750000Y-140000000D03*
X121250000Y-140000000D03*
X123750000Y-140000000D03*
X125250000Y-140000000D03*
X186000000Y-139200000D03*
X184500000Y-139200000D03*
X187450000Y-139200000D03*
X188950000Y-139200000D03*
X142750000Y-137500000D03*
X141250000Y-137500000D03*
D37*
X132500000Y-135250000D03*
X132500000Y-133750000D03*
D36*
X144250000Y-124750000D03*
X145750000Y-124750000D03*
X141250000Y-127250000D03*
X142750000Y-127250000D03*
D37*
X167400000Y-136750000D03*
X167400000Y-135250000D03*
D36*
X146000000Y-123250000D03*
X144500000Y-123250000D03*
X145750000Y-126250000D03*
X144250000Y-126250000D03*
D37*
X164000000Y-126250000D03*
X164000000Y-124750000D03*
X162500000Y-124750000D03*
X162500000Y-126250000D03*
D36*
X142750000Y-133000000D03*
X141250000Y-133000000D03*
D37*
X149750000Y-138500000D03*
X149750000Y-137000000D03*
X180500000Y-82500000D03*
X180500000Y-81000000D03*
D36*
X136500000Y-66250000D03*
X138000000Y-66250000D03*
X172000000Y-67500000D03*
X173500000Y-67500000D03*
D37*
X121150000Y-79450000D03*
X121150000Y-80950000D03*
D36*
X136500000Y-67500000D03*
X138000000Y-67500000D03*
D37*
X130150000Y-82450000D03*
X130150000Y-80950000D03*
D36*
X172000000Y-66000000D03*
X173500000Y-66000000D03*
D37*
X188650000Y-80950000D03*
X188650000Y-79450000D03*
D38*
X159000000Y-141300000D03*
X159000000Y-139700000D03*
X160750000Y-139700000D03*
X160750000Y-141300000D03*
D36*
X165500000Y-53500000D03*
X167000000Y-53500000D03*
X140750000Y-121250000D03*
X139250000Y-121250000D03*
X174570000Y-72380000D03*
X176070000Y-72380000D03*
X158750000Y-61000000D03*
X160250000Y-61000000D03*
X178150000Y-134800000D03*
X179650000Y-134800000D03*
X175850000Y-134800000D03*
X174350000Y-134800000D03*
D39*
X159125000Y-57025000D03*
X159125000Y-52525000D03*
X151625000Y-57025000D03*
X151625000Y-52525000D03*
D15*
X134650000Y-139200000D03*
D16*
X136650000Y-139200000D03*
D40*
X127575000Y-138675000D03*
X131725000Y-138675000D03*
X127575000Y-140725000D03*
X131725000Y-140725000D03*
D15*
X173650000Y-139200000D03*
D16*
X175650000Y-139200000D03*
D40*
X178575000Y-138675000D03*
X182725000Y-138675000D03*
X178575000Y-140725000D03*
X182725000Y-140725000D03*
D41*
X142650000Y-129100000D03*
X140950000Y-129100000D03*
X140950000Y-131300000D03*
X142650000Y-131300000D03*
D20*
X167050000Y-102250000D03*
X168950000Y-102250000D03*
X170050000Y-91500000D03*
X171950000Y-91500000D03*
X138450000Y-91250000D03*
X136550000Y-91250000D03*
X143450000Y-102250000D03*
X141550000Y-102250000D03*
X167050000Y-103750000D03*
X168950000Y-103750000D03*
D42*
X177960000Y-77870000D03*
X173260000Y-77870000D03*
D32*
X174420000Y-75910000D03*
X176320000Y-75910000D03*
X175370000Y-73911020D03*
M02*
