M48
;DRILL file {KiCad 4.0.1-stable} date 2016/10/17 20:37:10
;FORMAT={-:-/ absolute / metric / decimal}
FMAT,2
METRIC,TZ
T1C0.300
T2C0.400
T3C0.600
T4C0.762
T5C0.800
T6C0.998
T7C1.001
T8C1.016
T9C1.300
T10C1.800
%
G90
G05
M71
T1
X122.09Y-80.94
X127.575Y-140.725
X129.1Y-76.525
X129.49Y-74.77
X129.9Y-76.525
X130.175Y-110.4
X131.1Y-80.96
X131.725Y-140.725
X133.Y-129.5
X133.Y-137.35
X133.3Y-111.1
X133.35Y-82.45
X133.9Y-136.6
X133.925Y-131.5
X134.075Y-67.478
X134.1Y-111.7
X134.5Y-127.5
X135.4Y-78.45
X135.4Y-100.35
X136.Y-109.5
X137.4Y-108.9
X138.Y-119.
X138.15Y-57.
X138.2Y-64.75
X139.Y-130.
X139.512Y-121.45
X139.521Y-137.021
X139.7Y-125.897
X139.811Y-134.395
X140.325Y-123.25
X140.325Y-127.25
X140.695Y-121.171
X140.95Y-129.1
X141.Y-117.5
X141.25Y-137.5
X141.934Y-120.864
X142.Y-139.375
X142.318Y-121.45
X142.625Y-135.15
X142.747Y-126.087
X142.957Y-123.605
X143.Y-119.
X143.Y-139.
X143.191Y-135.716
X143.372Y-125.377
X145.165Y-134.773
X145.51Y-137.37
X145.75Y-124.75
X146.023Y-131.601
X146.055Y-121.75
X146.9Y-132.08
X146.959Y-132.85
X146.96Y-95.3
X146.96Y-98.35
X146.96Y-117.007
X146.975Y-92.775
X147.Y-135.5
X147.675Y-94.6
X148.051Y-133.331
X148.425Y-108.3
X148.45Y-97.525
X148.85Y-138.95
X148.99Y-124.72
X149.Y-119.
X149.Y-120.5
X149.014Y-126.762
X149.16Y-132.002
X149.2Y-103.1
X149.24Y-128.315
X149.388Y-127.682
X149.47Y-65.01
X149.654Y-108.941
X149.69Y-126.58
X149.94Y-132.028
X150.129Y-131.354
X150.3Y-107.7
X150.352Y-103.402
X150.367Y-136.874
X150.424Y-128.915
X150.501Y-109.5
X150.985Y-122.555
X151.Y-107.1
X151.05Y-103.35
X151.068Y-138.668
X151.1Y-139.45
X151.28Y-109.76
X151.5Y-133.5
X151.575Y-130.5
X151.76Y-126.97
X152.09Y-122.18
X152.6Y-133.019
X152.704Y-133.661
X152.717Y-132.431
X152.76Y-122.13
X152.785Y-125.2
X152.8Y-113.2
X152.9Y-112.3
X153.03Y-103.02
X153.3Y-111.7
X153.396Y-133.55
X153.402Y-122.479
X153.8Y-111.2
X154.002Y-122.483
X154.049Y-133.298
X154.4Y-109.3
X154.534Y-132.735
X154.6Y-122.429
X154.775Y-133.392
X154.948Y-108.353
X155.125Y-139.963
X155.362Y-107.788
X155.5Y-137.4
X155.649Y-107.15
X155.938Y-133.072
X155.944Y-133.827
X156.Y-111.6
X156.15Y-117.35
X156.15Y-121.65
X156.736Y-103.
X156.8Y-99.7
X156.823Y-133.042
X156.845Y-131.25
X156.939Y-132.352
X157.521Y-131.068
X157.595Y-103.03
X158.85Y-138.3
X159.125Y-57.025
X159.334Y-110.939
X159.604Y-138.393
X159.7Y-108.9
X159.9Y-136.8
X160.525Y-123.54
X160.575Y-132.
X160.601Y-127.89
X160.74Y-127.115
X160.925Y-126.105
X161.Y-111.6
X161.025Y-131.38
X161.107Y-125.428
X161.223Y-129.94
X161.4Y-133.6
X161.4Y-135.8
X161.8Y-99.6
X161.8Y-137.3
X161.95Y-144.25
X162.225Y-130.945
X162.5Y-123.6
X162.515Y-51.585
X162.6Y-93.9
X163.08Y-127.86
X164.5Y-110.3
X164.85Y-98.8
X165.3Y-110.9
X165.5Y-95.5
X166.397Y-133.4
X166.4Y-116.6
X166.75Y-93.9
X167.016Y-126.793
X167.412Y-129.012
X168.26Y-93.203
X168.65Y-143.55
X168.751Y-140.9
X169.77Y-66.87
X170.61Y-66.82
X170.68Y-72.38
X170.798Y-131.45
X171.92Y-69.17
X171.95Y-91.5
X172.8Y-118.8
X173.26Y-77.87
X174.Y-124.301
X174.5Y-112.2
X175.1Y-89.5
X175.25Y-112.8
X176.5Y-122.5
X177.Y-137.
X177.5Y-109.7
X177.5Y-117.35
X177.8Y-90.9
X178.5Y-76.5
X179.188Y-81.263
X179.65Y-134.8
X179.775Y-88.948
X179.8Y-68.9
X180.5Y-116.6
T2
X146.1Y-105.8
X149.35Y-139.725
X151.Y-135.781
X151.125Y-123.94
X152.Y-135.781
X153.502Y-136.4
X155.125Y-139.15
X158.2Y-136.6
X162.792Y-126.226
X165.5Y-121.
X165.5Y-126.
X169.58Y-127.025
X169.58Y-129.995
X171.173Y-140.543
X172.9Y-130.5
X173.Y-126.3
X173.97Y-132.33
X174.Y-106.9
X174.361Y-135.649
X175.84Y-133.98
X181.24Y-75.49
X182.29Y-76.73
T3
X157.75Y-143.25
X163.075Y-132.234
X175.773Y-131.398
X176.766Y-120.65
T4
X159.Y-139.7
X159.Y-141.3
X160.75Y-139.7
X160.75Y-141.3
T5
X134.65Y-139.2
X136.Y-123.5
X136.Y-125.5
X136.Y-127.5
X136.Y-129.5
X136.Y-131.5
X136.Y-133.5
X136.Y-135.5
X136.65Y-139.2
X138.Y-123.5
X138.Y-125.5
X138.Y-127.5
X138.Y-129.5
X138.Y-131.5
X138.Y-133.5
X138.Y-135.5
X143.4Y-113.4
X143.4Y-114.49
X143.45Y-107.
X143.46Y-101.3
X143.465Y-103.95
X149.55Y-96.7
X152.3Y-101.8
X154.4Y-97.4
X154.5Y-105.
X158.4Y-97.2
X158.4Y-101.8
X160.3Y-97.2
X160.3Y-105.175
X163.75Y-102.85
X163.75Y-103.7
X165.7Y-135.8
X165.75Y-137.25
X166.7Y-102.6
X166.7Y-103.4
X166.7Y-114.2
X166.8Y-108.1
X167.7Y-114.2
X168.2Y-108.1
X168.5Y-120.699
X169.Y-132.05
X171.2Y-128.9
X171.2Y-128.9
X172.826Y-74.78
X173.65Y-139.2
X175.65Y-139.2
T6
X163.75Y-141.25
X165.75Y-141.25
T7
X124.612Y-80.789
X127.15Y-80.7
X144.446Y-61.665
X144.8Y-59.15
X165.9Y-59.3
X166.166Y-61.826
X183.15Y-80.7
X185.688Y-80.789
T8
X124.612Y-83.789
X127.15Y-83.7
X137.42Y-96.25
X137.42Y-98.79
X139.96Y-96.25
X139.96Y-98.79
X141.49Y-142.22
X142.5Y-96.25
X142.5Y-98.79
X144.03Y-142.22
X146.57Y-142.22
X147.046Y-62.015
X147.4Y-59.5
X149.11Y-142.22
X163.275Y-59.55
X163.541Y-62.076
X167.67Y-96.25
X167.67Y-98.79
X170.21Y-96.25
X170.21Y-98.79
X172.75Y-96.25
X172.75Y-98.79
X174.46Y-82.
X177.Y-82.
X183.15Y-83.7
X185.688Y-83.789
T9
X165.35Y-92.825
X173.648Y-91.46
X173.65Y-88.639
T10
X170.8Y-137.28
T0
M30
